<svg width="1184" height="972" version="1.1" viewBox="0 0 1184 972" xmlns="http://www.w3.org/2000/svg">
 <g>
  <path d="m188.5 499.47c-7.8886-1.747-21.869-6.7338-31.998-11.413-12.549-5.7977-35.446-21.902-40.779-28.682-2.5197-3.2033-3.0505-3.2781 10.311 1.4539 16.042 5.6814 23.156 6.6708 47.966 6.6708 28.612 0 30.505-0.42075 76.5-17.01 30.505-11.002 41.753-13.788 56-13.868 13.07-0.0736 19.187 1.2439 30.274 6.5204 13.52 6.4346 25.665 19.391 33.819 36.08 1.5378 3.1471 2.5068 6.0113 2.1532 6.3649s-3.9286-0.70641-7.9446-2.3555c-9.9809-4.0984-25.951-8.9026-33.802-10.168-9.3194-1.5026-27.359-1.3049-37.119 0.40676-9.4575 1.6587-20.699 5.3063-35.381 11.48-16.65 7.0013-30.618 12.207-38 14.162-8.2792 2.1926-22.975 2.3572-32 0.35849zm790.5-2.4562c-8.2512-2.2916-13.903-4.3403-32.5-11.78-31.564-12.628-41.815-14.787-66.346-13.973-16.479 0.54698-25.071 2.2322-42.154 8.2677-13.226 4.6729-12.737 4.8843-8.4432-3.6475 8.5542-16.999 18.819-27.896 32.758-34.774 20.861-10.295 39.257-9.5522 75.685 3.0568 61.284 21.212 60.355 20.931 72.14 21.803 21.691 1.6052 46.605-1.4602 65.989-8.1193 4.9339-1.6949 9.1956-2.8568 9.4704-2.582 0.8113 0.81131-14.383 13.463-23.9 19.9-16.325 11.043-33.267 18.107-53.515 22.314-9.5178 1.9775-21.05 1.7934-29.185-0.46586z" fill="#df9d36"/>
  <path d="m566.8 369.91c-30.717-0.0195-55.889 0.14762-59.033 0.53515-18.959 2.3366-36.264 18.824-36.264 46.393 0 22.422 17.549 42.591 36.539 45.683 5.3835 0.82167 48.606-0.60181 92.012 0.12852 43.406-0.73033 86.627 0.69315 92.011-0.12852 18.991-3.0917 35.788-23.402 35.788-45.824 0-27.569-16.554-43.915-35.512-46.252-3.1444-0.38753-28.316-0.55467-59.033-0.53515-10.655 7e-3 -21.952 0.0375-33.254 0.0879-11.302-0.0504-22.599-0.0809-33.254-0.0879zm-120.66 394.63c-27.314 0-47.697 0.23797-49.199 0.8125-20.411 5.8939-23.161 25.082-23.113 38-0.048 15.464 5.3828 29.968 20.719 34.084 4.1207 0.9828 52.402 1.3672 205.46 1.3672h0.09c153.06 0 201.34-0.3844 205.46-1.3672 15.336-4.1165 20.767-18.62 20.719-34.084 0.048-12.918-2.7025-32.106-23.113-38-1.5026-0.57453-21.885-0.78903-49.199-0.8125-60.091-0.0517-153.74 0.82226-153.74 0.82226h-0.3555s-93.645-0.82226-153.74-0.82226z" fill="#419bb3"/>
  <path d="m468.48 98.088c-8.2838-0.0029-16.697 0.42064-20.223 1.1699-5.9734 1.2696-14.662 9.6215-16.246 15.617-0.83643 3.1663-1.0489 21.683-0.76563 67 0.38218 61.135 0.44517 62.799 2.6016 69.963 3.9684 13.184 9.5421 22.847 21.59 34.551 6.5299 6.3438 10.858 9.3659 19.711 13.762 10.575 5.2506 23.043 7.3999 31.738 7.3672l4.6133-0.01758 0.27344 16.693 0.27148 17.693 4.2285 0.33789c2.3114 0.18426 37.583 0.32088 83.244 0.30664 0.19051 6e-5 0.34305-6e-5 0.5332 0 45.661 0.0142 80.933-0.12238 83.244-0.30664l4.2285-0.33789 0.27148-17.693 0.27344-16.693 4.6133 0.0176c8.6954 0.0327 21.164-2.1166 31.738-7.3672 8.8529-4.3958 13.181-7.418 19.711-13.762 12.048-11.704 17.621-21.367 21.59-34.551 2.1564-7.1641 2.2194-8.828 2.6016-69.963 0.28329-45.317 0.0708-63.834-0.76563-67-1.5838-5.9957-10.273-14.348-16.246-15.617-3.5253-0.74928-11.939-1.1729-20.223-1.1699-4.9703 0.0017-9.8943 0.15562-13.686 0.48633-5.3705 0.64376-14.447 2.1029-14.506 6.6914-0.0323 2.5394 0.4004 42.534-1.0996 63.025-2 15.909-18.194 25.738-35.029 25.738-21.121 0-32.702-9.8293-35.227-25.738l-0.97827-53.645c-0.30727-16.85-6.9957-16.521-12.693-16.521-15.904 0-20.477-0.01652-36.037 0-5.5163 0.0092-12.54-0.52101-12.83 16.518l-0.91369 53.649c-2.121 15.953-14.168 25.738-35.289 25.738-16.835 0-33.029-9.8297-35.029-25.738-1.5-20.491-1.0996-60.795-1.0996-63.025-8e-5 -4.5889-9.1353-6.0476-14.506-6.6914-3.7912-0.33071-8.7153-0.48459-13.686-0.48633zm131.04 391.71v2e-3c-0.89986 3e-3 -1.1795 5e-3 -2.5176 8e-3l-79 0.18727v23.951c0 13.173-0.4079 26.11-0.90625 28.75-2.9021 37.26-11.836 77.06-21.975 107.98-8.287 24.962-17.826 46.649-32.574 74.066l-6.5898 12.25h287.66l-6.5898-12.25c-14.749-27.417-24.287-49.104-32.574-74.066-14.418-38.263-18.356-70.593-21.975-107.98-0.49835-2.6396-0.90625-15.577-0.90625-28.75v-23.951l-79-0.1875c-1.3381-3e-3 -1.6177-5e-3 -2.5176-8e-3v-2e-3c-0.13943 3.5e-4 -0.15073-3.2e-4 -0.26562 0-0.11558-3.2e-4 -0.12712 3.6e-4 -0.26758 0zm-9.416 392.38c-18.012-2e-3 -34.173 0.19346-49.729 0.62891-50.636 0.88331-75.73 2.8356-145.3 9.75-45.12 4.484-53.864 5.597-90.045 11.463-28.971 4.697-110.84 20.635-138.26 26.916-27.968 6.4066-46.877 11.799-41.945 11.963 15.387-1.9537 13.002-1.9212 23.891-3.4036 108.56-14.862 206.47-18.352 304.36-23.487 39.147-2.0676 94.955-3.2845 146.72-3.4805 51.761 0.19597 107.57 1.4129 146.71 3.4805 114.3 4.1019 171.65 7.3581 312.72 24.418 5.6565 0.97256 14.405 2.5102 15.535 2.4726 4.9317-0.16368-13.977-5.5563-41.945-11.963-27.422-6.2814-109.29-22.219-138.26-26.916-36.181-5.8659-44.925-6.9788-90.045-11.463-69.573-6.9143-94.669-8.8667-145.3-9.75-15.556-0.43549-31.718-0.63053-49.73-0.62891-3.1376 2.8e-4 -6.4266 0.0141-9.6816 0.0254-3.2557-0.0113-6.5453-0.0251-9.6836-0.0254z" fill="#1c3141"/>
 </g>
</svg>
