<svg width="640" height="480" version="1.1" viewBox="0 0 640 480" xmlns="http://www.w3.org/2000/svg">
 <path d="m252.29 446.61c-0.10439-0.63153-0.19131-6.8689-0.19317-13.861l-3e-3 -12.713-3.7509-0.69473c-6.9176-1.2813-23.529-5.3018-31.156-7.541-4.0681-1.1944-18.819-6.0845-20.362-6.7504-0.50523-0.21801-1.8142-0.7101-2.9089-1.0935s-2.1281-0.78877-2.2965-0.90074c-0.16841-0.11199-0.99514-0.45198-1.8372-0.75555-1.7577-0.63368-8.5735-3.4992-11.414-4.7984-1.0568-0.48349-1.982-0.87902-2.056-0.87902-0.51015 0-18.083-8.982-21.284-10.878-7.7523-4.5939-10.342-6.2036-15.157-9.4208-28.706-19.181-50.18-42.289-63.061-67.856-4.3587-8.6522-6.6384-14.509-9.4872-24.373-4.6095-15.961-5.7259-34.952-3.0582-52.017 3.9653-25.369 16.1-49.852 35.608-71.84 2.8291-3.1887 12.081-12.519 14.234-14.355 0.86534-0.7379 2.1934-1.9166 2.9512-2.6192 0.75784-0.70264 3.3069-2.8301 5.6647-4.7277 2.3577-1.8976 4.5623-3.6765 4.8992-3.9533 2.6167-2.1498 11.091-8.0043 18.066-12.48 11.779-7.5591 28.647-16.044 44.552-22.41 8.7196-3.4903 23.16-8.3387 32.151-10.794 24.922-6.8068 47.553-10.417 77.009-12.285 7.0781-0.44895 31.076-0.44393 38.428 0.0081 10.731 0.65976 22.024 1.6699 27.558 2.4651 1.0947 0.15728 4.0571 0.57835 6.5832 0.93571 5.5893 0.79073 13.721 2.1997 18.678 3.2362 2.0209 0.42258 4.4322 0.90818 5.3585 1.0792 3.0377 0.56068 15.364 3.6526 20.209 5.0694 2.6103 0.76329 5.2283 1.5187 5.8178 1.6787 3.1992 0.86835 18.273 6.0921 23.25 8.0573 16.68 6.586 34.334 15.442 46.564 23.359 16.079 10.409 25.736 18.095 37.378 29.747 8.4985 8.5071 13.33 14.128 18.894 21.983 2.6461 3.7356 3.5868 5.1552 6.3493 9.5828 2.854 4.5737 7.2661 13.255 9.7267 19.137 9.7242 23.247 12.229 49.172 7.0851 73.334-1.4532 6.8267-4.7017 17.285-6.9669 22.431-0.38881 0.88314-0.96535 2.2258-1.2812 2.9836-1.0881 2.6106-6.1573 12.407-8.0328 15.524-11.591 19.263-28.454 37.341-49.218 52.764-3.7466 2.7828-14.615 10.023-18.372 12.239-25.316 14.931-48.995 24.675-79.305 32.635-5.3398 1.4023-21.941 5.0314-23.015 5.0314-0.0564 0-0.10264 6.2694-0.10264 13.932v13.932h-132.5zm-0.12376-50.829 0.0803-11.253 22.659-0.3062 2.4496-0.86207c6.3766-2.244 11.992-7.1001 14.946-12.925 1.2337-2.433 2.0485-5.296 2.0485-7.1987v-1.3009l-3.1385 0.21268c-5.4966 0.37249-14.893 1.5421-21.357 2.6583-8.4474 1.4587-24.399 5.0762-30.314 6.8748-16.067 4.8854-25.995 8.7818-37.509 14.721-5.574 2.8753-6.8839 3.6-6.887 3.8106-5e-3 0.37187 15.228 5.5884 24.034 8.2306 13.579 4.074 30.182 8.508 32.071 8.565l0.83827 0.0254 0.0803-11.253zm135.52 9.8565c8.85-2.3034 27.593-8.1155 36.033-11.173 1.3473-0.48817 5.2372-1.8616 8.6443-3.0521 3.4071-1.1905 6.6993-2.3753 7.3163-2.633l1.1214-0.46858-0.99667-0.60609c-2.7901-1.6968-12.998-6.5912-18.229-8.7401-14.258-5.8582-29.631-10.455-43.786-13.092-8.9897-1.675-22.208-3.2916-30.543-3.7353l-3.904-0.20781v1.5194c0 2.1074 1.1102 6.3462 2.2071 8.4266 2.4579 4.6618 7.744 9.2726 12.58 10.972 3.6229 1.2733 9.4113 1.7718 21.115 1.8183l3.904 0.0156v11.023c0 6.0627 0.0791 11.023 0.17579 11.023 0.0967 0 2.0602-0.49046 4.3633-1.0899zm-203.58-25.126c2.151-1.5652 6.3184-4.3076 7.9783-5.2504 0.58943-0.33477 2.1051-1.2006 3.3682-1.9241 8.772-5.0247 22.699-10.748 36.018-14.801 4.3376-1.3199 5.8851-1.749 12.207-3.3841 12.808-3.3124 26.407-5.7299 39.604-7.0398 2.4154-0.23973 4.4616-0.5059 4.5473-0.59149 0.48713-0.48713-4.2366-4.093-7.1016-5.4209-4.4638-2.0691-5.3376-2.1984-16.228-2.4009l-9.7983-0.18222-0.0868-6.124c-0.0477-3.3682-0.0107-6.4338 0.0824-6.8129l0.16918-0.68894h127.67v13.779h-9.0059c-6.4822 0-9.6354 0.12094-11.253 0.43164-4.5731 0.87851-9.1428 3.1612-12.351 6.1696l-1.2248 1.1484 0.81004 0.22388c0.44552 0.12312 2.099 0.32293 3.6744 0.44397 11.606 0.89171 33.578 5.0118 45.731 8.576 0.84204 0.24692 3.3911 0.99509 5.6647 1.6626 7.7587 2.2779 17.846 5.9442 24.343 8.8467 2.3303 1.0412 10.326 5.0223 11.942 5.9458 0.67363 0.38505 2.0515 1.17 3.062 1.7443 1.0105 0.57432 3.6027 2.2261 5.7608 3.6707 2.158 1.4446 4.2433 2.8248 4.6334 3.0672 0.85577 0.53129 1.2048 0.38902 11.499-4.687 13.584-6.6984 26.209-14.486 39.04-24.081 8.2156-6.1436 18.34-14.556 18.06-15.008-0.22269-0.36034-8.7205-3.171-15.305-5.0621-10.312-2.9617-14.43-4.0917-21.146-5.8024-31.229-7.9556-63.499-13.403-97.965-16.538-7.0713-0.64314-6.3998-0.7937-6.1723 1.384l0.19201 1.8372h-127.75l0.42248-3.7343-3.004 0.2078c-18.685 1.2925-43.465 4.5232-64.396 8.3956-11.109 2.0552-21.592 4.3413-31.612 6.8931-8.5895 2.1877-13.563 3.5791-21.972 6.1478-6.01 1.8356-18.431 5.9387-18.663 6.165-0.14145 0.13823 1.6321 1.7865 6.9136 6.4253 4.9984 4.3903 13.295 10.947 18.103 14.306 0.88414 0.61776 2.3309 1.6325 3.2151 2.255 2.7381 1.9278 7.4094 5.0024 11.559 7.6075 3.4279 2.1522 12.316 7.0009 17.174 9.369 8.0533 3.9255 8.6611 4.2053 9.174 4.2255 0.26102 0.0101 1.3488-0.61751 2.4173-1.395zm-75.221-56.585c13.717-5.401 32.491-11.129 50.284-15.341 2.5261-0.59808 5.9709-1.4187 7.655-1.8236 16.084-3.8673 43.336-8.4045 62.464-10.4 2.5261-0.26347 5.8331-0.61465 7.3488-0.78037 2.3687-0.25903 12.463-1.0711 16.228-1.3056l1.2248-0.0763-0.1531-2.2965c-0.0842-1.2631-0.14806-5.4656-0.1419-9.339 0.0116-7.2869 0.40495-11.198 1.7091-16.994 0.32212-1.4315 0.66782-2.9725 0.76822-3.4245 0.1656-0.74547 0.087-0.83635-0.84682-0.97894-0.56616-0.0865-41.04-0.23085-89.936-0.32087l-88.908-0.16367 0.20143 1.755c0.92276 8.0395 4.4169 20.363 8.6152 30.385 3.1342 7.4816 8.7 17.445 13.544 24.245 1.9792 2.7785 6.2075 8.2119 6.391 8.2119 0.0667 0 1.6666-0.60851 3.5553-1.3522zm426.04-2.7049c3.1511-4.0418 4.9671-6.6273 7.5808-10.793 2.3343-3.7209 6.8405-12.416 8.41-16.228 2.6306-6.3894 5.1316-14.827 6.4433-21.74 0.76075-4.0084 1.6004-10.906 1.3572-11.149-0.19306-0.19304-194.63-0.27094-195.71-0.0784-0.59775 0.10652-0.68888 0.31056-0.68851 1.5415 0 2.8007 1.8252 11.354 3.3823 15.858 1.5629 4.5204 5.4411 11.951 7.1041 13.611 0.36208 0.36144 1.3758 0.54647 3.8064 0.6948 9.9753 0.60873 31.247 2.8225 41.588 4.3284 16.197 2.3584 23.708 3.6168 37.662 6.3098 8.5784 1.6555 18.29 3.7175 23.73 5.0385 2.4419 0.59295 5.6111 1.3606 7.0426 1.7058 1.4315 0.34527 3.016 0.74455 3.5213 0.8873 0.50522 0.14276 2.0898 0.56238 3.5213 0.93251 2.5426 0.65741 7.3451 1.9712 10.717 2.9318 7.0196 1.9998 19.35 6.0529 24.955 8.203 1.5157 0.58141 2.8406 1.0634 2.9442 1.0712 0.10365 8e-3 1.2896-1.3983 2.6354-3.1244zm-270.12-82.223c5.864-11.574 13.328-19.972 24.271-27.309 3.5944-2.4098 7.0918-4.2445 10.791-5.6607 3.8296-1.4661 4.3667-1.7 4.2268-1.8401-0.0651-0.0651-1.7869-0.53961-3.8262-1.0545-7.2241-1.8238-12-3.8042-14.419-5.98-0.85503-0.76874-1.6902-1.3977-1.856-1.3977-0.1658 0-0.65021 0.44782-1.0765 0.99514-1.1299 1.4506-4.1548 4.4984-5.7357 5.7795-1.3772 1.1158-2.3673 1.6739-10.25 5.7773-2.3577 1.2274-4.4246 2.3308-4.593 2.452-1.6756 1.2056-12.459 6.5511-17.46 8.6547-7.6929 3.2365-17.839 6.3949-21.886 6.8132l-1.6841 0.17404-1.2248-1.7701c-4.7773-6.9044-8.6195-14.012-9.9817-18.465-0.38636-1.2631-0.79462-2.4088-0.90721-2.5461-0.1126-0.13727-2.1179-0.50623-4.4564-0.81994-5.1242-0.68745-12.862-1.9226-18.49-2.9515-2.2735-0.41568-5.236-0.95127-6.5833-1.1903-1.3473-0.23898-4.1719-0.79844-6.277-1.2432s-4.3786-0.91363-5.0523-1.0419c-3.7374-0.71142-24.52-5.8658-28.476-7.0624-1.1789-0.3566-2.5568-0.75456-3.062-0.88436-4.4386-1.1403-19.32-5.9406-26.889-8.6737l-5.1493-1.8593-0.66944 0.7402c-6.5909 7.2875-15.623 21.256-18.557 28.698-0.32824 0.83273-0.86164 2.1169-1.1854 2.8536-1.132 2.5764-1.3657 3.2034-2.5537 6.8512-1.6405 5.037-2.8478 9.6654-3.7623 14.423-0.90273 4.6965-1.6156 11.032-1.2791 11.369 0.24174 0.24177 84.296 0.54806 149.12 0.54338l36.716-3e-3 2.2151-4.3719zm294.05 4.0338c0.35271-0.1131 0.39221-0.83014 0.22224-4.0336-0.77637-14.631-5.6745-30.483-13.745-44.481-3.194-5.5406-9.2652-14.336-10.743-15.562-0.55091-0.45721-0.0516-0.59926-7.3962 2.104-5.2256 1.9233-12.768 4.4359-17.913 5.9666-2.1051 0.62645-5.1365 1.5303-6.7364 2.0085-1.5999 0.47825-4.0112 1.1596-5.3585 1.5141-11.422 3.0054-14.094 3.664-23.73 5.8478-19.087 4.326-34.429 7.0055-56.8 9.9205-6.6329 0.86431-25.508 2.8878-30.42 3.2613l-5.0054 0.38052-1.8839 2.2122c-7.1528 8.3996-14.092 21.964-15.384 30.075l-0.21121 1.3252 97.337-0.20062c53.536-0.11035 97.53-0.26252 97.766-0.33817zm-168.34-51.426c14.626-1.668 31.851-4.1318 44.824-6.4118 13.272-2.3324 14.492-2.556 18.181-3.3357 1.9572-0.41356 3.9031-0.81541 4.3241-0.89309 4.3189-0.79661 17.669-3.9104 26.333-6.142 7.3487-1.8927 8.7891-2.2928 17.759-4.9325 3.3088-0.97371 19.452-6.312 19.869-6.5701 0.49454-0.30638 0.43566-0.37589-2.8881-3.4107-11.062-10.101-23.599-19.595-35.813-27.122-2.1893-1.3492-4.1872-2.5428-4.4399-2.6525-0.25261-0.10971-1.0104-0.54105-1.6841-0.95852-1.803-1.1174-11.833-6.3726-15.273-8.0016l-2.9757-1.4096-4.0424 2.4344c-10.554 6.3558-20.107 10.981-31.753 15.373-2.6103 0.98442-5.6417 2.0717-6.7364 2.4162-1.0946 0.34451-2.6103 0.85108-3.3682 1.1257-3.878 1.4054-16.784 4.9907-22.046 6.1246-1.2631 0.27212-3.5366 0.76353-5.0523 1.092-3.9408 0.85414-13.591 2.5858-16.917 3.0357-1.5578 0.21069-2.8323 0.51591-2.8323 0.67826 0 0.16236 0.39325 0.79727 0.87386 1.411 7.5184 9.5996 12.742 21.099 15.087 33.216 1.1405 5.8919 1.0959 5.7152 1.4403 5.7152 0.15041 0 3.3584-0.35183 7.1286-0.78182zm-175.4-6.7492c5.4289-2.7093 8.8681-4.5409 12.401-6.6041 1.3945-0.81439 2.5956-1.4807 2.6689-1.4807 0.56423 0 13.935-8.711 18.787-12.239 5.5449-4.0326 15.968-12.804 15.968-13.438 0-0.16832-0.79229-0.46563-1.7606-0.66068-6.9338-1.3968-15.822-3.4187-20.133-4.5804-1.3473-0.36302-3.483-0.93705-4.7461-1.2756-19.792-5.3052-39.555-13.524-55.385-23.034-1.5793-0.94872-2.972-1.725-3.0947-1.725-0.12282 0-1.4878 0.62005-3.0334 1.3779s-2.8759 1.3779-2.9564 1.3779c-0.40369 0-13.153 6.5196-16.98 8.6832-0.92625 0.52363-2.0575 1.161-2.5139 1.4164-6.5242 3.6508-17.743 11.604-25.184 17.855-5.796 4.8682-13.892 12.346-13.608 12.57 0.25946 0.20511 3.998 1.4545 8.8497 2.9575 2.7787 0.86082 5.3967 1.6909 5.8178 1.8447 3.1737 1.1591 23.676 6.7679 34.6 9.4655 15.923 3.9319 20.014 4.8294 43.021 9.4367 0.84204 0.16864 1.7762 0.3229 2.076 0.3428 0.29972 0.0199 2.6422-1.0104 5.2054-2.2896zm141.14-47.727c14.675-1.8747 17.218-2.2597 26.419-4.0005 15.788-2.9872 36.499-9.513 51.441-16.209 2.5845-1.1581 9.7438-4.7647 10.068-5.0722 0.36481-0.34564-0.9505-0.8648-8.8436-3.4907-12.776-4.2506-27.918-8.4177-37.969-10.449-1.1789-0.23825-3.4524-0.71454-5.0523-1.0584-16.553-3.558-36.664-6.0673-56.616-7.0637-8.2061-0.40988-33.911-0.21606-40.449 0.30499-15.453 1.2313-22.687 2.064-34.6 3.983-6.9305 1.1163-17.21 3.1842-24.496 4.9283-2.2735 0.54414-5.1671 1.2328-6.4302 1.5305-10.407 2.4525-33.507 9.55-33.284 10.226 0.32539 0.97947 12.518 7.0027 21.953 10.846 4.3321 1.7643 13.099 4.7702 20.515 7.0346 9.1431 2.7915 24.251 5.856 36.438 7.3913 5.0878 0.64093 5.104 0.63781 8.5604-1.6601 3.5409-2.354 6.8294-6.1678 9.2723-10.753 2.115-3.9702 4.484-11.127 4.8964-14.792 0.14013-1.2451 0.8222-1.4217 3.9598-1.0257 3.7176 0.46922 6.135 1.6586 8.8528 4.3554 3.5115 3.4842 5.134 6.9541 5.405 11.56l0.16637 2.8262 0.95375 0.1338c0.52455 0.0736 2.6072 0.28637 4.6282 0.47286 5.1365 0.47396 8.91 1.4331 14.238 3.619 3.961 1.625 8.4997 4.2372 11.123 6.4017 1.0876 0.89738 1.5249 0.89539 8.847-0.04zm-315.57 171.74c-6.3643-1.5399-11.451-6.8757-13.306-13.959-0.75542-2.8841-1.0803-6.2161-0.72593-7.4461l0.26461-0.91859 5.2798-0.62873c2.9038-0.34578 5.3211-0.55246 5.3719-0.4593 0.05079 0.0932 0.09552 1.4095 0.09939 2.9252 0.0059 2.3164 0.13512 3.0345 0.81035 4.5039 1.4878 3.2377 3.5344 4.4344 7.0738 4.1361 3.3106-0.27894 6.6488-2.2341 7.8564-4.6016 1.3002-2.5487 0.18525-6.9776-2.5468-10.116l-1.0256-1.1783-3.0606 0.84191c-6.0042 1.6516-12.985 0.98189-17.273-1.6573-4.7151-2.9019-7.1565-6.6203-8.0107-12.201-0.89388-5.8392 1.446-11.544 6.2222-15.17 3.7273-2.8296 8.4158-4.2105 14.295-4.2105 6.9078 0 11.835 2.3013 15.124 7.0634 2.2267 3.2243 2.7863 5.2118 2.7964 9.9306 0.0073 3.423-0.08744 4.2185-0.67645 5.6797-0.70266 1.743-1.8476 3.615-3.3544 5.4846l-0.85402 1.0596 1.7981-1.0069c1.2027-0.67342 2.0305-0.94857 2.4998-0.83077 1.4383 0.361 4.1324 4.7381 5.4803 8.9042 3.5363 10.929-2.1426 20.638-13.802 23.596-3.4037 0.86343-7.4225 0.96411-10.337 0.25892zm10.562-4.205c4.4889-1.5105 8.1635-4.3921 9.7316-7.631 0.72848-1.5048 1.262-3.9941 1.262-5.8876 0-2.9426-2.5341-10.056-3.716-10.431-0.46328-0.14703-1.7854 0.41545-2.965 1.2614-0.05378 0.0386 0.20263 0.72954 0.5698 1.5355 1.2611 2.7684 1.5565 3.9576 1.5615 6.2865 0.0043 1.9882-0.13037 2.6022-0.90913 4.145-2.1955 4.3492-7.444 7.083-13.035 6.7887-4.8355-0.25424-8.3935-3.6333-9.5261-9.0478-0.22836-1.0914-0.47721-2.0464-0.55305-2.1223-0.07581-0.0758-0.84287-0.0443-1.7046 0.07l-1.5667 0.20783v1.1531c0 2.5266 1.9246 7.1871 4.0712 9.858 1.2854 1.5996 3.8336 3.2803 6.2697 4.1355 2.7733 0.9735 7.0502 0.84259 10.51-0.32169zm-6.0003-26.099c4.6903-1.2532 8.2934-3.915 10.005-7.391 0.82545-1.6767 1.0075-2.4403 1.1143-4.6756 0.30324-6.3426-2.655-11.01-8.3907-13.238-1.6094-0.62519-2.3179-0.7011-6.4026-0.68616-4.3731 0.016-4.713 0.0623-7.0983 0.96621-4.5749 1.7336-7.4458 4.3774-8.741 8.0499-1.6405 4.6515-0.43523 9.8605 3.118 13.475 1.9861 2.0204 4.4111 3.2668 7.5058 3.8581 2.5464 0.48655 6.2924 0.33545 8.8898-0.35862zm-9.6569-4.7032c-1.288-0.25233-3.6208-1.3457-4.7259-2.2149-1.0335-0.81299-1.963-2.6674-2.1987-4.3866-0.75358-5.4981 5.1509-9.7184 13.673-9.7732 4.0274-0.0259 6.0976 0.55499 8.0258 2.2521 1.8389 1.6186 2.4233 2.9208 2.4233 5.3995 0 2.3168-0.7892 3.9708-2.6918 5.6411-2.9738 2.611-9.6587 4.0314-14.505 3.0819zm7.5634-3.8198c3.9193-1.0435 5.9206-2.7595 5.9206-5.0762 0-2.7218-3.1716-4.2892-7.7897-3.8498-5.3805 0.51196-9.0512 2.756-9.0512 5.5336 0 1.0508 1.8717 2.9382 3.3967 3.4248 1.4974 0.47797 5.6738 0.45984 7.5236-0.0327zm558.14 37.626c-0.16841-0.0608-2.373-0.25749-4.8992-0.4371-2.5261-0.17959-6.1775-0.45926-8.1142-0.62145-1.9367-0.1622-7.3105-0.58475-11.942-0.93897-4.6312-0.35424-8.523-0.74338-8.6482-0.86482-0.35026-0.33945 3.9426-11.831 4.4169-11.823 0.56058 9e-3 7.0771 0.49904 7.4161 0.55812 0.32769 0.0571 1.676-3.3409 1.6987-4.2813 0.0123-0.50608-0.64418-1.0543-2.8876-2.4116-1.5969-0.96615-3.0542-1.9383-3.2384-2.1604-0.25126-0.30274 0.0999-1.5951 1.4033-5.1643l1.7384-4.7605 0.0632-5.1313c0.0573-4.6502 0.14024-5.3634 0.88443-7.605 1.2466-3.7552 3.4588-6.7854 6.7633-9.2646l0.88332-0.66274h-6.1135l-0.19961-3.2628c-0.3054-4.991-0.24882-8.6115 0.13653-8.7401 0.23387-0.078 0.1407-1.2844-0.3062-3.9644-0.95454-5.7241-1.0136-5.4442 1.4245-6.7584 1.1368-0.6128 3.238-1.5894 4.6695-2.1703 1.4315-0.58089 2.979-1.2317 3.4389-1.4463 0.81066-0.37826 1.3985-1.3797 1.0276-1.7506-0.10034-0.10034-2.8861 0.26013-6.1904 0.801-3.3045 0.54088-6.041 0.94337-6.0811 0.89445-0.0402-0.0489-0.37809-2.018-0.75089-4.3759-0.85386-5.4004-0.97818-5.8818-2.7689-10.717-0.81085-2.1893-1.981-5.3585-2.6005-7.0426-0.61944-1.6841-1.7357-4.694-2.4805-6.6883-0.74483-1.9945-1.2752-3.7543-1.1787-3.9104 0.0965-0.15616-0.86785-1.9075-2.143-3.8918-1.2752-1.9843-2.3134-3.8073-2.3072-4.0507 6e-3 -0.2436 1.9008-1.6771 4.2102-3.1857 4.2696-2.7888 6.1328-4.149 5.6769-4.1441-0.13923 2e-3 -2.2511 0.63873-4.6931 1.416-4.9016 1.5602-6.9792 2.1183-7.1632 1.9243-0.0669-0.0704-1.1651-1.8504-2.4405-3.9555l-2.3188-3.8275 3.4352-3.4591c1.8893-1.9025 3.1596-3.3599 2.8227-3.2383-0.33682 0.12135-1.9214 0.97622-3.5213 1.8998-3.8431 2.2184-4.3768 2.4973-4.7834 2.4995-0.18901 9.2e-4 -1.2727-1.501-2.4082-3.3379-1.4005-2.2654-3.1202-4.457-5.3462-6.8129-1.805-1.9103-3.7267-3.9833-4.2702-4.6068-1.141-1.3083-1.2146-1.0418 1.3954-5.051 0.89875-1.3805 1.6324-2.6895 1.6303-2.9089-4e-3 -0.40513-2.9511-3.6147-3.3177-3.6128-0.10995 6.1e-4 -1.6426 0.88604-3.4058 1.9678-1.9313 1.1848-3.3639 1.8784-3.603 1.7445-0.6497-0.36358-8.0417-8.4131-8.0408-8.756 0-0.17362 0.79269-0.72355 1.7606-1.222s2.38-1.2715 3.1379-1.7178c0.75784-0.44631 2.6869-1.5025 4.2868-2.3471 4.9555-2.616 11.118-5.9203 12.401-6.6497 0.67364-0.38287 2.4649-1.36 3.9806-2.1713 1.5157-0.81136 3.9821-2.1392 5.481-2.9509 1.4988-0.81161 2.8257-1.4757 2.9486-1.4757 0.12284 0 0.73291 0.5856 1.3557 1.3013 0.62277 0.71574 2.1895 2.4074 3.4815 3.7592 1.2921 1.3518 2.8722 3.0175 3.5115 3.7013l1.1621 1.2436-1.3668 2.2694c-0.75175 1.2482-2.0227 3.3718-2.8244 4.7191s-1.8291 3.0007-2.2832 3.6744c-0.45413 0.67363-1.1529 1.7844-1.5528 2.4683-0.96881 1.6569-3.8508 6.3407-6.1117 9.9328-2.8552 4.5363-2.8331 4.638 0.57507 2.6399 1.3276-0.77829 2.5182-1.4151 2.6458-1.4151 0.12763 0 0.59776-0.25362 1.0448-0.56359 0.44702-0.30996 1.8462-1.1186 3.1091-1.797 1.263-0.67838 4.6389-2.5377 7.5018-4.1318 8.9272-4.9708 9.8063-5.4225 10.126-5.2032 0.17113 0.11736 1.933 2.8109 3.915 5.9856 3.5348 5.6616 3.5932 5.7844 3.0488 6.4014-0.30538 0.34604-2.4825 2.527-4.8382 4.8465-2.3555 2.3196-4.1943 4.3058-4.0862 4.4138 0.10812 0.10814 3.1101-0.72973 6.6711-1.8619l6.4746-2.0585 0.52057 0.7241c0.28632 0.39827 0.79614 1.1814 1.133 1.7402s1.7492 2.804 3.1385 4.9892c1.3894 2.1852 2.521 4.1444 2.5147 4.3535-6e-3 0.20923-1.802 1.6205-3.9907 3.1361-2.1886 1.5157-5.0645 3.5136-6.3913 4.4399-1.3268 0.92625-4.4993 3.1281-7.0502 4.8934-2.551 1.765-4.5256 3.2466-4.3875 3.2928 0.13785 0.0459 2.5227-0.75211 5.2997-1.7735 15.559-5.7225 19.338-7.0765 19.446-6.9684 0.0659 0.0659 0.58977 1.3547 1.1642 2.864l1.0444 2.7442 3.4858 0.65529c1.9173 0.36043 4.0035 0.74575 4.6358 0.85626 1.2686 0.22167 1.4208 0.47007 2.8272 4.6122 0.40027 1.1789 1.2151 3.445 1.8107 5.036 0.59561 1.591 1.0291 2.9464 0.96332 3.0122-0.0658 0.0658-2.2017-0.66889-4.7464-1.6326-2.5448-0.96372-4.6937-1.6853-4.7755-1.6035-0.0817 0.0818 0.28786 1.3472 0.82147 2.8121 0.56199 1.5427 0.85411 2.7679 0.69427 2.912-0.29753 0.26806-9.4517 3.7019-9.8691 3.7019-0.25286 0-1.6595-3.4876-3.3033-8.1899-0.86976-2.4883-1.241-2.8731-2.1906-2.2705-0.29876 0.18961-0.0622 1.132 1.0172 4.0525 2.3052 6.2369 2.3366 6.3582 1.7297 6.6736-1.3304 0.69145-9.3292 3.4429-9.6504 3.3198-0.19924-0.0765-1.1763-2.3676-2.1712-5.0914-1.3652-3.7374-1.9168-4.9108-2.2483-4.7837-0.24165 0.0927-0.77101 0.25183-1.1764 0.35357-0.40538 0.10174-0.73589 0.27339-0.73448 0.38143 0 0.10804 0.93632 2.6767 2.0776 5.7081 1.686 4.4784 2.1921 5.5287 2.6996 5.6025 0.34353 0.0499 6.0486-0.81274 12.678-1.9171 6.6292-1.1043 12.148-1.903 12.264-1.7749 0.36538 0.40458 1.4718 4.0831 2.3264 7.7349 0.6921 2.9573 0.82766 4.2568 0.8464 8.1142 0.0214 4.4478-6e-3 4.6539-0.8685 6.522-1.8226 3.9472-5.4482 6.0391-10.439 6.0229-2.7696-9e-3 -3.9435-0.36732-6.473-1.9761-0.59418-0.37791-0.77416-0.31502-1.93 0.67437-0.7011 0.60011-2.0597 1.4577-3.019 1.9057-0.95941 0.44803-2.5711 1.2221-3.5816 1.7202l-1.8372 0.90558 6.277-0.1538c3.4524-0.0846 10.148-0.24395 14.879-0.35412l8.6017-0.20032 0.19939 2.1119c0.10968 1.1615 0.20041 3.8688 0.2016 6.0159l3e-3 3.904-1.6075 0.0415c-0.88415 0.0228-3.8122 0.12615-6.5067 0.22965l-4.8992 0.18818 1.2248 0.58077c4.5513 2.1581 7.8322 5.9108 9.5313 10.902 0.81529 2.395 0.80604 9.1201-0.0165 11.942-0.65762 2.2562-2.0499 5.213-2.7141 5.7645-0.35721 0.29645-1.4179 0.0212-5.3811-1.3962-2.7148-0.97098-4.9371-1.8981-4.9387-2.0602 0-0.16212 0.55608-1.4223 1.2388-2.8005 1.0765-2.1731 1.2439-2.7865 1.2612-4.6218 0.0444-4.72-2.8667-7.2152-8.4734-7.263-3.1064-0.0265-4.6181 0.53906-6.078 2.274-1.6035 1.9057-2.1657 5.8374-1.2998 9.0898 0.23268 0.87401 0.34588 1.6663 0.25151 1.7606-0.0943 0.0944-1.4231 0.17559-2.9528 0.18052l-2.7813 9e-3 0.94238 0.83308c0.51834 0.45819 3.2524 2.4176 6.0762 4.3544 2.8236 1.9367 8.2162 5.657 11.984 8.2674 3.7674 2.6103 7.0958 4.9016 7.3965 5.0914 0.61469 0.38844 0.65386 0.24802-2.5286 9.0647l-1.5177 4.2047-2.4496-0.0188c-1.3473-0.0103-2.5874-0.0685-2.7558-0.12931zm2.8523-4.3575c0.17811-0.46312 0.79877-2.1884 1.3792-3.8339l1.0553-2.9918-0.80621-0.63288c-0.44344-0.34808-3.1486-2.2499-6.0116-4.2261-11.469-7.917-18.085-12.468-18.451-12.692-0.26548-0.16211-0.57523 0.20799-0.99643 1.1907-1.2344 2.8798-1.3411 2.6466 2.2671 4.957 1.7838 1.1422 3.2445 2.2363 3.2457 2.4314 3e-3 0.29375-2.4879 7.5441-3.2169 9.3672-0.25711 0.64302-1.4941 0.68834-5.4718 0.20051-2.2179-0.27201-2.7678-0.25771-2.978 0.0774-0.29649 0.47283-1.5357 4.311-1.4208 4.4004 0.11136 0.0867 6.7079 0.68215 12.018 1.0849 2.5261 0.1916 7.4865 0.59304 11.023 0.89211 8.7285 0.73812 7.9856 0.75811 8.3638-0.2251zm-11.579-4.0703c-3.7892-0.46942-6.9238-0.86516-6.966-0.8794-0.33952-0.11483 2.9281-9.5182 3.3076-9.5182 0.14039 0 2.2955 1.2773 4.7892 2.8385 2.4936 1.5612 5.5354 3.4386 6.7596 4.1723 1.2242 0.73358 2.2984 1.4514 2.3872 1.5951 0.0888 0.14371-5e-3 0.81525-0.20739 1.4924-0.36379 1.2143-0.38804 1.2306-1.7748 1.1919-0.77328-0.0215-4.5063-0.42325-8.2955-0.89269zm-1.0402-4.4264c-0.58508-0.44288-1.1031-0.3625-1.1031 0.1711 0 0.15848 0.37892 0.28376 0.84205 0.2784 0.79782-9e-3 0.81154-0.0328 0.26109-0.44951zm20.695-20.056c0.73754-2.1593 1.0317-6.6555 0.59087-9.0328-1.7065-9.2046-12.991-14.532-22.916-10.819-2.0615 0.77131-5.0734 3.6428-6.173 5.8851-1.1847 2.4159-1.8626 5.5664-1.8684 8.6841l-5e-3 2.8323h3.5837l0.18022-2.6792c0.20898-3.1064 0.55961-4.2791 1.8698-6.2532 2.5509-3.8437 7.5952-5.4353 12.903-4.0712 3.8214 0.98201 6.3769 2.824 7.8463 5.6549 0.94872 1.828 1.1414 5.747 0.41943 8.5328-0.27729 1.07-0.45164 1.9981-0.38743 2.0623 0.26694 0.26695 2.5534 0.99987 2.9506 0.94579 0.23669-0.0322 0.68922-0.81639 1.0056-1.7426zm-12.918-26.786c6.989-0.099 13.299-0.25357 14.021-0.34349l1.3144-0.16347-0.0896-2.1992-0.0895-2.1992-2.7558 5e-3c-9.9349 0.0177-27.409 0.57915-27.442 0.88176-0.0858 0.78595 0.10696 4.0311 0.25359 4.2684 0.0878 0.14209 0.5917 0.18454 1.1197 0.0943 0.52804-0.0902 6.6782-0.24504 13.667-0.34405zm-9.9925-12.904c4.2669-1.9152 5.601-2.8497 6.232-4.3658 0.54387-1.3064 0.86574-1.5562 2.0133-1.5625 0.63227-3e-3 1.2712 0.41955 2.4496 1.6216 1.8616 1.8992 3.6009 2.5464 6.0596 2.2552 3.048-0.36098 5.3303-2.0792 6.2737-4.7228 0.55366-1.5514 0.53955-5.7293-0.0303-8.933-0.86917-4.8878-1.5116-7.0572-2.0962-7.0796-0.41128-0.0158-29.08 4.6888-29.236 4.7978-0.0593 0.0413 0.0661 1.0485 0.27867 2.2382 0.44181 2.4721 0.18908 2.3651 3.9628 1.6778 3.0024-0.5468 5.6662-0.97685 7.7067-1.2441l1.4297-0.18725 0.24665 1.4942c0.87817 5.3205-0.21676 6.9914-6.1071 9.3197-1.3808 0.5458-3.0617 1.279-3.7353 1.6292-0.67364 0.35026-1.2495 0.64148-1.2797 0.64718-0.0496 9e-3 0.30746 1.9571 0.69134 3.7708 0.18264 0.86301 0.21256 0.85511 5.1401-1.3567zm12.667-6.6295c-1.2816-0.41685-2.7835-1.7073-3.4187-2.9373-0.32877-0.63671-1.3994-5.413-1.3994-6.2431 0-0.22078 1.913-0.62072 7.0324-1.4702 3.6416-0.60425 3.8354-0.60847 4.213-0.0923 0.56518 0.77291 0.97665 2.4079 1.1836 4.7032 0.15545 1.7238 0.0807 2.1748-0.5582 3.3682-1.2477 2.3305-4.4142 3.5298-7.053 2.6715zm2.6677-3.584c0.97763-0.37169 1.5384-1.5326 1.2656-2.6198-0.20176-0.80383-0.24334-0.81693-1.9241-0.60694-2.2203 0.2774-2.5404 0.41431-2.5404 1.0864 0 0.68674 1.4354 2.4403 1.9976 2.4403 0.22667 0 0.76727-0.13502 1.2013-0.30005zm-21.998-14.704c0.22598 0-3e-3 -0.69583-2.0671-6.2685-0.99609-2.6898-1.7724-5.0801-1.7252-5.3122 0.0997-0.48899 7.7588-3.4548 8.6366-3.3443 0.46171 0.0581 0.97337 1.1024 2.3618 4.8202 0.97482 2.6103 1.8129 4.8523 1.8624 4.9824 0.108 0.28363 2.9198-0.63347 3.1667-1.0328 0.16385-0.26512-0.45302-2.1417-2.5695-7.8166l-0.92833-2.4892 1.1269-0.48473c3.0142-1.2965 7.1956-2.6754 7.4219-2.4474 0.1395 0.14061 0.93381 2.1158 1.7651 4.3894 0.83126 2.2736 1.7278 4.6508 1.9923 5.2828l0.48089 1.1491 1.4697-0.57657c0.80833-0.31711 1.5122-0.78932 1.5642-1.0493 0.052-0.26002-0.96422-3.3425-2.2582-6.8496-1.294-3.5072-2.4915-6.7694-2.6611-7.2489-0.40311-1.1402-0.22894-1.1823-9.7325 2.3548-4.2874 1.5957-9.9306 3.6802-12.541 4.6325-6.5134 2.376-6.4302 2.3412-6.4302 2.691 0 0.23967 3.122 8.7775 5.5406 15.153l0.26091 0.68766 1.5504-0.61111c0.8527-0.33612 1.6235-0.61111 1.7128-0.61111zm30.908-17.377c-0.3607-1.467-0.98143-2.1232-2.1949-2.3201-0.63447-0.10297-1.209-0.1318-1.2768-0.0641-0.0677 0.0677 0.0336 0.59791 0.22505 1.1782 0.25813 0.78215 0.64222 1.1757 1.485 1.5217 1.7312 0.71078 2.0021 0.66224 1.7616-0.31581zm-34.153-8.6522c3.9576-2.7472 8.298-5.7776 9.6452-6.7345s3.5176-2.4626 4.8226-3.3461c1.305-0.88353 2.373-1.7052 2.373-1.8259 0-0.22416-1.092-2.0061-2.9628-4.8346l-1.0492-1.5864-1.5918 0.46879c-2.3563 0.69393-14.495 4.8394-16.443 5.6154-2.8023 1.1164-2.8506 1.1124-3.7975-0.31823l-0.84958-1.2838 2.2469-2.0143c4.8015-4.3042 13.449-13.084 13.332-13.535-0.2456-0.95224-3.6367-6.1221-4.0158-6.1221-0.21733 0-1.0013 0.32506-1.7421 0.72235-2.8761 1.5424-12.716 6.9534-13.442 7.3916-0.42103 0.25426-2.9253 1.6407-5.5652 3.081s-4.9528 2.8034-5.1401 3.0292c-0.25886 0.31193-0.13626 0.7489 0.51058 1.8198 0.46818 0.77511 0.97325 1.4093 1.1224 1.4093 0.30145 0 2.0706-0.97903 7.082-3.919 1.8525-1.0868 4.3327-2.5322 5.5116-3.212 1.1789-0.67979 2.7634-1.6045 3.5213-2.0549 4.9678-2.9526 5.8597-3.4175 6.2608-3.2638 0.24631 0.0945 0.72762 0.72024 1.0696 1.3905l0.6217 1.2186-3.287 2.975c-3.3813 3.0604-15.076 14.49-15.076 14.734 0 0.0753 0.36352 0.75714 0.80781 1.5153 0.71002 1.2115 0.90467 1.3554 1.6075 1.1883 1.5109-0.3592 14.276-4.4714 19.128-6.1616 2.6703-0.93039 4.8881-1.6488 4.9286-1.5965 0.48823 0.63245 1.6988 2.5814 1.6988 2.735 0 0.11067-1.1818 0.93987-2.6262 1.8427-2.1664 1.3541-18.401 12.065-18.764 12.38-0.0602 0.0522 0.33554 0.87257 0.87934 1.8231 0.69124 1.2081 1.1388 1.6884 1.4873 1.596 0.27417-0.0727 3.7365-2.3799 7.6941-5.127zm-25.409-31.153c10.052-16.35 12.855-21.005 12.855-21.346 0-0.20902-1.2057-1.6454-2.6792-3.1918l-2.6792-2.8119-5.0523 2.7097c-14.343 7.6926-21.92 11.804-22.159 12.022-0.26869 0.24569 2.425 3.3553 2.9066 3.3553 0.14342 0 1.6627-0.83249 3.3764-1.85 1.7137-1.0175 3.2886-1.8098 3.5002-1.7606 0.21152 0.0492 1.9909 1.7851 3.9542 3.8578 3.3942 3.5831 3.5482 3.8014 3.1333 4.4399-1.3982 2.1513-3.5984 5.7516-3.6658 5.9987-0.0896 0.32822 2.7527 3.7056 3.1183 3.7056 0.13096 0 1.657-2.308 3.3911-5.1288zm-1.3126-8.4204c-0.40096-0.37892-1.9587-1.974-3.4619-3.5445l-2.7328-2.8556 0.89535-0.65349c0.75566-0.55153 4.3557-2.7586 11.9-7.2961 1.3565-0.81577 1.5192-0.8474 2.1692-0.42145 0.38655 0.25326 0.87469 0.78169 1.0848 1.1743 0.35354 0.66059 0.0436 1.2184-4.1597 7.4856-2.4978 3.7246-4.6371 6.7783-4.754 6.786-0.11694 8e-3 -0.54063-0.29597-0.94156-0.67489zm0.94857-5.7709c0.22062-0.35323 0.34876-0.69452 0.28486-0.75845-0.22956-0.22954-1.4635 0.8365-1.2912 1.1154 0.27515 0.44521 0.57085 0.34031 1.0063-0.35697zm-501.34 109.31c-2.6363-0.33672-9.8522-1.1638-22.486-2.5772-5.2942-0.59231-9.6948-1.146-9.7793-1.2305-0.08447-0.0845 0.0056-1.3563 0.20023-2.8262 0.1946-1.4699 0.52026-4.2258 0.72367-6.1242s0.51793-3.5663 0.69896-3.7062c0.18101-0.13991 3.1226-1.1888 6.5373-2.331 3.4147-1.1421 6.267-2.1719 6.3389-2.2884 0.072-0.11649-2.6488-0.51867-6.0462-0.8937-3.3973-0.37504-6.2216-0.72658-6.2764-0.78121-0.12248-0.12248 1.0496-10.889 1.202-11.041 0.10074-0.10074 10.485 1.0192 23.923 2.5801 2.9958 0.34797 5.8894 0.62452 6.4302 0.61454 1.2296-0.0227-0.81363-0.75003-16.317-5.8083-6.3153-2.0605-11.638-3.9004-11.828-4.0887-0.35648-0.35301-0.3742-0.29374 4.7191-15.767 1.1295-3.4312 2.219-6.3025 2.4212-6.3799 0.62075-0.2382 10.199 3.0282 10.199 3.4781 0 0.2233-0.75949 2.7067-1.6877 5.5186-1.6917 5.1245-1.7382 5.5924-0.55725 5.6077 0.19674 2e-3 0.56435 0.084 0.81694 0.18092 0.36168 0.13879 0.80267-0.8855 2.0762-4.8226 0.88932-2.7494 1.6576-5.0553 1.7073-5.1245 0.04971-0.0691 1.5087 0.30978 3.2423 0.84204 1.7335 0.53227 3.2846 0.96471 3.4466 0.961 0.4246-0.01-1.7676-1.2185-10.499-5.789-4.2525-2.226-7.7315-4.1444-7.7315-4.2629 0-0.11867 0.1872-0.48755 0.416-0.81975 0.2288-0.33219 1.8349-3.3599 3.569-6.7281 1.7342-3.3682 3.6493-7.0196 4.2555-8.1142 0.60627-1.0947 1.4461-2.7083 1.866-3.5859 0.41992-0.87756 0.86222-1.601 0.98296-1.6075 0.25796-0.014 9.1498 4.5572 9.535 4.9016 0.14423 0.12906-0.94459 2.542-2.4196 5.3622-2.5279 4.8333-2.6494 5.1512-2.1174 5.5403 0.31042 0.22697 0.65698 0.41269 0.77015 0.41269 0.11317 0 1.337-2.1357 2.7196-4.7461 1.3826-2.6103 2.6625-4.7461 2.8441-4.7461 0.42268 0 8.531 4.2264 9.0442 4.7142 0.30816 0.29289-0.11394 1.3399-2.0839 5.1692l-2.4703 4.8021 1.0044 0.61081c0.55241 0.33596 1.1015 0.51083 1.2201 0.38862 0.11862-0.1222 1.4198-2.5646 2.8915-5.4277 1.4717-2.8631 2.7894-5.251 2.9282-5.3067 0.28432-0.11404-0.15968-0.44907-11.225-8.47-10.141-7.3509-9.4272-6.7002-8.8528-8.0747 0.83862-2.0071 3.261-5.9745 5.3713-8.7977 3.8391-5.1355 8.0172-8.4122 11.902-9.3344 3.5724-0.84805 7.8129-0.3483 11.131 1.3118 0.9854 0.49304 1.8384 0.84973 1.8955 0.79262 0.0571-0.0571-2.2259-2.5119-5.0734-5.4549-2.8475-2.9432-5.1818-5.5024-5.187-5.6867-0.0054-0.18456 3.6759-3.9261 8.181-8.3145 4.5048-4.3884 8.2664-8.0564 8.3589-8.151 0.09243-0.0945 1.9526 1.6172 4.1337 3.8039l3.9656 3.9757-4.2375 4.1226c-3.7883 3.6857-4.1882 4.172-3.7727 4.5875 0.25556 0.25556 0.57786 0.46376 0.7162 0.46263 0.13834-1e-3 1.5605-1.2648 3.1603-2.8082 1.5999-1.5434 3.3651-3.2178 3.923-3.7206l1.014-0.9144 7.5796 7.9045-7.7591 7.8056 1.6631 1.663 0.99998-0.94128c5.2954-4.9846 6.9709-6.6987 6.9709-7.1316 0-0.45241-3.5981-5.2087-12.336-16.307-1.5513-1.9703-2.8675-3.8091-2.925-4.0859-0.13043-0.62823 3.6413-4.3688 7.6063-7.5435 6.5808-5.2691 11.372-6.5964 15.966-4.423 1.8966 0.89725 4.4365 3.3755 5.405 5.2736 0.7552 1.4803 1.4201 4.7026 1.2038 5.8343-0.2423 1.2675 0.0228 1.6184 1.825 2.4154 1.5715 0.69501 2.5552 1.3742 7.0631 4.8768 1.0531 0.81831 1.987 1.4157 2.0752 1.3275 0.14275-0.14275-0.71837-3.253-3.5439-12.8-0.47351-1.5999-1.2875-4.3557-1.8088-6.124-0.52134-1.7683-1.2803-4.3174-1.6867-5.6647-1.8061-5.9883-2.3415-7.8754-2.2519-7.9373 1.7614-1.2096 11.316-6.9133 11.581-6.9133 0.49084 0 1.5706 0.95411 7.7505 6.8487 2.833 2.7022 5.4408 5.1163 5.7951 5.3643 0.59669 0.41793 0.62618 0.40761 0.39919-0.13971-1.4638-3.5298-1.9998-9.7013-1.1151-12.839 0.70389-2.4962 2.3322-5.4568 4.0127-7.2952 3.0184-3.3026 8.264-6.0413 12.852-6.71 2.0038-0.29206 2.442-0.45572 2.5163-0.93966 0.0885-0.57648 0.75138-0.89609 8.102-3.9062 1.2069-0.49423 2.3251-0.8986 2.4848-0.8986 0.27929 0 0.61971 0.744 3.4328 7.5018 0.70101 1.6841 1.3821 3.1734 1.5136 3.3094 0.13146 0.13607 0.31116-0.96624 0.39931-2.4496 0.25556-4.2996 1.7462-7.8828 4.5614-10.964 1.2005-1.3141 1.4169-1.9318 2.4131-6.8895 0.35531-1.7683 0.71031-3.4398 0.78885-3.7148 0.0976-0.34141 2.0871-1.1493 6.2835-2.5514 3.3774-1.1285 6.2155-1.977 6.3068-1.8857 0.0913 0.09134-0.39456 1.515-1.0798 3.1636-0.68527 1.6487-1.5873 3.8244-2.0046 4.8349l-0.75863 1.8372 0.81751 0.0784c5.5924 0.5363 9.982 3.08 13.082 7.5802 0.65554 0.95182 1.2392 1.5887 1.297 1.4153 0.0822-0.24646-2.1968-10.269-2.8735-12.638-0.12017-0.42059 0.8223-0.73423 5.8248-1.9386 3.2824-0.79024 6.1705-1.3912 6.4176-1.3354 0.24722 0.05577 2.2683 2.3749 4.4913 5.1536 3.6364 4.5455 4.5761 5.5927 4.5761 5.0997 0-0.2463-1.7705-7.8105-2.2988-9.821-0.26189-0.99676-0.36851-1.9167-0.23695-2.0442 0.21076-0.2043 2.7378-0.85815 8.7527-2.2646l1.7771-0.41554 0.31726 0.81871c0.17449 0.4503 0.77336 2.7478 1.3308 5.1055 1.7911 7.5753 3.825 16.052 5.5336 23.059 0.9159 3.757 1.6653 7.0269 1.6653 7.2664 0 0.23942-0.31003 0.5082-0.68895 0.5973-0.37892 0.0891-2.3958 0.5792-4.4818 1.0891-2.0861 0.50994-4.3596 1.0042-5.0523 1.0983l-1.2593 0.17119-5.0523-6.3184c-2.7788-3.475-5.0905-6.139-5.1374-5.9197-0.0468 0.21913 0.60771 3.2589 1.4544 6.7547 0.84673 3.4962 1.5395 6.6032 1.5395 6.9051 0 0.45522-0.82055 0.74483-4.8226 1.7021-2.6524 0.63447-5.0774 1.1767-5.3888 1.2051-0.48358 0.04398-0.72348-0.59638-1.6439-4.3884-0.59274-2.4419-1.1844-4.5562-1.3149-4.698s-0.33734 0.47026-0.45979 1.3606c-0.70912 5.1561-3.8385 9.6422-8.3868 12.023-6.5349 3.4211-13.16 2.8926-18.497-1.4759-0.97873-0.8012-1.8318-1.4044-1.8957-1.3405-0.0639 0.06392 0.63352 1.8886 1.5498 4.055 0.91633 2.1662 1.666 4.096 1.666 4.2886 0 0.19255-0.37892 0.5037-0.84204 0.69139-0.46313 0.1877-2.8762 1.1775-5.3624 2.1994-2.4862 1.0219-4.6913 1.7925-4.9001 1.7123-0.20882-0.08016-1.206 0.4747-2.216 1.233-1.9919 1.4957-5.228 3.1808-7.6476 3.9821-1.8602 0.61607-5.8922 0.98988-7.9676 0.73867-0.84204-0.10191-1.5904-0.13432-1.6631-0.072-0.0727 0.0623 0.31685 0.57654 0.86562 1.1427l0.9978 1.0295-0.86562 0.60664c-1.1349 0.79535-6.526 4.0617-6.7039 4.0617-0.0759 0-0.70863 0.41337-1.4061 0.9186-0.69743 0.50522-1.4858 0.91859-1.7519 0.91859-0.26612 0-1.6857-1.1963-3.1548-2.6584-2.6081-2.596-2.6909-2.6493-3.5274-2.2693-1.4418 0.65501-3.4364 2.0014-3.4447 2.325-4e-3 0.16841 0.47295 1.6639 1.0605 3.3232 0.58757 1.6593 1.0683 3.3308 1.0683 3.7145 0 0.69219-0.30847 0.9079-6.6641 4.6609-0.62915 0.37151-3.2702 2.335-5.8692 4.3633-2.5989 2.0283-4.8538 3.6878-5.0112 3.6878-0.4454 0-4.1511-2.5494-6.1861-4.2558-2.5753-2.1595-4.4046-3.2509-4.7948-2.8607-0.44206 0.44206-0.18162 0.85389 3.7359 5.9084l3.4132 4.4037-0.87111 0.71807c-0.4791 0.39493-2.1112 1.66-3.6269 2.8111-2.9243 2.221-4.7562 3.9343-14.5 13.561-3.3666 3.3259-6.2461 6.0474-6.3992 6.0474s-1.6097-1.4018-3.2368-3.1153c-1.6272-1.7134-3.0335-3.0402-3.1251-2.9487-0.09155 0.0916 0.13974 0.90775 0.51398 1.8138 0.57134 1.3832 0.6819 2.2366 0.68944 5.3217 0.0083 3.3979-0.06405 3.866-0.96116 6.2201-0.53358 1.4001-1.3899 3.2279-1.903 4.0617-0.51307 0.83387-0.93286 1.5911-0.93286 1.6827 0 0.26896-3.6447 5.0112-5.5131 7.173-2.1196 2.4526-2.0324 2.3096-5.5082 9.0328-1.5671 3.0314-2.9475 5.6494-3.0675 5.8178-0.11997 0.1684-1.15 2.1319-2.289 4.3633-1.1389 2.2314-2.2067 4.0571-2.3729 4.0571s-2.7264-1.2393-5.6895-2.754c-2.963-1.5147-5.477-2.6515-5.5866-2.5261-0.44197 0.50529-3.0926 9.3017-2.9304 9.7245 0.09599 0.25015 0.34092 0.4548 0.54427 0.4548 0.55039 0 10.786 3.3731 11.068 3.6471 0.13312 0.1297-0.6763 2.9791-1.7987 6.3322-1.829 5.4638-2.0977 6.5845-2.5901 10.802-0.30212 2.5882-0.6639 4.8101-0.80395 4.9377-0.14006 0.12769-3.5605 1.3478-7.6007 2.7118-6.673 2.2527-8.5607 3.0935-6.9942 3.1159 1.3061 0.0185 13.633 1.4795 13.788 1.6341 0.09312 0.0931-0.08897 2.552-0.40464 5.4641l-0.57394 5.2948-1.531 0.0441c-0.84204 0.0243-2.4955-0.0791-3.6744-0.22967zm2.1064-5.3468c0.11022-0.93776 0.13362-1.8131 0.05202-1.9451-0.0816-0.13204-1.014-0.32659-2.072-0.43232-1.058-0.10574-3.7837-0.38918-6.0572-0.62985-3.5534-0.37617-10.188-0.94781-13.779-1.1872-1.0421-0.0695-1.0739-0.10946-1.1515-1.4493-0.04387-0.75783 0.03607-1.5548 0.17765-1.7711 0.14158-0.21628 1.8309-0.80421 3.7543-1.3065 3.6309-0.94837 20.18-6.3248 20.546-6.6745 0.33976-0.32558 0.92588-5.3132 0.65441-5.5685-0.2234-0.21015-22.935-2.8635-27.995-3.2705l-2.0242-0.16286-0.1656 1.6456c-0.09108 0.90509-0.05134 1.7665 0.08831 1.9144 0.3238 0.34269 8.5132 1.2984 13.312 1.5535 7.4452 0.39576 8.5169 0.4687 8.6357 0.58756 0.06678 0.0668 0.02997 0.81078-0.0818 1.6534l-0.20321 1.5319-3.8838 0.94697c-4.6303 1.129-19.004 5.9632-19.338 6.504-0.12905 0.20881-0.32236 1.3548-0.42956 2.5466-0.1072 1.1918-0.26473 2.5332-0.35008 2.9807-0.19662 1.0312-0.83874 0.90564 11.517 2.2517 5.4733 0.59629 11.398 1.2706 13.167 1.4984s3.713 0.43094 4.3211 0.4513l1.1061 0.0371zm5.0122-30.216c0.32359-1.0526 0.53872-2.0096 0.4781-2.1267-0.06063-0.11715-2.7247-1.0594-5.9203-2.094-5.1812-1.6773-5.8092-1.9526-5.8031-2.5428 0.0038-0.36402 0.67541-2.6598 1.4925-5.1016 0.81712-2.4418 1.4282-4.5397 1.3579-4.6616-0.12741-0.22101-3.2148-1.2221-3.3265-1.0786-0.03236 0.0415-0.77459 2.3146-1.6494 5.0514-0.88164 2.758-1.7533 4.9757-1.9556 4.9757-0.36924 0-8.8372-2.7513-9.0598-2.9435-0.06619-0.0572 0.67501-2.5339 1.6471-5.5036 1.4394-4.3973 1.6891-5.45 1.3452-5.6708-0.4577-0.29378-2.3755-0.88258-2.8719-0.88175-0.23443 3e-4 -3.622 9.712-5.0967 14.611-0.19769 0.65676 0.3194 0.85637 13.622 5.258 7.605 2.5165 14.125 4.5862 14.49 4.5991 0.5518 0.0198 0.76056-0.29568 1.2507-1.89zm8.2771-21.74c1.0555-2.063 2.7426-5.3349 3.7491-7.271 1.0065-1.936 1.83-3.6588 1.83-3.8281 0-0.16932-0.62685-0.64047-1.393-1.0469-1.1946-0.6337-1.4505-0.67724-1.7972-0.30567-0.22235 0.23831-1.5451 2.6379-2.9394 5.3324-1.3943 2.6945-2.5786 4.9515-2.6316 5.0158-0.17355 0.20973-8.4471-4.0871-8.599-4.4659-0.08138-0.20288 0.97291-2.5054 2.3428-5.1166l2.4908-4.7479-1.5752-0.79823c-0.86636-0.43902-1.6209-0.75257-1.6766-0.69678-0.05579 0.0558-1.1564 2.0975-2.4459 4.5369-1.2895 2.4396-2.4745 4.5706-2.6334 4.736-0.34545 0.35917-7.9152-3.4815-7.921-4.0188-0.0021-0.19269 1.0985-2.4634 2.4457-5.0461 1.3473-2.5827 2.4496-4.8679 2.4496-5.0783 0-0.40241-2.143-1.6264-2.8201-1.6108-0.49157 0.0113-7.6773 13.714-7.4721 14.249 0.08211 0.21398 2.397 1.5192 5.1441 2.9005 2.7472 1.3813 5.1328 2.6146 5.3012 2.7407 0.16841 0.1261 2.9242 1.5808 6.124 3.2328s6.6445 3.4597 7.6549 4.0173c1.0105 0.55758 1.9758 1.0154 2.1452 1.0173 0.16942 2e-3 1.1716-1.6844 2.2272-3.7476zm12.018-19.685c3.8951-4.8918 6.4216-10.472 6.4216-14.183 0-6.5036-7.1558-13.985-14.682-15.35-3.4411-0.62397-7.0551 0.57565-10.212 3.3896-2.7732 2.4719-8.1755 9.9211-8.1755 11.273 0 0.16757 1.6879 1.5321 3.7509 3.0322 2.063 1.5001 7.4645 5.4307 12.004 8.7349 9.4061 6.8472 8.1886 6.5003 10.893 3.1033zm-5.4078-6.654c-1.6618-1.2244-3.3657-2.465-3.7867-2.7567-0.42102-0.29178-1.4686-1.0468-2.328-1.6778-0.8594-0.63101-3.2362-2.3612-5.2819-3.8449-2.0456-1.4836-3.7194-2.9006-3.7194-3.1486 0-0.95662 1.5962-3.5317 3.1768-5.1251 2.8069-2.8294 6.0557-3.5923 10.034-2.356 3.5629 1.1072 7.3031 4.2595 9.1382 7.7021 0.92622 1.7374 1.0419 2.2192 1.0575 4.4065 0.01549 2.1661-0.09857 2.6918-0.96648 4.4549-1.0327 2.0977-3.1251 4.5715-3.867 4.5715-0.23959 0-1.7952-1.0018-3.457-2.2262zm3.7341-3.5106c2.3722-3.6205-0.04558-8.482-5.6836-11.428-1.9804-1.0349-4.615-1.0085-6.2816 0.0629-0.67612 0.43461-1.3781 0.98121-1.56 1.2146-0.87242 1.1195-0.70768 1.3874 2.1268 3.4588 6.9874 5.1062 10.405 7.5294 10.619 7.5294 0.12706 0 0.47797-0.37693 0.77982-0.83761zm23.558-16.611 5.5116-5.5051-2.5878-2.5897-2.9929 2.9085c-4.6227 4.4922-5.7207 5.4812-6.0909 5.4846-0.4799 5e-3 -6.5471-6.3698-6.5471-6.8784 0-0.22923 1.6535-1.9664 3.6744-3.8602 2.0209-1.894 3.6744-3.5997 3.6744-3.7904s-0.51888-0.85356-1.1531-1.4728l-1.1531-1.126-7.9348 7.6522-6.4406-6.4406 4.0541-4.0623c2.2298-2.2344 4.0541-4.2059 4.0541-4.3811 0-0.46059-2.0354-2.3652-2.3871-2.2337-0.59644 0.22291-11.44 10.99-11.341 11.261 0.13638 0.37414 6.1922 6.6494 14.263 14.78 6.2764 6.3227 6.6218 6.6185 7.2382 6.1996 0.35602-0.24206 3.1275-2.9174 6.1589-5.9451zm10.742-10.196c1.1663-0.67997 2.271-1.68 2.271-2.056 0-0.396-0.4108-0.95328-4.7176-6.3998l-2.7603-3.491 1.3658-1.1834c2.0503-1.7764 3.7381-2.5043 5.3778-2.3195 1.503 0.16941 2.9874 1.0944 7.0031 4.3633 1.3427 1.0931 2.5999 1.9875 2.7936 1.9875 0.50312 0 3.4815-2.2337 3.487-2.6152 7e-3 -0.44861-5.8395-5.018-7.7367-6.0471-1.2058-0.65407-1.9259-0.83818-3.0736-0.78582-1.2681 0.0579-1.5887-0.0463-2.084-0.67679-0.62064-0.79015-0.5992-1.2372 0.15327-3.1949 0.25894-0.67363 0.47685-1.648 0.48423-2.1654 0.0515-3.6064-3.8296-7.786-7.23-7.786-1.3374 0-4.1514 0.96808-5.7075 1.9636-3.6557 2.3386-8.9379 7.0049-8.6829 7.6702 0.16799 0.43777 2.7572 3.8431 9.6703 12.719 7.3769 9.471 8.1397 10.41 8.4416 10.4 0.16873-6e-3 0.59384-0.1782 0.94468-0.38274zm-8.7986-16.677c-3.9521-5.0005-4.8526-6.2372-4.8526-6.6644 0-0.56619 1.8796-2.4515 3.6585-3.6698 1.1564-0.79189 1.6196-0.91859 3.3578-0.91859 1.7677 0 2.164 0.11287 3.2126 0.91485 1.322 1.0112 2.6254 3.4453 2.6254 4.9028 0 1.8162-1.3235 3.9444-3.5935 5.7786-1.1731 0.94786-2.2774 1.7234-2.4539 1.7234-0.17652 0-1.056-0.93007-1.9544-2.0668zm3.8305-4.3247c0.58221-0.99689 0.58414-1.0646 0.058-2.0414-0.67865-1.2602-1.728-1.5636-2.9372-0.8493-0.49772 0.29401-0.90497 0.68894-0.90497 0.87759 0 0.63891 2.2394 3.2258 2.7135 3.1346 0.25764-0.0496 0.7394-0.55419 1.0706-1.1213zm28.413 3.5761c0.8165-0.52908 1.4832-1.0421 1.4817-1.14-2e-3 -0.098-0.53573-1.7627-1.187-3.6995-0.78414-2.3317-1.0861-3.6444-0.89382-3.8853 0.1597-0.2002 1.9684-1.3645 4.0195-2.5874 2.0509-1.2229 3.9723-2.4258 4.2696-2.6732 0.4942-0.41122 0.78925-0.20596 3.4392 2.3927 1.6904 1.6577 3.0706 2.7765 3.3109 2.6842 0.22689-0.0871 1.2184-0.67382 2.2034-1.3039l1.7909-1.1456-2.432-2.3288c-1.3376-1.2808-4.7672-4.5336-7.6213-7.2281-2.8541-2.6945-6.684-6.346-8.5108-8.1142-1.8268-1.7683-3.5767-3.3339-3.8884-3.4793-0.43162-0.20121-1.2848 0.17513-3.5755 1.5772-1.6547 1.0128-3.1376 2.0461-3.2953 2.2962-0.28907 0.45829-7e-3 1.5326 3.3492 12.772 0.77955 2.6103 1.6872 5.7106 2.0171 6.8894 0.3299 1.1789 0.858 2.9701 1.1736 3.9806 0.3156 1.0105 0.86911 2.848 1.23 4.0835 0.73674 2.5219 0.66285 2.5004 3.1186 0.90904zm-4.1098-16.552c-0.93427-2.7366-2.1364-6.1889-2.6714-7.6718-0.53499-1.4829-0.89628-2.8954-0.80279-3.1388 0.0935-0.24343 0.6706-0.68163 1.2825-0.97343l1.1126-0.53055 11.586 11.932-0.7402 0.6124c-0.99689 0.82477-7.4287 4.7461-7.7848 4.7461-0.15561 0-1.0473-2.2391-1.9816-4.9757zm4.1297-1.5106c-0.46772-0.46772-0.81283-0.1226-0.55342 0.55342 0.15317 0.39916 0.28596 0.43872 0.55835 0.1663 0.2724-0.2724 0.27123-0.44356-5e-3 -0.71975zm31.535 0.73313c2.5191-0.8467 6.9807-3.4325 6.9807-4.0455 0-0.32849-1.5217-2.7554-1.7277-2.7554-0.0634 0-1.2978 0.63934-2.743 1.4208-2.1824 1.18-2.9769 1.4457-4.6879 1.5682-4.2176 0.30178-7.1032-1.0628-9.6964-4.5853-2.0667-2.8075-2.6934-4.7363-2.7141-8.3549-0.0151-2.6322 0.0828-3.2555 0.69752-4.4399 1.4288-2.7531 3.9907-4.7856 7.3371-5.8208 0.96033-0.29713 1.7428-0.65909 1.7388-0.80438-4e-3 -0.14528-0.11577-0.91866-0.24841-1.7186-0.28112-1.6954-0.47516-1.7494-3.0724-0.85588-7.9878 2.7482-12.345 9.005-11.294 16.217 0.77976 5.3499 3.7681 10.508 7.5162 12.974 2.2804 1.5003 3.9794 2.0031 6.8613 2.0308 1.9817 0.0191 3.0473-0.15596 5.0523-0.82983zm15.006-7.0073c2.1599-0.9693 2.1642-0.58536-0.0664-5.9176-0.8806-2.1051-1.9124-4.5853-2.293-5.5116-4.239-10.317-6.9482-16.715-7.1733-16.94-0.34861-0.34861-3.2065 0.57945-3.731 1.2116-0.46092 0.55538-0.70377-0.1181 4.1805 11.595 1.9664 4.7154 4.1582 10.023 4.8707 11.794 1.4124 3.5112 1.9303 4.5875 2.2076 4.5875 0.0993 0 1.0016-0.36845 2.005-0.81877zm-13.783-1.901c1.7046-1.0766 4.533-3.6624 4.533-4.1444 0-0.16784-4.6398-11.432-5.8609-14.228-0.37405-0.85665-0.7308-1.5069-0.79277-1.4449-0.062 0.06198 0.10154 1.0364 0.36336 2.1654 0.26183 1.129 0.39824 2.1786 0.30317 2.3325-0.0951 0.15386-0.99493 0.27975-1.9997 0.27975-2.1754 0-4.8805 0.88197-6.3943 2.0847-1.4467 1.1495-2.4598 3.1958-2.4598 4.9681 0 3.0255 2.0541 6.9097 4.5354 8.576 1.3573 0.91152 1.5546 0.95555 3.6214 0.80796 1.8858-0.13464 2.4559-0.32653 4.1511-1.3972zm31.802-4.4527c9.9631-2.1121 13.518-12.012 8.1997-22.835-3.1649-6.4403-8.8929-9.4134-15.047-7.8105-4.9929 1.3005-8.5206 4.9059-9.7019 9.9156-0.52035 2.2066-0.23961 6.6956 0.5733 9.167 2.0078 6.1041 5.8092 10.244 10.601 11.543 1.9754 0.53594 2.9231 0.53937 5.3756 0.01947zm-4.5679-4.2059c-3.002-1.486-5.4451-5.0118-6.7596-9.7555-2.0611-7.4375 0.82422-13.268 6.5646-13.265 4.0645 0.0021 7.169 2.989 9.3669 9.0114 1.6909 4.6334 1.5425 9.276-0.38156 11.932-1.8318 2.5288-5.9243 3.4959-8.7903 2.0772zm4.6508-3.3504c2.0846-0.9498 2.611-4.57 1.2782-8.7894-1.3657-4.3232-3.791-7.1626-6.1184-7.1626-3.9184 0-4.7412 5.5881-1.7342 11.779 1.126 2.3181 1.4105 2.6787 2.9243 3.7059 1.2677 0.86029 2.454 1.0121 3.6502 0.46707zm21.816 0.30007c0.75107-0.18912 1.4291-0.44662 1.5067-0.57222 0.20941-0.33884-3.4046-14.904-5.085-20.496-0.32539-1.0825-0.4852-2.0624-0.35513-2.1776 0.13008-0.11522 0.82211-0.35167 1.5379-0.52544 1.476-0.35837 1.364-0.45902 4.5155 4.059 1.0978 1.5738 8.64 11.182 12.588 16.036 0.0511 0.06278 1.343-0.19478 2.8711-0.57234 2.2398-0.55342 2.7516-0.78325 2.6407-1.1858-0.0757-0.27464-0.34916-1.395-0.60774-2.4896-0.2586-1.0947-1.1083-4.6083-1.8883-7.808-0.77995-3.1998-2.0839-8.6198-2.8978-12.045-0.81381-3.4248-1.5589-6.3058-1.6557-6.4029-0.0968-0.09682-0.93473-0.0062-1.862 0.20127-1.154 0.25826-1.686 0.52666-1.686 0.85065 0 1.0582 2.8565 12.003 4.273 16.373 1.0468 3.2292 1.4103 4.7436 1.1737 4.8897-0.3844 0.23758-3.0124 0.67357-3.1272 0.51882-0.0406-0.05474-1.2072-1.7709-2.5924-3.8137-2.3941-3.5305-9.5806-12.785-11.321-14.579l-0.81488-0.8399-2.9929 0.72355c-1.6461 0.39793-3.0721 0.80288-3.1692 0.89985-0.097 0.09697 0.26445 2.0095 0.80313 4.25 0.53869 2.2406 2.0703 8.6207 3.4037 14.178 1.3333 5.5575 2.4883 10.277 2.5666 10.487 0.17499 0.47023 0.44264 0.475 2.1746 0.03889zm-30.311-28.2c0.7458-0.33982 2.1986-2.8633 1.8494-3.2123-0.072-0.07204-0.70875 0.04212-1.4149 0.2537-1.3336 0.39956-1.8376 1.109-1.8376 2.5866 0 0.84275 0.23405 0.90482 1.4032 0.37212zm331.24 85.711c-1.5288-1.213-3.8529-3.0322-5.165-4.0427-6.5989-5.0829-10.437-8.2232-10.528-8.6124-0.0551-0.23769 0.42718-1.084 1.0717-1.8807 0.64449-0.7967 1.5028-1.9192 1.9074-2.4944 0.6481-0.92144 0.66632-1.0173 0.1531-0.80662-1.5488 0.63591-3.3281 0.82242-6.5532 0.6869-2.9532-0.12412-3.9-0.2949-5.8698-1.0586-4.0773-1.5811-10.26-5.3612-13.195-8.0668l-1.458-1.3444 1.9174-3.1186c1.0546-1.7153 3.2114-5.2289 4.7929-7.808 1.5815-2.5791 3.2671-5.3095 3.746-6.0673 0.47862-0.75784 2.5755-4.1337 4.6597-7.5018 3.5767-5.7801 3.8385-6.1203 4.6658-6.0569 1.091 0.08331 7.7682 3.4358 10.846 5.4451 1.2631 0.82478 3.4147 2.6089 4.7813 3.9646 3.6536 3.6245 5.017 6.736 5.017 11.448 0 2.55 0.0101 2.5853 0.59513 2.056 0.3273-0.29621 1.3952-1.5698 2.373-2.8302 0.97785-1.2604 2.1474-2.7235 2.599-3.2512l0.8211-0.95968 1.1692 0.92652c0.64304 0.50957 2.4092 1.8763 3.9248 3.0371 10.949 8.3855 13.638 10.601 13.383 11.024-0.3434 0.57054-5.0351 6.5854-5.8814 7.5401l-0.7655 0.86354-1.8372-1.4062c-2.9203-2.2352-5.8043-4.5176-5.9709-4.7256-0.0842-0.10512-0.4458-0.34511-0.8035-0.5333-0.5299-0.27878-0.74715-0.23528-1.1726 0.23482-0.56353 0.62269-0.46028 0.71923 6.1687 5.7672 1.0429 0.79418 1.9041 1.5567 1.9137 1.6946 0.01 0.13785-0.84358 1.3315-1.8961 2.6525-1.0526 1.3211-2.5144 3.1808-3.2488 4.1324-0.75922 0.98434-1.5047 1.6655-1.7286 1.5796-0.21661-0.0831-2.22-1.5639-4.4521-3.2907l-4.0583-3.1394-0.71825 0.89765c-0.39506 0.49372-0.71895 0.99162-0.71978 1.1065 0 0.11484 0.44628 0.52623 0.99361 0.91418 3.2044 2.2714 8.3381 6.5055 8.305 6.8496-0.0569 0.59163-6.2654 8.4116-6.6647 8.3944-0.18647-8e-3 -1.5899-1.0069-3.1186-2.2199zm3.7858-4.2513c0.54126-0.70425 0.98035-1.3588 0.97576-1.4544-8e-3 -0.15736-1.7921-1.5627-7.5597-5.9531-1.28-0.97438-1.9018-1.6456-1.7913-1.9335 0.1911-0.498 5.3104-7.0597 5.6919-7.2952 0.24-0.14832 4.2145 2.7148 7.0781 5.0988 0.7812 0.65039 1.5619 1.1825 1.7349 1.1825 0.17297 0 0.76681-0.57109 1.3196-1.2691l1.0052-1.2691-1.2091-1.0228c-0.66497-0.56255-2.5461-2.0238-4.1802-3.2472-1.6342-1.2235-2.9776-2.4474-2.9854-2.7199-0.0178-0.6225 4.8477-7.0064 5.3398-7.0064 0.10353 0 2.2137 1.5876 4.6894 3.528l4.5011 3.528 0.84952-1.002c1.6998-2.0049 1.8201-1.7581-2.455-5.036-2.1483-1.6472-5.0048-3.8593-6.3475-4.9154-1.3428-1.0563-2.5312-1.9205-2.641-1.9205-0.10975 0-1.0762 1.1368-2.1477 2.5261-1.0715 1.3894-2.7766 3.5715-3.7892 4.8492-1.0126 1.2778-2.9434 3.746-4.2908 5.4849-1.3474 1.7389-3.8027 4.8946-5.4561 7.0122l-3.0067 3.8507 0.86332 0.71185c0.47479 0.39151 2.1034 1.6499 3.619 2.7963 1.5157 1.1465 4.0648 3.1309 5.6647 4.4099 1.5999 1.279 3.0516 2.3302 3.2261 2.336 0.17447 6e-3 0.76007-0.56567 1.3013-1.2699zm-18.482-16.816c1.7821-0.49478 4.8695-2.5593 6.4406-4.307 1.9735-2.195 3.9916-5.5823 4.766-8 0.96921-3.0255 0.79079-6.4344-0.46704-8.9232-1.6639-3.2925-4.7393-6.09-9.7983-8.9134-2.51-1.4008-4.8144-2.5655-5.1025-2.579-0.19104-9e-3 -4.5991 6.9911-12.478 19.815-1.8877 3.0727-3.3547 5.7118-3.2601 5.8649 0.25913 0.41925 6.0244 4.1704 7.7205 5.0235 0.8166 0.41064 2.3803 1.0319 3.475 1.3806 1.0946 0.34867 2.197 0.69997 2.4496 0.78069 0.88626 0.28317 5.0645 0.18827 6.2544-0.14206zm-9.3892-4.3805c-1.8266-0.7512-4.826-2.8411-4.826-3.3627 0-0.16477 2.7-4.683 6-10.04 5.7887-9.3975 6.0284-9.7337 6.8129-9.55 1.5334 0.35951 3.8762 1.7978 5.4353 3.3372 4.0011 3.95 3.8082 9.4839-0.5357 15.364-3.2613 4.4148-8.3818 6.104-12.886 4.2516zm7.1013-3.8762c4.0201-2.4735 6.564-8.3797 4.9619-11.52-0.53404-1.0468-2.6728-3.1572-3.1995-3.1572-0.15518 0-0.46508 0.49169-5.8542 9.2876-3.2086 5.2372-3.2497 5.428-1.2907 5.996 2.0169 0.58474 3.7668 0.38761 5.3824-0.60637zm-30.146-1.2311c-1.8525-0.85405-4.5394-2.0768-5.9709-2.7173-1.4315-0.64047-4.6006-2.0939-7.0426-3.2298-2.4419-1.1359-5.4733-2.5451-6.7364-3.1315-1.2631-0.58634-2.3654-1.1734-2.4496-1.3045-0.19119-0.29772-2.0784-1.1027-4.2868-1.8286-0.92625-0.30444-5.1288-1.83-9.339-3.3902s-9.6529-3.4159-12.095-4.1242l-4.4399-1.2875-0.0826-6.4415c-0.066-5.1509-0.17067-6.5147-0.52243-6.8065-0.53049-0.44025-1.0774-0.16385-1.0837 0.54776-4e-3 0.45403-0.64359 2.764-2.5807 9.321-0.55581 1.8814-0.76687 2.0063-2.4452 1.4476-0.5172-0.17218-2.8005-0.84762-5.074-1.501l-4.1337-1.188 0.0672-1.0999c0.037-0.60492 0.36263-2.0725 0.7237-3.2613 0.3611-1.1888 0.57834-2.2397 0.48281-2.3352-0.0956-0.09556-0.69681 0.22844-1.3361 0.71999-3.1756 2.4417-5.5085 3.1952-10.501 3.3914-4.1716 0.16411-8.0493-0.39634-13.329-1.9264-2.61-0.75637-4.3477-1.0633-9.3292-1.648-1.4315-0.16802-5.7718-0.72373-9.6452-1.2349s-7.1571-0.93023-7.2973-0.93127c-0.14011-9.19e-4 -0.20901-0.96673-0.1531-2.146 0.0559-1.1792 0.0224-2.1438-0.0746-2.1434-0.0969 3.06e-4 -0.51031 0.35828-0.91859 0.79532-0.99603 1.0662-2.9148 2.1664-4.7488 2.7227-2.18 0.6613-6.7884 0.58845-9.7346-0.15388-1.9156-0.48269-3.4389-0.60768-7.4048-0.60768-4.4889 0-5.0094-0.05408-5.1558-0.53585-0.0896-0.29472-0.44154-1.7759-0.78215-3.2916-1.0326-4.5948-0.63968-4.1337-3.5234-4.1337h-2.5185l-0.32971 1.1482c-0.18134 0.63153-0.56093 2.1817-0.84355 3.4447s-0.56508 2.4687-0.62773 2.6792c-0.0862 0.28967-1.6055 0.38275-6.2474 0.38275-5.8444 0-6.1334-0.02773-6.1334-0.5879 0-0.32334 0.48915-2.2868 1.087-4.3633 1.346-4.675 5.9396-20.897 6.2712-22.147 0.13409-0.50523 0.85479-3.0543 1.6015-5.6647l1.3577-4.7461 13.821-0.16446 0.32148 1.0008c0.1768 0.55045 0.44901 1.552 0.60496 2.2256 0.15591 0.67364 1.6186 6.4608 3.2506 12.86 2.6342 10.33 3.5182 13.275 3.5338 11.773 0.0126-1.1787 0.44788-1.2835 2.5875-0.62259 2.6556 0.82024 3.9506 0.81997 4.7154-1e-3 0.86026-0.92337 0.86213-0.9384 1.8857-15.13 0.49004-6.7945 0.84854-10.603 1.0135-10.768 0.3829-0.3829 13.474 0.86939 24.547 2.348 2.3577 0.31486 5.5958 0.74222 7.1956 0.94967 1.5999 0.20745 3.0171 0.46928 3.1496 0.58187 0.20255 0.17239-0.81633 9.5782-1.1475 10.593-0.0766 0.2347-1.7108 0.12271-5.4191-0.37136-6.8089-0.90714-6.443-0.91299-6.3248 0.10113l0.0969 0.8313 5.1998 0.71969c2.8599 0.39582 5.2614 0.78123 5.3367 0.85647 0.11914 0.11914-0.23556 3.7059-0.80009 8.0907-0.42856 3.3287 0.29536 0.39992 2.0436-8.2673 1.036-5.1365 2.0183-9.8559 2.1828-10.487l0.29913-1.1482 1.9019 0.0016c2.7387 0.0024 9.84 1.1032 12.972 2.011 6.4396 1.8661 10.866 5.6007 12.512 10.557 0.27548 0.82943 0.60483 1.5723 0.73184 1.6508 0.12704 0.07851 0.75407-1.7111 1.3934-3.9769 0.88063-3.1211 1.2829-4.1193 1.6594-4.1187 0.68368 0.0016 5.2675 0.7963 7.7349 1.341 6.3398 1.3996 9.806 2.9475 12.373 5.5253 2.6727 2.6843 3.0494 3.6162 3.0409 7.5239-6e-3 2.6714-0.12334 3.4698-0.69483 4.7216-0.94633 2.073-2.5924 3.9992-4.2454 4.9681-1.2986 0.76106-1.3733 0.87432-1.1616 1.7624 0.12447 0.52198 0.31419 2.8092 0.42163 5.0826 0.22224 4.7032 0.1031 4.7537 2.1621-0.91859 1.298-3.5758 5.8671-15.949 7.293-19.75 0.8276-2.2058 0.99521-2.4443 1.6846-2.396 0.42102 0.02948 4.878 1.5825 9.9043 3.4512 5.0262 1.8687 9.7245 3.6128 10.44 3.8759 0.71558 0.26302 1.3007 0.57014 1.2998 0.68252 0 0.11238-0.4936 1.5133-1.0951 3.1131-0.60146 1.5999-1.3913 3.7871-1.7552 4.86-0.36388 1.0732-0.81843 2.0114-1.01 2.0849-0.19165 0.07353-2.7425-0.75484-5.6686-1.8408l-5.3202-1.9745-0.26697 0.76709c-0.18397 0.52862-0.14949 0.83969 0.11093 1.0006 0.20785 0.12845 2.4457 0.97371 4.973 1.8783 2.5274 0.90463 4.656 1.8003 4.7302 1.9903 0.13794 0.35323-3.1444 9.5528-3.5724 10.013-0.12999 0.13971-0.90742-0.02024-1.7276-0.35546-0.82022-0.33522-3.0588-1.1988-4.9748-1.919-3.3535-1.2607-3.4992-1.2881-3.904-0.73426-0.79021 1.0807-0.53024 1.9064 0.72759 2.3111 0.63153 0.20316 2.3194 0.82092 3.7509 1.3728 1.4315 0.55186 3.4701 1.3128 4.5305 1.6909 1.8551 0.66148 1.9207 0.72039 1.7364 1.5596-0.16529 0.75257-0.11535 0.84284 0.36447 0.65872 0.67862-0.26041 15.099-9.4952 15.668-10.034 0.33174-0.31404 0.19196-0.47081-0.76549-0.85864-1.2044-0.48784-8.4544-3.8863-8.6036-4.0329-0.0458-0.04506 0.45728-1.2386 1.118-2.6523 0.66072-1.4137 1.6882-3.6382 2.2833-4.9436 0.5951-1.3052 1.2206-2.373 1.39-2.373 0.16941 0 1.5218 0.56754 3.0054 1.2612 3.1835 1.4885 8.8791 4.0954 12.955 5.9292 6.2973 2.8334 8.3154 3.8397 8.2171 4.0969-0.0565 0.14748-0.72278 1.6763-1.4806 3.3973l-1.3779 3.1293-4.2868 2.813c-2.3577 1.5471-6.5242 4.2562-9.2591 6.0202-2.7347 1.7639-4.9739 3.3115-4.9757 3.4386-3e-3 0.22042 4.8866 2.6086 8.6415 4.2203 0.96547 0.41444 1.7578 0.93237 1.7606 1.151 3e-3 0.21862-0.59948 1.6829-1.3386 3.254-0.7391 1.571-1.7224 3.7001-2.1852 4.7314-0.46278 1.0312-0.92594 1.8738-1.0292 1.8725-0.10331-1e-3 -1.7035-0.70119-3.5559-1.5552zm2.5973-4.8612c0.58738-1.2541 0.64348-1.6018 0.32105-1.9903-0.21486-0.2589-0.51503-0.47075-0.66702-0.47075-0.56772 0-10.978-4.9867-10.978-5.2586 0-1.2054 1.3009-2.3638 6.375-5.6769 15.29-9.9839 15.306-9.9946 15.96-11.216 0.34664-0.64746 0.63028-1.2388 0.63028-1.3141 0-0.07533-0.86119-0.52455-1.9137-0.99827-1.0526-0.47372-2.8094-1.2756-3.904-1.7819-9.1676-4.2402-11.653-5.3174-11.907-5.1607-0.49763 0.30754-1.376 2.9372-1.0769 3.224 0.15218 0.1458 2.5846 1.3325 5.4056 2.6372 3.0381 1.4051 5.1288 2.5457 5.1288 2.7979 0 1.3832-1.1675 2.2979-10.978 8.6011-5.5599 3.5724-10.302 6.5692-10.538 6.6598-0.42258 0.16216-1.4489 2.0095-1.4489 2.608 0 0.2897 3.1744 1.8705 8.2673 4.1171 1.2631 0.55716 4.0877 1.8517 6.2771 2.8768 2.1893 1.0251 4.0605 1.8642 4.1579 1.8646 0.0975 3e-4 0.49757-0.68301 0.88901-1.5188zm-24.396-11.264c0.28673-0.79994 0.52063-1.6082 0.51977-1.7962 0-0.18794-0.86268-0.65174-1.9152-1.0307-6.3441-2.2838-9.4156-3.49-9.4156-3.6976 0-0.27041 2.9861-8.4915 3.2243-8.877 0.0863-0.13968 1.0841 0.09058 2.2172 0.51166 3.1679 1.1772 7.9869 2.8714 8.1675 2.8714 0.16093 0 0.83996-1.4902 1.2094-2.6541 0.17411-0.54858-0.30687-0.79412-4.7464-2.4229-2.717-0.99686-5.0137-2.0015-5.1034-2.2325-0.1643-0.42206 0.18189-1.536 1.8476-5.9445 0.80429-2.1287 0.97114-2.3635 1.5587-2.1941 0.36193 0.10438 2.6632 0.93599 5.1141 1.848 2.4508 0.91201 4.675 1.6582 4.9423 1.6582 0.46496 0 1.4715-1.9686 1.4715-2.8779 0-0.22877-0.37892-0.56148-0.84204-0.73932-4.4956-1.7263-14.275-5.2516-14.352-5.1738-0.0546 0.05456-0.8509 2.1582-1.7696 4.6747-0.91875 2.5165-2.9307 7.9513-4.4711 12.077-3.7724 10.105-4.1566 11.276-3.81 11.613 0.1595 0.1553 2.2191 0.99082 4.5767 1.8567 2.3577 0.8659 5.6647 2.1005 7.3487 2.7434 1.6841 0.64298 3.2071 1.185 3.3841 1.2044 0.17723 0.01944 0.55682-0.61916 0.84355-1.4191zm-22.64-7.1956c0.10156-0.37892 0.1865-2.7258 0.1888-5.2152 4e-3 -4.8018-0.26587-6.0731-1.5911-7.4838-0.5865-0.62428-0.61277-0.80484-0.27929-1.9179 0.31728-1.059 0.48814-1.2287 1.237-1.2287 2.3116 0 5.1013-2.3085 5.9445-4.9188 1.6926-5.2409-0.70992-8.6391-7.7566-10.971-2.5033-0.82839-8.5925-2.2003-8.9061-2.0065-0.12936 0.07995-0.37313 0.59127-0.54172 1.1362-0.79413 2.5672-2.0865 7.0226-4.8171 16.607-1.6314 5.7259-3.0232 10.563-3.0929 10.749-0.12125 0.32362 2.8942 1.3461 3.9699 1.3461 0.3355 0 0.61741-0.43498 0.84342-1.3013 1.082-4.1478 2.8598-10.218 3.0568-10.436 0.32319-0.35853 4.1248 0.83359 5.3624 1.6815 1.706 1.1689 1.8288 1.6833 1.8291 7.6574 1.3e-4 2.9754 0.0785 5.488 0.17411 5.5835 0.15105 0.15107 3.4692 1.2934 4.0002 1.3771 0.10665 0.01681 0.27701-0.27945 0.37855-0.65839zm-8.7634-18.064c-1.1368-0.34377-2.0642-0.77744-2.061-0.96376 3e-3 -0.1863 0.66108-2.6122 1.4619-5.3909l1.4561-5.0523 1.6766 0.08562c3.6848 0.18818 6.7088 2.005 7.3595 4.4218 0.68095 2.5288-0.50327 5.5973-2.6444 6.8521-1.5882 0.93072-4.2702 0.94836-7.2486 0.04767zm5.5413-3.5225c0.3483-0.29472 0.72149-0.90889 0.82931-1.3648 0.1553-0.65652 0.0214-0.99089-0.64403-1.6075-0.46208-0.42822-1.1419-0.7786-1.5107-0.7786-0.55945 0-0.75606 0.30752-1.1866 1.8559-0.28378 1.0207-0.43602 1.9853-0.33831 2.1434 0.29884 0.48355 2.179 0.3197 2.8503-0.24838zm-27.67 12.645c2.4841-0.64703 4.6398-1.9301 6.157-3.6646 3.3844-3.8688 5.3061-10.92 4.2926-15.751-1.0069-4.7996-3.8752-7.8387-9.0919-9.6318-2.5658-0.882-8.1776-1.9975-10.66-2.119l-1.6536-0.08095-0.55128 2.6027c-0.30319 1.4315-0.69797 3.2916-0.87728 4.1337-0.3938 1.8493-2.1322 10.504-3.3997 16.926-0.50783 2.573-1.0014 4.8817-1.0969 5.1303-0.2328 0.60664 1.0603 1.1191 5.2516 2.0813 3.9885 0.91565 8.9352 1.0741 11.629 0.37243zm-8.2606-3.1257c-0.33681-0.07217-1.198-0.34316-1.9137-0.6022-0.98804-0.35758-1.3013-0.63141-1.3013-1.1373 0-0.36646 0.96452-5.4176 2.1434-11.225s2.1434-10.663 2.1434-10.791c0-0.4642 3.6588-0.21724 5.582 0.37678 5.6668 1.7503 8.2312 6.6574 6.8582 13.123-1.0624 5.0027-3.8011 8.8329-7.1252 9.9655-1.3393 0.45633-4.8627 0.61607-6.3864 0.28952zm6.4896-4.5826c2.4834-2.0013 4.2467-7.3769 3.4922-10.646-0.45118-1.9546-1.504-3.3232-3.1805-4.1349-1.6199-0.78417-2.5741-0.82116-2.7834-0.1079-0.0865 0.29472-0.65153 3.0849-1.2557 6.2005-0.60413 3.1156-1.2316 6.2425-1.3944 6.9485-0.16278 0.70609-0.29597 1.6517-0.29597 2.1014v0.81755l2.1261-0.12014c1.8179-0.10272 2.2951-0.25629 3.2916-1.0594zm-20.607 4.3005c0.34763-0.90592 0.20675-3.19-0.19688-3.1918-0.21052-9.19e-4 -1.6918-0.19606-3.2916-0.43348-1.5999-0.23743-3.8734-0.53043-5.0523-0.6511-1.1789-0.12067-2.431-0.32702-2.7825-0.45856l-0.63907-0.23916 0.5931-4.5431c0.3262-2.4986 0.69584-4.6527 0.82138-4.7865 0.12557-0.13395 2.5916 0.06168 5.48 0.43474 2.8885 0.37307 5.3067 0.62045 5.3741 0.54975 0.0673-0.0707 0.17104-0.87778 0.2306-1.7935l0.10833-1.665-2.7558-0.37904c-1.5157-0.20848-3.9738-0.54307-5.4626-0.74357l-2.7067-0.36453 0.16041-0.95962c0.0882-0.52779 0.3258-2.4283 0.52795-4.2234 0.20215-1.7951 0.45234-3.3921 0.55596-3.5485 0.1129-0.17068 2.3975 0.0028 5.6999 0.43287 6.2872 0.81871 6.2771 0.82134 6.2771-1.6343 0-1.1136-0.10484-1.3363-0.68895-1.4634-2.1848-0.47534-15.122-1.9173-15.337-1.7093-0.27237 0.2637-3.9353 28.622-3.7981 29.405 0.0631 0.36082 1.6551 0.66512 7.4262 1.4194 8.8356 1.1548 9.2144 1.1767 9.4566 0.54583zm-27.351-2.764c2.7792-0.82306 4.3419-2.8652 5.3612-7.0061 0.53168-2.1599 2.0372-21.939 1.6963-22.286-0.12784-0.12983-1.1429-0.32108-2.2557-0.425l-2.0233-0.18894-0.16624 1.0374c-0.0914 0.57057-0.38054 4.2754-0.64246 8.233-0.62388 9.4266-0.96042 12.246-1.652 13.84-1.0744 2.4768-2.5426 3.3066-5.8496 3.3066-2.2943 0-2.2031-0.07782-2.5883 2.2081-0.18228 1.0818-0.14303 1.1504 0.81531 1.4268 1.6235 0.46821 5.4904 0.39043 7.305-0.14695zm-13.494-0.87928c0-0.08087-0.76754-3.1468-1.7056-6.8129s-2.5812-10.111-3.6514-14.321-2.0904-8.034-2.2673-8.497l-0.32172-0.84204h-7.9287l-0.31486 0.99514c-0.17318 0.54733-1.2228 4.2332-2.3325 8.1908-1.1097 3.9576-2.8388 10.105-3.8425 13.66-1.0037 3.5556-1.8249 6.6904-1.8249 6.966 0 0.41649 0.36333 0.50112 2.151 0.50112 2.5252 0 2.3872 0.18798 3.4181-4.653 0.56182-2.6384 0.71749-3.0036 1.2861-3.016 3.5323-0.07748 10.182 0.08829 10.349 0.25798 0.11648 0.11853 0.59926 1.9032 1.0729 3.9659l0.86109 3.7506 2.5261 3.06e-4c1.3894 2.48e-4 2.5261-0.06572 2.5261-0.14659zm-16.944-11.092c-0.443-0.11435-0.51649-0.31771-0.34683-0.95962 0.53962-2.0415 1.7546-7.2529 2.4385-10.46 1.1312-5.304 0.91403-4.8992 2.628-4.8992 1.7122 0 1.595-0.23205 2.7068 5.3585 0.33494 1.6841 0.95983 4.6815 1.3887 6.661 0.42886 1.9794 0.77974 3.8051 0.77974 4.0571 0 0.38765-0.69507 0.45271-4.5164 0.42264-2.484-0.01954-4.7693-0.10081-5.0786-0.18061zm5.002-4.2056c0-0.41107-0.13779-0.83258-0.3062-0.93666-0.17864-0.11041-0.3062 0.20095-0.3062 0.74743 0 0.51518 0.13779 0.93666 0.3062 0.93666s0.3062-0.33633 0.3062-0.74743zm56.209 11.541c0.10307-0.46312 0.2415-1.0487 0.30761-1.3013 0.084-0.3208-0.13234-0.46882-0.71739-0.4909-0.46071-0.01738-2.8562-0.27858-5.3232-0.58043-2.4671-0.30185-4.7063-0.4642-4.9757-0.36076-0.3155 0.12107-0.4901 0.55658-0.4901 1.2224v1.0344l4.6695 0.62388c6.439 0.86032 6.3043 0.86336 6.5294-0.14725zm-129.39 12.329c0-0.12757-0.19896-1.6275-0.44215-3.3333-0.24318-1.7057-0.73212-5.2369-1.0866-7.8472-0.35442-2.6103-0.97438-7.0885-1.3776-9.9514-0.98133-6.9666-1.7915-13.303-1.818-14.22-0.0245-0.84465 0.64657-1.1159 5.3701-2.1711 8.4232-1.8817 13.37-1.9529 18.032-0.25956 2.387 0.86697 3.8504 1.8805 6.0765 4.2087l1.9429 2.0318-0.17194-1.531c-0.0946-0.84204-0.25953-2.9317-0.36658-4.6435l-0.19462-3.1125 1.6387-0.18047c1.4778-0.16275 20.807-1.4024 21.867-1.4024 0.32334 0 0.43976 0.40372 0.43976 1.5252 0 0.83886 0.15422 3.2567 0.3427 5.3729 0.18848 2.1163 0.26081 3.9297 0.16071 4.0299-0.10009 0.10009-2.2867 0.30271-4.859 0.45026-6.4629 0.37068-6.6675 0.41312-6.6675 1.3844v0.79308l3.904-0.20238c2.1472-0.11131 4.6098-0.28142 5.4724-0.37803l1.5682-0.17565 0.18154 1.3317c0.0998 0.73243 0.27279 3.205 0.38431 5.4944 0.16524 3.3921 0.12474 4.1912-0.21876 4.3177-0.23185 0.08531-1.3861 0.19008-2.5649 0.23284-1.1789 0.04276-3.4524 0.16664-5.0523 0.27529l-2.9089 0.19755-0.0922 0.94468c-0.15151 1.5526 0.32561 1.706 4.2629 1.3708 3.0146-0.25666 6.9176-0.42344 8.1538-0.34842 0.2588 0.01571 0.3836 0.59338 0.38538 1.7839 2e-3 0.96835 0.14201 3.3354 0.31238 5.2605 0.17037 1.9249 0.20364 3.5957 0.0739 3.7126-0.19557 0.17654-16.601 1.3426-22.435 1.5946l-1.6841 0.07275-0.22651-1.9903c-0.12458-1.0947-0.30902-2.8009-0.40988-3.7916l-0.18336-1.8014-0.8587 1.4952c-2.5302 4.4056-7.8809 7.5291-15.179 8.8601-2.933 0.53502-11.772 0.98583-11.772 0.60039zm9.339-3.9855c7.0542-1.0514 11.906-3.4242 14.081-6.887 1.914-3.0473 2.6691-7.4574 2.0278-11.844-1.0559-7.2214-4.7556-11.287-11.282-12.399-2.4079-0.41034-6.8607-0.07722-11.36 0.84991-3.784 0.77961-3.6704 0.68334-3.3725 2.863 0.14102 1.0311 0.45164 3.3504 0.69026 5.1542 1.3876 10.489 2.9846 22.01 3.0966 22.34 0.17466 0.51469 2.3312 0.48747 6.12-0.07724zm-2.1302-4.5158c-0.0923-0.54733-0.51812-3.7509-0.94633-7.1191-0.42825-3.3682-1.048-7.9572-1.3772-10.198-0.32919-2.2407-0.59852-4.262-0.59852-4.4919 0-0.76525 3.0005-1.5248 5.9708-1.5115 2.3559 0.01059 2.9779 0.12785 4.2868 0.80812 3.9049 2.0296 5.9709 6.1258 5.9709 11.839 0 3.0154-0.61684 5.4978-1.7956 7.226-1.7904 2.6251-5.7412 4.4417-9.6593 4.4417-1.6612 0-1.6861-0.01338-1.8516-0.99514zm6.8646-4.0489c0.62072-0.43015 1.4629-1.3658 1.8715-2.0792 0.66491-1.1608 0.74204-1.651 0.73402-4.6652-8e-3 -2.8606-0.11725-3.6107-0.72762-4.9779-1.1603-2.5989-3.3213-4.0571-5.9999-4.0485-1.4907 0.0048-1.6502 0.25645-1.3546 2.137 0.14554 0.92625 0.61815 4.4399 1.0502 7.808 0.43211 3.3682 0.85203 6.3138 0.93317 6.5459 0.21735 0.62146 2.1247 0.22836 3.4931-0.71993zm27.876 4.7344c7.4734-0.42473 7.0435-0.29833 7.038-2.0694-7e-3 -2.2686 0.0646-2.2386-4.6025-1.9205-2.2657 0.15444-5.0152 0.3238-6.1099 0.37635l-1.9903 0.09555-0.3062-4.8618c-0.20413-3.2411-0.20413-4.893 0-4.9558 0.16841-0.05163 2.6996-0.2616 5.6249-0.46661l5.3186-0.37274-0.19962-1.6984c-0.10979-0.93415-0.26107-1.7599-0.33617-1.835s-2.1235 0.02117-4.5519 0.21396c-5.9056 0.46882-6.2422 0.45911-6.4289-0.18533-0.0854-0.29472-0.24893-2.3396-0.36342-4.5443l-0.20818-4.0084 3.4815-0.19906c1.9147-0.10948 4.5492-0.28943 5.8545-0.39989l2.373-0.20082v-1.6488c0-1.2423-0.12318-1.696-0.49965-1.8405-0.43701-0.16769-4.2699 0.03434-13.543 0.71387l-2.5604 0.18762 0.20622 3.5586c0.72878 12.577 1.716 26.111 1.9317 26.483 0.0848 0.14589 1.0662 0.18314 2.1809 0.08277 1.1147-0.10037 4.5758-0.32736 7.6914-0.50443z" fill="#080808" stroke-width=".3062"/>
</svg>
