<?xml version="1.0" encoding="UTF-8" standalone="no"?>
<!-- Created with Inkscape (http://www.inkscape.org/) -->

<svg
   xmlns:dc="http://purl.org/dc/elements/1.1/"
   xmlns:cc="http://creativecommons.org/ns#"
   xmlns:rdf="http://www.w3.org/1999/02/22-rdf-syntax-ns#"
   xmlns:svg="http://www.w3.org/2000/svg"
   xmlns="http://www.w3.org/2000/svg"
   xmlns:sodipodi="http://sodipodi.sourceforge.net/DTD/sodipodi-0.dtd"
   xmlns:inkscape="http://www.inkscape.org/namespaces/inkscape"
   width="1000"
   height="701.98389"
   id="svg3036"
   version="1.1"
   inkscape:version="0.48.5 r10040"
   sodipodi:docname="New document 1">
  <defs
     id="defs3038" />
  <sodipodi:namedview
     id="base"
     pagecolor="#ffffff"
     bordercolor="#666666"
     borderopacity="1.0"
     inkscape:pageopacity="0.0"
     inkscape:pageshadow="2"
     inkscape:zoom="0.39975011"
     inkscape:cx="1030.9469"
     inkscape:cy="85.049494"
     inkscape:document-units="px"
     inkscape:current-layer="layer1"
     showgrid="false"
     fit-margin-left="0.5"
     fit-margin-bottom="0.5"
     fit-margin-top="0.5"
     fit-margin-right="0.5"
     inkscape:window-width="1052"
     inkscape:window-height="1024"
     inkscape:window-x="859"
     inkscape:window-y="-9"
     inkscape:window-maximized="0" />
  <metadata
     id="metadata3041">
    <rdf:RDF>
      <cc:Work
         rdf:about="">
        <dc:format>image/svg+xml</dc:format>
        <dc:type
           rdf:resource="http://purl.org/dc/dcmitype/StillImage" />
        <dc:title></dc:title>
      </cc:Work>
    </rdf:RDF>
  </metadata>
  <g
     inkscape:label="Layer 1"
     inkscape:groupmode="layer"
     id="layer1"
     transform="translate(18.83164,142.65288)">
    <path
       style="fill-rule:evenodd"
       inkscape:connector-curvature="0"
       id="path5"
       d="m 479.67359,-142.15288 c -110.41971,0 -214.11799,23.21216 -306.37515,72.53951 54.04502,26.923932 126.82996,48.900845 188.8216,61.943351 2.41416,-2.373925 4.5346,-4.62513 6.52829,-7.16 -1.22116,-5.657184 -3.84656,-14.573486 -4.65933,-19.331395 12.73269,-8.717133 52.75345,-24.873907 52.75345,-24.873907 l -5.22264,-48.725819 21.00119,-7.51005 19.80618,48.30535 C 589.18195,-78.638309 603.43154,-18.654452 611.41839,-1.0733237 679.26436,-11.082033 748.17458,-32.644516 800.1555,-61.562143 725.94016,-105.17799 612.09234,-142.15288 479.67359,-142.15288 z"
       clip-rule="evenodd" />
    <path
       style="fill-rule:evenodd"
       inkscape:connector-curvature="0"
       id="path7"
       d="M 45.567182,33.227883 C 81.532148,44.668995 154.0797,65.466993 277.13352,84.136506 287.59287,68.231207 337.02081,20.05461 348.96688,6.0886877 252.497,-12.371598 178.05635,-44.687157 151.13241,-56.884706 115.70057,-35.817126 75.384084,-3.7731605 45.567182,33.227883 z M 618.64679,98.245266 C 762.94321,90.39723 880.37002,60.898193 924.99378,45.32283 897.90086,8.2071141 854.90465,-27.842347 819.85304,-49.62814 c -25.06101,13.714447 -92.91905,45.3560528 -203.42325,62.180744 10.5539,26.690563 2.217,85.692662 2.217,85.692662 z"
       clip-rule="evenodd" />
    <path
       style="fill-rule:evenodd"
       inkscape:connector-curvature="0"
       id="path9"
       d="m -18.33164,194.6568 c 38.183982,0 371.0626,0 371.0626,0 26.54572,-45.97367 86.59798,-75.48076 86.59798,-75.48076 0,0 -39.85378,-2.37392 -63.29327,-3.48242 -18.01166,14.45881 -56.0689,51.53429 -95.45795,-12.3243 C 196.89887,93.084996 96.02315,70.084076 33.047744,49.648202 -5.1644028,102.63904 -16.95758,154.07274 -18.33164,194.6568 z m 999,0 c -0.5452,-41.48937 -15.11868,-87.75677 -41.55174,-128.984603 -27.14724,7.685079 -138.73379,42.237763 -324.49746,52.389313 -4.33744,25.75105 -13.48912,54.3488 -15.4285,76.5973 16.60742,-0.0704 352.01286,-0.002 381.4777,-0.002 z"
       clip-rule="evenodd" />
    <path
       style="fill-rule:evenodd"
       inkscape:connector-curvature="0"
       id="path11"
       d="M -18.204897,214.21151 C -2.4545069,214.0224 341.09269,214.296 341.09269,214.296 333.132,229.68025 326.42264,263.70986 328.02202,281.66921 133.59957,298.71922 48.347491,329.79953 21.099658,338.13442 1.110404,305.40645 -15.76257,265.46214 -18.204897,214.21151 z m 615.444117,0.0845 c 13.75669,-0.0422 371.72247,-0.0422 383.30038,0 -2.56504,56.54368 -25.27827,101.67642 -43.72448,129.37088 -23.24636,-6.66711 -139.95697,-44.48495 -319.9367,-60.79059 -8.51998,-11.21579 -22.55833,-37.90837 -19.6392,-68.58029 z"
       clip-rule="evenodd" />
    <path
       style="fill-rule:evenodd"
       inkscape:connector-curvature="0"
       id="path13"
       d="M 32.456275,355.29307 C 52.109559,347.87959 161.31011,312.25059 329.7904,299.9263 c 1.20708,18.34964 7.23041,39.47556 7.23041,39.47556 0,0 274.97295,-0.1529 284.05221,-0.0423 14.18119,-15.5653 6.75362,-36.83406 6.75362,-36.83406 135.84082,10.65449 272.3053,49.85242 296.73058,58.475 -26.94003,36.06154 -69.54394,73.72848 -114.81549,100.30438 -37.70518,-14.5071 -136.50472,-59.0705 -268.38833,-69.725 14.32,-20.24274 66.9467,-24.9584 79.79004,-26.85352 l 0.0704,-19.1785 -284.26345,-0.0704 0.0704,19.33139 c 0,0 61.06621,0.73029 75.80466,25.37887 -164.03219,13.71646 -249.10119,67.01913 -259.1944,73.59973 C 106.84262,436.16948 62.176611,397.98751 32.456275,355.29307 z"
       clip-rule="evenodd" />
    <path
       style="fill-rule:evenodd"
       inkscape:connector-curvature="0"
       id="path15"
       d="m 786.67844,474.38767 c -42.58781,23.24032 -98.12157,43.60176 -149.76651,55.1334 v -80.69535 c -18.26514,0.21124 -24.04706,0.62567 -35.41775,0.58946 -25.10125,-0.0986 -40.30241,-2.44232 -52.76753,-11.35661 -13.42274,-9.5963 -14.57148,-24.09736 -13.00026,-30.93346 143.08934,13.06062 250.95205,67.26256 250.95205,67.26256 z"
       clip-rule="evenodd" />
    <path
       style="fill-rule:evenodd"
       inkscape:connector-curvature="0"
       id="path17"
       d="m 315.75406,528.34819 c -53.7513,-12.57778 -103.82301,-32.10231 -143.60839,-54.0249 42.95598,-29.27573 130.17359,-62.054 248.04903,-69.49163 1.31974,4.46419 2.5409,24.38102 -12.67636,34.26097 -20.57871,13.34025 -91.76428,9.09938 -91.76428,9.09938 v 80.15618 z"
       clip-rule="evenodd" />
    <g
       transform="matrix(2.011801,0,0,2.011801,-21.804008,-230.26372)"
       id="g19">
      <path
         inkscape:connector-curvature="0"
         id="path21"
         d="m 184.996,348.839 h 26.254 v 7.962 h -16.506 v 9.818 h 15.421 v 7.897 h -15.421 v 17.271 h -9.748 v -42.948 z" />
      <path
         inkscape:connector-curvature="0"
         id="path23"
         d="m 228.32,348.839 v 42.948 h -9.751 v -42.948 h 9.751 z" />
      <path
         inkscape:connector-curvature="0"
         id="path25"
         d="m 236.729,349.411 c 3.565,-0.572 8.22,-0.893 13.125,-0.893 8.158,0 13.446,1.464 17.591,4.591 4.458,3.312 7.263,8.601 7.263,16.182 0,8.223 -2.993,13.893 -7.138,17.402 -4.524,3.758 -11.408,5.54 -19.816,5.54 -5.038,0 -8.604,-0.317 -11.025,-0.635 v -42.187 z m 9.748,35.05 c 0.831,0.188 2.167,0.188 3.377,0.188 8.796,0.066 14.531,-4.775 14.531,-15.036 0.063,-8.922 -5.159,-13.64 -13.512,-13.64 -2.164,0 -3.566,0.193 -4.396,0.385 v 28.103 z" />
      <path
         inkscape:connector-curvature="0"
         id="path27"
         d="M 306.626,373.628 H 290.82 v 10.198 h 17.653 v 7.961 h -27.4 v -42.948 h 26.508 v 7.962 H 290.82 v 8.925 h 15.806 v 7.902 z" />
    </g>
  </g>
</svg>
