<svg width="1304" height="1304" version="1.1" viewBox="0 0 1304 1304" xmlns="http://www.w3.org/2000/svg">
 <g>
  <path d="m699.6 245c0.34584 0-11.531 6.8322-24.855 15.182-13.325 8.3494-27.604 16.645-31.734 18.436-21.494 9.3199-41.992 23.565-60.41 41.982-29.626 29.626-50.017 66.794-61.633 112.33-4.7668 18.688-4.5866 19.784 8.8047 53.068 10.704 26.605 21.615 51.707 26.09 60.025 2.2117 4.1115 5.6044 11.187 7.541 15.725l3.5215 8.25-3.7109 0.13477c-2.0416 0.0745-14.513 0.41204-27.713 0.75l-24 0.61523-0.53516 48.5h204.04l-0.0195-2.75c-0.077-10.687-5.2177-30.685-10.732-41.75-4.0452-8.1166-15.931-24.795-35.162-49.34-7.4724-9.5374-15.044-19.423-16.826-21.967-6.9972-9.9904-14.133-26.376-15.764-36.193l-0.74804-4.5 6.875 7.4434c17.029 18.435 26.31 25.94 41.877 33.869 11.848 6.0343 16.346 9.4077 21.162 15.869 9.1673 12.299 19.433 21.11 27.996 24.027 5.9691 2.0339 17.399 1.2428 23.953-1.6562 7.844-3.4698 11.375-6.8038 14.758-13.943 3.0294-6.3936 3.1301-7.0485 3.1211-20.109-8e-3 -11.405-0.34087-14.353-2.1504-19-3.6046-9.2563-20.36-54.096-22.795-61-2.0164-5.7184-17.792-48.863-34.188-93.5-3.0302-8.25-8.2106-20.625-11.514-27.5l-6.0059-12.5 0.69531-25.25c0.38251-13.888-0.27945-25.25 0.06641-25.25zm-453.6 42v100.14l45.938 45.938v186.38h141.78v-141.68h49.545v-45.475h-49.545v-48.303h49.545v-97h-96.18v51.061h-45.088v-51.061zm673.44 0-28.471 32.145c-15.658 17.679-28.927 30.642-29.486 31.25-0.55961 0.60834-11.697 13.128-24.75 27.822l-23.732 26.715v120.71l17.463 17.928 17.463 17.926 0.0371 28.75 0.0371 29.125h169v-59.855l17.486-15.51 17.488-17.51 0.086-121.64-2.2812-2.6934c-2.3456-2.7718-19.406-20.008-73.1-80.416l-30.889-34.75h-13.176zm10.146 419c-1.2347 0-24.501 13.581-25.365 14.445-0.30033 0.30034-0.0318 1.6735 0.59571 3.0508 0.62755 1.3773 1.5587 2.5039 2.0703 2.5039 1.1227 0 25.266-6.9766 26.252-7.5859 1.0283-0.63554-2.256-12.414-3.5527-12.414zm-166.95 27.207c-6.6629 3.0793-13.155 9.8305-16.299 16.385-3.932 8.1982-4.478 21.473-1.291 31.05 3.0393 9.1332 10.654 17.024 19.459 20.168 4.894 1.7476 7.8306 2.0909 15.994 1.8691 8.5112-0.23122 10.935-0.69697 16.277-3.125 8.7528-3.978 16.132-13.226 16.201-20.305 0.0212-2.1757-0.28409-2.2486-9.2285-2.209l-9.25 0.041-2.2773 4.8613c-2.8278 6.0346-8.0039 8.6159-15.133 7.5469-9.4563-1.4181-14.025-10.845-12.725-26.258 1.303-15.448 9.7694-22.545 21.199-17.77 2.5184 1.0522 4.0451 2.6648 5.4453 5.75 1.0703 2.3582 1.9566 5.0746 1.9688 6.0371 0.0249 1.9877 0.94686 2.0683 12.453 1.0957l7.7324-0.65234-0.64648-3.5977c-1.5089-8.3968-7.6302-16.709-15.432-20.554-11.677-6.7387-25.346-5.0101-34.449-0.33397zm150.04-2.7485c-22.366 0.293-34.465 17.386-35.492 33.639-0.29301 6.0209 0.0646 10.256 1.1894 14.125 3.3162 11.407 12.049 20.324 22.715 23.191 18.328 4.9281 34.115-0.64389 41.465-15.711 2.5452-5.218 4.0315-8.1808 4.1738-18.703-0.17928-22.732-14.741-36.926-34.051-36.541zm-573.68 1.041 0.00195 35.25v35.25h57.625l-0.125-13.5-38.5-0.54297v-14.957h30v-13h-30v-14.727l38.453 0.22656 0.15821-6.7207 0.15625-6.7207-28.885-0.27929zm513.01 0-21.004 0.62891v69.871h21l2e-3 -35.25zm177 0-14.35 1v19.75c0 10.862-0.2575 19.747-0.5761 19.742-0.3187-5e-3 -6.4301-8.9924-13.58-19.973s-13.614-20.089-14.363-20.242c-0.7494-0.15272-5.3619-0.13154-10.25 0.0449l-8.8867 0.32034v34.93h6e-3v34.928h13.963l0.26953-23.729 0.26758-23.729 15.5 23.713 15.5 23.715 8.25 0.0156 8.25 0.0137v-35.25zm-614.01 0.31836v70.182h17.395c14.555 0 18.449-0.32492 23.854-1.9941 8.5662-2.6458 14.658-8.0385 18.965-16.787 3.0528-6.2012 3.2871-7.3894 3.2871-16.697 0-8.1606-0.40045-10.89-2.1602-14.697-3.0606-6.6224-9.6171-13.322-16.199-16.555-5.4916-2.6969-6.1654-2.778-25.391-3.1094zm168 0.0762v70.105h17v-28h12.109l2.2891 5.25c1.2582 2.8875 3.8194 9.1783 5.6934 13.979l3.4082 8.7266 9.7637 0.0234 9.7637 0.0215-1.3906-3.25c-0.76442-1.7875-3.6957-8.5119-6.5137-14.943-2.818-6.4314-5.123-11.884-5.123-12.117 0-0.23297 1.7455-1.5784 3.8789-2.9902 11.373-7.5264 10.619-25.768-1.373-33.199l-4.8418-3-22.332-0.30273zm-317 1.1054v68.074l18.176-0.57422 0.32422-26 15.25-0.27539 15.25-0.27734v-11.895l-15.25-0.27734-15.25-0.27539v-15l38.5-0.54297v-12.957h-28.5zm234 0v34.834c0 19.158 0.30717 35.139 0.68164 35.514s14.437 0.56132 31.25 0.41601l30.568-0.26367 0.29492-6.75 0.29688-6.75h-42.092v-16h33v-13h-33v-14h42v-14h-31.5zm193.89 0c-5.9912 0-10.893 0.163-10.893 0.36328s-5.625 16.04-12.5 35.197-12.5 34.986-12.5 35.176 3.6767 0.21442 8.1699 0.0547l8.1699-0.29102 2.4121-7.25 2.4141-7.25h25.668l2.4141 7.25 2.4141 7.25 9.6699 0.28711c7.3705 0.21818 9.663-0.0195 9.6465-1-0.01194-0.70744-1.6148-5.7871-3.5625-11.287s-4.2349-12.025-5.082-14.5c-2.6874-7.8516-14.146-40.427-14.861-42.25-0.59562-1.5175-2.1341-1.75-11.58-1.75zm-93.893 11 8.25 0.0156c4.5843 8e-3 9.3483 0.56924 10.721 1.2637 6.0231 3.0477 6.6514 12.313 1.0332 15.219-1.9201 0.993-5.8049 1.502-11.455 1.502h-8.5488v-9zm311.2 0.16406c0.31139-0.01 0.62256-0.0102 0.93359 0 2.2621 0.0741 4.7621 1.1188 6.7144 2.3091 6.2526 3.8121 9.2922 16.487 6.9243 28.095-1.6281 7.9814-4.1808 11.883-9.0469 13.83-14.128 5.2517-18.775-8.842-19.804-15.533-0.99946-7.0709 0.21211-18.109 2.6162-22.201 2.3542-4.0076 6.9912-6.3563 11.662-6.5zm-474.21 0.54492c1.0443 8e-3 2.3577 0.13984 4.0098 0.20508 9.5856 0.37854 14.134 3.6314 17.537 12.543 2.0629 5.4016 1.6512 16.346-0.79297 21.072-2.3666 4.5765-6.5858 8.3333-10.617 9.4531v-2e-3c-1.9946 0.55404-5.9894 1.0107-8.877 1.0137l-5.25 0.00591v-22c0-20.047-0.53504-22.327 3.9902-22.291zm255 8.291c0.46523 0 6.6885 17.272 7.832 21.738 0.24079 0.94032-1.7654 1.2617-7.8574 1.2617-6.128 0-8.0628-0.3136-7.7109-1.25 0.25829-0.6875 1.9778-5.8625 3.8203-11.5 1.8425-5.6375 3.604-10.25 3.916-10.25zm249.92 54c-1.997 0-3.735 0.79579-4.9141 2.25l-1.8242 2.25-6.8359-1.8965c-10.628-2.9472-13.473-3.0713-16.461-0.72071-2.4485 1.926-4.5112 8.2777-3.3164 10.211 0.99074 1.603 5.6293 0.30749 7.4258-2.0742l1.8613-2.4648 7.5566 2.2226c7.6594 2.2534 12.118 2.7276 15.053 1.6016 2.0923-0.80288 4.5449-5.5683 4.5449-8.8301 0-2.1827-0.44477-2.5488-3.0898-2.5488zm-646.17 17.115c-1.3155-0.011-2.6932 0.0181-4.1367 0.0859-9.9793 0.46891-14.946 2.3393-19.803 7.457-5.9096 6.2265-7.5831 16.932-3.8047 24.338 2.7989 5.4863 8.6596 8.5721 23.637 12.443 12.672 3.2756 15.365 4.7895 15.365 8.6406 0 0.93394-0.85032 2.7504-1.8906 4.0352-1.6118 1.9905-2.9955 2.3899-9.3535 2.7109-8.7745 0.44309-12.472-1.013-15.656-6.166l-2.0938-3.3867-7.623 1.8164c-4.1924 0.99883-7.8534 2.0468-8.1367 2.3301-0.80399 0.80399 1.8558 6.5483 4.4727 9.6582 3.2405 3.8512 7.9299 6.5916 14.363 8.3965 6.7353 1.8896 21.531 1.4183 27.832-0.88672 10.99-4.0205 16.699-12.441 15.902-23.455-0.80792-11.169-7.3722-16.406-25.643-20.453-12.153-2.692-15.174-4.4264-15.174-8.7128 0-3.6512 2.1034-5.1739 7.916-5.7324 6.4588-0.62063 11.635 1.1946 13.787 4.8379 0.95092 1.6098 2.1239 2.9277 2.6074 2.9277 1.5077 0 14.689-4.1695 14.689-4.6465 0-1.6782-3.5016-6.5734-6.8945-9.6387-4.9574-4.4787-11.155-6.5224-20.363-6.5996zm416.05 0.19922c-5.838 0.0601-11.714 0.88575-14.891 2.4512-13.229 6.5183-20.515 22.864-18.02 40.422 2.2443 15.79 10.533 26.281 23.619 29.895 5.2014 1.4362 18.553 0.38942 23.609-1.8496 24.633-10.909 24.864-56.612 0.34765-68.77-3.0281-1.5016-8.8281-2.2086-14.666-2.1484zm-105.79 0.50391v35.424c0 19.483 0.29935 35.725 0.66602 36.092 1.2437 1.2437 31.639 0.67959 37.48-0.69531 13.993-3.2935 23.067-13.271 25.807-28.379 1.3357-7.3658 0.0134-17.442-3.084-23.514-3.164-6.202-10.365-13.273-16.156-15.863-4.774-2.1354-6.8788-2.3622-24.963-2.6973zm151 0.0527v72.129h17.945l0.27735-14.25 0.27734-14.25h12.861l11.969 28.5h9.834c5.4094 0 9.8426-0.3375 9.8516-0.75s-3.0135-7.4554-6.7168-15.65l-6.7324-14.9 2.4668-1.5723c4.6496-2.9635 8.914-8.2128 10.027-12.348 2.3043-8.5573-1.4135-18.077-9.0781-23.252l-4.4824-3.0273-24.25-0.31445zm255.5 0.0703-21.82 0.55864-12.305 35.5c-6.7676 19.525-12.321 35.631-12.34 35.791-0.0192 0.15975 3.6415 0.15975 8.1348 0l8.1699-0.29102 2.4219-7.2793 2.4238-7.2793 25.182 0.55859 2.0976 7 2.0977 7 9.7187 0.28711c5.3455 0.15742 9.7247-0.0676 9.7247-0.5 0-0.43241-5.2838-16.663-11.75-36.066zm-636 2e-3 -10.865 0.2793-10.863 0.27734-4.3379 12.5c-16.518 47.608-19.334 55.69-19.953 57.25-0.62805 1.5829 0.10325 1.7482 7.6621 1.7402l8.3574-0.01 2.2832-7.5195 2.2832-7.5195 25.27 0.55859 2.416 7.25 2.4141 7.25h9.418c5.1792 0 9.4257-0.3375 9.4375-0.75s-5.2757-16.624-11.75-36.027zm32.5 0.05664v72h49v-14h-31v-58h-9zm143.23 0-1.707 5.25c-0.93923 2.8875-6.3912 18.847-12.115 35.467s-10.408 30.457-10.408 30.75 3.5618 0.5332 7.916 0.5332h7.918l2.4141-7.25 2.416-7.25 12.482-0.2793 12.484-0.27734 2.3594 7.5273 2.3613 7.5293h9.8242c5.4032 0 9.8242-0.15827 9.8242-0.35156 0-0.39016-19.849-59.386-22.508-66.898l-1.6797-4.75h-10.791zm279.27 0 0.27539 36 0.27344 36h54.951v-14h-37v-16h14.48c16.448 0 16.004 0.26411 15.336-9.0801l-0.31641-4.4199-14.75-0.27734-14.75-0.27539v-13.947h37v-14h-27.75zm66 0 0.24219 34.75c0.13321 19.113 0.246 35.332 0.25 36.045 6e-3 0.9588 1.7149 1.2188 6.5723 1l6.5645-0.29492 0.0508-23.75c0.0279-13.062 0.33634-23.735 0.68554-23.717 0.34919 0.0178 6.6473 11.136 15.135 23.988l14.5 23.957 7.75 0.0117c6.6877 9e-3 7.7603-0.23011 7.8301-1.7402 0.0445-0.9625 0.157-17.162 0.25-36l0.1699-34.25h-14.459l-0.27149 20.568-0.26953 20.566-25-41.078-10-0.0273zm-376.18 0.13477c-0.9145 0.01-1.9187 0.0321-2.9707 0.0723l-7.6504 0.29297-1.8008 5.5c-0.98984 3.025-4.3581 13.825-7.4844 24s-5.985 18.839-6.3535 19.254c-0.36853 0.4151-4.0589-10.385-8.2012-24l-7.5313-24.754-9.6641-0.28711c-5.3151-0.15742-9.6641-0.03023-9.6641 0.28125 0 0.44515 20.724 65.15 22.502 70.256 0.30889 0.8871 3.3247 1.25 10.387 1.25h9.9512l1.5117-4.75c0.83188-2.6125 6.0428-18.607 11.58-35.543 5.5373-16.936 10.068-31.019 10.068-31.293 0-0.20585-1.9362-0.30801-4.6797-0.27929zm103.68 12.865h5.4805c11.186 0 18.168 5.5958 20.613 16.523 2.2468 10.04-1.9865 22.002-9.3828 26.512-2.3472 1.4312-5.2277 3.3606-9.9609 1.9609l-6.75 0.00391v-22.5zm86.484 0c9.9487 0 14.016 6.6746 14.016 23 0 10.246-1.8866 17.231-5.5508 20.547-1.2013 1.0872-4.1283 1.9692-7.4434 2.2441-5.1536 0.42738-5.6562 0.25981-8.8945-2.9785-4.2435-4.2435-5.8106-9.7334-5.8106-20.342 0-9.8814 1.5636-15.439 5.4648-19.43 2.5645-2.623 3.6923-3.041 8.2188-3.041zm63.516 0h9.8652c8.3709 0 10.253 0.30432 12.424 2.0117 5.3238 4.1877 3.9517 12.662-2.4082 14.879-1.7488 0.60965-6.9364 1.1094-11.529 1.1094h-8.3516v-9zm224.84 7.502c0.99536 0.9953 7.8169 22.513 7.3008 23.029-0.8584 0.85841-15.137 0.48444-15.137-0.39648 0-2.146 7.2841-23.185 7.8359-22.633zm-438.91 0.13672c0.0147 8e-3 0.0215 0.0392 0.0215 0.0957 0 0.85726 8.0547 20.305 8.0547 22.545 0 0.8469-14.398 0.98902-15.236 0.15039-0.57498-0.57498 6.7047-23.031 7.1602-22.791zm-196.97 0.0156c0.0181 3e-3 0.0387 0.0142 0.0488 0.0254 0.88563 0.97247 7.0001 20.26 6.9961 22.07-2e-3 0.88867-2.1699 1.25-7.502 1.25-4.125 0-7.5-0.41426-7.5-0.91992 0-2.4365 8.0906-21.253 7.9258-22.406-2e-3 -0.0186 0.0131-0.0229 0.0312-0.0195zm378.04 73.127v73.381l17.75-0.34375c20.893-0.40462 25.022-1.6591 32.785-9.959 5.5471-5.9303 7.9948-11.155 9.4277-20.125 2.7405-17.155-5.0728-33.82-18.766-40.021-4.1017-1.8576-7.0082-2.1776-22.947-2.5293zm-476 0.0254v70.416l17.75-0.42188c19.354-0.46098 22.892-1.3562 29.836-7.5488 14.854-13.246 15.247-40.823 0.77734-54.449-1.5748-1.483-5.1133-3.7212-7.8633-4.9746-4.4728-2.0387-6.8716-2.3178-22.75-2.6504zm772 0.16406-30.25 0.26368-30.25 0.26562-0.31641 4.4199c-0.6751 9.4486-1.5842 8.9973 18.791 9.3066l17.949 0.27343-19.961 22.871-19.963 22.869v5.2129c0 2.8671 0.29935 5.5142 0.66602 5.8809 0.39396 0.36619 15.005 0.66602 32.496 0.66602h31.834v-13.959l-20.414-0.27149-20.414-0.26953 6.541-7.5c3.5973-4.125 9.5622-10.875 13.256-15 3.6935-4.125 9.708-10.875 13.365-15l6.6504-7.5 0.01-6.2656zm-504.79 0.02929-12.008 35.93c-6.6051 19.761-11.869 36.074-11.695 36.25 0.17364 0.17592 3.7061 0.17427 7.8477-6e-3l7.5293-0.32813 2.3887-7.1719 2.3906-7.1738h23.836l4.7734 14.5h9.3633c5.1498 4.2e-4 9.3633-0.26313 9.3633-0.58384 0-0.65414-4.641-15.066-15.672-48.666l-7.4687-22.75h-10.324zm90.789 0v24.453c0 26.263-0.45837 29.122-4.8516 30.225-4.352 1.0923-9.0918-3.0559-11.418-9.9922-0.39997-1.1927-14.735 4.3426-14.709 5.6797 0.0383 1.979 3.9813 9.9514 6.6582 13.461 1.4604 1.9146 5.2351 4.6653 8.6992 6.3398h2e-3c5.4754 2.6463 6.9077 2.9151 13.619 2.5605 11.72-0.61913 19.531-5.7804 21.955-14.508 0.59351-2.137 1.0361-15.31 1.0391-30.969l0.00581-27.25h-10.5zm43.123 0-0.0293 35.146c-0.0161 19.331 0.20825 35.531 0.49805 36 0.2898 0.4689 12.69 1.9505 27.467 0.85352h26.941v-14h-36.662l0.082-7.75 0.0801-7.75 28.5-0.55469v-13.945h-29.092l0.29492-6.75 0.29688-6.75 18.25-0.27344 18.25-0.27148v-13.955h-27.439zm156.38 0v72h18.445l0.27735-14.25 0.27734-14.25 12.102-0.58594 3.1387 7.293c1.7267 4.0109 4.4433 10.443 6.0371 14.293l2.8984 7 10.162 0.28516c5.5892 0.15684 10.162 0.09541 10.162-0.13672 0-0.23212-3.0951-7.3108-6.877-15.73l-6.875-15.309 4.166-2.7617c14.122-9.3541 10.646-31.485-5.709-36.342-3.828-1.1368-10.344-1.5059-26.637-1.5059zm77.5 0v72h60v-13.959l-20.25-0.26954-20.25-0.27148v-15l32-1v-13l-32.59-0.55078 0.58984-13.449 20.25-0.27148 20.25-0.26954v-13.959h-30zm-554 2v70h57v-13h-38v-16h30v-13h-30v-14h38v-14h-28.5zm412 10.727 6.2949 0.50586c3.4624 0.27792 7.7389 1.2514 9.5039 2.1641 4.3978 2.2742 7.8326 7.9279 9.2285 15.193 0.97863 5.0937 0.9045 7.1394-0.45117 12.5-1.7506 6.9223-3.6635 10.14-7.9199 13.318-1.9476 1.4541-4.6985 2.1419-9.6875 2.4238l-6.9688 0.39453v-23.25zm-476 0.27344h6.3516c7.9542 0 11.971 2.4404 15.59 9.4746 2.0782 4.0401 2.5402 6.2957 2.457 12-0.16471 11.291-4.8377 19.356-12.482 21.549-1.8719 0.53687-5.319 0.97656-7.6602 0.97656h-4.2559v-22zm559 0h8.9356c10.724 0 13.737 0.98916 15.455 5.0762 1.6778 3.9904 1.0222 7.1878-2.0703 10.096-2.1843 2.0539-3.7629 4.1134-12.398 2.6719l-9.9219 0.34375v-9.0938zm-300.17 7.4922c0.6776 0.6776 7.1493 20.79 7.1621 22.258 8e-3 0.8914-2.171 1.25-7.5957 1.25-5.6497 0-7.4952-0.32163-7.1738-1.25 0.23797-0.6875 1.943-6.0804 3.7891-11.984 1.8461-5.9039 3.5644-10.527 3.8184-10.273z"/>
  <g stroke-width="0">
   <rect x="227" y="207" width="853" height="23" stop-color="#000000" style="paint-order:stroke markers fill"/>
   <rect x="227" y="653" width="853" height="23" stop-color="#000000" style="paint-order:stroke markers fill"/>
   <rect x="227" y="1026" width="853" height="23" stop-color="#000000" style="paint-order:stroke markers fill"/>
  </g>
 </g>
</svg>
