<svg xmlns="http://www.w3.org/2000/svg" viewBox="0 0 43 44"><path d="M21.4 5.6c1.2 0 2.2 1.3 2.2 2.3 0 1.1-.8 1.9-1.8 2.3.5.7 1.8 1.3 3.1 2.1 3 1.8 5.5 3.7 5.5 7 0 3-1 4.2-2 5.2-.4.5-.1 3.3-.1 5.5 0 1.2-2.2 1.8-4.7 2.1.3.6.8 1 1.9 1 1.2 0 3.5-.1 5.7-.1 3.7 0 5.7 2.1 5.7 2.1l-2 3.2s-2.3-1.9-7.9-1.9c-3.1 0-5.3-1.5-5.7-2.7-.3 1.2-2 2.7-5.6 2.7-5.1 0-8.1 1.9-8.1 1.9l-2-3.2S7.6 33 11 33c2.6 0 4.7.1 6.1.1 1.1 0 1.6-.6 1.9-1-2.9-.2-5-.9-5-2.1 0-1.8.3-4.9-.3-5.4-.8-.8-2-2-2-5.2 0-4.2 3.7-5.9 6-7.4 1-.6 2-1.1 2.6-1.8-.9-.4-1.6-1.2-1.6-2.1.1-1.1 1.4-2.5 2.7-2.5zm-.3 19.8c2 0 3.9.3 5.7 1.1v-1.2c-1.6-.8-3.7-1.3-5.7-1.3-2.1 0-4.3.6-5.8 1.4v1.1c1.3-.6 3.6-1.1 5.8-1.1zm0 3.1c1.7 0 4.5.3 5.7.8v-1.1c-1.3-.7-3.7-1.1-5.7-1.1-2.1 0-4.5.5-5.9 1.2v1.1c1.1-.5 3.7-.9 5.9-.9zm1-6.9v-2.4h2.4v-1.8h-2.4V15h-1.9v2.4h-2.3v1.8h2.3v2.4h1.9z"/></svg>