<svg id="Слой_1" xmlns="http://www.w3.org/2000/svg" viewBox="0 0 120 120" enable-background="new 0 0 120 120"><style>.st2{fill:#fff}</style><defs><filter id="Adobe_OpacityMaskFilter" filterUnits="userSpaceOnUse" x="-63.6" y="-6.8" width="184.8" height="76"><feColorMatrix values="1 0 0 0 0 0 1 0 0 0 0 0 1 0 0 0 0 0 1 0"/></filter></defs><mask maskUnits="userSpaceOnUse" x="-63.6" y="-6.8" width="184.8" height="76" id="a"><path d="M0 0h60v60H0V0z" fill="#c4c4c4" filter="url(#Adobe_OpacityMaskFilter)"/></mask><g mask="url(#a)"><path class="st2" d="M-63.6 68.6L11.8-6.8l.6.6L-63 69.2l-.6-.6zm6.4 0L18.2-6.8l.6.6-75.4 75.4-.6-.6zm6.4 0L24.6-6.8l.6.6-75.4 75.4-.6-.6zm6.4 0L31-6.8l.6.6-75.4 75.4-.6-.6zm6.4 0L37.4-6.8l.6.6-75.4 75.4-.6-.6zm6.4 0L43.8-6.8l.6.6L-31 69.2l-.6-.6zm6.4 0L50.2-6.8l.6.6-75.4 75.4-.6-.6zm6.4 0L56.6-6.8l.6.6-75.4 75.4-.6-.6zm6.4 0L63-6.8l.6.6-75.4 75.4-.6-.6zm6.4 0L69.4-6.8l.6.6-75.4 75.4-.6-.6zm6.4 0L75.8-6.8l.6.6L1 69.2l-.6-.6zm6.4 0L82.2-6.8l.6.6L7.4 69.2l-.6-.6zm6.4 0L88.6-6.8l.6.6-75.4 75.4-.6-.6zm6.4 0L95-6.8l.6.6-75.4 75.4-.6-.6zm6.4 0l75.4-75.4.6.6-75.4 75.4-.6-.6zm6.4 0l75.4-75.4.6.6L33 69.2l-.6-.6zm6.4 0l75.4-75.4.6.6-75.4 75.4-.6-.6zm6.4 0l75.4-75.4.6.6-75.4 75.4-.6-.6z"/></g><defs><filter id="Adobe_OpacityMaskFilter_1_" filterUnits="userSpaceOnUse" x="-3.6" y="53.2" width="184.8" height="76"><feColorMatrix values="1 0 0 0 0 0 1 0 0 0 0 0 1 0 0 0 0 0 1 0"/></filter></defs><mask maskUnits="userSpaceOnUse" x="-3.6" y="53.2" width="184.8" height="76" id="d"><path d="M60 60h60v60H60V60z" fill="#c4c4c4" filter="url(#Adobe_OpacityMaskFilter_1_)"/></mask><g mask="url(#d)"><path class="st2" d="M-3.6 128.6l75.4-75.4.6.6L-3 129.2l-.6-.6zm6.4 0l75.4-75.4.6.6-75.4 75.4-.6-.6zm6.4 0l75.4-75.4.6.6-75.4 75.4-.6-.6zm6.4 0L91 53.2l.6.6-75.4 75.4-.6-.6zm6.4 0l75.4-75.4.6.6-75.4 75.4-.6-.6zm6.4 0l75.4-75.4.6.6L29 129.2l-.6-.6zm6.4 0l75.4-75.4.6.6-75.4 75.4-.6-.6zm6.4 0l75.4-75.4.6.6-75.4 75.4-.6-.6zm6.4 0L123 53.2l.6.6-75.4 75.4-.6-.6zm6.4 0l75.4-75.4.6.6-75.4 75.4-.6-.6zm6.4 0l75.4-75.4.6.6L61 129.2l-.6-.6zm6.4 0l75.4-75.4.6.6-75.4 75.4-.6-.6zm6.4 0l75.4-75.4.6.6-75.4 75.4-.6-.6zm6.4 0L155 53.2l.6.6-75.4 75.4-.6-.6zm6.4 0l75.4-75.4.6.6-75.4 75.4-.6-.6zm6.4 0l75.4-75.4.6.6L93 129.2l-.6-.6zm6.4 0l75.4-75.4.6.6-75.4 75.4-.6-.6zm6.4 0l75.4-75.4.6.6-75.4 75.4-.6-.6z"/></g></svg>