<svg width="480" height="480" fill="none" xmlns="http://www.w3.org/2000/svg"><rect opacity=".8" x="480" width="480" height="480" rx="4" transform="rotate(90 480 0)" fill="#CDC0B0"/><path d="M480 0v60h-60V0h60zm0 120v60h-60v-60zm0 120v60h-60v-60zm0 120v60h-60v-60zm-60 60v60h-60v-60zm0-360v60h-60V60zm0 120v60h-60v-60zm0 120v60h-60v-60zM360 0v60h-60V0zm0 120v60h-60v-60zm0 120v60h-60v-60zm0 120v60h-60v-60zm-60 60v60h-60v-60zm0-360v60h-60V60zm0 120v60h-60v-60zm0 120v60h-60v-60zM240 0v60h-60V0zm0 240v60h-60v-60zm0-120v60h-60v-60zm0 240v60h-60v-60zm-60 60v60h-60v-60zm0-360v60h-60V60zm0 120v60h-60v-60zm0 120v60h-60v-60zM120 0v60H60V0zm0 120v60H60v-60zm0 120v60H60v-60zm0 120v60H60v-60zm-60 60v60H0v-60h60zm0-360v60H0V60zm0 120v60H0v-60zm0 120v60H0v-60z" opacity=".15" fill="#000"/></svg>