<svg xmlns="http://www.w3.org/2000/svg" viewBox="0 0 42 43"><path d="M17.8 7.3H20v-2h2v2.2h2v2h-2v1.8c1.5.4 2.8 1.7 2.8 3.8 0 .5-.1.9-.2 1.3 1.5-1.4 3.3-2.2 5.4-2.2 4.2 0 6.6 3.1 6.6 6.2 0 5-3.4 7.3-5.1 8.8-.2.2-.2.4-.2.7 0 1.2.1 3.6.1 4.7 0 2-4.6 3.3-10.3 3.3-5.8 0-10.3-1.3-10.3-3.3 0-1.2.1-3.5.1-4.7 0-.4 0-.5-.2-.7-2-1.6-5.2-3.8-5.2-8.9 0-3.1 2.5-6.1 6.6-6.1 2.1 0 3.8.7 5.4 2.2-.2-.4-.3-.8-.3-1.3 0-2.2 1.3-3.4 2.8-3.8V9.4h-2.2V7.3zM11.9 16c-3.2 0-4.8 2.2-4.8 4.8 0 3.7 2 5.2 4.5 7.8 2-1.1 6.1-2.1 8.7-2.1 0-5.4-3.4-10.5-8.4-10.5zm.2 11.2c-2.4-2.2-3.5-3.7-3.5-6.4 0-2 1.5-3.5 3.5-3.5 3.7 0 6.5 3.3 7.1 8.1-2.2.3-5.1.9-7.1 1.8zm0 3.8c1.5-.9 5.4-1.6 8.9-1.6s7.4.7 8.9 1.6v-1.2c-1.8-.9-4.7-1.7-8.9-1.7s-7.1.7-8.9 1.7V31zm0 2.6c1.5-.9 5.4-1.5 8.9-1.5s7.4.6 8.9 1.4v-1.1c-1.8-.9-4.7-1.6-8.9-1.6s-7.1.7-8.9 1.6v1.2zm11.1-18.3c0-1.2-.7-2.4-2.3-2.4s-2.3 1.2-2.3 2.4c0 1.6 1.1 2.5 2.3 5.9 1.3-3.4 2.3-4.3 2.3-5.9zm-2.2-1c.5 0 .9.6.9 1.2s-.4 1.5-.9 2.8c-.5-1.3-.9-2.2-.9-2.8-.1-.7.3-1.2.9-1.2zm9.3 14.2c2.6-2.5 4.5-4.3 4.5-7.8 0-2.6-1.6-4.8-4.8-4.8-4.9 0-8.4 5.1-8.4 10.5 2.6.1 6.7 1 8.7 2.1zm-.4-11.2c2.1 0 3.5 1.5 3.5 3.5 0 2.6-1.2 4.2-3.5 6.4-2-.8-4.9-1.5-7.1-1.7.5-4.8 3.4-8.2 7.1-8.2z"/></svg>