<svg width="60" height="60" fill="none" xmlns="http://www.w3.org/2000/svg"><path d="M41.68 21.204l-.955.739v14.16l2.268 2.83c.597.74.716.863.716 1.478v4.68l.716.122c.597.123 1.075.616 1.075 1.355V51H14.465v-4.31c0-.738.358-1.23.955-1.354l.716-.123v-4.678c0-.616.12-.74.716-1.478l2.268-2.832V21.943l-.955-.739c-.955-.739-2.745-1.97-2.745-2.585v-5.295c0-1.477 3.58-2.216 5.49-2.585v3.693c1.672-.246 3.462-.492 5.253-.492v-3.817c.954 0 2.148-.123 3.82-.123 1.67 0 2.745 0 3.819.123v3.817c1.79 0 3.58.246 5.252.492V10.74c2.03.37 5.49 1.108 5.49 2.585v5.295c0 .615-1.79 1.846-2.864 2.585z" fill="#000"/><path d="M43.91 40.316v4.808h.267c1.068.133 1.469.534 1.469 1.736V51H14v-4.14c0-1.202.4-1.47 1.202-1.603l.667-.133v-4.808c0-.668.267-.801.802-1.336l2.003-2.403V22.554c-1.47-1.069-3.74-2.671-3.74-3.205v-6.01c0-1.603 4.941-2.671 7.345-2.938v2.938c1.068-.134 2.003-.267 2.937-.4v-2.805C26.952 10 28.554 10 30.023 10c1.335 0 2.67 0 4.674.134v2.804a70.47 70.47 0 0 0 2.804.4v-2.937c3.205.4 7.344 1.469 7.344 2.938v6.01c0 .534-2.404 2.136-3.739 3.205v13.755l2.003 2.538c.534.668.801.935.801 1.469zm-.267 8.948V47.26H15.87v2.003h27.774zM19.875 12.537c-1.201.134-2.136.535-3.07.802v4.54c2.403-1.068 7.744-1.469 12.951-1.469 5.074 0 10.415.401 12.952 1.47v-4.408c-.934-.4-2.002-.667-3.204-.934v2.67c-2.537-.4-4.54-.667-7.21-.667V11.87c-.802-.134-1.603-.134-2.538-.134-.934 0-1.736 0-2.67.134v2.67c-2.67.134-4.674.268-7.21.669v-2.671zm-2.67 6.812c.534.534 1.469 1.201 2.403 1.736l.668.4c2.27-.4 5.608-.667 9.614-.667 4.006 0 7.077.4 9.347.8l.8-.533c1.069-.668 1.87-1.202 2.404-1.736-3.605-.935-8.011-1.336-12.551-1.336-4.674 0-9.347.4-12.685 1.335zm24.702 26.175v-4.006H17.872v4.006h24.035zm-.534-5.742l-1.202-1.47H19.475l-1.202 1.47h23.1zM20.676 23.088V36.71H38.97V23.221c-2.404-.267-5.341-.534-9.214-.534-3.739-.133-6.81.134-9.08.4z" fill="#F9F1E4"/></svg>