<svg width="60" height="60" fill="none" xmlns="http://www.w3.org/2000/svg"><path fill-rule="evenodd" clip-rule="evenodd" d="M22.671 49h25.65c.272-1.263.679-3.648.679-7.014 0-14.87-8.957-26.374-19-27.918l-.679-.14-.135-.701c-.407-1.543-1.493-2.806-2.036-3.227-.679.561-1.764 1.684-2.036 4.068v.702c-1.221.42-2.307 1.122-3.121 1.823l.014-.27c.407-.7 1.222-1.542 1.493-1.823-.136-.561-1.914-2.255-2.593-2.676-1.086-.702-2.036-.982-2.714-.982L17.65 12.5c0 1.824.271 3.878.543 5-1.357.982-1.493 2.46-1.764 3.302-.815 2.385-.679 3.648-1.493 5.05C12.764 29.5 11 31.886 11 33.569c0 2.666.136 4.95 2.171 4.95.543 0 1.358 0 2.036-.28 0 .7.679 1.262 1.222 1.262 1.764 0 2.578-3.737 4.614-5C25.386 31.414 31 31.795 31 24.5h1c0 3.648-1.279 4.957-2.5 6.5.407 6.874-3.557 9.09-6 14-.95 1.684-.829 3.299-.829 4z" fill="#000"/><path d="M50.467 51H19.8c-.133-1.897-.133-4.2 1.467-7.18 2-3.794 6.533-5.827 6.8-11.246-1.6 1.084-3.334 1.762-4.934 2.71-2.8 1.626-2.8 5.826-6.4 6.232-1.333.136-2.133-.406-2.533-1.084h-.667c-2.8 0-4.533-2.168-4.533-6.639 0-1.896 1.867-4.47 4.4-8.535.8-1.22.4-2.439 1.333-4.606.4-1.084 1.2-2.033 2.267-3.252-.133-.677-.4-1.626-.4-2.98 0-1.491 0-3.117.667-4.607 0 0 2.666-.136 4.8 1.626.666.542 1.2 1.084 1.6 1.49C24.733 10.761 26.6 9.271 27.4 9c.8.542 2.8 2.303 3.6 4.742 10.8 2.032 20 13.82 20 28.993 0 4.607-.267 7.317-.533 8.265zm-27.6-2.168h24.8c.266-1.22.666-3.522.666-6.774 0-14.361-8.8-25.47-18.666-26.961L29 14.96l-.133-.677c-.4-1.49-1.467-2.71-2-3.116-.667.542-1.734 1.626-2 3.929v.677c-1.2.407-2.267 1.084-3.067 1.761l-.667-.812c.4-.678 1.2-1.49 1.467-1.762-.133-.542-1.2-1.626-1.867-2.032-1.066-.677-2-.948-2.666-.948v2.032c0 1.761.4 2.98.666 4.064-1.333.949-2.133 2.71-2.4 3.523-.8 2.303-.666 3.523-1.466 4.877C12.733 30 11 32.303 11 33.93c0 2.574.4 4.471 2.4 4.471.533 0 1.333 0 2-.271 0 .677.667 1.22 1.2 1.22 1.733 0 2-3.659 4-4.878 4.267-2.98 10.133-3.252 10.133-10.297h1.334c0 3.523-.934 5.555-2.134 7.045.4 6.64-3.733 8.807-6.133 13.549-.933 1.626-.933 3.387-.933 4.064zm-7.2-14.361c0 .542-.8.542-.8 1.084s-.534 1.084-1.067 1.084c-.4 0-.8-.407-.8-1.084 0-.678.667-2.439 1.6-2.439s1.067.813 1.067 1.355zM21.8 20.516c.667 0 .667.542.667.813 0 .542-.934.136-.934.948 0 .542.534 1.355-.666 1.897-1.2.542-1.6 0-1.734.542 0 .136-.533.542-.933.542s-.667-.406-.667-.813c.267-2.168 2.267-3.929 4.267-3.929z" fill="#F9F1E4"/></svg>