<svg width="60" height="60" fill="none" xmlns="http://www.w3.org/2000/svg"><path d="M10.827 16.009c1.296 0 2.474 1.413 2.474 2.474 0 .825-.589 1.65-1.296 2.12 1.532 2.828 3.535 6.952 6.244 11.075.236-.118.472-.118.707-.236-.118-5.419-.235-10.603-.235-14.49-1.178-.119-2.121-1.297-2.121-2.24 0-1.413 1.414-2.71 2.827-2.71 1.296 0 2.474 1.415 2.474 2.475 0 .825-.589 1.65-1.413 2.12.942 3.77 3.063 9.544 4.83 13.55.235 0 .589 0 .824-.118.236-5.066 1.65-11.31 2.121-15.198-.825-.354-1.532-1.296-1.532-2.121 0-1.414 1.414-2.71 2.828-2.71 1.296 0 2.474 1.414 2.474 2.474 0 1.06-.825 2.003-1.767 2.357.471 4.005 1.885 10.367 2.238 15.316h.825c1.885-4.124 3.887-9.78 4.83-13.55-.707-.47-1.178-1.178-1.178-1.884 0-1.414 1.413-2.71 2.827-2.71 1.296 0 2.474 1.414 2.474 2.474 0 1.296-1.178 2.356-2.356 2.592 0 3.77-.118 9.072-.236 14.491.236 0 .472.118.707.236 2.71-4.124 4.713-8.365 6.244-11.193-.589-.47-.942-1.178-.942-1.767 0-1.414 1.413-2.71 2.827-2.71 1.296 0 2.474 1.414 2.474 2.475 0 1.413-1.532 2.591-2.827 2.591h-.118c-1.414 4.831-2.356 13.432-3.299 17.084-.353 1.414-2.71 3.299-2.71 4.477 0 1.532.236 3.416.236 4.83 0 2.121-5.537 3.417-12.959 3.417-6.95 0-12.959-1.296-12.959-3.535 0-1.649.236-3.416.236-4.712 0-1.178-2.238-2.71-2.592-4.477-.824-3.652-2.002-12.253-3.416-17.084h-.118C9.178 21.192 8 20.014 8 18.837c0-1.414 1.414-2.827 2.827-2.827z" fill="#000"/><path d="M10.872 15.01c1.736 0 3.204 1.735 3.204 3.338 0 .801-.4 1.602-1.068 2.27 1.068 2.137 3.071 5.208 5.341 8.68-.134-4.273-.267-8.68-.267-11.885-1.068-.534-1.87-1.736-1.87-2.67 0-1.737 1.736-3.606 3.606-3.606 1.735 0 3.204 1.736 3.204 3.338 0 1.069-.534 1.87-1.335 2.537.934 3.339 2.537 8.013 4.139 11.752.668-4.54 1.602-10.15 2.003-13.621-.935-.534-1.602-1.603-1.602-2.671 0-1.736 1.735-3.472 3.738-3.472 1.736 0 3.204 1.736 3.204 3.338 0 1.202-.667 2.137-1.602 2.805.4 3.472 1.335 9.214 2.136 13.888 1.603-3.873 3.205-8.68 4.14-11.885-.668-.668-1.069-1.335-1.069-2.137 0-1.736 1.736-3.605 3.605-3.605 1.736 0 3.205 1.736 3.205 3.338 0 1.336-1.068 2.537-2.27 3.072 0 3.205-.134 7.478-.267 11.751 2.27-3.605 4.406-6.81 5.474-8.947-.4-.534-.668-1.202-.668-1.736 0-1.736 1.736-3.606 3.605-3.606 1.736 0 3.205 1.736 3.205 3.339 0 1.736-1.87 3.338-3.472 3.472-1.201 5.075-2.403 11.752-3.738 16.826-.4 1.736-2.804 3.205-2.804 4.941 0 .801.267 2.804.267 3.873 0 2.537-5.34 4.273-13.352 4.273-7.744 0-13.351-1.602-13.351-4.273 0-1.069.267-3.072.267-3.873 0-1.736-2.404-3.205-2.938-5.208-1.201-4.941-2.537-11.485-3.605-16.559C8.335 21.82 7 20.351 7 19.015c.267-2.136 2.003-4.006 3.872-4.006zm-.4 4.94c.667 0 1.735-.667 1.735-1.469 0-.667-.667-1.335-1.335-1.335-.801 0-1.736.801-1.736 1.736 0 .4.668 1.068 1.335 1.068zm4.272 14.022c1.068-.668 2.136-1.335 3.338-1.736-2.136-3.472-4.406-6.81-5.875-9.348.801 3.205 1.736 7.745 2.537 11.084zm28.039 5.609c.4-.668.8-1.336 1.068-2.27.133-.401.267-.935.4-1.47-4.139-2.937-10.014-3.739-14.687-3.739-4.94 0-11.081 1.069-14.553 3.473.134.4.267.667.267 1.068.267 1.202.801 2.003 1.469 2.804 2.67-1.602 7.343-3.071 12.95-3.071 5.742 0 10.549 1.602 13.086 3.205zm-1.736 2.403c.133-.4.4-.667.668-1.068-2.404-1.469-7.344-2.67-12.017-2.67-4.673 0-9.48 1.068-12.017 2.537.267.4.534.667.668 1.201 2.27-1.201 6.008-2.136 11.349-2.136 5.34 0 9.08 1.068 11.349 2.136zM19.55 15.944h.4c.668-.133 1.335-.668 1.335-1.335 0-.668-.534-1.336-1.335-1.336-.8 0-1.736.802-1.736 1.736 0 .4.668.935 1.336.935zm10.147 33.519c5.474 0 11.082-.935 11.082-2.27 0-1.202-5.741-2.137-11.082-2.137-5.074 0-11.082.935-11.082 2.137 0 1.468 6.008 2.27 11.082 2.27zm11.082-4.407v-1.469c-2.136-1.068-6.81-1.87-11.082-1.87-4.273 0-8.946.802-11.082 1.87v1.335c2.27-1.068 5.875-1.736 11.082-1.736 5.074 0 8.812.802 11.082 1.87zM20.352 31.3a20.65 20.65 0 0 1 4.139-.801c-1.736-3.74-3.472-8.68-4.406-12.42 0 3.74.267 8.68.267 13.221zm11.616-1.068c-.668-5.208-1.602-10.683-2.137-14.289-.534 3.606-1.468 9.214-2.136 14.289h4.273zm-2.404-16.56c.668 0 1.736-.667 1.736-1.468 0-.668-.534-1.335-1.335-1.335-.801 0-1.736.8-1.736 1.602 0 .534.668 1.202 1.335 1.202zm9.747 17.895c0-4.807.267-9.748.4-13.487-1.067 3.605-2.803 8.68-4.539 12.419 1.335.4 2.804.668 4.14 1.068zm.668-15.624h.267c.667 0 1.735-.668 1.735-1.469 0-.668-.534-1.335-1.335-1.335-.8 0-1.735.801-1.735 1.736-.134.4.4.935 1.068 1.068zm4.673 18.162c.8-3.473 1.736-7.746 2.537-11.084-1.469 2.537-3.605 5.742-5.742 9.214 1.336.668 2.27 1.202 3.205 1.87zm4.54-14.156c.667 0 1.735-.667 1.735-1.469 0-.667-.667-1.335-1.335-1.335-.801 0-1.736.801-1.736 1.736 0 .4.668 1.068 1.335 1.068z" fill="#F9F1E4"/></svg>