<svg width="60" height="60" fill="none" xmlns="http://www.w3.org/2000/svg"><path d="M26.257 11.765h3.623V9h1.875v2.89h2.75v2.64h-2.75v2.949c2.032.503 3.706 1.7 3.706 4.59 0 .628-.707 2.175-.826 2.678 1.912-1.886 4.977-3.029 7.726-3.029 5.498 0 8.639 3.367 8.639 7.514 0 6.66-4.542 9.802-6.694 11.813-.239.25-.239.502-.239.88 0 1.633.12 4.774.12 6.282 0 2.64-6.182 3.793-13.712 3.793-7.65 0-13.542-1.154-13.542-3.793 0-1.633.12-4.65.12-6.283 0-.502 0-.628-.24-.88C14.183 38.908 10 35.892 10 29.106c0-4.147 3.09-7.388 8.588-7.388 2.75 0 5.636 1.75 7.669 3.634-.24-.503-.837-2.655-.837-3.283 0-2.89 2.428-3.962 4.46-4.59v-2.95h-3.623v-2.764z" fill="#000"/><path d="M30.5 52c-8.323 0-14.287-1.775-14.287-4.368 0-1.502.139-4.368.139-5.46 0-.82 0-1.23-.278-1.502C13.3 37.94 9 35.073 9 29.067c0-4.778 4.023-8.19 9.016-8.19 3.884 0 6.242 1.637 7.63 3.002-.14-.41-.417-1.092-.417-1.774 0-2.457 1.387-4.642 3.884-5.051V14.46H26.06v-2.73h3.052V9h2.774v2.867H34.8v2.73h-2.913v2.457c2.497.546 3.884 2.73 3.884 5.05 0 .683-.139 1.366-.416 1.775 1.387-1.092 3.884-2.866 7.629-2.866 4.993 0 9.016 3.549 9.016 8.19 0 6.28-4.161 9.146-7.074 11.74-.416.41-.278.819-.278 1.501 0 1.229.14 4.096.14 5.597C44.925 49.952 39.793 52 30.5 52zM16.352 38.759c2.358-1.502 8.045-3.14 13.316-3.276-.416-7.235-5.271-12.15-11.652-12.15-4.3 0-6.797 2.867-6.797 6.28 0 3.958 2.774 6.825 5.133 9.146zm26.354 2.457c.14-.546.417-.956.694-1.229-2.358-1.228-7.907-2.457-12.9-2.457-4.994 0-10.542 1.229-12.9 2.457.277.273.555.683.694 1.092 2.496-1.228 6.519-2.047 12.206-2.047 5.826 0 9.848.955 12.206 2.184zm-.138 3.413v-1.502c-2.22-1.092-7.352-1.911-11.93-1.911-4.715 0-9.709.819-11.928 1.911 0 .546 0 .956-.139 1.502 2.22-1.093 6.658-1.775 12.068-1.775 5.548 0 9.432.819 11.929 1.775zm-23.58 3.412c1.802 1.229 7.073 1.775 11.512 1.775 4.161 0 9.294-.546 11.236-1.638.416-.273.693-.546.693-.956 0-.546-.97-.955-1.665-1.092-2.496-.682-6.935-1.228-10.264-1.228-4.3 0-10.403.682-11.79 1.774-.139.137-.278.41-.278.546 0 .41.278.546.555.82zM33.69 22.378c0-1.638-.97-3.276-3.19-3.276-2.22 0-3.19 1.638-3.19 3.276 0 2.047 1.387 3.276 3.19 7.78 1.803-4.504 3.19-5.733 3.19-7.78zm-2.219 13.105c5.41.136 10.958 1.774 13.177 3.276 2.358-2.32 5.133-5.051 5.133-9.283 0-3.14-2.497-6.28-6.797-6.28-6.242.137-11.097 5.052-11.513 12.287z" fill="#F9F1E4"/></svg>