<svg width="60" height="60" fill="none" xmlns="http://www.w3.org/2000/svg"><path d="M26.63 20.718c.275-.14.412-.422 0-.704-.963-.986-1.651-2.253-1.651-3.521 0-2.817 2.614-5.493 5.365-5.493 2.614 0 4.815 2.676 4.815 4.93 0 1.69-.963 3.098-2.339 4.084-.275.282-.138.423.275.564 2.614.985 5.09 2.957 5.09 6.338 0 2.957-1.238 4.93-3.164 6.056-.275.14-.275.563 0 .704C40.111 36.352 43 41.563 43 46.775c0 2.112-.275 3.38-.825 4.225h-24.35c-.55-.986-.825-2.254-.825-4.225 0-4.93 2.614-10.423 7.704-12.958.275-.14.412-.563-.138-.845-1.513-1.127-2.614-2.958-2.614-5.352 0-3.662 2.339-5.634 4.678-6.902z" fill="#000"/><path d="M26.143 19.714c-1.286-1-1.714-2.285-1.714-3.714 0-3.429 2.857-6 6-6C33.57 10 36 12.429 36 15.571c0 1.572-.714 3.143-2 4.143 3 1.143 5.286 3.572 5.286 7.143 0 2.714-1.143 4.572-3.143 6 5.571 2.429 8.143 7.857 8.143 12.714 0 2.429-.429 4-1.429 5.429H17.286c-1-1.714-1.286-3-1.286-5.429 0-4.857 2.714-10.714 8-12.714-1.857-1.428-3-3.286-3-5.571 0-3.715 2-6.286 5.143-7.572zm.714 13.143v.572c-5.286 2-8.428 7.428-8.428 12.142 0 1.286.285 2.286.571 3.143h22.286c.285-.714.571-1.714.571-3.143 0-5.571-4-10.857-8.857-12.142v-.572c3-1.428 4-3.714 4-6 0-3.143-1.857-5.714-5.571-6.714v-.429C33 19 34 17.571 34 15.857 34 13.43 32.429 12 30.429 12c-1.858 0-4 1.286-4 4.143 0 1.286.714 2.714 1.857 3.571v.572c-3.143 1.285-5.143 3.714-5.143 7 .143 2.285 1.428 4.285 3.714 5.571z" fill="#F9F1E4"/></svg>