<svg xmlns="http://www.w3.org/2000/svg" viewBox="0 0 44 43"><path d="M8.4 10.7c.9 0 1.8 1.1 1.8 1.8 0 .6-.4 1.2-.9 1.6 1.1 2.1 2.5 5.2 4.5 8.2.2-.1.3-.1.5-.2-.1-4-.2-7.9-.2-10.8-.8-.1-1.5-1-1.5-1.7 0-1.1 1-2 2-2 .9 0 1.8 1.1 1.8 1.8 0 .6-.4 1.2-1 1.6.7 2.8 2.2 7.1 3.5 10.1.2 0 .4 0 .6-.1.2-3.8 1.2-8.4 1.5-11.3-.6-.3-1.1-1-1.1-1.6 0-1.1 1-2 2-2 .9 0 1.8 1.1 1.8 1.8 0 .8-.6 1.5-1.3 1.8.3 3 1.4 7.7 1.6 11.4h.6C26 18 27.4 13.8 28.1 11c-.5-.4-.8-.9-.8-1.4 0-1.1 1-2 2-2 .9 0 1.8 1.1 1.8 1.8 0 1-.8 1.8-1.7 1.9 0 2.8-.1 6.8-.2 10.8.2 0 .3.1.5.2 2-3.1 3.4-6.2 4.5-8.3-.4-.4-.7-.9-.7-1.3 0-1.1 1-2 2-2 .9 0 1.8 1.1 1.8 1.8 0 1.1-1.1 1.9-2 1.9h-.1c-1 3.6-1.7 10-2.4 12.7-.3 1.1-2 2.5-2 3.3 0 1.1.2 2.5.2 3.6 0 1.6-4 2.5-9.3 2.5-5 0-9.3-1-9.3-2.6 0-1.2.2-2.5.2-3.5 0-.9-1.6-2-1.9-3.3-.6-2.7-1.4-9.1-2.5-12.7h-.1c-.9 0-1.8-.9-1.8-1.8 0-.8 1.1-1.9 2.1-1.9zM13 28.8c1.7-1 5.2-1.8 8.7-1.8 3.5 0 7.1.8 8.7 1.7l.5-.8c-1.7-1.1-5.3-2.1-9.3-2.1-4.1 0-7.5 1.1-9.3 2.1l.7.9zm.6 2.1c1.4-.8 4.8-1.5 8-1.5 3.1 0 6.5.7 8 1.5v-1.1c-1.6-.9-4.2-1.6-8-1.6-3.7 0-6.4.7-8 1.6v1.1zm0 2.4c1.4-.8 4.8-1.4 8-1.4 3.1 0 6.5.5 8 1.3v-1.1c-1.6-.9-4.2-1.5-8-1.5-3.7 0-6.4.6-8 1.5v1.2z"/></svg>