<svg width="60" height="60" fill="none" xmlns="http://www.w3.org/2000/svg"><path d="M18.453 17.4c-.119-.618-.476-1.853-.476-3.953 0-1.606 0-2.347.12-3.459l.118-.247s2.143-.123 3.81 1.359c1.429 1.112 2.262 2.347 2.62 2.841h.119C25.24 10.976 27.62 9 27.62 9h.476s1.905 1.976 2.5 4.57c10.597 1.483 19.646 13.218 19.646 28.536 0 5.435-.477 8.894-.477 8.894H21.55s-.12-2.1.476-4.077c1.905-5.929 7.74-8.894 7.74-14.452 0-.494-.239-.618-.477-.618-.238 1.482-5 2.594-7.144 4.447-2.143 1.853-2.857 5.435-4.881 5.435-.715 0-1.548-.617-1.548-1.358-.476 0-.953.123-1.548.123-2.381 0-4.167-2.594-4.167-6.053 0-1.976 1.786-4.818 4.286-9.018.834-1.358.596-2.717 1.429-4.94.833-.866 1.667-1.977 2.738-3.089zm-5.357 18.159c0 .741.357 1.112.714 1.112.476 0 .952-.618.952-1.112 0-.494.834-.618.834-1.112 0-.494 0-1.359-.953-1.359-.952 0-1.547 1.606-1.547 2.47zm3.095 2.223c0 .618.238.865.953.865.595 0 .952-.865.952-1.359s-.357-.74-.714-.74-1.19.617-1.19 1.234zm2.858-13.094c.357 0 .833-.37.833-.617.12-.618.595 0 1.667-.618 1.072-.494.595-1.359.595-1.853 0-.741.834-.494.834-.988 0-.247 0-.741-.715-.741-2.024 0-3.929 1.729-3.929 3.953.12.494.477.864.715.864zm3.452-5.93s.953-.74 2.739-1.358c-.12-.247-.238-.741-.357-1.235-1.905.74-3.096 1.73-3.096 1.606l.714.988zm8.692 7.042c-.12 1.606-.715 3.088-.715 3.088l1.43.247s.952-.988.952-2.717c0-1.73-.715-2.718-.715-2.718h-1.071c.119 0 .238.988.119 2.1zm15.835 23.1c.357-1.606.595-3.706.595-6.547 0-15.565-9.048-25.694-16.668-26.93 0 .742-.12 1.236-.238 1.483 8.572 1.235 14.406 14.453 14.406 24.706 0 2.717-.238 5.435-.595 7.288h2.5z" fill="#F9F1E4"/></svg>