<svg width="60" height="60" fill="none" xmlns="http://www.w3.org/2000/svg"><path d="M30.497 8c1.673 0 2.986 1.73 2.986 3.09 0 1.483-1.075 2.595-2.388 3.09.716.989 2.388 1.73 4.18 2.843 4.06 2.348 7.404 4.943 7.404 9.393 0 3.955-1.313 5.561-2.746 6.921-.598.618-.24 4.45-.24 7.416 0 1.607-2.985 2.472-6.33 2.843.36.741 1.076 1.36 2.509 1.36 1.672 0 4.658-.125 7.644-.125 5.016 0 7.643 2.843 7.643 2.843L48.412 52s-3.105-2.596-10.63-2.596c-4.18 0-7.165-1.977-7.643-3.584-.358 1.607-2.747 3.584-7.524 3.584-6.807 0-10.868 2.596-10.868 2.596L9 47.674s2.627-2.843 7.285-2.843c3.464 0 6.33.124 8.122.124 1.433 0 2.15-.741 2.508-1.36-3.464-.37-6.33-1.235-6.33-2.842 0-2.472.358-6.55-.358-7.292-1.075-1.113-2.747-2.72-2.747-6.922 0-5.562 4.896-7.91 8.001-9.887 1.314-.742 2.747-1.484 3.464-2.349-1.194-.494-2.15-1.606-2.15-2.842C27.034 9.854 28.706 8 30.497 8zm-.358 26.573c2.747 0 5.255.37 7.644 1.483V34.45c-2.15-1.112-4.897-1.73-7.644-1.73-2.866 0-5.732.742-7.763 1.854v1.483c1.672-.865 4.777-1.483 7.763-1.483zm0 4.202c2.27 0 5.972.371 7.644 1.113v-1.483c-1.792-.99-4.897-1.484-7.644-1.484-2.866 0-6.09.618-7.882 1.607v1.483c1.433-.741 4.896-1.236 7.882-1.236zm1.314-9.27v-3.213h3.225V23.82h-3.225v-3.213h-2.508v3.213H25.84v2.472h3.105v3.214h2.508z" fill="#F9F1E4"/></svg>