<svg width="60" height="60" fill="none" xmlns="http://www.w3.org/2000/svg"><path d="M41.215 21.204l-.955.739v14.16l2.268 2.83c.597.74.716.863.716 1.478v4.68l.717.122c.596.123 1.074.616 1.074 1.355V51H14v-4.31c0-.738.358-1.23.955-1.354l.716-.123v-4.678c0-.616.12-.74.716-1.478l2.268-2.832V21.943l-.955-.739c-.955-.739-2.745-1.97-2.745-2.585v-5.295c0-1.477 3.58-2.216 5.49-2.585v3.693c1.672-.246 3.462-.492 5.253-.492v-3.817c.955 0 2.148-.123 3.82-.123 1.67 0 2.745 0 3.82.123v3.817c1.79 0 3.58.246 5.251.492V10.74c2.03.37 5.49 1.108 5.49 2.585v5.295c0 .615-1.79 1.846-2.864 2.585zm1.91 25.364H15.91c-.358 0-.478.123-.478.492v.985h28.17v-.985c0-.37-.119-.492-.477-.492zM29.517 17.634c4.536 0 9.072.492 11.937 1.23.239-.122.716-.492.835-.738.12-.246.12-.37-.119-.492-.716-.37-2.148-.74-3.342-.862-2.507-.37-5.49-.616-9.43-.616-3.58 0-6.923.246-9.55.616-1.073.123-2.386.492-3.103.862-.238.123-.238.246-.119.492.12.246.597.616.836.739 3.103-.739 7.4-1.231 12.055-1.231zm-11.34 22.162c-.357 0-.596.123-.596.615v.985h23.992v-.985c0-.369-.12-.615-.597-.615H18.178zm2.03-3.078l-1.074 1.354h20.889l-1.075-1.354h-18.74zm18.74-13.913v-1.478c-2.626-.492-6.087-.738-9.43-.738-3.222 0-7.042.123-9.43.738v1.478c2.268-.37 5.85-.616 9.43-.616 3.343 0 6.446.123 9.43.616z" fill="#F9F1E4"/></svg>