<svg width="100%" height="100%" fill="none" viewBox="0 0 60 60" xmlns="http://www.w3.org/2000/svg"><path d="M18.4 17.4c-.1-.6-.5-1.9-.5-4L18 10l.2-.3s2 0 3.8 1.4c1.4 1.1 2.2 2.3 2.6 2.8a9 9 0 013-4.9h.4s1.9 2 2.5 4.6C41 15 50 26.8 50 42c0 5.4-.5 8.9-.5 8.9h-28s-.1-2.1.5-4c1.8-6 7.6-9 7.6-14.5 0-.5-.2-.6-.4-.6-.3 1.4-5 2.5-7.1 4.4-2.2 1.9-2.9 5.4-4.9 5.4-.7 0-1.5-.6-1.5-1.3l-1.6.1c-2.3 0-4.1-2.6-4.1-6 0-2 1.8-4.9 4.3-9 .8-1.4.6-2.8 1.4-5 .8-.9 1.6-2 2.7-3.1zm-5.3 18.2c0 .7.3 1 .7 1 .5 0 1-.5 1-1s.8-.7.8-1.2c0-.4 0-1.3-1-1.3s-1.5 1.6-1.5 2.5zm3 2.2c0 .6.3.8 1 .8.6 0 1-.8 1-1.3s-.4-.8-.8-.8-1.1.7-1.1 1.3zM19 24.7c.3 0 .8-.4.8-.6.1-.6.6 0 1.7-.6 1-.5.6-1.4.6-1.9 0-.7.8-.5.8-1 0-.2 0-.7-.7-.7a4 4 0 00-4 4c.2.4.6.8.8.8zm3.4-6s1-.7 2.7-1.3l-.3-1.2c-1.9.7-3 1.7-3 1.6l.6 1zm8.7 7.1c-.2 1.6-.7 3-.7 3l1.4.3s1-1 1-2.7c0-1.7-.8-2.7-.8-2.7h-1s.2 1 0 2.1zm15.7 23.1c.4-1.6.6-3.7.6-6.5 0-15.6-9-25.7-16.6-27 0 .8 0 1.3-.2 1.5 8.5 1.2 14.3 14.5 14.3 24.7 0 2.7-.2 5.4-.6 7.3h2.5z" fill="#F9F1E4"></path></svg>
