<svg xmlns="http://www.w3.org/2000/svg"><path d="M18.402 17.4c-.118-.618-.473-1.853-.473-3.953 0-1.606 0-2.347.118-3.459l.118-.247s2.13-.123 3.787 1.359c1.42 1.112 2.249 2.347 2.604 2.841h.118C25.148 10.976 27.514 9 27.514 9h.474s1.893 1.976 2.485 4.57C41.006 15.054 50 26.789 50 42.107 50 47.54 49.526 51 49.526 51H21.48s-.118-2.1.473-4.077c1.894-5.929 7.693-8.894 7.693-14.452 0-.494-.237-.618-.474-.618-.236 1.482-4.97 2.594-7.1 4.447-2.13 1.853-2.84 5.435-4.852 5.435-.71 0-1.539-.617-1.539-1.358-.473 0-.947.123-1.538.123-2.367 0-4.142-2.594-4.142-6.053 0-1.976 1.775-4.818 4.26-9.018.829-1.358.592-2.717 1.42-4.94.829-.866 1.657-1.977 2.722-3.089zm-5.325 18.159c0 .741.355 1.112.71 1.112.473 0 .946-.618.946-1.112 0-.494.829-.618.829-1.112 0-.494 0-1.359-.947-1.359s-1.538 1.606-1.538 2.47zm3.077 2.223c0 .618.236.865.946.865.592 0 .947-.865.947-1.359s-.355-.74-.71-.74-1.183.617-1.183 1.234zm2.84-13.094c.355 0 .828-.37.828-.617.119-.618.592 0 1.657-.618 1.065-.494.592-1.359.592-1.853 0-.741.828-.494.828-.988 0-.247 0-.741-.71-.741-2.012 0-3.905 1.729-3.905 3.953.118.494.473.864.71.864zm3.432-5.93s.947-.74 2.722-1.358c-.119-.247-.237-.741-.355-1.235-1.894.74-3.077 1.73-3.077 1.606l.71.988zm8.639 7.042c-.119 1.606-.71 3.088-.71 3.088l1.42.247s.947-.988.947-2.717c0-1.73-.71-2.718-.71-2.718h-1.066c.119 0 .237.988.119 2.1zm15.74 23.1c.355-1.606.591-3.706.591-6.547 0-15.565-8.994-25.694-16.568-26.93 0 .742-.118 1.236-.236 1.483 8.52 1.235 14.319 14.453 14.319 24.706 0 2.717-.237 5.435-.592 7.288h2.485z" fill="#F9F1E4"/></svg>