<svg width="60" height="60" fill="none" xmlns="http://www.w3.org/2000/svg"><path d="M41.685 21.204l-.954.739v14.16l2.265 2.83c.596.74.715.863.715 1.478v4.68l.716.122c.596.123 1.073.616 1.073 1.355V51h-31v-4.31c0-.738.358-1.23.954-1.354l.715-.123v-4.678c0-.616.12-.74.716-1.478l2.265-2.832V21.943l-.954-.739c-.954-.739-2.742-1.97-2.742-2.585v-5.295c0-1.477 3.577-2.216 5.485-2.585v3.693c1.669-.246 3.457-.492 5.246-.492v-3.817c.954 0 2.146-.123 3.815-.123 1.67 0 2.742 0 3.815.123v3.817c1.789 0 3.577.246 5.247.492V10.74c2.027.37 5.484 1.108 5.484 2.585v5.295c0 .615-1.788 1.846-2.861 2.585zm1.907 25.364H16.408c-.358 0-.477.123-.477.492v.985h28.138v-.985c0-.37-.119-.492-.477-.492zM30 17.634c4.53 0 9.062.492 11.923 1.23.238-.122.715-.492.835-.738.119-.246.119-.37-.12-.492-.715-.37-2.146-.74-3.338-.862-2.504-.37-5.485-.616-9.42-.616-3.576 0-6.915.246-9.538.616-1.073.123-2.384.492-3.1.862-.238.123-.238.246-.119.492.12.246.596.616.835.739 3.1-.739 7.392-1.231 12.042-1.231zM18.673 39.796c-.358 0-.596.123-.596.615v.985h23.965v-.985c0-.369-.119-.615-.596-.615H18.673zm2.027-3.078l-1.073 1.354h20.865l-1.073-1.354H20.7zm18.72-13.913v-1.478c-2.624-.492-6.081-.738-9.42-.738-3.22 0-7.035.123-9.42.738v1.478c2.266-.37 5.843-.616 9.42-.616 3.339 0 6.438.123 9.42.616z" fill="#F9F1E4"/></svg>