<?xml version="1.0" encoding="UTF-8"?>
<svg width="480" height="480" fill="none" version="1.1" xmlns="http://www.w3.org/2000/svg" xmlns:cc="http://creativecommons.org/ns#" xmlns:dc="http://purl.org/dc/elements/1.1/" xmlns:rdf="http://www.w3.org/1999/02/22-rdf-syntax-ns#">
 <metadata>
  <rdf:RDF>
   <cc:Work rdf:about="">
    <dc:format>image/svg+xml</dc:format>
    <dc:type rdf:resource="http://purl.org/dc/dcmitype/StillImage"/>
    <dc:title/>
   </cc:Work>
  </rdf:RDF>
 </metadata>
 <rect transform="rotate(90)" y="-480" width="480" height="480" rx="4" fill="#b1b3c1" opacity=".8"/>
 <path d="m480 0v60h-60v-60zm0 120v60h-60v-60zm0 120v60h-60v-60zm0 120v60h-60v-60zm-60 60v60h-60v-60zm0-360v60h-60v-60zm0 120v60h-60v-60zm0 120v60h-60v-60zm-60-300v60h-60v-60zm0 120v60h-60v-60zm0 120v60h-60v-60zm0 120v60h-60v-60zm-60 60v60h-60v-60zm0-360v60h-60v-60zm0 120v60h-60v-60zm0 120v60h-60v-60zm-60-300v60h-60v-60zm0 240v60h-60v-60zm0-120v60h-60v-60zm0 240v60h-60v-60zm-60 60v60h-60v-60zm0-360v60h-60v-60zm0 120v60h-60v-60zm0 120v60h-60v-60zm-60-300v60h-60v-60zm0 120v60h-60v-60zm0 120v60h-60v-60zm0 120v60h-60v-60zm-60 60v60h-60v-60zm0-360v60h-60v-60zm0 120v60h-60v-60zm0 120v60h-60v-60z" fill="#000" opacity=".15"/>
 <path d="m168.66 120.68c-0.2417 0.13513-0.53566 0.53135-0.9423 1.2252-1.0344 1.765-1.7746 5.0965-1.7603 7.9205 0.0569 11.264 7.9925 21.578 18.819 24.455 1.9943 0.52999 7.7616 0.7662 10.814 0.44324 0.7992-0.0846 1.4923-0.0246 1.5387 0.13332 0.13165 0.44793-3.0845 1.9354-5.2989 2.4504-3.0557 0.71057-6.6474 0.9062-8.9168 0.48645-4.5331-0.83843-5.7845-0.77464-8.7222 0.44143-16.087 6.659-30.198 17.851-40.159 31.851-10.278 14.446-16.746 33.201-16.753 48.584-2e-3 4.3266 0.57308 8.8617 1.2378 9.7708 0.21286 0.29113 0.46153 0.45555 0.55313 0.36397 0.0917-0.0916 0.70291-1.6838 1.3585-3.5368 1.3576-3.8372 3.8124-8.8802 5.6665-11.639 1.9222-2.8603 5.5342-7.2518 5.8196-7.0754 0.13951 0.0862-0.14706 0.9521-0.6378 1.9243-0.49076 0.97216-1.4052 3.0755-2.0306 4.6737-4.1988 10.73-6.1586 19.291-6.9529 30.363-1.211 16.88 3.253 35.005 11.755 47.726 3.1251 4.6762 8.2698 10.562 8.7835 10.048 0.11174-0.11175-0.0988-1.4843-0.46846-3.0504-1.1059-4.6844-1.3151-6.5907-1.3225-12.072-8e-3 -5.1148 0.49107-10.302 0.98917-10.302 0.13768 0 0.40326 0.79684 0.59095 1.7693 1.6246 8.4175 5.1853 18.984 8.4916 25.201 8.3763 15.751 21.359 26.765 38.287 32.48 5.2668 1.7782 8.5708 2.5318 17.5 3.9926 1.3982 0.22876 1.5371 0.21287 1.5279-0.17477-5e-3 -0.21141-0.87046-0.86844-1.9224-1.4594-2.2802-1.2809-7.847-6.6893-9.6537-9.3798-1.7392-2.5899-3.3278-5.6394-3.072-5.8952 0.11859-0.11858 0.73281 0.27626 1.3639 0.87564 5.12 4.8626 16.753 10.303 26.855 12.562 18.963 4.2394 37.302 3.4653 48.333-2.0414 2.6819-1.3387 6.761-4.327 6.5943-4.8304-0.0661-0.19974-0.73177-0.47485-1.4792-0.6108-8.055-1.4651-14.342-4.1061-20.154-8.4682-7.5049-5.6325-13.275-13.627-16.345-22.648-1.8553-5.4514-2.3683-8.8503-2.3711-15.682-2e-3 -4.7777 0.12036-6.7331 0.55313-8.7636 1.8986-8.9079 6.483-17.247 13.392-24.361 1.104-1.1368 1.933-2.1426 1.8414-2.2342-0.0916-0.0915-1.5724-7e-3 -3.29 0.18919-5.2113 0.59258-12.579-0.3929-18.958-2.5368-3.699-1.2433-10.287-4.439-13.187-6.3962-10.942-7.3832-18.511-17.991-21.522-30.159-0.66896-2.7034-1.7179-9.8415-1.7279-11.762-7e-3 -1.1888 0.50621-0.43105 0.8324 1.2306 0.19088 0.97248 0.57581 2.9443 0.85401 4.3818 1.14 5.8908 4.6216 14.079 8.0412 18.911 8.2803 11.702 20.706 19.017 36.078 21.237 2.7157 0.39229 4.9437 0.47534 9.6862 0.36216 6.8339-0.1631 10.535-0.75322 15.232-2.4306 8.7337-3.1191 10.494-3.4519 18.297-3.4701 7.2435-0.017 9.6381 0.33101 14.996 2.1855 5.6779 1.9653 9.2627 3.9088 14.437 7.8268 5.3346 4.039 9.3538 5.3814 15.3 5.1097 6.1844-0.28257 10.277-2.0775 14.717-6.4538 7.5575-7.4492 8.7832-19.014 2.9548-27.882-0.39659-0.60341-0.94802-2.2036-1.2252-3.5566-0.99851-4.8744-2.4667-8.6382-4.8268-12.378-1.8478-2.9278-2.1179-2.69-2.5422 2.2305-0.10213 1.1839-0.59402 4.0817-1.0937 6.4394-0.49962 2.3577-0.83415 4.5179-0.74413 4.8016 0.25537 0.80454 1.2582 1.5728 2.3423 1.7945 1.654 0.33828 1.4568 0.95494-0.30449 0.95494-2.7451 0-3.0239-0.24036-3.2612-2.8233-0.3006-3.2724-1.3071-7.1059-2.5404-9.6681-1.1117-2.3096-4.1027-5.9584-4.8845-5.9584-0.62135 0-0.95401 0.98396-1.3513 3.9981-0.70525 5.3506-2.8874 13.711-3.8413 14.715-0.33072 0.34814-1.4681 0.12851-6.9637-1.3423-9.2188-2.4672-10.698-2.8024-14.872-3.371-2.0295-0.27649-5.2114-0.71061-7.0718-0.96573-9.6699-1.3261-14.512-3.7629-15.967-8.0322-0.93627-2.7477-0.47917-3.4119 0.74411-1.081 1.1607 2.2116 3.3858 4.2682 5.9241 5.4737 2.1958 1.0428 7.6033 2.5981 9.0303 2.5981 1.2529 0 0.81244-0.82889-0.98557-1.8576-2.4389-1.3954-4.9144-3.9286-5.9043-6.0412-0.7805-1.6658-0.83525-2.0458-0.79816-5.6304 0.0329-3.1818 0.17977-4.3087 0.84861-6.5457 2.2814-7.6307 7.5182-14.267 15.342-19.439 2.9489-1.9494 1.885-2.2781-3.3152-1.027-6.7253 1.6181-12.735 5.3611-17.162 10.69-0.62137 0.74803-1.2037 1.2863-1.2936 1.1964-0.24081-0.24078 1.7692-3.6815 3.3548-5.7421 6.6528-8.6457 17.224-12.006 32.631-10.373 5.8537 0.62041 11.256 1.622 11.828 2.1945 0.38671 0.38673 0.46588 1.4306 0.45583 5.9169-7e-3 2.9959-0.18329 6.468-0.39277 7.715-0.60433 3.5977-0.11961 4.0882 2.6504 2.6846 4.6683-2.3656 8.5249-6.7154 10.884-12.275 0.51571-1.2152 1.0447-2.2793 1.1765-2.3639 0.38776-0.24875 3.6828 0.0335 3.6828 0.31529 0 0.14171-0.31134 0.3027-0.69187 0.35675-0.6758 0.0958-0.68863 0.1753-0.60358 3.4792 0.0479 1.8604-0.0412 4.6209-0.1982 6.1331-0.40071 3.8592-0.20983 4.1223 2.1351 2.926 3.5538-1.813 6.6651-6.3659 8.0826-11.827 0.29844-1.1497 0.75496-2.0761 1.2126-2.4594 1.0447-0.87493 3.1637-4.1249 4.2142-6.4664 1.4626-3.2599 2.3828-6.5858 3.8882-14.034 0.15965-0.78988-0.6263-3.3482-1.5747-5.1242-0.74315-1.3916-1.7508-2.34-4.625-4.3548-2.8431-1.993-8.4556-7.4058-8.4556-8.1546 0-0.94185 0.77073-0.70895 3.9206 1.1856 4.7548 2.8598 9.4413 5.167 10.032 4.9403 0.60217-0.23107 0.60981-0.45244 0.0812-2.4378-0.58395-2.1926-0.98543-2.7351-3.5801-4.8395-7.7388-6.2765-20.511-12.242-30.748-14.362-2.9315-0.60688-10.639-1.342-11.111-1.0594-0.33507 0.20063-6.7648-0.47664-9.3384-0.98377-3.994-0.78702-7.5474-1.8014-15.529-4.4341-12.117-3.9966-15.326-4.6703-22.1-4.6377-8.2865 0.04-15.573 1.2593-24.947 4.1746-4.734 1.4722-13.005 3.0619-18.45 3.5458-9.8325 0.87389-23.228-0.50349-34.901-3.5909-1.0148-0.26837-2.6066-0.66479-3.5368-0.88106-3.5521-0.82584-10.687-2.9139-16.452-4.8142-1.0148-0.33448-1.9548-0.80291-2.09-1.0414-0.20088-0.35423-0.3907-0.48106-0.63241-0.34594zm99.249 12.659c1.36-0.25513 4.4938 0.24671 6.6808 1.0702 0.95199 0.35846 3.3037 1.7385 5.2268 3.0665 3.3779 2.3326 3.4948 2.4489 3.4125 3.4503-0.047 0.57012-0.39339 1.6587-0.76933 2.4197-0.37592 0.76107-0.89041 1.4067-1.1441 1.4342-0.2537 0.0274-1.4667-0.28022-2.6936-0.68465-2.6512-0.87395-5.4244-1.3589-7.8015-1.3621-2.0556-3e-3 -2.3744-0.29172-2.6215-2.3783-0.13812-1.1662-0.0282-1.8616 0.47205-2.9927 0.35851-0.81047 0.65044-1.7288 0.65044-2.0396 0-0.63305-0.86207-1.2018-1.8234-1.2018-1.0268 0-0.72814-0.56829 0.4108-0.78195zm19.187 8.3727 1.7981 0.37294c0.98953 0.20536 2.354 0.40143 3.0305 0.43423 0.67651 0.0328 1.2199 0.19662 1.209 0.36575-0.0107 0.16912-1.0765 0.84457-2.3693 1.5008-1.861 0.94478-2.8024 1.2268-4.517 1.3495-2.3896 0.17097-2.7139-0.11189-1.472-1.2774 0.38106-0.35766 1.0588-1.1209 1.5062-1.6972z" fill="#000" fill-opacity=".059801" stroke-width=".3075"/>
</svg>
