<?xml version="1.0" encoding="UTF-8"?>
<svg width="480" height="480" fill="none" version="1.1" xmlns="http://www.w3.org/2000/svg" xmlns:cc="http://creativecommons.org/ns#" xmlns:dc="http://purl.org/dc/elements/1.1/" xmlns:rdf="http://www.w3.org/1999/02/22-rdf-syntax-ns#">
 <metadata>
  <rdf:RDF>
   <cc:Work rdf:about="">
    <dc:format>image/svg+xml</dc:format>
    <dc:type rdf:resource="http://purl.org/dc/dcmitype/StillImage"/>
    <dc:title/>
   </cc:Work>
  </rdf:RDF>
 </metadata>
 <rect transform="rotate(90)" y="-480" width="480" height="480" rx="4" fill="#b1b3c1" opacity=".8"/>
 <g fill="#000">
  <path d="m480 0v60h-60v-60zm0 120v60h-60v-60zm0 120v60h-60v-60zm0 120v60h-60v-60zm-60 60v60h-60v-60zm0-360v60h-60v-60zm0 120v60h-60v-60zm0 120v60h-60v-60zm-60-300v60h-60v-60zm0 120v60h-60v-60zm0 120v60h-60v-60zm0 120v60h-60v-60zm-60 60v60h-60v-60zm0-360v60h-60v-60zm0 120v60h-60v-60zm0 120v60h-60v-60zm-60-300v60h-60v-60zm0 240v60h-60v-60zm0-120v60h-60v-60zm0 240v60h-60v-60zm-60 60v60h-60v-60zm0-360v60h-60v-60zm0 120v60h-60v-60zm0 120v60h-60v-60zm-60-300v60h-60v-60zm0 120v60h-60v-60zm0 120v60h-60v-60zm0 120v60h-60v-60zm-60 60v60h-60v-60zm0-360v60h-60v-60zm0 120v60h-60v-60zm0 120v60h-60v-60z" opacity=".15"/>
  <path d="m335.27 359.99c-14.419-0.013-28.855 0.11192-29.027 0.3902-0.13419 0.2171 0.69597 1.2269 2.1585 2.626 1.3063 1.2497 2.6138 2.5556 2.9072 2.9037 0.51442 0.61039 0.47461 1.0449-1.1091 12.149-0.90336 6.3339-2.4563 17.389-3.4521 24.566s-1.9246 13.822-2.0636 14.766c-0.13898 0.94459-0.15697 1.8732-0.0404 2.0618 0.21706 0.35119 12.576 0.4951 13.13 0.15292 0.30986-0.19149 0.65109-2.2272 1.8596-11.132 1.1642-8.5777 1.5203-10.974 1.705-11.455 0.11812-0.30787 1.4908-0.39372 6.2591-0.39372 5.5156 0 6.1314-0.0513 6.3699-0.52554 0.1452-0.28873 0.42749-1.7387 0.62749-3.2236 0.20002-1.4849 0.49129-3.432 0.64683-4.3257 0.39346-2.2606 0.35967-3.6222-0.0913-3.6332-0.20625-6e-3 -2.9398-0.0394-6.0746-0.0756l-5.7002-0.0652-0.0966-0.84018c-0.1633-1.4233 1.3677-11.525 1.7858-11.784 0.40593-0.25089 16.282-0.33399 16.788-0.088 0.41064 0.19965 0.43397 0.49592 0.17578 2.1215-0.16511 1.0394-0.29995 6.1417-0.30057 11.339-9.1e-4 8.2463 0.0819 9.965 0.64859 13.499 1.4601 9.1049 3.6263 15.779 6.841 21.071 0.61522 1.0128 1.1711 1.6877 1.2339 1.4993 0.0629-0.18833 1.218-1.0824 2.568-1.9862 5.1645-3.4577 10.92-8.7326 14.77-13.534 4.2902-5.3512 9.1996-13.646 11.539-19.498 2.2374-5.5966 4.3348-12.908 5.2713-18.375 0.55796-3.2569 0.95113-3.7696 1.7278-2.2499 0.35657 0.69766 0.36165 1.2184 0.0317 3.3748-0.21462 1.4024-0.80791 5.6546-1.32 9.4494-0.51213 3.7948-1.2644 9.195-1.6698 12-0.40544 2.8048-0.8646 6.0446-1.0212 7.1995-0.1566 1.1549-0.91075 6.4651-1.6768 11.801-0.76607 5.3361-1.3332 9.7631-1.2603 9.8361 0.26454 0.26456 13.159 0.18348 13.427-0.0843 0.15124-0.15124 0.4083-1.1479 0.57122-2.2147 0.44545-2.916 1.787-12.324 2.2587-15.835 0.22872-1.703 0.57607-3.2886 0.77161-3.5242 0.42506-0.51216 2.7767-0.5737 4.1148-0.1073 1.8315 0.63845 1.8284 0.75439-0.70483 18.25-0.27756 1.9169-0.34644 3.2287-0.17578 3.3994 0.37394 0.37378 12.931 0.36226 13.306-0.0123 0.15963-0.15964 0.40586-1.15 0.54664-2.2006 0.14078-1.0506 0.73722-5.2549 1.3253-9.3439 1.1255-7.8258 1.2685-10.132 0.74701-12.01-0.4069-1.4654-2.1535-3.4063-3.2904-3.656-1.2068-0.26508-1.3822-0.6935-0.3744-0.91401 2.6884-0.58815 4.4828-2.1694 5.477-4.8266 0.71199-1.903 1.8458-8.6958 2.4203-14.506 0.32854-3.3223 0.31326-3.971-0.13181-5.6949-0.60971-2.3616-1.0412-3.0559-2.6049-4.1886-2.5507-1.8477-3.2061-1.9014-24.776-2.0336-22.081-0.13537-19.92-0.38259-20.307 2.3184-0.86369 6.0322-4.4869 17.934-7.5774 24.887-2.6732 6.0144-5.2445 10.335-5.0042 8.4106 0.18802-1.5059 1.8721-13.504 3.2798-23.369 0.9041-6.3355 1.5743-11.701 1.4888-11.924-0.10695-0.2785-14.509-0.42985-28.928-0.44293zm94.416 0.014c-4.9521 0.0128-9.866 0.14871-9.866 0.39374 0 0.20328 1.2852 1.659 2.8563 3.2359l2.8563 2.8686-0.61169 4.0374c-0.64355 4.2408-3.6126 25.215-4.9444 34.936-0.42949 3.1348-1.0473 7.5208-1.3728 9.7482-0.49597 3.3936-0.52479 4.0989-0.1828 4.3503 0.48404 0.35582 12.781 0.29813 13.111-0.0616 0.12018-0.13104 0.57187-2.7358 1.0037-5.7881 0.43177-3.0523 1.794-12.705 3.0268-21.449 1.2328-8.7444 2.5748-18.261 2.9828-21.149 1.2673-8.967 1.4381-10.454 1.2357-10.782-0.1512-0.24463-5.1423-0.35395-10.094-0.341zm29.506 0.0282c-10.244-3e-3 -13.573 0.0823-13.573 0.34979 0 0.19497 1.0945 1.4765 2.4327 2.8475 1.8477 1.893 2.3795 2.619 2.2147 3.0197-0.11935 0.29022-0.60984 2.0134-1.0915 3.8282-0.48167 1.8149-1.071 3.9066-1.3095 4.6491-0.23849 0.74244-0.89646 3.0385-1.4624 5.1008-0.56595 2.0624-1.8994 6.7865-2.9635 10.499-1.813 6.3255-3.0392 10.664-5.8918 20.848-2.0877 7.4535-2.2034 7.9219-2.053 8.3139 0.11541 0.30072 1.589 0.37474 6.6634 0.33395 3.5834-0.0287 6.5891-0.12775 6.681-0.21969 0.0918-0.0919 0.69811-2.1595 1.3464-4.5946 0.64831-2.4351 1.3231-4.602 1.4993-4.8143 0.23825-0.28711 1.3287-0.36433 4.2519-0.30232l3.9302 0.0843 0.0826 4.8741c0.0452 2.6811 0.18092 4.8801 0.30056 4.8864 0.11966 7e-3 3.1196 0.0218 6.6669 0.0352l6.449 0.0247 0.0773-29.64c0.0606-23.514-2e-3 -29.689-0.3006-29.879-0.20703-0.13143-6.485-0.24161-13.951-0.2443zm-56.638 11.395c3.5483 0 3.5748 0.0505 2.8598 5.3996-1.0004 7.484-1.2002 8.5466-1.7542 9.3-0.50386 0.68517-0.77493 0.75745-3.1445 0.83665l-2.5943 0.0861v-0.84543c0-0.46491 0.27234-2.7307 0.60463-5.0358 0.33229-2.3051 0.74144-5.2714 0.90873-6.5914 0.16731-1.3199 0.36319-2.5691 0.43591-2.7754 0.0917-0.26024 0.91261-0.37438 2.684-0.37438zm58.382 1.4993c0.44251 0 0.0104 24.371-0.43768 24.669-0.18177 0.12122-1.6466 0.2223-3.2552 0.22499-3.3821 6e-3 -3.2329 0.21671-2.2903-3.2254 0.34934-1.2756 0.74071-2.7251 0.87006-3.2201 0.12939-0.49497 0.79936-2.9917 1.487-5.549 1.3697-5.0938 2.8466-10.78 3.1357-12.074 0.1014-0.45372 0.32161-0.82612 0.4904-0.82612z" fill-opacity=".036545" stroke-width=".29998"/>
  <path d="m162.67 110.61c-0.26201 0.14648-0.58069 0.57598-1.0215 1.3281-1.1213 1.9133-1.9237 5.5248-1.9082 8.5859 0.0616 12.211 8.6641 23.391 20.4 26.51 2.1619 0.57451 8.4138 0.83057 11.723 0.48047 0.86636-0.0917 1.6177-0.0266 1.668 0.14453 0.14272 0.48558-3.3437 2.098-5.7441 2.6562-3.3124 0.77029-7.206 0.98235-9.666 0.52734-4.9139-0.90888-6.2705-0.83973-9.4551 0.47852-17.438 7.2185-32.736 19.351-43.533 34.527-11.142 15.66-18.153 35.991-18.16 52.666-2e-3 4.6902 0.62122 9.6064 1.3418 10.592 0.23075 0.31559 0.50031 0.49384 0.59961 0.39454 0.0993-0.0992 0.76196-1.8252 1.4726-3.834 1.4716-4.1596 4.1328-9.6264 6.1426-12.617 2.0837-3.1007 5.9992-7.8611 6.3086-7.6699 0.15123 0.0935-0.15942 1.0321-0.6914 2.0859-0.53199 1.0538-1.5232 3.3339-2.2012 5.0664-4.5516 11.632-6.676 20.912-7.5371 32.914-1.3128 18.299 3.5263 37.946 12.742 51.736 3.3877 5.0691 8.9647 11.449 9.5215 10.893 0.12114-0.12113-0.10704-1.609-0.50781-3.3066-1.1988-5.078-1.4256-7.1445-1.4336-13.086-8e-3 -5.5446 0.53232-11.168 1.0723-11.168 0.14925 0 0.43716 0.8638 0.64062 1.918 1.7611 9.1248 5.6209 20.579 9.2051 27.318 9.0801 17.074 23.154 29.013 41.504 35.209 5.7093 1.9276 9.2909 2.7445 18.971 4.3281 1.5157 0.24797 1.6662 0.23076 1.6562-0.18946-5e-3 -0.22917-0.94358-0.94141-2.084-1.582-2.4718-1.3885-8.5063-7.2514-10.465-10.168-1.8853-2.8075-3.6074-6.1133-3.3301-6.3906 0.12854-0.12854 0.79437 0.29948 1.4785 0.94922 5.5502 5.2712 18.161 11.169 29.111 13.617 20.557 4.5956 40.436 3.7565 52.395-2.2129 2.9072-1.4512 7.3291-4.6905 7.1484-5.2363-0.0716-0.2165-0.79326-0.51474-1.6035-0.66211-8.7318-1.5882-15.547-4.4511-21.848-9.1797-8.1355-6.1057-14.391-14.772-17.719-24.551-2.0112-5.9095-2.5673-9.5939-2.5703-17-2e-3 -5.1791 0.13047-7.2989 0.59961-9.5 2.0581-9.6564 7.0278-18.696 14.518-26.408 1.1968-1.2323 2.0954-2.3226 1.9961-2.4219s-1.7046-7e-3 -3.5664 0.20508c-5.6492 0.64237-13.636-0.42592-20.551-2.75-4.0098-1.3478-11.151-4.812-14.295-6.9336-11.861-8.0036-20.066-19.502-23.33-32.693-0.72516-2.9306-1.8622-10.668-1.873-12.75-7e-3 -1.2887 0.54875-0.46726 0.90234 1.334 0.20693 1.0542 0.6242 3.1917 0.92578 4.75 1.2358 6.3857 5.01 15.261 8.7168 20.5 8.976 12.685 22.446 20.614 39.109 23.021 2.9439 0.42525 5.3591 0.51527 10.5 0.39258 7.4081-0.1768 11.421-0.8165 16.512-2.6348 9.4675-3.3812 11.376-3.7419 19.834-3.7617 7.8521-0.0184 10.448 0.35882 16.256 2.3691 6.155 2.1304 10.041 4.2373 15.65 8.4844 5.7828 4.3784 10.14 5.8336 16.586 5.5391 6.704-0.3063 11.14-2.252 15.953-6.9961 8.1925-8.0751 9.5212-20.612 3.2031-30.225-0.42992-0.65411-1.0277-2.3888-1.3281-3.8555-1.0824-5.2839-2.6739-9.364-5.2324-13.418-2.003-3.1739-2.2958-2.916-2.7559 2.418-0.11068 1.2833-0.64393 4.4247-1.1856 6.9805-0.54161 2.5558-0.90424 4.8975-0.80664 5.2051 0.27681 0.87213 1.3639 1.705 2.5391 1.9453 1.793 0.3667 1.5792 1.0352-0.33008 1.0352-2.9758 0-3.278-0.26054-3.5352-3.0606-0.32585-3.5474-1.417-7.7029-2.7539-10.48-1.2051-2.5037-4.4474-6.459-5.2949-6.459-0.67358 0-1.0342 1.0666-1.4648 4.334-0.76452 5.8002-3.13 14.863-4.1641 15.951-0.35851 0.3774-1.5914 0.13932-7.5488-1.4551-9.9933-2.6745-11.597-3.0379-16.121-3.6543-2.2-0.29972-5.6493-0.77033-7.666-1.0469-10.482-1.4375-15.732-4.079-17.309-8.707-1.0149-2.9786-0.51943-3.6986 0.80664-1.1719 1.2582 2.3975 3.6703 4.6269 6.4219 5.9336 2.3803 1.1304 8.2422 2.8164 9.7891 2.8164 1.3581 0 0.88072-0.89853-1.0684-2.0137-2.6439-1.5126-5.3274-4.2587-6.4004-6.5488-0.84607-1.8058-0.90543-2.2177-0.86523-6.1035 0.0357-3.4491 0.1949-4.6707 0.91992-7.0957 2.4731-8.2719 8.1499-15.466 16.631-21.072 3.1967-2.1132 2.0433-2.4696-3.5938-1.1133-7.2904 1.754-13.805 5.8116-18.604 11.588-0.67356 0.81085-1.3048 1.3944-1.4023 1.2969-0.26103-0.26103 1.9179-3.9909 3.6367-6.2246 7.2118-9.3722 18.671-13.014 35.373-11.244 6.3456 0.67254 12.202 1.7582 12.822 2.3789 0.41921 0.41923 0.50504 1.5508 0.49414 6.4141-7e-3 3.2476-0.19871 7.0115-0.42578 8.3633-0.65511 3.9-0.12965 4.4317 2.873 2.9102 5.0605-2.5643 9.2412-7.2797 11.799-13.307 0.55904-1.3173 1.1325-2.4708 1.2754-2.5625 0.42034-0.26963 3.9922 0.0363 3.9922 0.3418 0 0.15361-0.33749 0.32812-0.75 0.38672-0.73258 0.10404-0.74649 0.19003-0.65429 3.7715 0.0519 2.0167-0.0446 5.0092-0.21485 6.6484-0.43437 4.1835-0.22747 4.4687 2.3145 3.1719 3.8524-1.9654 7.2252-6.9008 8.7617-12.82 0.32351-1.2463 0.81839-2.2506 1.3144-2.666 1.1325-0.94844 3.4295-4.4715 4.5684-7.0098 1.5855-3.5338 2.583-7.1392 4.2148-15.213 0.17307-0.85625-0.67893-3.6295-1.707-5.5547-0.80561-1.5086-1.8979-2.5366-5.0137-4.7207-3.082-2.1604-9.166-8.0281-9.166-8.8398 0-1.021 0.83549-0.76851 4.25 1.2852 5.1543 3.1001 10.235 5.6012 10.875 5.3555 0.65276-0.2505 0.66105-0.49046 0.0879-2.6426-0.63302-2.3768-1.0682-2.9649-3.8809-5.2461-8.3891-6.8039-22.235-13.271-33.332-15.568-3.1778-0.65788-11.533-1.4547-12.045-1.1484-0.36323 0.2175-7.3332-0.51668-10.123-1.0664-4.3296-0.85316-8.1816-1.9528-16.834-4.8066-13.135-4.3324-16.614-5.0628-23.957-5.0273-8.9827 0.0433-16.881 1.3651-27.043 4.5254-5.1318 1.596-14.098 3.3192-20 3.8438-10.659 0.94732-25.179-0.54579-37.834-3.8926-1.1-0.29092-2.8256-0.72065-3.834-0.95508-3.8506-0.89524-11.584-3.1587-17.834-5.2188-1.1-0.36259-2.119-0.87038-2.2656-1.1289-0.21776-0.38399-0.42353-0.52147-0.68554-0.375zm107.59 13.723c1.4743-0.27657 4.8714 0.26743 7.2422 1.1602 1.032 0.38858 3.5813 1.8846 5.666 3.3242 3.6617 2.5286 3.7884 2.6547 3.6992 3.7402-0.0508 0.61802-0.42646 1.798-0.83399 2.623-0.40752 0.825-0.96523 1.5249-1.2402 1.5547s-1.5899-0.30377-2.9199-0.74218c-2.874-0.94737-5.8802-1.4731-8.457-1.4766-2.2283-3e-3 -2.5739-0.31622-2.8418-2.5781-0.14973-1.2642-0.0307-2.018 0.51172-3.2441 0.38863-0.87855 0.70508-1.874 0.70508-2.2109 0-0.68626-0.93449-1.3027-1.9766-1.3027-1.113 0-0.78932-0.61604 0.44532-0.84766zm20.799 9.0762 1.9492 0.4043c1.0727 0.2226 2.5518 0.43516 3.2852 0.4707 0.73335 0.0355 1.3224 0.21315 1.3106 0.39649-0.0118 0.18333-1.167 0.91552-2.5684 1.627-2.0174 1.0242-3.0379 1.3299-4.8965 1.4629-2.5903 0.18533-2.942-0.12129-1.5957-1.3848 0.41309-0.38769 1.1477-1.215 1.6328-1.8398z" fill-opacity=".076412" stroke-width=".33334"/>
 </g>
</svg>
