<?xml version="1.0" encoding="UTF-8" standalone="no"?>
<svg
   xmlns:dc="http://purl.org/dc/elements/1.1/"
   xmlns:cc="http://creativecommons.org/ns#"
   xmlns:rdf="http://www.w3.org/1999/02/22-rdf-syntax-ns#"
   xmlns:svg="http://www.w3.org/2000/svg"
   xmlns="http://www.w3.org/2000/svg"
   enable-background="new 0 0 180 180"
   version="1.1"
   viewBox="0 0 180 180"
   xml:space="preserve"
   id="svg34"><metadata
   id="metadata38"><rdf:RDF><cc:Work
       rdf:about=""><dc:format>image/svg+xml</dc:format><dc:type
         rdf:resource="http://purl.org/dc/dcmitype/StillImage" /><dc:title></dc:title></cc:Work></rdf:RDF></metadata>
<defs
   id="defs16">
<style
   id="style2">
.clsN-1{fill:none;}.clsN-2{fill:#F8F8F8;}.clsN-3,.clsN-5{fill:#fff;}.clsN-3,.clsN-4{opacity:0.2;}.clsN-6{fill:#1a1a1a;}</style>
<style
   id="style4">
.clsN-1{fill:none;}.clsN-2{fill:#F8F8F8;}.clsN-3,.clsN-5{fill:#fff;}.clsN-3,.clsN-4{opacity:0.2;}.clsN-6{fill:#1a1a1a;}</style><style
   id="style6">
.clsN-1{fill:none;}.clsN-2{fill:#565352;}.clsN-3,.clsN-5{fill:#fff;}.clsN-3,.clsN-4{opacity:0.2;}.clsN-6{fill:#1a1a1a;}</style><style
   id="style8">
.clsN-1{fill:none;}.clsN-2{fill:#F8F8F8;}.clsN-3,.clsN-5{fill:#fff;}.clsN-3,.clsN-4{opacity:0.2;}.clsN-6{fill:#1a1a1a;}</style><style
   id="style10">
.clsN-1{fill:none;}.clsN-2{fill:#F8F8F8;}.clsN-3,.clsN-5{fill:#fff;}.clsN-3,.clsN-4{opacity:0.2;}.clsN-6{fill:#1a1a1a;}</style><style
   id="style12">
.clsN-1{fill:none;}.clsN-2{fill:#F8F8F8;}.clsN-3,.clsN-5{fill:#fff;}.clsN-3,.clsN-4{opacity:0.2;}.clsN-6{fill:#1a1a1a;}</style><style
   id="style14">
.clsN-1{fill:none;}.clsN-2{fill:#565352;}.clsN-3,.clsN-5{fill:#fff;}.clsN-3,.clsN-4{opacity:0.2;}.clsN-6{fill:#1a1a1a;}</style></defs>











<g
   id="g911"
   transform="matrix(-1,0,0,1,179.99999,0)"><rect
     class="clsN-1"
     x="-2.9687999e-06"
     y="1.1177e-07"
     width="180"
     height="180"
     id="rect18" /><path
     d="m 49.795,11.076 2.1523,14.115 -8.1348,-5.3066 3.6758,10.215 c 0,0 0.72883,2.0256 1.4238,4.75 0.69497,2.7244 1.2701,6.1586 1.1367,8.1934 -0.28151,4.2958 -2.7066,7.6199 -4.9922,12.979 -2.3895,5.6018 -3.8234,11.223 -5.5449,16.498 -0.74657,2.2876 -3.0876,4.7971 -5.5156,7.9863 -2.428,3.1893 -4.8686,7.8587 -3.4531,13.371 1.2193,4.7484 4.5312,8.4909 8.5586,10.707 4.0274,2.2161 9.0366,2.9496 13.576,0.78711 3.7327,-1.7783 5.3179,-4.8342 6.6621,-6.0703 2.0452,-1.8804 4.735,-3.3212 7.6855,-5.459 2.0115,-1.4575 3.8186,-3.153 5.502,-4.9551 0.52652,1.0892 0.86943,2.3618 0.90039,4.0508 0.05126,2.7962 -0.63166,6.1189 -1.3535,8.748 -1.0078,3.6708 -2.9922,7.652 -5.291,10.609 -2.4444,3.1451 -5.948,6.3818 -8.4004,11.041 -1.8762,3.5646 -2.5887,7.1529 -2.8672,10.646 -11.079,4.0428 -11.054,12.856 -11.025,22.908 v 3.6094 h 101.61 v -3.5996 c 0,-9.7995 0.0433,-18.436 -10.225,-22.604 1.9908,-8.8109 4.05,-18.396 2.9922,-27.244 -0.37476,-3.1346 -1.0804,-8.1296 -3.2148,-12.961 l 5.5938,2.2168 c -1.5642,-9.0991 -2.9029,-13.288 -5.3281,-18.354 -3.3055,-6.5875 -7.0572,-11.013 -11.504,-15.457 l 5.9961,0.71289 c -12.751,-23.919 -36.583,-27.229 -51.893,-24.445 -0.92351,-2.8363 -2.4024,-6.1717 -3.7695,-8.4609 -3.4749,-5.7829 -8.4284,-10.202 -13.668,-13.592 -1.4082,-0.91111 -3.014,-2.1172 -5.4688,-3.1621 l -5.8164,-2.4746 z"
     fill="#1a1a1a"
     style="font-variant-ligatures:normal;font-variant-position:normal;font-variant-caps:normal;font-variant-numeric:normal;font-variant-alternates:normal;font-variant-east-asian:normal;font-feature-settings:normal;font-variation-settings:normal;text-indent:0;text-decoration:none;text-decoration-line:none;text-decoration-style:solid;text-decoration-color:#000000;text-transform:none;text-orientation:mixed;white-space:normal;shape-padding:0;shape-margin:0;inline-size:0;isolation:auto;mix-blend-mode:normal"
     id="path20" /><path
     d="m 54.277,16.971 c 1.084,5.9217 1.7362,10.792 2.3848,15.652 l -6.4727,-5.3359 c 1.7941,5.521 3.7663,10.277 3.3906,16.008 -0.3605,5.5018 -3.2104,9.3574 -5.2891,14.23 -2.2413,5.254 -3.6583,10.758 -5.4297,16.186 -2.26,6.925 -11.028,10.922 -8.9004,19.209 1.817,7.0776 10.546,12.283 17.25,9.0898 2.4347,-1.1598 3.8446,-3.6888 5.793,-5.4805 2.4757,-2.2762 5.3191,-3.7747 8.0078,-5.7227 2.1993,-1.5935 4.2004,-3.468 5.9922,-5.5352 0.5909,-0.68181 1.4234,-1.953 2.3555,-1.207 5.265,4.213 3.6521,13.048 2.1172,18.639 -1.1524,4.1973 -3.3106,8.5285 -5.9434,11.916 -2.6819,3.4504 -5.9786,6.5646 -8.0469,10.494 -1.3749,2.6125 -2.023,5.2889 -2.332,8.0312 -0.45823,0.0421 -0.9561,0.0808 -1.3945,0.125 -13.33,3.64 -13.3,12.931 -13.27,23.621 v 3.6094 h 101.61 v -3.5996 c 0,-10.69 0.0607,-20.001 -13.279,-23.631 -0.3239,-0.035 -0.70172,-0.064 -1.0391,-0.0976 2.9947,-10.54 4.9132,-19.909 2.6172,-31.123 -1.0575,-5.911 -4.0421,-12.757 -8.0527,-17.133 l 9.5547,4.6523 c -0.4478,-3.4641 -2.0376,-6.8319 -3.3789,-9.6328 -2.986,-6.2358 -7.0922,-11.428 -11.969,-16.17 -1.952,-1.8984 -4.2142,-3.4359 -6.1328,-5.3516 2.8788,-0.71555 6.4804,0.49913 9.3691,0.88867 -6.582,-10.058 -24.386,-20.394 -42.592,-17.711 -1.166,0.18034 -4.5938,1.0694 -5.209,1.1074 0,0 -0.62653,-2.5654 -0.86914,-3.3184 -0.8071,-2.5032 -2.0249,-4.8827 -3.3652,-7.1133 -3.0974,-5.1555 -7.6218,-9.239 -12.535,-12.418 -1.5374,-0.9948 -3.198,-2.3435 -4.9414,-2.8789 z"
     fill="#f8f8f8"
     style="font-variation-settings:normal"
     id="path22" /><path
     d="m 67.447,62.372 -12,8.6502 c 1.0823,-4.7682 3.3566,-10.383 5.7142,-14.615 2.2663,1.1254 5.4531,3.416 6.2858,5.9657 z"
     fill="#1a1a1a"
     stroke="#000"
     stroke-width="1.24"
     id="path24"
     style="stroke:none;stroke-width:0;stroke-miterlimit:4;stroke-dasharray:none" /><path
     d="m 77.994,49.877 c -0.60471,-0.0044 -1.215,8.59e-4 -1.834,0.01758 0,0 36.398,4.7173 36.398,41.051 0,20.807 -11.328,28.792 -17.186,40.891 8.989,-0.005 17.928,0.17858 25.555,0.55859 2.3128,-7.9346 5.0547,-18.955 5.0547,-26.902 -0.009,-13.797 -9.8916,-55.341 -47.988,-55.615 z"
     opacity="0.2"
     stop-color="#000000"
     style="font-variation-settings:normal"
     id="path26" /><path
     class="clsN-4"
     d="m 77.144,78.239 c -2.1402,2.7271 -5.2023,5.9544 -5.3271,6.1011 2.1216,-0.34749 5.9081,3.2287 4.7539,13.935 3.3017,-10.304 3.2523,-23.452 0.57323,-20.036 z"
     opacity=".2"
     stop-color="#000000"
     style="font-variation-settings:normal"
     id="path28" /><path
     class="clsN-3"
     d="m 95.71,138.41 c 43.07,0 47.54,4.75 47.54,4.75 h 0.59 c -1.93,-10.18 -24.49,-11.3 -24.49,-11.3 H 72.24 c 0,0 -23.36,0.81 -24.66,11.3 h 0.59 c 0,0 4.47,-4.75 47.54,-4.75 z"
     id="path30" /><path
     class="clsN-6"
     d="m 56.09,131.63 c -5.78,1.84 -9.58,5 -11.57,9.54 -1.99,4.54 -2,9.68 -1.94,15.66 v 5.6 H 148.1 v -5.6 c 0,-6.07 0,-11.32 -2,-15.88 -2,-4.32 -5.44,-7.28 -10.8,-9.1 -13.621,-4.6079 -63.739,-5.1719 -79.21,-0.22 z m 74.32,3.09 c 14.575,1.983 13.69,11.63 13.69,23.76 H 46.54 c 0,-12 -0.68,-20.47 13.08,-23.63 26.765,-4.0908 49.134,-3.0763 70.79,-0.13 z"
     fill="#1a1a1a"
     id="path32" /></g></svg>
