<svg width="652" height="828" xmlns="http://www.w3.org/2000/svg"><path d="M327.49 41.24v.004c-11.38.142-22.628 4.395-30.887 12.309-20.624 19.76-18.281 54.105 4.744 69.516 3.219 2.154 5.244 4.083 4.5 4.287-21.173 5.818-36.116 11.514-44.363 16.908l-4.988 3.262-.274 16.133-.275 16.133 4.275 3.16c8.806 6.51 26.981 13.02 36.402 13.04 4.166.01 6.322 4.494 4.536 9.433-.64 1.77-1.165 4.36-1.165 5.757 0 2.371-.39 2.576-5.863 3.073-3.225.292-8.062 1.521-10.75 2.732-2.714 1.222-7.776 2.407-11.387 2.664-9.013.643-15.095 2.813-20.172 7.195-3.332 2.877-5.826 4.033-10.828 5.02-9.127 1.8-15.528 5.732-20.576 12.637-1.608 2.2-3.824 4.14-4.924 4.312-1.1.174-4.763 1.59-8.14 3.147l-6.139 2.832-4.57-4.647c-7.031-7.148-8.037-10.83-8.104-29.645-.038-10.917-.497-17.247-1.44-19.928-.953-2.711-13.445-17.654-40.331-48.238l-38.951-44.309-4.594 3.16c-18.253 12.56-44.117 36.963-58.578 55.27-4.759 6.026-8.652 11.308-8.652 11.739 0 .431 9.112 8.367 20.25 17.633a24118.617 24118.617 0 0 1 46.146 38.525c30.59 25.608 29.829 25.227 48.428 24.117 16.01-.956 22.745.71 29.422 7.277l4.744 4.67-5.133 4.488c-5.185 4.536-9.829 12.48-9.848 16.846-.005 1.238-.411 2.25-.902 2.25-.49 0-3.215 2.09-6.055 4.643-5.046 4.537-9.071 10.975-10.459 16.727-.38 1.577-2.253 4.502-4.162 6.5-5.04 5.273-8.516 12.966-9.183 20.322-.411 4.529-1.402 7.651-3.52 11.094-5.261 8.55-6.981 17.862-4.742 25.67.543 1.893.655 3.69.25 3.994-.406.303-1.49 2.182-2.41 4.176-1.613 3.492-1.895 3.64-7.764 4.064-9.102.659-13.165 4.281-11.635 10.377.841 3.352 7.707 6.726 12.713 6.248 2.656-.253 3.86.03 3.86.908 0 .844-1.506 1.278-4.436 1.278-7.812 0-12.564 2.986-12.564 7.896 0 5.261 8.213 9.812 15.189 8.416 2.145-.429 2.81-.183 2.81 1.037 0 1.222-.667 1.467-2.816 1.037-3.743-.748-10.798 1.228-13.295 3.725-3.115 3.115-2.197 7.775 2.111 10.709 3.084 2.1 4.289 2.319 10.121 1.85l6.621-.532.114 5.057c.069 3.07 1.102 7.218 2.629 10.553 1.66 3.625 2.515 7.262 2.515 10.69 0 7.603 2.48 14.723 7.211 20.708 2.55 3.226 4.304 6.576 4.514 8.617.886 8.64 7.134 19.356 13.57 23.27 2.127 1.294 3.503 3.413 4.9 7.553 2.644 7.831 7.112 14.02 12.664 17.537 2.65 1.679 5.63 4.695 6.95 7.039l2.308 4.102-2.394 2.617c-1.318 1.439-8.658 9.557-16.311 18.039-7.654 8.482-15.6 17.257-17.66 19.5L147 603.5l-3.527-4c-9.058-10.27-22.854-27.934-28.898-37l-6.668-10 6.043-1.75c3.324-.963 8.835-2.545 12.246-3.516l6.203-1.765-5.453-3.98c-25.655-18.73-53.653-47.385-65.359-66.888-2.112-3.52-3.728-5.334-4.006-4.5-1.285 3.862-3.655 18.122-5.15 30.99-1.973 16.98-1.515 43.262.996 57.168 1.909 10.574 6.613 25.283 10.432 32.617l2.799 5.375 2.855-4.875c1.57-2.682 4.506-7.433 6.524-10.557l3.668-5.678 6.338 10.178c8.444 13.562 16.638 25.038 26.623 37.287l8.24 10.11-22.014 24.39c-21.66 23.998-22.011 24.455-21.55 28.182.682 5.496 3.037 8.468 7.698 9.723 5.33 1.436 6.534.867 12.453-5.9 4.56-5.214 30.345-33.906 34.668-38.578 1.789-1.933 2.044-1.745 15.076 11.195 7.29 7.239 16.181 15.5 19.756 18.36 15.094 12.076 39.702 26.568 58.5 34.452 12.486 5.236 38.85 13.415 51.475 15.969 15.802 3.196 25.049 8.828 35.279 21.49 6.472 8.01 11.801 18.032 13.859 26.062.696 2.716 1.368 4.937 1.494 4.937.126 0 1.398-3.508 2.826-7.797 3.68-11.049 8.906-19.47 17.627-28.39 9.233-9.444 17.606-13.762 32.48-16.75 17.946-3.607 45.584-13.246 63.068-21.999 29.172-14.603 48.702-28.995 70.2-51.732l11.892-12.578 21.4 23.707 21.398 23.71 4.368-.475c5.615-.611 9.09-3.967 9.832-9.492.549-4.096.528-4.127-13.23-19.402-21.195-23.531-22.54-25.011-26.78-29.48l-3.962-4.175 1.886-2.463a2322.53 2322.53 0 0 1 8.694-11.162c7.008-8.958 15.497-21.313 22.172-32.271 2.093-3.438 4.08-6.247 4.414-6.244.334.003 3.231 4.278 6.44 9.5 3.207 5.222 6.173 9.494 6.591 9.494s2.393-3.488 4.387-7.75c11.514-24.615 14.322-62.27 7.619-102.12-3.017-17.934-2.666-17.58-8.404-8.52-11.344 17.908-31.272 38.948-54.285 57.318-7.843 6.26-14.082 11.557-13.867 11.771.214.215 5.22 1.698 11.127 3.295s10.964 3.132 11.24 3.408c.929.93-10.902 17.974-22.498 32.412-6.326 7.877-11.817 13.951-12.205 13.5-.388-.451-8.88-9.899-18.871-20.994-9.992-11.095-18.166-20.63-18.166-21.19s.948-1.685 2.107-2.497c3.801-2.662 9.885-11.742 10.518-15.693.482-3.015 1.472-4.433 4.617-6.613 5.336-3.697 10.261-10.314 12.346-16.59.936-2.817 3.614-7.471 5.951-10.342 5.124-6.29 8.463-14.725 8.463-21.379 0-2.697.46-5.188 1.022-5.535s2.45-3.411 4.195-6.809c2.814-5.48 3.164-7.08 3.102-14.178-.04-4.4-.24-8.9-.446-10-.347-1.856.079-1.975 5.897-1.648 6.41.36 9.998-.964 12.947-4.777 3.31-4.28-.748-9.65-8.748-11.582-3.169-.766-4.419-1.368-2.97-1.43 3.833-.164 10.702-3.637 12.005-6.07 2.619-4.893-2.752-10.98-9.695-10.988-1.755-.002-3.469-.454-3.809-1.004-.351-.569.5-1 1.973-1 3.962 0 9.183-2.546 11.043-5.385 3.812-5.818-2.428-11.615-12.5-11.615h-5.516v-9.75c0-7.919-.405-10.595-2.152-14.25-1.321-2.763-2.325-7.208-2.6-11.516-.534-8.369-3.446-15.547-8.35-20.58-1.926-1.977-3.384-4.002-3.241-4.5.594-2.08-1.373-9.898-3.592-14.277-2.32-4.58-10.488-13.127-12.543-13.127-.562 0-1.026-1.013-1.031-2.25-.028-6.241-9.768-20.172-15.873-22.701-1.903-.788-3.606-2.823-5.184-6.192l-2.35-5.015 4.457-3.932c6.852-6.043 12.544-7.326 28.938-6.521 19.73.968 19.415 1.109 43.021-18.99 26.915-22.917 36.313-30.858 54.311-45.896 8.557-7.15 15.587-13.368 15.623-13.818.115-1.426-11.906-17.764-21.47-29.182-10.649-12.711-21.64-23.49-36.474-35.768-9.846-8.15-10.587-8.576-12.119-6.957-.897.948-15.25 17.475-31.896 36.725s-32.907 37.986-36.135 41.635c-12.533 14.166-12.89 15.117-12.77 34.264.115 18.226-.97 21.92-8.746 29.777-5.146 5.2-9.326 7.41-9.326 4.931 0-.49-2.046-3.167-4.547-5.949-4.363-4.852-13.256-10.158-17.027-10.158-.935 0-3.687-1.833-6.117-4.072-6.441-5.937-13.454-8.906-21.059-8.918-3.438-.005-6.25-.398-6.25-.871 0-.474-2.813-2.386-6.25-4.25-5.855-3.175-6.882-3.397-16.25-3.5-14.15-.157-15.092-.524-16.51-6.434-1.23-5.13-.663-10.177 1.324-11.762.652-.52 3.87-1.27 7.15-1.668 12.003-1.453 29.36-8.515 34.575-14.066 2.094-2.23 2.305-3.553 2.746-17.275.47-14.652.443-14.893-1.905-17.09-5.789-5.417-26.544-14.077-45.78-19.102l-4.401-1.15 4.947-2.826c15.237-8.703 23.564-29.377 19.293-47.904-2.872-12.46-13.072-25.224-24.438-30.584-6.303-2.973-13.178-4.369-20.006-4.284zm.973 22.471c2.654.06 5.376.613 8.074 1.74 18.634 7.784 18.47 34.352-.26 42.201-4.515 1.892-13.036 1.644-17.78-.517-5.347-2.435-11.127-9.031-12.556-14.328-4.154-15.4 8.19-29.423 22.521-29.096zm-32.826.57c.557.052-.127 1.542-2.319 6.328-3.466 7.572-4.272 18.612-1.941 26.63.89 3.062 1.619 5.838 1.619 6.165s-.378.596-.84.596c-2.47 0-5.63-14.265-4.744-21.42.864-6.984 4.467-16.446 6.72-17.652.742-.396 1.251-.67 1.505-.646zm56.914 8.078c.358-.113 1.147.747 2.316 2.67 4.278 7.034 3.087 20.402-2.465 27.682-1.38 1.81-2.935 3.29-3.457 3.29-1.406 0-1.173-.877 1.073-4.03 4.92-6.91 6.217-16.252 3.406-24.53-1.08-3.181-1.333-4.936-.873-5.081zm195.91 44.06c1.038-.062 1.703.692 1.142 2.154-.289.753-7.408 9.335-15.818 19.068-48.593 56.236-55.816 64.902-56.893 68.277-.628 1.97-1.538 4.009-2.021 4.53-1.43 1.545-1.023-4.17.566-7.974.795-1.903 13.262-17.3 27.705-34.217 34.132-39.979 40.318-47.258 42.62-50.166.857-1.084 1.89-1.626 2.698-1.673zM387.49 147.8c5.878-.016 6.5.1 6.5 1.2 0 .656-21.822 1-63.467 1h-63.467l-.284 11.168c-.198 7.836-.656 11.293-1.533 11.584-.955.317-1.25-2.547-1.25-12.168V148l59.75-.094c32.862-.052 61.55-.1 63.75-.106zM48.68 177.018c1.701-.335 8.746 5.156 36.943 28.535 19.728 16.358 38.497 31.993 41.71 34.744 3.214 2.752 8.39 6.049 11.5 7.329l5.659 2.328-4.5-.008c-2.475-.004-5.4-.515-6.5-1.137-1.1-.622-8.075-6.149-15.5-12.281-25.528-21.085-58.51-48.134-64.717-53.074-5.213-4.149-6-5.165-4.871-6.295a.522.522 0 0 1 .275-.14zm249.61.137c8.416-.003 19.189.031 32.953.088 40.662.168 62.25.605 62.25 1.258s-21.588 1.09-62.25 1.258c-55.056.227-62.25.082-62.25-1.258 0-1.005 4.046-1.338 29.297-1.346zm-179.03 10.371c.47-.022 8.55 7.499 23.23 21.633 14.546 14.005 19.224 16.074 28.025 12.396l3.459-1.447-1.993 3.906c-1.096 2.148-1.992 5.464-1.992 7.37 0 3.786.858 5.013 12.842 18.366 4.072 4.538 7.212 8.25 6.977 8.25-.236 0-4.904-3.977-10.373-8.838-5.47-4.86-10.928-9.36-12.13-10-3.175-1.69-6.873-1.43-11.224.79l-3.824 1.952 1.32-3.703c2.86-8.009 1.04-12.779-8.83-23.164-18.591-19.56-23.404-24.72-25.223-27.037-.246-.313-.333-.471-.266-.474zm416.92 1.08c.078.253-4.243 4.872-13.898 14.961-10.563 11.037-19.675 21.305-20.25 22.816-1.45 3.814-1.306 8.06.416 12.18l1.46 3.496-2.21-1.554c-3.57-2.51-9.159-3.665-12.176-2.518-1.463.556-7.134 4.863-12.6 9.568-5.466 4.706-9.938 8.273-9.938 7.928s.563-1.206 1.25-1.918c2.388-2.47 10.271-11.099 14-15.322 4.402-4.985 4.956-9.751 1.746-15.016-2.589-4.247-2.55-4.349 1.024-2.566 3.656 1.824 10.938 1.964 14.143.271 2.26-1.194 11.376-9.171 32.34-28.305 3.009-2.746 4.638-4.165 4.693-4.021zm-227.5 13.531h.002c1.325.006 2.647.735 3.668 2.293 2.027 3.095 3.005 9.627 1.726 11.545-.836 1.255-1.336 1.141-3.36-.76-3.783-3.554-3.893-1.45-.179 3.416 5.893 7.72 6.566 15.633 1.563 18.311-2.305 1.234-4.164 1.33-5.713.295-1.713-1.143-3.402-4.865-3.367-7.418.03-2.28.053-2.285 1.517-.316 3.335 4.485 4.554 5.553 5.604 4.904.745-.46.618-.953-.393-1.52-3.86-2.16-8.039-18.66-6.39-25.228.885-3.528 3.112-5.529 5.322-5.522zm17.686.864c3.597 0 6.623 4.326 6.623 9.468 0 5.356-.788 6.079-3.672 3.37-2.98-2.8-4.35-1.556-1.56 1.415 2.93 3.121 6.184 10.637 6.21 14.342.012 1.752-.772 3.814-1.807 4.75-2.025 1.833-7.692 2.238-8.69.622-1.264-2.044-2.318-6.95-1.59-7.399.408-.252 1.525.866 2.482 2.486s2.458 2.946 3.338 2.946c1.425 0 1.414-.205-.11-1.889-2.442-2.699-5.476-11.189-6.201-17.359-.828-7.048 1.397-12.75 4.977-12.75zm19.809.117c1.248.088 2.49.927 3.742 2.517 2.027 2.577 2.764 8.402 1.484 11.736-.474 1.237-1.041 1.01-2.916-1.168-1.28-1.486-2.666-2.364-3.082-1.949-.415.415.171 1.765 1.303 3 5.524 6.03 7.956 15.93 4.71 19.174-.863.864-3.098 1.572-4.964 1.572-3.925 0-5.486-2.07-5.418-7.183l.043-3.317 1.98 3.75c1.338 2.534 2.668 3.75 4.102 3.75 2.053 0 2.04-.077-.385-2.324-5.513-5.11-8.38-23.15-4.38-27.57 1.278-1.412 2.533-2.076 3.78-1.988zm26.154 13.893c3.524.01 13.66 4.36 13.66 5.861 0 .53-2.272 1.451-5.05 2.047-8.993 1.929-20.41.961-21.92-1.858-.834-1.56-.208-2.097 4.59-3.933 3.057-1.17 6.98-2.122 8.72-2.117zm-79.725 1.006c5.888.023 7.164 1.297 3.726 3.722-4.679 3.302-13.516 7.475-18.844 8.9-8.474 2.268-8.756 1.796-2.644-4.412 6.017-6.111 10.622-8.239 17.762-8.21zm-24.36 5.619c.756.011 1.358.126 1.739.361 1.798 1.111-10.616 11.721-17.629 15.068-7.215 3.444-8.887 3.71-7.414 1.186 3.146-5.392 7.074-10.022 10.58-12.471 3.322-2.32 9.453-4.196 12.725-4.145zM337.438 225c.61 0 1.052 2.314 1.052 5.496 0 3.023-.45 5.499-1 5.5s-1.023-2.474-1.052-5.498c-.031-3.217.384-5.496 1-5.496zm-18.697 1c.412 0 .75 2.25.75 5s-.338 5-.75 5-.75-2.25-.75-5 .337-5 .75-5zm81.543.248c1.731-.015 3.123.393 5.59 1.213 2.848.946 6.57 2.89 8.271 4.322 2.81 2.365 2.924 2.671 1.22 3.34-4.642 1.824-17.968.102-25.44-3.29l-5.327-2.417 8.05-1.838c3.832-.875 5.904-1.315 7.636-1.33zm-45.105 1.818 9.654.608c7.118.449 10.846 1.203 14.18 2.869 5.48 2.738 16.575 6.457 19.264 6.457 1.075 0 5.852 2.471 10.617 5.492 4.765 3.02 11.574 6.452 15.131 7.625 4.384 1.446 7.916 3.487 10.967 6.338 5.7 5.327 11.614 9.818 15.641 11.877 1.727.883 4.552 3.532 6.277 5.887 4.17 5.69 13.86 15.539 17.281 17.56 1.509.892 3.444 3.373 4.301 5.516 2.134 5.333 8.014 14.478 12.027 18.707 1.994 2.102 4.18 6.098 5.47 10 1.182 3.575 3.868 9.707 5.968 13.625 2.1 3.919 4.128 9.094 4.51 11.5 1.269 8.008 3.665 16.32 6.109 21.207 1.795 3.59 2.416 6.466 2.416 11.19 0 3.497-.338 6.557-.75 6.8-1.45.854-6.764 1.533-8 1.023-.688-.283-1.26-1.94-1.272-3.681-.012-1.742-.914-7.216-2.006-12.166-10.998-49.878-41.787-91.641-86.422-117.23-16.402-9.402-40.526-18.021-58.05-20.74l-4-.621.343-4.922zm-57.164.032c1.754-.031 2.74.349 2.408 1.214-.318.829-.132 3.122.414 5.098.904 3.274.802 3.631-1.176 4.025-19.364 3.86-33.48 8.446-48.449 15.738-43.445 21.167-76.175 58.741-91.248 104.76-2.24 6.837-4.816 16.961-5.726 22.5-.911 5.54-1.677 10.13-1.702 10.203-.178.531-6.5 1.025-8.402.657-2.07-.4-2.276-.844-1.69-3.623 1.796-8.497 2.603-15.31 2.067-17.445-.368-1.468.137-3.566 1.336-5.541 2.303-3.794 6.604-15.695 7.545-20.877.37-2.035 3.127-7.613 6.129-12.395 3.002-4.782 6.235-11.217 7.183-14.301 1.28-4.158 3.34-7.4 7.977-12.537 3.439-3.811 7.474-9.261 8.967-12.111 1.748-3.339 4.16-6.102 6.779-7.764 4.924-3.126 16.348-14.435 18.252-18.068.757-1.444 1.966-2.625 2.686-2.625 2.026 0 17.71-9.709 21.627-13.387 1.925-1.808 5.525-3.855 8-4.55 4.316-1.214 15.759-6.333 21-9.393 1.375-.803 5.834-1.969 9.908-2.59 4.074-.622 10.149-2.307 13.5-3.746 4.637-1.992 9.693-3.187 12.617-3.239zm-57.971 8.105c.315.005.529.047.613.13.822.823-4.05 7.146-9.762 12.667-4.863 4.7-14.906 10.844-14.906 9.117 0-.55.448-1.276.996-1.615.549-.339 1.95-2.83 3.114-5.535 2.752-6.4 9.09-12.2 15.188-13.906 1.964-.55 3.815-.872 4.76-.856zm182.75 3.604c4.87.052 7.066.576 9.199 1.9 3.356 2.084 7.953 6.39 9.121 8.543 1.236 2.279-.364 2.23-10.021-.299-6.86-1.796-12.711-4.57-17.6-8.344-1.874-1.446-1.621-1.555 4-1.726a178.16 178.16 0 0 1 3.041-.07c.812-.011 1.564-.012 2.26-.005zm-212.14 15.342c.17-.007.318.01.435.048 1.903.635-8.042 15.603-13.742 20.684-3.16 2.817-6.027 5.121-6.37 5.121-1.262 0 4.13-14.452 6.599-17.689 2.318-3.039 10.513-8.062 13.078-8.162zm228.6.335c.494-.017 1.65.203 2.988.586 1.784.512 4.722.93 6.531.93 6.597 0 14.588 5.025 17.814 11.201.776 1.485 1.41 2.948 1.41 3.25 0 .862-1.071.603-7.61-1.828-3.363-1.25-8.088-3.464-10.5-4.922-4.146-2.504-10.89-8.15-10.89-9.117 0-.061.091-.094.256-.1zm-253.14 19.156c.403-.032.606.199.697.659.481 2.43-4.723 14.7-8.363 19.72-1.802 2.486-4.25 5.398-5.438 6.473l-2.16 1.956.523-2.473c.288-1.36.801-5.037 1.141-8.172.73-6.729 3.243-10.868 9.498-15.643 2.199-1.678 3.43-2.465 4.102-2.52zm278.38 2.254c1.056.08 3.665.746 6.695 1.739 8.112 2.657 12.676 6.406 15.9 13.066 1.141 2.357 1.923 4.744 1.736 5.304-.649 1.947-13.13-6.54-18.963-12.896-3.228-3.517-5.869-6.718-5.869-7.113 0-.05.05-.08.147-.096.084-.013.202-.015.353-.004zm-134.9 4.606c9.4.024 18.77 1.046 27.955 3.049-9.597-.128-24.798 7.64-25.281 7.906 0 0-28.684 16.854-40.303 27.1-3.428 3.022-12.453 11.993-15.1 15.008-10.345 11.785-17.327 22.005-24.443 35.779-2.307 4.465-5.84 12.393-6.823 15.31-1.291 3.836-1.178 7.41.276 8.634.834.702 3.657 1.417 7.86 1.99 1.554.212 3.472.502 4.263.644.79.143 1.485.213 1.543.155.058-.058-.349-.647-.903-1.309-1.244-1.486-2.282-3.5-2.683-5.201-.583-2.476.616-5.376 6.02-14.568 9.624-16.374 25.862-34.763 42.026-47.592 6.755-5.362 16.03-11.77 21.875-15.11 1.487-.849 3.424-1.956 4.303-2.462 5.037-2.902 14.95-7.609 21.508-10.211 7.77-3.083 22.664-8.116 27.934-9.195a132.732 132.732 0 0 1 36.787 22.689c.189.203.295.342.295.398 0 .26-.33.366-2.336.752-9.607 1.851-21.255 6.531-30.725 12.344l-3.82 2.346c-1.494.917-4.804 3.128-6.334 4.232-.364.262-2.261 1.644-4.217 3.07-1.955 1.427-3.68 2.594-3.832 2.594-.152 0-.6-.58-.992-1.29-.598-1.081-.736-1.673-.858-3.628-.18-2.901-.89-4.857-2.312-6.363-.832-.88-1.143-1.058-1.625-.937-.344.086-2.309 1.988-4.648 4.5a86046.34 86046.34 0 0 0-13.393 14.377c-13.786 14.804-17.478 18.668-17.832 18.668-1.33 0 2.806-8.17 8.09-15.982 5.15-7.617 10.091-13.525 17.661-21.12 3.154-3.163 5.69-5.796 5.635-5.851-.055-.055-1.36.605-2.896 1.467-12.732 7.139-23.113 15.322-30.801 24.275-3.77 4.39-5.942 7.625-9.48 14.137-1.397 2.57-3.11 5.725-3.811 7.01-6.212 11.395-10.472 16.787-16.344 20.695-2.411 1.604-7.089 3.866-10.324 4.99-1.42.493-2.858 1.084-3.196 1.314-.611.416-.607.417 1.106.57 5.706.51 16.249.098 20.279-.795 1.873-.414 6.681-1.955 8.197-2.625 1.286-.568 1.523-.602 2.215-.32 8.625 3.512 19.865 3.297 28.822-.555 1.85-.795 5.386-2.65 9.928-5.205 7.845-4.411 15.819-8.645 19-10.09l4.6-2.088c2.794-1.266 8.992-3.626 12.778-4.867 14.442-4.73 29.318-6.603 42.28-5.32 4.513.447 10.65 1.414 13.397 2.111 2.56.65 7.563 2.096 8.97 2.594 2.252.796 4.177 1.506 5.02 1.898A132.746 132.746 0 0 1 462 413.41l.002.842c0 4.315-.21 8.628-.63 12.922a27.39 27.39 0 0 1-1.42-1.195c-7.56-6.77-13.274-10.622-20.515-13.822-4.68-2.07-12.064-4.102-14.168-3.9-.818.078-.811.087.895 1.035 14.749 8.19 25.944 22.169 30.867 38.547.218.725.237.75.353 1.115a132.76 132.76 0 0 1-27.146 51.465c-.005-.188-.02-.209-.02-.475 0-.668-.108-3.46-.241-6.207-1.255-25.9-5.222-43.912-12.936-58.713-6.246-11.984-14.971-20.319-26.273-25.102-2.61-1.104-3.582-1.416-8.237-2.658-6.457-1.723-18.138-2.197-27.859-1.127-12.443 1.37-28.523 5.943-38.584 10.971-4.902 2.45-6.193 4.168-4.12 5.477 1.26.796 1.41 1.083.788 1.52-.283.198-1.984 1.54-3.777 2.982-24.401 19.623-39.964 39.048-45.805 57.168-.382 1.183-.82 2.15-.973 2.15-.153 0-.935-.692-1.736-1.537-8.168-8.62-13.814-18.821-16.293-29.443-1.65-7.073-2.238-11.884-2.238-18.305 0-9.13 1.898-20.214 5.03-29.381.467-1.363.678-2.102.556-2.178-.158-.097-.871.903-2.313 3.096-7.096 10.793-11.537 22.255-12.594 32.506-.68 6.594-.556 10.758.502 17.061 2.453 14.611 10.985 29.39 24.543 42.516 3.116 3.017 7.982 7.173 8.738 7.463.327.125.936-1.422 2.485-6.305 7.946-25.054 21.266-47.099 36.84-60.973 13.663-12.17 28.13-19.346 45.475-22.553 4.824-.892 5.033-.91 11.184-.922 5.57-.01 6.583.05 9.095.55 10.33 2.051 17.907 5.771 24.221 11.89 3.178 3.08 4.515 4.754 6.735 8.436 5.304 8.797 7.477 19.513 7.482 36.893.003 8.658-.513 15.674-1.838 24.959-1.066 7.473-3.846 19.886-5.422 24.213l-.228.625a132.717 132.717 0 0 1-19.217 10.529 5.41 5.41 0 0 1 .369-.742c.76-1.312 2.699-5.71 4.316-9.791 3.744-9.443 6.41-20.341 7.819-31.965.8-6.598.537-16.89-.639-25.025-.131-.91-.24-1.8-.242-1.977-.002-.133-.053-.218-.123-.225a.126.126 0 0 0-.076.022c-.106.065-.22 1.426-.254 3.025-.152 7.119-1.817 15.863-4.393 23.072-5.666 15.861-17.442 32.131-33.629 46.457-2.493 2.207-7.926 6.643-9.027 7.371a132.756 132.756 0 0 1-16.777 1.229c.048-.23.55-.58 1.273-1.09.784-.552 2.86-2.008 4.615-3.234 5.756-4.022 10.521-8.137 16.23-14.02 4.206-4.334 5.234-5.533 9.079-10.576 4.812-6.314 8.192-11.7 12.074-19.25 2.552-4.964 3.693-7.508 3.36-7.493-.099.005-1.175 1.296-2.392 2.87-10.583 13.689-21.456 23.328-34.904 30.947-11.54 6.538-26.312 11.392-39.207 12.88-3.868.447-11.529.994-13.928.997-1.638 0-3.063-.211-5.1-.922 1.95.773 3.917 1.499 5.897 2.177.14.048.28.092.42.14l-.42-.14c-54.202-17.935-90.866-68.517-91.047-125.61-.231-73.233 58.886-132.82 132.12-133.17.323-.002.646-.002.969-.002zm155.91 19.836c1.587.042 9.928 4.907 12.822 7.57 3.88 3.571 6.397 7.879 7.52 12.875.52 2.321.587 4.22.146 4.22-1.722 0-12.092-9.294-14.822-13.284-3.566-5.213-6.453-10.76-5.891-11.322.042-.042.119-.062.225-.059zm-319.54.664v.002c.98 0-1.25 11.919-3.29 17.592-.809 2.25-2.858 6.3-4.552 9l-3.082 4.908-.018-8.933c-.015-7.03.424-9.851 2.059-13.23 1.929-3.984 7.022-9.34 8.883-9.34zm-16.926 24v.002c1.824 0 1.096 17.281-.983 23.322-3.241 9.42-3.503 9.488-5.414 1.385-1.3-5.513-1.502-8.401-.805-11.504 1.04-4.623 5.72-13.205 7.202-13.205zm351.66 1.672 3.898 2.857c9.738 7.138 13.086 12.015 14.096 20.541.365 3.08.198 4.932-.441 4.932-3.08 0-14.98-18.08-16.877-25.641zm-77.328 1.002v.002c3.53-.002 6.703.086 7.593.258a132.764 132.764 0 0 1 16.336 24.58c-.439-.114-1.023-.24-2.75-.645-4.134-.968-6.85-1.423-10.148-1.7-1.825-.152-3.468-.329-3.652-.392-.792-.269-11.317-.096-15.029.246-16.173 1.492-31.58 6.943-47.316 16.742-3.794 2.363-4.275 2.334-2.8-.177 2.167-3.692 4.846-7.209 8.89-11.67 3.946-4.353 9.09-8.84 13.152-11.47 2.745-1.775 2.342-2.074-1.666-1.238-7.686 1.604-14.283 4.81-22.58 10.977-3.736 2.777-3.84 2.93-4.692 6.899-.873 4.074-2.597 8.07-4.693 10.879-1.902 2.55-9.47 8.481-15.6 12.223-3.587 2.19-9.567 4.11-14.328 4.603-4.269.443-8.444.065-8.603-.78-.115-.606 1.709-3.718 3.916-6.68 5.564-7.471 15.6-16.77 27.742-25.708 1.69-1.243 3.805-2.802 4.7-3.463.897-.66 1.988-1.387 2.425-1.613 1.327-.686 2.752-.081 3.828 1.623l.629.998 1.154-1.064c1.04-.961 2.755-2.292 6.312-4.89 2.679-1.958 10.408-6.513 14.162-8.348 5.64-2.757 12.34-5.31 18.285-6.963 5.621-1.564 8.096-2.04 15.115-2.918 1.64-.205 5.774-.31 9.618-.31zm87.75 26.533v.002c.515.013 2.765 1.971 5.447 4.783 5.855 6.139 8.442 11.955 8.412 18.918-.024 5.609-1.335 6.818-3.723 3.434-4.83-6.847-10.17-20.927-10.246-27.02 0-.081.036-.12.11-.118zm-373.09.314v.002c1.466.002 3.25 13.525 2.611 20.361-.332 3.56-1.176 6.834-1.875 7.278-2.093 1.328-2.479 1.022-4.295-3.412-2.452-5.988-2.302-14.255.352-19.432 1.179-2.3 2.558-4.44 3.066-4.754a.265.265 0 0 1 .14-.043zm210.95 4.055c-.155.025-1.019.649-2.008 1.455-2.815 2.294-9.332 7.696-10.893 9.03a79.156 79.156 0 0 1-2.457 2.01c-1.185.914-7.262 5.97-7.85 6.529-.303.288-.216.393.615.75.533.228 1.353.493 1.827.587.473.095 2.123.114 3.666.043 4.398-.202 10.177-2.245 14.062-6.42 3.873-3.876 3.884-3.897 3.455-9.9-.156-2.183-.334-4.019-.395-4.08-.004-.004-.013-.005-.023-.004zM338.8 370.431h.045a2.681 2.681 0 0 1 1.632.51l.012.011c1.134.847 1.287 2.425.342 3.528-.945 1.101-2.628 1.31-3.764.469-1.137-.843-1.296-2.42-.355-3.526a2.862 2.862 0 0 1 2.088-.992zm177.89 22.707c.201.006.399.022.59.049 1.983.282 1.816.558-1.526 2.533-2.062 1.219-3.75 2.984-3.75 3.924 0 1.46.345 1.383 2.389-.537 5.104-4.796 20.97-7.662 26.61-4.809 3.99 2.018 3.468 6.707-1 9.002-2.233 1.148-4.719 1.615-6.872 1.293-4.597-.688-5.023-1.405-2.127-3.59 4.18-3.153 1.41-3.377-3.18-.256-2.376 1.616-5.85 3.46-7.719 4.098-3.93 1.34-4.798 1.355-7.822.139-2.29-.922-3.721-4.447-3.105-7.645.4-2.076 4.49-4.29 7.511-4.2zm-395.73.818c1.613-.036 3.217.176 4.515.674 1.44.553 1.368.912-.59 2.996-2.514 2.676-1.881 4.519.674 1.963 5.406-5.406 15.17-7.242 17.887-3.363 3.29 4.695.463 9.791-5.416 9.765-2.517-.01-2.514-.02.723-2.572 1.787-1.409 3.235-3.315 3.219-4.238-.028-1.52-.127-1.512-1.055.082-.564.968-2.638 2.433-4.611 3.258-8.401 3.51-18.432 3.485-22.344-.055-2.532-2.291-2.473-3.905.23-6.424 1.365-1.271 4.079-2.025 6.768-2.086zm139.67 9.828c-1.035 0-5.489 6.524-6.758 9.899-.802 2.131-1.367 4.995-1.367 6.935 0 1.197.086 1.61.336 1.61.184 0 1.43-1.513 2.765-3.363 2.924-4.05 6.127-7.496 7.893-8.493.713-.402 1.295-.86 1.295-1.015 0-.156-.235-.673-.524-1.147-.648-1.064-3.414-4.426-3.64-4.426zm246.63 3.264c.137.024 2.364.601 4.949 1.283l4.7 1.24-4.464 1.036c-2.454.57-4.681.816-4.949.549-.49-.49-.703-4.19-.236-4.108zm-357.35.072c.891.112 1.097.72 1.097 1.883 0 1.1-.413 2-.918 2-.505 0-1.517.206-2.25.457-.732.252-2.646-.104-4.252-.79l-2.918-1.249 4.036-1.209c2.737-.82 4.313-1.203 5.205-1.092zm384.01 4.213c1.536.029 2.94.21 4.123.565 4.652 1.394 6.546 4.14 4.933 7.154-1.773 3.314-8.895 5.07-13.455 3.32-1.409-.54-1.251-1.04 1.106-3.5 3.462-3.613 1.239-3.775-2.98-.216-1.73 1.458-4.594 3.258-6.364 4-5.01 2.1-9.897 1.734-11.725-.875-3.78-5.397-.314-10.336 6.943-9.893 1.661.102 1.468.446-1.14 2.037-1.728 1.054-3.46 2.434-3.85 3.065-1.174 1.9.354 2.443 2.235.794 4.376-3.837 13.517-6.573 20.174-6.45zm-414.31 1.051a9.493 9.493 0 0 1 3.828.594l2.855 1.086-2.32 2.47c-3.127 3.329-1.441 3.106 4.03-.53 3.368-2.24 5.662-2.994 9.126-2.997 4.818-.004 6.531 1.113 6.89 4.496.448 4.202-.114 5.339-3.165 6.403-5.726 1.996-6.808.683-1.852-2.244 1.65-.975 3-2.235 3-2.8 0-.564-.337-.853-.75-.642-11.817 6.056-21.85 7.501-26.5 3.817-3.162-2.506-3.509-5.04-1-7.301 1.593-1.436 3.702-2.247 5.858-2.352zm30.424 12.941c1.736.055 2.635 2.643.865 3.764-2.202 1.394-8.897.615-8.897-1.035 0-.441 1.238-1.05 2.75-1.356s3.535-.858 4.493-1.228c.277-.108.54-.153.789-.145zm358.06 1.39c.142-.004.292.002.447.02 1.079.128 3.625.366 5.658.53 4.523.364 6.26 1.734 2.219 1.75-1.604.006-4.65.296-6.768.646-3.418.565-3.807.422-3.46-1.262.215-1.047.905-1.647 1.904-1.683zm-370.6 3.288c4.482 0 5.846.974 6.8 4.86.741 3.015-3.156 7.14-6.746 7.14-3.296 0-3.213-.603.334-2.438 2.66-1.375 4.732-4.284 3.75-5.265-.23-.23-1.531.697-2.894 2.06-1.363 1.363-4.225 2.995-6.358 3.625-7.107 2.102-15.627 2.355-18.127.54-2.53-1.838-2.968-5.682-.847-7.442 2.478-2.056 7.565-3.044 10.31-2l2.579.98-2.32 2.471c-3.225 3.432-1.815 3.083 4.166-1.031 3.863-2.658 6.114-3.5 9.353-3.5zm395.94.348c5.055.064 9.875 2.152 10.355 4.74.807 4.344-7.014 8.083-13.484 6.447l-2.805-.709 2.857-2.287c4.759-3.807 1.398-3.673-4.107.164v-.002c-6.817 4.751-14.142 5.717-16.613 2.19-3.491-4.985-.592-9.895 5.836-9.887l3.027.004-3.14 1.914c-3.434 2.093-4.896 3.874-3.956 4.814.333.333 1.615-.326 2.85-1.465 2.79-2.57 10.113-5.077 17.01-5.822.72-.078 1.448-.11 2.17-.101zm-13.143 13.119c.92.04 1.617 1.493 3.216 5.79 1.27 3.41 1.611 6.307 1.207 10.22-.655 6.348-5.107 15.038-6.09 11.887-2.824-9.06-2.445-25.62.63-27.52.398-.247.73-.391 1.037-.377zm-385.59.044c.581-.065 1.482 1.3 3.748 4.842 4.562 7.133 6.156 10.86 7.97 18.637.771 3.306 1.331 6.001 1.243 5.99-1.11-.134-10.943-10.623-12.152-12.96-2.06-3.985-2.963-11.785-1.737-15.009.345-.907.58-1.46.928-1.5zm370.61.483-.004.006c.528 0 2.639.503 4.69 1.117l3.728 1.117-.284 6.633c-.208 4.88-1.111 8.444-3.42 13.488-1.725 3.771-3.944 10.071-4.931 14-.987 3.929-3.195 9.208-4.904 11.73-3.741 5.52-10.186 18.745-10.186 20.9 0 .85-2.274 4.011-5.053 7.027-2.78 3.016-6.797 8.185-8.926 11.484-4.248 6.586-4.365 6.71-14.689 15.412-3.942 3.323-8.442 7.864-10 10.094-1.98 2.836-5.108 5.253-10.408 8.045-4.167 2.195-10.379 6.25-13.807 9.012-3.949 3.182-8.865 5.966-13.424 7.602-7.84 2.812-14.34 5.859-16.693 7.82-.825.688-3.525 1.549-6 1.916-8.09 1.2-17.409 3.812-22.217 6.228-5.75 2.89-14.214 3.3-15.197.737-.556-1.451.203-8.366.918-8.366 3.275 0 23.27-5.032 32.164-8.094 52.935-18.222 93.91-59.728 111.33-112.77 2.155-6.562 4.466-14.902 5.135-18.535.67-3.632 1.65-6.605 2.178-6.605zm-354.66.228c2.417.153 3.458 2.078 4.318 6.577 3.517 18.392 14.543 44.264 26.545 62.293 24.62 36.982 67.146 65.863 109.54 74.395 4.645.934 8.725 1.994 9.066 2.355.342.36.895 2.794 1.231 5.406.336 2.613.28 4.698-.121 4.635s-2.53-.486-4.73-.941-6.087-.853-8.637-.885c-2.952-.037-6.951-1.14-11-3.031-3.5-1.635-9.814-3.834-14.03-4.885-4.215-1.052-9.165-3.044-11-4.426-4.273-3.22-16.441-9.366-20.333-10.27-1.65-.383-4.575-2.14-6.5-3.904-5.732-5.255-12.232-10.222-16.717-12.77-2.318-1.316-5.87-4.617-7.897-7.334-5.183-6.95-10.224-12.162-14.914-15.426-2.88-2.004-5.114-4.947-7.846-10.328-2.1-4.139-6.041-10.283-8.76-13.656-3.334-4.138-5.924-8.846-7.96-14.473-1.66-4.587-4.255-10.3-5.768-12.697-1.75-2.774-3.387-7.63-4.506-13.357-.966-4.95-2.896-11.7-4.287-15-4.071-9.658-4.069-10.106.043-11.463 1.78-.587 3.163-.884 4.262-.815zm362.66 24.277 1.035 5c1.597 7.71 1.31 17.53-.613 21-2.557 4.613-5.228 7.667-6.016 6.88-.391-.392-.711-3.694-.711-7.337 0-6.919 1.812-15.427 4.64-21.797zm-374.3 2.075 5.078 4.962c5.614 5.487 9.145 10.916 12.016 18.47 1.044 2.747 1.787 4.946 1.652 4.888-.135-.058-2.838-1.896-6.008-4.084-8.755-6.043-12.738-12.505-12.738-20.672zm362.42 24.926.853 6.5c1.013 7.699.005 11.929-4.238 17.787-1.637 2.26-3.956 4.633-5.153 5.273-2.132 1.141-2.16 1.066-1.511-3.83.988-7.452 3.225-14.082 6.826-20.23zm90.11 1.322a.214.214 0 0 1 .132 0l.002.002c.214.072.329.535.32 1.426-.017 1.75-7.326 24.393-11.104 34.4l-3.14 8.32 4.628 18.496c5.13 20.501 4.94 19.531 3.817 19.531-.446 0-1.374-2.193-2.061-4.873-1.519-5.926-6.225-16.081-8.514-18.369-.92-.92-2.306-1.43-3.08-1.133-.774.297-4.183 5.565-7.574 11.707-14.164 25.655-26.668 42.48-45.482 61.197-36.547 36.36-60.201 51.908-98.8 64.943-7.248 2.448-18.952 5.613-26.007 7.031-16.412 3.3-35.083 4.474-35.932 2.262-.482-1.256.843-1.636 7.588-2.182 22.993-1.86 39.522-5.62 62.375-14.186 33.512-12.56 52.925-25.892 87.668-60.209 17.4-17.188 28.885-31.935 41.619-53.447 8.625-14.57 10.892-20.002 9.672-23.182-1.17-3.05-6.866-4.786-17.588-5.359-13.101-.7-9.655-1.69 9.275-2.666 7.233-.372 13.898-.889 14.812-1.146 1.653-.466 7.238-14.46 13.426-33.64 1.765-5.471 3.24-8.718 3.947-8.925zm-527.21.367c.657-.083 2.327 4.072 5.176 12.811 5.597 17.162 9.562 27.365 11.121 28.615.766.614 7.351 1.442 14.635 1.842 20.18 1.107 23.627 2.036 10.11 2.724-14.799.754-19.785 3.57-17.825 10.068 2.393 7.935 23.617 40.923 35.28 54.834 15.138 18.058 45.065 45.01 63.177 56.893 30.411 19.954 72.398 33.67 105 34.301 11.061.215 11.703.11 16.818-2.724 2.926-1.62 6.706-4.523 8.399-6.451 4.387-4.998 8.76-14.924 10.289-23.355 1.184-6.53 1.323-3.07 1.404 35.004.05 23.238-.03 42.25-.178 42.25-.147 0-1.036-2.931-1.976-6.514-3.79-14.446-11.19-24.774-21.812-30.436-5.55-2.958-7.417-3.384-18.311-4.186-19.276-1.417-33.785-4.545-54.996-11.859-29.147-10.05-48.656-21.813-75.637-45.605-29.648-26.144-47.806-48.573-65.492-80.898-5.182-9.47-6.293-10.685-8.635-9.431-2.294 1.227-5.812 8.091-8.935 17.432-3.96 11.839-3.232 4.853 1.453-13.953l4.455-17.883-2.809-7.082c-3.901-9.835-11.037-32.403-11.037-34.91 0-.957.107-1.455.326-1.483zm87.17 3.81c.361 0 3.278 2.019 6.483 4.485 5.757 4.43 11.201 10.948 14.418 17.266.91 1.787 1.53 3.228 1.379 3.201-.152-.026-2.975-1.423-6.275-3.105-7.118-3.629-11.033-7.073-13.47-11.846-1.998-3.916-3.541-10-2.535-10zm335.46 22.667-.976 3.412c-.538 1.875-.978 4.888-.978 6.697 0 6.597-5.025 14.586-11.201 17.812-3.637 1.9-4.051 1.791-3.239-.84 3.375-10.929 7.701-18.762 13.348-24.166zm-315.61 7.494c2.376.284 11.749 5.927 15.897 9.675 2.098 1.896 5.19 5.183 6.87 7.305s2.68 3.797 2.221 3.72c-3.825-.639-15.235-5.312-17.859-7.314-3.5-2.67-9.192-12.807-7.505-13.369a.9.9 0 0 1 .377-.015zm295.06 14.992c.057.002.103.02.135.052.536.535-3.174 12.181-5.01 15.73-.84 1.627-3.016 4.094-4.833 5.48-3.516 2.683-10.697 6.03-10.697 4.987 0-.343 1.447-3.387 3.214-6.764 2.738-5.23 15.445-19.552 17.191-19.486zm-275.54 9.076c1.158-.101 3.69.72 7.817 2.36 6.614 2.626 11.611 5.68 17.82 10.886 1.7 1.426 2.35 2.458 1.5 2.383-15.218-1.338-19.729-3.202-25.248-10.441-2.593-3.401-3.377-5.056-1.889-5.186zm249.83 14.12v.003c.608.607-6.035 12.21-8.581 14.99-1.432 1.563-4.179 3.644-6.104 4.627-1.925.982-5.002 2.111-6.838 2.508-3.148.68-3.274.602-2.228-1.352 2.92-5.457 11.26-13.921 17.102-17.354 3.488-2.05 6.481-3.59 6.65-3.422zm18.958 1.013 39.484 43.875-2.315 2.476c-4.29 4.594-20.255 17.001-28.383 22.057-12.692 7.895-37.199 19.9-45.432 22.256-8.55 2.448-33.58 3.637-40.416 1.92-8.126-2.041-16.993-7.269-23.619-13.928-7.815-7.853-10.034-12.177-7.62-14.844 2.325-2.57 3.42-8.995 2.378-13.967-1.412-6.734-.893-7.206 7.996-7.217 6.033-.008 8.905-.533 12.781-2.338 3.203-1.49 7.77-2.537 12.71-2.91 6.065-.458 9.012-1.276 13.813-3.836 3.357-1.79 6.864-4.198 7.791-5.355.928-1.157 3.036-2.208 4.686-2.334 9.415-.72 20.129-6.645 24.344-13.465 1.482-2.398 3.229-3.63 6.35-4.477 2.367-.642 6.812-2.685 9.876-4.54zm9.18.789c1.005-.195 4.687 3.63 15.366 15.566 7.767 8.68 15.44 17.192 17.053 18.918 1.72 1.839 2.509 3.4 1.909 3.771-1.007.622-34.65-35.817-34.65-37.529 0-.423.09-.682.322-.726zM205 572.522l.001.002c.37-.007.73.054 1.13.134 1.588.32 4.067 2.433 6.322 5.39 4.421 5.797 10.714 10.175 17.25 12.005 2.834.794 5.716 2.463 7.103 4.111 3.58 4.255 13.946 8.914 21.32 9.582 4.56.414 7.583 1.375 10.854 3.45 8.082 5.126 17.508 6.964 24.877 4.851 5.878-1.686 6.938-.122 6.787 10.021-.115 7.726.145 9.109 2.233 11.943 2.822 3.834 2.46 4.983-4.106 12.988-5.135 6.263-13.15 11.458-22.697 14.713-5.444 1.856-8.597 2.22-18.559 2.145-14.149-.108-19.966-.96-29.64-4.34-16.237-5.672-50.054-25.529-61.614-36.178l-5.254-4.84 17.547-19.5c20.77-23.08 23.856-26.432 26.445-26.479zm-14.132 3.035c.225-.029.395.034.494.195.365.59-5.911 8.424-13.945 17.41-19.07 21.332-20.01 22.28-20.826 20.961-.37-.6 2.16-4.16 5.625-7.91s9.901-10.836 14.301-15.748 9.392-10.473 11.092-12.357c1.4-1.552 2.586-2.464 3.26-2.55zm26.807.107c2.845-.078 14.645 2.539 18.848 4.34 2.475 1.06 6.177 3.069 8.229 4.463l3.73 2.535h-5.15c-2.833 0-5.75.196-6.482.434-2.1.683-10.604-1.931-13.082-4.022-2.806-2.366-6.667-6.702-6.715-7.54-.008-.132.216-.198.623-.21zm195.48 9.547h.002c.81-.04.2.919-2.17 4.436-4.684 6.955-6.972 9.294-11.217 11.47-4.431 2.273-12.756 3.658-12.756 2.122 0-3.284 16.695-15.172 24.871-17.711.573-.178 1-.303 1.27-.317zm-94.959 5.942c.863.132 1.643 1.898 2.114 5.013.348 2.304.053 4.346-.795 5.5-1.268 1.727-1.414 1.669-2.424-.978-1.316-3.448-1.353-6.696-.1-8.678.406-.64.813-.918 1.205-.857zm18.71.095c1.171.027 2.079 3.197 2.097 7.504.017 4.068-2.405 4.395-3.715.5-1.037-3.083-.288-7.411 1.38-7.967a.701.701 0 0 1 .237-.037zm-87.294.743c7.128-.01 10.474.532 16.78 2.716l7.876 2.73-6.877 1.76c-3.782.969-8.002 1.73-9.377 1.696-5.09-.129-12.223-3.272-15.406-6.79l-1.904-2.1zm138.6 2.925-4.232 5.02c-2.328 2.761-6.084 5.886-8.346 6.943-4.98 2.328-9.926 3.075-14.613 2.205l-3.5-.65 5.5-3.572c9.162-5.953 11.1-6.76 22.346-9.303zm-58.822 3.286c1.126.062 1.857.594 2.825 1.789.994 1.228 1.804 3.646 1.8 5.373l-.008 3.138-1.925-2.923c-1.817-2.756-5.061-5.375-5.061-4.086 0 .324.908 1.82 2.018 3.32 3.075 4.16 5.512 17.477 4.076 22.27-.631 2.106-1.842 4.522-2.692 5.372-2.279 2.28-4.95 1.882-6.85-1.018-1.857-2.835-2.31-9.26-.835-11.895.846-1.511 1.138-1.413 2.662.913 3.36 5.127 3.398 1.417.043-4.155-5.316-8.827-4.564-16.45 1.762-17.84.652-.143 1.2-.232 1.677-.258.18-.01.347-.01.508-.002zm-18.887.033c1.086-.056 1.66.461 2.698 1.742 1.046 1.292 1.799 3.795 1.771 5.887l-.047 3.638-1.705-3.486c-.938-1.918-2.536-3.648-3.55-3.844-1.706-.328-1.685-.137.27 2.508 3.137 4.243 5.512 17.006 4.124 22.16-.603 2.24-1.791 4.768-2.64 5.617-3.946 3.945-8.413-.01-8.387-7.427.02-6.275 1.203-7.87 3.375-4.555 3.35 5.114 3.378 1.385.03-4.174-3.309-5.496-4.329-10.77-2.833-14.668.323-.843 2.204-2.067 4.18-2.719 1.227-.405 2.063-.646 2.714-.68zm36.645.797v.002c3.002-.037 4.423 1.327 5.387 5.168 1.079 4.297-.488 5.317-2.475 1.609-1.706-3.186-5.039-5.093-5.039-2.883 0 .59.476 1.074 1.057 1.074 1.665 0 4.822 8.112 5.543 14.242.82 6.977-.134 12.29-2.656 14.812-2.419 2.42-3.13 2.422-6.082.032-1.964-1.59-2.362-2.838-2.362-7.416 0-6.631 1.008-7.977 3.5-4.672 3.327 4.41 3.17 1.405-.21-4.034-5.745-9.241-4.145-17.845 3.337-17.936zm-60.14 2.22c.804-.015 1.585-.01 2.34.012 5.025.148 8.797 1.102 9.646 2.687.822 1.538.297 2.059-3.555 3.53-2.486.949-6.184 1.913-8.219 2.142-5.346.602-17.974-4.178-16.07-6.082.272-.272 3.944-1.007 8.16-1.634a60.365 60.365 0 0 1 7.698-.655zm242.88 37.641c1.48.127 8.5 7.706 34.718 37.281 3.253 3.67 6.45 6.707 7.106 6.75s1.47.528 1.81 1.078c.348.563-.45 1-1.82 1-1.783 0-4.277-2.08-9.293-7.75-3.77-4.262-12.893-14.41-20.273-22.549-8.424-9.29-13.068-15.149-12.475-15.742.054-.053.128-.076.227-.068zm-399.95 4.608c.187-.017.307.065.396.209.52.843-16.385 20.427-34.93 40.465-4.497 4.86-7.761 6.653-8.863 4.869-.354-.573.01-1.041.81-1.041s8.588-7.985 17.31-17.744c19.418-21.732 23.966-26.641 25.276-26.758z" fill="#c09b3f" fill-opacity=".3"/></svg>