<?xml version="1.0" encoding="UTF-8"?>
<svg width="1300" height="1300" version="1.1" viewBox="0 0 343.96 343.96" xmlns="http://www.w3.org/2000/svg">
 <title>tech-frame by ChessSkins</title>
 <path d="m13.228 0.001475 317.61 0.064669c-0.10719-0.064669 6.5059 6.5481 6.5059 6.5481l3.2582 149.99 3.3564 6.6951v174.05l-6.6146 6.6143h-266.27l-3.1781-3.3898h-57.943l-6.5875-6.5872-0.12213-183.99-3.2415-6.6071 4.056e-4 -130.16z" fill="#2953a3" stop-color="#000000"/>
 <path d="m330.73 0.001475-136.67 0.02784-6.7107 6.585-174.23 0.066157-6.5059 6.5481v123.36l-6.6146 6.7024 0.039044 122.98 6.5755 6.5752v57.914l6.6146 6.5872h57.889l6.6146 6.6143h124.03l6.6146-6.6143 122.39 0.0267-0.0394 3.4e-4 6.6146-6.6143v-160.68l6.615-6.6071-7.9e-4 -150.24z" fill="#22314c" stop-color="#000000"/>
 <path d="m13.842 13.229 311.07-2e-6 5.8562 5.8123v305.82l-5.8946 5.8944-305.84-0.0356-5.8126-5.8123 1.4e-5 -305.87 5.8125-5.8123z" fill="#2c7aaf" fill-opacity=".98" stop-color="#000000"/>
</svg>
