<?xml version="1.0" encoding="UTF-8" standalone="no"?>
<svg
   xmlns:dc="http://purl.org/dc/elements/1.1/"
   xmlns:cc="http://creativecommons.org/ns#"
   xmlns:rdf="http://www.w3.org/1999/02/22-rdf-syntax-ns#"
   xmlns:svg="http://www.w3.org/2000/svg"
   xmlns="http://www.w3.org/2000/svg"
   xmlns:sodipodi="http://sodipodi.sourceforge.net/DTD/sodipodi-0.dtd"
   xmlns:inkscape="http://www.inkscape.org/namespaces/inkscape"
   version="1.1"
   id="svg10"
   width="933.33331"
   height="933.33331"
   viewBox="0 0 933.33331 933.33331"
   sodipodi:docname="panterabn.svg"
   inkscape:version="1.0.2-2 (e86c870879, 2021-01-15)">
  <title
     id="title24">Nike Furia 2021</title>
  <metadata
     id="metadata16">
    <rdf:RDF>
      <cc:Work
         rdf:about="">
        <dc:format>image/svg+xml</dc:format>
        <dc:type
           rdf:resource="http://purl.org/dc/dcmitype/StillImage" />
        <dc:title>Nike Furia 2021</dc:title>
      </cc:Work>
    </rdf:RDF>
  </metadata>
  <defs
     id="defs14" />
  <sodipodi:namedview
     pagecolor="#ffffff"
     bordercolor="#666666"
     borderopacity="1"
     objecttolerance="10"
     gridtolerance="10"
     guidetolerance="10"
     inkscape:pageopacity="0"
     inkscape:pageshadow="2"
     inkscape:window-width="1920"
     inkscape:window-height="1017"
     id="namedview12"
     showgrid="false"
     inkscape:zoom="0.5"
     inkscape:cx="669.72822"
     inkscape:cy="575.31869"
     inkscape:window-x="-8"
     inkscape:window-y="-8"
     inkscape:window-maximized="1"
     inkscape:current-layer="g18"
     inkscape:document-rotation="0"
     showguides="true"
     inkscape:guide-bbox="true">
    <sodipodi:guide
       position="277.18586,628.57029"
       orientation="1,0"
       id="guide960" />
    <sodipodi:guide
       position="193.04015,603.11445"
       orientation="0,-1"
       id="guide962" />
    <sodipodi:guide
       position="319.06836,631.6712"
       orientation="1,0"
       id="guide964" />
    <sodipodi:guide
       position="319.06836,631.6712"
       orientation="0,-1"
       id="guide966" />
  </sodipodi:namedview>
  <g
     inkscape:groupmode="layer"
     inkscape:label="Image"
     id="g18"
     style="display:inline">
    <path
       style="fill:#000000;stroke:#000000;stroke-width:26.45669291;stroke-linecap:square;stroke-miterlimit:4;stroke-dasharray:none;stroke-opacity:1.0"
       d="m 223.99998,782.56679 v -44.09986 l 5.7748,-8.92693 c 3.17615,-4.90982 10.41235,-14.31488 16.08046,-20.90015 5.6681,-6.58525 15.75976,-19.1732 22.4259,-27.9732 6.66615,-8.8 14.91375,-19.3 18.328,-23.33333 20.32135,-24.0061 20.83283,-24.73642 24.2882,-34.6804 4.01455,-11.55323 7.33602,-22.20027 12.47415,-39.98627 3.60079,-12.46436 10.60006,-30.84938 22.427,-58.90902 6.41242,-15.21363 7.77872,-20.42431 5.35544,-20.42431 -0.83199,0 -11.63199,9.74 -24,21.64444 -15.70837,15.11961 -26.30571,24.1006 -35.15395,29.79213 -6.96666,4.48123 -14.16666,9.543 -16,11.24838 -4.32185,4.02022 -27.31292,13.19734 -30.24449,12.0724 -1.23064,-0.47224 -6.63621,-3.64508 -12.01236,-7.05074 -10.60485,-6.71792 -10.35717,-6.27594 -16.28376,-29.05724 -0.76559,-2.94284 -6.21472,-12.22425 -12.1092,-20.62536 -5.89449,-8.4011 -12.58816,-18.89333 -14.87482,-23.31604 -2.28668,-4.42272 -7.08359,-13.01734 -10.65983,-19.09916 -3.57623,-6.08182 -8.36652,-14.75101 -10.64511,-19.26486 -4.01522,-7.95413 -4.092,-8.43443 -2.49129,-15.58715 0.90839,-4.05906 3.57353,-13.43634 5.92257,-20.83838 3.61435,-11.3892 5.97919,-15.90219 15.38226,-29.355 7.93154,-11.34755 13.66687,-21.62018 20.04159,-35.89675 4.91168,-11 11.18651,-24.47649 13.94404,-29.94777 6.97884,-13.8468 8.62914,-18.90135 10.81506,-33.12445 2.42633,-15.78742 4.37294,-20.33074 10.74053,-25.06796 7.83423,-5.82834 34.56561,-28.33892 45.91437,-38.66463 5.81926,-5.29467 15.51867,-12.19264 22.8657,-16.26147 9.19328,-5.09129 13.15196,-8.07256 14.16376,-10.66666 2.61173,-6.69603 8.02421,-26.20412 10.36155,-37.34593 1.27827,-6.09338 3.07919,-12.09338 4.00202,-13.33334 2.44154,-3.28052 5.96642,-0.63782 7.77604,5.8299 1.36862,4.8916 2.44914,5.7819 15.86997,13.07621 l 14.40135,7.82721 13.14976,-2.80002 c 14.71121,-3.13254 16.00965,-3.80063 32.4325,-16.68795 8.60472,-6.75228 13.47531,-11.84476 18.49098,-19.33333 7.42646,-11.08801 14.97465,-20.77752 22.10809,-28.3799 4.12461,-4.39573 5.47261,-4.96983 13.58166,-5.78419 7.56631,-0.75985 9.84279,-0.47545 14.26901,1.78265 6.65622,3.39574 7.38583,4.33867 11.51511,14.88164 7.32481,18.70188 12.90628,40.06045 12.90628,49.38837 v 9.05049 l 21.4324,22.71252 c 11.78781,12.49188 24.39829,26.79313 28.02329,31.78056 3.625,4.98743 9.56784,12.96805 13.20634,17.73472 7.82436,10.25047 13.27642,20.11155 17.69401,32.00293 1.77019,4.76506 12.65298,33.26374 24.184,63.3304 11.53101,30.06667 22.45337,58.56667 24.2719,63.33333 1.81854,4.76667 3.93562,10.16667 4.70464,12 0.76903,1.83334 4.31662,11.13334 7.88352,20.66667 3.56692,9.53333 8.35114,22.13333 10.63158,28 2.28045,5.86666 5.26619,13.66666 6.63497,17.33333 1.36879,3.66667 4.36879,11.46667 6.66667,17.33333 2.29788,5.86667 5.27205,13.66667 6.60928,17.33334 1.33721,3.66666 13.03527,34.26666 25.99567,68 12.9604,33.73333 25.05499,65.23333 26.87689,69.99999 1.8219,4.76667 4.16686,10.76667 5.21104,13.33334 1.04416,2.56666 6.71542,17.38465 12.6028,32.92886 l 10.70432,28.26221 v 44.07112 44.07114 H 497.33332 223.99998 Z"
       id="path22"
       inkscape:export-xdpi="80.032333"
       inkscape:export-ydpi="80.032333"
       sodipodi:nodetypes="ccsssssssssssssssssssssssssssssssscsssssssscsssssssssssssssscccccc" />
    <path
       id="path949"
       style="fill:#ffffff;fill-rule:nonzero;stroke:#000000;stroke-width:0;stroke-linecap:square;stroke-linejoin:miter;stroke-miterlimit:4;stroke-dasharray:none;stroke-dashoffset:0;stroke-opacity:1;paint-order:stroke markers fill"
       d="m 327.89214,291.06661 c -0.17048,1.2e-4 -0.41055,0.0246 -0.72426,0.0624 -3.80852,0.4585 -19.23478,4.9655 -25.60709,7.48139 -1.83522,0.72459 -5.12206,2.27869 -6.01659,2.84555 l -0.32551,0.20616 h -0.0461 l -0.18447,0.11116 c -0.84677,0.51323 -2.34162,1.5688 -3.40975,2.4061 -2.5449,1.9949 -6.15676,5.33853 -10.24826,9.486 -4.7985,4.86411 -8.32861,9.17913 -8.44708,10.32693 -0.021,0.20326 0.0321,0.2957 0.32822,0.57507 1.74272,1.64398 9.36267,4.01804 13.88859,4.32663 0.37557,0.0257 1.52042,0.0184 1.70081,-0.0105 0.38095,-0.0618 0.8886,-0.32401 1.74963,-0.90331 3.53273,-2.37682 10.5177,-8.51646 18.64382,-16.3869 1.34066,-1.29847 7.34195,-7.29719 8.78072,-8.77803 l 1.10404,-1.13659 h -0.0105 l 2.11042,-2.23248 c 3.52475,-3.73599 5.59316,-6.07139 6.61063,-7.46239 0.51382,-0.7024 0.61452,-0.91721 0.10311,-0.91687 z" />
  </g>
</svg>
