<?xml version="1.0" encoding="UTF-8" standalone="no"?>
<svg
   xmlns:dc="http://purl.org/dc/elements/1.1/"
   xmlns:cc="http://creativecommons.org/ns#"
   xmlns:rdf="http://www.w3.org/1999/02/22-rdf-syntax-ns#"
   xmlns:svg="http://www.w3.org/2000/svg"
   xmlns="http://www.w3.org/2000/svg"
   xmlns:sodipodi="http://sodipodi.sourceforge.net/DTD/sodipodi-0.dtd"
   xmlns:inkscape="http://www.inkscape.org/namespaces/inkscape"
   version="1.1"
   id="svg891"
   width="341.33334"
   height="341.33334"
   viewBox="0 0 341.33334 341.33334"
   sodipodi:docname="small-wp.svg"
   inkscape:version="1.0.2-2 (e86c870879, 2021-01-15)">
  <metadata
     id="metadata897">
    <rdf:RDF>
      <cc:Work
         rdf:about="">
        <dc:format>image/svg+xml</dc:format>
        <dc:type
           rdf:resource="http://purl.org/dc/dcmitype/StillImage" />
        <dc:title></dc:title>
      </cc:Work>
    </rdf:RDF>
  </metadata>
  <defs
     id="defs895" />
  <sodipodi:namedview
     pagecolor="#ffffff"
     bordercolor="#666666"
     borderopacity="1"
     objecttolerance="10"
     gridtolerance="10"
     guidetolerance="10"
     inkscape:pageopacity="0"
     inkscape:pageshadow="2"
     inkscape:window-width="1920"
     inkscape:window-height="1017"
     id="namedview893"
     showgrid="false"
     inkscape:zoom="2.4228515"
     inkscape:cx="170.66667"
     inkscape:cy="154.1572"
     inkscape:window-x="-8"
     inkscape:window-y="-8"
     inkscape:window-maximized="1"
     inkscape:current-layer="g899" />
  <g
     inkscape:groupmode="layer"
     inkscape:label="Image"
     id="g899">
    <g
       transform="matrix(1.9989974,0,0,2.3186742,35.25258,22.293423)"
       stroke-width="0.35016"
       id="g1062">
      <g
         transform="matrix(1.0786,0,0,0.8402,4.1406,3.7836)"
         fill="#ffffff"
         aria-label="♙"
         id="g1056">
        <path
           d="M 106.8,142.04 H 11.126 v -5.5474 c 0,-14.001 6.8559,-22.48 20.568,-25.439 11.452,-17.699 17.178,-32.967 17.178,-45.806 V 61.8399 H 30.23 v -3.5662 c 0,-3.0643 1.3352,-6.0229 4.0057,-8.8759 2.6704,-2.853 6.445,-5.204 11.324,-7.0531 -3.2867,-4.0153 -4.9301,-8.506 -4.9301,-13.472 0,-5.1248 1.7974,-9.5363 5.3922,-13.235 3.5948,-3.6983 7.9086,-5.5474 12.941,-5.5474 5.0328,0 9.3466,1.8491 12.941,5.5474 3.5948,3.6983 5.3922,8.1098 5.3922,13.235 0,4.9663 -1.6434,9.457 -4.9301,13.472 4.8787,1.8491 8.6533,4.2002 11.324,7.0531 2.6704,2.853 4.0057,5.8116 4.0057,8.8759 v 3.5662 h -18.642 v 3.4077 c 0,12.838 5.726,28.107 17.178,45.806 13.712,2.9586 20.568,11.438 20.568,25.439 z"
           fill="#ffffff"
           stroke-width="0.34289"
           id="path1054" />
      </g>
      <g
         transform="matrix(1.061,0,0,0.83512,5.5855,4.1648)"
         aria-label="♙"
         id="g1060">
        <path
           d="M 108.13,142.54 H 9.034 v -5.5851 q 0,-21.144 21.303,-25.612 Q 48.13,84.6139 48.13,65.2259 V 61.795 H 28.821 v -3.5904 q 0,-4.6277 4.149,-8.9362 4.149,-4.3085 11.729,-7.1011 -5.1064,-6.0639 -5.1064,-13.564 0,-7.7394 5.5851,-13.325 5.5851,-5.5851 13.404,-5.5851 7.8192,0 13.404,5.5851 5.5851,5.5851 5.5851,13.325 0,7.5 -5.1064,13.564 7.5798,2.7926 11.729,7.1011 4.149,4.3085 4.149,8.9362 v 3.5904 h -19.309 v 3.4309 q 0,19.388 17.793,46.117 21.303,4.4681 21.303,25.612 z M 83.396,57.247 q -1.0372,-7.5798 -17.314,-13.564 6.8617,-7.1011 6.8617,-15.08 0,-5.9841 -4.2287,-10.133 -4.149,-4.2287 -10.133,-4.2287 -5.984,0 -10.213,4.2287 -4.149,4.2287 -4.149,10.133 0,7.9788 6.8617,15.08 -16.277,5.9841 -17.314,13.564 z m 20.106,80.745 q 0,-10.692 -4.7075,-15.878 -4.6277,-5.266 -15.399,-7.5 -18.91,-28.245 -18.91,-52.819 h -11.809 q 0,24.575 -18.91,52.819 -10.771,2.2341 -15.479,7.5 -4.6277,5.1862 -4.6277,15.878 z"
           stroke-width="0.35016"
           id="path1058" />
      </g>
    </g>
  </g>
</svg>
