<?xml version="1.0" encoding="UTF-8"?>
<svg width="341.33" height="341.33" version="1.1" viewBox="0 0 341.33 341.33" xmlns="http://www.w3.org/2000/svg" xmlns:cc="http://creativecommons.org/ns#" xmlns:dc="http://purl.org/dc/elements/1.1/" xmlns:rdf="http://www.w3.org/1999/02/22-rdf-syntax-ns#">
 <metadata>
  <rdf:RDF>
   <cc:Work rdf:about="">
    <dc:format>image/svg+xml</dc:format>
    <dc:type rdf:resource="http://purl.org/dc/dcmitype/StillImage"/>
    <dc:title/>
   </cc:Work>
  </rdf:RDF>
 </metadata>
 <g stroke-width=".35016">
  <g transform="matrix(2.1561 0 0 1.9482 43.53 31.066)" aria-label="♙">
   <path d="m107.22 142.01-96.48-0.20524 0.02393-5.3091c0.0631-14.001 7.2825-21.881 20.995-24.84 11.452-17.699 17.022-31.84 17.424-44.672l0.044455-5.7488-18.998 0.11852-0.001755-3.077c-0.0017-3.0643 1.3352-6.0229 4.0057-8.8759 2.6704-2.853 6.445-5.204 11.324-7.0531-3.2867-4.0153-4.9301-8.506-4.9301-13.472 0-5.1248 1.7974-9.5363 5.3922-13.235 3.5948-3.6983 7.9086-5.1237 12.941-5.1237 5.0328 0 9.3466 1.4254 12.941 5.1237 3.5948 3.6983 5.3922 8.1098 5.3922 13.235 0 4.9663-1.6434 9.457-4.9301 13.472 4.8787 1.8491 8.6533 4.2002 11.324 7.0531 2.6704 2.853 4.0057 5.8116 4.0057 8.8759l-0.13536 2.967-18.898-0.04817-0.02475 5.0524c-0.0629 12.838 6.5006 27.401 17.953 45.1 13.712 2.9586 20.632 11.147 20.632 25.148z" stroke-width=".34289"/>
  </g>
  <g transform="matrix(2.1209 0 0 1.9364 46.418 31.95)" fill="#fff" aria-label="♙">
   <path d="m108.13 142.54h-99.096v-5.5851q0-21.144 21.303-25.612 17.793-26.729 17.793-46.117v-3.4309h-19.309v-3.5904q0-4.6277 4.149-8.9362t11.729-7.1011q-5.1064-6.0639-5.1064-13.564 0-7.7394 5.5851-13.325 5.5851-5.5851 13.404-5.5851 7.8192 0 13.404 5.5851 5.5851 5.5851 5.5851 13.325 0 7.5-5.1064 13.564 7.5798 2.7926 11.729 7.1011 4.149 4.3085 4.149 8.9362v3.5904h-19.309v3.4309q0 19.388 17.793 46.117 21.303 4.4681 21.303 25.612zm-24.734-85.293q-1.0372-7.5798-17.314-13.564 6.8617-7.1011 6.8617-15.08 0-5.9841-4.2287-10.133-4.149-4.2287-10.133-4.2287t-10.213 4.2287q-4.149 4.2287-4.149 10.133 0 7.9788 6.8617 15.08-16.277 5.9841-17.314 13.564zm20.106 80.745q0-10.692-4.7075-15.878-4.6277-5.266-15.399-7.5-18.91-28.245-18.91-52.819h-11.809q0 24.575-18.91 52.819-10.771 2.2341-15.479 7.5-4.6277 5.1862-4.6277 15.878z" fill="#fff" stroke-width=".35016"/>
  </g>
 </g>
</svg>
