<?xml version="1.0" encoding="UTF-8"?>
<svg width="341.33" height="341.33" version="1.1" viewBox="0 0 341.33 341.33" xmlns="http://www.w3.org/2000/svg" xmlns:cc="http://creativecommons.org/ns#" xmlns:dc="http://purl.org/dc/elements/1.1/" xmlns:rdf="http://www.w3.org/1999/02/22-rdf-syntax-ns#">
 <metadata>
  <rdf:RDF>
   <cc:Work rdf:about="">
    <dc:format>image/svg+xml</dc:format>
    <dc:type rdf:resource="http://purl.org/dc/dcmitype/StillImage"/>
    <dc:title/>
   </cc:Work>
  </rdf:RDF>
 </metadata>
 <g stroke-width=".35016">
  <g transform="matrix(2.1561,0,0,1.9482,43.53,31.066)" aria-label="♙">
   <path d="m106.56 141.29-95.295-0.0668-0.04192-4.7261c-0.12418-14 6.8216-21.881 20.534-24.84 11.452-17.699 17.088-31.767 17.49-44.599l0.04445-6.4775-18.8 0.04565 0.04145-3.2331c0.45924-3.6473 1.9485-4.7862 4.619-7.6392 2.6704-2.853 7.5738-5.1436 12.453-6.9927-3.2867-4.0153-6.2338-8.9182-6.2338-13.884 0-5.1248 1.9836-8.9179 5.5784-12.617 3.5948-3.6983 6.6049-4.5053 11.637-4.5053 5.0328 0 8.4154 1.0132 12.01 4.7115 3.5948 3.6983 5.206 7.2853 5.206 12.411 0 4.9663-1.6434 10.694-4.9301 14.709 4.8787 1.8491 9.212 3.788 11.883 6.6409 2.6704 2.853 4.3782 4.781 4.3782 7.8453l0.02829 2.5901-18.7 0.02471 0.0411 5.6354c0.09362 12.838 6.6323 27.911 18.085 45.61 13.712 2.9586 19.908 10.637 19.908 24.638z" stroke-width=".34289"/>
  </g>
  <g transform="matrix(2.1209,0,0,1.9364,46.418,31.95)" fill="#fff" aria-label="♙">
   <path d="m108.13 142.54h-99.096v-5.5851q0-21.144 21.303-25.612 17.793-26.729 17.793-46.117v-3.4309h-19.309v-3.5904q0-4.6277 4.149-8.9362t11.729-7.1011q-5.1064-6.0639-5.1064-13.564 0-7.7394 5.5851-13.325 5.5851-5.5851 13.404-5.5851 7.8192 0 13.404 5.5851 5.5851 5.5851 5.5851 13.325 0 7.5-5.1064 13.564 7.5798 2.7926 11.729 7.1011 4.149 4.3085 4.149 8.9362v3.5904h-19.309v3.4309q0 19.388 17.793 46.117 21.303 4.4681 21.303 25.612zm-24.734-85.293q-1.0372-7.5798-17.314-13.564 6.8617-7.1011 6.8617-15.08 0-5.9841-4.2287-10.133-4.149-4.2287-10.133-4.2287t-10.213 4.2287q-4.149 4.2287-4.149 10.133 0 7.9788 6.8617 15.08-16.277 5.9841-17.314 13.564zm20.106 80.745q0-10.692-4.7075-15.878-4.6277-5.266-15.399-7.5-18.91-28.245-18.91-52.819h-11.809q0 24.575-18.91 52.819-10.771 2.2341-15.479 7.5-4.6277 5.1862-4.6277 15.878z" fill="#fff" stroke-width=".35016"/>
  </g>
 </g>
</svg>
