<svg width="61" height="60" fill="none" xmlns="http://www.w3.org/2000/svg"><path d="M25.737 11.726h2.883V9h2.642v2.85h2.763v2.602h-2.763v2.355c2.042.496 3.724 2.23 3.724 5.08 0 .62-.12 1.24-.24 1.735 1.921-1.858 4.324-2.85 7.087-2.85 5.525 0 8.768 4.09 8.768 8.179 0 6.568-4.564 9.666-6.726 11.648-.24.248-.24.496-.24.868 0 1.61.12 4.709.12 6.196 0 2.602-6.127 4.337-13.694 4.337-7.688 0-13.694-1.735-13.694-4.337 0-1.611.12-4.585.12-6.196 0-.496 0-.62-.24-.868C13.605 38.493 9.4 35.52 9.4 28.827c0-4.09 3.244-8.055 8.77-8.055 2.762 0 5.044.992 7.086 2.85-.24-.495-.36-1.115-.36-1.734 0-2.85 1.681-4.462 3.723-5.081v-2.355h-2.882v-2.726zm-7.808 11.525c-4.204 0-6.366 2.974-6.366 6.32 0 4.832 2.642 6.94 6.005 10.285 2.643-1.487 8.048-2.726 11.532-2.726 0-7.188-4.565-13.88-11.171-13.88zm.24 14.746c-3.123-2.85-4.685-4.957-4.685-8.426 0-2.603 2.043-4.585 4.685-4.585 4.925 0 8.649 4.337 9.37 10.78-2.884.248-6.727 1.116-9.37 2.231zm0 5.08c1.922-1.238 7.087-2.106 11.772-2.106 4.684 0 9.73.868 11.771 2.107v-1.611c-2.402-1.24-6.246-2.23-11.771-2.23-5.526 0-9.37.99-11.772 2.23v1.61zm0 3.47c1.922-1.239 7.087-1.982 11.772-1.982 4.684 0 9.73.743 11.771 1.859v-1.487c-2.402-1.24-6.246-2.107-11.771-2.107-5.526 0-9.37.867-11.772 2.107v1.61zM32.944 22.26c0-1.61-.961-3.221-3.003-3.221-2.042 0-3.003 1.61-3.003 3.221 0 2.107 1.441 3.346 3.003 7.807 1.681-4.46 3.003-5.7 3.003-7.807zm-3.004-1.24c.72 0 1.201.744 1.201 1.611 0 .744-.48 1.983-1.201 3.718-.72-1.735-1.201-2.974-1.201-3.718 0-.991.48-1.61 1.2-1.61zm12.372 18.712c3.483-3.346 6.006-5.7 6.006-10.285 0-3.47-2.162-6.32-6.366-6.32-6.487 0-11.171 6.691-11.171 13.879 3.483.124 8.888 1.239 11.531 2.726zm-.6-14.746c2.762 0 4.684 1.982 4.684 4.585 0 3.47-1.561 5.576-4.684 8.426-2.643-1.115-6.487-1.983-9.37-2.23.72-6.32 4.565-10.781 9.37-10.781z" fill="#99895E"/></svg>