<svg width="60" height="60" fill="none" xmlns="http://www.w3.org/2000/svg"><path d="M10.872 15.302c1.316 0 2.512 1.483 2.512 2.595 0 .865-.598 1.73-1.316 2.224 1.556 2.965 3.59 7.29 6.342 11.615.239-.124.478-.124.718-.248-.12-5.683-.24-11.12-.24-15.198-1.196-.123-2.153-1.359-2.153-2.347 0-1.483 1.435-2.842 2.871-2.842 1.316 0 2.513 1.482 2.513 2.594 0 .865-.598 1.73-1.436 2.224.957 3.955 3.111 10.01 4.906 14.21.24 0 .598 0 .837-.123.24-5.314 1.676-11.862 2.154-15.94-.837-.37-1.555-1.36-1.555-2.224C27.025 10.359 28.46 9 29.896 9c1.316 0 2.513 1.483 2.513 2.595s-.838 2.1-1.795 2.471c.479 4.201 1.915 10.874 2.274 16.063h.837c1.915-4.324 3.949-10.255 4.906-14.21-.718-.494-1.197-1.235-1.197-1.976 0-1.483 1.436-2.842 2.872-2.842 1.316 0 2.513 1.482 2.513 2.594 0 1.36-1.197 2.472-2.393 2.719 0 3.954-.12 9.514-.24 15.198.24 0 .479.124.718.247 2.752-4.325 4.786-8.773 6.342-11.738-.598-.495-.957-1.236-.957-1.854 0-1.482 1.435-2.842 2.871-2.842 1.316 0 2.513 1.483 2.513 2.595 0 1.483-1.556 2.718-2.872 2.718h-.12c-1.435 5.067-2.392 14.087-3.35 17.917-.359 1.483-2.752 3.46-2.752 4.696 0 1.606.24 3.583.24 5.066 0 2.224-5.624 3.583-13.162 3.583-7.06 0-13.162-1.36-13.162-3.707 0-1.73.24-3.583.24-4.942 0-1.236-2.274-2.842-2.633-4.696-.837-3.83-2.034-12.85-3.47-17.917h-.12C9.198 20.738 8 19.503 8 18.268c0-1.483 1.436-2.966 2.872-2.966zm6.46 25.454c2.394-1.36 7.3-2.471 12.325-2.471 4.906 0 10.05 1.112 12.324 2.347l.718-1.112c-2.393-1.606-7.418-2.965-13.042-2.965-5.743 0-10.53 1.482-13.042 2.965l.718 1.236zm.958 2.965c1.915-1.112 6.82-2.1 11.247-2.1 4.428 0 9.214.988 11.248 2.1V42.24c-2.274-1.236-5.983-2.225-11.248-2.225-5.264 0-8.973.989-11.247 2.224v1.483zm0 3.337c1.915-1.113 6.82-1.977 11.247-1.977 4.428 0 9.214.74 11.248 1.853V45.45c-2.274-1.236-5.983-2.1-11.248-2.1-5.264 0-8.973.864-11.247 2.1v1.606z" fill="#99895E"/></svg>