<?xml version="1.0" encoding="UTF-8"?>
<svg width="480" height="480" fill="none" version="1.1" xmlns="http://www.w3.org/2000/svg" xmlns:cc="http://creativecommons.org/ns#" xmlns:dc="http://purl.org/dc/elements/1.1/" xmlns:rdf="http://www.w3.org/1999/02/22-rdf-syntax-ns#">
 <metadata>
  <rdf:RDF>
   <cc:Work rdf:about="">
    <dc:format>image/svg+xml</dc:format>
    <dc:type rdf:resource="http://purl.org/dc/dcmitype/StillImage"/>
    <dc:title/>
   </cc:Work>
  </rdf:RDF>
 </metadata>
 <path d="m166.86 75.086c-0.74836 0.0082-1.4647 0.08218-2.1211 0.22461-2.9524 0.64065-4.6556 1.9012-5.8008 2.8555-2.2904 1.9085-2.9143 3.1701-3.5391 4.2012-1.0338 1.706-1.3385 2.6032-1.5039 3.0332-2.9009 5.9661-2.623 11.334-2.6035 15.182 0.0608 11.938 4.6735 23.019 12.203 31.576-24.43 11.949-52.095 34.285-67.041 55.082-31.723 38.103-47.921 77.284-58.439 122.12l-0.01953 0.0879-0.01953 0.0899c-7.5366 34.375-10.66 70.977-10.661 121.9-3.7e-5 2.7982 0.77545 3.8874 3.2351 3.8873 22.335-1e-3 190.32-5e-3 280.82-5e-3 8.5485 0 8.9693-8.5216 5.9171-12.449-18.601-23.932-41.775-58.028-41.858-81.321-1e-5 -2e-3 1e-5 -4e-3 0-6e-3 -2e-3 -6.4462 0.13474-7.9388 0.5-9.6523v-2e-3c2.1311-9.9992 7.2798-19.53 15.434-27.967 4.2828-4.0354 5.5304-4.9402 6.7578-5.6426 1.0985-0.62861 4.3217-2.1555 8.7148-4.5547 10.971-3.9271 10.565-3.9094 20.867-3.9336 9.7611-0.023 10.042-4e-3 16.932 2.3809 7.1009 2.4578 10.176 4.1155 16.811 9.1387 8.8353 6.6896 19.116 10.174 29.596 9.6953 10.841-0.4953 21.112-5.0049 28.863-12.645 14.735-14.523 17.182-37.619 5.8184-54.908 2.0858 3.1735 0.20016-0.039 0.0781-0.63477v-2e-3c-1.6311-7.9624-4.3646-15.065-8.4492-21.537-0.76277-1.2086-1.2784-2.2283-3.0039-4.0762-0.2832-0.30328-0.72192-0.71331-1.125-1.0996 1.3603-6e-3 2.5325-0.14101 3.3555-0.3418 2.666-0.65042 3.6053-1.3028 4.6543-1.8379 9.6173-4.9064 14.726-13.758 17.473-23.729 1.4116-1.5421 2.3256-2.8761 3.3184-4.3984 1.4241-2.1837 2.7576-4.4831 3.8965-7.0215l0.12304-0.27148 0.10742-0.27734c9.1371-23.275 7.0336-39.531 5.0332-47.057l-2e-3 -4e-3v-2e-3c-0.52717-1.9794-1.5504-5.0456-3.4844-7.6602s-3.7615-4.0154-5.7461-5.625c-13.081-10.609-31.596-19.193-48.506-22.693l-0.0527-0.0098-0.0508-0.0098c-11.786-2.3361-21.448-1.5076-28.773-2.8848-4.9669-0.98116-9.2216-2.1796-20.248-5.8164-17.235-5.6849-24.64-7.1905-34.998-7.1406-12.824 0.06194-24.705 2.0816-38.674 6.4258-5.1383 1.598-16.941 3.8964-23.293 4.4609-11.653 1.0357-29.704-0.70947-44.693-4.6738-1.484-0.39248-3.4225-0.87033-4.916-1.2227-9.9097-2.9207-17.744-4.5353-24.242-7.8457l0.13672 0.16016c-2.0094-1.0158-4.5362-1.5753-6.7812-1.5508z" color="#000000" color-rendering="auto" dominant-baseline="auto" fill="#f2e8b9" image-rendering="auto" shape-rendering="auto" solid-color="#000000" stop-color="#000000" style="font-feature-settings:normal;font-variant-alternates:normal;font-variant-caps:normal;font-variant-east-asian:normal;font-variant-ligatures:normal;font-variant-numeric:normal;font-variant-position:normal;font-variation-settings:normal;inline-size:0;isolation:auto;mix-blend-mode:normal;shape-margin:0;shape-padding:0;text-decoration-color:#000000;text-decoration-line:none;text-decoration-style:solid;text-indent:0;text-orientation:mixed;text-transform:none;white-space:normal"/>
 <path d="m167.83 87.607c-0.77444 0.55791-1.2406 1.2447-1.5655 1.7958-1.4521 2.4777-2.4904 7.1536-2.4704 11.118 0.0799 15.812 11.219 30.291 26.416 34.329 2.7995 0.74398 10.896 1.0757 15.18 0.62237 1.1219-0.11876 2.0953-0.0352 2.1605 0.18645 0.18481 0.62879-4.3326 2.718-7.4411 3.4409-4.2895 0.99748-9.3303 1.2719-12.516 0.6827-6.3634-1.177-8.1207-1.0875-12.245 0.61963-22.582 9.3477-42.391 25.06-56.373 44.713-14.428 20.279-23.506 46.608-23.516 68.201-0.0028 6.0736 0.80241 12.438 1.7355 13.714 0.29881 0.40868 0.65007 0.64126 0.77866 0.5127 0.12873-0.12858 0.98521-2.364 1.9055-4.9653 1.9058-5.3866 5.3512-12.468 7.9538-16.341 2.6983-4.0152 7.7697-10.178 8.1704-9.9306 0.19584 0.12101-0.20767 1.3359-0.89656 2.7006-0.68892 1.3647-1.9708 4.3174-2.8487 6.5609-5.8942 15.062-8.6456 27.08-9.7606 42.623-1.7 23.696 4.5656 49.139 16.5 66.998 4.3869 6.5643 11.608 14.825 12.33 14.104 0.15686-0.15687-0.13631-2.0842-0.65528-4.2826-1.5524-6.5758-1.8485-9.25-1.8589-16.944-0.0112-7.18 0.69083-14.463 1.39-14.463 0.19327 0 0.56453 1.1189 0.828 2.484 2.2806 11.816 7.2798 26.649 11.921 35.376 7.631 14.349 18.003 25.876 30.828 34.409-1.3726-0.21478-40.924-6.6526-65.744-39.878-25.258-33.813-19.738-77.727-19.738-77.727s-5.6368-16.135-5.6196-34.062c0.0153-15.927 4.4213-33.178 4.4213-33.178s-24.148 33.552-36.915 91.192c-7.4637 33.698-9.3681 55.811-10.183 110.6h261.4c-20.146-25.759-38.373-52.653-38.472-81.235-3e-3 -6.7068 0.16841-9.4517 0.77592-12.302 2.6652-12.505 9.1011-24.211 18.801-34.197 1.5498-1.5958 2.7112-3.008 2.5827-3.1366-0.12859-0.12845-2.206-0.01-4.6171 0.26594-7.3155 0.83185-17.661-0.55192-26.614-3.5615-5.1926-1.7453-14.438-6.2291-18.51-8.9764-15.36-10.364-25.984-25.255-30.211-42.338-0.93906-3.795-2.4125-13.815-2.4264-16.511-0.01-1.6688 0.71009-0.60525 1.168 1.7273 0.26796 1.3651 0.80761 4.1345 1.1981 6.1524 1.6003 8.2693 6.4875 19.762 11.288 26.545 11.624 16.427 29.066 26.694 50.645 29.81 3.8122 0.55069 6.9418 0.66884 13.599 0.50996 9.5932-0.22895 14.787-1.0589 21.379-3.4134 12.26-4.3785 14.731-4.8437 25.685-4.8694 10.168-0.0239 13.53 0.46472 21.051 3.0681 7.9705 2.7588 13.003 5.4862 20.268 10.986 7.4886 5.6698 13.131 7.5538 21.479 7.1724 8.6815-0.39666 14.427-2.9154 20.659-9.0587 10.609-10.457 12.33-26.693 4.1483-39.141-0.55672-0.84705-1.3327-3.0934-1.7219-4.9926-1.4017-6.8425-3.4617-12.125-6.7749-17.374-2.5939-4.11-2.974-3.7763-3.5698 3.1311-0.14336 1.6619-0.83398 5.7299-1.5354 9.0394-0.70135 3.3097-1.171 6.341-1.0446 6.7392 0.35848 1.1294 1.7682 2.2084 3.29 2.5196 2.3218 0.47487 2.0447 1.3407-0.4277 1.3407-3.8535 0-4.2457-0.33866-4.5787-3.9645-0.42198-4.5937-1.8357-9.9748-3.567-13.572-1.5606-3.2422-5.7595-8.3623-6.8571-8.3623-0.87223 0-1.3368 1.3812-1.8945 5.6123-0.99001 7.511-4.054 19.247-5.393 20.656-0.46426 0.48871-2.0624 0.17836-9.777-1.8864-12.941-3.4634-15.018-3.9341-20.875-4.7322-2.849-0.38813-7.3163-0.99628-9.9279-1.3544-13.574-1.8616-20.372-5.2837-22.414-11.277-1.3143-3.8571-0.6726-4.7883 1.0446-1.5162 1.6294 3.1046 4.7525 5.9902 8.3156 7.6823 3.0824 1.4638 10.675 3.6492 12.678 3.6492 1.7588 0 1.1394-1.1633-1.3846-2.6074-3.4237-1.9588-6.8987-5.5146-8.2883-8.4802-1.0956-2.3384-1.1707-2.8724-1.1186-7.9045 0.0462-4.4665 0.25102-6.0501 1.1899-9.1903 3.2026-10.712 10.554-20.026 21.537-27.286 4.1396-2.7365 2.6471-3.1985-4.6527-1.4421-9.4408 2.2714-17.878 7.5255-24.092 15.005-0.87226 1.0501-1.6887 1.8043-1.8151 1.6779-0.33804-0.338 2.4817-5.1681 4.7076-8.0607 9.339-12.137 24.181-16.851 45.809-14.559 8.2173 0.87091 15.801 2.2752 16.604 3.079 0.54286 0.54288 0.65294 2.0096 0.63883 8.3075-0.01 4.2056-0.25703 9.0793-0.55109 10.83-0.84834 5.0502-0.16785 5.7375 3.7206 3.7672 6.5532-3.3208 11.968-9.4272 15.28-17.231 0.72394-1.7059 1.4654-3.1988 1.6506-3.3175 0.54433-0.34919 5.1709 0.0486 5.1709 0.44415 0 0.19893-0.4364 0.42313-0.97058 0.499-0.94867 0.13448-0.96659 0.24793-0.8472 4.8858 0.0672 2.6116-0.0592 6.4863-0.27965 8.609-0.5625 5.4174-0.295 5.7863 2.9968 4.1072 4.9887-2.545 9.3556-8.9357 11.345-16.601 0.41894-1.6139 1.0602-2.9166 1.7026-3.4545 1.4665-1.2282 4.442-5.7882 5.9166-9.0751 2.0532-4.5762 3.3458-9.2469 5.4588-19.702 0.22411-1.1088-0.88122-4.6986-2.2126-7.1915-1.0432-1.9535-2.4576-3.2858-6.4924-6.1141-3.9911-2.7977-11.869-10.396-11.869-11.447 0-1.3221 1.0838-0.9952 5.5054 1.6643 6.6746 4.0145 13.252 7.2522 14.081 6.9338 0.8453-0.32436 0.85719-0.63477 0.1151-3.4217-0.81973-3.0779-1.3833-3.84-5.0256-6.794-10.864-8.8108-28.796-17.185-43.166-20.16-9.553-1.8935-19.178-1.0654-28.706-2.8679-5.6067-1.1048-10.595-2.5281-21.799-6.2238-17.009-5.6103-21.514-6.5574-31.023-6.5117-11.632 0.05615-21.861 1.7693-35.02 5.8619-6.6454 2.0666-18.256 4.2969-25.898 4.9762-13.803 1.2267-32.607-0.70535-48.994-5.0393-1.4246-0.37673-3.6595-0.93293-4.9653-1.2365-9.5866-2.6434-17.564-4.2654-26.674-8.7808zm139.91 17.761c2.1629-0.0893 5.8651 0.57594 8.5515 1.5875 1.3364 0.50319 4.6372 2.4403 7.337 4.3045 4.7418 3.2744 4.9081 3.439 4.7926 4.8447-0.066 0.80032-0.55251 2.3259-1.0802 3.3943-0.5277 1.0684-1.2506 1.9765-1.6066 2.0151-0.35614 0.0385-2.0585-0.39461-3.7809-0.96234-3.7217-1.2268-7.6163-1.9065-10.953-1.911-2.8856-4e-3 -3.3326-0.41038-3.6794-3.3394-0.19389-1.6371-0.0387-2.6126 0.66351-4.2004 0.50326-1.1377 0.913-2.4261 0.913-2.8624 0-0.88866-1.2114-1.6889-2.5608-1.6889-1.4414 0-1.0203-0.79677 0.57851-1.0967 0.23862-0.0448 0.51626-0.0723 0.82526-0.0851zm26.107 11.839 2.5251 0.52368c1.3891 0.28828 3.3028 0.56263 4.2524 0.60866 0.94966 0.046 1.7125 0.27529 1.6972 0.51271-0.015 0.23741-1.511 1.1872-3.3257 2.1085-2.6124 1.3262-3.9321 1.7224-6.3389 1.8945-3.3544 0.24-3.8107-0.15696-2.0673-1.793 0.53492-0.50207 1.4858-1.5735 2.1139-2.3826z" fill="#000" stroke-width=".43166"/>
</svg>
