<?xml version="1.0" encoding="UTF-8"?>
<svg width="480" height="480" fill="none" version="1.1" xmlns="http://www.w3.org/2000/svg" xmlns:cc="http://creativecommons.org/ns#" xmlns:dc="http://purl.org/dc/elements/1.1/" xmlns:rdf="http://www.w3.org/1999/02/22-rdf-syntax-ns#">
 <metadata>
  <rdf:RDF>
   <cc:Work rdf:about="">
    <dc:format>image/svg+xml</dc:format>
    <dc:type rdf:resource="http://purl.org/dc/dcmitype/StillImage"/>
    <dc:title/>
   </cc:Work>
  </rdf:RDF>
 </metadata>
 <g transform="matrix(1.4038 0 0 1.4038 -69.171 -81.716)" fill="none">
  <path d="m168.83 120.62c-0.0549 2e-3 -0.1134 0.0189-0.17382 0.0527-0.2417 0.13513-0.53477 0.53274-0.94141 1.2266-1.0344 1.765-1.7741 5.096-1.7598 7.9199 0.0569 11.264 7.9918 21.578 18.818 24.455 1.9943 0.52999 7.7621 0.76632 10.814 0.44336 0.7992-0.0846 1.4926-0.0251 1.5391 0.13282 0.13165 0.44793-3.0864 1.9362-5.3008 2.4512-3.0557 0.71057-6.6466 0.90608-8.916 0.48633-4.5331-0.83843-5.7849-0.77467-8.7226 0.4414-16.087 6.659-39.194 24.817-49.155 38.816-21.79 26.088-32.685 52.367-40.008 83.58-5.2656 24.017-6.6735 39.758-7.2539 78.791h186.21c-14.351-18.35-27.336-37.508-27.406-57.869-2e-3 -4.7777 0.11997-6.7331 0.55274-8.7637 1.8986-8.9079 6.4833-17.247 13.393-24.361 1.104-1.1368 1.9314-2.1428 1.8398-2.2344-0.0916-0.0915-1.5715-7e-3 -3.2891 0.18945-5.2113 0.59258-12.581-0.39317-18.959-2.5371-3.699-1.2433-10.285-4.4374-13.186-6.3945-10.942-7.3832-18.51-17.991-21.521-30.16-0.66896-2.7034-1.7186-9.8415-1.7285-11.762-7e-3 -1.1888 0.50584-0.43116 0.83203 1.2305 0.19088 0.97248 0.57531 2.9453 0.85351 4.3828 1.14 5.8908 4.6215 14.078 8.041 18.91 8.2803 11.702 20.706 19.016 36.078 21.236 2.7157 0.39229 4.9451 0.47646 9.6875 0.36328 6.8339-0.1631 10.534-0.75431 15.23-2.4316 8.7337-3.1191 10.494-3.4505 18.297-3.4688 7.2435-0.017 9.6383 0.33105 14.996 2.1856 5.6779 1.9653 9.2629 3.9082 14.438 7.8262 5.3346 4.039 9.3543 5.3811 15.301 5.1094 6.1844-0.28257 10.277-2.0768 14.717-6.4531 7.5575-7.4492 8.7835-19.015 2.9551-27.883-0.39659-0.60341-0.9494-2.2036-1.2266-3.5566-0.99851-4.8744-2.466-8.6373-4.8262-12.377-1.8478-2.9278-2.1186-2.6901-2.543 2.2305-0.10213 1.1839-0.5941 4.0818-1.0938 6.4394-0.49962 2.3577-0.83416 4.5171-0.74414 4.8008 0.25537 0.80454 1.2596 1.5732 2.3437 1.7949 1.654 0.33828 1.4566 0.95508-0.30468 0.95508-2.7451 0-3.0245-0.24125-3.2617-2.8242-0.3006-3.2724-1.3077-7.1057-2.541-9.668-1.1117-2.3096-4.1029-5.957-4.8848-5.957-0.62135 0-0.95232 0.98394-1.3496 3.998-0.70525 5.3506-2.8879 13.711-3.8418 14.715-0.33072 0.34814-1.4692 0.12706-6.9648-1.3438-9.2188-2.4672-10.698-2.8025-14.871-3.3711-2.0295-0.27649-5.2119-0.70972-7.0723-0.96484-9.6699-1.3261-14.512-3.7639-15.967-8.0332-0.93627-2.7477-0.47914-3.411 0.74414-1.0801 1.1607 2.2116 3.3855 4.2672 5.9238 5.4726 2.1958 1.0428 7.6043 2.5996 9.0312 2.5996 1.2529 0 0.81168-0.82872-0.98633-1.8574-2.4389-1.3954-4.9144-3.9284-5.9043-6.041-0.7805-1.6658-0.83396-2.0462-0.79687-5.6309 0.0329-3.1818 0.17882-4.3099 0.84766-6.5469 2.2814-7.6307 7.5182-14.266 15.342-19.438 2.9489-1.9494 1.8857-2.2785-3.3144-1.0273-6.7253 1.6181-12.736 5.3609-17.162 10.689-0.62137 0.74803-1.203 1.2853-1.293 1.1953-0.24081-0.24078 1.7679-3.6816 3.3535-5.7422 6.6528-8.6457 17.226-12.004 32.633-10.371 5.8537 0.62041 11.256 1.6208 11.828 2.1934 0.38671 0.38673 0.46513 1.4316 0.45508 5.918-7e-3 2.9959-0.1831 6.4678-0.39258 7.7148-0.60433 3.5976-0.11957 4.0872 2.6504 2.6836 4.6683-2.3656 8.5253-6.7156 10.885-12.275 0.51571-1.2152 1.0439-2.2787 1.1758-2.3633 0.38776-0.24875 3.6836 0.0346 3.6836 0.3164 0 0.14171-0.31088 0.30142-0.69141 0.35547-0.6758 0.0958-0.68857 0.17662-0.60352 3.4805 0.0479 1.8604-0.0422 4.6206-0.19921 6.1328-0.40071 3.8592-0.21015 4.122 2.1348 2.9258 3.5538-1.813 6.6646-6.3655 8.082-11.826 0.29844-1.1497 0.75526-2.0777 1.2129-2.4609 1.0447-0.87493 3.1643-4.1233 4.2148-6.4648 1.4626-3.2599 2.3834-6.5872 3.8887-14.035 0.15965-0.78988-0.62775-3.3471-1.5762-5.123-0.74315-1.3916-1.7507-2.3407-4.625-4.3555-2.8431-1.993-8.4551-7.4055-8.4551-8.1543 0-0.94185 0.77204-0.70895 3.9219 1.1856 4.7548 2.8598 9.4405 5.1662 10.031 4.9394 0.60217-0.23107 0.61064-0.45219 0.082-2.4375-0.58395-2.1926-0.98544-2.7355-3.5801-4.8398-7.7388-6.2765-20.513-12.242-30.75-14.361-2.9315-0.60688-10.639-1.3412-11.111-1.0586-0.33507 0.20063-6.7643-0.47725-9.3379-0.98438-3.994-0.78702-7.5476-1.8009-15.529-4.4336-12.117-3.9966-15.326-4.6713-22.1-4.6387-8.2865 0.04-15.573 1.2604-24.947 4.1758-4.734 1.4722-13.005 3.061-18.449 3.5449-9.8325 0.87389-23.228-0.50247-34.902-3.5898-1.0148-0.26837-2.6069-0.66459-3.5371-0.88086-6.681-1.7782-11.557-3.4218-19.001-6.2554zm99.664 12.652c1.5408-0.0636 4.1781 0.41028 6.0918 1.1309 0.95199 0.35846 3.3034 1.7384 5.2266 3.0664 3.3779 2.3326 3.4964 2.4498 3.4141 3.4512-0.047 0.57012-0.39359 1.6569-0.76953 2.418-0.37592 0.76107-0.89085 1.408-1.1445 1.4355-0.2537 0.0274-1.4664-0.28111-2.6934-0.68554-2.6512-0.87395-5.4256-1.3581-7.8027-1.3613-2.0556-3e-3 -2.374-0.29234-2.6211-2.3789-0.13812-1.1662-0.0276-1.8611 0.47266-2.9922 0.35851-0.81048 0.65039-1.7283 0.65039-2.0391 0-0.63305-0.86293-1.2031-1.8242-1.2031-1.0268 0-0.72683-0.56759 0.41211-0.78125 0.16999-0.0319 0.36777-0.0515 0.58789-0.0606zm18.598 8.4336 1.7988 0.37305c0.98953 0.20536 2.3528 0.4008 3.0293 0.43359 0.67651 0.0328 1.2199 0.19611 1.209 0.36524-0.0107 0.16912-1.0764 0.84568-2.3691 1.502-1.861 0.94478-2.8011 1.227-4.5156 1.3496-2.3896 0.17097-2.7146-0.11181-1.4727-1.2773 0.38106-0.35766 1.0584-1.1209 1.5059-1.6973z" fill="#fff" stroke-width=".3075"/>
 </g>
</svg>
