<?xml version="1.0" encoding="UTF-8"?>
<svg width="50mm" height="50mm" clip-rule="evenodd" fill-rule="evenodd" image-rendering="optimizeQuality" shape-rendering="geometricPrecision" text-rendering="geometricPrecision" version="1.1" viewBox="0 0 50 50" xmlns="http://www.w3.org/2000/svg" xmlns:cc="http://creativecommons.org/ns#" xmlns:dc="http://purl.org/dc/elements/1.1/" xmlns:rdf="http://www.w3.org/1999/02/22-rdf-syntax-ns#" xmlns:xlink="http://www.w3.org/1999/xlink">
 <metadata>
  <rdf:RDF>
   <cc:Work rdf:about="">
    <dc:format>image/svg+xml</dc:format>
    <dc:type rdf:resource="http://purl.org/dc/dcmitype/StillImage"/>
    <dc:title/>
   </cc:Work>
  </rdf:RDF>
 </metadata>
 <defs>
  <linearGradient id="linearGradient1019" x1="21.405" x2="-24.697" y1="37.346" y2="37.346" gradientUnits="userSpaceOnUse">
   <stop stop-color="#fff" offset="0"/>
   <stop stop-color="#fff" stop-opacity="0" offset="1"/>
  </linearGradient>
 </defs>
 <g transform="translate(50.14)">
  <g transform="matrix(-1 0 0 1 -.30064 .0012227)" clip-rule="evenodd" fill-rule="evenodd" image-rendering="optimizeQuality" shape-rendering="geometricPrecision">
   <path transform="scale(.26458)" d="m66.201 37.984c-1.1007 0.03439-2.7327 0.79929-3.7578 1.6426v0.0059h-0.0078c-1.0713 0.89264-1.5831 1.793-1.75 2.0684-0.42421 0.70007-0.61287 1.2011-0.66406 1.3359-1.285 2.6761-1.1571 5.1649-1.1504 6.4883 0.02079 4.0961 1.4838 7.831 3.6895 11.014-8.8475 4.7454-18.205 12.347-23.629 19.894-11.912 14.35-18.049 29.208-21.982 45.975l-0.0078 8e-3v6e-3l-0.01563 0.0527-0.0059 0.0508 0.0059-0.0137c-2.8177 12.844-3.9327 28.147-3.9327 47.005 0.07653 1.0752-8e-6 2.0925 2.1131 2.0928h108c3.1904 0 3.8471-3.2059 2.584-4.9375-7.263-9.2676-17.377-24.149-17.377-31.84v-4e-3c0-2.325 0.0694-2.6285 0.14648-3.2109v-0.01c0.60917-4.6775 5.834-9.3281 5.834-9.3281l0.0137-0.0137 0.0117-0.0156c4.1489-4.3874 12.4-5.5627 17.621-3.8457 2.5333 0.87727 3.2638 1.2682 5.6543 3.0781 3.6114 2.7343 7.8935 4.2008 12.291 4 4.5244-0.2067 8.8098-2.0863 12.039-5.2695 5.8587-5.7746 7.0023-14.773 3.0117-21.852v-2e-3c-0.1324-0.29008-0.19273-0.39679-0.25782-0.61719l-0.0156-0.0449c-0.51812-2.2639-1.8601-5.86-3.2324-8.207 0.13228-0.06183 0.40094-0.16062 0.48047-0.20117 4.016-2.0488 6.1709-5.7357 7.3223-9.5742 0.45216-0.53136 0.83595-1.0427 1.166-1.5488 0.54804-0.84039 1.0772-1.7636 1.543-2.7832l0.0371-0.05273 0.0156-0.04297 0.0723-0.15625 0.0625-0.16211 0.01-0.01367c3.523-8.9987 2.7645-15.515 1.9277-18.67v-0.0098l-0.0117-0.02344c-0.22763-0.85391-0.66125-2.2135-1.6172-3.5059-0.87901-1.1879-1.7799-1.8845-2.4883-2.459-5.1676-4.1763-12.232-7.4417-18.855-8.8125h-0.0451l-0.0489 0.01182c-4.6549-0.92142-8.442-0.65393-10.666-1.0703h-0.0156c-1.7401-0.34462-3.1849-0.75221-7.2344-2.0879-6.4519-2.1281-9.5734-2.7656-13.619-2.7461-4.9618 0.02381-9.6062 0.81835-14.926 2.4727-1.5705 0.48843-6.1322 1.3877-8.209 1.5723-10.597 1.2108-21.573-3.2394-29.672-5.6094h-0.02148c-0.13228-0.02683-0.27833-0.03808-0.43555-0.0332z" clip-rule="nonzero" color="#000000" color-rendering="auto" dominant-baseline="auto" fill="#1f1a17" fill-rule="nonzero" image-rendering="auto" shape-rendering="auto" solid-color="#000000" stop-color="#000000" style="font-feature-settings:normal;font-variant-alternates:normal;font-variant-caps:normal;font-variant-east-asian:normal;font-variant-ligatures:normal;font-variant-numeric:normal;font-variant-position:normal;font-variation-settings:normal;inline-size:0;isolation:auto;mix-blend-mode:normal;shape-margin:0;shape-padding:0;text-decoration-color:#000000;text-decoration-line:none;text-decoration-style:solid;text-indent:0;text-orientation:mixed;text-transform:none;white-space:normal"/>
   <path d="m17.738 11.828c-0.07593 0.0547-0.12163 0.12204-0.15349 0.17607-0.14237 0.24292-0.24417 0.70136-0.24221 1.09 0.0078 1.5503 1.1 2.9698 2.5899 3.3657 0.27447 0.07294 1.0683 0.10547 1.4883 0.06102 0.11-0.01164 0.20543-0.0035 0.21182 0.01828 0.01812 0.06165-0.42478 0.26648-0.72955 0.33736-0.42056 0.0978-0.91478 0.1247-1.2271 0.06693-0.62389-0.1154-0.79618-0.10662-1.2005 0.06075-2.214 0.91648-4.1562 2.457-5.527 4.3838-1.4146 1.9882-2.3046 4.5696-2.3056 6.6867-2.74e-4 0.59548 0.07867 1.2195 0.17016 1.3446 0.0293 0.04007 0.06374 0.06287 0.07634 0.05027 0.01262-0.01261 0.09659-0.23178 0.18682-0.48682 0.18685-0.52812 0.52465-1.2224 0.77982-1.6021 0.26455-0.39366 0.76177-0.99789 0.80106-0.97363 0.0192 0.01186-0.02036 0.13098-0.0879 0.26478-0.06755 0.1338-0.19322 0.42329-0.2793 0.64326-0.57789 1.4767-0.84765 2.655-0.95697 4.1789-0.16667 2.3232 0.44763 4.8178 1.6177 6.5687 0.43011 0.64359 1.1381 1.4535 1.2089 1.3828 0.01538-0.01538-0.01337-0.20434-0.06425-0.41988-0.1522-0.64472-0.18123-0.9069-0.18225-1.6613-0.0011-0.70395 0.06773-1.418 0.13628-1.418 0.01895 0 0.05535 0.1097 0.08118 0.24354 0.2236 1.1585 0.71374 2.6128 1.1688 3.4684 0.74817 1.4068 1.7651 2.537 3.0225 3.3736-0.13457-0.02106-4.0123-0.65224-6.4458-3.9098-2.4764-3.3152-1.9352-7.6206-1.9352-7.6206s-0.55265-1.5819-0.55097-3.3396c0.0015-1.5615 0.43348-3.2529 0.43348-3.2529s-2.3676 3.2896-3.6193 8.9408c-0.73177 3.3039-0.91848 5.4719-0.99838 10.844h25.629c-1.9752-2.5255-3.7622-5.1623-3.7719-7.9646-2.94e-4 -0.65756 0.01651-0.92668 0.07607-1.2061 0.26131-1.226 0.89231-2.3737 1.8433-3.3528 0.15195-0.15646 0.26582-0.29492 0.25322-0.30752-0.01261-0.01259-0.21628-9.8e-4 -0.45268 0.02607-0.71724 0.08156-1.7315-0.05411-2.6093-0.34918-0.5091-0.17112-1.4156-0.61072-1.8148-0.88008-1.506-1.0161-2.5476-2.4761-2.962-4.151-0.09207-0.37208-0.23653-1.3545-0.23789-1.6188-9.81e-4 -0.16362 0.06962-0.05934 0.11452 0.16935 0.02627 0.13384 0.07918 0.40536 0.11747 0.6032 0.1569 0.81075 0.63606 1.9375 1.1067 2.6026 1.1397 1.6106 2.8497 2.6172 4.9654 2.9227 0.37376 0.05399 0.6806 0.06557 1.3333 0.05 0.94055-0.02245 1.4498-0.10382 2.0961-0.33466 1.202-0.42928 1.4443-0.47489 2.5183-0.47741 0.99691-0.0023 1.3265 0.04556 2.0639 0.30081 0.78146 0.27048 1.2749 0.53789 1.9871 1.0771 0.73421 0.55589 1.2874 0.7406 2.1059 0.70321 0.85117-0.03889 1.4145-0.28584 2.0255-0.88815 1.0401-1.0252 1.2089-2.6171 0.40672-3.8375-0.05458-0.08305-0.13066-0.30329-0.16882-0.48949-0.13743-0.67086-0.3394-1.1888-0.66424-1.7034-0.25432-0.40296-0.29158-0.37024-0.35 0.30698-0.01406 0.16294-0.08177 0.56178-0.15054 0.88626-0.06876 0.3245-0.11481 0.6217-0.10242 0.66074 0.03515 0.11073 0.17336 0.21652 0.32256 0.24703 0.22764 0.04656 0.20047 0.13145-0.04193 0.13145-0.37781 0-0.41626-0.0332-0.44891-0.38869-0.04137-0.45038-0.17998-0.97797-0.34972-1.3306-0.15301-0.31788-0.56468-0.81987-0.6723-0.81987-0.08552 0-0.13106 0.13542-0.18574 0.55025-0.09706 0.73641-0.39747 1.887-0.52875 2.0252-0.04552 0.04791-0.2022 0.01749-0.95857-0.18495-1.2688-0.33956-1.4724-0.38571-2.0467-0.46396-0.27933-0.03805-0.71732-0.09768-0.97337-0.13279-1.3308-0.18252-1.9973-0.51803-2.1976-1.1056-0.12886-0.37816-0.06594-0.46946 0.10242-0.14865 0.15975 0.30439 0.46595 0.5873 0.81529 0.7532 0.30221 0.14352 1.0466 0.35778 1.243 0.35778 0.17244 0 0.11171-0.11405-0.13575-0.25564-0.33567-0.19205-0.67637-0.54067-0.81262-0.83143-0.10742-0.22926-0.11478-0.28162-0.10967-0.77499 0.0045-0.43791 0.02461-0.59317 0.11666-0.90105 0.31399-1.0502 1.0348-1.9634 2.1116-2.6752 0.40586-0.2683 0.25953-0.31359-0.45617-0.14139-0.92561 0.2227-1.7528 0.73783-2.3621 1.4711-0.08552 0.10296-0.16557 0.1769-0.17796 0.16451-0.03314-0.03314 0.24332-0.5067 0.46155-0.7903 0.91563-1.19 2.3708-1.6521 4.4913-1.4274 0.80565 0.08539 1.5492 0.22307 1.6279 0.30188 0.05322 0.05323 0.06402 0.19703 0.06263 0.8145-9.8e-4 0.41233-0.0252 0.89017-0.05403 1.0618-0.08317 0.49514-0.01646 0.56253 0.36478 0.36935 0.6425-0.32558 1.1734-0.92428 1.4981-1.6894 0.07098-0.16725 0.14367-0.31362 0.16183-0.32526 0.05337-0.03424 0.50697 0.0048 0.50697 0.04355 0 0.0195-0.04279 0.04149-0.09516 0.04892-0.09301 0.01319-0.09477 0.02431-0.08306 0.47902 0.0066 0.25605-0.0058 0.63594-0.02742 0.84406-0.05515 0.53114-0.02892 0.56731 0.29382 0.40268 0.48911-0.24952 0.91726-0.87609 1.1123-1.6276 0.04107-0.15823 0.10395-0.28595 0.16693-0.33869 0.14378-0.12042 0.43551-0.5675 0.58008-0.88976 0.2013-0.44867 0.32804-0.9066 0.5352-1.9317 0.02197-0.10871-0.0864-0.46067-0.21693-0.70508-0.10228-0.19153-0.24095-0.32215-0.63654-0.59945-0.3913-0.2743-1.1637-1.0193-1.1637-1.1223 0-0.12962 0.10626-0.09757 0.53977 0.16317 0.6544 0.3936 1.2993 0.71103 1.3806 0.67982 0.08288-0.0318 0.08404-0.06224 0.01129-0.33548-0.08037-0.30177-0.13562-0.37649-0.49273-0.66611-1.0651-0.86384-2.8233-1.6849-4.2322-1.9766-0.93661-0.18565-1.8803-0.10446-2.8144-0.28118-0.5497-0.10832-1.0388-0.24786-2.1373-0.6102-1.6676-0.55005-2.1093-0.64291-3.0416-0.63843-1.1404 0.0055-2.1433 0.17347-3.4335 0.57472-0.65154 0.20262-1.7899 0.42128-2.5391 0.48788-1.3533 0.12027-3.1969-0.06916-4.8036-0.49407-0.13967-0.03694-0.35879-0.09147-0.48682-0.12123-0.93991-0.25917-1.722-0.4182-2.6152-0.8609zm13.717 1.7414c0.21206-0.0088 0.57504 0.05647 0.83842 0.15564 0.13103 0.04934 0.45465 0.23926 0.71935 0.42203 0.4649 0.32104 0.48121 0.33717 0.46988 0.47499-0.0065 0.07847-0.05417 0.22804-0.10591 0.33279s-0.12261 0.19378-0.15752 0.19757c-0.03492 0.0038-0.20182-0.03869-0.37069-0.09435-0.36489-0.12028-0.74673-0.18692-1.0739-0.18736-0.28292-3.92e-4 -0.32674-0.04024-0.36074-0.32741-0.01901-0.16051-0.0038-0.25615 0.06505-0.41182 0.04934-0.11154 0.08951-0.23786 0.08951-0.28064 0-0.08713-0.11877-0.16559-0.25107-0.16559-0.14132 0-0.10003-0.07812 0.05672-0.10752 0.0234-0.0044 0.05062-0.0071 0.08091-0.0083zm2.5596 1.1607 0.24757 0.05134c0.13619 0.02826 0.32382 0.05516 0.41692 0.05967 0.09311 0.0045 0.1679 0.02699 0.1664 0.05027s-0.14814 0.1164-0.32606 0.20672c-0.25613 0.13003-0.38552 0.16887-0.62149 0.18574-0.32888 0.02353-0.37362-0.01539-0.20269-0.17579 0.05245-0.04922 0.14567-0.15427 0.20725-0.2336z" fill="url(#linearGradient1019)" stop-color="#000000" style="font-variation-settings:normal"/>
  </g>
 </g>
</svg>
