<?xml version="1.0" encoding="UTF-8"?>
<svg width="300" height="300" version="1.1" viewBox="0 0 300 300" xmlns="http://www.w3.org/2000/svg">
 <g transform="matrix(.26398 0 0 .26398 3.1667 6.008)" fill-opacity=".96">
  <path d="m549.56 49.553c-1.1056 0-32.317 15.966-211.5 108.2-46.2 23.781-85.651 43.952-87.668 44.824-2.8658 1.2393-3.666 2.484-3.666 5.7012 0 2.2639 0.64866 5.3293 1.4414 6.8106 2.1112 3.9447 0.34968 4.6914-3.1992 1.3574-5.9416-5.5818-6.9884-4.4461-19.141 20.773-6.2722 13.017-15.895 32.967-21.385 44.334-5.4902 11.367-12.098 25.166-14.684 30.666-2.5857 5.5-13.696 28.9-24.689 52s-27.755 58.434-37.248 78.521-20.317 42.587-24.051 50l-6.7891 13.479 2.166 25.334c6.1182 71.526 9.3527 102.88 10.754 104.29 2.2656 2.2656 2.4714-3.0695 1.0234-26.619-0.86797-14.117-1.9335-41.567-2.3672-61l-0.78906-35.334 8.3047-17.332c4.568-9.5333 11.457-24.235 15.307-32.668s23.638-50.733 43.975-94c20.336-43.267 41.155-87.666 46.266-98.666 18.463-39.739 20.231-43.334 21.312-43.334 0.60399 0 4.5549 2.3997 8.7793 5.332s8.431 5.333 9.3476 5.334c2.21 3e-3 2.0826-4.5272-0.34961-12.545-3.353-11.053-3.0721-11.68 7.0195-15.736 116.61-46.874 281.19-111.72 283.55-111.72 1.7148 0 6.3916 1.4474 10.393 3.2168 6.8346 3.0226 76.573 31.134 217.06 87.494 33.367 13.386 61.164 24.78 61.771 25.318 0.60759 0.5386-0.14372 5.167-1.668 10.285-1.5242 5.1182-2.7695 10.29-2.7695 11.494 0 3.5391 3.73 2.5502 11.846-3.1426 4.1817-2.9333 8.065-5.334 8.6309-5.334 0.56587 0 3.1603 4.6506 5.7656 10.334 8.4709 18.478 48.156 103.76 72.746 156.33 13.206 28.233 31.221 66.933 40.033 86l16.021 34.666-1.5508 50c-1.8362 59.235-1.9122 78.666-0.3125 78.666 0.64882 0 1.5531-3.15 2.0098-7 0.45662-3.85 2.0212-20.199 3.4766-36.332s3.6123-39.302 4.7949-51.484c1.1826-12.182 1.8925-27.482 1.5762-34l-0.5762-11.85-18.078-37.334c-9.9434-20.533-26.793-55.633-37.443-78s-27.701-58.065-37.893-79.332-24.48-51.117-31.75-66.334c-11.071-23.173-13.678-27.666-16.051-27.666-1.5583 0-3.9188 1.1994-5.2461 2.666-3.5587 3.9323-5.0324 3.2406-2.7012-1.2676 4.7115-9.111 6.2086-7.9702-44.299-33.756-25.483-13.01-70.335-35.997-99.668-51.082s-71.633-36.765-94-48.178-45.62-23.367-51.676-26.566c-6.0556-3.1992-11.525-5.8164-12.154-5.8164zm2.0176 173.77c-2.811 0.0791-11.821 3.2214-24.854 8.6816-83.156 34.839-178.71 74.751-189.55 79.176-14.873 6.0704-13.299 3.7122-21.143 31.705-2.9793 10.633-7.7702 27.434-10.646 37.334s-10.325 36-16.553 58c-6.2277 22-12.251 42.625-13.383 45.834-3.6198 10.258-1.6866 15.138 2.6641 6.7246 1.1683-2.2593 4.0975-8.71 6.5098-14.334s11.152-25.525 19.422-44.225 18.54-42.035 22.822-51.855c4.2823-9.8207 8.7942-18.97 10.025-20.33 2.092-2.3117 9.2094-6.9798 50.848-33.348 8.9926-5.6946 15.788-9.3305 15.1-8.0781-0.68795 1.2524-6.9943 10.653-14.016 20.889-11.646 16.978-14.819 23.389-11.57 23.389 0.65807 0 4.7081-1.7421 9-3.8711s18.303-8.6523 31.137-14.498c81.68-37.206 116.1-52.994 121.62-55.785 3.4589-1.7481 7.7636-3.1777 9.5664-3.1777s13.373 4.5748 25.711 10.168 32.633 14.793 45.1 20.443c12.467 5.6507 40.711 18.475 62.764 28.498s40.866 18.223 41.809 18.223c2.5088 0 1.2151-2.4822-8.8516-16.977-4.9792-7.1693-11.369-16.572-14.199-20.895l-5.1465-7.8594 5.1465 3.0996c4.7289 2.8483 32.95 20.659 53.812 33.963l8.666 5.5273 29.215 65.904c16.068 36.247 29.719 66.473 30.334 67.17 3.458 3.9165 0.2608-9.0371-17.584-71.266-2.839-9.9-8.1486-28.8-11.801-42-14.599-52.765-16.684-59.674-18.717-62.031-1.1624-1.3477-13.213-7.0643-26.779-12.703-13.567-5.6389-30.068-12.513-36.668-15.273-6.6-2.7609-24.6-10.261-40-16.668s-47.8-20.046-72-30.309-45.499-18.912-47.332-19.221c-0.13164-0.0222-0.29306-0.0307-0.48047-0.0254zm316.89 322.19c-0.27939 0.0362-0.41407 0.19043-0.41407 0.45703 0 0.228-1.2013 9.0419-2.668 19.586-1.4667 10.544-2.666 19.907-2.666 20.809 0 0.90145 3.5839 3.0298 7.9648 4.7285 7.7624 3.0099 7.9906 3.2405 8.9805 9.1074 0.55868 3.3112 0.95775 27.322 0.88672 53.355-0.11387 41.762-1.2033 65.373-4.0176 87-0.94204 7.2391 0.99508 8.5352 3.9844 2.666 2.3734-4.6599 7.9435-24.129 11.348-39.666 5.0155-22.891 7.1495-38.8 8.6641-64.568l1.5234-25.9 5.7637 8.5684c12.667 18.824 21.938 42.938 28.834 75.004 2.6046 12.111 4.7344 22.367 4.7344 22.791 0 0.42406 0.60066 0.77148 1.334 0.77148 0.82922 0 1.3284-7.4352 1.3203-19.666-0.0151-22.924-2.1743-105.05-3.4336-130.59l-0.86719-17.594-5.1484-3.4062c-8.9586-5.9285-9.2051-5.5736-9.2051 13.26 0 9.1667-0.26664 16.666-0.59374 16.666-0.53235 0-8.009-4.5875-43.783-26.869-7.4079-4.614-11.33-6.6626-12.541-6.5058zm-698.07 0.043c-2.4638 0-11.555 5.7438-12.344 7.7988-1.1511 2.9997-5.2321 164.08-4.1836 165.13 1.9495 1.9495 3.7384-2.4186 5.5332-13.506 5.0206-31.015 18.172-66.101 32.139-85.746 4.4934-6.32 4.5078-6.328 4.5352-2.3438 0.064 9.3066 2.6993 44.778 4.0117 53.996 2.4807 17.425 8.1076 44.151 12.189 57.891 4.3981 14.805 5.8569 18.109 7.9902 18.109 1.0042 0 1.1903-3.2176 0.59961-10.332-2.693-32.434-3.4641-51.626-3.4746-86.473-7e-3 -21.342 0.381-42.548 0.85938-47.125l0.86914-8.3223 7.7969-3.3809c9.012-3.9084 8.6994-2.6311 5.8027-23.801-2.5765-18.83-3.0196-20.566-5.2617-20.566-1.7389 0-11.268 5.6001-41.41 24.334l-12 7.459-1.166-16.562c-0.65116-9.2545-1.7489-16.562-2.4863-16.562zm599.32 16.014c-1.4096 0.0217-112.67 34.686-146.67 45.695-5.636 1.8251-5.471 3.8163 0.66602 8.0137 4.6319 3.168 7.2083 3.612 35 6.0195 16.5 1.4293 35.076 2.5215 41.281 2.4277l11.283-0.16993 9.0762-20.582c4.9917-11.319 9.4466-20.918 9.9004-21.332 0.45385-0.41407 0.43716 1.9461-0.0371 5.2461-2.0312 14.133-2.5213 24-1.1934 24 0.75015 0 4.8682-4.05 9.1523-9 4.2842-4.95 13.359-15.069 20.164-22.488 10.844-11.822 14.709-17.882 11.373-17.83zm-444.36 0.18355c-3.1314 0.22003-0.62534 4.982 7.0215 13.084 4.5833 4.8562 14.033 15.254 21 23.105 6.9667 7.8516 13.2 14.276 13.852 14.277 1.0688 1e-3 0.34706-13.707-1.291-24.535-0.34961-2.3109 3.8963 4.825 9.6406 16.203l10.266 20.334h7.4551c4.1 0 21.245-1.1886 38.1-2.6406 34.327-2.9571 39.312-3.6326 39.312-5.3301 0-0.65068 1.1994-1.5638 2.666-2.0293 1.4667-0.46551 2.668-1.9188 2.668-3.2305 0-1.8791-3.6045-3.5503-17-7.875-33.488-10.812-127.44-40.117-132-41.176-0.67891-0.1575-1.2421-0.21893-1.6894-0.1875zm89.818 186.59c-1.3214 0.0157-1.7969 0.46307-1.7969 1.2891 0 1.6268 31.749 16.959 42.668 20.605 18.803 6.2791 83.73 21.765 91.697 21.871 6.3472 0.0844 18.47-2.4706 50.275-10.592 38.184-9.7498 43.725-11.531 62.27-20.031 11.196-5.132 20.932-9.9064 21.635-10.609 3.2905-3.2905-2.0471-2.746-18.902 1.9277-18.915 5.245-28.217 6.5301-62.309 8.6094-11 0.67089-26.82 1.9822-35.154 2.9141-12.964 1.4495-19.226 1.3714-43.334-0.54101-33.726-2.6753-45.746-3.5639-55.512-4.0996-9.6046-0.5269-20.404-2.7881-36.148-7.5723-8.6326-2.6232-13.186-3.7976-15.389-3.7715zm374.13 27.877c-1.1842 0-26.692 50.739-41.895 83.334-2.3943 5.1333-6.38 11.182-8.8574 13.443-2.4774 2.2612-15.605 12.107-29.172 21.879-13.567 9.7715-33.666 24.304-44.666 32.295-11 7.9908-33.88 24.546-50.844 36.789s-36.015 25.995-42.334 30.561c-10.706 7.7342-13.678 11.033-9.9414 11.033 0.8512 0 13.602-7.3802 28.334-16.398 14.732-9.0184 58.809-35.568 97.949-59s71.95-43.803 72.91-45.27c0.96024-1.4667 6.6238-20.965 12.586-43.332 5.9621-22.367 12.303-45.498 14.09-51.402 3.6245-11.974 3.8827-13.932 1.8398-13.932zm-482.26 0.0254c-2.1707-0.0325-2.1052 2.3958 0.24414 9.0547 1.051 2.9788 7.0755 25.104 13.389 49.168 6.3132 24.063 12.059 45.552 12.77 47.752 1.1285 3.4956 10.977 9.8004 78.105 50 42.248 25.3 86.191 51.815 97.652 58.922 19.203 11.908 25.506 14.864 25.506 11.965 0-1.1299-12.519-10.675-36.666-27.953-37.741-27.006-69.702-50.064-82.754-59.705-8.0197-5.9238-21.78-15.959-30.58-22.301-31.441-22.659-27.964-18.845-40.947-44.928-6.3878-12.833-16.888-34.273-23.334-47.643s-12.468-24.318-13.385-24.332z" fill="#fafafa" stroke-width="0"/>
  <path d="m518.72 1034.8c-15.767-9.5636-31.367-19.065-34.667-21.114-3.3-2.0487-19.5-11.708-36-21.465s-35.4-21.043-42-25.079c-6.6-4.0367-19.8-11.968-29.333-17.626s-28.733-17.183-42.667-25.613c-29.169-17.647-25.089-11.885-34.687-48.991-3.3194-12.833-6.5618-24.578-7.2053-26.099-0.74951-1.7714-14.519-10.092-38.306-23.148-20.424-11.21-37.87-20.976-38.767-21.702-1.1186-0.90447-1.7476-7.4234-2-20.728l-0.36821-19.408-14-5.7817c-7.7-3.1799-14.961-5.7857-16.136-5.7906-1.718-7e-3 -2.3032 2.1423-2.992 10.991-0.47097 6.05-0.8599 13.815-0.86429 17.255-4e-3 3.4401-0.57061 6.6024-1.2582 7.0274-0.68765 0.42499-9.5376-2.776-19.667-7.1133l-18.416-7.886 0.24662-47.808c0.23903-46.336 2.1982-131.93 3.9111-170.88l0.83894-19.076 12.835-9.6737c14.242-10.734 24.916-18.174 26.075-18.174 0.41787 0 0.75977 9 0.75977 20 0 15.397 0.39415 20 1.7126 20 2.0652 0 33.27-20.949 34.455-23.13 0.45883-0.84489 1.2613-11.436 1.7833-23.536 0.52197-12.1 1.57-22.75 2.329-23.667 2.2285-2.6915 4.9956-1.94 8.5914 2.3333 3.9958 4.7488 8.0016 5.1548 9.8639 1 0.73955-1.65 3.3423-10.8 5.7838-20.333 2.4416-9.5333 9.6693-36.833 16.062-60.667 6.3924-23.833 15.227-56.833 19.633-73.333 4.4056-16.5 8.7099-30.71 9.565-31.578 0.85515-0.86798 12.655-6.0638 26.221-11.546 13.567-5.4825 30.067-12.186 36.667-14.896s19.8-8.0915 29.333-11.958c19.639-7.9655 52.01-21.162 76.667-31.253 78.392-32.084 86.183-34.684 86.788-34.835 0.57941 0.19314 35.456 13.471 92.545 36.963 18.803 7.7376 98.209 40.037 135.28 55.029l28.617 11.572 2.4078 7.9184c1.3243 4.3551 12.654 46.618 25.178 93.918s23.386 86.75 24.138 87.667c2.1906 2.6686 4.1471 1.9072 7.7083-3 1.8333-2.5263 4.3099-4.6098 5.5034-4.63 4.6593-0.0788 5.6468 3.7544 6.6302 25.736 0.5305 11.858 1.3433 22.461 1.8062 23.561 0.95055 2.2588 29.114 23.099 32.115 23.764 1.6396 0.36343 1.945-2.8289 1.945-20.333 0-11.42 0.34189-20.764 0.75976-20.764 1.1588 0 11.832 7.4389 26.065 18.166l12.825 9.666 0.84499 18.417c1.3255 28.89 3.8101 142.6 4.0001 183.07l0.1721 36.654-16.667 6.8763c-25.046 10.333-22.187 11.212-23.258-7.1468-1.06-18.17-1.5233-20.372-4.2858-20.372-1.1171 0-7.6132 2.4578-14.436 5.4617-14.588 6.4228-14.02 5.2153-14.02 29.827v16.289l-31 17.084c-17.05 9.3963-34.456 18.941-38.681 21.211-6.3118 3.3914-7.8999 4.9585-8.9111 8.7935-0.67677 2.5667-4.088 15.767-7.5805 29.333-5.5663 21.622-6.8526 25.145-10.422 28.543-4.8335 4.6015-239.28 142.98-239.28 142.98s-13.619-6.5482-30.794-16.966zm71.214-45.618c14.732-9.0184 58.81-35.568 97.95-59s71.95-43.803 72.91-45.27c0.96024-1.4667 6.624-20.967 12.586-43.333 5.9621-22.367 12.302-45.498 14.09-51.402 3.6245-11.974 3.883-13.931 1.8402-13.931-1.1842 0-26.692 50.738-41.895 83.333-2.3943 5.1333-6.3802 11.183-8.8576 13.445-2.4774 2.2612-15.604 12.106-29.171 21.878-13.567 9.7715-33.667 24.304-44.667 32.295-11 7.9908-33.88 24.546-50.844 36.789s-36.014 25.995-42.333 30.561c-10.706 7.7341-13.678 11.033-9.9422 11.033 0.8512 0 13.601-7.3786 28.333-16.397zm-55.214 13.95c0-1.1298-12.519-10.674-36.667-27.952-37.741-27.006-69.7-50.064-82.752-59.705-8.0197-5.9238-21.781-15.959-30.581-22.302-31.441-22.659-27.965-18.845-40.947-44.928-6.3878-12.833-16.888-34.272-23.333-47.642s-12.469-24.32-13.386-24.333c-2.1707-0.0325-2.1052 2.3968 0.24418 9.0556 1.051 2.9788 7.0762 25.104 13.389 49.168 6.3132 24.063 12.06 45.552 12.77 47.752 1.1285 3.4956 10.977 9.8004 78.106 50 42.248 25.3 86.192 51.815 97.653 58.922 19.203 11.908 25.505 14.864 25.505 11.965zm63.308-221.59c38.184-9.7498 43.724-11.532 62.269-20.033 11.196-5.132 20.931-9.9061 21.634-10.609 3.223-3.8305-1.5312-1.5817-18.294 3.4126l-30.114 8.715-4.7447-2.7081-8.1316 3.6835-2.5718-1.4679-7.0619 2.7236-2.8345-1.6178-58.67 5.0817-56.785-5.0817-3.2656 1.6178-6.3578-3.1746-4.0596 2.5574-8.4611-4.322-4.7973 3.2162-35.683-10.924c-11.564-3.5403-17.466-5.7437-17.466-3.5411 0 1.6268 32.501 17.545 43.42 21.191 18.803 6.2791 85.739 21.765 93.707 21.871 6.3472 0.0844 16.463-2.4696 48.268-10.591zm-377.15-44.965c-2.693-32.434-3.4641-51.624-3.4746-86.471-7e-3 -21.342 0.37971-42.549 0.85809-47.126l0.8698-8.3218 7.7969-3.3814c9.012-3.9084 8.7005-2.631 5.8039-23.801-2.5765-18.83-3.0205-20.565-5.2627-20.565-1.7389 0-11.269 5.6-41.411 24.334l-12 7.4582-1.1654-16.563c-0.65116-9.2545-1.7477-16.563-2.4851-16.563-2.4638 0-11.555 5.7444-12.344 7.7995-1.1511 2.9997-5.2329 164.08-4.1844 165.13 1.9495 1.9495 3.739-2.4178 5.5338-13.505 5.0206-31.015 18.172-66.103 32.139-85.747 4.4934-6.32 4.5064-6.3268 4.5338-2.3425 0.064 9.3066 2.6993 44.777 4.0117 53.996 2.4807 17.425 8.1084 44.15 12.19 57.89 4.3981 14.805 5.8563 18.11 7.9896 18.11 1.0042 0 1.1913-3.2189 0.6006-10.333zm659.65 6.6667c2.3734-4.6599 7.943-24.13 11.347-39.667 5.0155-22.891 7.1502-38.798 8.6648-64.567l1.5223-25.9 5.7648 8.5671c12.667 18.824 21.937 42.939 28.833 75.005 2.6046 12.111 4.7356 22.367 4.7356 22.791 0 0.42406 0.6 0.771 1.3333 0.771 0.82922 0 1.3284-7.4358 1.3204-19.667-0.0151-22.924-2.1743-105.05-3.4336-130.59l-0.86722-17.593-5.1479-3.4067c-8.9586-5.9285-9.205-5.5734-9.205 13.26 0 9.1667-0.26764 16.667-0.59476 16.667-0.53235 0-8.0085-4.5882-43.783-26.87-9.1174-5.6787-12.956-7.4708-12.956-6.049 0 0.228-1.2 9.0415-2.6667 19.585s-2.6667 19.908-2.6667 20.81c0 0.90145 3.5844 3.0289 7.9653 4.7276 7.7624 3.0099 7.9911 3.2419 8.981 9.1088 0.55868 3.3112 0.95768 27.32 0.88665 53.354-0.11387 41.762-1.2047 65.373-4.019 87-0.94204 7.2391 0.99578 8.5358 3.9851 2.6667zm-449.11-121.64c34.327-2.9571 39.312-3.6331 39.312-5.3306 0-0.65068 1.2-1.5639 2.6667-2.0294s2.6667-1.9195 2.6667-3.2311c0-1.8791-3.6045-3.5484-17-7.8731-33.488-10.812-127.44-40.119-132-41.177-5.4313-1.26-3.4059 3.638 5.3333 12.897 4.5833 4.8562 14.033 15.253 21 23.105 6.9667 7.8516 13.199 14.276 13.851 14.277 1.0688 1e-3 0.34797-13.707-1.2901-24.535-0.34961-2.3109 3.8963 4.8255 9.6406 16.204l10.265 20.333h7.4546c4.1 0 21.245-1.188 38.1-2.64zm288.95-18.607c4.9917-11.319 9.4472-20.919 9.901-21.333 0.45385-0.41407 0.43716 1.9471-0.0371 5.2471-2.0312 14.133-2.5221 24-1.1942 24 0.75015 0 4.8691-4.05 9.1533-9s13.357-15.07 20.163-22.489c10.844-11.822 14.709-17.88 11.373-17.829-1.4096 0.0217-112.67 34.686-146.67 45.695-5.636 1.8251-5.4704 3.8156 0.66667 8.0129 4.6319 3.168 7.2083 3.611 35 6.0185 16.5 1.4293 35.077 2.5221 41.282 2.4283l11.282-0.17048 9.0758-20.58zm-442.25-112.19c1.1683-2.2593 4.0979-8.7093 6.5102-14.333s11.152-25.526 19.422-44.226 18.54-42.035 22.822-51.856c4.2823-9.8207 8.7933-18.969 10.025-20.33 2.092-2.3117 9.2108-6.9803 50.849-33.348 8.9926-5.6946 15.787-9.3292 15.099-8.0768-0.68795 1.2524-6.9955 10.652-14.017 20.887-11.646 16.978-14.818 23.39-11.569 23.39 0.65807 0 4.7081-1.7419 9-3.8709s18.303-8.6538 31.137-14.5c81.68-37.206 116.1-52.994 121.62-55.784 3.4589-1.7481 7.764-3.1784 9.5668-3.1784s13.373 4.5762 25.711 10.169c12.338 5.5932 32.633 14.793 45.1 20.443 12.467 5.6507 40.71 18.474 62.762 28.497 22.053 10.023 40.867 18.223 41.809 18.223 2.5088 0 1.2148-2.4817-8.8519-16.976-4.9792-7.1693-11.369-16.572-14.199-20.895l-5.1456-7.8598 5.1456 3.0993c4.7289 2.8483 32.95 20.66 53.812 33.963l8.6667 5.5265 29.215 65.904c16.068 36.247 29.718 66.474 30.333 67.171 3.458 3.9165 0.26176-9.0382-17.583-71.267-2.839-9.9-8.1498-28.8-11.802-42-14.599-52.765-16.684-59.674-18.716-62.031-1.1624-1.3477-13.214-7.064-26.78-12.703-13.567-5.6389-30.067-12.511-36.667-15.272s-24.6-10.262-40-16.669-47.8-20.046-72-30.308-47.756-19.149-49.885-19.221c-2.3432 0.11882-8.879 2.8314-22.781 8.6557-83.156 34.839-178.71 74.752-189.55 79.177-14.873 6.0704-13.3 3.7118-21.143 31.705-2.9793 10.633-7.7702 27.433-10.646 37.333s-10.325 36-16.553 58c-6.2277 22-12.25 42.625-13.382 45.834-3.6198 10.258-1.6869 15.138 2.6637 6.7245zm697.47 172.44c-1.6065-26.256-1.1607-36.912 1.6814-40.189 1.5367-1.7718 2.8661-5.9413 3.3597-10.537 1.9759-18.396 4.7419-66.44 4.7525-82.547 0.012-17.416-0.0345-17.685-4.2202-24.667-2.3275-3.8823-10.031-17.559-17.119-30.392-7.0879-12.833-16.956-30.533-21.929-39.333-15.175-26.851-29.081-51.668-32.657-58.277-6.6321-12.258-29.267-52.769-43.891-78.555-11.811-20.826-14.841-27.22-14.85-31.333-7e-3 -2.8426-0.38995-8.3184-0.85239-12.168-1.0156-8.4548-2.8308-8.9053-9.4027-2.3333-2.5667 2.5667-5.4169 4.6667-6.3338 4.6667-1.5756 0-33.805-12.917-81.4-32.624-11.733-4.8582-32.433-13.372-46-18.919-20.049-8.1976-74.028-30.423-147.59-60.77l-9.5945-3.9579-16.406 6.9982c-9.023 3.849-24.206 10.162-33.739 14.028-9.5333 3.8665-24.533 10.002-33.333 13.635-29.601 12.22-69.681 28.682-116 47.644-9.5333 3.9028-31.983 13.141-49.887 20.53-17.905 7.3889-33.537 13.434-34.738 13.434s-4.22-2.1-6.7076-4.6667c-2.4877-2.5667-5.6054-4.6667-6.9282-4.6667-2.1265 0-2.4051 1.2938-2.4051 11.17 0 13.091-0.6868 14.998-13.106 36.377-5.0437 8.6823-18.034 31.686-28.868 51.119s-23.218 41.446-27.521 48.917c-4.3029 7.4713-10.728 18.871-14.278 25.333-3.5499 6.462-15.662 28.249-26.916 48.416s-21.634 38.954-23.067 41.751c-2.5613 4.9985-2.5682 5.7828-0.40676 46.667 3.1382 59.361 3.4176 62.208 6.3507 64.719 2.2578 1.9332 2.4794 4.4201 2.4794 27.827 0 29.434 0.41052 28.659-11.884 22.429-7.8741-3.9901-7.3887-1.5855-10.105-50.059-1.0889-19.433-2.9469-51.233-4.1291-70.667-1.1821-19.433-1.8861-38.633-1.5645-42.667 0.48074-6.0285 4.3232-15.281 21.595-52 11.555-24.567 30.903-65.967 42.994-92s23.686-50.933 25.766-55.333c2.0799-4.4 8.1008-17.6 13.38-29.333 5.2789-11.733 11.98-26.133 14.892-32 2.9115-5.8667 7.3953-15.716 9.964-21.887 8.9008-21.384 2.1728-16.708 82.68-57.468 39.46-19.978 85.545-43.369 102.41-51.978 54.135-27.634 123.81-63.043 130.33-66.235 3.4797-1.7038 7.6797-3.0816 9.3333-3.0619 2.9703 0.03547 31.304 13.906 91.007 44.552 16.867 8.6579 53.467 27.289 81.333 41.404 27.867 14.114 71.067 35.997 96 48.63 24.933 12.632 46.055 23.66 46.937 24.507 0.88221 0.84624 5.5872 10.539 10.456 21.539 4.8684 11 14.431 32 21.25 46.667 6.8191 14.667 22.417 48.267 34.662 74.667s23.936 51.6 25.979 56c11.783 25.375 32.737 69.735 38.005 80.457 9.7828 19.912 9.6516 18.552 6.286 65.18-1.6288 22.567-3.5376 53.63-4.2418 69.03-1.5313 33.49-2.5305 46.313-3.7558 48.198-1.1478 1.7662-5.5864 4.1191-12.117 6.4232l-5.0714 1.7893zm15.662-27.331c0.45662-3.85 2.021-20.2 3.4763-36.333 1.4554-16.133 3.6137-39.301 4.7963-51.483s1.8914-27.482 1.5751-34l-0.575-11.85-18.079-37.333c-9.9434-20.533-26.792-55.633-37.442-78s-27.702-58.067-37.894-79.333c-10.192-21.267-24.479-51.117-31.749-66.333-11.071-23.173-13.678-27.667-16.051-27.667-1.5583 0-3.9192 1.2-5.2465 2.6667-3.5587 3.9323-5.0322 3.241-2.7009-1.2671 4.7115-9.111 6.2084-7.9704-44.299-33.756-25.483-13.01-70.333-35.997-99.667-51.081-29.333-15.085-71.633-36.765-94-48.178s-45.621-23.369-51.677-26.568c-6.0556-3.1992-11.525-5.8167-12.154-5.8167-1.1056 0-32.317 15.967-211.5 108.2-46.2 23.781-85.65 43.951-87.667 44.823-2.8658 1.2393-3.6667 2.4846-3.6667 5.7018 0 2.2639 0.64861 5.3282 1.4414 6.8095 2.1112 3.9447 0.34968 4.693-3.1992 1.359-5.9416-5.5818-6.9871-4.4471-19.139 20.773-6.2722 13.017-15.896 32.967-21.386 44.333-5.4902 11.367-12.098 25.167-14.683 30.667-2.5857 5.5-13.696 28.9-24.689 52s-27.755 58.435-37.249 78.522-20.316 42.587-24.05 50l-6.7893 13.478 2.167 25.333c6.1182 71.526 9.3517 102.89 10.753 104.29 2.2656 2.2656 2.4706-3.0702 1.0226-26.62-0.86797-14.117-1.933-41.567-2.3666-61.001l-0.7885-35.333 8.3055-17.333c4.568-9.5333 11.455-24.233 15.305-32.667s23.638-50.733 43.974-94 41.156-87.667 46.267-98.667c18.463-39.739 20.23-43.333 21.312-43.333 0.60399 0 4.5545 2.3992 8.7789 5.3316s8.4307 5.3324 9.3474 5.3333c2.21 3e-3 2.0845-4.5258-0.34776-12.543-3.353-11.053-3.0729-11.681 7.0188-15.737 116.61-46.874 279.47-111.72 281.83-111.72 97.198 35.612 154.54 60.769 229.17 90.712 33.367 13.386 61.164 24.78 61.771 25.318 0.60759 0.5386-0.14241 5.1668-1.6667 10.285-1.5242 5.1182-2.7714 10.291-2.7714 11.495 0 3.5391 3.7303 2.5491 11.846-3.1437 4.1817-2.9333 8.0662-5.3333 8.632-5.3333 0.56587 0 3.1605 4.65 5.7658 10.333 8.4709 18.478 48.155 103.76 72.745 156.33 13.206 28.233 31.221 66.933 40.033 86l16.022 34.667-1.5499 50c-1.8362 59.235-1.9138 78.667-0.31412 78.667 0.64882 0 1.5533-3.15 2.0099-7z" fill="#5c77d6" stroke-width="1.3333"/>
 </g>
</svg>
