<?xml version="1.0" encoding="UTF-8"?>
<svg width="300" height="300" version="1.1" viewBox="0 0 300 300" xmlns="http://www.w3.org/2000/svg">
 <g transform="matrix(.26398 0 0 .26398 3.1667 6.008)">
  <path d="m556.32-14.931c-9.5741-0.11406-10.731 1.3743-13.917 2.4195-3.1859 1.0451-6.1813 2.2472-9.404 3.8254-9.643 4.7209-79.038 40.034-134.95 68.575-17.292 8.8267-64.897 32.991-105.6 53.596-41.428 20.975-59.707 29.389-73.981 39.311-7.1371 4.9607-14.129 11.979-18.275 19.052-4.1459 7.0734-5.4354 11.708-7.3621 16.337-2.2394 5.3797-6.9405 15.708-9.4483 20.762-3.5534 7.1594-10.278 21.667-15.856 34.065-5.4002 12.002-11.782 25.953-13.577 29.751h8e-3c-2.4287 5.1376-14.195 30.407-26.681 57.29-12.446 26.797-32.416 69.534-44.304 94.809-13.84 29.424-20.434 41.807-23.344 53.532l-1.8275 3.6329 0.39216 4.5577c-0.09221 0.81467-0.2284 1.5878-0.29598 2.4343-0.60786 7.6246-0.15589 11.291 0.14797 19.578 0.30386 8.2868 0.80345 18.441 1.428 28.708 1.2152 19.977 3.1277 52.808 4.247 72.784 1.3976 24.94 1.393 35.553 3.7735 47.346 1.1902 5.8964 4.3213 14.836 10.936 21.383 6.6143 6.5476 11.234 7.7334 12.282 8.2645v8e-3c2.797 1.4173 4.966 3.1421 12.053 5.2608-0.0717 6.4529-0.29692 15.405-0.32556 20.954l-0.36254 69.439 37.483 16.048c5.6828 2.4333 10.954 4.5384 15.427 6.1559 2.2362 0.80883 4.1826 1.4822 6.5185 2.1457 1.1679 0.33185 2.3262 0.67617 4.5872 1.0581 1.1306 0.19093 2.4841 0.4369 5.135 0.46615 2.0065 0.0227 4.8111 0.85334 10.314-1.3688 1.1735 2.8467 3.7917 6.5177 10.003 11.542 5.8733 4.7535 3.8299 2.6799 4.6982 3.1964 0.8685 0.51642 1.8213 1.0704 2.9744 1.7314 2.3062 1.322 5.3551 3.0457 9.0342 5.1051 7.3583 4.1194 17.181 9.5559 27.783 15.375 12.056 6.617 21.514 12.014 27.591 15.686 0.1876 0.11327 0.19597 0.12653 0.37735 0.23677 1.2363 4.5088 2.7113 9.9855 4.247 15.922 4.7872 18.507 4.9763 28.687 14.924 42.735 9.9476 14.05 20.187 17.489 34.524 26.163 14.462 8.7498 34.241 20.627 44.255 26.57 9.7074 5.7616 23.388 13.979 29.929 17.979 7.3276 4.4808 26.614 15.991 43.728 26.111 16.965 10.032 34.683 20.632 36.595 21.82 0.16896 0.1049 1.2724 0.7746 1.4798 0.9027l-0.0591 0.059 34.612 20.998c18.984 11.515 34.368 18.912 34.368 18.912l14.591 7.0144 13.947-8.2278s60.51-35.72 121.67-72.045c30.579-18.162 61.309-36.47 84.785-50.581 11.737-7.0549 21.652-13.054 28.908-17.513 3.6277-2.2295 6.5692-4.0622 8.8861-5.5418 1.1584-0.73985 2.1478-1.3813 3.1445-2.0569 0.99677-0.67564 0.67352 0.18222 5.0388-3.9731 4.3133-4.1065 9.773-12.661 12.171-19.23 2.3985-6.5689 4.1228-13.306 7.0363-24.624 2.6617-10.339 4.3095-16.704 5.7491-22.256 6.5514-3.5524 20.475-11.177 36.47-19.992l47.672-26.274v-5.66c14.649 3.7749 19.345-1.0462 23.795-2.745 4.7247-1.8036 9.1078-3.7807 15.242-6.3112l36.048-14.864-0.2739-58.214c-0.034-6.9484-0.3781-22.128-0.5179-32.259l4.7057-1.6648c4.3906-1.5491 8.3604-3.1546 12.445-5.3199 4.0841-2.165 8.4163-2.6524 15.383-13.37 7.8432-12.068 5.0206-12.605 5.4975-15.878 0.4768-3.2737 0.7904-6.631 1.1247-10.921 0.6686-8.5793 1.3203-20.67 2.1161-38.076 0.6975-15.254 2.6762-47.444 4.3356-70.439 1.7332-24.011 3.0506-35.92 1.7832-49.062-1.2675-13.142-6.3469-23.676-11.298-33.754-4.8736-9.9188-26.871-56.449-38.932-82.425v-8e-3c-2.0932-4.5084-14.17-30.536-26.806-57.779-12.641-27.253-28.733-61.923-35.781-77.084-6.9412-14.93-16.844-36.674-21.701-47.649-2.6413-5.9673-5.2202-11.539-7.3917-16.011-1.0856-2.2364-2.0431-4.1678-3.0188-5.993-0.48781-0.91259-0.95729-1.779-1.6499-2.9226-0.69193-1.1422 0.21025-1.4606-5.4532-6.8958h-8e-3c-5.0191-4.819-4.6122-3.6748-5.3642-4.1436-0.75258-0.46895-1.2777-0.77568-1.8349-1.095-1.1146-0.63874-2.2775-1.2728-3.6847-2.0347-2.8143-1.5239-6.5177-3.4819-10.987-5.8157-8.9396-4.6675-20.891-10.807-33.85-17.373-25.734-13.039-70.318-35.628-99.078-50.194-28.708-14.543-66.511-33.788-83.785-42.656-30.887-15.855-53.687-27.386-69.431-35.093-7.8716-3.8534-13.936-6.7363-18.697-8.8566-2.3808-1.0601-4.3944-1.9186-6.5704-2.7376-2.1758-0.81902-0.81747-2.4847-12.704-2.6266zm-0.36253 30.299c3.0654 0.03675 32.309 14.35 93.922 45.978 17.407 8.935 55.176 28.162 83.933 42.728 28.759 14.566 73.348 37.15 99.078 50.187 25.731 13.036 47.524 24.415 48.433 25.29 0.91044 0.87331 5.7703 10.882 10.795 22.234 5.0244 11.352 14.893 33.023 21.931 48.16 7.0375 15.136 23.13 49.808 35.767 77.053 12.637 27.245 24.706 53.252 26.814 57.794 12.16 26.187 33.785 71.966 39.224 83.031 10.096 20.549 9.9624 19.151 6.4889 67.272-1.6809 23.29-3.6534 55.343-4.38 71.238-1.5803 34.562-2.6125 47.797-3.8769 49.744-1.1845 1.8227-5.7646 4.2516-12.504 6.6295l-5.2312 1.8424-0.89528-14.531c-1.6579-27.096-1.2017-38.091 1.7314-41.47 1.5859-1.8285 2.9607-6.1336 3.4701-10.876 2.0391-18.985 4.8944-68.568 4.9054-85.191 0.011-17.973-0.038-18.247-4.358-25.453-2.402-4.0065-10.354-18.12-17.669-31.364-7.3148-13.244-17.494-31.509-22.626-40.591-15.661-27.71-30.012-53.327-33.702-60.146-6.8443-12.651-30.204-54.46-45.296-81.069-12.189-21.493-15.321-28.089-15.331-32.334-8e-3 -2.9336-0.40322-8.5831-0.88047-12.556-1.0481-8.7255-2.9178-9.1945-9.7002-2.4121-2.6489 2.6489-5.5869 4.8168-6.5332 4.8168-1.626 0-34.889-13.328-84.009-33.665-12.108-5.0138-33.47-13.801-47.471-19.526-20.691-8.46-76.398-31.395-152.31-62.715l-9.8999-4.0841-16.936 7.2212c-9.3119 3.9724-24.981 10.483-34.819 14.472-9.8385 3.9902-25.316 10.323-34.398 14.073-30.549 12.611-71.913 29.605-119.72 49.172-9.8385 4.0277-33.005 13.558-51.483 21.183-18.478 7.6254-34.608 13.866-35.848 13.866s-4.358-2.1679-6.9253-4.8168c-2.5673-2.6489-5.7824-4.8168-7.1473-4.8168-2.1946 0-2.4787 1.3352-2.4787 11.528 0 13.51-0.71598 15.479-13.533 37.542-5.2051 8.96-18.608 32.7-29.788 52.755-11.181 20.055-23.964 42.773-28.404 50.482-4.4406 7.7106-11.068 19.479-14.731 26.148-3.6635 6.6689-16.162 29.153-27.776 49.963-11.614 20.812-22.331 40.197-23.81 43.084-2.6433 5.1585-2.6524 5.9669-0.42175 48.16 3.2387 61.26 3.5285 64.2 6.5556 66.791 2.33 1.9951 2.56 4.5592 2.56 28.715 0 30.376 0.42796 29.581-12.26 23.151-8.1262-4.1178-7.6292-1.6345-10.433-51.661-1.1238-20.055-3.0418-52.877-4.2618-72.932-1.2199-20.055-1.9449-39.868-1.613-44.031 0.08043-1.0084 0.30715-2.1803 0.61412-3.4701 1.5868-6.6677 6.7359-18.442 21.672-50.195 11.925-25.353 31.893-68.079 44.372-94.945 12.478-26.866 24.445-52.566 26.592-57.104 2.1465-4.541 8.3584-18.168 13.806-30.277 5.4479-12.108 12.362-26.967 15.367-33.022 3.0047-6.0544 7.6337-16.221 10.284-22.589 9.1858-22.069 2.2408-17.238 85.323-59.302 40.724-20.617 88.282-44.758 105.69-53.642 55.869-28.518 127.78-65.063 134.51-68.359 3.5911-1.7583 7.9194-3.1797 9.626-3.1593zm-0.222 145.76c0.59794 0.19934 36.589 13.898 95.506 38.14 19.405 7.9853 101.36 41.322 139.61 56.794l29.529 11.942 2.486 8.1682c1.3666 4.4944 13.06 48.111 25.985 96.927 12.925 48.816 24.136 89.528 24.912 90.475 2.2607 2.754 4.2788 1.9641 7.9538-3.1002 1.892-2.6072 4.4508-4.7516 5.6824-4.7725 4.8084-0.0815 5.8218 3.8697 6.8367 26.555 0.54748 12.238 1.3868 23.185 1.8645 24.32 0.98097 2.3311 30.05 23.834 33.147 24.52 1.6921 0.37504 2.0051-2.919 2.0051-20.984 0-11.786 0.35306-21.427 0.78428-21.427 1.1959 0 12.214 7.6784 26.903 18.749l13.229 9.9737 0.87304 19.008c1.368 29.815 3.9326 147.16 4.1285 188.92l0.17766 37.831-17.203 7.0954c-25.848 10.664-22.897 11.57-24.002-7.3769-0.43573-7.4689-0.79164-11.823-1.2208-14.961-0.0151 8e-3 -0.0693 0.0341-0.0814 0.0379-0.81501 0.31102-0.8865-0.14699 0.0151-0.55491-0.64071-4.3262-1.4726-5.5418-3.1298-5.5418-1.1528 0-7.8603 2.5306-14.902 5.6305-15.055 6.6283-14.465 5.3877-14.465 30.787v16.81l-31.993 17.632c-17.596 9.6972-35.565 19.543-39.925 21.886-6.5139 3.4999-8.1459 5.1206-9.1896 9.0786-0.6984 2.6489-4.2239 16.269-7.8281 30.269-5.7445 22.314-7.067 25.948-10.751 29.455-4.9884 4.749-246.94 147.56-246.94 147.56s-14.054-6.7545-31.779-17.506l8e-3 -0.01c-16.272-9.8696-32.376-19.676-35.781-21.79-3.4056-2.1143-20.122-12.083-37.15-22.153-17.028-10.069-36.532-21.716-43.342-25.881-6.8113-4.166-20.438-12.355-30.277-18.194-9.8381-5.8392-29.651-17.729-44.031-26.429-30.103-18.212-25.891-12.271-35.796-50.566-3.4257-13.244-6.7719-25.362-7.436-26.932-0.77349-1.8281-14.984-10.41-39.534-23.884-21.078-11.569-39.08-21.647-40.008-22.397-1.1544-0.93343-1.8038-7.6674-2.0643-21.398l-0.37735-20.029-14.45-5.9635c-7.9466-3.2817-15.442-5.9733-16.655-5.9783-1.773-8e-3 -2.3745 2.2107-3.0854 11.342-0.48603 6.2438-0.89073 14.259-0.89528 17.809-4e-3 3.5502-0.58521 6.8124-1.2948 7.2511-0.70965 0.4386-9.8415-2.8636-20.295-7.3398l-19.008-8.1387 0.25158-49.335c0.24669-47.819 2.2721-136.16 4.0398-176.36l0.86509-19.682 13.244-9.9885c14.698-11.078 25.714-18.749 26.91-18.749 0.43126 0 0.78429 9.2835 0.78429 20.636 0 15.89 0.40769 20.643 1.7684 20.643 2.1313 0 34.336-21.618 35.559-23.869 0.47354-0.87195 1.2962-11.803 1.835-24.291 0.53869-12.487 1.6214-23.478 2.4046-24.424 2.2998-2.7776 5.1604-2.0054 8.8714 2.4047 4.1235 4.9009 8.2516 5.3236 10.173 1.0358 0.76322-1.7028 3.4513-11.145 5.9711-20.984 2.5198-9.8385 9.9836-38.011 16.581-62.609 6.5969-24.596 15.711-58.658 20.259-75.686 4.5467-17.028 8.9877-31.689 9.8703-32.585 0.88251-0.89577 13.058-6.262 27.058-11.92 14.001-5.6582 31.034-12.571 37.846-15.367s20.431-8.3512 30.269-12.341c20.268-8.2205 53.68-21.845 79.126-32.259 80.902-33.111 88.941-35.788 89.566-35.944zm304.02 135.21c14.845 26.28 34.988 62.268 40.8 73.004 4.2285 7.8148 18.282 32.865 33.976 60.635 4.6675 8.2596 13.817 24.687 20.917 37.52-1.6033-1.0929-3.2352-2.2222-4.713-3.1446-1.1024-0.68799-2.1422-1.3323-3.7883-2.1901-0.82303-0.42887-1.757-0.91464-3.4775-1.5908-1.7205-0.67617-3.2429-2.1901-11.424-2.1901-3.3687 0-6.3484 0.52554-9.0119 1.3392-0.35041-2.1776-0.81122-4.4137-1.4354-6.8367-1.2394-4.8107-3.3875-11.917-10.884-18.712-4.7816-4.3342-10.866-6.5995-16.115-7.7542-4.4319-16.122-10.186-37.451-16.44-61.071-6.4696-24.434-12.63-47.569-17.351-65.177-0.55218-2.0597-0.55491-1.9797-1.0507-3.8326zm-608.51 2.8708c-4.7922 17.935-12.67 47.368-18.786 70.17-6.0476 22.548-12.105 45.482-15.227 57.529-8.5297 2.0152-16.697 6.6272-20.436 11.143v8e-3c-8.1921 9.8972-5.8608 10.807-6.3336 12.667-0.47262 1.8598-0.66939 3.0569-0.86569 4.2694-0.29708 1.8349-0.48752 3.6573-0.68811 5.5271-3.1724-1.26-6.8287-2.1383-11.12-2.1383-8.1808 0-9.7033 1.5064-11.424 2.1827-1.7207 0.67625-2.6544 1.1692-3.4775 1.5982-1.6462 0.85789-2.6858 1.4945-3.7883 2.1827-0.26836 0.16744-0.58904 0.40554-0.85827 0.57715 11.631-20.843 24.05-43.171 27.879-50.141 3.4757-6.3268 10.137-18.151 14.435-25.615 4.7395-8.2285 17.388-30.713 28.612-50.846 8.3141-14.913 15.693-27.895 22.078-39.11zm-164.99 353.63c-0.0015 0.0432-0.0057 0.19471-0.0076 0.23676-0.0844 2.1812-1.3394 3.1289 0.0076-0.23676zm180.94 209.32c0.64844 0.41742 1.7165 1.07 2.0791 1.317-0.41357-0.15911-1.0412-0.26518-2.0791-1.317z" color="#000000" color-rendering="auto" dominant-baseline="auto" image-rendering="auto" shape-rendering="auto" solid-color="#000000" stop-color="#000000" stroke-width="3.7883" style="font-feature-settings:normal;font-variant-alternates:normal;font-variant-caps:normal;font-variant-east-asian:normal;font-variant-ligatures:normal;font-variant-numeric:normal;font-variant-position:normal;font-variation-settings:normal;inline-size:0;isolation:auto;mix-blend-mode:normal;shape-margin:0;shape-padding:0;text-decoration-color:#000000;text-decoration-line:none;text-decoration-style:solid;text-indent:0;text-orientation:mixed;text-transform:none;white-space:normal"/>
  <path d="m555.79 16.715c-1.141 0-33.351 16.473-218.27 111.66-47.679 24.542-88.392 45.357-90.475 46.259-2.2181 0.95923-3.2396 1.9218-3.6107 3.7439-0.11998 0.60158-0.17756 1.29-0.17756 2.1087 0 7e-3 -1e-5 0.0151 0 0.0223v0.0148c2e-3 0.57457 0.0443 1.1987 0.11839 1.835 0.22661 1.9471 0.75522 4.0106 1.3688 5.157 0.55301 1.0333 0.84422 1.8485 0.91748 2.4416 2.7e-4 2e-3 -2.6e-4 5e-3 0 8e-3 0.0337 0.27915 0.025 0.51952-0.0371 0.69548-0.30469 0.94855-1.8727 0.4588-4.1804-1.7092-6.1317-5.7604-7.2068-4.5925-19.748 21.435-6.473 13.434-16.405 34.025-22.071 45.755-5.6661 11.731-12.485 25.969-15.153 31.645-2.6685 5.676-14.137 29.825-25.482 53.665-11.345 23.84-28.64 60.309-38.436 81.042-9.798 20.73-20.97 43.951-24.823 51.6l-7.0068 13.903 2.2345 26.148c3.1552 36.887 5.5653 63.416 7.3693 80.914 1e-3 0.0114 0.0064 0.0265 0.0076 0.0379 0.37996 3.6832 0.62726 5.3793 0.95445 8.272 0.72257 6.3874 1.4015 12.161 1.8867 14.887 0.0782 0.43948 0.17908 1.139 0.25158 1.4872 7e-4 3e-3 -6.9e-4 0.0114 0 0.0152 0.2376 1.137 0.44334 1.8037 0.62151 1.9829 0.87679 0.8768 1.4599 0.64912 1.7609-1.2578 0.2903-1.8389 0.30837-5.379 0.10357-10.862-8e-3 -0.19813 6.5e-4 -0.2701-8e-3 -0.47353-0.0326-0.82948-0.12729-2.2447-0.17017-3.1668-0.15869-3.4102-0.33485-6.9299-0.62893-11.713-0.89573-14.569-1.9941-42.895-2.4416-62.95l-0.81387-36.462 8.5679-17.891c4.7141-9.8385 11.824-25.007 15.797-33.71 3.9731-8.7028 24.397-52.358 45.383-97.006 20.987-44.652 42.47-90.471 47.747-101.82 19.054-41.012 20.882-44.728 21.997-44.728 0.62332 0 4.6967 2.4787 9.0562 5.5047 4.3595 3.0261 8.7024 5.504 9.6483 5.5047 0.85528 1e-3 1.3752-0.65863 1.5538-1.9163 0.0583-0.41069 0.0802-0.88373 0.0666-1.4206-2.2e-4 -8e-3 2.3e-4 -0.0216 0-0.0296-0.0307-1.0932-0.2151-2.446-0.54013-4.0326-2e-3 -9e-3 -6e-3 -0.0208-8e-3 -0.0296-0.32791-1.5933-0.80542-3.4349-1.428-5.49-3e-3 -0.011-4e-3 -0.0186-8e-3 -0.0296-0.42921-1.4148-0.80081-2.655-1.1025-3.7661-2e-3 -9e-3 -5e-3 -0.0136-8e-3 -0.0224-0.10566-0.38962-0.14892-0.67912-0.23677-1.0359-0.16176-0.65916-0.34109-1.3508-0.43656-1.909-0.90164-5.2126 1.2027-6.3632 9.0267-9.5078 8.9293-3.5894 19.152-7.6432 28.538-11.402 116.87-46.891 260.07-103.86 262.32-103.86 0.28753 0.10531 0.53453 0.19824 0.82126 0.30336 0.10115-0.02652 0.91256-0.33295 0.94707-0.33295 1.7697 0 6.5992 1.4887 10.728 3.3147 2.6838 1.1869 23.946 9.7817 45.872 18.645 64.995 24.988 113.97 45.815 171.74 69.083 2.7747 1.1132 3.5624 1.432 6.3927 2.5674 34.435 13.814 63.124 25.57 63.749 26.126 0.0815 0.0722 0.13486 0.22267 0.17009 0.42913 8e-3 0.0457 8e-3 0.12543 0.0152 0.17756 0.17653 1.4974-0.57143 5.574-1.9016 10.04-1.5704 5.2736-2.8592 10.592-2.8634 11.846 0.0114 3.6321 3.8602 2.6103 12.223-3.2556 4.3156-3.0272 8.3243-5.5047 8.9085-5.5047 0.58396 0 3.2601 4.7967 5.9487 10.662 8.7422 19.069 49.702 107.08 75.076 161.33 13.629 29.137 32.222 69.071 41.315 88.751l16.529 35.781v0.0152l0.01 0.0152-1.598 51.6c-0.4734 15.271-0.8395 27.973-1.0877 38.443-2e-4 8e-3 2e-4 0.0227 0 0.0303-0.2477 10.473-0.3822 18.707-0.4069 25.031v8e-3c-0.011 3.1486 0 5.8309 0.044 8.0724 0.01 0.36405 0.03 0.55392 0.038 0.89528 0.043 1.7791 0.096 3.4232 0.1777 4.6171 0.039 0.55316 0.1007 0.78709 0.1481 1.2208 0.1311 1.2091 0.2697 2.2426 0.4661 2.597 0.09 0.16176 0.1929 0.23677 0.2959 0.23677 0.6678 0 1.5918-3.2331 2.0643-7.1916 0.4713-3.9731 2.0866-20.841 3.5885-37.491 0-0.0114 0.01-0.0265 0.01-0.0379 1.5009-16.638 3.7215-40.516 4.9425-53.096 1.2205-12.572 1.9543-28.367 1.6278-35.093v-0.0303l-0.5993-12.194-18.653-38.534c-10.262-21.19-27.654-57.411-38.644-80.493-10.991-23.083-28.585-59.93-39.102-81.876-10.518-21.948-25.26-52.752-32.762-68.454-11.425-23.915-14.117-28.553-16.566-28.553-1.6082 0-4.0462 1.2388-5.4161 2.7524-2.3127 2.5554-3.7659 3.2108-3.9288 2.1901-8e-3 -0.0481 0.0189-0.13649 0.0152-0.19237-4e-3 -0.17115-0.0152-0.33666 0.0379-0.5771 0.1341-0.65962 0.4852-1.5805 1.095-2.7598 1.2103-2.3404 2.2117-4.0243 2.2345-5.6453 0.0265-4.877-8.9054-9.2206-47.959-29.159-26.302-13.427-72.582-37.152-102.85-52.718-30.272-15.568-73.924-37.936-97.006-49.713-23.083-11.778-47.081-24.119-53.331-27.421-6.2495-3.3016-11.892-6.0006-12.541-6.0006zm0.76947 179.55c-3.2221 0.54055-10.137 2.9373-19.807 6.8662-1.7165 0.71579-2.5314 1.0248-4.5357 1.8646-85.819 35.954-184.43 77.148-195.61 81.713-15.349 6.2647-13.726 3.8292-21.82 32.718-3.0747 10.973-8.0198 28.309-10.987 38.527-2.9678 10.217-10.657 37.153-17.084 59.858-6.4272 22.704-12.638 43.989-13.806 47.3-0.93392 2.6466-1.515 4.9448-1.7831 6.77-0.13202 0.90604-0.19157 1.6904-0.17755 2.3455 9e-3 0.42103 0.0903 0.69223 0.15539 0.99886 0.0368 0.1735 0.0349 0.42758 0.0888 0.56233 0.59529 1.4873 2.22 0.56862 4.4614-3.7661 1.2057-2.3316 4.2288-8.9865 6.7181-14.791 2.4893-5.804 11.509-26.338 20.044-45.637 8.5346-19.299 19.132-43.383 23.551-53.517 4.4194-10.135 9.0737-19.58 10.344-20.984 2.159-2.3857 9.5021-7.2004 52.475-34.413 8.7717-5.5547 15.506-9.2085 15.619-8.5012 0.0227 0.0421 0.0189 0.10221-0.0303 0.19237-0.70996 1.2925-7.2185 10.991-14.465 21.553-9.0142 13.141-13.108 20.151-13.177 22.833-3e-3 0.21384 0.0189 0.40394 0.0667 0.56233 0.15115 0.48618 0.54486 0.71768 1.169 0.71768 0.67912 0 4.8566-1.7983 9.2858-3.9955 4.4292-2.1972 18.889-8.9278 32.134-14.961 84.293-38.398 119.82-54.691 125.52-57.57 3.5696-1.804 8.0095-3.2777 9.8703-3.2777 1.8605 0 13.8 4.7194 26.533 10.492s33.681 15.264 46.546 21.095c12.866 5.8316 42.012 19.067 64.772 29.411 22.759 10.344 42.179 18.808 43.152 18.808 0.64404 0 1.0452-0.16051 1.1247-0.62893 2.7e-4 -2e-3 -2.6e-4 -6e-3 0-8e-3 0.0379-0.22953-8e-3 -0.53801-0.13335-0.93225-7.5e-4 -2e-3 -8e-3 -5e-3 -8e-3 -8e-3 -0.6767-2.0682-3.6288-6.5772-10.114-15.915-5.1384-7.3989-11.737-17.107-14.658-21.568l-5.3123-8.1092 0.0303 0.0224-0.0303-0.0518 5.3123 3.2037c4.8804 2.9395 33.999 21.319 55.528 35.049l8.9452 5.7048 30.151 68.011c16.582 37.407 30.67 68.602 31.305 69.321 0.66912 0.75784 1.0964 0.9013 1.2282 0.21441 0.0439-0.22881 0.0534-0.54718 0.0303-0.96926-0.0474-0.83911-0.2307-2.0819-0.56971-3.7809-1e-3 -8e-3 -8e-3 -0.0152-8e-3 -0.0227-0.10721-0.53528-0.33564-1.4358-0.47353-2.0643-1.0137-4.6194-3.1287-12.642-6.0226-23.174-0.49728-1.8097-0.66128-2.561-1.2208-4.5724-2e-3 -8e-3 -8e-3 -0.0152-8e-3 -0.0227-2.8417-10.215-6.4984-23.091-11.098-39.133-2e-3 -4e-3 -8e-3 -0.0152-8e-3 -0.0227-2.9284-10.212-8.4024-29.699-12.171-43.323-3e-3 -8e-3 -4e-3 -0.0114-8e-3 -0.0227-2.2381-8.0891-3.6836-13.252-5.3937-19.393-1.1697-4.1993-2.7288-9.8468-3.6846-13.244-7.0503-25.058-8.6607-29.533-10.233-31.357-1.1996-1.3908-13.635-7.2913-27.635-13.111-14.001-5.8195-31.027-12.91-37.838-15.76-6.8113-2.8494-25.393-10.59-41.285-17.203-15.892-6.6098-49.323-20.682-74.299-31.273-23.553-9.9878-46.274-18.613-50.653-19.637zm328.54 332.3c-0.16403-9.9e-4 -0.32806-4e-3 -0.42174 0.0519-2e-3 1e-3 -4e-3 -1e-3 -8e-3 0-2e-3 1e-3 2e-3 8e-3 0 8e-3 -0.12274 0.0788-0.18487 0.20419-0.18487 0.38474 0 0.23525-1.2388 9.3332-2.7524 20.214-1.5136 10.881-2.7524 20.541-2.7524 21.472 0 0.0227 0.0341 0.0561 0.0379 0.0814 0.0189 0.0943 0.0451 0.19586 0.12577 0.31064 4e-3 4e-3 3e-3 8e-3 8e-3 0.0151 0.10948 0.14813 0.26518 0.30572 0.46611 0.48092 1.2522 1.0924 4.1856 2.6511 7.5765 3.9659 5.0244 1.9482 6.9863 2.7752 8.0057 4.6096 0.0871 0.15494 0.14736 0.35458 0.22199 0.52532 0.0962 0.22313 0.20078 0.42535 0.28109 0.68071 0.29662 0.92813 0.51092 2.0784 0.76947 3.6107 0.57658 3.4172 0.9834 28.196 0.9101 55.062-0.11744 43.099-1.239 67.469-4.1436 89.786-0.24321 1.8677-0.30609 3.3506-0.20722 4.4319 0.0504 0.53449 0.14244 0.96976 0.26632 1.3022 0.62226 1.6668 2.1164 0.76504 4.0398-3.0114 2.4494-4.8092 8.199-24.897 11.713-40.932 5.1759-23.624 7.3822-40.042 8.9452-66.636l1.5686-26.732 5.9487 8.8418c1.6381 2.4344 3.22 4.9581 4.7501 7.569 0.97256 1.6592 1.8886 3.4228 2.819 5.157 0.52578 0.98047 1.0782 1.91 1.5908 2.9152 4e-3 8e-3 0.0114 0.0151 0.0152 0.0227 1.419 2.7838 2.7861 5.6619 4.1065 8.6418 1.3257 2.9912 2.6023 6.0786 3.8326 9.2782 2e-3 4e-3 4e-3 0.0114 8e-3 0.0151 2.4551 6.3866 4.7217 13.206 6.8219 20.488 2e-3 8e-3 4e-3 0.0152 8e-3 0.0227 1.0488 3.6382 2.0525 7.3909 3.0188 11.269 2e-3 8e-3 4e-3 0.0151 8e-3 0.0227 0.96628 3.8784 1.8941 7.8796 2.782 12.008 2e-3 8e-3 8e-3 0.0152 8e-3 0.0227 2.6844 12.483 4.8759 23.062 4.8759 23.499 0 0.10948 0.0409 0.21555 0.111 0.31064 0.20987 0.28563 0.69761 0.48092 1.2652 0.48092 0.85577 0 1.3698-7.6731 1.3614-20.295-0.0152-23.658-2.2445-108.41-3.5441-134.76l-0.89528-18.142-5.2975-3.5145c-8e-3 -4e-3 -8e-3 -0.0114-0.0152-0.0151-9.2263-6.1048-9.4854-5.7195-9.4854 13.703 0 9.4601-0.27655 17.203-0.61412 17.203-0.54937 0-8.266-4.7361-45.186-27.731-0.41042-0.25571-0.66825-0.39592-1.0581-0.63632-2.6691-1.6444-4.8156-2.9014-6.5556-3.8474-0.78724-0.42948-1.6303-0.8971-2.2419-1.1913-0.21025-0.10077-0.40948-0.18903-0.59931-0.27389-0.77447-0.34776-1.3537-0.54377-1.8053-0.63632-0.161-0.0303-0.37504-0.10455-0.49574-0.10342zm-720.6 0.0152c-2.5426 0-11.927 5.9294-12.741 8.0501-1.1874 3.0943-5.3903 169.17-4.3137 170.4 2.0064 1.9764 3.8493-2.5318 5.6972-13.947 5.1812-32.008 18.755-68.219 33.17-88.49 2.9244-4.1133 4.0068-5.6248 4.4171-5.157 0.0777 0.0886 0.13301 0.23904 0.17017 0.46611 0.0828 0.47278 0.0964 1.25 0.10357 2.3011 0.066 9.6044 2.7816 46.209 4.136 55.722 1.9191 13.481 5.6604 32.353 9.1896 46.933 2e-3 8e-3 6e-3 0.0151 8e-3 0.0227 1.1746 4.8505 2.3228 9.2244 3.3739 12.763 2e-3 8e-3 6e-3 0.0152 8e-3 0.0227 1.1324 3.8114 2.0731 6.8886 2.8856 9.3525 1e-3 4e-3 6e-3 0.0114 8e-3 0.0152 0.8097 2.4541 1.4942 4.3141 2.1013 5.69 2e-3 4e-3 5e-3 0.0151 8e-3 0.0227 0.30067 0.6795 0.58608 1.2464 0.85827 1.7092 0.82649 1.4051 1.5495 1.8794 2.375 1.8794 1.0364 0 1.2311-3.3198 0.62151-10.662-2.7792-33.472-3.5776-53.278-3.5885-89.24-7e-3 -22.025 0.39417-43.91 0.8879-48.634l0.90267-8.5903 8.0425-3.4849c9.3006-4.0334 8.9752-2.717 5.9858-24.565-1.3271-9.6991-2.099-14.995-2.8338-17.876-2e-3 -8e-3 -5e-3 -0.0114-8e-3 -0.0227-0.18327-0.71647-0.36916-1.2856-0.5549-1.7314-1e-3 -2e-3 1e-3 -4e-3 0-8e-3 -0.55532-1.3065-1.1604-1.5612-2.0199-1.5612-1.7946 0-11.63 5.7786-42.735 25.112l-12.386 7.6947v-0.0227h-8e-3l-1.206-17.092c-0.58745-8.3486-1.5286-15.161-2.2641-16.744-1e-3 -3e-3 1e-3 -4e-3 0-8e-3 -0.099-0.21176-0.19831-0.30533-0.28855-0.31821zm618.51 16.529c-1.4547 0.0227-116.27 35.792-151.36 47.153-2.9082 0.94177-4.3247 1.9281-4.2175 3.2186 2e-3 0.0189 0.0189 0.0405 0.0227 0.0591 0.0341 0.30382 0.14585 0.62059 0.34776 0.96188 1e-3 2e-3 -1e-3 4e-3 0 8e-3 0.65719 1.0911 2.1598 2.388 4.5209 4.0027 4.78 3.2694 7.4405 3.7232 36.122 6.2078 17.028 1.475 36.2 2.605 42.603 2.5082l11.646-0.17767 9.3597-21.235c5.1513-11.681 9.7495-21.592 10.218-22.019 0.0652-0.0591 0.12388-0.0534 0.1701-8e-3 0.0379 0.0379 0.0708 0.0939 0.0962 0.19245 0.18297 0.6265 0.0852 2.6523-0.28867 5.2532-1.8328 12.752-2.4471 22.141-1.6574 24.298 6e-4 2e-3 -6.1e-4 8e-3 0 8e-3 0.053 0.13524 0.11251 0.24661 0.17767 0.31821 0.0712 0.078 0.15115 0.11819 0.23676 0.11819 0.77414 0 5.0198-4.1773 9.4411-9.2858 4.4213-5.1085 13.79-15.554 20.813-23.211 9.0926-9.9128 13.429-15.897 12.889-17.765-0.039-0.13448-0.10304-0.24131-0.19244-0.33299-0.19851-0.18979-0.51672-0.28033-0.94707-0.27389zm-458.57 0.18487c-0.0872 8e-3 -0.15058 0.0303-0.22937 0.0443-0.20612 0.0341-0.38459 0.0898-0.53271 0.17009-0.0901 0.0485-0.18263 0.0977-0.25158 0.1629-0.14039 0.13448-0.22938 0.30685-0.28116 0.51054-0.0231 0.0902-0.0386 0.19207-0.0444 0.29587-6e-3 0.11668 0.0284 0.26631 0.0444 0.39955 0.0341 0.29662 0.10974 0.6212 0.25157 0.99885 0.0627 0.1663 0.146 0.34397 0.22938 0.52532 0.17464 0.3814 0.40027 0.80246 0.66591 1.2504 0.15236 0.25608 0.30654 0.51429 0.48834 0.79171 0.27825 0.42561 0.61442 0.89403 0.96188 1.3688 0.25692 0.35042 0.49751 0.68909 0.79167 1.0654 0.16646 0.21328 0.37648 0.4591 0.55491 0.68072 1.255 1.5562 2.7444 3.2714 4.58 5.2164 6e-3 8e-3 8e-3 0.0151 0.0148 0.0227 2.3652 2.5065 5.979 6.4291 9.8999 10.743 7e-3 8e-3 8e-3 0.0152 0.0148 0.0227 3.9231 4.3167 8.1527 9.0142 11.742 13.059 5e-3 8e-3 9e-3 0.0151 0.0148 0.0227 2.7516 3.1011 5.0979 5.5805 7.3474 7.9614 2.1503 2.2752 4.2368 4.4898 5.4233 5.5862 6e-3 4e-3 0.0167 0.0152 0.0223 0.0227 0.78773 0.72534 1.3217 1.1392 1.4872 1.1394 1.103 1e-3 0.35875-14.145-1.3318-25.319-0.0908-0.60051 0.12501-0.57218 0.58449-0.0227 0.90358 1.0749 2.7904 4.2478 5.2608 8.8418 4e-3 8e-3 0.0114 0.0114 0.0152 0.0227 1.2388 2.3045 2.6244 4.9664 4.1065 7.9019l10.581 20.961h7.6875c4.2311 0 21.923-1.2243 39.318-2.7228 35.426-3.0518 40.576-3.753 40.576-5.5047 0-0.67151 1.2389-1.6135 2.7524-2.0939 1.5136-0.48039 2.7524-1.9758 2.7524-3.3295 0-0.24245-0.0636-0.48364-0.19244-0.72511-0.0659-0.1235-0.20646-0.25192-0.31064-0.37731-0.0958-0.11289-0.15153-0.22464-0.28109-0.34019-1.6942-1.5118-6.3756-3.3117-16.744-6.659-34.56-11.158-131.52-41.41-136.23-42.501-0.70063-0.16252-1.2771-0.22465-1.7387-0.19244zm92.672 192.54c-1.3637 0.0152-1.8497 0.47936-1.8497 1.3318 0 0.0932 0.13373 0.24623 0.32541 0.42171 4.6679 3.258 23.981 12.768 36.477 18.024 2.7935 1.1632 5.3653 2.1968 7.2288 2.819 2.4256 0.81 5.5953 1.7616 9.3006 2.819 0.20836 0.0587 0.46157 0.12577 0.67333 0.18486 26.109 7.3023 77.728 19.061 86.13 19.511 6.9151-0.27011 19.775-3.054 50.41-10.876 39.406-10.062 45.13-11.9 64.268-20.673 11.554-5.2964 21.597-10.225 22.323-10.95 0.14736-0.14736 0.18221-0.24472 0.29586-0.37731 0.28033-0.36595 0.53009-0.7089 0.61412-0.93968 0.0508-0.23677-0.0553-0.40421-0.24397-0.54013-1.2098-0.4755-7.1515 1.7122-19.533 5.4013l-31.083 8.9971-4.8906-2.7968-8.3978 3.803-2.6488-1.5168-7.2879 2.8116-2.93-1.6722-60.544 5.246-58.601-5.246-3.3739 1.6722-6.5628-3.2778-4.1879 2.6414-8.7308-4.4614-4.9498 3.3222-36.825-11.276c-7.103-2.1746-12.087-3.836-14.998-4.3652-0.1163-4e-3 -0.30154-0.0383-0.40693-0.0379zm386.1 28.797c-1.2221 0-27.55 52.361-43.239 85.997-2.4709 5.2975-6.581 11.539-9.1377 13.873-2.5567 2.3336-16.105 12.497-30.106 22.581-14.001 10.084-34.743 25.078-46.096 33.325-11.352 8.2467-34.966 25.337-52.475 37.97-17.507 12.635-37.17 26.822-43.69 31.534-8.2607 5.9677-12.051 9.3734-11.831 10.714 0.0883 0.4369 0.612 0.6511 1.5686 0.6511 0.87846 0 14.037-7.6224 29.241-16.929 15.203-9.307 60.692-36.704 101.09-60.885 40.394-24.182 74.25-45.202 75.239-46.717 0.99097-1.5136 6.8393-21.636 12.993-44.72 6.1529-23.083 12.695-46.959 14.539-53.051 2.3378-7.7231 3.319-11.411 3.2112-13.089-0.0227-0.32579-0.0841-0.56536-0.18487-0.7547-0.2129-0.38242-0.59021-0.50312-1.1172-0.50312zm-497.7 0.0227c-1.1201-0.0152-1.6603 0.59753-1.6204 2.0791 0.022 0.73822 0.1785 1.6868 0.48834 2.8782 2e-3 8e-3 5e-3 0.0114 8e-3 0.0227 0.31219 1.1971 0.76576 2.6266 1.3688 4.3357 4e-3 0.0114 3e-3 0.0189 8e-3 0.0303 0.25438 0.72094 1.5296 5.407 2.2863 8.0724 0.85566 3.0149 1.2563 4.2463 2.5822 9.1153 3e-3 0.0114 4e-3 0.0114 8e-3 0.0227 2.5036 9.1945 5.6824 21.094 8.938 33.503 3e-3 0.0114 5e-3 0.0189 8e-3 0.0303 1.6934 6.4544 1.8923 7.0151 3.4257 12.808 4.3614 16.476 9.2017 34.768 9.7446 36.447 6.2e-4 2e-3 -6.3e-4 4e-3 0 8e-3 2.3e-4 7.2e-4 7e-3 0.0151 8e-3 0.0151 0.0284 0.0883 0.0932 0.18904 0.1332 0.28109 0.0625 0.14131 0.11327 0.27579 0.20718 0.42918 1e-3 2e-3 -1e-3 4e-3 0 8e-3 2.3624 3.8474 15.421 12.033 80.258 50.861 43.599 26.11 88.952 53.471 100.78 60.805 19.781 12.266 26.294 15.328 26.318 12.364-0.0508-1.1979-12.959-11.038-37.831-28.834-38.947-27.87-71.928-51.668-85.399-61.62-8.2762-6.1135-22.482-16.465-31.564-23.011-20.295-14.626-26.49-18.574-31.564-26.059-1.0097-1.488-1.9744-3.1218-2.9966-5.0016-4e-3 -8e-3 -0.011-0.0152-0.0148-0.0227-0.47028-0.86551-1.0344-2.0134-1.539-2.9966-0.59706-1.1637-1.1446-2.1898-1.8201-3.5515-1.2446-2.5082-2.6514-5.3839-4.3209-8.738-3e-3 -4e-3 -5e-3 -0.0151-8e-3 -0.0227-6.5931-13.246-17.428-35.352-24.076-49.145-1.6628-3.4495-3.2986-6.7446-4.8316-9.7446-4e-3 -8e-3 -3e-3 -0.0151-8e-3 -0.0227-1.5284-2.991-2.9535-5.69-4.2027-7.9614-5e-3 -0.0114-9e-3 -0.0114-0.0148-0.0227-0.53857-0.97904-0.88747-1.5146-1.354-2.3233-0.62154-1.0765-1.3225-2.3508-1.7906-3.078-0.80781-1.255-1.3786-1.9574-1.613-1.9607z" fill="#fff" stroke-width="3.7883"/>
  <path d="m523.97 1033.5c-16.272-9.8696-32.371-19.675-35.776-21.79-3.4056-2.1143-20.124-12.083-37.152-22.152-17.028-10.069-36.533-21.716-43.344-25.882-6.8112-4.1659-20.434-12.351-30.272-18.19-9.8381-5.839-29.652-17.733-44.032-26.433-30.102-18.212-25.892-12.265-35.797-50.559-3.4256-13.244-6.7718-25.364-7.4359-26.934-0.77349-1.8281-14.984-10.415-39.532-23.889-21.078-11.569-39.082-21.647-40.008-22.396-1.1544-0.93342-1.8035-7.661-2.064-21.391l-0.38-20.029-14.448-5.9667c-7.9464-3.2817-15.44-5.9708-16.652-5.9759-1.773-7e-3 -2.3769 2.2108-3.0877 11.343-0.48604 6.2436-0.88742 14.257-0.89195 17.807-4e-3 3.5502-0.58887 6.8137-1.2985 7.2523-0.70966 0.43859-9.8428-2.8648-20.296-7.3409l-19.005-8.1384 0.25451-49.338c0.24668-47.819 2.2686-136.15 4.0363-176.35l0.86579-19.686 13.246-9.9832c14.698-11.077 25.713-18.756 26.909-18.756 0.43124 0 0.78408 9.288 0.78408 20.64 0 15.89 0.40676 20.64 1.7674 20.64 2.1313 0 34.335-21.619 35.558-23.87 0.47351-0.87193 1.3017-11.802 1.8404-24.289 0.53867-12.487 1.6202-23.478 2.4035-24.424 2.2998-2.7776 5.1555-2.0021 8.8663 2.408 4.1237 4.9008 8.2576 5.3198 10.18 1.032 0.76322-1.7028 3.4493-11.146 5.9689-20.984 2.5197-9.8384 9.9787-38.012 16.576-62.608 6.597-24.596 15.714-58.652 20.261-75.68 4.5466-17.028 8.9886-31.693 9.8711-32.588 0.88251-0.89575 13.06-6.2578 27.06-11.915 14.001-5.6579 31.029-12.576 37.84-15.373s20.434-8.3504 30.272-12.341c20.267-8.2204 53.674-21.839 79.12-32.253 80.901-33.111 88.941-35.794 89.565-35.95 0.59795 0.19932 36.591 13.902 95.506 38.146 19.405 7.9852 101.35 41.318 139.61 56.79l29.533 11.942 2.4848 8.1718c1.3667 4.4945 13.059 48.11 25.984 96.923s24.134 89.526 24.91 90.472c2.2607 2.754 4.2798 1.9682 7.955-3.096 1.892-2.6072 4.4478-4.7573 5.6795-4.7782 4.8084-0.0813 5.8275 3.8745 6.8424 26.56 0.54748 12.237 1.3863 23.18 1.864 24.315 0.98097 2.3311 30.046 23.838 33.143 24.524 1.6921 0.37506 2.0072-2.9194 2.0072-20.984 0-11.785 0.35283-21.428 0.78407-21.428 1.1959 0 12.211 7.677 26.899 18.747l13.235 9.9753 0.87203 19.006c1.3679 29.814 3.932 147.16 4.1281 188.93l0.1776 37.827-17.2 7.0963c-25.847 10.664-22.897 11.571-24.002-7.3755-1.0939-18.751-1.572-21.024-4.4229-21.024-1.1528 0-7.8568 2.5364-14.898 5.6365-15.055 6.6283-14.469 5.3822-14.469 30.781v16.81l-31.992 17.631c-17.596 9.697-35.559 19.547-39.919 21.89-6.5138 3.4999-8.1527 5.1172-9.1963 9.0749-0.69843 2.6488-4.2188 16.272-7.8231 30.272-5.7444 22.314-7.0719 25.95-10.756 29.456-4.9882 4.7488-246.94 147.56-246.94 147.56s-14.055-6.7577-31.779-17.509zm73.493-47.078c15.203-9.307 60.692-36.706 101.08-60.888 40.392-24.182 74.252-45.205 75.243-46.719 0.99097-1.5136 6.836-21.638 12.989-44.72 6.1529-23.083 12.696-46.954 14.541-53.047 3.7405-12.357 4.0073-14.377 1.8991-14.377-1.2221 0-27.546 52.362-43.236 86-2.4709 5.2976-6.5844 11.541-9.141 13.875-2.5567 2.3336-16.103 12.493-30.104 22.578-14.001 10.084-34.744 25.082-46.096 33.328-11.352 8.2465-34.964 25.331-52.471 37.966-17.507 12.635-37.166 26.827-43.688 31.539-11.049 7.9816-14.116 11.386-10.26 11.386 0.87844 0 14.036-7.6148 29.24-16.922zm-56.981 14.396c0-1.1659-12.92-11.016-37.84-28.846-38.949-27.87-71.93-51.666-85.4-61.616-8.2763-6.1134-22.478-16.47-31.56-23.016-32.447-23.384-28.86-19.448-42.257-46.366-6.5922-13.244-17.428-35.369-24.08-49.167s-12.868-25.098-13.814-25.112c-2.2402-0.0335-2.1726 2.4735 0.25199 9.3454 1.0846 3.0741 7.3026 25.907 13.817 50.741 6.5152 24.833 12.446 47.01 13.179 49.28 1.1646 3.6075 11.328 10.114 80.605 51.6 43.6 26.11 88.95 53.473 100.78 60.808 19.817 12.289 26.321 15.34 26.321 12.348zm65.334-228.68c39.406-10.062 45.123-11.901 64.262-20.674 11.554-5.2962 21.601-10.223 22.326-10.948 3.3261-3.9531-1.5802-1.6323-18.879 3.5218l-31.078 8.9939-4.8965-2.7948-8.3918 3.8014-2.6541-1.5149-7.2879 2.8108-2.9252-1.6696-60.547 5.2443-58.602-5.2443-3.3701 1.6696-6.5612-3.2762-4.1895 2.6392-8.7319-4.4603-4.9508 3.3191-36.825-11.274c-11.934-3.6536-18.025-5.9275-18.025-3.6544 0 1.6789 33.541 18.106 44.809 21.869 19.405 6.48 88.483 22.461 96.706 22.571 6.5503 0.0871 16.99-2.5486 49.813-10.93zm-389.22-46.404c-2.7792-33.472-3.575-53.276-3.5858-89.238-7e-3 -22.025 0.39186-43.911 0.88555-48.634l0.89763-8.5881 8.0464-3.4896c9.3004-4.0335 8.9789-2.7152 5.9896-24.563-2.659-19.433-3.1172-21.223-5.4311-21.223-1.7945 0-11.63 5.7792-42.736 25.113l-12.384 7.6969-1.2027-17.093c-0.672-9.5506-1.8036-17.093-2.5646-17.093-2.5426 0-11.925 5.9282-12.739 8.0491-1.1879 3.0957-5.4004 169.33-4.3183 170.41 2.0119 2.0119 3.8586-2.4952 5.7109-13.937 5.1812-32.007 18.754-68.218 33.167-88.491 4.6372-6.5222 4.6506-6.5292 4.6789-2.4175 0.066 9.6044 2.7857 46.21 4.1401 55.724 2.5601 17.983 8.3679 45.563 12.58 59.742 4.5388 15.279 6.0437 18.69 8.2453 18.69 1.0363 0 1.2294-3.3219 0.61982-10.664zm680.76 6.88c2.4493-4.809 8.1972-24.902 11.71-40.936 5.176-23.624 7.379-40.04 8.9421-66.633l1.571-26.729 5.9493 8.8412c13.072 19.426 22.639 44.313 29.756 77.405 2.6879 12.499 4.8871 23.083 4.8871 23.52 0 0.43763 0.6192 0.79567 1.376 0.79567 0.85576 0 1.3709-7.6737 1.3626-20.296-0.0156-23.658-2.2439-108.41-3.5435-134.77l-0.89497-18.156-5.3126-3.5157c-9.2453-6.1182-9.4996-5.7518-9.4996 13.684 0 9.46-0.27621 17.2-0.6138 17.2-0.54938 0-8.2648-4.735-45.184-27.73-9.4092-5.8604-13.371-7.7099-13.371-6.2426 0 0.2353-1.2384 9.3308-2.752 20.212-1.5136 10.881-2.752 20.545-2.752 21.476 0 0.9303 3.6991 3.1258 8.2202 4.8789 8.0108 3.1062 8.2468 3.3456 9.2684 9.4003 0.57656 3.4172 0.98832 28.194 0.91502 55.061-0.11751 43.098-1.2432 67.465-4.1476 89.784-0.97218 7.4708 1.0276 8.8089 4.1126 2.752zm-463.48-125.53c35.425-3.0517 40.57-3.7494 40.57-5.5012 0-0.6715 1.2384-1.614 2.752-2.0943 1.5136-0.4804 2.752-1.9809 2.752-3.3345 0-1.9392-3.7198-3.662-17.544-8.125-34.56-11.158-131.52-41.403-136.22-42.495-5.6051-1.3003-3.5149 3.7544 5.504 13.31 4.73 5.0116 14.482 15.741 21.672 23.844 7.1896 8.1029 13.621 14.733 14.294 14.734 1.103 1e-3 0.3591-14.146-1.3314-25.32-0.36079-2.3848 4.021 4.9799 9.9491 16.723l10.593 20.984h7.6932c4.2312 0 21.925-1.226 39.319-2.7245zm298.2-19.202c5.1514-11.681 9.7495-21.588 10.218-22.016 0.46837-0.42732 0.45115 2.0094-0.0383 5.415-2.0962 14.585-2.6028 24.768-1.2324 24.768 0.77415 0 5.0249-4.1796 9.4462-9.288 4.4213-5.1084 13.784-15.552 20.808-23.209 11.191-12.2 15.18-18.452 11.737-18.4-1.4547 0.0224-116.28 35.796-151.36 47.157-5.8164 1.8835-5.6454 3.9377 0.68801 8.2693 4.7801 3.2694 7.439 3.7266 36.12 6.2111 17.028 1.475 36.199 2.6028 42.603 2.506l11.643-0.17594 9.3662-21.239zm-456.4-115.78c1.2057-2.3316 4.229-8.988 6.7185-14.792 2.4895-5.8037 11.509-26.343 20.044-45.641s19.133-43.38 23.552-53.515c4.4193-10.135 9.0747-19.576 10.346-20.981 2.1589-2.3857 9.5056-7.2037 52.476-34.415 9.2804-5.8768 16.292-9.6277 15.582-8.3353-0.70997 1.2925-7.2194 10.993-14.466 21.555-12.019 17.521-15.292 24.138-11.939 24.138 0.67913 0 4.8588-1.7976 9.288-3.9948 4.4292-2.1971 18.889-8.9307 32.133-14.964 84.294-38.397 119.82-54.69 125.51-57.569 3.5696-1.804 8.0124-3.2801 9.8729-3.2801s13.801 4.7226 26.534 10.494c12.733 5.7722 33.677 15.266 46.543 21.097 12.866 5.8315 42.013 19.065 64.77 29.409 22.759 10.344 42.175 18.806 43.147 18.806 2.5891 0 1.2537-2.5611-9.1352-17.519-5.1385-7.3987-11.733-17.102-14.653-21.564l-5.3103-8.1113 5.3103 3.1985c4.8802 2.9394 34.004 21.321 55.534 35.05l8.944 5.7034 30.15 68.013c16.582 37.407 30.669 68.601 31.304 69.32 3.5686 4.0418 0.27013-9.3274-18.146-73.548-2.9298-10.217-8.4106-29.722-12.18-43.344-15.066-54.453-17.218-61.584-19.315-64.016-1.1996-1.3908-13.637-7.29-27.637-13.109-14.001-5.8194-31.029-12.911-37.84-15.761-6.8112-2.8494-25.387-10.59-41.28-17.202-15.893-6.612-49.33-20.687-74.304-31.278s-49.284-19.762-51.481-19.836c-2.4182 0.12262-9.1631 2.922-23.51 8.9327-85.817 35.954-184.43 77.144-195.62 81.711-15.349 6.2647-13.726 3.8306-21.82 32.72-3.0746 10.973-8.0188 28.311-10.987 38.528s-10.655 37.152-17.083 59.856c-6.427 22.704-12.642 43.989-13.81 47.301-3.7356 10.586-1.7409 15.622 2.7489 6.9397zm719.79 177.96c-1.6579-27.096-1.1978-38.093 1.7352-41.475 1.5859-1.8285 2.9578-6.1314 3.4672-10.874 2.0392-18.985 4.8937-68.566 4.9046-85.188 0.012-17.973-0.036-18.251-4.3552-25.456-2.402-4.0065-10.352-18.121-17.667-31.365-7.3147-13.244-17.499-31.51-22.631-40.592-15.661-27.71-30.012-53.321-33.702-60.142-6.8443-12.65-30.204-54.458-45.296-81.069-12.189-21.492-15.316-28.091-15.325-32.336-7e-3 -2.9336-0.40243-8.5846-0.87966-12.557-1.0481-8.7254-2.9214-9.1903-9.7036-2.408-2.6488 2.6488-5.5902 4.816-6.5365 4.816-1.626 0-34.887-13.33-84.005-33.668-12.108-5.0137-33.471-13.8-47.472-19.524-20.691-8.4599-76.397-31.397-152.31-62.715l-9.9015-4.0846-16.931 7.2221c-9.3117 3.9722-24.981 10.487-34.819 14.477-9.8384 3.9902-25.318 10.322-34.4 14.071-30.548 12.611-71.911 29.6-119.71 49.169-9.8384 4.0277-33.006 13.562-51.483 21.187-18.478 7.6254-34.61 13.864-35.85 13.864s-4.355-2.1672-6.9222-4.816c-2.5673-2.6488-5.7848-4.816-7.1499-4.816-2.1946 0-2.4821 1.3352-2.4821 11.527 0 13.51-0.70878 15.478-13.525 37.541-5.2051 8.9601-18.611 32.7-29.792 52.755-11.181 20.055-23.961 42.772-28.402 50.482-4.4406 7.7104-11.071 19.475-14.735 26.144-3.6635 6.6688-16.163 29.153-27.777 49.965-11.614 20.812-22.326 40.201-23.805 43.087-2.6433 5.1584-2.6504 5.9678-0.41978 48.16 3.2386 61.261 3.527 64.199 6.5539 66.79 2.33 1.9951 2.5587 4.5616 2.5587 28.717 0 30.376 0.42366 29.576-12.264 23.147-8.1261-4.1178-7.6251-1.6362-10.428-51.661-1.1237-20.055-3.0412-52.872-4.2612-72.928-1.2199-20.055-1.9465-39.869-1.6146-44.032 0.49612-6.2214 4.4615-15.77 22.286-53.664 11.925-25.353 31.892-68.078 44.37-94.944 12.478-26.866 24.444-52.563 26.591-57.104 2.1465-4.5408 8.36-18.163 13.808-30.272 5.4478-12.108 12.363-26.969 15.369-33.024 3.0047-6.0544 7.6319-16.219 10.283-22.587 9.1856-22.068 2.2423-17.243 85.326-59.307 40.723-20.617 88.282-44.757 105.69-53.641 55.867-28.518 127.77-65.06 134.5-68.355 3.591-1.7583 7.9254-3.1802 9.632-3.1599 3.0654 0.0366 32.306 14.351 93.919 45.978 17.407 8.935 55.178 28.162 83.936 42.729 28.759 14.566 73.341 37.149 99.072 50.186 25.731 13.036 47.529 24.417 48.439 25.291 0.91044 0.87331 5.766 10.876 10.791 22.228 5.0242 11.352 14.893 33.024 21.93 48.16 7.0373 15.136 23.134 49.812 35.771 77.056s24.702 53.251 26.81 57.792c12.16 26.187 33.785 71.967 39.221 83.032 10.096 20.549 9.9605 19.146 6.4873 67.266-1.681 23.289-3.6509 55.346-4.3776 71.239-1.5803 34.562-2.6115 47.795-3.876 49.74-1.1846 1.8227-5.7652 4.2509-12.505 6.6287l-5.2336 1.8466zm16.163-28.206c0.4712-3.9732 2.0857-20.846 3.5875-37.496 1.502-16.649 3.7294-40.559 4.9498-53.13 1.2205-12.572 1.9519-28.361 1.6255-35.088l-0.5934-12.229-18.658-38.528c-10.262-21.19-27.649-57.413-38.64-80.496-10.991-23.083-28.588-59.925-39.107-81.872-10.518-21.948-25.262-52.753-32.765-68.456-11.425-23.915-14.116-28.552-16.565-28.552-1.6082 0-4.0446 1.2384-5.4144 2.752-3.6726 4.0581-5.1932 3.3447-2.7873-1.3076 4.8623-9.4026 6.4071-8.2255-45.717-34.836-26.298-13.426-72.584-37.149-102.86-52.716-30.272-15.568-73.925-37.941-97.008-49.72-23.083-11.778-47.081-24.117-53.331-27.418-6.2494-3.3016-11.894-6.0028-12.543-6.0028-1.141 0-33.351 16.478-218.27 111.66-47.678 24.542-88.391 45.357-90.472 46.257-2.9575 1.279-3.784 2.5641-3.784 5.8843 0 2.3363 0.66936 5.4987 1.4875 7.0274 2.1788 4.0709 0.36087 4.8432-3.3016 1.4025-6.1317-5.7604-7.2107-4.5894-19.751 21.438-6.4729 13.434-16.405 34.022-22.07 45.752-5.6659 11.731-12.485 25.972-15.153 31.648-2.6684 5.676-14.134 29.825-25.479 53.664-11.345 23.839-28.643 60.305-38.441 81.035-9.7978 20.73-20.966 43.95-24.82 51.6l-7.0066 13.909 2.2363 26.144c6.314 73.815 9.651 106.18 11.097 107.63 2.3381 2.3381 2.5497-3.1684 1.0553-27.472-0.89574-14.569-1.9948-42.897-2.4423-62.953l-0.81373-36.464 8.5713-17.888c4.7142-9.8384 11.822-25.008 15.795-33.712 3.9732-8.7039 24.394-52.356 45.381-97.008 20.987-44.652 42.473-90.472 47.748-101.82 19.054-41.011 20.877-44.72 21.994-44.72 0.62332 0 4.7002 2.476 9.0598 5.5022 4.3596 3.0262 8.7005 5.503 9.6465 5.504 2.2807 3e-3 2.1512-4.6706-0.35889-12.944-3.4603-11.407-3.1712-12.055 7.2434-16.241 120.34-48.374 288.41-115.3 290.85-115.3 100.31 36.752 159.49 62.714 236.5 93.615 34.435 13.814 63.121 25.573 63.748 26.128 0.62703 0.55584-0.14697 5.3321-1.72 10.614-1.573 5.282-2.8601 10.62-2.8601 11.863 0 3.6524 3.8497 2.6307 12.225-3.2443 4.3155-3.0272 8.3243-5.504 8.9082-5.504 0.58398 0 3.2616 4.7988 5.9503 10.664 8.742 19.069 49.696 107.08 75.073 161.33 13.629 29.136 32.22 69.075 41.314 88.752l16.535 35.776-1.5995 51.6c-1.8949 61.131-1.975 81.184-0.3242 81.184 0.6696 0 1.603-3.2508 2.0743-7.224z" fill="#5c77d6" stroke-width="1.376"/>
 </g>
</svg>
