<?xml version="1.0" encoding="UTF-8"?>
<svg width="300" height="300" version="1.1" viewBox="0 0 300 300" xmlns="http://www.w3.org/2000/svg">
 <g transform="matrix(.26398 0 0 .26398 3.1667 6.008)">
  <path transform="matrix(3.7882,0,0,3.7882,-11.996,-22.759)" d="m148.92 6.9297 2e-3 0.00195c-0.98711 0.14755-6.8084 2.975-19.754 9.5879-26.57 13.573-38.011 19.409-55.217 28.162-8.1065 4.1238-15.169 7.8577-15.695 8.3008-0.66179 0.55673-2.9743 5.1348-7.4883 14.812-3.5927 7.7029-12.071 25.884-18.84 40.402-6.7687 14.52-12.657 27.138-13.084 28.043-0.90819 1.9271-0.9905-1.1084 0.80078 29.328 0.70635 12.002 1.4328 22.163 1.6152 22.578 0.20723 0.4719 1.8594 1.529 4.4023 2.8164l4.0703 2.0606 2e-3 11.371 2e-3 11.369 1.4961 0.65235c16.747 7.3098 22.798 10.151 30.355 14.244 4.8395 2.621 8.9325 4.8121 9.0957 4.8691 0.16319 0.057 1.2307 3.4233 2.3711 7.4824 1.1404 4.0592 2.2286 7.7317 2.418 8.1602 0.40837 0.92392-0.12543 0.58186 16.561 10.668 7.2594 4.3881 18.902 11.431 25.871 15.65 6.969 4.2191 16.234 9.8089 20.59 12.422 4.3556 2.6128 8.1521 4.9665 8.4356 5.2305v-4e-3c0.67695 0.63031 0.95491 0.606 2.0703-0.17578 0.51212-0.36006 16.535-9.9582 35.604-21.332s34.95-20.947 35.295-21.275c0.39578-0.37696 1.3904-3.5477 2.7012-8.6152 1.1407-4.41 2.1262-8.0604 2.1895-8.1113 0.0634-0.051 3.7584-2.0308 8.2109-4.4004 5.2241-2.7803 12.526-6.2155 20.59-9.6836l12.496-5.373v-22.767l4.3574-1.9902c2.3967-1.0948 4.4923-2.2304 4.6562-2.5234 0.23124-0.41444 2.3677-30.532 3.3867-47.746 0.1344-2.2703 0.0414-2.8073-0.7207-4.2246-0.48017-0.89277-4.4752-9.543-8.8789-19.223-6.9762-15.335-11.805-25.686-26.643-57.109-3.1113-6.5894-3.2534-6.814-4.9922-7.9473-0.98233-0.64112-21.111-11.119-44.729-23.283-23.619-12.164-43.18-22.253-43.471-22.422-0.0235-0.013661-0.067-0.015695-0.13281-0.00586zm-0.63672 11.824c0.78408 0.0094 8.2616 3.6716 24.021 11.762 4.4525 2.2855 14.115 7.2034 21.471 10.93 7.3563 3.7258 18.762 9.5029 25.344 12.838 6.5818 3.3345 12.158 6.2452 12.391 6.4688 0.23289 0.22339 1.4745 2.7818 2.7598 5.6855 1.2852 2.9038 3.8093 8.4469 5.6094 12.318 1.8001 3.8717 5.918 12.74 9.1504 19.709s6.3181 13.622 6.8574 14.783c3.1104 6.6985 8.6428 18.41 10.033 21.24 2.5824 5.2563 2.5467 4.8982 1.6582 17.207-0.42996 5.9572-0.93329 14.157-1.1191 18.223-0.40423 8.8406-0.66679 12.225-0.99024 12.723-0.30299 0.46624-1.4753 1.0871-3.1992 1.6953l-1.3398 0.47265-0.22851-3.7168c-0.42409-6.931-0.3069-9.7447 0.44335-10.609 0.40566-0.46772 0.75642-1.5681 0.88672-2.7812 0.52159-4.8561 1.2531-17.539 1.2559-21.791 3e-3 -4.5974-0.0104-4.6686-1.1152-6.5117-0.61441-1.0249-2.6485-4.6359-4.5195-8.0234-1.8711-3.3876-4.4743-8.0596-5.7871-10.383-4.0058-7.0881-7.6771-13.64-8.6211-15.385-1.7508-3.2358-7.7274-13.927-11.588-20.734-3.1178-5.4976-3.9176-7.1857-3.9199-8.2715-2e-3 -0.75039-0.10253-2.1967-0.22461-3.2129-0.26809-2.2319-0.7476-2.3501-2.4824-0.61523-0.67755 0.67755-1.4298 1.2324-1.6719 1.2324-0.41593 0-8.9226-3.4111-21.486-8.6133-3.0972-1.2825-8.5607-3.5299-12.143-4.9941-5.2925-2.164-19.542-8.0301-38.961-16.041l-2.5332-1.0449-4.3301 1.8457c-2.3819 1.0161-6.3918 2.6826-8.9082 3.7031-2.5166 1.0207-6.4759 2.6406-8.7988 3.5996-7.8141 3.2258-18.394 7.5727-30.621 12.578-2.5166 1.0303-8.4436 3.4695-13.17 5.4199-4.7265 1.9505-8.851 3.5449-9.168 3.5449s-1.1148-0.55288-1.7715-1.2305c-0.6567-0.67755-1.4789-1.2324-1.8281-1.2324-0.56135 0-0.63477 0.34213-0.63477 2.9492 0 3.4557-0.18257 3.958-3.4609 9.6016-1.3314 2.292-4.7593 8.3643-7.6191 13.494-2.86 5.1299-6.1297 10.94-7.2656 12.912-1.1359 1.9723-2.8324 4.9816-3.7695 6.6875-0.93709 1.7059-4.1346 7.4578-7.1055 12.781-2.9708 5.3234-5.7116 10.283-6.0898 11.021-0.67613 1.3195-0.67799 1.5242-0.10742 12.316 0.82842 15.67 0.9035 16.423 1.6777 17.086 0.59601 0.51033 0.6543 1.1668 0.6543 7.3457 0 7.77 0.10874 7.5645-3.1367 5.9199-2.0786-1.0533-1.9509-0.41875-2.668-13.215-0.28744-5.1299-0.77781-13.524-1.0898-18.654-0.31204-5.1299-0.49896-10.199-0.41406-11.264 0.02056-0.25787 0.07973-0.55694 0.1582-0.88672 0.4058-1.7055 1.7223-4.7173 5.543-12.84 3.0502-6.4852 8.1575-17.413 11.35-24.285 3.1917-6.8722 6.2537-13.444 6.8027-14.605 0.54905-1.1615 2.1377-4.6469 3.5312-7.7441s3.163-6.8985 3.9316-8.4473c0.76858-1.5487 1.9528-4.1484 2.6309-5.7773 2.3497-5.6449 0.5742-4.412 21.826-15.172 10.417-5.2737 22.579-11.448 27.031-13.721 14.291-7.2948 32.685-16.64 34.406-17.482 0.91856-0.44976 2.0264-0.81379 2.4629-0.80859zm-0.0371 0.33398-2e-3 2e-3c-0.29185 0-8.5313 4.2146-55.832 28.562-12.196 6.2777-22.61 11.602-23.143 11.832-0.75651 0.32715-0.96875 0.65658-0.96875 1.5059 0 0.22677 0.03219 0.48108 0.07422 0.73438 0.02697 0.1625 0.05831 0.31663 0.09766 0.4668 0.06096 0.23263 0.13007 0.44824 0.20898 0.5957 0.55732 1.0413 0.09308 1.2375-0.84375 0.35742-1.5685-1.4735-1.8447-1.173-5.0527 5.4844-1.6557 3.4362-4.1972 8.7025-5.6465 11.703-1.4493 3.0007-3.1923 6.6438-3.875 8.0957-0.68257 1.4519-3.6156 7.6286-6.5176 13.727-2.9019 6.0979-7.328 15.426-9.834 20.729-2.506 5.3026-5.362 11.242-6.3477 13.199l-1.793 3.5586 0.57227 6.6875c1.6151 18.881 2.468 27.157 2.8379 27.529 0.06443 0.0644 0.11993 0.0931 0.17188 0.10742-0.05199-0.0114-0.10701-0.0433-0.17188-0.10742-0.0013-1e-3 -0.0026-6.9e-4 -0.0039-2e-3 6.94e-4 7.4e-4 0.0013 7e-3 2e-3 8e-3 0.07082 0.0708 0.13 0.10105 0.18555 0.10938 0.03076 6e-3 0.06157 8e-3 0.08789-6e-3 0.03544-0.0188 0.06429-0.0699 0.0918-0.12891 0.01197-0.0279 0.02083-0.0729 0.03125-0.10937 0.06287-0.20486 0.09481-0.61005 0.10547-1.1484 1e-5 -5.1e-4 -1e-5 -1e-3 0-2e-3 0.02155-1.0936-0.05099-2.8608-0.22852-5.748-0.22913-3.7266-0.51051-10.972-0.625-16.102l-0.20898-9.3281 2.1934-4.5742c1.2059-2.5166 3.0227-6.3988 4.0391-8.625 1.0163-2.2261 6.2408-13.393 11.609-24.814 5.3683-11.422 10.864-23.141 12.213-26.045 4.251-9.1498 5.1485-11.039 5.498-11.373 0.04743-0.04309 0.0865-0.06055 0.12109-0.06055 0.15944 0 1.2012 0.63412 2.3164 1.4082 1.1152 0.77409 2.2268 1.408 2.4688 1.4082 0.07631 1.04e-4 0.14024-0.02231 0.19531-0.0625 0.05018-0.03662 0.09234-0.08714 0.125-0.15625 0.21445-0.42785 0.07949-1.4984-0.40625-3.0996-0.32307-1.065-0.51181-1.7581-0.5-2.2676 1e-3 -0.03663 0.0046-0.07073 0.0078-0.10547 0.01001-0.11588 0.03477-0.22027 0.07031-0.31836 0.01453-0.03949 0.02793-0.08002 0.04687-0.11719 0.04935-0.09839 0.11735-0.18923 0.19922-0.27539 0.04588-0.04776 0.10165-0.09517 0.1582-0.14062 0.07862-0.06383 0.16302-0.12592 0.26367-0.1875 0.07798-0.04745 0.16608-0.0969 0.25781-0.14453 0.06708-0.03502 0.14201-0.06977 0.2168-0.10547 0.31268-0.14892 0.67203-0.30268 1.1289-0.48633 1.2282-0.49371 2.5857-1.0364 3.9141-1.5684 0.15048-0.06026 0.29374-0.1178 0.44336-0.17773 0.43256-0.17269 0.8638-0.34442 1.2812-0.51172 29.761-11.928 67.278-26.707 68.975-27.154 5.3174 1.9496 10.116 3.7652 14.664 5.5137-5.5619-2.2487-11-4.4477-11.684-4.75-0.0222-0.0098-0.046-0.0176-0.0684-0.02734 0.0247 0.01073 0.0497 0.01652 0.0742 0.02734 1.8042 0.79791 20.213 8.2197 57.299 23.098 8.7992 3.53 16.126 6.5339 16.301 6.6816 1.8e-4 1.51e-4 6e-3 0.0018 6e-3 2e-3 0.16039 0.14218-0.0371 1.3638-0.43945 2.7148-0.40236 1.3511-0.73243 2.7154-0.73243 3.0332 0 0.23138 0.0621 0.38862 0.18555 0.47266-0.0646-0.04129-0.11847-0.09576-0.15039-0.17578 0.0614 0.15949 0.19345 0.23698 0.38281 0.24609 0.01 5.28e-4 0.0212-0.0021 0.0312-2e-3 0.0809 5.35e-4 0.17193-0.01183 0.27539-0.03711 0.0299-0.0072 0.062-0.01603 0.0937-0.02539 0.0684-0.02039 0.14541-0.05163 0.22266-0.08203 0.21935-0.08562 0.47286-0.20955 0.76562-0.37695 0.37708-0.21625 0.80629-0.48946 1.3086-0.8418 4e-3 -3e-3 7e-3 -0.0048 0.0117-0.0078 0.54762-0.38413 1.0748-0.7316 1.4863-0.98633 5e-3 -3e-3 7e-3 -0.0048 0.0117-0.0078 0.20163-0.12462 0.37272-0.22363 0.50586-0.29492 0.13445-0.07152 0.22633-0.11133 0.26367-0.11133 0.14938 0 0.83373 1.2283 1.5215 2.7285 2.2362 4.8778 12.712 27.39 19.203 41.268 3.4861 7.4529 8.2406 17.67 10.566 22.703l4.2285 9.1504v-8e-3l-4.2305-9.1504c-2.3262-5.0333-7.0788-15.25-10.564-22.703-6.4912-13.878-16.969-36.39-19.205-41.268-0.68295-1.4898-1.3599-2.7057-1.5156-2.7227 1e-3 -7.4e-5 7e-3 -0.0039 8e-3 -0.0039 0.14938 0 0.83374 1.2263 1.5215 2.7266 2.2362 4.8778 12.712 27.39 19.203 41.268 3.4861 7.453 8.2422 17.67 10.568 22.703l4.2285 9.1504-0.40821 13.199c-0.45442 14.66-0.50022 20.084-0.15624 20.705 0.0232 0.0428 0.0455 0.0684 0.0723 0.0684 0.17127 0 0.41071-0.8314 0.53125-1.8477 2.4e-4 -2e-3 -2.4e-4 -4e-3 0-6e-3 0.12054-1.0163 0.53377-5.333 0.91797-9.5918s0.95344-10.374 1.2656-13.59 0.49952-7.2559 0.41602-8.9766l-0.15234-3.127-4.7715-9.8555c-2.6249-5.4203-7.0734-14.687-9.8848-20.592-2.8114-5.9044-7.3115-15.327-10.002-20.941-2.6905-5.6141-6.4637-13.495-8.3828-17.512-2.9225-6.1172-3.6099-7.3027-4.2363-7.3027-0.41136 0-1.0344 0.31597-1.3848 0.70312-0.93943 1.038-1.3283 0.85609-0.71289-0.33398 0.11915-0.23042 0.21438-0.42 0.30664-0.60938 0.87068-1.7873 0.0556-2.146-12-8.3008-6.727-3.4344-18.567-9.5022-26.311-13.484-7.7433-3.9821-18.91-9.7059-24.814-12.719-5.9044-3.0128-12.044-6.1692-13.643-7.0137-1.5986-0.84452-3.041-1.5352-3.207-1.5352zm76.795 43.301c-0.16024-0.14202-7.4981-3.148-16.307-6.6816-0.66857-0.26822-0.85329-0.34405-1.5098-0.60742 0.51982 0.20934 0.98569 0.40417 1.5117 0.61524 8.8082 3.5336 16.146 6.5396 16.307 6.6816-1e-3 -1e-3 -8.3e-4 -0.0069-2e-3 -0.0078zm-76.344-30.629c0.11225 0 0.27303 0.0259 0.4668 0.06836-0.19595-0.04298-0.35756-0.06641-0.47071-0.06641 1.6e-4 -2e-6 4e-3 -2e-3 4e-3 -2e-3zm0.4707 0.06836c0.21081 0.0464 0.46578 0.11991 0.73633 0.20508-0.27174-0.08548-0.52446-0.15847-0.73633-0.20508zm-0.94336 24.209c0.15296 0.05099 9.361 3.5545 24.432 9.7559 4.9636 2.0426 25.923 10.57 35.709 14.527l7.5547 3.0547 0.63476 2.0898c0.3496 1.1497 3.3404 12.307 6.6465 24.793 3.306 12.486 6.1746 22.9 6.373 23.143 0.57828 0.70446 1.0951 0.50437 2.0352-0.79101 0.48395-0.66689 1.1361-1.2173 1.4512-1.2227 1.23-0.0208 1.4924 0.99028 1.752 6.793 0.14004 3.1302 0.35437 5.9303 0.47657 6.2207 0.25092 0.59628 7.6844 6.0979 8.4766 6.2734 0.43282 0.0959 0.51367-0.74848 0.51367-5.3691 0-3.0146 0.0909-5.4805 0.20117-5.4805 0.3059 0 3.1237 1.9633 6.8809 4.7949l3.3848 2.5527 0.22265 4.8613c0.34991 7.6264 1.0066 37.643 1.0566 48.326l0.0449 9.6758-4.3984 1.8144c-6.6116 2.7276-5.8579 2.9596-6.1406-1.8867-0.27982-4.7965-0.40158-5.377-1.1309-5.377-0.29489 0-2.0094 0.64845-3.8105 1.4414-3.8509 1.6955-3.7012 1.3762-3.7012 7.873v4.3008l-8.1836 4.5098c-4.5008 2.4804-9.0956 5.0004-10.211 5.5996-1.6662 0.89525-2.0866 1.3079-2.3535 2.3203-0.17865 0.67755-1.078 4.1631-2 7.7441-1.4694 5.7077-1.8097 6.6381-2.752 7.5352-1.276 1.2147-63.164 37.742-63.164 37.742s-3.5951-1.7285-8.1289-4.4785l2e-3 -2e-3c-4.1621-2.5246-8.2792-5.0333-9.1504-5.5742-0.87113-0.54082-5.1483-3.0884-9.5039-5.6641-4.3556-2.5756-9.3455-5.5557-11.088-6.6211-1.7423-1.0656-5.2256-3.1587-7.7422-4.6523-2.5165-1.4936-7.585-4.5364-11.264-6.7617-7.7-4.6584-6.6245-3.138-9.1582-12.934-0.87624-3.3876-1.7305-6.4872-1.9004-6.8887-0.19786-0.46761-3.8343-2.6649-10.113-6.1113-5.3915-2.9591-9.996-5.5369-10.232-5.7285-0.29528-0.23876-0.46072-1.9606-0.52734-5.4727l-0.09766-5.123-3.6953-1.5254c-2.0327-0.83942-3.9496-1.528-4.2598-1.5293-0.45351-2e-3 -0.60724 0.56642-0.78906 2.9023-0.12433 1.5971-0.22736 3.6466-0.22852 4.5547-0.0011 0.9081-0.15052 1.7433-0.33203 1.8555-0.18153 0.11219-2.5175-0.73396-5.1914-1.8789l-4.8613-2.082 0.06445-12.619c0.0631-12.232 0.58104-34.826 1.0332-45.107l0.2207-5.0371 3.3887-2.5527c3.7595-2.8336 6.5769-4.7969 6.8828-4.7969 0.11031 0 0.20117 2.3756 0.20117 5.2793 0 4.0644 0.10313 5.2793 0.45117 5.2793 0.54517 0 8.7829-5.5297 9.0957-6.1055 0.12112-0.22303 0.33291-3.0187 0.4707-6.2129 0.13779-3.1941 0.41487-6.006 0.61523-6.248 0.58827-0.7105 1.3183-0.51282 2.2676 0.61523 1.0548 1.2536 2.1119 1.3605 2.6035 0.26367 0.19523-0.43557 0.88288-2.8506 1.5273-5.3672 0.64453-2.5166 2.5528-9.7236 4.2402-16.016 1.6875-6.2914 4.0186-15.002 5.1816-19.357 1.163-4.3556 2.2977-8.1068 2.5234-8.3359 0.22574-0.22913 3.3407-1.6017 6.9219-3.0488 3.5814-1.4473 7.9374-3.2163 9.6797-3.9316 1.7423-0.71538 5.2277-2.1337 7.7441-3.1543 5.1843-2.1028 13.729-5.5862 20.238-8.25 20.694-8.4695 22.75-9.1573 22.91-9.1973zm-74.555 5.2871c-0.33366 0.1353-0.61839 0.25948-0.86719 0.375 0.24837-0.11492 0.53501-0.24036 0.86719-0.375zm-1.291 0.58398c-0.03123 0.0173-0.06435 0.03544-0.09375 0.05273 0.02884-0.01694 0.06316-0.0358 0.09375-0.05273zm-0.77344 0.70312c-0.01224 0.02531-0.01906 0.05371-0.0293 0.08008 0.01007-0.02602 0.01728-0.05509 0.0293-0.08008zm-2.9336 0.17383c0.0011 2e-3 8.39e-4 0.0058 2e-3 0.0078 0.06967 0.13017 0.12332 0.24822 0.16211 0.35156-0.0391-0.10603-0.09192-0.22457-0.16406-0.35938zm2.8262 0.26367c-2e-3 0.0261-7e-3 0.05098-0.0078 0.07813 7.76e-4 -0.02681 0.0059-0.05233 0.0078-0.07813zm77.277 1.9121c-0.0916 0.0026-0.28137 0.0532-0.42187 0.08008 0.0208-0.0039 0.0564-0.01425 0.0762-0.01758-0.0668-0.01556-0.17921-0.04971-0.21094-0.05078-0.53679 0.02722-2.1647 0.68606-4.916 1.834 0.0659-0.02685 0.10302-0.03816 0.16797-0.06445-0.4167 0.16883-0.80065 0.31905-1.2559 0.50976-21.952 9.1968-47.176 19.734-50.037 20.902-3.9262 1.6025-3.5114 0.9796-5.582 8.3691-0.78648 2.8069-2.0514 7.2421-2.8105 9.8555-0.75915 2.6134-2.7251 9.503-4.3691 15.311-1.644 5.8076-3.2344 11.252-3.5332 12.1-0.53009 1.5022-0.60778 2.5642-0.37695 2.8359-0.0796-0.0847-0.12749-0.24806-0.13281-0.49805 0.0048 0.26197 0.05735 0.4294 0.14258 0.51172 0.0264 0.0255 0.05451 0.0444 0.08789 0.0508 0.0119 3e-3 0.02628-2e-3 0.03906-2e-3 0.02537-5.8e-4 0.04947 5e-3 0.07813-6e-3 4.32e-4 -1.6e-4 0.0015 1.6e-4 2e-3 0 0.04578-0.0159 0.09647-0.0524 0.15039-0.0957 0.07278-0.0605 0.15408-0.15508 0.24023-0.26758 0.14288-0.183 0.29693-0.41408 0.47266-0.75391 0.30841-0.59641 1.082-2.3005 1.7188-3.7852 0.6368-1.4846 2.9438-6.7374 5.127-11.674 2.1831-4.9364 4.895-11.097 6.0254-13.689 1.1304-2.5925 2.3216-5.0062 2.6465-5.3652 0.06903-0.0763 0.15946-0.16384 0.28516-0.26953 0.37591-0.31609 1.0764-0.81097 2.502-1.7461 0.57555-0.37753 2.359-1.5024 3.1973-2.041 1.9461-1.2503 3.5893-2.3102 7.4297-4.7422 3e-3 -0.0019 5e-3 -4e-3 8e-3 -0.0059 0.11229-0.07111 0.20296-0.12281 0.3125-0.19141 0.0362-0.02266 0.0676-0.04208 0.10352-0.06445 8e-3 -5e-3 0.0155-0.0087 0.0234-0.01367 0.67973-0.42292 1.2949-0.7911 1.8164-1.0879 9e-3 -0.0052 0.0222-0.01441 0.0312-0.01953 0.18493-0.10523 0.39212-0.22654 0.55079-0.3125 0.21208-0.11471 0.35766-0.18142 0.51562-0.25781 0.10319-0.04991 0.22757-0.1165 0.30469-0.14844 0.0962-0.03869 0.19315-0.07646 0.24023-0.08203-4e-3 7.17e-4 -3e-3 -0.0029-8e-3 -2e-3 0.0111-0.0023 0.028-0.0069 0.0371-0.0078-5e-3 1.66e-4 -0.0236 0.0091-0.0293 0.0098 0.0439-0.0077 0.0788-0.01078 0.0859 0.0059-9.3e-4 -0.01346-0.0112-0.02109-0.0293-0.02344 0.0411 6.04e-4 0.0551 0.01909 0.0312 0.0625-0.1816 0.33061-1.8456 2.8135-3.6992 5.5156-2.61 3.805-3.6033 5.5936-3.3203 6.0488-0.0143-0.021-0.0365-0.0335-0.0449-0.0605 0.0105 0.037 0.0379 0.056 0.0586 0.082 6e-3 7e-3 9e-3 0.0169 0.0156 0.0234 0.0226 0.0222 0.05 0.0403 0.082 0.0527 0.0196 8e-3 0.0434 0.0114 0.0664 0.0156 0.0267 5e-3 0.0448 0.0176 0.0762 0.0176 0.17371 0 1.244-0.45946 2.377-1.0215 2e-3 -8.1e-4 0.0101-5e-3 0.0117-6e-3 1.1313-0.5612 4.8231-2.2808 8.207-3.8223 5e-3 -0.0025 6e-3 -0.0034 0.0117-0.0059 10.776-4.9083 18.431-8.402 23.58-10.764 7e-3 -0.0033 5e-3 -0.0026 0.0117-0.0059 5.1346-2.3549 7.7745-3.5812 8.502-3.9492 0.22827-0.11536 0.47052-0.22581 0.71289-0.32617 0.72712-0.30109 1.4556-0.51367 1.8125-0.51367 0.47589 0 3.5302 1.2072 6.7871 2.6836 3.2569 1.4765 8.6136 3.905 11.904 5.3965 3.291 1.4917 10.747 4.8776 16.568 7.5234 5.8215 2.6459 10.788 4.8105 11.037 4.8105 0.0849 0 0.15237-0.012 0.20118-0.0391 0.35699-0.16855-0.18381-1.0776-2.5254-4.4492-1.3144-1.8926-3.001-4.3744-3.748-5.5156l-1.3457-2.0547 1.334 0.80469c1.2484 0.75189 8.6961 5.4532 14.203 8.9648l2.2891 1.459-2e-3 -6e-3 -2.2871-1.459c-5.5071-3.5119-12.955-8.2149-14.203-8.9668l-1.3418-0.80664-6e-3 -0.0098 1.3594 0.81836c1.2483 0.75189 8.6979 5.4529 14.205 8.9648l2.2871 1.459 7.7129 17.398c4.2416 9.5685 7.8455 17.546 8.0078 17.73 0.0237 0.0269 0.0412 0.0379 0.0625 0.0586-0.027-0.0245-0.045-0.0252-0.0762-0.0605-0.16235-0.184-3.7642-8.1624-8.0059-17.73l-7.7109-17.391 7.7109 17.398c4.2416 9.5684 7.8435 17.546 8.0059 17.73 0.0515 0.0583 0.0852 0.0715 0.125 0.0996 0.0162 0.0131 0.0344 0.0287 0.0488 0.0371 0.0287 0.0128 0.0578 0.0253 0.0781 0.0156 8e-3 -2e-3 0.0163-3e-3 0.0234-8e-3 2e-4 -1.4e-4 2e-3 1.5e-4 2e-3 0 1e-3 -1e-3 6.7e-4 -6e-3 2e-3 -8e-3 0.34092-0.29283-0.83961-4.7669-4.9082-18.955-0.74944-2.6134-2.1511-7.6014-3.1152-11.086-3.8538-13.929-4.4047-15.753-4.9414-16.375-0.30685-0.35577-3.4872-1.865-7.0684-3.3535-3.5814-1.4886-7.9374-3.3046-9.6797-4.0332-1.7423-0.72882-6.4933-2.7071-10.559-4.3984s-12.62-5.2927-19.008-8.002c-6.3883-2.7092-12.01-4.9926-12.494-5.0742-0.0348-0.0059-0.0775-0.0073-0.12696-0.0059zm-81.475 0.94141c0.15944 0 1.2012 0.63413 2.3164 1.4082 1.1088 0.76963 2.2105 1.3988 2.4609 1.4062-6.95e-4 2e-6 -0.0013 1e-6 -2e-3 0-0.24197-2.64e-4 -1.3516-0.63415-2.4668-1.4082-1.1069-0.76832-2.1393-1.395-2.3105-1.4043 6.72e-4 -1.1e-5 0.0013-2e-3 2e-3 -2e-3zm157.57 2.6504c-0.033 0.01254-0.0663 0.02452-0.0976 0.03516 0.031-0.01025 0.065-0.02301 0.0976-0.03516zm-0.78906 0.06836c0.0529 0.03153 0.11911 0.048 0.19336 0.05469-0.0757-0.0052-0.13912-0.02439-0.19336-0.05469zm0.47071 0.0293c-0.0582 0.0126-0.1096 0.01758-0.16016 0.02148 0.05-3e-3 0.10257-0.0097 0.16016-0.02148zm-76.566 12.738c0.4759 0 3.5301 1.2071 6.7871 2.6836s8.6133 3.905 11.904 5.3965c3.291 1.4917 10.747 4.8776 16.568 7.5234 5.8157 2.6432 10.775 4.8042 11.033 4.8086-4e-3 5e-5 -6e-3 2e-3 -0.01 2e-3 -0.24893 0-5.2157-2.1666-11.037-4.8125-5.8215-2.6459-13.277-6.0298-16.568-7.5215-3.291-1.4915-8.6457-3.92-11.902-5.3965-3.245-1.4712-6.2829-2.675-6.7754-2.6836zm-38.592 8.6836c-0.045 0.01156-0.108 0.03621-0.17773 0.06445 0.0696-0.02815 0.13305-0.05317 0.17773-0.06445zm-0.84375 0.38476c-0.0448 0.02349-0.0813 0.04287-0.1289 0.06836 0.0486-0.02615 0.0831-0.04421 0.1289-0.06836zm-0.90039 0.50586c-0.1833 0.10543-0.33751 0.19147-0.54101 0.3125 0.20422-0.12157 0.35701-0.20654 0.54101-0.3125zm-5.1172 10.766c0.0157 0.0142 0.0348 0.0253 0.0547 0.0352-0.0207-9e-3 -0.0382-0.0215-0.0547-0.0352zm118.05 34.518c0.0207 0.0103 0.0381 0.0125 0.0547 0.0117-0.0156 4e-3 -0.0348-4e-3 -0.0547-0.0117zm-144.48 0.0879c-0.06809 0.0875-0.13175 0.15849-0.19141 0.2129 0.0587-0.0517 0.12431-0.12863 0.19141-0.2129zm-0.56445 0.31641c0.01823 0.0151 0.03729 0.0265 0.05859 0.0332-0.02154-5e-3 -0.04005-0.0196-0.05859-0.0332zm156.89 13.361c-0.0738 0.01-0.10742 0.0507-0.10742 0.12109 0 0.0602-0.3179 2.3865-0.70508 5.1699s-0.70313 5.256-0.70313 5.4942c0 0.0297 0.0148 0.0645 0.043 0.10351 2e-3 3e-3 9e-3 8e-3 0.0117 0.0117 4.1e-4 5.4e-4 2e-3 1e-3 2e-3 2e-3 0.0357 0.046 0.0994 0.10065 0.16797 0.15625 0.0883 0.0727 0.2031 0.15003 0.33985 0.23438 0.0308 0.0189 0.055 0.0354 0.0879 0.0547 0.37914 0.22345 0.87961 0.46859 1.4492 0.68945 1.0246 0.39728 1.5516 0.6117 1.8555 0.91992-0.28-0.28718-0.79381-0.50511-1.6758-0.84961 1.8317 0.71482 1.9399 0.8394 2.1914 2.3301 0.14748 0.87409 0.25312 7.2118 0.23437 14.084-0.0301 11.024-0.31762 17.258-1.0605 22.967-0.1217 0.93519-0.0589 1.4888 0.12695 1.6348-0.0455-0.0336-0.0871-0.0843-0.11719-0.16602 0.0308 0.086 0.0736 0.13949 0.1211 0.17383 4e-3 3e-3 8e-3 5e-3 0.0117 8e-3 0.047 0.0291 0.0995 0.0357 0.16015 0.0156 4e-3 -1e-3 8e-3 -4e-3 0.0117-6e-3 0.0446-0.0168 0.0955-0.0603 0.14648-0.10352 0.0506-0.0427 0.1038-0.10267 0.16016-0.17187 0.0389-0.0477 0.0777-0.0879 0.11914-0.14844 0.0837-0.12238 0.17093-0.27569 0.26367-0.45117 0.0151-0.0286 0.0296-0.0462 0.0449-0.0762v-2e-3c4.9e-4 -9.7e-4 1e-3 -3e-3 2e-3 -4e-3 0.0108-0.0212 0.0258-0.0643 0.0371-0.0879 0.12866-0.26842 0.29186-0.69018 0.47265-1.2148 0.0335-0.0973 0.0628-0.17078 0.0977-0.27539 0.23962-0.71775 0.50846-1.6024 0.78711-2.5762 3.7e-4 -1e-3 2e-3 -3e-3 2e-3 -4e-3 0.27876-0.97436 0.5642-2.0389 0.83789-3.1152 3.6e-4 -1e-3 2e-3 -3e-3 2e-3 -4e-3 0.27402-1.0778 0.53508-2.168 0.75976-3.1934 0.33068-1.5092 0.61234-2.9034 0.85742-4.252 0.7362-4.0509 1.1297-7.6896 1.4297-12.793l0.40235-6.8359 1.5215 2.2617c3.3438 4.9692 5.7909 11.334 7.6113 19.799 0.68756 3.1971 1.25 5.9056 1.25 6.0176 0 0.0983 0.13004 0.1708 0.29101 0.18945-0.0724-7e-3 -0.14511-0.0181-0.19531-0.0469 0.0641 0.0385 0.1528 0.0644 0.25195 0.0644 1e-3 0 3e-3 -4e-3 4e-3 -4e-3 8e-3 -8.6e-4 0.0155-0.0209 0.0234-0.0273 0.0171-0.0117 0.0349-0.0222 0.0508-0.0586 1.7e-4 -4.2e-4 -1.7e-4 -2e-3 0-2e-3 0.17389-0.40368 0.27727-2.26 0.27539-5.1035-4e-3 -6.0515-0.57382-27.731-0.90625-34.473l-0.23047-4.6445-1.3574-0.90039c-2.3649-1.565-2.4316-1.4717-2.4316 3.5 0 2.4198-0.0699 4.4004-0.15625 4.4004-0.14053 0-2.113-1.2119-11.557-7.0938-1.1501-0.71633-1.9488-1.1703-2.5039-1.4375-0.29472-0.14185-0.51127-0.22445-0.65625-0.24805-0.0248-9e-3 -0.0566-0.0236-0.0723-0.0254-0.0133-2e-3 -0.0201 2e-3 -0.0293 4e-3 -0.0118 1.2e-4 -0.0385-0.0111-0.0488-0.01zm-184.28 0.0117c-0.65039 0-3.0495 1.5161-3.2578 2.0586-0.30387 0.79186-1.3823 43.315-1.1055 43.592 4.82e-4 4.8e-4 0.0015-4.8e-4 2e-3 0 2.9e-4 2.9e-4 -2.9e-4 2e-3 0 2e-3 -3.1e-5 9.8e-4 -6.3e-5 2e-3 0 2e-3 0.51463 0.51463 0.98719-0.63963 1.4609-3.5664 1.3254-8.1873 4.7955-17.449 8.4824-22.635 0.34356-0.48321 0.56992-0.79532 0.74414-1.0137 0.11584-0.14525 0.21372-0.2568 0.27539-0.29492 0.04758-0.0309 0.08438-0.0393 0.10938-0.0137-0.01665-0.0197-0.04201-0.016-0.06836-0.01 0.02743-8e-3 0.05132-0.01 0.06836 0.01 0.06142 0.0702 0.06569 0.31089 0.06836 0.69922 0.01689 2.4568 0.71215 11.821 1.0586 14.254 0.65486 4.5998 2.1394 11.656 3.2168 15.283 0.82665 2.7827 1.2602 4.0106 1.6445 4.4961 0.02041 0.026 0.04232 0.0641 0.0625 0.0859 0.13422 0.14508 0.26264 0.20312 0.4043 0.20312 0.26509 0 0.31414-0.85057 0.1582-2.7285-0.15106-1.8194-0.26872-3.4252-0.37695-5.002-0.0192-0.27965-0.04845-0.61198-0.06641-0.88672-0.11901-1.8214-0.21122-3.5431-0.28125-5.2852-5.1e-5 -1e-3 5e-5 -3e-3 0-4e-3 -0.06997-1.7414-0.11785-3.5043-0.14844-5.4043-2.8e-5 -2e-3 2.9e-5 -4e-3 0-6e-3 -0.03055-1.9006-0.04421-3.9412-0.04492-6.2383-1e-6 -6.9e-4 0-1e-3 0-2e-3 -1e-6 -1e-3 0-2e-3 0-4e-3 -0.0017-5.6317 0.10033-11.228 0.22656-12.436v-4e-3l0.23047-2.1914 2.0586-0.89258c0.20034-0.0869 0.32378-0.1449 0.49024-0.2168 0.11586-0.0498 0.24114-0.10641 0.3418-0.15234 0.17007-0.0786 0.34841-0.16671 0.47656-0.2461 0.01743-0.0107 0.03799-0.0223 0.05469-0.0332 0.1672-0.10997 0.30251-0.23233 0.40039-0.37891 0.04495-0.0668 0.08148-0.14075 0.11328-0.2207 0.01491-0.0377 0.03083-0.0779 0.04297-0.11914 0.01498-0.0506 0.02228-0.11534 0.0332-0.17188 0.02556-0.13404 0.0404-0.28955 0.04492-0.46289 2e-3 -0.0738 0.0055-0.15033 0.0039-0.23242-2.2e-5 -1e-3 2.2e-5 -3e-3 0-4e-3 -0.01591-0.81631-0.19776-2.0418-0.47266-4.0508-0.68014-4.9707-0.7968-5.4277-1.3887-5.4277-0.45904 0-2.9748 1.4784-10.932 6.4238l-3.166 1.9688-0.30859-4.373c-0.07664-1.0892-0.17858-2.0413-0.2832-2.8008-0.04401-0.31947-0.08664-0.56728-0.13086-0.79687-0.0041-0.0212-0.0076-0.0441-0.01172-0.0645-0.0065-0.0327-0.01302-0.0731-0.01953-0.10351 0.0065 0.0316 0.01295 0.0697 0.01953 0.10351-0.0089-0.0455-0.01657-0.0895-0.02539-0.13086-0.0733-0.33672-0.14394-0.57812-0.20508-0.57812zm158.21 4.2285c-0.37733 7e-3 -29.742 9.1566-38.717 12.062-1.2498 0.40474-1.4032 0.84301-0.46484 1.6289-0.0299-0.0251-0.0797-0.0557-0.10742-0.0801v2e-3c0.0324 0.0287 0.0894 0.066 0.125 0.0957 0.13638 0.11305 0.29679 0.23489 0.47851 0.36328 0.0548 0.0388 0.0855 0.069 0.14453 0.10937 1.2227 0.83629 1.9039 0.95236 9.2402 1.5879 4.3556 0.37731 9.2609 0.66539 10.898 0.64063l2.9766-0.0449v-2e-3l2.3965-5.4297h2e-3c1.3177-2.988 2.4935-5.5216 2.6133-5.6309 0.015-0.0137 0.028-0.0179 0.0391-0.01 0.0761 0.0638 0.0581 0.63305-0.0508 1.3906-0.53391 3.7149-0.66333 6.308-0.31836 6.3301-3.8e-4 1e-5 -2e-3 2e-3 -2e-3 2e-3 -0.0419 0-0.0771-0.0412-0.10547-0.11328 0.029 0.0785 0.0636 0.11914 0.10742 0.11914 7.5e-4 0 3e-3 -4e-3 4e-3 -4e-3 0.0488 0 0.15296-0.0664 0.29688-0.18359 1e-3 -8.8e-4 3e-3 -3e-3 4e-3 -4e-3 0.14635-0.11976 0.33581-0.29272 0.55273-0.50586l4e-3 -4e-3c0.43708-0.42983 0.99225-1.0219 1.5566-1.6738 5.9e-4 -6.9e-4 1e-3 -3e-3 2e-3 -4e-3 1.0003-1.1557 3.0178-3.3967 4.707-5.25 0.21995-0.24133 0.40635-0.45803 0.61328-0.68359 7.1e-4 -7.7e-4 1e-3 -1e-3 2e-3 -2e-3 0.0123-0.0134 0.019-0.0218 0.0312-0.0351 0.65497-0.71506 1.1955-1.3364 1.6543-1.8887 0.35841-0.4314 0.65798-0.815 0.89649-1.1465 0.0759-0.10552 0.1493-0.20746 0.21289-0.30273 0.0513-0.0768 0.10502-0.15446 0.14844-0.22461 0.0725-0.11743 0.1277-0.21974 0.17773-0.31836 0.0267-0.0522 0.0596-0.1112 0.0801-0.1582 0.0379-0.0881 0.0546-0.15913 0.0703-0.22852 0.0606-0.26137-0.0154-0.40738-0.26758-0.4043zm-117.3 0.0469c-0.33922 0.0238-0.41465 0.2603-0.26172 0.66601 0.01559 0.0414 0.03602 0.0857 0.05664 0.13086 0.05055 0.11064 0.11672 0.23268 0.19727 0.36524 0.02621 0.044 0.05174 0.088 0.08203 0.13476 0.09279 0.14329 0.20418 0.29947 0.32812 0.46485 0.01099 0.0147 0.02258 0.0288 0.0332 0.043 0.02043 0.0273 0.03979 0.0546 0.0625 0.084 0.07301 0.0946 0.1656 0.20357 0.24805 0.30469 0.3051 0.37407 0.65541 0.78106 1.0879 1.2402 0.0076 8e-3 0.01185 0.0134 0.01953 0.0215 1.2099 1.2819 3.7038 4.0271 5.543 6.0996 1.3819 1.5574 2.6531 2.9002 3.2734 3.4726 0.03756 0.0346 0.03771 0.0259 0.07031 0.0547 0.14538 0.12849 0.2776 0.24018 0.3125 0.24023 5.1e-4 3e-5 3e-3 4e-3 4e-3 4e-3 0.28214 2.6e-4 0.0926-3.6182-0.33985-6.4766-0.01378-0.0911 0.0068-0.10654 0.04492-0.0898-0.0042-2e-3 -0.01593-0.0211-0.01953-0.0215 0.02549 3e-3 0.06203 0.0337 0.11719 0.0996-0.04496-0.0533-0.07275-0.0672-0.09766-0.0781 0.03026 0.0123 0.08358 0.0709 0.14453 0.14844 0.11356 0.14416 0.26337 0.36444 0.46679 0.70508 0.45872 0.76874 1.1192 1.9935 1.8848 3.5098l2.709 5.3652h-2e-3l4e-3 6e-3h1.9688c1.0823 0 5.6069-0.31397 10.057-0.69727v2e-3c9.0615-0.78061 10.379-0.9601 10.379-1.4082 0-0.17176 0.31595-0.41227 0.70313-0.53515 0.38717-0.12288 0.70508-0.50533 0.70508-0.85157 0-2e-3 -2e-3 -4e-3 -2e-3 -6e-3 -7.8e-4 -0.0476-0.017-0.0951-0.0371-0.14258-0.18046-0.44476-1.2578-0.90458-4.4512-1.9356-8.8402-2.8542-33.642-10.59-34.846-10.869-0.17922-0.0416-0.32723-0.0591-0.44531-0.0508zm-0.25586 0.0996c-0.0361 0.0342-0.0588 0.079-0.07227 0.13086 0.01339-0.052 0.03623-0.0966 0.07227-0.13086zm-0.08398 0.21094c-0.0012 0.0256 0.0069 0.0591 0.0098 0.0879-3e-3 -0.029-0.01086-0.0621-0.0098-0.0879zm-23.648 5.4961c-5e-3 0.15527-0.01879 0.29693-0.04102 0.41992 0.02231-0.12345 0.03614-0.26388 0.04102-0.41992zm-0.08398 0.63672c-8e-3 0.0257-0.01627 0.0519-0.02539 0.0762 0.0092-0.0246 0.01734-0.0502 0.02539-0.0762zm166.16 0.33593c0.0782 0.0626 0.17778 0.13012 0.29102 0.20118-0.11354-0.0713-0.21271-0.13839-0.29102-0.20118zm-166.39 0.082c-0.07941 0.0936-0.17561 0.17845-0.28906 0.25586 0.11409-0.0777 0.20939-0.16173 0.28906-0.25586zm166.83 0.21289c0.15649 0.0908 0.33613 0.18434 0.53125 0.27929-0.19599-0.0954-0.37434-0.18807-0.53125-0.27929zm-167.31 0.16019c-0.06935 0.0387-0.15658 0.0825-0.23633 0.1211 0.08343-0.0403 0.16424-0.0807 0.23633-0.1211zm167.95 0.16992c0.23397 0.11062 0.48928 0.22174 0.75586 0.32618-0.26865-0.10513-0.52036-0.21477-0.75586-0.32618zm10.592 8.4121c0.41797 0.62114 0.8224 1.2656 1.2129 1.9316-0.39067-0.66669-0.79468-1.3101-1.2129-1.9316zm-7.8203 32.963c-0.0282 0.0221-0.0558 0.045-0.082 0.0586 0.0259-0.0128 0.0541-0.0375 0.082-0.0586zm-0.28321 0.0742c0.0419 0.0242 0.0899 0.0259 0.14258 0.0117-0.0533 0.016-0.10011 0.0111-0.14258-0.0117zm-122.32 0.36328c-0.19377 0.0126-0.29102 0.0851-0.29102 0.23047 0 0.0433 0.11214 0.13651 0.27344 0.25 0.71585 0.68164 7.194 3.8153 10.375 5.0352 0.28378 0.11002 0.59221 0.23438 0.81445 0.30859 0.31939 0.10666 0.79088 0.24269 1.2363 0.37305 6.0145 1.8197 21.001 5.3703 22.967 5.3965 0.11571 2e-3 0.25916-8e-3 0.39062-0.0137 0.0379 4e-3 0.11536 0.0173 0.14063 0.0176 1.6756 0.0223 4.3465-0.65108 12.742-2.7949 10.08-2.5738 11.545-3.045 16.439-5.2891 2.9555-1.3548 5.5254-2.6152 5.7109-2.8008 0.0219-0.026 0.0324-0.0433 0.0449-0.0625 7.2e-4 -1e-3 1e-3 -3e-3 2e-3 -4e-3 1e-3 -2e-3 4e-3 -4e-3 6e-3 -6e-3 7e-3 -8e-3 9e-3 -0.0141 0.0156-0.0215 0.10956-0.12619 0.17847-0.23502 0.16602-0.3086 2e-3 6e-3 0.01 9e-3 0.01 0.0156 5e-3 -0.0319-0.0106-0.0519-0.0312-0.0684-5e-3 -7e-3 -0.0183-0.0112-0.0254-0.0176-3e-3 -2e-3 -4e-3 -4e-3 -8e-3 -6e-3 1e-3 9.9e-4 7.1e-4 3e-3 2e-3 4e-3 -0.28633-0.24112-1.901 0.071-5.1738 0.97851-4.9932 1.3846-7.4496 1.7246-16.449 2.2734-2.9038 0.1771-7.0793 0.52353-9.2793 0.76953-3.4222 0.38264-5.0754 0.36226-11.439-0.14258-8.903-0.70622-12.076-0.94061-14.654-1.082-2.5354-0.13909-5.3849-0.73707-9.541-2-2.2788-0.69247-3.481-1.001-4.0625-0.99414-0.0872 1e-3 -0.16183 8e-3 -0.22265 0.0234-0.0608 0.0151-0.10899 0.0377-0.14649 0.0664 0.0371-0.0286 0.0863-0.0512 0.14649-0.0664 0.0614-0.0155 0.13407-0.0243 0.22265-0.0254 0.0284-3.4e-4 0.078 9e-3 0.10938 0.01-0.19608-0.0359-0.36918-0.0567-0.49023-0.0488zm99.143 7.3984c-0.3126 0-7.0453 13.396-11.059 22-0.63205 1.3551-1.6839 2.95-2.3379 3.5469-0.65398 0.59691-4.1198 3.1977-7.7012 5.7773-3.5814 2.5795-8.8872 6.4159-11.791 8.5254-2.9038 2.1094-8.9437 6.479-13.422 9.7109-4.4782 3.2319-9.5077 6.8611-11.176 8.0664-2.4729 1.7865-3.3822 2.6765-2.9102 2.8711 0.0678 0.0291 0.16329 0.0449 0.28906 0.0449 0.2247 0 3.5896-1.9475 7.4785-4.3281 3.8889-2.3807 15.524-9.3889 25.855-15.574 10.332-6.1855 18.995-11.564 19.248-11.951 0.25348-0.38719 1.7484-5.5338 3.3223-11.438 1.5739-5.9044 3.2468-12.01 3.7188-13.568 0.0886-0.29272 0.11783-0.41703 0.19141-0.66602 0.15099-0.50998 0.29466-1.0045 0.38671-1.3555 0.10324-0.39656 0.18583-0.7465 0.2168-0.97461 0.0198-0.14205 0.0312-0.26645 0.0254-0.35742-0.0166-0.25754-0.1337-0.33008-0.33594-0.33008zm-127.31 8e-3c-0.57302-9e-3 -0.55573 0.6328 0.06445 2.3906 0.27744 0.78634 1.8685 6.6261 3.5352 12.979 1.6666 6.3522 3.1834 12.025 3.3711 12.605 0.03755 0.11632 0.11363 0.24408 0.25 0.4004 0.03387 0.0391 0.11026 0.0997 0.15234 0.14257 0.29166 0.29579 0.74575 0.66757 1.5781 1.2402 0.0033 2e-3 0.0045 4e-3 0.0078 6e-3 0.4772 0.32816 1.0648 0.71536 1.7871 1.1777 0.0024 2e-3 0.0035 2e-3 0.0059 4e-3 1.4508 0.92864 3.442 2.1572 6.1797 3.8184 1.6297 0.98887 4.1366 2.4894 6.3359 3.8105 1.4988 0.90035 2.5241 1.524 4.3203 2.5996 3e-3 2e-3 5e-3 2e-3 8e-3 4e-3 5.5738 3.3379 11.26 6.7563 15.93 9.5742l8e-3 4e-3c4.6672 2.8162 8.3204 5.0353 9.832 5.9727 1.2673 0.78587 2.3226 1.4225 3.1914 1.9258l8e-3 4e-3c0.86578 0.50127 1.5471 0.87191 2.0703 1.1172 1e-3 6.3e-4 5e-3 1e-3 6e-3 2e-3 0.25832 0.12089 0.4797 0.21254 0.66406 0.27539 0.56451 0.19397 0.80273 0.12598 0.80273-0.16211 0-6.1e-4 -4e-3 -3e-3 -4e-3 -4e-3 -7.6e-4 0.0961-0.0282 0.16603-0.0859 0.21094 0.0546-0.0458 0.082-0.11598 0.082-0.21094 0-0.29827-3.3054-2.8179-9.6797-7.3789-9.9629-7.129-18.4-13.217-21.846-15.762-2.117-1.5638-5.7492-4.2126-8.0723-5.8867-8.2998-5.9815-7.3813-4.974-10.809-11.859-1.6863-3.3877-4.4585-9.0487-6.1602-12.578s-3.2911-6.4182-3.5332-6.4219zm127.61 0.70117c-0.0322 0.21899-0.10856 0.54347-0.20312 0.9082 0.0966-0.3727 0.17119-0.68671 0.20312-0.9082zm-58.588 2.5859c-0.31553 0.071-0.71978 0.16939-1.0039 0.23047 0.28463-0.0612 0.68773-0.15933 1.0039-0.23047zm-2.6738 0.55274c-0.28823 0.0522-0.63587 0.12231-0.88282 0.16016 0.24837-0.038 0.59253-0.10752 0.88282-0.16016z" fill="#5c6dd6" fill-opacity=".96"/>
  <path d="m518.72 1034.8c-15.767-9.5636-31.367-19.065-34.667-21.114-3.3-2.0487-19.5-11.708-36-21.465s-35.4-21.043-42-25.079c-6.6-4.0367-19.8-11.968-29.333-17.626s-28.733-17.183-42.667-25.613c-29.169-17.647-25.089-11.885-34.687-48.991-3.3194-12.833-6.5618-24.578-7.2053-26.099-0.74951-1.7714-14.519-10.092-38.306-23.148-20.424-11.21-37.87-20.976-38.767-21.702-1.1186-0.90447-1.7476-7.4234-2-20.728l-0.36821-19.408-14-5.7817c-7.7-3.1799-14.961-5.7857-16.136-5.7906-1.718-7e-3 -2.3032 2.1423-2.992 10.991-0.47097 6.05-0.8599 13.815-0.86429 17.255-4e-3 3.4401-0.57061 6.6024-1.2582 7.0274-0.68765 0.42499-9.5376-2.776-19.667-7.1133l-18.416-7.886 0.24662-47.808c0.23903-46.336 2.1982-131.93 3.9111-170.88l0.83894-19.076 12.835-9.6737c14.242-10.734 24.916-18.174 26.075-18.174 0.41787 0 0.75977 9 0.75977 20 0 15.397 0.39415 20 1.7126 20 2.0652 0 33.27-20.949 34.455-23.13 0.45883-0.84489 1.2613-11.436 1.7833-23.536 0.52197-12.1 1.57-22.75 2.329-23.667 2.2285-2.6915 4.9956-1.94 8.5914 2.3333 3.9958 4.7488 8.0016 5.1548 9.8639 1 0.73955-1.65 3.3423-10.8 5.7838-20.333 2.4416-9.5333 9.6693-36.833 16.062-60.667 6.3924-23.833 15.227-56.833 19.633-73.333 4.4056-16.5 8.7099-30.71 9.565-31.578 0.85515-0.86798 12.655-6.0638 26.221-11.546 13.567-5.4825 30.067-12.186 36.667-14.896s19.8-8.0915 29.333-11.958c19.639-7.9655 52.01-21.162 76.667-31.253 78.392-32.084 86.183-34.684 86.788-34.835 0.57941 0.19314 35.456 13.471 92.545 36.963 18.803 7.7376 98.209 40.037 135.28 55.029l28.617 11.572 2.4078 7.9184c1.3243 4.3551 12.654 46.618 25.178 93.918s23.386 86.75 24.138 87.667c2.1906 2.6686 4.1471 1.9072 7.7083-3 1.8333-2.5263 4.3099-4.6098 5.5034-4.63 4.6593-0.0788 5.6468 3.7544 6.6302 25.736 0.5305 11.858 1.3433 22.461 1.8062 23.561 0.95055 2.2588 29.114 23.099 32.115 23.764 1.6396 0.36343 1.945-2.8289 1.945-20.333 0-11.42 0.34189-20.764 0.75976-20.764 1.1588 0 11.832 7.4389 26.065 18.166l12.825 9.666 0.84499 18.417c1.3255 28.89 3.8101 142.6 4.0001 183.07l0.1721 36.654-16.667 6.8763c-25.046 10.333-22.187 11.212-23.258-7.1468-1.06-18.17-1.5233-20.372-4.2858-20.372-1.1171 0-7.6132 2.4578-14.436 5.4617-14.588 6.4228-14.02 5.2153-14.02 29.827v16.289l-31 17.084c-17.05 9.3963-34.456 18.941-38.681 21.211-6.3118 3.3914-7.8999 4.9585-8.9111 8.7935-0.67677 2.5667-4.088 15.767-7.5805 29.333-5.5663 21.622-6.8526 25.145-10.422 28.543-4.8335 4.6015-239.28 142.98-239.28 142.98s-13.619-6.5482-30.794-16.966zm71.214-45.618c14.732-9.0184 58.81-35.568 97.95-59s71.95-43.803 72.91-45.27c0.96024-1.4667 6.624-20.967 12.586-43.333 5.9621-22.367 12.302-45.498 14.09-51.402 3.6245-11.974 3.883-13.931 1.8402-13.931-1.1842 0-26.692 50.738-41.895 83.333-2.3943 5.1333-6.3802 11.183-8.8576 13.445-2.4774 2.2612-15.604 12.106-29.171 21.878-13.567 9.7715-33.667 24.304-44.667 32.295-11 7.9908-33.88 24.546-50.844 36.789s-36.014 25.995-42.333 30.561c-10.706 7.7341-13.678 11.033-9.9422 11.033 0.8512 0 13.601-7.3786 28.333-16.397zm-55.214 13.95c0-1.1298-12.519-10.674-36.667-27.952-37.741-27.006-69.7-50.064-82.752-59.705-8.0197-5.9238-21.781-15.959-30.581-22.302-31.441-22.659-27.965-18.845-40.947-44.928-6.3878-12.833-16.888-34.272-23.333-47.642s-12.469-24.32-13.386-24.333c-2.1707-0.0325-2.1052 2.3968 0.24418 9.0556 1.051 2.9788 7.0762 25.104 13.389 49.168 6.3132 24.063 12.06 45.552 12.77 47.752 1.1285 3.4956 10.977 9.8004 78.106 50 42.248 25.3 86.192 51.815 97.653 58.922 19.203 11.908 25.505 14.864 25.505 11.965zm63.308-221.59c38.184-9.7498 43.724-11.532 62.269-20.033 11.196-5.132 20.931-9.9061 21.634-10.609 3.223-3.8305-1.5312-1.5817-18.294 3.4126l-30.114 8.715-4.7447-2.7081-8.1316 3.6835-2.5718-1.4679-7.0619 2.7236-2.8345-1.6178-58.67 5.0817-56.785-5.0817-3.2656 1.6178-6.3578-3.1746-4.0596 2.5574-8.4611-4.322-4.7973 3.2162-35.683-10.924c-11.564-3.5403-17.466-5.7437-17.466-3.5411 0 1.6268 32.501 17.545 43.42 21.191 18.803 6.2791 85.739 21.765 93.707 21.871 6.3472 0.0844 16.463-2.4696 48.268-10.591zm-377.15-44.965c-2.693-32.434-3.4641-51.624-3.4746-86.471-7e-3 -21.342 0.37971-42.549 0.85809-47.126l0.8698-8.3218 7.7969-3.3814c9.012-3.9084 8.7005-2.631 5.8039-23.801-2.5765-18.83-3.0205-20.565-5.2627-20.565-1.7389 0-11.269 5.6-41.411 24.334l-12 7.4582-1.1654-16.563c-0.65116-9.2545-1.7477-16.563-2.4851-16.563-2.4638 0-11.555 5.7444-12.344 7.7995-1.1511 2.9997-5.2329 164.08-4.1844 165.13 1.9495 1.9495 3.739-2.4178 5.5338-13.505 5.0206-31.015 18.172-66.103 32.139-85.747 4.4934-6.32 4.5064-6.3268 4.5338-2.3425 0.064 9.3066 2.6993 44.777 4.0117 53.996 2.4807 17.425 8.1084 44.15 12.19 57.89 4.3981 14.805 5.8563 18.11 7.9896 18.11 1.0042 0 1.1913-3.2189 0.6006-10.333zm659.65 6.6667c2.3734-4.6599 7.943-24.13 11.347-39.667 5.0155-22.891 7.1502-38.798 8.6648-64.567l1.5223-25.9 5.7648 8.5671c12.667 18.824 21.937 42.939 28.833 75.005 2.6046 12.111 4.7356 22.367 4.7356 22.791 0 0.42406 0.6 0.771 1.3333 0.771 0.82922 0 1.3284-7.4358 1.3204-19.667-0.0151-22.924-2.1743-105.05-3.4336-130.59l-0.86722-17.593-5.1479-3.4067c-8.9586-5.9285-9.205-5.5734-9.205 13.26 0 9.1667-0.26764 16.667-0.59476 16.667-0.53235 0-8.0085-4.5882-43.783-26.87-9.1174-5.6787-12.956-7.4708-12.956-6.049 0 0.228-1.2 9.0415-2.6667 19.585s-2.6667 19.908-2.6667 20.81c0 0.90145 3.5844 3.0289 7.9653 4.7276 7.7624 3.0099 7.9911 3.2419 8.981 9.1088 0.55868 3.3112 0.95768 27.32 0.88665 53.354-0.11387 41.762-1.2047 65.373-4.019 87-0.94204 7.2391 0.99578 8.5358 3.9851 2.6667zm-449.11-121.64c34.327-2.9571 39.312-3.6331 39.312-5.3306 0-0.65068 1.2-1.5639 2.6667-2.0294s2.6667-1.9195 2.6667-3.2311c0-1.8791-3.6045-3.5484-17-7.8731-33.488-10.812-127.44-40.119-132-41.177-5.4313-1.26-3.4059 3.638 5.3333 12.897 4.5833 4.8562 14.033 15.253 21 23.105 6.9667 7.8516 13.199 14.276 13.851 14.277 1.0688 1e-3 0.34797-13.707-1.2901-24.535-0.34961-2.3109 3.8963 4.8255 9.6406 16.204l10.265 20.333h7.4546c4.1 0 21.245-1.188 38.1-2.64zm288.95-18.607c4.9917-11.319 9.4472-20.919 9.901-21.333 0.45385-0.41407 0.43716 1.9471-0.0371 5.2471-2.0312 14.133-2.5221 24-1.1942 24 0.75015 0 4.8691-4.05 9.1533-9s13.357-15.07 20.163-22.489c10.844-11.822 14.709-17.88 11.373-17.829-1.4096 0.0217-112.67 34.686-146.67 45.695-5.636 1.8251-5.4704 3.8156 0.66667 8.0129 4.6319 3.168 7.2083 3.611 35 6.0185 16.5 1.4293 35.077 2.5221 41.282 2.4283l11.282-0.17048 9.0758-20.58zm-442.25-112.19c1.1683-2.2593 4.0979-8.7093 6.5102-14.333s11.152-25.526 19.422-44.226 18.54-42.035 22.822-51.856c4.2823-9.8207 8.7933-18.969 10.025-20.33 2.092-2.3117 9.2108-6.9803 50.849-33.348 8.9926-5.6946 15.787-9.3292 15.099-8.0768-0.68795 1.2524-6.9955 10.652-14.017 20.887-11.646 16.978-14.818 23.39-11.569 23.39 0.65807 0 4.7081-1.7419 9-3.8709s18.303-8.6538 31.137-14.5c81.68-37.206 116.1-52.994 121.62-55.784 3.4589-1.7481 7.764-3.1784 9.5668-3.1784s13.373 4.5762 25.711 10.169c12.338 5.5932 32.633 14.793 45.1 20.443 12.467 5.6507 40.71 18.474 62.762 28.497 22.053 10.023 40.867 18.223 41.809 18.223 2.5088 0 1.2148-2.4817-8.8519-16.976-4.9792-7.1693-11.369-16.572-14.199-20.895l-5.1456-7.8598 5.1456 3.0993c4.7289 2.8483 32.95 20.66 53.812 33.963l8.6667 5.5265 29.215 65.904c16.068 36.247 29.718 66.474 30.333 67.171 3.458 3.9165 0.26176-9.0382-17.583-71.267-2.839-9.9-8.1498-28.8-11.802-42-14.599-52.765-16.684-59.674-18.716-62.031-1.1624-1.3477-13.214-7.064-26.78-12.703-13.567-5.6389-30.067-12.511-36.667-15.272s-24.6-10.262-40-16.669-47.8-20.046-72-30.308-47.756-19.149-49.885-19.221c-2.3432 0.11882-8.879 2.8314-22.781 8.6557-83.156 34.839-178.71 74.752-189.55 79.177-14.873 6.0704-13.3 3.7118-21.143 31.705-2.9793 10.633-7.7702 27.433-10.646 37.333s-10.325 36-16.553 58c-6.2277 22-12.25 42.625-13.382 45.834-3.6198 10.258-1.6869 15.138 2.6637 6.7245zm697.47 172.44c-1.6065-26.256-1.1607-36.912 1.6814-40.189 1.5367-1.7718 2.8661-5.9413 3.3597-10.537 1.9759-18.396 4.7419-66.44 4.7525-82.547 0.012-17.416-0.0345-17.685-4.2202-24.667-2.3275-3.8823-10.031-17.559-17.119-30.392-7.0879-12.833-16.956-30.533-21.929-39.333-15.175-26.851-29.081-51.668-32.657-58.277-6.6321-12.258-29.267-52.769-43.891-78.555-11.811-20.826-14.841-27.22-14.85-31.333-7e-3 -2.8426-0.38995-8.3184-0.85239-12.168-1.0156-8.4548-2.8308-8.9053-9.4027-2.3333-2.5667 2.5667-5.4169 4.6667-6.3338 4.6667-1.5756 0-33.805-12.917-81.4-32.624-11.733-4.8582-32.433-13.372-46-18.919-20.049-8.1976-74.028-30.423-147.59-60.77l-9.5945-3.9579-16.406 6.9982c-9.023 3.849-24.206 10.162-33.739 14.028-9.5333 3.8665-24.533 10.002-33.333 13.635-29.601 12.22-69.681 28.682-116 47.644-9.5333 3.9028-31.983 13.141-49.887 20.53-17.905 7.3889-33.537 13.434-34.738 13.434s-4.22-2.1-6.7076-4.6667c-2.4877-2.5667-5.6054-4.6667-6.9282-4.6667-2.1265 0-2.4051 1.2938-2.4051 11.17 0 13.091-0.6868 14.998-13.106 36.377-5.0437 8.6823-18.034 31.686-28.868 51.119s-23.218 41.446-27.521 48.917c-4.3029 7.4713-10.728 18.871-14.278 25.333-3.5499 6.462-15.662 28.249-26.916 48.416s-21.634 38.954-23.067 41.751c-2.5613 4.9985-2.5682 5.7828-0.40676 46.667 3.1382 59.361 3.4176 62.208 6.3507 64.719 2.2578 1.9332 2.4794 4.4201 2.4794 27.827 0 29.434 0.41052 28.659-11.884 22.429-7.8741-3.9901-7.3887-1.5855-10.105-50.059-1.0889-19.433-2.9469-51.233-4.1291-70.667-1.1821-19.433-1.8861-38.633-1.5645-42.667 0.48074-6.0285 4.3232-15.281 21.595-52 11.555-24.567 30.903-65.967 42.994-92s23.686-50.933 25.766-55.333c2.0799-4.4 8.1008-17.6 13.38-29.333 5.2789-11.733 11.98-26.133 14.892-32 2.9115-5.8667 7.3953-15.716 9.964-21.887 8.9008-21.384 2.1728-16.708 82.68-57.468 39.46-19.978 85.545-43.369 102.41-51.978 54.135-27.634 123.81-63.043 130.33-66.235 3.4797-1.7038 7.6797-3.0816 9.3333-3.0619 2.9703 0.03547 31.304 13.906 91.007 44.552 16.867 8.6579 53.467 27.289 81.333 41.404 27.867 14.114 71.067 35.997 96 48.63 24.933 12.632 46.055 23.66 46.937 24.507 0.88221 0.84624 5.5872 10.539 10.456 21.539 4.8684 11 14.431 32 21.25 46.667 6.8191 14.667 22.417 48.267 34.662 74.667s23.936 51.6 25.979 56c11.783 25.375 32.737 69.735 38.005 80.457 9.7828 19.912 9.6516 18.552 6.286 65.18-1.6288 22.567-3.5376 53.63-4.2418 69.03-1.5313 33.49-2.5305 46.313-3.7558 48.198-1.1478 1.7662-5.5864 4.1191-12.117 6.4232l-5.0714 1.7893zm15.662-27.331c0.45662-3.85 2.021-20.2 3.4763-36.333 1.4554-16.133 3.6137-39.301 4.7963-51.483s1.8914-27.482 1.5751-34l-0.575-11.85-18.079-37.333c-9.9434-20.533-26.792-55.633-37.442-78s-27.702-58.067-37.894-79.333c-10.192-21.267-24.479-51.117-31.749-66.333-11.071-23.173-13.678-27.667-16.051-27.667-1.5583 0-3.9192 1.2-5.2465 2.6667-3.5587 3.9323-5.0322 3.241-2.7009-1.2671 4.7115-9.111 6.2084-7.9704-44.299-33.756-25.483-13.01-70.333-35.997-99.667-51.081-29.333-15.085-71.633-36.765-94-48.178s-45.621-23.369-51.677-26.568c-6.0556-3.1992-11.525-5.8167-12.154-5.8167-1.1056 0-32.317 15.967-211.5 108.2-46.2 23.781-85.65 43.951-87.667 44.823-2.8658 1.2393-3.6667 2.4846-3.6667 5.7018 0 2.2639 0.64861 5.3282 1.4414 6.8095 2.1112 3.9447 0.34968 4.693-3.1992 1.359-5.9416-5.5818-6.9871-4.4471-19.139 20.773-6.2722 13.017-15.896 32.967-21.386 44.333-5.4902 11.367-12.098 25.167-14.683 30.667-2.5857 5.5-13.696 28.9-24.689 52s-27.755 58.435-37.249 78.522-20.316 42.587-24.05 50l-6.7893 13.478 2.167 25.333c6.1182 71.526 9.3517 102.89 10.753 104.29 2.2656 2.2656 2.4706-3.0702 1.0226-26.62-0.86797-14.117-1.933-41.567-2.3666-61.001l-0.7885-35.333 8.3055-17.333c4.568-9.5333 11.455-24.233 15.305-32.667s23.638-50.733 43.974-94 41.156-87.667 46.267-98.667c18.463-39.739 20.23-43.333 21.312-43.333 0.60399 0 4.5545 2.3992 8.7789 5.3316s8.4307 5.3324 9.3474 5.3333c2.21 3e-3 2.0845-4.5258-0.34776-12.543-3.353-11.053-3.0729-11.681 7.0188-15.737 116.61-46.874 279.47-111.72 281.83-111.72 97.198 35.612 154.54 60.769 229.17 90.712 33.367 13.386 61.164 24.78 61.771 25.318 0.60759 0.5386-0.14241 5.1668-1.6667 10.285-1.5242 5.1182-2.7714 10.291-2.7714 11.495 0 3.5391 3.7303 2.5491 11.846-3.1437 4.1817-2.9333 8.0662-5.3333 8.632-5.3333 0.56587 0 3.1605 4.65 5.7658 10.333 8.4709 18.478 48.155 103.76 72.745 156.33 13.206 28.233 31.221 66.933 40.033 86l16.022 34.667-1.5499 50c-1.8362 59.235-1.9138 78.667-0.31412 78.667 0.64882 0 1.5533-3.15 2.0099-7z" fill="#fff" fill-opacity=".98" stroke-width="1.3333"/>
 </g>
</svg>
