<?xml version="1.0" encoding="UTF-8"?>
<svg width="512" height="512" version="1.1" viewBox="0 0 135.47 135.47" xmlns="http://www.w3.org/2000/svg" xmlns:cc="http://creativecommons.org/ns#" xmlns:dc="http://purl.org/dc/elements/1.1/" xmlns:rdf="http://www.w3.org/1999/02/22-rdf-syntax-ns#">
 <metadata>
  <rdf:RDF>
   <cc:Work rdf:about="">
    <dc:format>image/svg+xml</dc:format>
    <dc:type rdf:resource="http://purl.org/dc/dcmitype/StillImage"/>
    <dc:title/>
   </cc:Work>
  </rdf:RDF>
 </metadata>
 <path d="m48.468 112.59c0.56495-9.0775 3.151-14.117 10.33-18.435 5.8312-3.5074 8.9249-6.6463 10.381-11.408 0.4114-1.3452 0.28477-2.8955 0.29163-8.6538 0.0069-5.7636 0.27881-6.6793 0.70287-8.2217 0.44956-1.6352 0.45749-1.8445 0.08399-2.218-0.3735-0.3735-0.49277-0.25306-1.2639 1.2764-3.2218 6.3898-5.7746 7.9775-18.242 11.345-2.8377 0.76655-5.5814 1.6061-6.0973 1.8656-0.51587 0.25954-1.4311 1.007-2.034 1.6609-1.7931 1.9453-2.3858 4.4071-3.3754 9.0089-0.91063 4.2345-2.0488 5.6529-4.3959 5.5499-1.146-0.05026-3.6766-1.1973-3.6766-1.5884 0-0.278 1.0934-2.0029 2.434-3.8399 2.6609-3.6461 2.6886-6.5709 0.06204-6.5709-0.92861 0-2.1864 1.3307-3.4505 3.6506-1.9649 3.6059-2.5973 4.8789-3.4008 4.8789-1.6229 0-5.3224-3.1581-6.6482-5.7745-1.3325-2.6296-1.6274-6.3693-0.31767-8.954 0.37962-0.74914 3.444-4.832 6.4096-9.2446 2.9656-4.4125 5.7489-8.73 6.1852-9.5943 1.115-2.2089 1.9298-4.8003 2.1668-7.9821 0.31579-4.2387 0.72139-4.6374 3.302-8.9317 3.4755-5.7834 3.8654-7.0393 4.2611-13.725l0.08762-3.4879 1.6701 1.702c1.6958 1.7281 2.7253 3.6928 2.9915 5.3768 0.20593 1.3027 0.26108 1.8294-0.6067 2.3657-1.4359 0.88744-2.6345 2.578-1.9486 3.0019 0.12808 0.07916 1.85-0.62819 3.8266-1.5719 1.9766-0.94369 3.9663-1.9473 4.0376-1.9473 0.07133 0-0.25384 0.81687-0.33856 1.5323-0.23424 1.9778 0.02183 2.668 0.9898 2.668 1.0561 0 1.9299-0.90088 2.9145-3.005 0.79124-1.6908 1.0372-2.6907 2.1062-8.5611 0.52311-2.8728 0.34089-3.668 0.74181-3.4534 0.79385 0.42486 2.7002 3.0614 4.8699 6.6404 2.8388 4.6829 3.6638 5.6709 4.9042 5.8727 10.84 1.7644 17.378 4.0669 23.815 8.3869 13.52 9.0737 19.309 24.883 20.423 55.767 0.14428 4.0018 0.26383 9.568 0.26567 12.369l3e-3 5.0932h-64.638zm-22.365-29.329c0.33261-0.23297 0.71882-0.72363 0.85825-1.0904 0.21578-0.56755 0.11622-0.83434-0.66903-1.7926l-0.92255-1.1258 0.54713-0.49515c0.64447-0.58324 1.3889-1.9376 1.1798-2.1467-0.28484-0.28484-2.5416 0.7764-3.0644 1.441-2.1312 2.7094-0.43872 6.9673 2.0708 5.2096zm15.938-28.576c0.17811-0.21461 0.97806-0.02373 1.831 0.07729 1.036 0.1227 1.4638 0.03953 2.2289-0.4333 0.91386-0.5648 0.73181-1.1193 0.73181-2.6345 0-1.4861 0.01278-1.0689 0.82682-1.57 0.47294-0.29115 1.5493-0.71352 2.0888-0.87797 0.86238-0.26287 0.94743-0.36153 0.70388-0.8166-0.24552-0.45877-0.50901-0.50703-2.3177-0.42452-1.6903 0.0771-2.3481 0.24914-3.831 1.0018-5.0248 2.5506-6.257 5.5879-3.2846 8.0963l0.8694 0.73367-0.11537-1.2907c-0.06333-0.70855 0.12087-1.684 0.26812-1.8614z" fill="#fff" stroke-linecap="square" stroke-width="8.9043" style="paint-order:stroke markers fill"/>
 <g stroke-width=".26458" aria-label="♘">
  <path d="m118.97 118.87h-74.578q0-11.274 2.8336-17.303 2.8336-6.0289 10.008-10.189 9.1036-5.2451 9.1036-13.264 0-1.8087-1.2058-3.6776-3.1953 2.5924-17.062 5.9083-4.8231 1.3866-5.9083 9.2845-0.60289 3.7379-2.4719 5.848-1.8087 2.0498-4.3408 2.0498-6.5112 0-13.083-5.2451-6.5112-5.3054-6.5112-11.817 0-5.0643 6.9935-14.409 5.0643-6.8127 6.4509-9.5257 1.3866-2.713 1.869-6.6921 0.48231-4.3408 1.0249-6.0892 0.60289-1.8087 2.6527-4.8834 2.713-3.9791 3.3762-6.8127 0.72347-2.8336 0.72347-7.717v-7.5361q5.6672 2.4719 10.973 11.576l3.1953-0.12058q2.291-4.0394 3.4365-12.721 4.2202 1.9292 7.717 7.3553 3.4968 5.3657 4.8834 7.4758 25.924 3.3159 37.922 19.172 11.998 15.796 11.998 53.778zm-6.2098-3.4365v-9.6462q0-38.344-10.551-53.657-10.551-15.374-34.606-18.328-1.3866-1.0249-3.7982-5.3054-3.1953-5.6069-5.2451-6.9332-1.3866 7.1744-1.5675 8.6213-0.18087 1.3866-1.4469 3.8585-1.2058 2.4719-2.6527 2.4719-1.2058 0-1.2058-1.8087 0-1.0249 0.48231-2.4719l-7.8979 3.7982-0.24116-1.3264q1.3264-1.9895 2.8336-2.5924 0-4.1599-4.582-8.4405 0 6.7524-0.78376 9.6462-0.72347 2.8336-3.7982 7.5361-1.869 2.9542-2.3513 4.4011-0.48231 1.4469-0.84405 5.4863-0.24116 2.9542-1.5675 5.7878-1.2661 2.7733-7.3553 11.515-3.9188 5.6069-5.1849 7.8979-1.2058 2.2307-1.2058 4.2805 0 4.2202 2.9542 7.295t4.7025 3.0747q0.90434 0 2.4116-2.9542 2.713-5.426 4.4011-5.426 2.0498 0 2.0498 2.2307 0 1.7484-1.6881 4.0394-1.6881 1.9895-2.8336 4.3408 1.6881 1.2661 3.9188 1.2661 2.713 0 3.6173-4.9437 1.5675-10.008 7.5361-11.756 4.4614-1.0852 9.1639-2.4719 4.7628-1.3866 7.1141-2.713 2.4116-1.3866 3.6776-2.8939 1.3264-1.5072 3.6173-6.0892 0.48231 0.36173 0.96462 0.84405-1.2058 3.6776-1.2058 6.5715l0.24116 7.5964q0 10.068-10.49 15.856-5.6672 3.0747-8.3199 8.0184-2.5924 4.9437-2.5924 13.324zm-61.977-66.439q-2.291 0.5426-3.7982 1.7484 0.24116 1.9292 0.24116 2.3513 0 0.84405-2.1101 1.9292l-2.5924-0.36173-0.48231 0.78376v2.5924q-2.8336-2.2307-2.8336-3.7379 0-2.1101 3.135-4.2202 3.1953-2.1704 5.2451-2.1704h2.713zm-23.452 27.552q-0.48231 1.6278-1.869 2.713l1.7484 2.1101q0 1.0249-0.72347 1.6881-0.72347 0.66318-1.6278 0.66318-1.869 0-1.869-2.8939 0-1.8087 1.2058-3.0145 1.2661-1.2661 3.135-1.2661z" stroke-width=".26458"/>
 </g>
</svg>
