<?xml version="1.0" encoding="UTF-8" standalone="no"?>
<svg
   xmlns:dc="http://purl.org/dc/elements/1.1/"
   xmlns:cc="http://creativecommons.org/ns#"
   xmlns:rdf="http://www.w3.org/1999/02/22-rdf-syntax-ns#"
   xmlns:svg="http://www.w3.org/2000/svg"
   xmlns="http://www.w3.org/2000/svg"
   xmlns:sodipodi="http://sodipodi.sourceforge.net/DTD/sodipodi-0.dtd"
   xmlns:inkscape="http://www.inkscape.org/namespaces/inkscape"
   width="512"
   height="512"
   version="1.1"
   viewBox="0 0 135.47 135.47"
   id="svg1855"
   sodipodi:docname="bb.svg"
   inkscape:version="1.0.2-2 (e86c870879, 2021-01-15)">
  <defs
     id="defs1859" />
  <sodipodi:namedview
     pagecolor="#ffffff"
     bordercolor="#666666"
     borderopacity="1"
     objecttolerance="10"
     gridtolerance="10"
     guidetolerance="10"
     inkscape:pageopacity="0"
     inkscape:pageshadow="2"
     inkscape:window-width="1920"
     inkscape:window-height="1017"
     id="namedview1857"
     showgrid="false"
     inkscape:pagecheckerboard="true"
     inkscape:zoom="1.6152344"
     inkscape:cx="256"
     inkscape:cy="280.76421"
     inkscape:window-x="-8"
     inkscape:window-y="-8"
     inkscape:window-maximized="1"
     inkscape:current-layer="svg1855" />
  <metadata
     id="metadata1839">
    <rdf:RDF>
      <cc:Work
         rdf:about="">
        <dc:format>image/svg+xml</dc:format>
        <dc:type
           rdf:resource="http://purl.org/dc/dcmitype/StillImage" />
        <dc:title></dc:title>
      </cc:Work>
    </rdf:RDF>
  </metadata>
  <g
     id="g1881">
    <rect
       x="56.66497"
       y="49.087368"
       width="23.330942"
       height="22.233816"
       style="stroke-width:1.08624;paint-order:stroke markers fill;fill:#ffffff;fill-opacity:1"
       id="rect1841" />
    <path
       d="m 67.747447,33.430108 -1.568463,1.30113 c -23.114145,19.1677 -21.811117,23.156068 -23.964483,27.236872 -1.265285,2.396698 -3.23252,0.210112 -3.22286,2.641336 0.02168,5.457248 6.302163,10.610091 11.015192,12.883156 0.714049,0.344363 -1.621483,1.100294 -1.383905,1.130126 0.009,0.0012 0.05257,0.02822 0.05976,0.02822 0.207463,0 1.480622,-0.392514 2.664356,-0.674168 5.868456,-1.396297 12.488849,-2.339766 16.424892,-2.340081 3.869207,-5.56e-4 9.445605,0.998689 15.778995,2.424743 3.773277,0.849648 0.338406,0.511787 2.793872,-1.0525 2.677049,-1.70543 5.496082,-4.806841 6.633648,-8.198057 0.736357,-2.195021 2.700526,-4.83247 2.102481,-6.870877 C 94.239579,59.07221 91.026829,57.557533 88.137252,54.646245 87.312604,53.81542 84.066637,49.9331 80.650794,47.12286 77.235064,44.312725 74.604407,39.220701 72.171789,37.166118 Z M 65.82784,49.435053 h 3.912454 l -0.01011,3.993411 v 4.074921 h 8.497091 v 3.667262 h -8.497091 v 7.945646 h -3.92144 V 61.170647 H 57.09407 v -3.659069 l 4.302464,-0.05482 4.303025,-0.05537 0.0592,-4.023872 z"
       fill="#ffffff"
       stroke-linecap="square"
       stroke-width="7.09064"
       style="paint-order:stroke markers fill;fill:#000000;fill-opacity:1"
       id="path1843" />
    <path
       d="M 67.747447,33.430108 38.961761,63.955782 48.4596,80.123539 h 38.613437 l 9.440326,-16.167757 z"
       fill="none"
       stroke="#000000"
       stroke-width="4.08969"
       id="path1845"
       style="stroke:#ffffff;stroke-opacity:1" />
    <path
       d="m 67.040892,78.985956 c -5.849136,0.01704 -10.873544,1.143045 -18.008746,3.111915 -0.314423,0.08675 -0.217684,0.347147 -0.217684,1.48243 v 1.376024 l 1.751898,1.075819 1.751899,1.075295 -0.513146,0.529244 c -0.28233,0.291034 -1.070651,1.117415 -1.751899,1.836834 l -1.238775,1.308694 v 1.696816 c 0,1.22214 -0.125866,1.903955 0.07021,1.90364 0.149793,-2.79e-4 1.602051,-0.472838 2.980228,-0.79739 4.269888,-1.00559 8.111124,-1.320773 16.013765,-1.313631 8.46429,0.0078 12.974115,0.443017 17.267367,1.666985 l 1.676413,0.429362 0.06324,-1.810785 0.06268,-1.81131 -1.685175,-1.396612 c -2.308494,-2.424743 -1.974536,-1.85259 -0.122484,-3.031559 l 1.784923,-1.136113 0.0034,-1.464993 0.0034,-1.463942 -2.330623,-0.616091 c -4.923087,-1.40491 -9.484696,-2.316342 -14.993808,-2.489343 -0.877814,-0.02754 -1.730107,-0.163652 -2.56573,-0.161215 z m 0.671025,3.172733 c 0.092,0.0017 1.420189,0.763168 2.952257,1.69251 l 2.785672,1.689778 -2.625489,1.586629 c -1.444227,0.872967 -2.795669,1.618667 -3.003367,1.657216 -0.207766,0.03852 -1.582281,-0.670795 -3.054478,-1.576335 l -2.676599,-1.645767 2.727036,-1.703328 c 1.500054,-0.936862 2.802858,-1.702383 2.894856,-1.700598 z m -1.073302,13.662553 c -4.475002,0.02679 -8.85385,0.251707 -11.832842,0.701856 -2.399593,0.362619 -3.87224,0.653107 -3.731378,0.866328 0.299202,0.45267 5.635596,1.579382 9.178485,1.91719 3.024148,0.288367 14.609639,0.466619 17.240408,0.0912 2.510912,-0.358407 4.846253,-1.280017 5.963263,-1.72066 l 0.763338,-0.301255 -0.65421,-0.253493 c -2.049011,-0.795373 -8.430366,-1.257539 -15.007288,-1.300605 -0.639405,-0.0042 -1.280899,-0.0044 -1.920169,-5.42e-4 z m -3.042907,6.912158 -2.253452,5.4e-4 -0.652458,0.96729 c -1.088859,1.61404 -3.665215,4.38006 -4.91893,5.28099 -3.711159,2.66686 -6.847637,2.6636 -16.347385,1.50081 -12.59781,-1.54188 -20.532801,-0.0648 -24.93052,4.00318 -1.044243,0.96578 -1.985883,3.14595 -2.390945,4.49498 l -0.13757,0.45867 h 9.641733 l 0.821964,-0.61772 c 1.108618,-0.83309 2.865875,-1.42843 4.590365,-1.55511 0.928857,-0.0683 4.155312,0.18409 9.268461,0.72411 9.803713,1.0354 12.02605,1.16269 14.861259,0.85438 9.213082,-1.0018 13.80311,-5.52238 14.548981,-14.32956 l 0.150927,-1.78316 z m 6.135015,0 0.0011,0.96728 c 0.0022,1.45722 0.575534,4.68773 1.068067,6.01596 1.924775,5.19076 5.974046,8.06854 12.713509,9.03617 2.9654,0.42573 5.519335,0.30342 15.52176,-0.74528 10.151711,-1.06427 11.275691,-1.00454 13.835691,0.73659 l 0.97985,1.027 9.52514,0.0293 0.28444,-0.81312 c 0.10525,-0.30069 -0.51999,-1.32655 -0.93806,-2.13105 -1.43939,-2.7698 -4.97116,-4.84823 -9.26677,-5.86722 -4.75942,-1.12897 -8.51933,-1.47938 -17.247154,-0.43914 -10.411419,1.24094 -13.807604,1.01414 -17.781839,-2.70426 -1.029089,-0.96273 -2.433854,-2.50667 -3.122437,-3.43113 l -1.252143,-1.68106 H 71.89076 Z"
       fill="#ffffff"
       stroke-linecap="square"
       stroke-width="7.09064"
       style="paint-order:stroke markers fill;fill:#000000;fill-opacity:1"
       id="path1847" />
    <rect
       transform="matrix(0.69185796,0.72203363,-0.68211604,0.73124395,0,0)"
       x="62.076599"
       y="-36.353168"
       width="8.2755928"
       height="8.1713533"
       fill="#ffffff"
       stroke="#000000"
       stroke-linecap="square"
       stroke-width="8.15316"
       style="paint-order:stroke markers fill;fill:#000000;fill-opacity:1;stroke:#ffffff;stroke-opacity:1"
       id="rect1849" />
    <path
       d="m 44.844484,80.804198 v 17.070051 c 2.05957,2.013407 6.225553,3.501721 12.497835,4.464621 -1.685062,2.36361 -3.18287,3.87377 -4.493537,4.53027 -1.310554,0.61277 -3.393601,0.91898 -6.248917,0.91898 -1.123413,0 -3.089188,-0.19664 -5.897662,-0.59058 -4.0723,-0.56902 -7.231918,-0.85384 -9.478631,-0.85384 -5.008345,0 -9.267562,0.65676 -12.77866,1.96981 -3.463696,1.26931 -6.061664,2.99805 -7.793568,5.18656 -1.731904,2.18851 -2.598193,4.33353 -2.598193,6.43444 v 3.21664 h 15.798091 c 0,-1.53191 1.357284,-2.29775 4.072075,-2.29775 0.561695,0 2.902495,0.24048 7.021524,0.72194 6.927503,0.78785 11.233,1.18222 12.919073,1.18222 5.336012,0 9.782707,-1.07246 13.340311,-3.21727 3.60422,-2.1447 5.780951,-5.05547 6.529855,-8.73218 0.748927,3.67661 2.90227,6.58748 6.459649,8.73218 3.60422,2.14471 8.07428,3.21727 13.409955,3.21727 1.685063,0 5.991121,-0.39438 12.919076,-1.18222 4.0723,-0.48146 6.41247,-0.72194 7.02096,-0.72194 2.71479,0 4.07264,0.76578 4.07264,2.29775 h 15.79696 v -3.21664 c 0,-3.45781 -1.98925,-6.58769 -5.96786,-9.389 -3.93178,-2.80131 -9.66544,-4.20192 -17.2011,-4.20192 -2.24671,0 -5.40644,0.28483 -9.478627,0.85384 -2.855204,0.39394 -4.821091,0.59059 -5.897662,0.59059 -2.855204,0 -4.938252,-0.30621 -6.248918,-0.91899 -1.310554,-0.65655 -2.831839,-2.16676 -4.563743,-4.53027 6.27217,-0.96293 10.46163,-2.45121 12.56748,-4.464616 V 80.804093 C 89.87083,80.330342 89.120926,79.886327 88.374156,79.4704 87.712959,79.102193 87.055065,78.764542 86.398833,78.439611 78.585832,76.520426 72.354213,75.551852 67.73408,75.551852 c -4.625188,0 -10.797497,0.95745 -18.469299,2.842697 -0.191253,0.09055 -0.471628,0.189671 -0.6513,0.277926 -1.20575,0.592194 -2.147974,1.125188 -2.788592,1.510055 -0.640686,0.384929 -0.979855,0.621521 -0.979855,0.621521 z m 22.889484,-1.510055 c 6.365853,0 12.638248,0.984887 18.816398,2.954565 v 2.691756 l -3.439882,2.16687 3.439882,3.61075 v 3.545625 c -4.259441,-1.444405 -10.531387,-2.16687 -18.816398,-2.16687 -8.284899,0 -14.556845,0.722496 -18.816399,2.16687 v -3.545625 l 3.440556,-3.61075 -3.440556,-2.16687 v -2.691756 c 6.1786,-1.969605 12.450658,-2.954565 18.816399,-2.954565 z m 0,2.692386 -5.75725,3.5451 5.75725,3.479975 5.757249,-3.479975 z m 0,13.852675 c 8.33174,0 13.831193,0.503394 16.500153,1.510055 -3.557378,1.400603 -9.057168,2.100695 -16.500153,2.100695 -7.489154,0 -13.012308,-0.700039 -16.569799,-2.100695 2.668063,-1.006693 8.191329,-1.510055 16.569799,-1.510055 z m -6.319124,6.893666 h 4.282805 c 0,10.81072 -5.944503,16.21608 -17.83351,16.21608 -1.451079,0 -5.429583,-0.35002 -11.936186,-1.05033 -4.63395,-0.52524 -7.302124,-0.78762 -8.004299,-0.78762 -2.62122,0 -4.750548,0.76577 -6.388769,2.29775 h -9.47863 c 1.54465,-6.21532 7.793119,-9.32272 18.745631,-9.32272 1.497808,0 4.259778,0.26238 8.285236,0.78761 3.838204,0.48147 6.436172,0.72248 7.793568,0.72248 3.60422,0 6.412358,-0.7444 8.425087,-2.23252 2.05957,-1.44441 4.095664,-3.65466 6.108393,-6.63097 z m 8.355442,0 h 4.282806 c 2.012729,2.97631 4.025458,5.18656 6.038187,6.63097 2.012729,1.48821 4.844343,2.23252 8.495293,2.23252 1.357396,0 3.955364,-0.241 7.793568,-0.72248 4.02546,-0.52523 6.78675,-0.78761 8.28467,-0.78761 10.95297,0 17.17863,3.1074 18.67599,9.32272 h -9.47863 c -1.59149,-1.5319 -3.6979,-2.29775 -6.31912,-2.29775 -0.70211,0 -3.36979,0.26238 -8.003629,0.78762 -6.552995,0.70032 -10.531612,1.05033 -11.936186,1.05033 -11.889007,0 -17.833511,-5.40525 -17.833511,-16.21607 z"
       color="#000000"
       color-rendering="auto"
       dominant-baseline="auto"
       image-rendering="auto"
       shape-rendering="auto"
       solid-color="#000000"
       stop-color="#000000"
       style="font-variant-ligatures:normal;font-variant-position:normal;font-variant-caps:normal;font-variant-numeric:normal;font-variant-alternates:normal;font-variant-east-asian:normal;font-feature-settings:normal;font-variation-settings:normal;text-indent:0;text-decoration:none;text-decoration-line:none;text-decoration-style:solid;text-decoration-color:#000000;text-transform:none;text-orientation:mixed;white-space:normal;shape-padding:0;shape-margin:0;inline-size:0;isolation:auto;mix-blend-mode:normal;stroke-width:1.08624;fill:#ffffff;fill-opacity:1"
       id="path1851" />
  </g>
</svg>
