<?xml version="1.0" encoding="UTF-8"?>
<svg width="512" height="512" version="1.1" viewBox="0 0 135.47 135.47" xmlns="http://www.w3.org/2000/svg" xmlns:cc="http://creativecommons.org/ns#" xmlns:dc="http://purl.org/dc/elements/1.1/" xmlns:rdf="http://www.w3.org/1999/02/22-rdf-syntax-ns#">
 <metadata>
  <rdf:RDF>
   <cc:Work rdf:about="">
    <dc:format>image/svg+xml</dc:format>
    <dc:type rdf:resource="http://purl.org/dc/dcmitype/StillImage"/>
    <dc:title/>
   </cc:Work>
  </rdf:RDF>
 </metadata>
 <path d="m67.749 28.658-1.5659 1.4722c-23.075 21.688-21.775 26.2-23.926 30.818-1.2632 2.7118-3.2271 0.23773-3.2174 2.9885 0.02164 6.1746 5.6324 14.232 10.338 16.803 0.71286 0.38963-0.95959-0.98192-0.72238-0.9482 9e-3 0.0014 0.05248 0.03193 0.05967 0.03193 0.20711 0 1.4781 1.2587 2.6599 0.9401 16.36 4.1458 20.204 3.0859 35.994-0.96415 3.7671 0.96135-2.4514 1.7699 0 0 2.6727-1.9296 4.4323-7.2726 5.5679-11.109 0.73512-2.4836 2.696-5.4678 2.099-7.7742-0.83995-3.2448-4.0474-4.9587-6.932-8.2526-0.82327-0.94004-4.0638-5.3327-7.4739-8.5124-3.41-3.1795-6.0362-8.941-8.4649-11.266z" stroke-linecap="square" stroke-width="7.5361" style="paint-order:stroke markers fill"/>
 <path d="m67.749 28.658-28.738 34.539 9.482 18.293h38.549l9.4245-18.293z" fill="none" stroke="#fff" stroke-width="4.3466"/>
 <path d="m67.044 78.581c-5.8394 0.01715-10.855 1.15-17.978 3.1311-0.3139 0.08728-0.21732 0.34929-0.21732 1.4915v1.3844l1.749 1.0824 1.749 1.0819-0.51229 0.53249c-0.28186 0.29282-1.0689 1.1242-1.749 1.8481l-1.2367 1.3168v1.7072c0 1.2296-0.12566 1.9157 0.0701 1.9153 0.14954-2.79e-4 1.5993-0.47574 2.9752-0.80229 4.2628-1.0118 8.0977-1.329 15.988-1.3216 8.4502 0.0079 12.953 0.44574 17.24 1.6773l1.6735 0.432 0.06314-1.822 0.06257-1.8224-1.6823-1.4052c-2.3047-2.4396-1.9713-1.8639-0.12228-3.0502l1.782-1.143 0.0034-1.474 0.0034-1.4729-2.3268-0.61988c-4.9149-1.4135-9.4689-2.3306-14.969-2.5046-0.87634-0.027711-1.7273-0.16466-2.5615-0.16221zm0.6699 3.1922c0.09184 0.0017 1.4178 0.76787 2.9473 1.7029l2.781 1.7002-2.6212 1.5964c-1.4418 0.87834-2.7909 1.6286-2.9983 1.6674-0.20742 0.03876-1.5796-0.67492-3.0493-1.586l-2.6722-1.6559 2.7225-1.7138c1.4976-0.94262 2.7981-1.7129 2.8901-1.711zm-1.0715 13.747c-4.4675 0.02696-8.8391 0.25326-11.813 0.70618-2.3956 0.36485-3.8658 0.65712-3.7251 0.87165 0.2987 0.45545 5.6263 1.5891 9.1632 1.929 3.019 0.29014 14.585 0.46948 17.212 0.09182 2.5067-0.36061 4.8381-1.2879 5.9533-1.7312l0.76206-0.30311-0.65313-0.25505c-2.0456-0.80026-8.4163-1.2652-14.982-1.3086-0.63834-0.0043-1.2788-0.0045-1.9169-5.46e-4zm-3.0378 6.9547-2.2497 5.4e-4 -0.65137 0.97324c-1.0871 1.6239-3.6591 4.407-4.9108 5.3134-3.7049 2.6833-6.8362 2.6799-16.32 1.51-12.577-1.5514-20.498-0.0651-24.888 4.0278-1.0425 0.97173-1.9826 3.1654-2.3869 4.5226l-0.13734 0.46149h9.6256l0.82059-0.62152c1.1068-0.83822 2.8612-1.4371 4.5827-1.5646 0.92731-0.0687 4.1484 0.18521 9.2531 0.72855 9.7874 1.0418 12.006 1.1698 14.837 0.85963 9.1977-1.008 13.781-5.5563 14.524-14.418l0.15068-1.7941zm6.1248 0 0.0011 0.97323c0.0023 1.4661 0.57458 4.7165 1.0663 6.0529 1.9216 5.2227 5.9641 8.1181 12.692 9.0918 2.9604 0.42835 5.5102 0.30529 15.496-0.74987 10.135-1.0708 11.257-1.0107 13.812 0.74113l0.97822 1.0333 9.5093 0.0295 0.28397-0.81812c0.10505-0.30253-0.51913-1.3347-0.93649-2.1441-1.437-2.7868-4.9629-4.878-9.2514-5.9032-4.7515-1.1359-8.505-1.4884-17.219-0.44182-10.394 1.2485-13.785 1.0203-17.753-2.721-1.0274-0.96865-2.4299-2.5222-3.1173-3.4522l-1.25-1.6914h-2.1575z" stroke-linecap="square" stroke-width="7.1066" style="paint-order:stroke markers fill"/>
 <g>
  <path d="m44.884 80.41v17.175c2.0561 2.0258 6.2152 3.5232 12.476 4.492-1.6822 2.3781-3.1776 3.8977-4.4861 4.5581-1.3084 0.61654-3.3879 0.92463-6.2385 0.92463-1.1215 0-3.0841-0.19784-5.8878-0.5942-4.0655-0.57253-7.2199-0.8591-9.4629-0.8591-5 0-9.2522 0.66081-12.757 1.9819-3.4579 1.2771-6.0516 3.0164-7.7806 5.2185-1.7291 2.202-2.5938 4.3602-2.5938 6.4739v3.2364h15.771c0-1.5414 1.3551-2.3119 4.0653-2.3119 0.56076 0 2.8977 0.24197 7.0099 0.72639 6.9159 0.79269 11.214 1.1895 12.898 1.1895 5.327 0 9.7664-1.0791 13.318-3.2371 3.5983-2.1579 5.7713-5.0866 6.519-8.7859 0.74768 3.6992 2.8975 6.628 6.4489 8.7859 3.5983 2.1579 8.0608 3.2371 13.388 3.2371 1.6822 0 5.9812-0.39681 12.898-1.1895 4.0655-0.48442 6.4017-0.72639 7.0093-0.72639 2.7102 0 4.0659 0.77049 4.0659 2.3119h15.771v-3.2364c0-3.479-1.986-6.6282-5.9579-9.4467-3.9252-2.8185-9.6493-4.2277-17.172-4.2277-2.243 0-5.3975 0.28658-9.4629 0.8591-2.8505 0.39636-4.813 0.59421-5.8878 0.59421-2.8505 0-4.93-0.30809-6.2385-0.92463-1.3084-0.66059-2.8271-2.1801-4.5561-4.5581 6.2616-0.96885 10.444-2.4663 12.547-4.492v-17.175c-0.75081-0.47666-1.4995-0.92342-2.245-1.3419-0.66009-0.37047-1.3169-0.7102-1.9721-1.0371-7.7999-1.931-14.021-2.9055-18.634-2.9055-4.6174 0-10.779 0.96334-18.438 2.8601-0.19093 0.0911-0.47085 0.19084-0.65022 0.27964-1.2037 0.59583-2.1443 1.1321-2.7839 1.5194-0.63962 0.3873-0.97823 0.62534-0.97823 0.62534zm22.851-1.5194c6.3553 0 12.617 0.99095 18.785 2.9728v2.7083l-3.4341 2.1802 3.4341 3.633v3.5674c-4.2524-1.4533-10.514-2.1802-18.785-2.1802-8.271 0-14.532 0.72694-18.785 2.1802v-3.5674l3.4348-3.633-3.4348-2.1802v-2.7083c6.1683-1.9817 12.429-2.9728 18.785-2.9728zm0 2.7089-5.7476 3.5669 5.7476 3.5014 5.7476-3.5014zm0 13.938c8.3179 0 13.808 0.50648 16.472 1.5194-3.5515 1.4092-9.0421 2.1136-16.472 2.1136-7.4767 0-12.991-0.70436-16.542-2.1136 2.6637-1.0129 8.1777-1.5194 16.542-1.5194zm-6.3086 6.9361h4.2756c0 10.878-5.9346 16.316-17.804 16.316-1.4486 0-5.4206-0.35217-11.916-1.0568-4.6262-0.52847-7.29-0.79246-7.9909-0.79246-2.6168 0-4.7426 0.77047-6.3782 2.3119h-9.4629c1.5421-6.2535 7.7801-9.38 18.714-9.38 1.4954 0 4.2528 0.26399 8.2714 0.79245 3.8318 0.48443 6.4254 0.72693 7.7806 0.72693 3.5983 0 6.4016-0.74897 8.411-2.2462 2.0561-1.4533 4.0889-3.6772 6.0983-6.6717zm8.3416 0h4.2756c2.0094 2.9945 4.0187 5.2185 6.028 6.6718 2.0094 1.4974 4.8362 2.2462 8.4812 2.2462 1.3552 0 3.9487-0.24248 7.7806-0.72692 4.0187-0.52847 6.7755-0.79246 8.2708-0.79246 10.935 0 17.151 3.1265 18.644 9.3801h-9.4628c-1.5888-1.5413-3.6917-2.3119-6.3086-2.3119-0.70094 0-3.3641 0.264-7.9902 0.79247-6.5421 0.70462-10.514 1.0568-11.916 1.0568-11.869 0-17.804-5.4384-17.804-16.316z" color="#000000" color-rendering="auto" dominant-baseline="auto" fill="#fff" image-rendering="auto" shape-rendering="auto" solid-color="#000000" stop-color="#000000" stroke-width="1.0886" style="font-feature-settings:normal;font-variant-alternates:normal;font-variant-caps:normal;font-variant-east-asian:normal;font-variant-ligatures:normal;font-variant-numeric:normal;font-variant-position:normal;font-variation-settings:normal;inline-size:0;isolation:auto;mix-blend-mode:normal;shape-margin:0;shape-padding:0;text-decoration-color:#000000;text-decoration-line:none;text-decoration-style:solid;text-indent:0;text-orientation:mixed;text-transform:none;white-space:normal"/>
  <path d="m65.832 48.553-0.06886 4.1911-0.05942 4.2773-4.2957 0.05876-4.2951 0.05821v3.8902h8.7001v8.4464h3.9146v-8.4464h8.4832v-3.8984h-8.4832v-4.3322l0.01028-4.2449z" fill="#fff" stroke-width=".29097" style="paint-order:stroke markers fill"/>
  <rect transform="matrix(.64107 .76748 -.64107 .76748 0 0)" x="61.112" y="-44.555" width="8.2067" height="8.2067" stroke="#fff" stroke-linecap="square" stroke-width="8.7608" style="paint-order:stroke markers fill"/>
 </g>
</svg>
