<?xml version="1.0" encoding="UTF-8"?>
<svg width="512" height="512" version="1.1" viewBox="0 0 135.47 135.47" xmlns="http://www.w3.org/2000/svg" xmlns:cc="http://creativecommons.org/ns#" xmlns:dc="http://purl.org/dc/elements/1.1/" xmlns:rdf="http://www.w3.org/1999/02/22-rdf-syntax-ns#">
 <metadata>
  <rdf:RDF>
   <cc:Work rdf:about="">
    <dc:format>image/svg+xml</dc:format>
    <dc:type rdf:resource="http://purl.org/dc/dcmitype/StillImage"/>
    <dc:title/>
   </cc:Work>
  </rdf:RDF>
 </metadata>
 <g stroke-width=".28743">
  <g transform="matrix(.95937 0 0 .9817 2.5605 .97481)" aria-label="♔">
   <path d="m83.076 47.102c5.0128-4.9464 10.847-7.7802 19.056-7.7802 6.3749 0 11.123 0.59293 15.183 4.3043 4.0607 3.7114 6.9134 7.9679 6.9134 13.688 0 11.091-7.3064 20.632-20.274 27.705v25.74c0 3.4931-3.8642 6.4186-11.593 8.7764-7.7285 2.4015-15.937 3.6023-24.626 3.6023-8.7327 0-16.963-1.2008-24.692-3.6023-7.6848-2.3578-11.527-5.2833-11.527-8.7764v-25.74c-12.968-7.0735-19.452-16.156-19.452-27.246 0-5.7199 2.0304-10.436 6.0911-14.147 4.0607-3.7114 9.2785-4.7635 15.653-4.7635 8.1651 0 14.028 3.6989 19.334 7.6712 2.9436-4.485 7.8972-8.8123 11.871-10.384l-9.8483-0.24352-0.33225-23.587h25.805v23.668l-9.4329 0.16235c3.9734 1.5719 9.4264 6.6297 11.872 10.952z" stroke-width=".28743"/>
  </g>
  <g fill="#fff" aria-label="♔">
   <path d="m82.079 45.722q7.27-7.663 19.583-7.663 9.5624 0 15.653 5.5671 6.0911 5.5671 6.0911 14.147 0 16.636-19.452 27.246v25.74q0 5.2396-11.593 8.7764-11.593 3.6023-24.626 3.6023-13.099 0-24.692-3.6023-11.527-3.5368-11.527-8.7764v-25.74q-19.452-10.61-19.452-27.246 0-8.5799 6.0911-14.147t15.653-5.5671q12.248 0 19.583 7.663 3.6678-6.4841 9.6279-8.8419h-8.187v-24.561h25.805v24.561h-8.187q5.9601 2.3578 9.6279 8.8419zm-8.4489-29.67h-11.789l5.8946 5.8946zm3.2093 15.064v-12.903l-6.4186 6.4186zm-11.789-6.4841-6.4186-6.4186v12.903zm8.5799 8.5799-5.8946-5.8946-5.8946 5.8946zm5.5016 15.195q-1.5719-3.7987-4.8467-6.4186-3.2748-2.6853-6.5496-2.6853t-6.5496 2.6853q-3.2748 2.6198-4.8467 6.4186 2.7508 2.6853 6.2876 9.3659 3.6023 6.6806 5.1087 12.51 1.5064-5.8291 5.0432-12.51 3.5368-6.6806 6.3531-9.3659zm21.745 34.058q8.8419-4.3882 13.754-10.872 4.9777-6.5496 4.9777-13.82t-4.9777-11.593q-4.9122-4.3227-12.968-4.3227-21.81 0-30.848 31.896 19.256 0.85144 30.062 8.7109zm-36.219-8.7109q-9.0384-31.896-30.848-31.896-8.056 0-13.034 4.3882-4.9777 4.3227-4.9777 11.527 0 7.27 4.9777 13.82 4.9777 6.4841 13.82 10.872 10.741-7.8595 30.062-8.7109zm35.564 29.342v-2.9473l-5.1087-7.8595 5.1087-3.1438v-1.9649q-3.3403-4.3882-12.379-7.008-8.9729-2.6853-20.107-2.6853t-20.173 2.6853q-8.9729 2.6198-12.313 7.008v1.9649l5.1087 3.1438-5.1087 7.8595v2.9473q13.361-7.3355 32.486-7.3355t32.486 7.3355zm-24.168-17.029-8.3179 5.8946-8.3179-5.8946 8.3179-5.2396zm-8.3179 33.272q9.7588 0 21.09-3.1438 11.396-3.0783 11.396-6.746 0-3.2748-10.348-6.6151-10.283-3.3403-22.138-3.3403t-22.203 3.3403q-10.283 3.3403-10.283 6.6151 0 3.6678 11.331 6.746 11.396 3.1438 21.155 3.1438z" fill="#fff" stroke-width=".28743"/>
  </g>
 </g>
</svg>
