<?xml version="1.0" encoding="UTF-8"?>
<svg width="512" height="512" version="1.1" viewBox="0 0 135.47 135.47" xmlns="http://www.w3.org/2000/svg" xmlns:cc="http://creativecommons.org/ns#" xmlns:dc="http://purl.org/dc/elements/1.1/" xmlns:rdf="http://www.w3.org/1999/02/22-rdf-syntax-ns#">
 <metadata>
  <rdf:RDF>
   <cc:Work rdf:about="">
    <dc:format>image/svg+xml</dc:format>
    <dc:type rdf:resource="http://purl.org/dc/dcmitype/StillImage"/>
    <dc:title/>
   </cc:Work>
  </rdf:RDF>
 </metadata>
 <g>
  <path d="m124.71 122.27h-82.222c0-8.2863 1.2667-13.519 3.3494-17.949 2.0827-4.4313 5.6479-8.401 10.921-11.459 6.6911-3.8552 10.6-9.4057 10.6-15.3 0-1.3294-0.78121-4.2587-1.6675-5.6323-2.3485 1.9054-8.9568 4.5275-19.149 6.9646-3.545 1.0192-6.5052 4.5439-7.3027 10.349-0.44312 2.7473-0.90076 4.7838-2.2745 6.3347-1.3294 1.5067-2.5865 3.1615-4.4476 3.1615-4.7857 0-9.5936-1.9276-14.424-5.7827-4.7857-3.8995-7.1786-8.242-7.1786-13.028 0-3.7222 2.5701-9.0175 7.7103-15.886 3.7222-5.0073 6.0929-8.5079 7.1121-10.502 1.0192-1.9941 1.706-4.4534 2.0606-7.378 0.3545-3.1905 0.73115-5.4282 1.1299-6.7133 0.44312-1.3294 1.418-3.124 2.9246-5.3839 1.9941-2.9246 3.2348-5.4282 3.7222-7.511 0.53174-2.0827 0.79762-4.9187 0.79762-8.5079v-8.3085c4.1653 1.8168 7.2415 6.1505 11.141 12.842l4.3994-0.21263c1.6838-2.9689 3.0264-7.6438 3.8684-14.025 3.1019 1.418 5.9378 4.121 8.5079 8.1092 2.5701 3.9438 4.3648 6.6911 5.3839 8.242 19.054 2.4372 32.99 9.4828 41.809 21.137 8.8182 11.609 13.228 31.373 13.228 59.29zm-77.768-3.7887c-37.875-83.565 18.938 41.782 0 0z" stroke-width=".2917"/>
  <g transform="matrix(1.1217,0,0,1.1217,-11.304,-8.2408)" fill="#fff" stroke-width=".26458" aria-label="♘">
   <path d="m122.07 117.13h-74.578q0-11.274 2.8336-17.303 2.8336-6.0289 10.008-10.189 9.1036-5.2451 9.1036-13.264 0-1.8087-1.2058-3.6776-3.1953 2.5924-17.062 5.9083-4.8231 1.3866-5.9083 9.2845-0.60289 3.7379-2.4719 5.848-1.8087 2.0498-4.3408 2.0498-6.5112 0-13.083-5.2451-6.5112-5.3054-6.5112-11.817 0-5.0643 6.9935-14.409 5.0643-6.8127 6.4509-9.5257t1.869-6.6921q0.48231-4.3408 1.0249-6.0892 0.60289-1.8087 2.6527-4.8834 2.713-3.9791 3.3762-6.8127 0.72347-2.8336 0.72347-7.717v-7.5361q5.6672 2.4719 10.973 11.576l3.1953-0.12058q2.291-4.0394 3.4365-12.721 4.2202 1.9292 7.717 7.3553 3.4968 5.3657 4.8834 7.4758 25.924 3.3159 37.922 19.172 11.998 15.796 11.998 53.778zm-6.2098-3.4365v-9.6462q0-38.344-10.551-53.657-10.551-15.374-34.606-18.328-1.3866-1.0249-3.7982-5.3054-3.1953-5.6069-5.2451-6.9332-1.3866 7.1744-1.5675 8.6213-0.18087 1.3866-1.4469 3.8585-1.2058 2.4719-2.6527 2.4719-1.2058 0-1.2058-1.8087 0-1.0249 0.48231-2.4719l-7.8979 3.7982-0.24116-1.3264q1.3264-1.9895 2.8336-2.5924 0-4.1599-4.582-8.4405 0 6.7524-0.78376 9.6462-0.72347 2.8336-3.7982 7.5361-1.869 2.9542-2.3513 4.4011-0.48231 1.4469-0.84405 5.4863-0.24116 2.9542-1.5675 5.7878-1.2661 2.7733-7.3553 11.515-3.9188 5.6069-5.1849 7.8979-1.2058 2.2307-1.2058 4.2805 0 4.2202 2.9542 7.295 2.9542 3.0747 4.7025 3.0747 0.90434 0 2.4116-2.9542 2.713-5.426 4.4011-5.426 2.0498 0 2.0498 2.2307 0 1.7484-1.6881 4.0394-1.6881 1.9895-2.8336 4.3408 1.6881 1.2661 3.9188 1.2661 2.713 0 3.6173-4.9437 1.5675-10.008 7.5361-11.756 4.4614-1.0852 9.1639-2.4719 4.7628-1.3866 7.1141-2.713 2.4116-1.3866 3.6776-2.8939 1.3264-1.5072 3.6173-6.0892 0.48231 0.36174 0.96462 0.84405-1.2058 3.6776-1.2058 6.5715l0.24116 7.5964q0 10.068-10.49 15.856-5.6672 3.0747-8.3199 8.0184-2.5924 4.9437-2.5924 13.324zm-61.977-66.439q-2.291 0.5426-3.7982 1.7484 0.24116 1.9292 0.24116 2.3513 0 0.84405-2.1101 1.9292l-2.5924-0.36174-0.48231 0.78376v2.5924q-2.8336-2.2307-2.8336-3.7379 0-2.1101 3.135-4.2202 3.1953-2.1704 5.2451-2.1704h2.713zm-23.452 27.552q-0.48231 1.6278-1.869 2.713l1.7484 2.1101q0 1.0249-0.72347 1.6881-0.72347 0.66318-1.6278 0.66318-1.869 0-1.869-2.8939 0-1.8087 1.2058-3.0145 1.2661-1.2661 3.135-1.2661z" fill="#fff" stroke-width=".26458"/>
  </g>
 </g>
</svg>
