<?xml version="1.0" encoding="UTF-8"?>
<svg width="512" height="512" version="1.1" viewBox="0 0 135.47 135.47" xmlns="http://www.w3.org/2000/svg" xmlns:cc="http://creativecommons.org/ns#" xmlns:dc="http://purl.org/dc/elements/1.1/" xmlns:rdf="http://www.w3.org/1999/02/22-rdf-syntax-ns#">
 <metadata>
  <rdf:RDF>
   <cc:Work rdf:about="">
    <dc:format>image/svg+xml</dc:format>
    <dc:type rdf:resource="http://purl.org/dc/dcmitype/StillImage"/>
    <dc:title/>
   </cc:Work>
  </rdf:RDF>
 </metadata>
 <g stroke-width=".29005">
  <g aria-label="♖">
   <path d="m113.85 122.81-92.603 0.26765 0.0491-16.912 9.4064-10.257-0.035217-6.6542 11.356-12.438-0.026171-30.105-12.598-8.6517-0.1457-25.619 17.54 0.02988 0.08894 11.996 12.708-0.06702-0.04482-12.039 16.331 0.21337 0.09961 11.81 12.656 0.01075-0.01852-12.059 17.758-0.02485-0.3586 25.894-12.485 8.506-0.28799 30.246 11.292 12.614-0.16905 6.5063 9.3754 10.3z" stroke-width=".29005"/>
  </g>
  <g fill="#fff" aria-label="♖">
   <path d="m114.3 123.15h-93.124v-17.052l9.3851-10.244v-6.6753l11.236-12.558v-29.808l-12.624-8.5259v-25.974h17.779v12.029h12.558v-12.029h16.523v12.029h12.558v-12.029h17.779v25.974l-12.624 8.5259v29.808l11.236 12.558v6.6753l9.319 10.244zm-11.764-87.572v-19.497h-10.112v12.095h-20.224v-12.095h-8.9225v12.095h-20.158v-12.095h-10.112v19.497zm-4.6926 3.9655h-60.144l7.7328 5.023h44.678zm-7.865 34.897v-26.106h-44.414v26.106zm9.7156 14.474-9.4512-10.707h-44.943l-9.4512 10.707zm10.178 17.647-8.6581-9.3851v-4.4282h-66.885v4.4282l-8.6581 9.3851zm0.66092 12.822v-9.0546h-85.523v9.0546z" fill="#fff" stroke-width=".29005"/>
  </g>
 </g>
</svg>
