<?xml version="1.0" encoding="UTF-8"?>
<svg width="512" height="512" version="1.1" viewBox="0 0 135.47 135.47" xmlns="http://www.w3.org/2000/svg" xmlns:cc="http://creativecommons.org/ns#" xmlns:dc="http://purl.org/dc/elements/1.1/" xmlns:rdf="http://www.w3.org/1999/02/22-rdf-syntax-ns#">
 <metadata>
  <rdf:RDF>
   <cc:Work rdf:about="">
    <dc:format>image/svg+xml</dc:format>
    <dc:type rdf:resource="http://purl.org/dc/dcmitype/StillImage"/>
    <dc:title/>
   </cc:Work>
  </rdf:RDF>
 </metadata>
 <g transform="matrix(.97398 0 0 .97398 1.7591 3.3274)" stroke-width=".29005" aria-label="♖">
  <path d="m112.86 121.71-89.954-0.096 0.57628-15.035 9.0009-9.9559 0.57628-7.4437 10.564-11.79 0.09605-31.057-12.528-8.814-0.76837-23.861 15.474 0.19209 0.28814 11.357 14.095 0.19209 0.48023-11.933h14.41l0.19209 11.645 14.095 0.28814 0.96046-11.645h14.321l0.0961 23.765-13.008 9.1022 0.19209 30.288 10.276 12.27 1.4407 7.6358 9.1269 9.6677z" stroke-width=".29005"/>
 </g>
 <g transform="matrix(.97398 0 0 .97398 1.7591 3.3274)" fill="#fff" stroke-width=".29005" aria-label="♖">
  <path d="m114.3 123.15h-93.124v-17.052l9.3851-10.244v-6.6753l11.236-12.558v-29.808l-12.624-8.5259v-25.974h17.779v12.029h12.558v-12.029h16.523v12.029h12.558v-12.029h17.779v25.974l-12.624 8.5259v29.808l11.236 12.558v6.6753l9.319 10.244zm-11.764-87.572v-19.497h-10.112v12.095h-20.224v-12.095h-8.9225v12.095h-20.158v-12.095h-10.112v19.497zm-4.6926 3.9655h-60.144l7.7328 5.023h44.678zm-7.865 34.897v-26.106h-44.414v26.106zm9.7156 14.474-9.4512-10.707h-44.943l-9.4512 10.707zm10.178 17.647-8.6581-9.3851v-4.4282h-66.885v4.4282l-8.6581 9.3851zm0.66092 12.822v-9.0546h-85.523v9.0546z" fill="#fff" stroke-width=".29005"/>
 </g>
</svg>
