<?xml version="1.0" encoding="UTF-8"?>
<svg width="512" height="512" version="1.1" viewBox="0 0 135.47 135.47" xmlns="http://www.w3.org/2000/svg" xmlns:cc="http://creativecommons.org/ns#" xmlns:dc="http://purl.org/dc/elements/1.1/" xmlns:rdf="http://www.w3.org/1999/02/22-rdf-syntax-ns#">
 <metadata>
  <rdf:RDF>
   <cc:Work rdf:about="">
    <dc:format>image/svg+xml</dc:format>
    <dc:type rdf:resource="http://purl.org/dc/dcmitype/StillImage"/>
    <dc:title/>
   </cc:Work>
  </rdf:RDF>
 </metadata>
 <g transform="matrix(.93579 0 0 1 -107.88 1.1226)" stroke-width=".28071">
  <g transform="translate(119.93,-1.1226)" fill="#fff" aria-label="♕">
   <path d="m93.513 63.417 11.45-12.281c7.5904-8.1022 11.386-12.132 11.386-12.089-1.6631-1.4072-2.4946-3.1982-2.4946-5.373 0-1.9189 0.66096-3.5394 1.9829-4.8613s2.921-1.9829 4.7973-1.9829c1.9189 0 3.5394 0.66096 4.8613 1.9829s1.9829 2.9424 1.9829 4.8613c0 1.8763-0.66096 3.4754-1.9829 4.7973-1.3219 1.3219-2.9424 1.9829-4.8613 1.9829h-0.76757l-16.759 39.978v30.639c0 3.4114-3.7739 6.2685-11.322 8.5712-7.5478 2.3454-15.565 3.518-24.051 3.518-8.5286 0-16.567-1.1727-24.115-3.518-7.5052-2.3027-11.258-5.1598-11.258-8.5712v-30.639l-16.759-39.978h-0.76757c-1.9189 0-3.5394-0.66096-4.8613-1.9829-1.3219-1.3219-1.9829-2.921-1.9829-4.7973 0-1.9189 0.66096-3.5394 1.9829-4.8613s2.9424-1.9829 4.8613-1.9829c1.8763 0 3.4754 0.66096 4.7973 1.9829s1.9829 2.9424 1.9829 4.8613c0 2.2174-0.83154 3.9658-2.4946 5.2451l22.771 24.498-1.9189-33.261c-1.8336 0-3.4114-0.66096-4.7334-1.9829-1.3219-1.3646-1.9829-2.985-1.9829-4.8613 0-1.9189 0.66096-3.518 1.9829-4.7973 1.3219-1.3219 2.9424-1.9829 4.8613-1.9829 1.8763 0 3.4754 0.66096 4.7973 1.9829s1.9829 2.921 1.9829 4.7973c0 2.4306-1.0448 4.3496-3.1343 5.7568l14.84 29.999 7.164-33.389c-3.2409-1.0234-4.8613-3.1982-4.8613-6.5244 0-1.9189 0.66096-3.5394 1.9829-4.8613s2.9424-1.9829 4.8613-1.9829c1.8763 0 3.4754 0.66096 4.7973 1.9829s1.9829 2.9424 1.9829 4.8613c0 3.3261-1.5991 5.5009-4.7973 6.5244l7.164 33.389 14.84-29.999c-2.0895-1.2793-3.1343-3.1982-3.1343-5.7568 0-1.8763 0.66096-3.4754 1.9829-4.7973s2.921-1.9829 4.7973-1.9829 3.4754 0.66096 4.7973 1.9829c1.3646 1.3219 2.0469 2.921 2.0469 4.7973s-0.66097 3.4967-1.9829 4.8613c-1.3219 1.3219-2.8997 1.9829-4.7334 1.9829z" fill="#fff" stroke-width=".28071"/>
  </g>
  <g transform="translate(119.93,-1.1226)" aria-label="♕">
   <path d="m93.513 63.417 11.45-12.281q11.386-12.153 11.386-12.089-2.4946-2.1108-2.4946-5.373 0-2.8784 1.9829-4.8613t4.7973-1.9829q2.8784 0 4.8613 1.9829t1.9829 4.8613q0 2.8144-1.9829 4.7973t-4.8613 1.9829h-0.76757l-16.759 39.978v30.639q0 5.1172-11.322 8.5712-11.322 3.518-24.051 3.518-12.793 0-24.115-3.518-11.258-3.4541-11.258-8.5712v-30.639l-16.759-39.978h-0.76757q-2.8784 0-4.8613-1.9829t-1.9829-4.7973q0-2.8784 1.9829-4.8613t4.8613-1.9829q2.8144 0 4.7973 1.9829t1.9829 4.8613q0 3.3261-2.4946 5.2451l22.771 24.498-1.9189-33.261q-2.7505 0-4.7334-1.9829-1.9829-2.0469-1.9829-4.8613 0-2.8784 1.9829-4.7973 1.9829-1.9829 4.8613-1.9829 2.8144 0 4.7973 1.9829t1.9829 4.7973q0 3.646-3.1343 5.7568l14.84 29.999 7.164-33.389q-4.8613-1.5351-4.8613-6.5244 0-2.8784 1.9829-4.8613t4.8613-1.9829q2.8144 0 4.7973 1.9829t1.9829 4.8613q0 4.9892-4.7973 6.5244l7.164 33.389 14.84-29.999q-3.1343-1.9189-3.1343-5.7568 0-2.8144 1.9829-4.7973t4.7973-1.9829 4.7973 1.9829q2.0469 1.9829 2.0469 4.7973t-1.9829 4.8613q-1.9829 1.9829-4.7334 1.9829zm-25.778-41.129q1.2793 0 2.1748-0.95946 0.95946-0.95946 0.95946-2.1748 0-1.2793-0.95946-2.2388-0.8955-0.95946-2.1748-0.95946t-2.2388 0.95946q-0.8955 0.95946-0.8955 2.2388 0 1.2153 0.8955 2.1748 0.95946 0.95946 2.2388 0.95946zm27.633 4.1577q1.2793 0 2.1748-0.8955 0.95946-0.95946 0.95946-2.2388t-0.95946-2.1748q-0.8955-0.95946-2.1748-0.95946t-2.2388 0.95946q-0.8955 0.8955-0.8955 2.1748t0.8955 2.2388q0.95946 0.8955 2.2388 0.8955zm-55.265 0q1.2793 0 2.1748-0.8955 0.95946-0.95946 0.95946-2.2388t-0.95946-2.1748q-0.8955-0.95946-2.1748-0.95946t-2.2388 0.95946q-0.8955 0.8955-0.8955 2.1748t0.8955 2.2388q0.95946 0.8955 2.2388 0.8955zm80.531 10.362q1.2793 0 2.1748-0.8955 0.95946-0.95946 0.95946-2.2388t-0.95946-2.1748q-0.8955-0.95946-2.1748-0.95946t-2.2388 0.95946q-0.8955 0.8955-0.8955 2.1748t0.8955 2.2388q0.95946 0.8955 2.2388 0.8955zm-105.8 0q1.2153 0 2.1748-0.8955 0.95946-0.95946 0.95946-2.2388t-0.95946-2.1748q-0.95946-0.95946-2.1748-0.95946-1.2793 0-2.2388 0.95946-0.95947 0.8955-0.95947 2.1748t0.95947 2.2388q0.95946 0.8955 2.2388 0.8955zm97.674 11.642-23.283 24.882 1.9189-34.669-15.671 31.534-7.7397-36.396-7.7397 36.396-15.735-31.534 1.9829 34.669-23.347-24.882 14.072 33.581q11.322-7.1 30.767-7.1 19.381 0 30.767 7.1zm-13.049 55.137v-2.8784l-4.9892-7.6757 4.9892-3.0703v-1.9189q-3.2622-4.2856-12.089-6.8442-8.7631-2.6225-19.637-2.6225t-19.701 2.6225q-8.7631 2.5586-12.025 6.8442v1.9189l4.9892 3.0703-4.9892 7.6757v2.8784q13.049-7.164 31.726-7.164t31.726 7.164zm-23.603-16.631-8.1235 5.7568-8.1235-5.7568 8.1235-5.1171zm-8.1235 32.494q9.5307 0 20.597-3.0703 11.13-3.0063 11.13-6.5883 0-3.1982-10.106-6.4604-10.042-3.2622-21.62-3.2622t-21.684 3.2622q-10.042 3.2622-10.042 6.4604 0 3.582 11.066 6.5883 11.13 3.0703 20.66 3.0703z" stroke-width=".28071"/>
  </g>
 </g>
</svg>
