<?xml version="1.0" encoding="UTF-8"?>
<svg width="512" height="512" version="1.1" viewBox="0 0 135.47 135.47" xmlns="http://www.w3.org/2000/svg" xmlns:cc="http://creativecommons.org/ns#" xmlns:dc="http://purl.org/dc/elements/1.1/" xmlns:rdf="http://www.w3.org/1999/02/22-rdf-syntax-ns#">
 <metadata>
  <rdf:RDF>
   <cc:Work rdf:about="">
    <dc:format>image/svg+xml</dc:format>
    <dc:type rdf:resource="http://purl.org/dc/dcmitype/StillImage"/>
    <dc:title/>
   </cc:Work>
  </rdf:RDF>
 </metadata>
 <g transform="matrix(1.1233 0 0 1.0504 -7.8293 -1.9106)">
  <rect x="57.415" y="48.551" width="20.77" height="21.167" style="paint-order:stroke markers fill"/>
  <path d="m67.281 33.645-1.3963 1.2387c-20.577 18.248-19.417 22.045-21.334 25.93-1.1264 2.2817-2.8777 0.20003-2.8691 2.5146 0.0193 5.1954 5.6104 10.101 9.8061 12.265 0.63567 0.32784-1.4435 1.0475-1.232 1.0759 8e-3 0.0011 0.0468 0.02687 0.0532 0.02687 0.18469 0 1.3181-0.37368 2.3719-0.64182 5.2243-1.3293 11.118-2.2275 14.622-2.2278 3.4445-5.29e-4 8.4088 0.95077 14.047 2.3084 3.3591 0.80888 0.30126 0.48723 2.4872-1.002 2.3832-1.6236 4.8928-4.5762 5.9055-7.8047 0.65553-2.0897 2.4041-4.6006 1.8717-6.5412-0.749-2.7302-3.6091-4.1722-6.1815-6.9438-0.73413-0.79096-3.6238-4.487-6.6647-7.1624-3.0408-2.6753-5.3827-7.523-7.5483-9.479zm-1.7089 15.237h3.483l-9e-3 3.8018v3.8794h7.5644v3.4913h-7.5644v7.5644h-3.491v-7.5644h-7.7581v-3.4835l3.8302-0.05219 3.8307-0.05271 0.0527-3.8308z" fill="#fff" stroke-linecap="square" stroke-width="6.5277" style="paint-order:stroke markers fill"/>
  <path d="m67.281 33.645-25.626 29.061 8.4553 15.392h34.375l8.4041-15.392z" fill="none" stroke="#000" stroke-width="3.765"/>
  <path d="m66.652 77.015c-5.2071 0.01622-9.68 1.0882-16.032 2.9626-0.27991 0.08259-0.19379 0.33049-0.19379 1.4113v1.31l1.5596 1.0242 1.5596 1.0237-0.45682 0.50385c-0.25134 0.27707-0.95313 1.0638-1.5596 1.7487l-1.1028 1.2459v1.6154c0 1.1635-0.11205 1.8126 0.0625 1.8123 0.13335-2.65e-4 1.4262-0.45015 2.6531-0.75913 3.8012-0.95734 7.2208-1.2574 14.256-1.2506 7.5352 0.0074 11.55 0.42176 15.372 1.587l1.4924 0.40876 0.0563-1.7239 0.0558-1.7244-1.5002-1.3296c-2.0551-2.3084-1.7578-1.7637-0.10904-2.8861l1.589-1.0816 3e-3 -1.3947 3e-3 -1.3937-2.0748-0.58653c-4.3827-1.3375-8.4436-2.2052-13.348-2.3699-0.78146-0.02622-1.5402-0.1558-2.2841-0.15348zm0.59737 3.0205c0.0819 0.0016 1.2643 0.72655 2.6282 1.6113l2.4799 1.6087-2.3373 1.5105c-1.2857 0.83108-2.4888 1.541-2.6737 1.5777-0.18496 0.03667-1.4086-0.63861-2.7192-1.5007l-2.3828-1.5668 2.4277-1.6216c1.3354-0.89191 2.4952-1.6207 2.5771-1.619zm-0.95549 13.007c-3.9838 0.0255-7.882 0.23963-10.534 0.66818-2.1362 0.34522-3.4472 0.62177-3.3218 0.82476 0.26636 0.43095 5.017 1.5036 8.171 1.8252 2.6922 0.27453 13.006 0.44423 15.348 0.08682 2.2353-0.34121 4.3143-1.2186 5.3087-1.6381l0.67955-0.2868-0.5824-0.24133c-1.8241-0.75721-7.505-1.1972-13.36-1.2382-0.56922-4e-3 -1.1403-0.0042-1.7094-5.16e-4zm-2.7089 6.5805-2.0061 5.19e-4 -0.58084 0.92087c-0.96934 1.5366-3.2629 4.1699-4.379 5.0276-3.3038 2.5389-6.096 2.5358-14.553 1.4288-11.215-1.4679-18.279-0.0617-22.194 3.8111-0.92962 0.91944-1.7679 2.995-2.1285 4.2793l-0.12247 0.43667h8.5834l0.73174-0.58808c0.98693-0.79312 2.5513-1.3599 4.0865-1.4805 0.8269-0.065 3.6992 0.17526 8.2511 0.68937 8.7276 0.98572 10.706 1.1069 13.23 0.81338 8.2018-0.95373 12.288-5.2574 12.952-13.642l0.13436-1.6976zm5.4616 0 1e-3 0.92087c2e-3 1.3873 0.51236 4.4628 0.95083 5.7273 1.7135 4.9417 5.3183 7.6814 11.318 8.6026 2.6399 0.4053 4.9135 0.28886 13.818-0.70952 9.0374-1.0132 10.038-0.95634 12.317 0.70125l0.8723 0.97772 8.4796 0.0279 0.25322-0.77411c0.0937-0.28626-0.46291-1.2629-0.83509-2.0288-1.2814-2.6369-4.4255-4.6156-8.2496-5.5857-4.237-1.0748-7.5842-1.4084-15.354-0.41807-9.2686 1.1814-12.292 0.96548-15.83-2.5745-0.91613-0.91654-2.1667-2.3864-2.7797-3.2665l-1.1147-1.6004h-1.9239z" fill="#fff" stroke-linecap="square" stroke-width="6.5277" style="paint-order:stroke markers fill"/>
  <rect transform="matrix(.66733 .74477 -.65734 .75359 0 0)" x="63.791" y="-37.59" width="7.638" height="7.5486" fill="#fff" stroke="#000" stroke-linecap="square" stroke-width="7.5284" style="paint-order:stroke markers fill"/>
  <path d="m46.892 78.746v16.251c1.8335 1.9168 5.5422 3.3337 11.126 4.2504-1.5001 2.2502-2.8335 3.6879-4.0003 4.3129-1.1667 0.58337-3.0211 0.87489-5.563 0.87489-1.0001 0-2.7501-0.18721-5.2503-0.56225-3.6253-0.54171-6.4381-0.81287-8.4382-0.81287-4.4586 0-8.2503 0.62525-11.376 1.8753-3.0835 1.2084-5.3963 2.8542-6.9381 4.9377s-2.313 4.1256-2.313 6.1257v3.0623h14.064c0-1.4584 1.2083-2.1875 3.6251-2.1875 0.50004 0 2.5839 0.22894 6.2508 0.6873 6.1671 0.75005 10 1.1255 11.501 1.1255 4.7503 0 8.7089-1.021 11.876-3.0629 3.2086-2.0418 5.1464-4.8129 5.8131-8.3132 0.66672 3.5002 2.5837 6.2714 5.7506 8.3132 3.2086 2.0418 7.188 3.0629 11.938 3.0629 1.5001 0 5.3335-0.37546 11.501-1.1255 3.6253-0.45836 5.7086-0.6873 6.2503-0.6873 2.4168 0 3.6256 0.72904 3.6256 2.1875h14.063v-3.0623c0-3.2919-1.7709-6.2716-5.3128-8.9385-3.5002-2.6669-8.6045-4.0003-15.313-4.0003-2.0001 0-4.813 0.27116-8.4382 0.81287-2.5418 0.37504-4.2919 0.56225-5.2503 0.56225-2.5418 0-4.3962-0.29152-5.563-0.87489-1.1667-0.62505-2.521-2.0628-4.0628-4.3129 5.5837-0.91673 9.3133-2.3336 11.188-4.2504v-16.251c-0.66951-0.45102-1.3371-0.87373-2.0019-1.2697-0.58862-0.35054-1.1743-0.67199-1.7585-0.98133-6.9554-1.8271-12.503-2.7492-16.616-2.7492-4.1175 0-9.6123 0.91151-16.442 2.7063-0.17026 0.0862-0.41986 0.18057-0.57981 0.26459-1.0734 0.56378-1.9122 1.0712-2.4825 1.4376-0.57036 0.36646-0.8723 0.5917-0.8723 0.5917zm20.377-1.4376c5.6671 0 11.251 0.93763 16.751 2.8128v2.5626l-3.0623 2.0629 3.0623 3.4375v3.3755c-3.7919-1.3751-9.3754-2.0629-16.751-2.0629-7.3755 0-12.959 0.68783-16.751 2.0629v-3.3755l3.0629-3.4375-3.0629-2.0629v-2.5626c5.5004-1.8751 11.084-2.8128 16.751-2.8128zm0 2.5632-5.1253 3.375 5.1253 3.313 5.1253-3.313zm0 13.188c7.4172 0 12.313 0.47924 14.689 1.4376-3.1669 1.3334-8.063 1.9999-14.689 1.9999-6.6671 0-11.584-0.66645-14.751-1.9999 2.3752-0.95839 7.2922-1.4376 14.751-1.4376zm-5.6255 6.5629h3.8127c0 10.292-5.292 15.438-15.876 15.438-1.2918 0-4.8336-0.33322-10.626-0.99993-4.1253-0.50004-6.5006-0.74983-7.1257-0.74983-2.3335 0-4.2291 0.72903-5.6875 2.1875h-8.4382c1.3751-5.9171 6.9377-8.8754 16.688-8.8754 1.3334 0 3.7922 0.24979 7.3758 0.74982 3.4169 0.45837 5.7297 0.68781 6.9381 0.68781 3.2086 0 5.7085-0.70868 7.5003-2.1254 1.8335-1.3751 3.6461-3.4793 5.4379-6.3128zm7.4383 0h3.8127c1.7918 2.8335 3.5836 4.9377 5.3754 6.3128 1.7918 1.4168 4.3126 2.1254 7.5628 2.1254 1.2084 0 3.5212-0.22944 6.9381-0.68781 3.5836-0.50003 6.0418-0.74982 7.3753-0.74982 9.7507 0 15.293 2.9583 16.626 8.8754h-8.4382c-1.4168-1.4584-3.292-2.1875-5.6255-2.1875-0.62504 0-2.9999 0.24979-7.1251 0.74983-5.8337 0.66671-9.3756 0.99993-10.626 0.99993-10.584 0-15.876-5.1459-15.876-15.438z" color="#000000" color-rendering="auto" dominant-baseline="auto" image-rendering="auto" shape-rendering="auto" solid-color="#000000" stop-color="#000000" style="font-feature-settings:normal;font-variant-alternates:normal;font-variant-caps:normal;font-variant-east-asian:normal;font-variant-ligatures:normal;font-variant-numeric:normal;font-variant-position:normal;font-variation-settings:normal;inline-size:0;isolation:auto;mix-blend-mode:normal;shape-margin:0;shape-padding:0;text-decoration-color:#000000;text-decoration-line:none;text-decoration-style:solid;text-indent:0;text-orientation:mixed;text-transform:none;white-space:normal"/>
 </g>
</svg>
