<?xml version="1.0" encoding="UTF-8"?>
<svg width="512" height="512" version="1.1" viewBox="0 0 135.47 135.47" xmlns="http://www.w3.org/2000/svg" xmlns:cc="http://creativecommons.org/ns#" xmlns:dc="http://purl.org/dc/elements/1.1/" xmlns:rdf="http://www.w3.org/1999/02/22-rdf-syntax-ns#">
 <metadata>
  <rdf:RDF>
   <cc:Work rdf:about="">
    <dc:format>image/svg+xml</dc:format>
    <dc:type rdf:resource="http://purl.org/dc/dcmitype/StillImage"/>
    <dc:title/>
   </cc:Work>
  </rdf:RDF>
 </metadata>
 <g transform="matrix(1.0412 0 0 1 -2.7717 0)">
  <g transform="matrix(1 0 0 .99867 0 .024593)">
   <path d="m67.748 34.348-1.3757 1.3856c-20.273 20.412-19.131 24.659-21.02 29.005-1.1098 2.5523-2.8352 0.22375-2.8267 2.8127 0.01902 5.8114 4.9484 13.395 9.0822 15.815 0.62629 0.36671-0.84306-0.92416-0.63465-0.89243 0.0079 0.0013 0.04611 0.03005 0.05242 0.03005 0.18196 0 1.2986 1.1847 2.3369 0.8848 14.373 3.9019 17.75 2.9044 31.623-0.90744 3.3096 0.9048-2.1537 1.6658 0 0 2.3481-1.8161 3.894-6.8448 4.8917-10.456 0.64585-2.3375 2.3686-5.1462 1.8441-7.3169-0.73795-3.0539-3.5559-4.667-6.0902-7.7672-0.72329-0.88475-3.5703-5.019-6.5663-8.0117-2.9959-2.9925-5.3032-8.4151-7.4369-10.603z" fill="#fff" stroke-linecap="square" stroke-width="6.8528" style="paint-order:stroke markers fill"/>
   <path d="m67.748 34.348-25.248 32.507 8.3305 17.217h33.868l8.28-17.217z" fill="none" stroke="#000" stroke-width="3.9525"/>
   <path d="m67.129 81.334c-5.1303 0.01614-9.5372 1.0824-15.795 2.9469-0.27578 0.08215-0.19093 0.32874-0.19093 1.4038v1.303l1.5366 1.0187 1.5366 1.0183-0.45008 0.50117c-0.24763 0.2756-0.93906 1.0581-1.5366 1.7394l-1.0865 1.2393v1.6068c0 1.1573-0.1104 1.803 0.06158 1.8026 0.13138-2.64e-4 1.4051-0.44776 2.6139-0.7551 3.7451-0.95227 7.1143-1.2508 14.046-1.2439 7.424 0.0074 11.38 0.41952 15.146 1.5786l1.4703 0.40659 0.05547-1.7148 0.05498-1.7152-1.478-1.3225c-2.0248-2.2961-1.7319-1.7543-0.10743-2.8708l1.5656-1.0758 3e-3 -1.3873 3e-3 -1.3863-2.0442-0.58342c-4.3181-1.3304-8.319-2.1935-13.151-2.3573-0.76992-0.02608-1.5175-0.15497-2.2504-0.15267zm0.58855 3.0044c0.08069 0.0016 1.2456 0.7227 2.5894 1.6027l2.4433 1.6002-2.3029 1.5025c-1.2667 0.82667-2.452 1.5328-2.6342 1.5693-0.18223 0.03648-1.3878-0.63522-2.679-1.4927l-2.3477-1.5585 2.3919-1.613c1.3157-0.88717 2.4583-1.6121 2.5391-1.6104zm-0.94139 12.938c-3.925 0.02537-7.7657 0.23836-10.378 0.66464-2.1047 0.34339-3.3963 0.61847-3.2727 0.82038 0.26243 0.42866 4.943 1.4956 8.0504 1.8155 2.6524 0.27308 12.814 0.44187 15.122 0.0864 2.2023-0.3394 4.2506-1.2121 5.2303-1.6294l0.66952-0.28528-0.57381-0.24005c-1.7972-0.75319-7.3942-1.1908-13.163-1.2316-0.56082-4e-3 -1.1235-0.0042-1.6841-5.13e-4zm-2.6689 6.5456-1.9765 5.1e-4 -0.57227 0.91599c-0.95504 1.5284-3.2147 4.1478-4.3144 5.0009-3.255 2.5255-6.006 2.5223-14.338 1.4212-11.05-1.4601-18.009-0.0613-21.866 3.7909-0.9159 0.91457-1.7418 2.9792-2.097 4.2566l-0.12066 0.43434h8.4567l0.72094-0.58496c0.97237-0.78891 2.5137-1.3526 4.0262-1.4726 0.8147-0.0647 3.6446 0.17433 8.1294 0.68571 8.5988 0.98048 10.548 1.101 13.035 0.80906 8.0807-0.94867 12.107-5.2295 12.76-13.57l0.13238-1.6886zm5.381 0 9.85e-4 0.91598c2e-3 1.3799 0.5048 4.4391 0.9368 5.6969 1.6882 4.9155 5.2398 7.6406 11.151 8.557 2.6009 0.40315 4.841 0.28733 13.614-0.70576 8.904-1.0078 9.8898-0.95122 12.135 0.69753l0.85942 0.97254 8.3545 0.0277 0.24948-0.77c0.0923-0.28474-0.45608-1.2562-0.82276-2.018-1.2625-2.6229-4.3602-4.5911-8.1279-5.556-4.1745-1.0691-7.4722-1.4009-15.128-0.41584-9.1318 1.1751-12.111 0.96031-15.597-2.5609-0.90261-0.91167-2.1348-2.3738-2.7387-3.2491l-1.0982-1.5919h-1.8955z" fill="#fff" stroke-linecap="square" stroke-width="6.4622" style="paint-order:stroke markers fill"/>
   <rect transform="matrix(.61952 .78498 -.60924 .79298 0 0)" x="66.931" y="-42.903" width="8.1061" height="8.0243" fill="#fff" stroke="#000" stroke-linecap="square" stroke-width="7.9963" style="paint-order:stroke markers fill"/>
   <path d="m47.66 83.055v16.165c1.8064 1.9066 5.4604 3.316 10.961 4.2278-1.4779 2.2382-2.7917 3.6684-3.9413 4.29-1.1495 0.58027-2.9765 0.87024-5.4809 0.87024-0.98534 0-2.7096-0.1862-5.1728-0.55925-3.5718-0.53885-6.3431-0.80856-8.3137-0.80856-4.3928 0-8.1286 0.62193-11.208 1.8653-3.038 1.202-5.3167 2.839-6.8357 4.9115-1.5191 2.0725-2.2788 4.1037-2.2788 6.0931v3.046h13.856c0-1.4507 1.1905-2.1759 3.5716-2.1759 0.49266 0 2.5458 0.22773 6.1586 0.68366 6.076 0.74606 9.8524 1.1195 11.332 1.1195 4.6801 0 8.5804-1.0156 11.701-3.0467 3.1613-2.031 5.0704-4.7874 5.7273-8.2691 0.65688 3.4816 2.5456 6.2381 5.6657 8.2691 3.1613 2.031 7.0819 3.0467 11.762 3.0467 1.4779 0 5.2548-0.37347 11.332-1.1195 3.5718-0.45593 5.6243-0.68366 6.1581-0.68366 2.3811 0 3.5721 0.72517 3.5721 2.1759h13.856v-3.046c0-3.2744-1.7448-6.2383-5.2344-8.891-3.4485-2.6527-8.4775-3.979-15.087-3.979-1.9706 0-4.742 0.26973-8.3137 0.80856-2.5043 0.37305-4.2285 0.55927-5.1728 0.55927-2.5043 0-4.3313-0.28997-5.4809-0.87025-1.1495-0.62173-2.4838-2.0519-4.0028-4.29 5.5012-0.91186 9.1759-2.3212 11.023-4.2278v-16.165c-0.65963-0.44862-1.3174-0.8691-1.9724-1.263-0.57993-0.34868-1.157-0.66842-1.7326-0.97613-6.8527-1.8174-12.318-2.7346-16.371-2.7346-4.0567 0-9.4704 0.90667-16.199 2.6919-0.16774 0.08574-0.41367 0.17961-0.57126 0.26319-1.0575 0.56078-1.8839 1.0655-2.4458 1.43-0.56194 0.36452-0.85943 0.58856-0.85943 0.58856zm20.076-1.43c5.5835 0 11.085 0.93266 16.504 2.7979v2.549l-3.0171 2.052 3.0171 3.4193v3.3576c-3.736-1.3678-9.237-2.052-16.504-2.052-7.2666 0-12.767 0.68418-16.504 2.052v-3.3576l3.0177-3.4193-3.0177-2.052v-2.549c5.4192-1.8651 10.92-2.7979 16.504-2.7979zm0 2.5496-5.0496 3.3571 5.0496 3.2954 5.0496-3.2954zm0 13.118c7.3078 0 12.131 0.47669 14.472 1.43-3.1202 1.3263-7.944 1.9893-14.472 1.9893-6.5687 0-11.413-0.66292-14.533-1.9893 2.3402-0.95331 7.1846-1.43 14.533-1.43zm-5.5425 6.5281h3.7564c0 10.238-5.2139 15.356-15.642 15.356-1.2727 0-4.7623-0.33145-10.469-0.99459-4.0644-0.49738-6.4047-0.74584-7.0205-0.74584-2.299 0-4.1667 0.72515-5.6036 2.1759h-8.3137c1.3548-5.8857 6.8353-8.8283 16.441-8.8283 1.3138 0 3.7363 0.24846 7.2669 0.74584 3.3665 0.45594 5.6451 0.68417 6.8357 0.68417 3.1613 0 5.6242-0.70492 7.3896-2.1141 1.8064-1.3678 3.5923-3.4609 5.3577-6.2793zm7.3286 0h3.7564c1.7654 2.8184 3.5307 4.9115 5.296 6.2793 1.7654 1.4093 4.2489 2.1141 7.4512 2.1141 1.1906 0 3.4692-0.22821 6.8357-0.68416 3.5307-0.49738 5.9527-0.74584 7.2664-0.74584 9.6068 0 15.068 2.9426 16.38 8.8283h-8.3136c-1.3959-1.4506-3.2434-2.1759-5.5425-2.1759-0.61582 0-2.9556 0.24847-7.0199 0.74585-5.7476 0.66317-9.2372 0.99459-10.469 0.99459-10.428 0-15.642-5.1185-15.642-15.356z" color="#000000" color-rendering="auto" dominant-baseline="auto" image-rendering="auto" shape-rendering="auto" solid-color="#000000" stop-color="#000000" stroke-width=".98991" style="font-feature-settings:normal;font-variant-alternates:normal;font-variant-caps:normal;font-variant-east-asian:normal;font-variant-ligatures:normal;font-variant-numeric:normal;font-variant-position:normal;font-variation-settings:normal;inline-size:0;isolation:auto;mix-blend-mode:normal;shape-margin:0;shape-padding:0;text-decoration-color:#000000;text-decoration-line:none;text-decoration-style:solid;text-indent:0;text-orientation:mixed;text-transform:none;white-space:normal"/>
   <path d="m66.064 53.072-0.0605 3.9446-0.0522 4.0257-3.774 0.0553-3.7735 0.05478v3.6614h7.6436v7.9496h3.4392v-7.9496h7.453v-3.6691h-7.453v-4.0774l9e-3 -3.9952z" stroke-width=".26459" style="paint-order:stroke markers fill"/>
  </g>
 </g>
</svg>
