<?xml version="1.0" encoding="UTF-8"?>
<svg width="512" height="512" version="1.1" viewBox="0 0 135.47 135.47" xmlns="http://www.w3.org/2000/svg" xmlns:cc="http://creativecommons.org/ns#" xmlns:dc="http://purl.org/dc/elements/1.1/" xmlns:rdf="http://www.w3.org/1999/02/22-rdf-syntax-ns#">
 <metadata>
  <rdf:RDF>
   <cc:Work rdf:about="">
    <dc:format>image/svg+xml</dc:format>
    <dc:type rdf:resource="http://purl.org/dc/dcmitype/StillImage"/>
    <dc:title/>
   </cc:Work>
  </rdf:RDF>
 </metadata>
 <g transform="matrix(1.0932 0 0 1.0639 -6.312 -7.8624)">
  <path d="m67.747 34.327-1.4324 1.3838c-21.108 20.385-19.919 24.626-21.886 28.966-1.1555 2.5489-2.952 0.22345-2.9432 2.809 0.0198 5.8037 5.1523 13.377 9.4564 15.794 0.65209 0.36622-0.87779-0.92293-0.6608-0.89124 0.0082 0.0013 0.04801 0.03001 0.05458 0.03001 0.18946 0 1.3521 1.1831 2.4332 0.88362 14.965 3.8967 18.481 2.9005 32.926-0.90623 3.446 0.9036-2.2424 1.6636 0 0 2.4448-1.8137 4.0544-6.8357 5.0932-10.442 0.67246-2.3344 2.4662-5.1394 1.9201-7.3072-0.76835-3.0498-3.7024-4.6608-6.3411-7.7569-0.75309-0.88357-3.7174-5.0123-6.8368-8.001-3.1193-2.9885-5.5217-8.4039-7.7433-10.589z" fill="#fff" stroke-linecap="square" stroke-width="6.9879" style="paint-order:stroke markers fill"/>
  <path d="m67.747 34.327-26.288 32.464 8.6737 17.194h35.263l8.6211-17.194z" fill="none" stroke="#000" stroke-width="4.0304"/>
  <path d="m67.103 81.25c-5.3417 0.01612-9.9301 1.081-16.446 2.943-0.28714 0.08204-0.1988 0.3283-0.1988 1.4019v1.3013l1.5999 1.0173 1.5999 1.0169-0.46862 0.5005c-0.25783 0.27523-0.97775 1.0567-1.5999 1.7371l-1.1313 1.2377v1.6047c0 1.1558-0.11495 1.8006 0.06412 1.8002 0.13679-2.63e-4 1.463-0.44716 2.7216-0.7541 3.8994-0.951 7.4074-1.2491 14.625-1.2422 7.7299 0.0074 11.849 0.41896 15.77 1.5765l1.5309 0.40605 0.05776-1.7125 0.05724-1.7129-1.5389-1.3207c-2.1082-2.293-1.8033-1.752-0.11186-2.867l1.6301-1.0744 0.0031-1.3855 0.0031-1.3845-2.1284-0.58264c-4.496-1.3286-8.6617-2.1906-13.693-2.3542-0.80164-0.026046-1.58-0.15476-2.3431-0.15247zm0.6128 3.0004c0.08401 0.0016 1.2969 0.72174 2.6961 1.6006l2.544 1.5981-2.3978 1.5005c-1.3189 0.82557-2.553 1.5308-2.7427 1.5672-0.18974 0.03643-1.445-0.63438-2.7894-1.4907l-2.4444-1.5564 2.4904-1.6109c1.3699-0.88599 2.5596-1.61 2.6437-1.6083zm-0.98018 12.921c-4.0867 0.02534-8.0856 0.23804-10.806 0.66376-2.1914 0.34293-3.5362 0.61765-3.4075 0.81929 0.27324 0.42809 5.1467 1.4936 8.3821 1.8131 2.7617 0.27271 13.342 0.44128 15.745 0.0863 2.293-0.33895 4.4257-1.2105 5.4458-1.6272l0.6971-0.2849-0.59745-0.23973c-1.8712-0.75219-7.6988-1.1892-13.705-1.23-0.58393-4e-3 -1.1698-0.0042-1.7535-5.13e-4zm-2.7789 6.5369-2.0579 5.1e-4 -0.59585 0.91477c-0.99439 1.5264-3.3471 4.1423-4.4922 4.9942-3.3891 2.5221-6.2534 2.5189-14.929 1.4193-11.505-1.4582-18.751-0.0612-22.767 3.7859-0.95364 0.91335-1.8136 2.9752-2.1834 4.2509l-0.12563 0.43376h8.8051l0.75064-0.58418c1.0124-0.78786 2.6173-1.3508 4.1921-1.4706 0.84827-0.0646 3.7948 0.17409 8.4643 0.68479 8.9531 0.97918 10.983 1.0995 13.572 0.80799 8.4136-0.94741 12.606-5.2226 13.286-13.552l0.13783-1.6864zm5.6027 0 1e-3 0.91476c0.0021 1.3781 0.5256 4.4332 0.9754 5.6893 1.7578 4.909 5.4557 7.6304 11.61 8.5456 2.7081 0.40262 5.0404 0.28695 14.175-0.70482 9.2708-1.0065 10.297-0.94995 12.635 0.6966l0.89483 0.97125 8.6987 0.0277 0.25976-0.76897c0.0961-0.28436-0.47487-1.2545-0.85666-2.0153-1.3145-2.6194-4.5398-4.585-8.4628-5.5486-4.3465-1.0677-7.78-1.399-15.751-0.41528-9.508 1.1735-12.61 0.95903-16.24-2.5575-0.9398-0.91046-2.2228-2.3706-2.8515-3.2448l-1.1434-1.5898h-1.9736z" fill="#fff" stroke-linecap="square" stroke-width="6.5896" style="paint-order:stroke markers fill"/>
  <path d="m46.832 82.969v16.144c1.8808 1.9041 5.6854 3.3116 11.413 4.2222-1.5388 2.2352-2.9067 3.6635-4.1037 4.2843-1.1969 0.5795-3.0991 0.86908-5.7067 0.86908-1.0259 0-2.8212-0.18595-5.3859-0.5585-3.719-0.53814-6.6044-0.80749-8.6562-0.80749-4.5738 0-8.4635 0.62111-11.67 1.8628-3.1632 1.2004-5.5357 2.8352-7.1173 4.905-1.5817 2.0697-2.3727 4.0982-2.3727 6.085v3.042h14.427c0-1.4488 1.2395-2.173 3.7188-2.173 0.51296 0 2.6507 0.22743 6.4123 0.68275 6.3263 0.74507 10.258 1.118 11.799 1.118 4.8729 0 8.9339-1.0142 12.183-3.0426 3.2915-2.0283 5.2793-4.781 5.9633-8.2581 0.68394 3.477 2.6505 6.2298 5.8991 8.2581 3.2915 2.0283 7.3737 3.0426 12.247 3.0426 1.5388 0 5.4713-0.37297 11.799-1.118 3.719-0.45532 5.856-0.68275 6.4118-0.68275 2.4792 0 3.7193 0.7242 3.7193 2.173h14.427v-3.042c0-3.27-1.8167-6.23-5.45-8.8792-3.5906-2.6492-8.8268-3.9737-15.709-3.9737-2.0518 0-4.9374 0.26937-8.6562 0.80749-2.6075 0.37255-4.4027 0.55852-5.3859 0.55852-2.6075 0-4.5098-0.28958-5.7067-0.86909-1.1969-0.6209-2.5861-2.0492-4.1677-4.2843 5.7278-0.91065 9.5539-2.3181 11.477-4.2222v-16.144c-0.68681-0.44802-1.3717-0.86794-2.0537-1.2613-0.60382-0.34822-1.2047-0.66753-1.804-0.97483-7.135-1.815-12.826-2.731-17.045-2.731-4.2238 0-9.8606 0.90546-16.866 2.6883-0.17465 0.08563-0.43071 0.17937-0.5948 0.26284-1.1011 0.56003-1.9615 1.0641-2.5466 1.4281-0.58509 0.36404-0.89484 0.58778-0.89484 0.58778zm20.903-1.4281c5.8135 0 11.542 0.93142 17.184 2.7942v2.5456l-3.1414 2.0493 3.1414 3.4148v3.3531c-3.8899-1.366-9.6176-2.0493-17.184-2.0493-7.566 0-13.293 0.68327-17.184 2.0493v-3.3531l3.142-3.4148-3.142-2.0493v-2.5456c5.6425-1.8626 11.37-2.7942 17.184-2.7942zm0 2.5462-5.2576 3.3526 5.2576 3.291 5.2576-3.291zm0 13.101c7.6089 0 12.631 0.47606 15.068 1.4281-3.2488 1.3245-8.2713 1.9867-15.068 1.9867-6.8393 0-11.883-0.66204-15.132-1.9867 2.4366-0.95204 7.4806-1.4281 15.132-1.4281zm-5.7709 6.5194h3.9112c0 10.224-5.4287 15.336-16.286 15.336-1.3251 0-4.9585-0.33101-10.9-0.99327-4.2319-0.49672-6.6686-0.74485-7.3097-0.74485-2.3937 0-4.3384 0.72419-5.8345 2.173h-8.6562c1.4106-5.8779 7.1169-8.8166 17.118-8.8166 1.3679 0 3.8902 0.24813 7.5663 0.74485 3.5052 0.45533 5.8777 0.68326 7.1173 0.68326 3.2915 0 5.8559-0.70398 7.6941-2.1113 1.8808-1.366 3.7403-3.4563 5.5784-6.271zm7.6305 0h3.9112c1.8381 2.8146 3.6762 4.905 5.5142 6.271 1.8381 1.4074 4.424 2.1113 7.7582 2.1113 1.2397 0 3.6121-0.22791 7.1173-0.68325 3.6762-0.49672 6.198-0.74485 7.5658-0.74485 10.003 0 15.689 2.9387 17.055 8.8166h-8.6561c-1.4534-1.4487-3.377-2.173-5.7708-2.173-0.64119 0-3.0774 0.24814-7.3091 0.74486-5.9844 0.66229-9.6178 0.99327-10.9 0.99327-10.858 0-16.286-5.1117-16.286-15.336z" color="#000000" color-rendering="auto" dominant-baseline="auto" image-rendering="auto" shape-rendering="auto" solid-color="#000000" stop-color="#000000" stroke-width="1.0094" style="font-feature-settings:normal;font-variant-alternates:normal;font-variant-caps:normal;font-variant-east-asian:normal;font-variant-ligatures:normal;font-variant-numeric:normal;font-variant-position:normal;font-variation-settings:normal;inline-size:0;isolation:auto;mix-blend-mode:normal;shape-margin:0;shape-padding:0;text-decoration-color:#000000;text-decoration-line:none;text-decoration-style:solid;text-indent:0;text-orientation:mixed;text-transform:none;white-space:normal"/>
  <path d="m65.994 53.026-0.06299 3.9394-0.05435 4.0203-3.9295 0.05523-3.929 0.05471v3.6565h7.9585v7.939h3.5809v-7.939h7.7601v-3.6642h-7.7601v-4.072l0.0094-3.9899z" stroke-width=".26981" style="paint-order:stroke markers fill"/>
  <rect transform="matrix(.63079 .77595 -.63079 .77595 0 0)" x="66.152" y="-41.236" width="7.6295" height="7.6295" fill="#fff" stroke="#000" stroke-linecap="square" stroke-width="8.1446" style="paint-order:stroke markers fill"/>
 </g>
</svg>
