<?xml version="1.0" encoding="UTF-8"?>
<svg width="512" height="512" version="1.1" viewBox="0 0 135.47 135.47" xmlns="http://www.w3.org/2000/svg" xmlns:cc="http://creativecommons.org/ns#" xmlns:dc="http://purl.org/dc/elements/1.1/" xmlns:rdf="http://www.w3.org/1999/02/22-rdf-syntax-ns#">
 <defs>
  <filter id="filter985" x="-1.2271e-6" y="-1.1741e-6" width="1" height="1" color-interpolation-filters="sRGB">
   <feGaussianBlur stdDeviation="5.9194383e-05"/>
  </filter>
 </defs>
 <metadata>
  <rdf:RDF>
   <cc:Work rdf:about="">
    <dc:format>image/svg+xml</dc:format>
    <dc:type rdf:resource="http://purl.org/dc/dcmitype/StillImage"/>
    <dc:title/>
   </cc:Work>
  </rdf:RDF>
 </metadata>
 <g transform="matrix(.95699 0 0 .95699 2.9145 5.5147)" filter="url(#filter985)">
  <g transform="matrix(1.1217,0,0,1.1217,-11.304,-8.2408)" stroke-width=".26458">
   <path d="m122.07 117.13h-74.578c0-7.516 0.94453-13.284 2.8336-17.303 1.8891-4.0193 5.2251-7.4156 10.008-10.189 6.0691-3.4968 9.1036-7.918 9.1036-13.264 0-1.2058-0.40193-2.4317-1.2058-3.6776-2.1302 1.7283-7.8175 3.6977-17.062 5.9083-3.2154 0.92443-5.1849 4.0193-5.9083 9.2845-0.40193 2.4919-1.2259 4.4413-2.4719 5.848-1.2058 1.3666-2.6527 2.0498-4.3408 2.0498-4.3408 0-8.7017-1.7484-13.083-5.2451-4.3408-3.537-6.5112-7.4758-6.5112-11.817 0-3.3762 2.3312-8.1792 6.9935-14.409 3.3762-4.5418 5.5265-7.717 6.4509-9.5257 0.92443-1.8087 1.5474-4.0394 1.869-6.6921 0.32154-2.8939 0.66318-4.9236 1.0249-6.0892 0.40193-1.2058 1.2862-2.8336 2.6527-4.8834 1.8087-2.6527 2.9341-4.9236 3.3762-6.8127 0.48231-1.8891 0.72347-4.4614 0.72347-7.717v-7.5361c3.7781 1.6479 7.4357 5.5064 10.973 11.576l3.1953-0.12058c1.5273-2.6929 2.6728-6.9332 3.4365-12.721 2.8135 1.2862 5.3858 3.7379 7.717 7.3553 2.3312 3.5772 3.959 6.0691 4.8834 7.4758 17.283 2.2106 29.923 8.6012 37.922 19.172 7.9984 10.53 11.998 28.456 11.998 53.778zm-70.538-3.4365c-34.354-75.796 17.177 37.898 0 0z" fill="#fff"/>
   <g aria-label="♘">
    <path d="m122.07 117.13h-74.578q0-11.274 2.8336-17.303 2.8336-6.0289 10.008-10.189 9.1036-5.2451 9.1036-13.264 0-1.8087-1.2058-3.6776-3.1953 2.5924-17.062 5.9083-4.8231 1.3866-5.9083 9.2845-0.60289 3.7379-2.4719 5.848-1.8087 2.0498-4.3408 2.0498-6.5112 0-13.083-5.2451-6.5112-5.3054-6.5112-11.817 0-5.0643 6.9935-14.409 5.0643-6.8127 6.4509-9.5257t1.869-6.6921q0.48231-4.3408 1.0249-6.0892 0.60289-1.8087 2.6527-4.8834 2.713-3.9791 3.3762-6.8127 0.72347-2.8336 0.72347-7.717v-7.5361q5.6672 2.4719 10.973 11.576l3.1953-0.12058q2.291-4.0394 3.4365-12.721 4.2202 1.9292 7.717 7.3553 3.4968 5.3657 4.8834 7.4758 25.924 3.3159 37.922 19.172 11.998 15.796 11.998 53.778zm-6.2098-3.4365v-9.6462q0-38.344-10.551-53.657-10.551-15.374-34.606-18.328-1.3866-1.0249-3.7982-5.3054-3.1953-5.6069-5.2451-6.9332-1.3866 7.1744-1.5675 8.6213-0.18087 1.3866-1.4469 3.8585-1.2058 2.4719-2.6527 2.4719-1.2058 0-1.2058-1.8087 0-1.0249 0.48231-2.4719l-7.8979 3.7982-0.24116-1.3264q1.3264-1.9895 2.8336-2.5924 0-4.1599-4.582-8.4405 0 6.7524-0.78376 9.6462-0.72347 2.8336-3.7982 7.5361-1.869 2.9542-2.3513 4.4011-0.48231 1.4469-0.84405 5.4863-0.24116 2.9542-1.5675 5.7878-1.2661 2.7733-7.3553 11.515-3.9188 5.6069-5.1849 7.8979-1.2058 2.2307-1.2058 4.2805 0 4.2202 2.9542 7.295 2.9542 3.0747 4.7025 3.0747 0.90434 0 2.4116-2.9542 2.713-5.426 4.4011-5.426 2.0498 0 2.0498 2.2307 0 1.7484-1.6881 4.0394-1.6881 1.9895-2.8336 4.3408 1.6881 1.2661 3.9188 1.2661 2.713 0 3.6173-4.9437 1.5675-10.008 7.5361-11.756 4.4614-1.0852 9.1639-2.4719 4.7628-1.3866 7.1141-2.713 2.4116-1.3866 3.6776-2.8939 1.3264-1.5072 3.6173-6.0892 0.48231 0.36174 0.96462 0.84405-1.2058 3.6776-1.2058 6.5715l0.24116 7.5964q0 10.068-10.49 15.856-5.6672 3.0747-8.3199 8.0184-2.5924 4.9437-2.5924 13.324zm-61.977-66.439q-2.291 0.5426-3.7982 1.7484 0.24116 1.9292 0.24116 2.3513 0 0.84405-2.1101 1.9292l-2.5924-0.36174-0.48231 0.78376v2.5924q-2.8336-2.2307-2.8336-3.7379 0-2.1101 3.135-4.2202 3.1953-2.1704 5.2451-2.1704h2.713zm-23.452 27.552q-0.48231 1.6278-1.869 2.713l1.7484 2.1101q0 1.0249-0.72347 1.6881-0.72347 0.66318-1.6278 0.66318-1.869 0-1.869-2.8939 0-1.8087 1.2058-3.0145 1.2661-1.2661 3.135-1.2661z" stroke-width=".26458"/>
   </g>
  </g>
 </g>
</svg>
