<?xml version="1.0" encoding="UTF-8"?>
<svg width="512" height="512" version="1.1" viewBox="0 0 135.47 135.47" xmlns="http://www.w3.org/2000/svg" xmlns:cc="http://creativecommons.org/ns#" xmlns:dc="http://purl.org/dc/elements/1.1/" xmlns:rdf="http://www.w3.org/1999/02/22-rdf-syntax-ns#">
 <metadata>
  <rdf:RDF>
   <cc:Work rdf:about="">
    <dc:format>image/svg+xml</dc:format>
    <dc:type rdf:resource="http://purl.org/dc/dcmitype/StillImage"/>
    <dc:title/>
   </cc:Work>
  </rdf:RDF>
 </metadata>
 <g transform="matrix(1.0092 0 0 .88415 -.16641 17.923)">
  <g stroke-width=".31256" aria-label="♙">
   <path d="m105.19 119h-75.819v-4.2732q0-16.177 16.299-19.596 13.613-20.45 13.613-35.285v-2.625h-14.773v-2.7471q0-3.5407 3.1744-6.8371 3.1744-3.2965 8.9737-5.4331-3.9069-4.6395-3.9069-10.378 0-5.9215 4.2732-10.195t10.256-4.2732 10.256 4.2732 4.2732 10.195q0 5.7383-3.9069 10.378 5.7994 2.1366 8.9737 5.4331 3.1744 3.2965 3.1744 6.8371v2.7471h-14.773v2.625q0 14.834 13.613 35.285 16.299 3.4186 16.299 19.596zm-18.924-65.258q-0.7936-5.7994-13.247-10.378 5.2499-5.4331 5.2499-11.538 0-4.5784-3.2354-7.7528-3.1744-3.2354-7.7528-3.2354t-7.8139 3.2354q-3.1744 3.2354-3.1744 7.7528 0 6.1046 5.2499 11.538-12.453 4.5784-13.247 10.378zm15.384 61.778q0-8.1802-3.6017-12.148-3.5407-4.029-11.782-5.7383-14.468-21.61-14.468-40.412h-9.0348q0 18.802-14.468 40.412-8.2412 1.7093-11.843 5.7383-3.5407 3.968-3.5407 12.148z" stroke-width=".31256"/>
  </g>
  <path d="m32.887 112.95c0.89958-8.0679 4.6769-12.456 12.623-14.666 2.6946-0.74915 2.8657-0.88487 4.6216-3.6651 7.1377-11.302 11.584-23.408 12.291-33.464l0.29034-4.1302h9.1122l0.26127 3.6837c0.71635 10.1 4.816 21.664 11.575 32.649l2.4369 3.9608 3.088 0.98713c4.5166 1.4438 6.5187 2.6102 8.7606 5.1037 2.1573 2.3994 3.2273 5.1328 3.7347 9.5408l0.29555 2.5674h-69.376z" fill="#fff" stroke-linecap="square" stroke-width="15.027" style="paint-order:stroke markers fill"/>
  <path d="m68.004 20.731c-1.8922-0.0025-3.8659 0.35238-5.1987 0.96758-2.4067 1.1109-4.9082 2.675-6.0772 5.9966-1.4537 4.1304-1.2625 8.8659 3.3063 14.003 0.73507 0.82657 1.2497 1.5696 1.1556 1.6409-0.09408 0.07135-1.2663 0.59018-2.6048 1.1526-5.5654 2.3382-10.684 6.4608-10.375 8.9353l0.06959 0.55247c0.03968 0.31741 6.0383-0.08363 18.99-0.08363 12.952 0 19.328 0.35896 19.328 0.03907 0-1.0699-1.3627-3.6241-3.3423-5.3666-1.8947-1.6678-8.2955-4.7359-9.4231-5.032-0.68371-0.17957-0.62272-0.33579 1.0237-2.2593 3.0587-3.5734 4.503-9.7691 2.8954-13.628-0.91232-2.19-3.5997-5.1861-5.822-6.2188-1.0324-0.47978-2.4548-0.69769-3.9265-0.69959zm3.3069 36.22c-0.57756-0.014-1.7219 0.01041-4.0004 0.03054l-4.5968 0.04029-0.04823 0.31439c-0.0385 0.19536-0.14987 1.5388-0.24724 2.9852-0.20082 2.9833-0.58552 5.6859-1.2002 8.4311-1.6718 7.4667-5.2116 15.993-9.8913 23.828-1.8396 3.0796-2.7603 4.35-3.4583 4.7714-0.29208 0.17635-1.5614 0.64582-2.8203 1.0433-7.135 2.2525-10.463 5.5992-11.744 11.81-0.22624 1.0968-0.72706 4.8586-0.72706 5.3531 0 0.19901 4.5102-9e-3 34.732-9e-3h34.732l-0.0806-0.59215c-0.0443-0.3256-0.18996-1.428-0.32355-2.4498-0.67915-5.1944-2.2288-8.325-5.3415-10.792-1.692-1.3408-3.83-2.37-7.2035-3.4686-1.5194-0.49485-2.8466-0.96522-2.9498-1.0451-0.40513-0.31324-4.7733-7.7866-6.2078-10.62-3.9745-7.8517-6.5853-15.841-7.4806-22.891-0.21531-1.6952-0.52603-6.2664-0.54575-6.5399-0.0096-0.1332-0.0201-0.18562-0.59764-0.19962z" fill="#fff" stroke-linecap="square" stroke-width="15.027" style="paint-order:stroke markers fill"/>
 </g>
</svg>
