<svg xmlns="http://www.w3.org/2000/svg" width="100%" height="100%" viewBox="0 0 60 60" fill="none"><path d="M30.416 9c1.666 0 2.975 1.652 2.975 2.95 0 1.415-1.07 2.477-2.38 2.949.714.944 2.38 1.652 4.165 2.713 4.045 2.242 7.376 4.72 7.376 8.967 0 3.775-1.308 5.309-2.736 6.606-.595.59-.238 4.248-.238 7.079 0 1.534-2.975 2.36-6.306 2.713.357.708 1.07 1.298 2.498 1.298 1.666 0 4.64-.118 7.615-.118 4.997 0 7.615 2.714 7.615 2.714L48.264 51s-3.094-2.477-10.59-2.477c-4.164 0-7.139-1.888-7.614-3.422-.357 1.534-2.737 3.422-7.496 3.422-6.782 0-10.828 2.477-10.828 2.477L9 46.87s2.617-2.713 7.258-2.713c3.45 0 6.306.118 8.09.118 1.428 0 2.142-.708 2.499-1.297-3.45-.354-6.306-1.18-6.306-2.714 0-2.36.357-6.253-.357-6.96-1.07-1.062-2.736-2.596-2.736-6.607 0-5.31 4.878-7.55 7.971-9.439 1.309-.707 2.737-1.415 3.45-2.241-1.19-.472-2.141-1.534-2.141-2.714C26.966 10.77 28.632 9 30.416 9z" fill="#000"></path><path d="M30.602 8c2.018 0 3.901 1.884 3.901 3.633 0 1.346-.942 2.557-2.153 3.23.404.672 1.75 1.48 2.96 2.152 3.633 2.019 7.938 4.306 7.938 9.823 0 4.306-1.884 5.651-2.825 6.728-.539.672-.27 4.844-.27 6.862 0 1.346-2.421 2.422-5.919 2.96.538.404 1.21.404 2.018.404 1.749 0 3.498-1.211 6.996-1.076 5.516 0 8.34 2.825 9.283 3.633L48.764 52c-1.077-.673-4.844-2.826-9.821-2.826-4.44 0-7.669-.672-8.745-2.287-1.076 1.614-4.305 2.287-8.745 2.287-4.843 0-8.61 2.153-9.686 2.826L8 46.349c.942-.808 3.767-3.633 9.283-3.633 3.498 0 5.247 1.076 6.861 1.076.807 0 1.48 0 2.018-.404-3.767-.403-5.785-1.614-5.785-2.96 0-2.018.404-6.19-.269-6.862-1.076-1.077-2.825-2.422-2.825-6.728 0-5.517 4.305-7.67 7.937-9.823 1.211-.672 2.826-1.614 2.96-2.153-1.076-.672-1.749-1.749-1.749-2.96C26.297 9.884 28.45 8 30.601 8zm7.937 38.887c4.574 0 7.803 1.345 9.417 2.018l1.48-2.422c-1.076-.807-3.363-2.018-6.323-2.018-3.094 0-5.112.673-6.861.673-2.287 0-3.632-.673-4.305-1.75h-3.632c-.673 1.077-2.153 1.75-4.575 1.75-1.614 0-3.497-.673-6.726-.673-3.095 0-5.247 1.21-6.458 2.018l1.615 2.422c1.48-.807 4.708-2.018 9.282-2.018 3.902 0 7.13-.404 8.341-2.019h.404c1.345 1.75 4.17 2.019 8.341 2.019zM21.857 34.373c1.883-1.076 4.978-1.615 8.206-1.615 3.364 0 6.189.673 8.207 1.615 0-.807.27-1.615.404-1.884.807-1.076 2.287-2.287 2.287-5.651 0-4.575-4.44-6.863-6.996-8.477-1.345-.942-3.767-2.288-3.902-2.826-.134.538-2.421 1.884-3.901 2.826-2.556 1.614-6.996 3.767-6.996 8.477 0 3.364 1.48 4.71 2.287 5.651.27.27.404.942.404 1.884zm.134 1.75v2.152c1.346-.942 4.306-1.614 8.072-1.614 3.767 0 6.593.672 8.072 1.48v-2.019c-2.287-1.076-4.843-1.345-8.072-1.345-3.363 0-5.919.403-8.072 1.345zm8.207 5.785c2.152 0 8.072-.269 8.072-1.614 0-1.077-4.17-1.615-8.072-1.615-3.632 0-8.072.673-8.072 1.615-.135 1.345 5.247 1.614 8.072 1.614zM28.853 26.3h-3.23v-2.422h3.23v-3.095h2.556v3.095h3.229V26.3h-3.23v3.23h-2.555V26.3zm1.345-12.783c.942 0 2.018-.807 2.018-1.884 0-.673-.673-1.75-1.614-1.75-1.077 0-2.018 1.077-2.018 2.02 0 .672.807 1.614 1.614 1.614z" fill="#a0a0a0"></path></svg>
