<svg xmlns="http://www.w3.org/2000/svg" viewBox="0 0 60 60" fill="none"><path d="M26.3 11.8h3.6V9h1.9v2.9h2.7v2.6h-2.7v3c2 .5 3.7 1.7 3.7 4.6 0 .6-.7 2.1-.9 2.6 2-1.8 5-3 7.8-3 5.5 0 8.6 3.4 8.6 7.5C51 36 46.5 39 44.3 41c-.2.3-.2.5-.2 1v6.2c0 2.6-6.1 3.8-13.6 3.8-7.7 0-13.6-1.2-13.6-3.8l.2-6.3c0-.5 0-.6-.3-.9C14.2 39 10 36 10 29.1c0-4.1 3-7.4 8.6-7.4 2.7 0 5.6 1.8 7.7 3.7-.3-.6-.9-2.7-.9-3.3 0-3 2.4-4 4.5-4.6v-3h-3.6v-2.7z" fill="#000"></path><path d="M30.5 52c-8.3 0-14.3-1.8-14.3-4.4l.2-5.4c0-.8 0-1.3-.3-1.5C13.3 37.9 9 35 9 29c0-4.8 4-8.2 9-8.2 3.9 0 6.3 1.6 7.6 3 0-.4-.4-1.1-.4-1.8 0-2.5 1.4-4.6 4-5v-2.6H26v-2.8h3V9H32v2.9h2.9v2.7h-3v2.5a5 5 0 014 5c0 .7-.2 1.4-.4 1.8A12 12 0 0143 21c5 0 9 3.6 9 8.2 0 6.3-4.2 9.1-7 11.7-.5.5-.4.9-.4 1.5l.2 5.6c.1 2-5 4-14.3 4zM16.4 38.8c2.3-1.5 8-3.2 13.3-3.3-.4-7.3-5.3-12.2-11.7-12.2-4.3 0-6.8 2.9-6.8 6.3 0 4 2.8 6.8 5.2 9.2zm26.3 2.4c.1-.5.4-1 .7-1.2-2.4-1.2-8-2.5-12.9-2.5-5 0-10.5 1.3-12.9 2.5l.7 1c2.5-1.1 6.5-2 12.2-2 5.8 0 9.8 1 12.2 2.2zm-.1 3.4v-1.5c-2.3-1-7.4-1.9-12-1.9-4.7 0-9.7.8-11.9 2l-.1 1.4c2.2-1 6.6-1.7 12-1.7 5.6 0 9.5.8 12 1.7zM19 48c1.8 1.3 7 1.8 11.5 1.8 4.2 0 9.3-.5 11.2-1.6.5-.3.7-.6.7-1 0-.5-1-1-1.6-1a46 46 0 00-10.3-1.3c-4.3 0-10.4.7-11.8 1.8a1 1 0 00-.3.5c0 .4.3.6.6.8zm14.7-25.6c0-1.7-1-3.3-3.2-3.3s-3.2 1.6-3.2 3.3c0 2 1.4 3.3 3.2 7.8 1.8-4.5 3.2-5.8 3.2-7.8zm-2.2 13a29 29 0 0113.1 3.4c2.4-2.4 5.2-5 5.2-9.3 0-3.2-2.5-6.3-6.8-6.3-6.3.1-11.1 5-11.5 12.3z" fill="#a0a0a0"></path></svg>
