<svg xmlns="http://www.w3.org/2000/svg" width="100%" height="100%" viewBox="0 0 60 60" fill="none"><path d="M22.7 49h25.6c.3-1.3.7-3.6.7-7 0-14.9-9-26.4-19-28h-.7l-.1-.8a6.7 6.7 0 00-2-3.2c-.7.6-1.8 1.7-2 4v.8a9.8 9.8 0 00-3.2 1.8v-.3c.4-.7 1.2-1.5 1.5-1.8-.1-.6-2-2.3-2.6-2.7-1-.7-2-1-2.7-1l-.6 1.7c0 1.8.3 3.9.6 5-1.4 1-1.5 2.5-1.8 3.3-.8 2.4-.7 3.6-1.5 5-2.1 3.7-3.9 6-3.9 7.8 0 2.6.1 5 2.2 5 .5 0 1.3 0 2-.4 0 .7.7 1.3 1.2 1.3 1.8 0 2.6-3.7 4.6-5 4.4-3 10-2.7 10-10h1c0 3.6-1.3 5-2.5 6.5.4 6.9-3.6 9-6 14-1 1.7-.8 3.3-.8 4z" fill="#000" fill-rule="evenodd" clip-rule="evenodd"></path><path d="M50.5 51H19.8c-.1-1.9-.1-4.2 1.5-7.2 2-3.8 6.5-5.8 6.8-11.2-1.6 1-3.4 1.7-5 2.7-2.8 1.6-2.8 5.8-6.4 6.2-1.3.2-2.1-.4-2.5-1h-.7c-2.8 0-4.5-2.2-4.5-6.7 0-1.9 1.9-4.5 4.4-8.5.8-1.3.4-2.5 1.3-4.6.4-1.1 1.2-2 2.3-3.3-.1-.7-.4-1.6-.4-3 0-1.5 0-3.1.7-4.6 0 0 2.6-.1 4.8 1.6l1.6 1.5c1-2.1 2.9-3.6 3.7-3.9.8.5 2.8 2.3 3.6 4.7 10.8 2 20 13.9 20 29 0 4.6-.3 7.4-.5 8.3zm-27.6-2.2h24.8c.2-1.2.6-3.5.6-6.7 0-14.4-8.8-25.5-18.6-27L29 15l-.1-.7a6.5 6.5 0 00-2-3.1c-.7.5-1.8 1.6-2 3.9v.7c-1.2.4-2.3 1-3.1 1.7l-.7-.8c.4-.7 1.2-1.5 1.5-1.7-.1-.6-1.2-1.7-1.9-2-1-.7-2-1-2.6-1v2c0 1.8.4 3 .6 4a7.6 7.6 0 00-2.4 3.6c-.8 2.3-.6 3.5-1.4 4.9-2.2 3.5-3.9 5.8-3.9 7.4 0 2.6.4 4.5 2.4 4.5.5 0 1.3 0 2-.3 0 .7.7 1.2 1.2 1.2 1.7 0 2-3.6 4-4.8 4.3-3 10.1-3.3 10.1-10.3h1.4c0 3.5-1 5.5-2.2 7 .4 6.7-3.7 8.8-6.1 13.6-1 1.6-1 3.4-1 4zm-7.2-14.3c0 .5-.8.5-.8 1s-.6 1.1-1.1 1.1c-.4 0-.8-.4-.8-1 0-.7.7-2.5 1.6-2.5s1 .8 1 1.4zm6.1-14c.7 0 .7.6.7.8 0 .6-1 .2-1 1 0 .5.6 1.3-.6 1.9-1.2.5-1.6 0-1.8.5 0 .2-.5.6-.9.6s-.7-.4-.7-.9c.3-2.1 2.3-3.9 4.3-3.9z" fill="#a0a0a0"></path></svg>
