<svg xmlns="http://www.w3.org/2000/svg" width="100%" height="100%" viewBox="0 0 60 60" fill="none"><path d="M10.8 16c1.3 0 2.5 1.4 2.5 2.5 0 .8-.6 1.6-1.3 2.1 1.5 2.8 3.5 7 6.2 11 .3 0 .5 0 .8-.2L18.7 17c-1.2-.2-2.1-1.3-2.1-2.3 0-1.4 1.4-2.7 2.8-2.7 1.3 0 2.5 1.4 2.5 2.5 0 .8-.6 1.6-1.4 2.1 1 3.8 3 9.5 4.8 13.5h.8c.3-5.1 1.7-11.4 2.2-15.3-.9-.3-1.6-1.3-1.6-2 0-1.5 1.4-2.8 2.9-2.8 1.3 0 2.4 1.4 2.4 2.5 0 1-.8 2-1.7 2.3.4 4 1.9 10.4 2.2 15.3h.8c2-4 4-9.7 4.9-13.5-.7-.5-1.2-1.2-1.2-1.9 0-1.4 1.4-2.7 2.8-2.7 1.3 0 2.5 1.4 2.5 2.5 0 1.3-1.2 2.3-2.4 2.6 0 3.7 0 9-.2 14.5.2 0 .5 0 .7.2 2.7-4.1 4.7-8.4 6.2-11.2-.5-.5-.9-1.2-.9-1.8 0-1.4 1.4-2.7 2.8-2.7 1.3 0 2.5 1.4 2.5 2.5 0 1.4-1.5 2.6-2.8 2.6H48c-1.5 4.8-2.4 13.4-3.3 17-.4 1.5-2.8 3.4-2.8 4.6l.3 4.8c0 2.1-5.6 3.4-13 3.4-7 0-13-1.3-13-3.5 0-1.7.3-3.5.3-4.7 0-1.2-2.2-2.8-2.6-4.5-.8-3.7-2-12.3-3.4-17.1h-.1C9.2 21.2 8 20 8 18.8a3 3 0 012.8-2.8z" fill="#000"></path><path d="M10.9 15c1.7 0 3.2 1.7 3.2 3.3 0 .8-.4 1.6-1 2.3 1 2.2 3 5.2 5.2 8.7l-.2-11.9c-1-.5-1.9-1.7-1.9-2.7 0-1.7 1.7-3.6 3.6-3.6 1.8 0 3.2 1.8 3.2 3.4 0 1-.5 1.8-1.3 2.5 1 3.4 2.5 8 4.1 11.8.7-4.6 1.6-10.2 2-13.7-1-.5-1.6-1.6-1.6-2.6C26.2 10.7 28 9 30 9c1.7 0 3.2 1.7 3.2 3.3 0 1.2-.7 2.2-1.6 2.8.4 3.5 1.3 9.3 2.1 14 1.6-4 3.2-8.7 4.1-12-.6-.6-1-1.3-1-2 0-1.8 1.7-3.7 3.6-3.7 1.7 0 3.2 1.7 3.2 3.3 0 1.4-1 2.6-2.3 3.1L41 29.6c2.3-3.6 4.5-6.8 5.5-9-.4-.5-.6-1.2-.6-1.7 0-1.8 1.7-3.6 3.6-3.6 1.7 0 3.2 1.7 3.2 3.3 0 1.8-2 3.4-3.5 3.5-1.2 5-2.4 11.7-3.7 16.8-.4 1.7-2.9 3.2-2.9 5l.3 3.8c0 2.6-5.3 4.3-13.3 4.3-7.8 0-13.4-1.6-13.4-4.3l.3-3.8c0-1.8-2.4-3.3-3-5.3-1.2-4.9-2.5-11.4-3.6-16.5-1.6-.3-2.9-1.7-2.9-3 .3-2.2 2-4 3.9-4zm-.4 5c.6 0 1.7-.7 1.7-1.5 0-.7-.7-1.4-1.3-1.4C10 17.1 9 18 9 19c0 .4.7 1 1.4 1zm4.2 14c1.1-.7 2.2-1.4 3.4-1.8L12.2 23l2.5 11zm28 5.6c.5-.7.9-1.4 1.2-2.3 0-.4.2-1 .4-1.5-4.2-2.9-10-3.7-14.7-3.7-5 0-11.1 1-14.6 3.5.1.4.3.6.3 1 .2 1.2.8 2 1.4 2.8 2.7-1.6 7.4-3 13-3a26 26 0 0113 3.2zM41 42l.7-1a26.2 26.2 0 00-12-2.8c-4.7 0-9.5 1.1-12 2.6.2.4.5.7.6 1.2a25 25 0 0111.4-2.2c5.3 0 9 1.1 11.3 2.2zM19.6 16h.3c.7-.2 1.4-.7 1.4-1.4s-.5-1.3-1.4-1.3c-.7 0-1.7.8-1.7 1.7 0 .4.7 1 1.3 1zm10.1 33.5c5.5 0 11-1 11-2.3 0-1.2-5.7-2.1-11-2.1-5 0-11 .9-11 2 0 1.6 6 2.4 11 2.4zm11-4.4v-1.5c-2-1-6.7-1.9-11-1.9s-9 .8-11 1.9v1.3c2.2-1 5.8-1.7 11-1.7 5 0 8.8.8 11 1.9zM20.5 31.3a20.6 20.6 0 014-.8 76.7 76.7 0 01-4.3-12.4c0 3.7.3 8.7.3 13.2zm11.6-1c-.7-5.3-1.6-10.8-2.2-14.4l-2.1 14.3H32zm-2.4-16.6c.6 0 1.7-.7 1.7-1.5 0-.7-.5-1.3-1.3-1.3s-1.8.8-1.8 1.6c0 .5.7 1.2 1.4 1.2zm9.7 17.9c0-4.8.3-9.8.4-13.5-1 3.6-2.8 8.7-4.5 12.4l4.1 1zm.7-15.7h.2c.7 0 1.8-.6 1.8-1.4 0-.7-.6-1.4-1.4-1.4-.8 0-1.7.8-1.7 1.8-.1.4.4 1 1 1zm4.7 18.2l2.5-11-5.8 9.1c1.4.7 2.3 1.2 3.3 1.9zm4.5-14.2c.7 0 1.7-.6 1.7-1.4 0-.7-.6-1.4-1.3-1.4-.8 0-1.7.8-1.7 1.8 0 .4.6 1 1.3 1z" fill="#a0a0a0"></path></svg>
