<svg width="100%" height="100%" fill="none" viewBox="0 0 60 60" xmlns="http://www.w3.org/2000/svg"><path d="M30.5 8c1.7 0 3 1.7 3 3 0 1.6-1 2.7-2.4 3.2.7 1 2.4 1.7 4.2 2.8 4 2.4 7.4 5 7.4 9.4 0 4-1.3 5.6-2.8 7-.6.6-.2 4.4-.2 7.4 0 1.6-3 2.4-6.3 2.8.3.7 1 1.4 2.5 1.4l7.6-.2c5 0 7.7 2.9 7.7 2.9L48.4 52s-3-2.6-10.6-2.6c-4.2 0-7.2-2-7.7-3.6-.3 1.6-2.7 3.6-7.5 3.6-6.8 0-10.9 2.6-10.9 2.6L9 47.7s2.6-2.9 7.3-2.9l8.1.2c1.4 0 2.2-.8 2.5-1.4-3.4-.4-6.3-1.2-6.3-2.8 0-2.5.3-6.6-.4-7.3-1-1.2-2.7-2.8-2.7-7 0-5.5 4.9-7.9 8-9.8 1.3-.8 2.7-1.5 3.4-2.4-1.1-.5-2.1-1.6-2.1-2.8.2-1.6 2-3.5 3.7-3.5zm-.4 26.6c2.8 0 5.3.3 7.7 1.5v-1.6a17 17 0 00-7.7-1.8c-2.8 0-5.7.8-7.7 1.9V36a19 19 0 017.7-1.5zm0 4.2c2.3 0 6 .3 7.7 1v-1.4c-1.8-1-5-1.5-7.7-1.5-2.8 0-6 .6-7.8 1.6V40c1.4-.7 4.9-1.2 7.8-1.2zm1.4-9.3v-3.2h3.2v-2.5h-3.2v-3.2h-2.6v3.2h-3v2.5h3v3.2h2.6z" fill="#fff"></path></svg>
