<svg xmlns="http://www.w3.org/2000/svg" viewBox="0 0 61 60" fill="none"><path d="M25.7 11.7h3V9h2.6v2.9H34v2.6h-2.7v2.3c2 .5 3.7 2.2 3.7 5 0 .7-.1 1.3-.3 1.8a10 10 0 017.1-2.8c5.6 0 8.8 4 8.8 8.2 0 6.5-4.6 9.6-6.7 11.6-.3.2-.3.5-.3.9l.2 6.2c0 2.6-6.2 4.3-13.7 4.3-7.7 0-13.7-1.7-13.7-4.3v-6.2c0-.5 0-.7-.2-.9-2.6-2.1-6.8-5-6.8-11.8 0-4 3.2-8 8.8-8 2.7 0 5 1 7 2.8A4 4 0 0125 22a5 5 0 013.7-5v-2.4h-2.9v-2.8zM18 23.3c-4.2 0-6.3 3-6.3 6.3 0 4.8 2.6 7 6 10.3 2.6-1.5 8-2.8 11.5-2.8 0-7.2-4.6-13.8-11.2-13.8zm.3 14.7c-3.2-2.9-4.7-5-4.7-8.4 0-2.6 2-4.6 4.7-4.6 4.9 0 8.6 4.3 9.3 10.8-2.8.2-6.7 1-9.3 2.2zm0 5c1.9-1.2 7-2 11.7-2 4.7 0 9.8.8 11.8 2v-1.5A26.1 26.1 0 0030 39.2c-5.5 0-9.3 1-11.7 2.3V43zm0 3.5c1.9-1.2 7-2 11.7-2 4.7 0 9.8.8 11.8 2v-1.6A26.4 26.4 0 0030 43c-5.5 0-9.3.8-11.7 2v1.6zm14.7-24.2c0-1.6-1-3.3-3-3.3s-3 1.6-3 3.3c0 2 1.5 3.3 3 7.8 1.7-4.5 3-5.7 3-7.8zM30 21c.8 0 1.2.8 1.2 1.6s-.4 2-1.2 3.7c-.7-1.7-1.2-3-1.2-3.7 0-1 .5-1.6 1.2-1.6zm12.4 18.7c3.5-3.3 6-5.7 6-10.3 0-3.4-2.1-6.3-6.3-6.3-6.5 0-11.2 6.7-11.2 14a31 31 0 0111.5 2.6zM41.7 25c2.8 0 4.7 2 4.7 4.6 0 3.4-1.6 5.5-4.7 8.4-2.6-1.1-6.5-2-9.4-2.2.8-6.4 4.6-10.8 9.4-10.8z" fill="#fff"></path></svg>
