<svg width="100%" height="100%" fill="none" viewBox="0 0 60 60" xmlns="http://www.w3.org/2000/svg"><path d="M18.5 17.4c-.2-.6-.5-1.9-.5-4L18 10l.1-.3s2.2 0 3.8 1.4c1.5 1.1 2.3 2.3 2.6 2.8h.2c.4-3 2.8-4.9 2.8-4.9h.5s1.9 2 2.5 4.6C41.2 15 50.2 26.8 50.2 42c0 5.4-.4 8.9-.4 8.9H21.6s-.2-2.1.4-4c2-6 7.8-9 7.8-14.5 0-.5-.3-.6-.5-.6-.2 1.4-5 2.5-7.2 4.4-2.1 1.9-2.8 5.4-4.8 5.4-.8 0-1.6-.6-1.6-1.3l-1.5.1c-2.4 0-4.2-2.6-4.2-6 0-2 1.8-4.9 4.3-9 .8-1.4.6-2.8 1.4-5l2.8-3.1zM13 35.6c0 .7.4 1 .7 1 .5 0 1-.5 1-1s.8-.7.8-1.2c0-.4 0-1.3-1-1.3s-1.5 1.6-1.5 2.5zm3 2.2c0 .6.3.8 1 .8.6 0 1-.8 1-1.3s-.4-.8-.7-.8-1.2.7-1.2 1.3zm3-13.1c.3 0 .8-.4.8-.6.1-.6.6 0 1.6-.6 1.1-.5.6-1.4.6-1.9 0-.7.9-.5.9-1 0-.2 0-.7-.7-.7a4 4 0 00-4 4c.2.4.5.8.7.8zm3.4-6s1-.7 2.7-1.3l-.3-1.2c-2 .7-3.1 1.7-3.1 1.6l.7 1zm8.7 7.1c-.1 1.6-.7 3-.7 3l1.4.3s1-1 1-2.7c0-1.7-.8-2.7-.8-2.7h-1s.2 1 0 2.1zM47 48.9c.4-1.6.6-3.7.6-6.5 0-15.6-9-25.7-16.6-27 0 .8-.2 1.3-.3 1.5 8.6 1.2 14.4 14.5 14.4 24.7 0 2.7-.2 5.4-.6 7.3H47z" fill="#fff"></path></svg>
