<svg width="100%" height="100%" fill="none" viewBox="0 0 60 60" xmlns="http://www.w3.org/2000/svg"><path d="M10.9 15.3c1.3 0 2.5 1.5 2.5 2.6 0 .9-.6 1.7-1.3 2.2 1.5 3 3.6 7.3 6.3 11.6.2 0 .5 0 .7-.2L19 16.3a2.6 2.6 0 01-2.2-2.4c0-1.4 1.5-2.8 3-2.8 1.2 0 2.4 1.5 2.4 2.6 0 .9-.6 1.7-1.4 2.2 1 4 3 10 4.9 14.2h.8c.3-5.4 1.7-12 2.2-16-.9-.4-1.6-1.4-1.6-2.3C27 10.4 28.5 9 30 9c1.3 0 2.5 1.5 2.5 2.6s-.8 2.1-1.8 2.5c.5 4.2 2 10.8 2.3 16h.8a96 96 0 005-14.2c-.8-.5-1.3-1.2-1.3-2 0-1.4 1.5-2.8 3-2.8 1.2 0 2.4 1.5 2.4 2.6 0 1.4-1.2 2.5-2.4 2.7 0 4 0 9.5-.2 15.2.2 0 .5.1.7.3 2.8-4.4 4.8-8.8 6.3-11.8-.6-.5-1-1.2-1-1.8 0-1.5 1.5-2.9 3-2.9 1.3 0 2.5 1.5 2.5 2.6 0 1.5-1.6 2.7-2.9 2.7h-.1c-1.5 5.1-2.4 14.1-3.4 18-.3 1.4-2.7 3.4-2.7 4.7l.2 5c0 2.2-5.6 3.6-13.1 3.6-7.1 0-13.2-1.4-13.2-3.7l.2-5c0-1.2-2.2-2.8-2.6-4.6-.8-3.9-2-12.9-3.5-18A2.6 2.6 0 018 18.3c0-1.5 1.4-3 2.9-3zm6.4 25.5c2.4-1.4 7.3-2.5 12.4-2.5 4.9 0 10 1.1 12.3 2.3l.7-1a26 26 0 00-13-3c-5.8 0-10.6 1.4-13 3l.6 1.2zm1 3c1.9-1.2 6.8-2.2 11.2-2.2 4.5 0 9.3 1 11.3 2.1v-1.5A24 24 0 0029.5 40c-5.2 0-9 1-11.2 2.2v1.5zm0 3.3c1.9-1.2 6.8-2 11.2-2 4.5 0 9.3.7 11.3 1.8v-1.4c-2.3-1.3-6-2.1-11.3-2.1-5.2 0-9 .8-11.2 2v1.7z" fill="#fff"></path></svg>
