<svg width="100%" height="100%" fill="none" viewBox="0 0 60 60" xmlns="http://www.w3.org/2000/svg"><path d="M41.2 21.2l-1 .7v14.2l2.3 2.8c.6.8.7.9.7 1.5v4.7l.8.1c.6.1 1 .6 1 1.4V51H14v-4.3c0-.7.4-1.2 1-1.4h.7v-4.8c0-.6 0-.7.7-1.4l2.3-2.9V22l-1-.7c-1-.7-2.7-2-2.7-2.6v-5.3c0-1.5 3.5-2.2 5.4-2.6v3.7c1.7-.2 3.5-.5 5.3-.5v-3.8l3.8-.1 3.8.1V14c1.8 0 3.6.3 5.3.5v-3.7c2 .4 5.5 1.1 5.5 2.6v5.3c0 .6-1.8 1.9-2.9 2.6zm2 25.4H15.8c-.3 0-.5 0-.5.5v1h28.2v-1c0-.4-.1-.5-.5-.5zm-13.7-29c4.6 0 9 .5 12 1.3.2-.2.7-.5.8-.8.1-.2.1-.3-.1-.5a11 11 0 00-3.4-.8 63.6 63.6 0 00-22 .8c-.3.2-.3.3-.2.5.1.3.6.6.9.8 3-.8 7.4-1.3 12-1.3zM18.2 39.8c-.4 0-.6.1-.6.6v1h24v-1c0-.4-.1-.6-.6-.6H18.2zm2-3l-1 1.3H40l-1-1.4H20.1zm18.7-14v-1.5a54.5 54.5 0 00-18.8 0v1.5a64.9 64.9 0 0118.8 0z" fill="#fff"></path></svg>
