<svg width="420" height="420" version="1.1" viewBox="0 0 420 420" xmlns="http://www.w3.org/2000/svg">
 <g transform="matrix(-.85158 -.35035 -.35035 .85158 495.23 119.18)" stroke-width="1.0754">
  <path d="m241.89 205.62c-0.95291-0.0223-1.9074 0.0111-2.8555 0.10352-4.9301 0.48047-5.5813 0.82458-5.377 2.834 0.17767 1.7468-0.43947 2.3633-2.6152 2.6152-1.6452 0.19047-3.0605 1.1427-3.3516 2.2559-0.29173 1.1156-1.9222 2.2114-3.873 2.6016-1.8532 0.37065-3.3692 1.2369-3.3692 1.9258 0 0.6889-0.76798 1.8153-1.707 2.502-1.4948 1.0931-1.0877 2.0102 3.2793 7.3711 7.0867 8.6996 8.8727 9.485 20.473 9.0039 5.3231-0.22078 11.077-0.97089 12.785-1.666 4.5744-1.8612 2.6376-2.7434-7.4922-3.416-7.9644-0.52885-9.4144-0.9537-12.121-3.5469-1.6909-1.62-4.4431-3.312-6.1172-3.7598-3.6871-0.98608-4.829-3.3848-1.6113-3.3848 1.2593 0 4.5622-1.2108 7.3398-2.6895 9.5083-5.0616 20.485-2.2155 22.072 5.7227 1.0342 5.1708 6.5824 5.6745 7.8281 0.71094 0.74745-2.978-0.66094-5.7996-5.6504-11.322-4.3379-4.8015-10.966-7.7053-17.637-7.8613zm7.8809 13.936c-0.94658 0.094-1.6511 1.3532-1.002 3.0449 0.6722 1.7517 2.0157 2.1757 3.1855 1.0059 0.37351-0.3735 0.16841-1.636-0.45703-2.8047-0.50313-0.94012-1.1586-1.3025-1.7266-1.2461zm75.939 57.529c-0.22803 0.014-0.44061 0.10077-0.61718 0.27734-0.88465 0.88465 0.49773 3.918 1.7852 3.918 0.61002 0 1.1094-0.69655 1.1094-1.5488 0-1.3916-1.2892-2.7072-2.2774-2.6465zm-9.4102 4.6289c-0.85118 0.1309-0.76577 1.8838 0.6914 3.9609 1.6454 2.3455 1.8575 2.4019 2.209 0.58594 0.21387-1.105-0.32518-2.7236-1.1992-3.5977-0.73305-0.73305-1.3143-1.0087-1.7012-0.94922zm-3.2812 9.7988c-0.0745 7.1e-4 -0.14357 0.0179-0.20313 0.0547-0.96063 0.59371-0.16673 3.4389 1.5879 5.6934 1.769 2.2728 2.2738-0.63192 0.64063-3.6836-0.65567-1.2251-1.504-2.0694-2.0254-2.0645zm-22.734 0.52149c-0.55655 0-1.0117 0.48471-1.0117 1.0762s0.7537 1.0742 1.6758 1.0742c0.92211 0 1.3792-0.48276 1.0137-1.0742-0.36554-0.59146-1.1212-1.0762-1.6777-1.0762zm35.436 0c-0.52818 0-0.95898 0.72609-0.95899 1.6133 0 0.88719 0.70951 1.6133 1.5781 1.6133 0.96203 0 1.338-0.6307 0.96094-1.6133-0.34045-0.88719-1.0519-1.6133-1.5801-1.6133zm10.691 0.0488c-0.76946 0.0784-0.89174 1.3519 0.2539 2.7324 1.0078 1.2144 1.5921 1.3586 1.8887 0.46875 0.23591-0.70807-0.10185-1.8167-0.75-2.4648-0.55949-0.55949-1.0428-0.77198-1.3926-0.73633zm-32.426 7.0996 0.64063 3.9531c0.69383 4.2756-0.98935 5.3952-3.5234 2.3418-2.0671-2.4907-3.5377-1.9242-2.7852 1.0742 0.79524 3.1684-0.91414 3.5678-3.8594 0.90234-2.4582-2.2246-3.9422-0.98946-2.1875 1.8203 1.9155 3.0672 1.6475 3.4383-1.9219 2.6543-2.4448-0.53695-3.2266-0.32486-3.2266 0.875 0 0.87089 0.72609 1.8627 1.6133 2.2031 0.88719 0.34046 1.6133 1.3599 1.6133 2.2656 0 0.90574-0.7261 1.6465-1.6133 1.6465s-1.6133 0.48471-1.6133 1.0762 0.36305 1.0742 0.80664 1.0742c0.4436 7e-5 0.82578 3.2837 0.84961 7.2969 0.04 6.7298 0.35231 7.702 4.0293 12.518 2.1927 2.8717 5.0332 8.0886 6.3106 11.592 4.6116 12.648 14.765 18.032 28.734 15.238 3.3828-0.67655 4.705-2.5527 1.7988-2.5527-2.8517 0-9.4074-7.9619-12.984-15.77-1.941-4.2368-4.5657-8.2587-5.834-8.9375-2.7438-1.4684-4.8935-6.3702-3.4336-7.8301 1.0662-1.0662 6.156 1.6868 8.4355 4.5625 0.70972 0.89532 1.8038 3.9757 2.4316 6.8457 1.4018 6.408 6.6959 14.016 11.26 16.182 5.0085 2.3767 16.851 3.3395 18.984 1.543 6.7756-5.7066 14.911-21.135 15.217-28.857 0.16467-4.1608-4.1421-14.706-9.4863-23.229-3.1672-5.0511-3.8402-5.538-8.5508-6.1836-2.9415-0.40317-5.6654-0.24276-6.4121 0.37696-1.5884 1.3183-7.0086 1.0795-8.9551-0.39454-0.9997-0.75709-1.7056-0.62741-2.3613 0.4336-0.78747 1.2742-1.7483 1.2952-6.0723 0.13867-4.5998-1.2302-5.278-1.1783-6.498 0.49023-1.2603 1.7236-1.7393 1.592-6.3848-1.7441zm33.01 32.883c0.94944-0.0765 1.6872 0.34517 2.7949 1.3476 2.4179 2.1882 3.8077 7.8697 2.7441 11.221-1.1163 3.5173-2.5557 2.6376-2.9219-1.7871-0.26817-3.2406-0.80963-4.1006-2.7559-4.377-1.3321-0.1892-2.9228-1.2796-3.5352-2.4238-0.92599-1.7302-0.65459-2.2899 1.6113-3.3223 0.84849-0.3866 1.4928-0.61233 2.0625-0.6582z" fill="#fff"/>
  <path d="m28.44 327.16c4.8321-7.6237 13.726-15.664 19.917-17.899l11.257-4.0643 1.2007-4.7067c0.66039-2.5887 1.7795-5.7882 2.4869-7.11 1.3255-2.4767 13.231-11.526 25.115-19.09 13.544-8.6202 21.274-17.796 32.618-38.716 6.0981-11.246 10.099-17.712 20.114-32.505 10.581-15.629 18.754-24.89 26.317-29.82 3.6694-2.3918 6.6886-4.7785 6.7091-5.3038 0.0205-0.52532-1.937-3.097-4.35-5.7148-5.1361-5.5721-10.948-17.316-13.464-27.205-2.1876-8.5988-1.5854-22.658 1.6121-37.638 3.4842-16.323 4.5143-28.409 3.3008-38.729-1.8515-15.746-1.4588-24.361 1.5436-33.865 4.1122-13.017 13.224-27.093 15.843-24.474 0.48253 0.48254 1.3439 8.8495 1.9142 18.593 1.0646 18.19 2.8058 25.896 8.3758 37.073 1.179 2.3658 5.8601 11.68 10.402 20.699 8.715 17.303 13.041 29.054 17.52 47.588 1.5008 6.2103 2.9762 11.698 3.2787 12.196 0.30245 0.49719 2.3648-0.86824 4.5831-3.0343 5.6676-5.5343 11.224-7.3168 16.152-5.1815 7.0008 3.0337 7.1533 2.9998 8.9939-2.0049 0.94329-2.5648 3.3855-10.228 5.4271-17.03 4.6321-15.432 6.254-19.961 9.2528-25.839 2.809-5.506 4.3813-6.9266 15.04-13.588 4.436-2.7724 12.663-8.4219 18.281-12.554 5.6189-4.1326 13.846-10.19 18.281-13.46s10.727-8.4492 13.98-11.508c3.253-3.0592 7.0106-6.1327 8.3502-6.8299 5.9258-3.0842 3.7586 5.5209-5.6623 22.483-10.74 19.338-14.828 28.528-17.912 40.267-1.7004 6.4733-4.2122 14.216-5.5818 17.206-6.9244 15.117-24.286 36.796-35.921 44.852-2.5137 1.7406-4.5704 3.662-4.5704 4.2698 0 2.32 9.0403 16.449 12.767 19.952 2.146 2.0177 8.9688 6.6717 15.162 10.342 14.629 8.6707 15.359 9.8932 16.16 27.07l0.6033 12.941 7.864 15.593c10.707 21.23 22.74 43.302 31.442 57.67 13.978 23.081 16.548 29.863 14.712 38.808-1.4773 7.1982-7.7055 19.872-12.007 24.433-3.1022 3.2893-4.3003 3.8327-8.4507 3.8327-3.2943 0-5.7572 0.72461-7.7255 2.2728-7.3438 5.7766-24.996 7.4102-32.783 3.0338-4.5019-2.5302-8.9827-8.0944-10.335-12.834-1.8926-6.6314-7.2883-14.83-12.148-18.458-4.9666-3.7079-25.102-12.387-34.496-14.87-3.7785-0.99852-4.9953-0.9629-6.1039 0.17879-0.76156 0.78415-4.3874 8.4426-8.0575 17.019-3.67 8.5762-6.9237 16.939-10.742 25.219-3.8187 8.2804-9.2853 26.243-11.058 30.678l-1.9147 5.1724c-5.2523-1.4349-183.29-75.409-183.29-75.409zm299.42 40.551c3.3828-0.67655 4.7054-2.554 1.7993-2.554-2.8517 0-9.4066-7.9609-12.984-15.769-1.941-4.2368-4.5668-8.2585-5.8351-8.9373-2.7438-1.4684-4.8932-6.371-3.4333-7.8309 1.0662-1.0662 6.1557 1.6862 8.4353 4.562 0.70972 0.89532 1.8041 3.9761 2.4319 6.846 1.4018 6.408 6.6962 14.017 11.26 16.183 5.0085 2.3767 16.851 3.3388 18.984 1.5423 6.7756-5.7066 14.911-21.135 15.217-28.858 0.16467-4.1608-4.1408-14.704-9.4851-23.227-3.1672-5.0511-3.8416-5.5388-8.5521-6.1844-2.9415-0.40317-5.6653-0.24327-6.412 0.37645-1.5884 1.3183-7.0074 1.0794-8.9539-0.39471-0.99971-0.75709-1.7059-0.62744-2.3616 0.43357-0.78747 1.2742-1.7481 1.2963-6.0721 0.13977-4.5998-1.2302-5.279-1.1791-6.4991 0.48946-1.2603 1.7236-1.7389 1.5929-6.3844-1.7432l-5.0219-3.6064 0.64161 3.9538c0.69383 4.2756-0.99059 5.3942-3.5247 2.3408-2.0671-2.4907-3.5371-1.923-2.7846 1.0754 0.79524 3.1684-0.91325 3.5682-3.8585 0.90275-2.4582-2.2246-3.9429-0.98975-2.1882 1.82 1.9155 3.0672 1.6468 3.4381-1.9226 2.6541-2.4448-0.53695-3.2261-0.32497-3.2261 0.87489 0 0.87089 0.72588 1.862 1.6131 2.2024 0.88719 0.34046 1.6131 1.36 1.6131 2.2658 0 0.90574-0.72588 1.6468-1.6131 1.6468s-1.6131 0.48392-1.6131 1.0754 0.36294 1.0754 0.80653 1.0755c0.4436 7e-5 0.82604 3.2836 0.84987 7.2968 0.04 6.7298 0.35304 7.7023 4.03 12.518 2.1927 2.8717 5.0318 8.0875 6.3091 11.591 4.6116 12.648 14.766 18.033 28.734 15.239zm11.76-24.868c-0.26817-3.2406-0.8095-4.1002-2.7557-4.3766-1.3321-0.1892-2.923-1.2801-3.5353-2.4243-0.92599-1.7302-0.65486-2.2892 1.6111-3.3216 2.2626-1.0309 3.0861-0.91398 4.8585 0.68999 2.4179 2.1882 3.8071 7.87 2.7435 11.221-1.1163 3.5173-2.5558 2.6363-2.922-1.7884zm-24.567-49.268c-0.74934-1.4001-1.7523-2.3048-2.2288-2.0103-0.96063 0.59371-0.16766 3.4381 1.587 5.6925 1.769 2.2728 2.275-0.63058 0.6418-3.6822zm22.759-0.75959c-1.7904-1.7904-2.8044-0.0118-1.138 1.9962 1.0078 1.2144 1.5907 1.3594 1.8873 0.46958 0.23591-0.70807-0.10116-1.8177-0.74931-2.4658zm-10.504 0.82894c-0.34045-0.88719-1.0511-1.6131-1.5793-1.6131s-0.96033 0.72589-0.96033 1.6131 0.7107 1.6131 1.5793 1.6131c0.96203 0 1.3374-0.63049 0.96033-1.6131zm-35.339-0.53769c-0.36554-0.59146-1.12-1.0754-1.6765-1.0754s-1.0119 0.48393-1.0119 1.0754 0.75445 1.0754 1.6765 1.0754c0.9221 0 1.3775-0.48392 1.0119-1.0754zm26.04-10.446c-2.3458-2.3458-3.1285-9e-3 -1.009 3.0124 1.6454 2.3455 1.8577 2.4018 2.2092 0.58583 0.21387-1.105-0.32624-2.7241-1.2003-3.5982zm9.9856-2.9324c0-1.7127-1.9511-3.31-2.8928-2.3683-0.88465 0.88465 0.49631 3.9179 1.7837 3.9179 0.61002 0 1.1091-0.69732 1.1091-1.5496zm-72.708-44.563c4.5744-1.8612 2.637-2.7448-7.4927-3.4174-7.9644-0.52885-9.4139-0.95294-12.121-3.5461-1.6909-1.62-4.4441-3.3118-6.1182-3.7595-3.6871-0.98608-4.829-3.3853-1.6113-3.3853 1.2593 0 4.5622-1.2098 7.3399-2.6884 9.5083-5.0616 20.486-2.2157 22.074 5.7224 1.0342 5.1708 6.5824 5.675 7.8281 0.71144 0.74745-2.978-0.66051-5.7995-5.65-11.322-4.9576-5.4875-12.908-8.4976-20.492-7.7585-4.9301 0.48047-5.5813 0.82355-5.3769 2.833 0.17767 1.7468-0.43949 2.3641-2.6153 2.616-1.6452 0.19047-3.0606 1.1434-3.3517 2.2565-0.29173 1.1156-1.9225 2.2105-3.8733 2.6007-1.8532 0.37065-3.3695 1.2376-3.3695 1.9265 0 0.6889-0.76831 1.8144-1.7074 2.501-1.4948 1.0931-1.0866 2.0105 3.2804 7.3715 7.0867 8.6996 8.8723 9.4849 20.472 9.0038 5.3231-0.22079 11.076-0.97017 12.785-1.6653zm-3.3235-11.561c0.37351-0.3735 0.16736-1.6353-0.45808-2.8039-1.3417-2.507-3.7662-0.90906-2.7275 1.7976 0.6722 1.7517 2.0158 2.1761 3.1856 1.0063z"/>
 </g>
</svg>
