<svg width="420" height="420" version="1.1" viewBox="0 0 420 420" xmlns="http://www.w3.org/2000/svg">
 <g transform="matrix(1.0466 0 0 1.0466 -10.837 -40.414)">
  <path transform="matrix(.90641 0 0 .90641 12.587 56.772)" d="m354.19 10.24c-0.10771 0.01038-0.21569 0.03676-0.32422 0.08203-0.63984 0.26684-4.6843 7.7946-8.9863 16.729-8.0309 16.678-12.646 23.245-22.199 31.592-2.0222 1.767-10.019 8.7089-17.771 15.426-14.409 12.483-22.958 21.715-33.812 36.529-0.53029-0.75923-1.1355-1.849-1.7402-3.252-3.1856-7.3902-7.7171-11.213-13.172-11.111-4.1136 0.07655-6.0145 0.02184-6.9238-0.79492l-0.0645 0.03125c-2.7942-2.961-5.1325-5.5445-5.6504-6.3105-1.5548-2.3-5.8284-9.263-9.498-15.475-8.3256-14.092-11.027-18.165-15.416-23.232-4.111-4.7467-6.0098-5.7647-18.145-9.7402-5.0502-1.6544-14.537-5.2237-21.086-7.9316-6.5481-2.708-16.138-6.6804-21.309-8.8262-5.1709-2.1458-12.636-5.7218-16.59-7.9473-3.9533-2.2254-8.4074-4.3416-9.8984-4.7031-6.5956-1.5993-2.3629 6.3605 11.059 20.797 15.301 16.459 21.569 24.528 27.469 35.355 3.2531 5.9707 7.6166 12.996 9.6953 15.611 8.189 10.304 23.586 22.969 36.348 30.49-4.6897 3.7504-12.668 9.0383-16.117 10.354-2.7961 1.0662-11.005 2.8027-18.242 3.8574-17.096 2.4916-18.254 3.358-25.645 19.186l-5.5703 11.924-13.414 11.611c-18.265 15.807-38.103 31.892-51.832 42.027-22.054 16.282-27.09 21.661-28.822 30.775-1.3944 7.3337-0.44038 21.648 1.8379 27.596 1.6431 4.2894 2.5577 5.263 6.457 6.8672 3.0951 1.2734 5.1301 2.9057 6.3809 5.1211 4.6667 8.2658 20.619 16.624 29.627 15.521 5.2076-0.63703 11.568-4.1322 14.672-8.0625 4.3413-5.4987 12.578-11.116 18.547-12.646 6.0993-1.5638 28.37-1.9354 38.156-0.63672 3.9358 0.52237 5.0657 1.0262 5.666 2.5274 0.41239 1.0311 0.85905 9.6274 0.99219 19.104 0.13313 9.4759-2.7676 22.905-3.8874 32.103-1.8895 15.519-2.2791 28.46-2.3284 34.441h4.8915c5.4891 0.68205 201.34 3e-5 201.35 0-1.5934-9.0299-6.8428-20.02-11.795-24.514l-9.0039-8.168 0.69141-4.8867c0.38015-2.6874 0.56581-6.1253 0.41211-7.6406-0.288-2.8392-7.976-15.945-16.217-27.645-9.3928-13.334-13.11-24.941-15.682-48.98-1.3823-12.923-2.6407-20.544-6.332-38.314-3.8999-18.774-8-30.634-13.199-38.188-1.1248-1.634-2.0249-3.0828-2.6973-4.2773 6.0988-4.2279 12.985-10.803 17.678-17.113 5.3789-7.233 10.247-20.675 13.033-35.984 3.0358-16.682 6.74-28.436 11.869-37.664 7.8257-14.077 10.786-22.322 11.639-32.412 1.1316-13.387-1.7604-29.521-5.0996-29.199z" fill="#fff" stroke="#000" stroke-width="21.082"/>
  <path transform="matrix(.90641 0 0 .90641 12.587 56.772)" d="m354.19 10.24c-0.10771 0.01038-0.21569 0.03676-0.32422 0.08203-0.63984 0.26684-4.6843 7.7946-8.9863 16.729-8.0309 16.678-12.646 23.245-22.199 31.592-2.0222 1.767-10.019 8.7089-17.771 15.426-14.409 12.483-22.958 21.715-33.812 36.529-0.53029-0.75923-1.1355-1.849-1.7402-3.252-3.1856-7.3902-7.7171-11.213-13.172-11.111-4.1136 0.07655-6.0145 0.02184-6.9238-0.79492l-0.0645 0.03125c-2.7942-2.961-5.1325-5.5445-5.6504-6.3105-1.5548-2.3-5.8284-9.263-9.498-15.475-8.3256-14.092-11.027-18.165-15.416-23.232-4.111-4.7467-6.0098-5.7647-18.145-9.7402-5.0502-1.6544-14.537-5.2237-21.086-7.9316-6.5481-2.708-16.138-6.6804-21.309-8.8262-5.1709-2.1458-12.636-5.7218-16.59-7.9473-3.9533-2.2254-8.4074-4.3416-9.8984-4.7031-6.5956-1.5993-2.3629 6.3605 11.059 20.797 15.301 16.459 21.569 24.528 27.469 35.355 3.2531 5.9707 7.6166 12.996 9.6953 15.611 8.189 10.304 23.586 22.969 36.348 30.49-4.6897 3.7504-12.668 9.0383-16.117 10.354-2.7961 1.0662-11.005 2.8027-18.242 3.8574-17.096 2.4916-18.254 3.358-25.645 19.186l-5.5703 11.924-13.414 11.611c-18.265 15.807-38.103 31.892-51.832 42.027-22.054 16.282-27.09 21.661-28.822 30.775-1.3944 7.3337-0.44038 21.648 1.8379 27.596 1.6431 4.2894 2.5577 5.263 6.457 6.8672 3.0951 1.2734 5.1301 2.9057 6.3809 5.1211 4.6667 8.2658 20.619 16.624 29.627 15.521 5.2076-0.63703 11.568-4.1322 14.672-8.0625 4.3413-5.4987 12.578-11.116 18.547-12.646 6.0993-1.5638 28.37-1.9354 38.156-0.63672 3.9358 0.52237 5.0657 1.0262 5.666 2.5274 0.41239 1.0311 0.85905 9.6274 0.99219 19.104 0.13313 9.4759-2.1162 18.673-3.417 27.846-1.2591 8.8793-2.5502 14.324-2.5995 26.325l-0.19922 12.372c5.4891 0.68205 206.23 3e-5 206.24 0-1.5934-9.0299-6.8428-20.02-11.795-24.514l-9.0039-8.168 0.69141-4.8867c0.38015-2.6874 0.56581-6.1253 0.41211-7.6406-0.288-2.8392-7.976-15.945-16.217-27.645-9.3928-13.334-13.11-24.941-15.682-48.98-1.3823-12.923-2.6407-20.544-6.332-38.314-3.8999-18.774-8-30.634-13.199-38.188-1.1248-1.634-2.0249-3.0828-2.6973-4.2773 6.0988-4.2279 12.985-10.803 17.678-17.113 5.3789-7.233 10.247-20.675 13.033-35.984 3.0358-16.682 6.74-28.436 11.869-37.664 7.8257-14.077 10.786-22.322 11.639-32.412 1.1316-13.387-1.7604-29.521-5.0996-29.199z"/>
  <path d="m123.41 231.09c0.23175 0.11239 0.41618 0.29408 0.52454 0.55392 0.5429 1.3018-2.1995 3.8715-3.5419 3.3192-0.63603-0.26168-0.85789-1.2021-0.49229-2.0907 0.5969-1.4509 2.5055-2.2697 3.5096-1.7824zm7.8258 8.8628c0.83132 0.50158-0.0107 2.2926-2.4199 3.8332-2.7217 1.7397-2.967 1.7075-2.5545-0.33661 0.25099-1.2438 1.5074-2.7003 2.7936-3.2367 1.0788-0.44986 1.803-0.48794 2.1808-0.25998zm-0.7821 11.624c0.0775 0.0328 0.14201 0.0804 0.18832 0.14418 0.74692 1.0311-1.3012 3.657-4.0978 5.2549-2.8193 1.611-2.0998-1.6343 0.91214-4.1154 1.2092-0.9961 2.4558-1.5126 2.9973-1.2837zm23.479 10.296c0.58028 0.23872 0.84694 0.93935 0.59324 1.556-0.25371 0.61666-1.2466 0.79671-2.208 0.40116-0.96143-0.39554-1.231-1.095-0.59612-1.5548 0.63485-0.45986 1.6306-0.6411 2.2109-0.40239zm-36.946-15.2c0.55069 0.22656 0.6884 1.1684 0.30785 2.0934-0.38056 0.92499-1.4318 1.3777-2.3374 1.0051-1.003-0.41268-1.1245-1.2316-0.30987-2.0943 0.73551-0.77898 1.7888-1.2308 2.3395-1.0043zm-11.168-4.5352c0.76862 0.41179 0.34987 1.7921-1.4368 2.74-1.5717 0.83382-2.2426 0.73354-2.1703-0.32142 0.0577-0.83943 0.88551-1.8505 1.8392-2.2483 0.82334-0.34336 1.4184-0.35759 1.7678-0.17038zm30.763 21.311-2.3636 3.8469c-2.5574 4.1602-1.2828 6.0496 2.6691 3.9531 3.2236-1.7102 4.5139-0.48871 2.4431 2.3147-2.1883 2.9624-0.5773 4.112 3.6368 2.5964 3.5173-1.265 4.5347 0.6594 1.5 2.8362-3.3129 2.3762-3.1926 2.8782 0.86524 3.5919 2.7792 0.48883 3.5035 1.0454 2.9888 2.2964-0.37359 0.90802-1.556 1.6306-2.6271 1.605-1.0711-0.0255-2.2654 0.72581-2.6539 1.6703-0.38854 0.94435 0.0509 2.0281 0.97581 2.4087 0.92501 0.38055 1.4741 1.1974 1.2204 1.8141-0.25368 0.61672-0.83928 0.96421-1.3018 0.77401-0.46257-0.19021-2.2696 3.0694-4.0159 7.2435-2.9285 6.9996-3.6711 7.8792-9.5705 11.323-3.5179 2.0535-8.7174 6.2744-11.552 9.379-10.234 11.209-23.13 12.468-36.495 3.5622-3.2368-2.1564-3.8105-4.6798-0.78053-3.4332 2.9732 1.2232 13.224-4.266 20.302-10.872 3.8412-3.5848 8.303-6.6524 9.9165-6.8161 3.4906-0.35406 7.8346-4.5427 6.9388-6.6911-0.65434-1.5691-7.142-0.88197-10.752 1.1386-1.124 0.62906-3.5861 3.3715-5.4718 6.0945-4.2103 6.0799-12.994 11.741-18.681 12.042-6.2415 0.32961-19.002-3.7466-20.455-6.5346-4.6165-8.8562-6.481-28.432-3.4871-36.615 1.6131-4.4088 10.627-13.556 19.855-20.149 5.4689-3.9079 6.3795-4.1268 11.568-2.7794 3.2399 0.8414 6.0111 2.1771 6.5238 3.1435 1.0907 2.0558 6.8442 4.132 9.5061 3.4299 1.3671-0.36053 2.0473 0.0776 2.2759 1.4649 0.27447 1.6662 1.2673 2.1004 6.2716 2.7493 5.3236 0.69039 6.0085 1.0355 6.5648 3.2985 0.57472 2.3376 1.1306 2.406 7.4051 0.92025zm-48.522 20.125c-0.9571-0.48704-1.9072-0.36386-3.4922 0.20621-3.4596 1.2443-7.3459 6.572-7.6744 10.522-0.34483 4.1462 1.5333 3.8463 3.813-0.60995 1.6696-3.2636 2.6031-3.9281 4.7508-3.3814 1.4701 0.37414 3.5963-0.0805 4.7256-1.0107 1.7076-1.4068 1.6648-2.1067-0.25493-4.1551-0.71883-0.76703-1.2938-1.2788-1.8681-1.5709z" fill="#fff" stroke-width="1.2244"/>
  <path d="m209.34 208.11c-3.444-0.074-6.8743 0.60566-9.8984 2.0508-6.1838 2.955-8.3725 4.8642-8.7793 7.6621-0.67812 4.6633 4.2238 6.1777 6.916 2.1367 4.1331-6.2038 14.477-4.7803 20.801 2.8613 1.8473 2.2323 4.2362 4.4201 5.3086 4.8613 2.7402 1.1273 0.92674 2.7704-2.5586 2.3184-1.5825-0.20526-4.5179 0.27145-6.5254 1.0586-3.2135 1.26-4.5968 1.1134-11.564-1.2266-8.862-2.9762-10.822-2.9044-7.5781 0.2832 1.2114 1.1905 5.849 3.8454 10.305 5.8984 9.7098 4.4738 11.505 4.4315 20.588-0.49414 5.597-3.0353 6.265-3.6743 5.375-5.1289-0.55911-0.91373-0.81753-2.1419-0.57617-2.7285 0.24136-0.58667-0.74701-1.8554-2.1953-2.8203-1.5246-1.0157-2.5291-2.52-2.3867-3.5723 0.1421-1.0499-0.72819-2.3571-2.0625-3.0957-1.7646-0.9768-2.0738-1.7173-1.3106-3.1426 0.87805-1.6396 0.44218-2.1604-3.5879-4.2969-0.77494-0.41084-1.5752-0.77498-2.3945-1.0898-2.5091-0.9643-5.1964-1.4776-7.875-1.5352zm-4.1055 10.521c-0.42393-0.0527-0.95116 0.10793-1.5195 0.57617-0.94205 0.77607-1.5603 1.7796-1.373 2.2285 0.58637 1.4061 1.8803 1.516 3.0664 0.25977 1.1455-1.2132 0.98605-2.5317 0.21289-2.9434-0.11598-0.0618-0.24541-0.10352-0.38672-0.12109z" fill="#fff" stroke="#fff" stroke-width="5.1089"/>
  <path d="m196.22 220.85s3.4675-5.5697 10.23-4.9827c6.3891 0.55461 8.639 4.3396 8.639 4.3396s4.3843 5.8464 5.1959 6.4885c0.81163 0.64212 2.2342 1.3426 3.0175 1.722 0.78835 0.38184 0.94301 0.74466 0.33817 0.94805-1.4414 0.48472-3.4533 0.15558-4.5312 0.2465-1.5218 0.12843-4.194 0.33431-6.46 1.1072-1.8805 0.64141-3.2501 0.66655-3.2501 0.66655s-3.6501 0.29005-5.6195-0.80208c-1.5601-0.86512-7.9982-2.9592-9.351-3.1518-1.3527-0.19264-1.8027 3.6303-2.4799 2.4511-3.707-6.4554-3.8308-10.245-3.8308-10.245s0.63511 2.9949 3.5394 3.1892c2.5975 0.17384 4.5618-1.9774 4.5618-1.9774z" fill="#010101"/>
  <path d="m202.35 222.95c-0.45659-0.28014-0.80918-0.83235-0.9055-1.5589-0.10833-0.81721 0.46396-2.2726 2.0368-3.1326 1.2343-0.67493 2.4233-0.41254 2.7708-0.15413 0.60455 0.44949 0.73384 1.0013 0.7976 1.5728 0.0226 1.2048-0.26928 1.908-1.5649 3.0007-1.0833 0.91371-2.2664 0.80517-3.1349 0.27217z" fill="#fefefe" stop-color="#000000" style="paint-order:stroke markers fill"/>
 </g>
</svg>
