<svg width="420" height="420" version="1.1" viewBox="0 0 420 420" xmlns="http://www.w3.org/2000/svg">
 <g transform="matrix(1.0466 0 0 1.0466 -10.837 -40.414)">
  <path transform="matrix(.90641 0 0 .90641 12.587 56.772)" d="m354.19 10.24c-0.10771 0.01038-0.21569 0.03676-0.32422 0.08203-0.63984 0.26684-4.6843 7.7946-8.9863 16.729-8.0309 16.678-12.646 23.245-22.199 31.592-2.0222 1.767-10.019 8.7089-17.771 15.426-14.409 12.483-22.958 21.715-33.812 36.529-0.53029-0.75923-1.1355-1.849-1.7402-3.252-3.1856-7.3902-7.7171-11.213-13.172-11.111-4.1136 0.07655-6.0145 0.02184-6.9238-0.79492l-0.0645 0.03125c-2.7942-2.961-5.1325-5.5445-5.6504-6.3105-1.5548-2.3-5.8284-9.263-9.498-15.475-8.3256-14.092-11.027-18.165-15.416-23.232-4.111-4.7467-6.0098-5.7647-18.145-9.7402-5.0502-1.6544-14.537-5.2237-21.086-7.9316-6.5481-2.708-16.138-6.6804-21.309-8.8262-5.1709-2.1458-12.636-5.7218-16.59-7.9473-3.9533-2.2254-8.4074-4.3416-9.8984-4.7031-6.5956-1.5993-2.3629 6.3605 11.059 20.797 15.301 16.459 21.569 24.528 27.469 35.355 3.2531 5.9707 7.6166 12.996 9.6953 15.611 8.189 10.304 23.586 22.969 36.348 30.49-4.6897 3.7504-12.668 9.0383-16.117 10.354-2.7961 1.0662-11.005 2.8027-18.242 3.8574-17.096 2.4916-18.254 3.358-25.645 19.186l-5.5703 11.924-13.414 11.611c-18.265 15.807-38.103 31.892-51.832 42.027-22.054 16.282-27.09 21.661-28.822 30.775-1.3944 7.3337-0.44038 21.648 1.8379 27.596 1.6431 4.2894 2.5577 5.263 6.457 6.8672 3.0951 1.2734 5.1301 2.9057 6.3809 5.1211 4.6667 8.2658 20.619 16.624 29.627 15.521 5.2076-0.63703 11.568-4.1322 14.672-8.0625 4.3413-5.4987 12.578-11.116 18.547-12.646 6.0993-1.5638 28.37-1.9354 38.156-0.63672 3.9358 0.52237 5.0657 1.0262 5.666 2.5274 0.41239 1.0311 0.85905 9.6274 0.99219 19.104 0.13313 9.4759-2.7676 22.905-3.8874 32.103-1.8895 15.519-2.2791 28.46-2.3284 34.441h4.8915c5.4891 0.68205 201.34 3e-5 201.35 0-1.5934-9.0299-6.8428-20.02-11.795-24.514l-9.0039-8.168 0.69141-4.8867c0.38015-2.6874 0.56581-6.1253 0.41211-7.6406-0.288-2.8392-7.976-15.945-16.217-27.645-9.3928-13.334-13.11-24.941-15.682-48.98-1.3823-12.923-2.6407-20.544-6.332-38.314-3.8999-18.774-8-30.634-13.199-38.188-1.1248-1.634-2.0249-3.0828-2.6973-4.2773 6.0988-4.2279 12.985-10.803 17.678-17.113 5.3789-7.233 10.247-20.675 13.033-35.984 3.0358-16.682 6.74-28.436 11.869-37.664 7.8257-14.077 10.786-22.322 11.639-32.412 1.1316-13.387-1.7604-29.521-5.0996-29.199z" fill="#f9f9f9" stroke="#000" stroke-width="21.082"/>
  <path transform="matrix(.90641 0 0 .90641 12.587 56.772)" d="m354.19 10.24c-0.10771 0.01038-0.21569 0.03676-0.32422 0.08203-0.63984 0.26684-4.6843 7.7946-8.9863 16.729-8.0309 16.678-12.646 23.245-22.199 31.592-2.0222 1.767-10.019 8.7089-17.771 15.426-14.409 12.483-22.958 21.715-33.812 36.529-0.53029-0.75923-1.1355-1.849-1.7402-3.252-3.1856-7.3902-7.7171-11.213-13.172-11.111-4.1136 0.07655-6.0145 0.02184-6.9238-0.79492l-0.0645 0.03125c-2.7942-2.961-5.1325-5.5445-5.6504-6.3105-1.5548-2.3-5.8284-9.263-9.498-15.475-8.3256-14.092-11.027-18.165-15.416-23.232-4.111-4.7467-6.0098-5.7647-18.145-9.7402-5.0502-1.6544-14.537-5.2237-21.086-7.9316-6.5481-2.708-16.138-6.6804-21.309-8.8262-5.1709-2.1458-12.636-5.7218-16.59-7.9473-3.9533-2.2254-8.4074-4.3416-9.8984-4.7031-6.5956-1.5993-2.3629 6.3605 11.059 20.797 15.301 16.459 21.569 24.528 27.469 35.355 3.2531 5.9707 7.6166 12.996 9.6953 15.611 8.189 10.304 23.586 22.969 36.348 30.49-4.6897 3.7504-12.668 9.0383-16.117 10.354-2.7961 1.0662-11.005 2.8027-18.242 3.8574-17.096 2.4916-18.254 3.358-25.645 19.186l-5.5703 11.924-13.414 11.611c-18.265 15.807-38.103 31.892-51.832 42.027-22.054 16.282-27.09 21.661-28.822 30.775-1.3944 7.3337-0.44038 21.648 1.8379 27.596 1.6431 4.2894 2.5577 5.263 6.457 6.8672 3.0951 1.2734 5.1301 2.9057 6.3809 5.1211 4.6667 8.2658 20.619 16.624 29.627 15.521 5.2076-0.63703 11.568-4.1322 14.672-8.0625 4.3413-5.4987 12.578-11.116 18.547-12.646 6.0993-1.5638 28.37-1.9354 38.156-0.63672 3.9358 0.52237 5.0657 1.0262 5.666 2.5274 0.41239 1.0311 0.85905 9.6274 0.99219 19.104 0.13313 9.4759-2.1162 18.673-3.417 27.846-1.2591 8.8793-2.5502 14.324-2.5995 26.325l-0.19922 12.372c5.4891 0.68205 206.23 3e-5 206.24 0-1.5934-9.0299-6.8428-20.02-11.795-24.514l-9.0039-8.168 0.69141-4.8867c0.38015-2.6874 0.56581-6.1253 0.41211-7.6406-0.288-2.8392-7.976-15.945-16.217-27.645-9.3928-13.334-13.11-24.941-15.682-48.98-1.3823-12.923-2.6407-20.544-6.332-38.314-3.8999-18.774-8-30.634-13.199-38.188-1.1248-1.634-2.0249-3.0828-2.6973-4.2773 6.0988-4.2279 12.985-10.803 17.678-17.113 5.3789-7.233 10.247-20.675 13.033-35.984 3.0358-16.682 6.74-28.436 11.869-37.664 7.8257-14.077 10.786-22.322 11.639-32.412 1.1316-13.387-1.7604-29.521-5.0996-29.199zm-268.16 240.05c-0.56982-0.0134-1.2212 0.15076-2.0781 0.45899-3.1174 1.1212-6.6181 5.923-6.9141 9.4824-0.31072 3.736 1.3813 3.4647 3.4355-0.55078 1.5045-2.9408 2.3459-3.5395 4.2812-3.0469 1.3247 0.33712 3.2402-0.0738 4.2578-0.91211 1.5387-1.2676 1.5013-1.8963-0.22852-3.7422-0.86362-0.92156-1.5008-1.4355-2.207-1.6152-0.17657-0.0449-0.35694-0.0698-0.54688-0.0742z" fill="#fff"/>
  <path d="m122.63 231.09c0.23756 0.11521 0.42661 0.30145 0.53769 0.5678 0.5565 1.3345-2.2547 3.9685-3.6307 3.4024-0.65197-0.26824-0.87939-1.2323-0.50463-2.1431 0.61186-1.4872 2.5683-2.3266 3.5975-1.8271zm8.0219 9.0849c0.85215 0.51415-0.011 2.35-2.4806 3.9292-2.7899 1.7833-3.0413 1.7503-2.6185-0.34504 0.25728-1.275 1.5452-2.768 2.8636-3.3178 1.1058-0.46113 1.8482-0.50016 2.2355-0.26649zm-0.8017 11.915c0.0794 0.0336 0.14557 0.0824 0.19304 0.1478 0.76563 1.0569-1.3338 3.7486-4.2004 5.3866-2.89 1.6514-2.1524-1.6752 0.935-4.2185 1.2394-1.0211 2.5173-1.5505 3.0724-1.3159zm24.068 10.554c0.59482 0.24471 0.86816 0.96289 0.6081 1.595-0.26006 0.63212-1.2779 0.81668-2.2633 0.41122-0.98552-0.40545-1.2618-1.1224-0.61106-1.5938 0.65076-0.47138 1.6715-0.65717 2.2663-0.41247zm-37.872-15.581c0.56449 0.23223 0.70565 1.1977 0.31557 2.1459-0.3901 0.94817-1.4676 1.4122-2.396 1.0303-1.0282-0.42302-1.1527-1.2624-0.31764-2.1467 0.75394-0.7985 1.8336-1.2617 2.3981-1.0294zm-11.448-4.6489c0.78788 0.42211 0.35863 1.837-1.4728 2.8086-1.6111 0.85471-2.2988 0.75192-2.2247-0.32947 0.0592-0.86047 0.9077-1.8968 1.8853-2.3046 0.84397-0.35196 1.454-0.36655 1.8121-0.17465zm31.534 21.845-2.4228 3.9433c-2.6215 4.2645-1.3149 6.2012 2.736 4.0521 3.3044-1.753 4.627-0.50096 2.5043 2.3727-2.2431 3.0367-0.59177 4.215 3.7279 2.6614 3.6054-1.2967 4.6484 0.67592 1.5375 2.9073-3.3959 2.4358-3.2726 2.9503 0.88692 3.6819 2.8489 0.50108 3.5913 1.0715 3.0637 2.3539-0.38295 0.93077-1.595 1.6714-2.6929 1.6452-1.0979-0.0261-2.3222 0.74399-2.7204 1.7121-0.39827 0.96801 0.0522 2.079 1.0003 2.469 0.94818 0.39009 1.511 1.2274 1.251 1.8596-0.26004 0.63217-0.86031 0.98837-1.3344 0.79341-0.47416-0.19498-2.3265 3.1464-4.1165 7.425-3.0019 7.175-3.7631 8.0766-9.8103 11.607-3.6061 2.105-8.9358 6.4317-11.841 9.614-10.49 11.49-23.71 12.78-37.41 3.6515-3.3179-2.2105-3.906-4.7971-0.80008-3.5192 3.0477 1.2539 13.556-4.3729 20.811-11.145 3.9374-3.6746 8.511-6.8191 10.165-6.9869 3.5781-0.36293 8.0309-4.6565 7.1126-6.8587-0.67074-1.6084-7.321-0.90407-11.022 1.1671-1.1522 0.64483-3.676 3.456-5.6088 6.2472-4.3158 6.2322-13.32 12.035-19.149 12.343-6.3979 0.33787-19.478-3.8405-20.968-6.6983-4.7322-9.0781-6.6434-29.144-3.5744-37.533 1.6535-4.5192 10.893-13.896 20.353-20.654 5.606-4.0058 6.5393-4.2302 11.858-2.849 3.3211 0.86249 6.1617 2.2317 6.6873 3.2223 1.118 2.1073 7.0157 4.2355 9.7443 3.5159 1.4013-0.36957 2.0986 0.0795 2.333 1.5016 0.28135 1.708 1.2991 2.153 6.4287 2.8182 5.457 0.70769 6.1591 1.0614 6.7294 3.3812 0.58912 2.3962 1.1589 2.4662 7.5907 0.94331zm-49.738 20.629c-0.98108-0.49924-1.955-0.37297-3.5797 0.21138-3.5463 1.2755-7.5299 6.7366-7.8666 10.786-0.35347 4.25 1.5717 3.9427 3.9085-0.62523 1.7115-3.3454 2.6683-4.0265 4.8699-3.4661 1.5069 0.38351 3.6864-0.0825 4.844-1.0361 1.7504-1.442 1.7065-2.1595-0.26132-4.2592-0.73684-0.78625-1.3262-1.3109-1.9149-1.6103z" stroke-width="1.255"/>
  <path d="m209.34 208.11c-3.444-0.074-6.8743 0.60566-9.8984 2.0508-6.1838 2.955-8.3725 4.8642-8.7793 7.6621-0.67812 4.6633 4.2238 6.1777 6.916 2.1367 4.1331-6.2038 14.477-4.7803 20.801 2.8613 1.8473 2.2323 4.2362 4.4201 5.3086 4.8613 2.7402 1.1273 0.92674 2.7704-2.5586 2.3184-1.5825-0.20526-4.5179 0.27145-6.5254 1.0586-3.2135 1.26-4.5968 1.1134-11.564-1.2266-8.862-2.9762-10.822-2.9044-7.5781 0.2832 1.2114 1.1905 5.849 3.8454 10.305 5.8984 9.7098 4.4738 11.505 4.4315 20.588-0.49414 5.597-3.0353 6.265-3.6743 5.375-5.1289-0.55911-0.91373-0.81753-2.1419-0.57617-2.7285 0.24136-0.58667-0.74701-1.8554-2.1953-2.8203-1.5246-1.0157-2.5291-2.52-2.3867-3.5723 0.1421-1.0499-0.72819-2.3571-2.0625-3.0957-1.7646-0.9768-2.0738-1.7173-1.3106-3.1426 0.87805-1.6396 0.44218-2.1604-3.5879-4.2969-0.77494-0.41084-1.5752-0.77498-2.3945-1.0898-2.5091-0.9643-5.1964-1.4776-7.875-1.5352zm-4.1055 10.521c-0.42393-0.0527-0.95116 0.10793-1.5195 0.57617-0.94205 0.77607-1.5603 1.7796-1.373 2.2285 0.58637 1.4061 1.8803 1.516 3.0664 0.25977 1.1455-1.2132 0.98605-2.5317 0.21289-2.9434-0.11598-0.0618-0.24541-0.10352-0.38672-0.12109z" fill="#fff" stroke="#000" stroke-width="5.1089"/>
  <path d="m196.22 220.85s1.881-4.5758 8.6439-3.9888c6.3891 0.55461 10.737 4.7952 10.737 4.7952s3.8727 4.3969 4.6843 5.039c0.81163 0.64212 2.2342 1.3426 3.0175 1.722 0.78835 0.38184 0.94301 0.74466 0.33817 0.94805-1.4414 0.48472-3.4533 0.15558-4.5312 0.2465-1.5218 0.12843-4.194 0.33431-6.46 1.1072-1.8805 0.64141-3.2501 0.66655-3.2501 0.66655s-1.3169-0.25257-5.0769-1.3447c-1.7131-0.49757-8.5408-2.4166-9.8936-2.6092-1.3527-0.19264-1.8027 3.6303-2.4799 2.4511-3.707-6.4554-3.8308-10.245-3.8308-10.245s0.63511 2.9949 3.5394 3.1892c2.5975 0.17384 4.5618-1.9774 4.5618-1.9774z" fill="#010101"/>
  <path d="m202.35 222.95c-0.45659-0.28014-0.80918-0.83235-0.9055-1.5589-0.10833-0.81721 0.46396-2.2726 2.0368-3.1326 1.2343-0.67493 2.4233-0.41254 2.7708-0.15413 0.60455 0.44949 0.73384 1.0013 0.7976 1.5728 0.0226 1.2048-0.26928 1.908-1.5649 3.0007-1.0833 0.91371-2.2664 0.80517-3.1349 0.27217z" fill="#fefefe" stop-color="#000000" style="paint-order:stroke markers fill"/>
 </g>
</svg>
