<svg width="420" height="420" version="1.1" viewBox="0 0 420 420" xmlns="http://www.w3.org/2000/svg" xmlns:xlink="http://www.w3.org/1999/xlink">
 <image x=".72116" y="1.226" width="420" height="420" display="none" preserveAspectRatio="none" xlink:href="../../../OneDrive/Imagens/Chess/Stylus/Furia/Mar%20Gelado/wn.png"/>
 <g transform="matrix(1.1032 0 0 1.1032 -13.886 -62.633)">
  <path transform="matrix(.90641 0 0 .90641 12.587 56.772)" d="m354.19 10.24c-0.10771 0.01038-0.21569 0.03676-0.32422 0.08203-0.63984 0.26684-4.6843 7.7946-8.9863 16.729-8.0309 16.678-12.646 23.245-22.199 31.592-2.0222 1.767-10.019 8.7089-17.771 15.426-14.409 12.483-22.958 21.715-33.812 36.529-0.53029-0.75923-1.1355-1.849-1.7402-3.252-3.1856-7.3902-7.7171-11.213-13.172-11.111-4.1136 0.07655-6.0145 0.02184-6.9238-0.79492l-0.0645 0.03125c-2.7942-2.961-5.1325-5.5445-5.6504-6.3105-1.5548-2.3-5.8284-9.263-9.498-15.475-8.3256-14.092-11.027-18.165-15.416-23.232-4.111-4.7467-6.0098-5.7647-18.145-9.7402-5.0502-1.6544-14.537-5.2237-21.086-7.9316-6.5481-2.708-16.138-6.6804-21.309-8.8262-5.1709-2.1458-12.636-5.7218-16.59-7.9473-3.9533-2.2254-8.4074-4.3416-9.8984-4.7031-6.5956-1.5993-2.3629 6.3605 11.059 20.797 15.301 16.459 21.569 24.528 27.469 35.355 3.2531 5.9707 7.6166 12.996 9.6953 15.611 8.189 10.304 23.586 22.969 36.348 30.49-4.6897 3.7504-12.668 9.0383-16.117 10.354-2.7961 1.0662-11.005 2.8027-18.242 3.8574-17.096 2.4916-18.254 3.358-25.645 19.186l-5.5703 11.924-13.414 11.611c-18.265 15.807-38.103 31.892-51.832 42.027-22.054 16.282-27.09 21.661-28.822 30.775-1.3944 7.3337-0.44038 21.648 1.8379 27.596 1.6431 4.2894 2.5577 5.263 6.457 6.8672 3.0951 1.2734 5.1301 2.9057 6.3809 5.1211 4.6667 8.2658 20.619 16.624 29.627 15.521 5.2076-0.63703 11.568-4.1322 14.672-8.0625 4.3413-5.4987 12.578-11.116 18.547-12.646 6.0993-1.5638 28.37-1.9354 38.156-0.63672 3.9358 0.52237 5.0657 1.0262 5.666 2.5274 0.41239 1.0311 0.85905 9.6274 0.99219 19.104 0.13313 9.4759-0.0414 18.589 0.3457 27.846 0.38706 9.2556-1.4214 28.246-1.4707 33.098l-0.19922 5.5996c5.4891 0.68205 201.34 3e-5 201.35 0-1.5934-9.0299-6.8428-20.02-11.795-24.514l-9.0039-8.168 0.69141-4.8867c0.38015-2.6874 0.56581-6.1253 0.41211-7.6406-0.288-2.8392-7.976-15.945-16.217-27.645-9.3928-13.334-13.11-24.941-15.682-48.98-1.3823-12.923-2.6407-20.544-6.332-38.314-3.8999-18.774-8-30.634-13.199-38.188-1.1248-1.634-2.0249-3.0828-2.6973-4.2773 6.0988-4.2279 12.985-10.803 17.678-17.113 5.3789-7.233 10.247-20.675 13.033-35.984 3.0358-16.682 6.74-28.436 11.869-37.664 7.8257-14.077 10.786-22.322 11.639-32.412 1.1316-13.387-1.7604-29.521-5.0996-29.199z" fill="#f9f9f9" stroke="#000" stroke-width="20"/>
  <path transform="matrix(.90641 0 0 .90641 12.587 56.772)" d="m354.19 10.24c-0.10771 0.01038-0.21569 0.03676-0.32422 0.08203-0.63984 0.26684-4.6843 7.7946-8.9863 16.729-8.0309 16.678-12.646 23.245-22.199 31.592-2.0222 1.767-10.019 8.7089-17.771 15.426-14.409 12.483-22.958 21.715-33.812 36.529-0.53029-0.75923-1.1355-1.849-1.7402-3.252-3.1856-7.3902-7.7171-11.213-13.172-11.111-4.1136 0.07655-6.0145 0.02184-6.9238-0.79492l-0.0645 0.03125c-2.7942-2.961-5.1325-5.5445-5.6504-6.3105-1.5548-2.3-5.8284-9.263-9.498-15.475-8.3256-14.092-11.027-18.165-15.416-23.232-4.111-4.7467-6.0098-5.7647-18.145-9.7402-5.0502-1.6544-14.537-5.2237-21.086-7.9316-6.5481-2.708-16.138-6.6804-21.309-8.8262-5.1709-2.1458-12.636-5.7218-16.59-7.9473-3.9533-2.2254-8.4074-4.3416-9.8984-4.7031-6.5956-1.5993-2.3629 6.3605 11.059 20.797 15.301 16.459 21.569 24.528 27.469 35.355 3.2531 5.9707 7.6166 12.996 9.6953 15.611 8.189 10.304 23.586 22.969 36.348 30.49-4.6897 3.7504-12.668 9.0383-16.117 10.354-2.7961 1.0662-11.005 2.8027-18.242 3.8574-17.096 2.4916-18.254 3.358-25.645 19.186l-5.5703 11.924-13.414 11.611c-18.265 15.807-38.103 31.892-51.832 42.027-22.054 16.282-27.09 21.661-28.822 30.775-1.3944 7.3337-0.44038 21.648 1.8379 27.596 1.6431 4.2894 2.5577 5.263 6.457 6.8672 3.0951 1.2734 5.1301 2.9057 6.3809 5.1211 4.6667 8.2658 20.619 16.624 29.627 15.521 5.2076-0.63703 11.568-4.1322 14.672-8.0625 4.3413-5.4987 12.578-11.116 18.547-12.646 6.0993-1.5638 28.37-1.9354 38.156-0.63672 3.9358 0.52237 5.0657 1.0262 5.666 2.5274 0.41239 1.0311 0.85905 9.6274 0.99219 19.104 0.13313 9.4759-0.0414 18.589 0.3457 27.846 0.38706 9.2556-1.4214 28.246-1.4707 33.098l-0.19922 5.5996c5.4891 0.68205 201.34 3e-5 201.35 0-1.5934-9.0299-6.8428-20.02-11.795-24.514l-9.0039-8.168 0.69141-4.8867c0.38015-2.6874 0.56581-6.1253 0.41211-7.6406-0.288-2.8392-7.976-15.945-16.217-27.645-9.3928-13.334-13.11-24.941-15.682-48.98-1.3823-12.923-2.6407-20.544-6.332-38.314-3.8999-18.774-8-30.634-13.199-38.188-1.1248-1.634-2.0249-3.0828-2.6973-4.2773 6.0988-4.2279 12.985-10.803 17.678-17.113 5.3789-7.233 10.247-20.675 13.033-35.984 3.0358-16.682 6.74-28.436 11.869-37.664 7.8257-14.077 10.786-22.322 11.639-32.412 1.1316-13.387-1.7604-29.521-5.0996-29.199zm-138.82 156.6c0.48147-0.0131 0.96469-0.0137 1.4473 0 3.8606 0.10959 7.7289 1.0757 11.148 2.8887 4.4462 2.357 4.9258 2.9314 3.957 4.7402-0.84209 1.5725-0.50147 2.3911 1.4453 3.4688 1.4721 0.81487 2.4342 2.2576 2.2773 3.416-0.15711 1.1608 0.9508 2.8189 2.6328 3.9395 1.5978 1.0645 2.6882 2.4661 2.4219 3.1133-0.26632 0.64716 0.0199 2.0017 0.63672 3.0098 0.98193 1.6048 0.24325 2.3076-5.9316 5.6562-10.021 5.4342-12.001 5.4826-22.713 0.54688-4.9158-2.265-10.031-5.1924-11.367-6.5059h-2e-3c-3.5784-3.5167-1.4156-3.5979 8.3613-0.31446 7.687 2.5816 9.2126 2.7436 12.758 1.3535 2.2148-0.86841 5.4553-1.3944 7.2012-1.168 3.8452 0.49872 5.8454-1.313 2.8223-2.5566-1.1831-0.48675-3.8194-2.9004-5.8574-5.3633-6.9766-8.4306-18.39-10-22.949-3.1562-2.9702 4.4582-8.377 2.7875-7.6289-2.3574 0.44885-3.0868 2.8612-5.193 9.6836-8.4531 2.9657-1.4172 6.286-2.166 9.6562-2.2578zm-97.018 36.303c0.13196 1e-3 0.25751 0.0167 0.375 0.0469 0.3133 0.0805 0.56512 0.26789 0.69531 0.58008 0.4892 1.1731-1.9819 3.4898-3.1914 2.9922-0.57311-0.23579-0.77083-1.084-0.4414-1.8848 0.43442-1.056 1.6387-1.7414 2.5625-1.7344zm7.0918 7.9922c0.1182-2e-3 0.22333 8e-3 0.31641 0.0293 1.117 0.24996 0.42988 2.0343-1.9394 3.5488-2.4525 1.5676-2.6744 1.5373-2.3027-0.30469 0.22617-1.1208 1.3605-2.4327 2.5195-2.916 0.58324-0.24322 1.0517-0.35286 1.4062-0.35742zm-22.828 1.9844c0.0978 1e-3 0.18704 0.0109 0.26758 0.0293 0.96638 0.22077 0.67819 1.613-1.0781 2.5449-1.4162 0.75134-2.0204 0.66351-1.9551-0.28711 0.05207-0.75642 0.7968-1.669 1.6562-2.0274 0.44514-0.18563 0.81591-0.2633 1.1094-0.25976zm10.342 4.1445c0.0747 7e-3 0.14305 0.0233 0.20508 0.0488 0.49624 0.20415 0.62222 1.0532 0.2793 1.8867-0.34291 0.83356-1.2914 1.2401-2.1074 0.9043-0.90383-0.37185-1.0133-1.1094-0.2793-1.8867 0.57993-0.61419 1.3793-1.0025 1.9023-0.95312zm-26.762 2.416c0.27814 2e-3 0.56678 0.0221 0.87109 0.0586 0.81152 0.0972 1.7394 0.3117 2.9082 0.61523 2.9194 0.75818 5.417 1.9612 5.8789 2.832 0.98276 1.8525 6.1659 3.7223 8.5645 3.0898 1.2319-0.32489 1.8448 0.07 2.0508 1.3203 0.24734 1.5014 1.141 1.8937 5.6504 2.4785 4.797 0.62213 5.4167 0.93344 5.918 2.9727 0.51788 2.1065 1.018 2.1669 6.6719 0.82813l6.1113-1.4473-2.1309 3.4668c-2.3045 3.7487-1.1548 5.4517 2.4062 3.5625 2.9047-1.541 4.0671-0.44028 2.2012 2.0859-1.9718 2.6694-0.52191 3.7057 3.2754 2.3398 3.1694-1.1399 4.0881 0.59512 1.3535 2.5566-2.9852 2.1412-2.8772 2.5932 0.7793 3.2363 2.5044 0.44049 3.1572 0.94111 2.6934 2.0684-0.33662 0.8182-1.4021 1.4685-2.3672 1.4453-0.96512-0.0231-2.0406 0.65487-2.3906 1.5059-0.35008 0.85095 0.0454 1.827 0.8789 2.1699 0.83352 0.34292 1.3282 1.0791 1.0996 1.6348-0.22861 0.55567-0.75708 0.87065-1.1738 0.69921-0.41679-0.17138-2.0456 2.7642-3.6192 6.5254-2.6389 6.3073-3.3091 7.1001-8.625 10.203-3.17 1.8504-7.852 5.6536-10.406 8.4512-9.2214 10.1-20.843 11.235-32.887 3.2109h-2e-3c-2.9167-1.9432-3.4334-4.2171-0.70312-3.0938 2.6791 1.1022 11.915-3.8442 18.293-9.7969 3.4612-3.2302 7.4835-5.9931 8.9375-6.1406 3.1454-0.31904 7.0592-4.0953 6.252-6.0312-0.58962-1.4139-6.4344-0.79528-9.6875 1.0254-1.0128 0.56683-3.2324 3.0384-4.9316 5.4922-3.7938 5.4785-11.709 10.581-16.834 10.852-5.6241 0.29701-17.12-3.3764-18.43-5.8887-4.1599-7.9802-5.8404-25.621-3.1426-32.994 1.4535-3.9727 9.5735-12.214 17.889-18.156 3.234-2.3109 4.6995-3.1896 6.6465-3.1777zm38.857 2.0039c0.18753 5e-3 0.3306 0.0625 0.41406 0.17773 0.67304 0.92911-1.1716 3.2945-3.6914 4.7344-2.5404 1.4516-1.8936-1.4712 0.82032-3.707 0.62261-0.5129 1.257-0.88413 1.7773-1.0703 0.26018-0.0931 0.49216-0.13998 0.67969-0.13477zm20.949 9.2344c0.1664 9e-3 0.32043 0.038 0.45117 0.0918 0.52294 0.21512 0.76377 0.84472 0.53515 1.4004-0.22861 0.55568-1.1238 0.7197-1.9902 0.36328-0.86632-0.35641-1.1072-0.98795-0.53516-1.4023 0.42903-0.31079 1.0398-0.47888 1.5391-0.45312zm-59.975 19.373c-0.56982-0.0134-1.2212 0.15076-2.0781 0.45899-3.1174 1.1212-6.6181 5.923-6.9141 9.4824-0.31072 3.736 1.3813 3.4647 3.4355-0.55078 1.5045-2.9408 2.3459-3.5395 4.2812-3.0469 1.3247 0.33712 3.2402-0.0738 4.2578-0.91211 1.5387-1.2676 1.5013-1.8963-0.22852-3.7422-0.86362-0.92156-1.5008-1.4355-2.207-1.6152-0.17657-0.0449-0.35694-0.0698-0.54688-0.0742z" fill="#fff"/>
  <path d="m120.4 241.02c0.18928 0.0918 0.33991 0.24018 0.42842 0.45241 0.44341 1.0633-1.7965 3.1621-2.8929 2.711-0.51948-0.21373-0.70069-0.98185-0.40209-1.7076 0.48753-1.185 2.0464-1.8538 2.8665-1.4558zm6.3918 7.2388c0.67899 0.40968-8e-3 1.8725-1.9765 3.1308-2.223 1.4209-2.4233 1.3946-2.0864-0.27495 0.205-1.0159 1.2312-2.2055 2.2817-2.6436 0.88108-0.36743 1.4726-0.39854 1.7812-0.21233zm-0.63879 9.4941c0.0632 0.0267 0.11599 0.0656 0.15382 0.11775 0.61005 0.84215-1.0628 2.9869-3.3469 4.292-2.3027 1.3158-1.715-1.3348 0.74501-3.3613 0.98758-0.81358 2.0058-1.2354 2.4481-1.0485zm19.177 8.4091c0.47395 0.19498 0.69175 0.76722 0.48453 1.2709s-1.0182 0.65073-1.8034 0.32767c-0.78525-0.32306-1.0054-0.89432-0.48688-1.2699s1.3318-0.52363 1.8058-0.32864zm-30.176-12.415c0.44978 0.18505 0.56226 0.95431 0.25144 1.7098-0.31083 0.75551-1.1694 1.1253-1.9091 0.82094-0.81925-0.33705-0.91844-1.0059-0.25311-1.7105 0.60075-0.63624 1.461-1.0053 1.9108-0.82026zm-9.1217-3.7042c0.62779 0.33634 0.28575 1.4637-1.1735 2.2379-1.2837 0.68103-1.8317 0.59913-1.7726-0.26252 0.0472-0.68563 0.72323-1.5114 1.5022-1.8363 0.67247-0.28043 1.1585-0.29205 1.4439-0.13915zm25.126 17.406-1.9305 3.142c-2.0888 3.3979-1.0477 4.9411 2.18 3.2287 2.6329-1.3968 3.6868-0.39915 1.9954 1.8906-1.7873 2.4196-0.47151 3.3585 2.9704 2.1206 2.8728-1.0332 3.7038 0.53856 1.2251 2.3165-2.7058 1.9408-2.6076 2.3508 0.70669 2.9337 2.27 0.39927 2.8615 0.85379 2.4411 1.8756-0.30512 0.74163-1.2709 1.3318-2.1457 1.3109s-1.8503 0.59281-2.1676 1.3642c-0.31733 0.77131 0.0415 1.6565 0.797 1.9673 0.75551 0.31083 1.204 0.97798 0.9968 1.4817s-0.6855 0.78754-1.0633 0.63218c-0.37779-0.15536-1.8537 2.507-3.28 5.9162-2.3919 5.717-2.9984 6.4354-7.8168 9.2481-2.8733 1.6772-7.12 5.1247-9.4352 7.6604-8.3584 9.1549-18.892 10.183-29.808 2.9095-2.6437-1.7613-3.1123-3.8223-0.6375-2.8041 2.4284 0.99909 10.801-3.4843 16.582-8.88 3.1373-2.9279 6.7815-5.4334 8.0994-5.5671 2.851-0.28918 6.399-3.7103 5.6673-5.465-0.53444-1.2816-5.8333-0.72035-8.782 0.92993-0.91806 0.51379-2.929 2.7537-4.4691 4.9777-3.4388 4.9658-10.613 9.5898-15.258 9.8351-5.0978 0.26921-15.52-3.0601-16.707-5.3372-3.7706-7.2334-5.2934-23.222-2.8481-29.906 1.3175-3.6009 8.6795-11.072 16.217-16.457 4.4668-3.1918 5.2105-3.3706 9.4481-2.2701 2.6462 0.68722 4.9096 1.7782 5.3284 2.5675 0.8908 1.6791 5.5901 3.3748 7.7642 2.8014 1.1166-0.29447 1.6722 0.0633 1.8589 1.1965 0.22419 1.3609 1.0351 1.7155 5.1224 2.2455 4.3481 0.56388 4.9075 0.84571 5.3619 2.6941 0.46941 1.9093 0.92342 1.9651 6.0482 0.75163zm-39.631 16.437c-0.78172-0.39778-1.5577-0.29717-2.8523 0.16843-2.8257 1.0163-5.9998 5.3677-6.2681 8.5939-0.28164 3.3864 1.2523 3.1415 3.1143-0.49818 1.3637-2.6656 2.1261-3.2083 3.8803-2.7618 1.2007 0.30558 2.9373-0.0657 3.8597-0.82553 1.3947-1.149 1.3597-1.7207-0.20822-3.3937-0.58711-0.62649-1.0567-1.0445-1.5258-1.2831z" stroke-width=".99025"/>
  <path d="m209.34 208.11c-3.444-0.074-6.8743 0.60566-9.8984 2.0508-6.1838 2.955-8.3725 4.8642-8.7793 7.6621-0.67812 4.6633 4.2238 6.1777 6.916 2.1367 4.1331-6.2038 14.477-4.7803 20.801 2.8613 1.8473 2.2323 4.2362 4.4201 5.3086 4.8613 2.7402 1.1273 0.92674 2.7704-2.5586 2.3184-1.5825-0.20526-4.5179 0.27145-6.5254 1.0586-3.2135 1.26-4.5968 1.1134-11.564-1.2266-8.862-2.9762-10.822-2.9044-7.5781 0.2832 1.2114 1.1905 5.849 3.8454 10.305 5.8984 9.7098 4.4738 11.505 4.4315 20.588-0.49414 5.597-3.0353 6.265-3.6743 5.375-5.1289-0.55911-0.91373-0.81753-2.1419-0.57617-2.7285 0.24136-0.58667-0.74701-1.8554-2.1953-2.8203-1.5246-1.0157-2.5291-2.52-2.3867-3.5723 0.1421-1.0499-0.72819-2.3571-2.0625-3.0957-1.7646-0.9768-2.0738-1.7173-1.3106-3.1426 0.87805-1.6396 0.44218-2.1604-3.5879-4.2969-0.77494-0.41084-1.5752-0.77498-2.3945-1.0898-2.5091-0.9643-5.1964-1.4776-7.875-1.5352zm-4.1055 10.521c-0.42393-0.0527-0.95116 0.10793-1.5195 0.57617-0.94205 0.77607-1.5603 1.7796-1.373 2.2285 0.58637 1.4061 1.8803 1.516 3.0664 0.25977 1.1455-1.2132 0.98605-2.5317 0.21289-2.9434-0.11598-0.0618-0.24541-0.10352-0.38672-0.12109z" fill="#fff" stroke="#000" stroke-width="5.1"/>
  <path d="m196.22 220.85s1.881-4.5758 8.6439-3.9888c6.3891 0.55461 10.737 4.7952 10.737 4.7952s3.8727 4.3969 4.6843 5.039c0.81163 0.64212 2.2342 1.3426 3.0175 1.722 0.78835 0.38184 0.94301 0.74466 0.33817 0.94805-1.4414 0.48472-3.4533 0.15558-4.5312 0.2465-1.5218 0.12843-4.194 0.33431-6.46 1.1072-1.8805 0.64141-3.2501 0.66655-3.2501 0.66655s-1.3169-0.25257-5.0769-1.3447c-1.7131-0.49757-8.5408-2.4166-9.8936-2.6092-1.3527-0.19264-1.8027 3.6303-2.4799 2.4511-3.707-6.4554-3.8308-10.245-3.8308-10.245s0.63511 2.9949 3.5394 3.1892c2.5975 0.17384 4.5618-1.9774 4.5618-1.9774z" fill="#010101"/>
  <path d="m202.35 222.95c-0.45659-0.28014-0.80918-0.83235-0.9055-1.5589-0.10833-0.81721 0.46396-2.2726 2.0368-3.1326 1.2343-0.67493 2.4233-0.41254 2.7708-0.15413 0.60455 0.44949 0.73384 1.0013 0.7976 1.5728 0.0226 1.2048-0.26928 1.908-1.5649 3.0007-1.0833 0.91371-2.2664 0.80517-3.1349 0.27217z" fill="#fefefe" stop-color="#000000" style="paint-order:stroke markers fill"/>
 </g>
</svg>
