<svg width="420" height="420" version="1.1" viewBox="0 0 420 420" xmlns="http://www.w3.org/2000/svg">
 <g>
  <path d="m195.76 20.93c-2.3572-0.01341-2.8109 8.0289-1.1211 22.447 2.3711 20.231 2.6314 29.489 1.1445 40.566-0.81993 6.1083-1.3922 13.583-1.2734 16.609 0.60041 15.299 7.79 39.843 14.875 50.779 1.5308 2.363 2.6094 4.7208 2.3965 5.2383-0.81283 1.9757-13.463 10.84-17.863 12.518-2.5344 0.96638-9.9754 2.5381-16.535 3.4941-15.496 2.2584-16.544 3.044-23.244 17.391l-5.0488 10.809-12.158 10.523c-16.556 14.328-34.536 28.908-46.98 38.096-19.99 14.758-24.554 19.633-26.125 27.895-1.2639 6.6474-0.40098 19.623 1.6641 25.014 1.4893 3.888 2.3191 4.7705 5.8535 6.2246 2.8054 1.1542 4.6495 2.6326 5.7832 4.6406 4.23 7.4922 18.689 15.069 26.854 14.07 4.7202-0.57741 10.486-3.7461 13.299-7.3086 3.935-4.9841 11.403-10.076 16.812-11.463 5.5285-1.4175 25.716-1.7534 34.586-0.57618 3.5675 0.47348 4.5907 0.93038 5.1348 2.291 0.3738 0.93458 0.77775 8.7253 0.89843 17.314 0.12067 8.5891-0.0383 16.851 0.3125 25.24 0.35084 8.3894-1.2854 25.601-1.3301 30l-0.18164 5.0742c4.9755 0.61823 182.51 0 182.51 0-1.4439-8.1851-6.2023-18.148-10.691-22.221l-8.1621-7.4043 0.62696-4.4297c0.34458-2.4359 0.51236-5.5523 0.37304-6.9258-0.26104-2.5735-7.2292-14.45-14.699-25.055-8.5138-12.086-11.882-22.609-14.213-44.398-1.2529-11.714-2.3943-18.621-5.7402-34.729-3.5349-17.017-7.2499-27.766-11.963-34.613-2.2869-3.3224-4.022-6.4126-3.8555-6.8672 0.16659-0.45453 2.735-1.9579 5.707-3.3418 6.326-2.9456 15.389-10.911 20.996-18.451 4.8755-6.5561 9.2892-18.738 11.814-32.615 2.7517-15.121 6.1088-25.775 10.758-34.139 7.0933-12.76 9.7777-20.233 10.551-29.379 1.0588-12.526-1.7701-27.705-4.918-26.393-0.57997 0.24187-4.2452 7.0663-8.1445 15.164-7.2793 15.117-11.462 21.068-20.121 28.635-1.8329 1.6016-9.0816 7.8937-16.109 13.982-13.484 11.682-21.285 20.173-31.592 34.387-3.4539 4.7628-6.6346 8.9189-7.0664 9.2363-0.43176 0.31743-1.7097-1.5677-2.8398-4.1895-2.8875-6.6986-6.9931-10.162-11.938-10.07-7.0246 0.13072-7.143 0.0474-6.957-4.8594 0.0953-2.5146 0.69935-9.8967 1.3438-16.404 1.462-14.764 1.6681-19.19 1.1738-25.246-0.46302-5.6729-1.3041-7.4328-8.0469-16.84-2.8063-3.9151-7.8328-11.608-11.17-17.096-3.3371-5.4878-8.2198-13.528-10.852-17.867s-6.1746-10.954-7.873-14.699c-1.6984-3.7449-3.8223-7.6772-4.7188-8.7402-0.74357-0.88173-1.3896-1.3153-1.9336-1.3184z" fill="none" stroke="#000" stroke-width="13.5"/>
  <path d="m216.82 209.53c0.81929 0.31486 1.6205 0.67773 2.3954 1.0886 4.0301 2.1364 4.4641 2.6576 3.586 4.2972-0.76328 1.4253-0.45375 2.1665 1.3108 3.1433 1.3343 0.73861 2.2059 2.0454 2.0638 3.0953-0.14242 1.0522 0.86214 2.5566 2.3867 3.5724 1.4483 0.96491 2.4358 2.2337 2.1944 2.8203s0.018 1.815 0.57711 2.7287c0.89002 1.4546 0.22198 2.0929-5.3751 5.1282-9.0828 4.9256-10.879 4.9687-20.589 0.49492-4.4557-2.053-9.0925-4.7075-10.304-5.898-3.2435-3.1876-1.2849-3.2603 7.577-0.28412 6.9676 2.34 8.3513 2.4862 11.565 1.2262 2.0075-0.78714 4.944-1.2638 6.5265-1.0586 3.4853 0.45205 5.2982-1.1905 2.558-2.3179-1.0724-0.4412-3.4609-2.6295-5.3082-4.8618-6.3237-7.6416-16.668-9.0635-20.801-2.8598-2.6922 4.041-7.5935 2.5262-6.9154-2.1372 0.40684-2.7979 2.5947-4.7072 8.7785-7.6622 5.3763-2.5691 12.038-2.7196 17.773-0.5155zm-11.594 9.1062c0.77316 0.41169 0.93194 1.7309-0.21355 2.944-1.1862 1.2562-2.4788 1.1466-3.0652-0.25948-0.18722-0.44893 0.42977-1.4522 1.3718-2.2283 0.75783-0.62431 1.443-0.70325 1.9069-0.45625zm-84.824 22.385c0.18928 0.0918 0.33991 0.24018 0.42842 0.45241 0.44341 1.0633-1.7965 3.1621-2.8929 2.711-0.51948-0.21373-0.70069-0.98185-0.40209-1.7076 0.48753-1.185 2.0464-1.8538 2.8665-1.4558zm6.3918 7.2388c0.67899 0.40968-8e-3 1.8725-1.9765 3.1308-2.223 1.4209-2.4233 1.3946-2.0864-0.27495 0.205-1.0159 1.2312-2.2055 2.2817-2.6436 0.88108-0.36743 1.4726-0.39854 1.7812-0.21233zm-0.63879 9.4941c0.0632 0.0267 0.11599 0.0656 0.15382 0.11775 0.61005 0.84215-1.0628 2.9869-3.3469 4.292-2.3027 1.3158-1.715-1.3348 0.74501-3.3613 0.98758-0.81358 2.0058-1.2354 2.4481-1.0485zm19.177 8.4091c0.47395 0.19498 0.69175 0.76722 0.48453 1.2709s-1.0182 0.65073-1.8034 0.32767c-0.78525-0.32306-1.0054-0.89432-0.48688-1.2699s1.3318-0.52363 1.8058-0.32864zm-30.176-12.415c0.44978 0.18505 0.56226 0.95431 0.25144 1.7098-0.31083 0.75551-1.1694 1.1253-1.9091 0.82094-0.81925-0.33705-0.91844-1.0059-0.25311-1.7105 0.60075-0.63624 1.461-1.0053 1.9108-0.82026zm-9.1217-3.7042c0.62779 0.33634 0.28575 1.4637-1.1735 2.2379-1.2837 0.68103-1.8317 0.59913-1.7726-0.26252 0.0472-0.68563 0.72323-1.5114 1.5022-1.8363 0.67247-0.28043 1.1585-0.29205 1.4439-0.13915zm25.126 17.406-1.9305 3.142c-2.0888 3.3979-1.0477 4.9411 2.18 3.2287 2.6329-1.3968 3.6868-0.39915 1.9954 1.8906-1.7873 2.4196-0.47151 3.3585 2.9704 2.1206 2.8728-1.0332 3.7038 0.53856 1.2251 2.3165-2.7058 1.9408-2.6076 2.3508 0.70669 2.9337 2.27 0.39927 2.8615 0.85379 2.4411 1.8756-0.30512 0.74163-1.2709 1.3318-2.1457 1.3109-0.8748-0.0209-1.8503 0.59281-2.1676 1.3642-0.31733 0.77131 0.0415 1.6565 0.797 1.9673 0.75551 0.31083 1.204 0.97798 0.9968 1.4817s-0.6855 0.78754-1.0633 0.63218c-0.37779-0.15536-1.8537 2.507-3.28 5.9162-2.3919 5.717-2.9984 6.4354-7.8168 9.2481-2.8733 1.6772-7.12 5.1247-9.4352 7.6604-8.3584 9.1549-18.892 10.183-29.808 2.9095-2.6437-1.7613-3.1123-3.8223-0.6375-2.8041 2.4284 0.99909 10.801-3.4843 16.582-8.88 3.1373-2.9279 6.7815-5.4334 8.0994-5.5671 2.851-0.28918 6.399-3.7103 5.6673-5.465-0.53444-1.2816-5.8333-0.72035-8.782 0.92993-0.91806 0.51379-2.929 2.7537-4.4691 4.9777-3.4388 4.9658-10.613 9.5898-15.258 9.8351-5.0978 0.26921-15.52-3.0601-16.707-5.3372-3.7706-7.2334-5.2934-23.222-2.8481-29.906 1.3175-3.6009 8.6795-11.072 16.217-16.457 4.4668-3.1918 5.2105-3.3706 9.4481-2.2701 2.6462 0.68722 4.9096 1.7782 5.3284 2.5675 0.8908 1.6791 5.5901 3.3748 7.7642 2.8014 1.1166-0.29447 1.6722 0.0633 1.8589 1.1965 0.22419 1.3609 1.0351 1.7155 5.1224 2.2455 4.3481 0.56388 4.9075 0.84571 5.3619 2.6941 0.46941 1.9093 0.92342 1.9651 6.0482 0.75163zm-39.631 16.437c-0.78172-0.39778-1.5577-0.29717-2.8523 0.16843-2.8257 1.0163-5.9998 5.3677-6.2681 8.5939-0.28164 3.3864 1.2523 3.1415 3.1143-0.49818 1.3637-2.6656 2.1261-3.2083 3.8803-2.7618 1.2007 0.30558 2.9373-0.0657 3.8597-0.82553 1.3947-1.149 1.3597-1.7207-0.20822-3.3937-0.58711-0.62649-1.0567-1.0445-1.5258-1.2831z" stroke-width=".99025"/>
  <path d="m356.02 387.82c-1.4439-8.1851-6.201-18.148-10.69-22.221l-8.162-7.4048 0.62653-4.4288c0.34458-2.4359 0.51252-5.5526 0.3732-6.9261-0.26104-2.5735-7.2294-14.451-14.699-25.056-8.5138-12.086-11.882-22.608-14.213-44.398-1.2529-11.714-2.3947-18.621-5.7406-34.728-3.5349-17.017-7.2504-27.767-11.963-34.614-2.2869-3.3224-4.0217-6.4126-3.8552-6.8672 0.16659-0.45453 2.7345-1.9587 5.7066-3.3426 6.326-2.9456 15.39-10.91 20.997-18.45 4.8755-6.5561 9.2886-18.74 11.814-32.617 2.7517-15.121 6.1089-25.774 10.758-34.138 7.0933-12.76 9.7772-20.234 10.55-29.38 1.0588-12.526-1.7692-27.705-4.917-26.392-0.57997 0.24187-4.2449 7.0652-8.1443 15.163-7.2793 15.117-11.462 21.07-20.121 28.636-1.8329 1.6016-9.0826 7.8937-16.11 13.982-13.484 11.682-21.285 20.173-31.592 34.387-3.4539 4.7628-6.633 8.9193-7.0648 9.2368-0.43176 0.31743-1.7097-1.5679-2.8398-4.1896-2.8875-6.6986-6.9947-10.163-11.939-10.071-7.0246 0.13072-7.1426 0.0484-6.9566-4.8584 0.0953-2.5146 0.7005-9.8964 1.3449-16.404 1.462-14.764 1.6677-19.19 1.1734-25.246-0.46302-5.6729-1.3043-7.4336-8.0471-16.841-2.8063-3.9151-7.8326-11.608-11.17-17.096-3.3371-5.4878-8.2207-13.528-10.852-17.867s-6.1747-10.953-7.8731-14.698c-1.6984-3.7449-3.8215-7.6786-4.718-8.7417-3.9657-4.7026-5.135 3.3846-3.0552 21.13 2.3711 20.231 2.6325 29.489 1.1456 40.566-0.81993 6.1083-1.3936 13.582-1.2749 16.608 0.60041 15.299 7.7902 39.844 14.875 50.78 1.5308 2.363 2.609 4.7198 2.3961 5.2373-0.81283 1.9757-13.461 10.84-17.862 12.518-2.5344 0.96638-9.9751 2.5393-16.535 3.4953-15.496 2.2584-16.546 3.0437-23.245 17.39l-5.0476 10.809-12.16 10.524c-16.556 14.328-34.536 28.908-46.98 38.095-19.99 14.758-24.555 19.633-26.125 27.894-1.2639 6.6474-0.40036 19.622 1.6647 25.013 1.4893 3.888 2.3193 4.7704 5.8537 6.2245 2.8054 1.1542 4.6489 2.6341 5.7826 4.6422 4.23 7.4922 18.69 15.068 26.855 14.069 4.7202-0.57741 10.485-3.7459 13.298-7.3084 3.935-4.9841 11.402-10.075 16.812-11.462 5.5285-1.4175 25.716-1.7544 34.586-0.57723 3.5675 0.47348 4.5912 0.93013 5.1353 2.2908 0.3738 0.93458 0.77836 8.7267 0.89904 17.316 0.12067 8.5891-0.0384 16.85 0.31244 25.24 0.35084 8.3894-1.2869 25.601-1.3316 29.999l-0.18162 5.0755c4.9755 0.61823 182.51-1e-5 182.51-1e-5zm-269.19-70.369c-2.6437-1.7613-3.1122-3.8235-0.63741-2.8053 2.4284 0.99909 10.8-3.4838 16.581-8.8794 3.1373-2.9279 6.7824-5.4328 8.1003-5.5665 2.851-0.28918 6.399-3.711 5.6673-5.4658-0.53444-1.2816-5.8329-0.7207-8.7816 0.92958-0.91806 0.51378-2.9293 2.7539-4.4695 4.978-3.4388 4.9658-10.613 9.5906-15.258 9.8359-5.0978 0.26921-15.519-3.0604-16.706-5.3376-3.7706-7.2334-5.2935-23.223-2.8482-29.906 1.3175-3.6009 8.678-11.071 16.215-16.457 4.4668-3.1918 5.212-3.3708 9.4496-2.2703 2.6462 0.68722 4.9097 1.7777 5.3284 2.567 0.89079 1.6791 5.5892 3.3742 7.7633 2.8009 1.1166-0.29448 1.6725 0.0633 1.8592 1.1966 0.22419 1.3609 1.0345 1.7163 5.1219 2.2464 4.3481 0.56388 4.9086 0.84542 5.363 2.6938 0.46941 1.9094 0.92276 1.9658 6.0475 0.75232l5.5401-1.3118-1.9316 3.1422c-2.0888 3.3979-1.0463 4.9406 2.1815 3.2282 2.6329-1.3968 3.6858-0.39837 1.9945 1.8914-1.7873 2.4196-0.47242 3.3586 2.9695 2.1206 2.8728-1.0332 3.7044 0.53855 1.2257 2.3165-2.7058 1.9408-2.6069 2.3509 0.70739 2.9338 2.27 0.39927 2.8612 0.85355 2.4408 1.8753-0.30512 0.74163-1.2705 1.3314-2.1453 1.3104-0.8748-0.0209-1.8502 0.59305-2.1675 1.3644-0.31732 0.77131 0.0412 1.6567 0.7967 1.9675 0.75551 0.31083 1.2041 0.97724 0.9969 1.4809-0.20722 0.50367-0.68586 0.78867-1.0636 0.63331-0.37778-0.15535-1.8539 2.5069-3.2802 5.9161-2.3919 5.717-2.9992 6.4355-7.8176 9.2481-2.8733 1.6772-7.1184 5.1242-9.4336 7.66-8.3584 9.1549-18.892 10.183-29.809 2.9101zm-1.3017-25.297c1.3637-2.6656 2.1259-3.2081 3.8801-2.7616 1.2007 0.30557 2.9376-0.066 3.86-0.82587 1.3947-1.149 1.3597-1.72-0.2082-3.3931-1.5656-1.6706-2.3079-1.8596-4.3791-1.1146-2.8257 1.0163-5.9993 5.3681-6.2676 8.5944-0.28164 3.3864 1.2529 3.1404 3.1149-0.49925zm38.182-33.349c1.1287-0.92979 2.2997-1.3488 2.6023-0.93106 0.61005 0.84215-1.0618 2.9865-3.3458 4.2916-2.3027 1.3158-1.7164-1.334 0.74354-3.3606zm-19.115-8.6205c2.1519-0.89738 2.3923 0.97247 0.2697 2.0987-1.2837 0.68103-1.8309 0.60032-1.7717-0.26134 0.0472-0.68563 0.72298-1.5125 1.502-1.8373zm8.6545 4.386c0.60075-0.63624 1.4603-1.0054 1.9101-0.82035s0.56348 0.95461 0.25265 1.7101c-0.31082 0.75552-1.1704 1.1247-1.9101 0.82035-0.81924-0.33705-0.91799-1.0055-0.25265-1.7101zm30.282 11.923c0.5185-0.37561 1.3305-0.52339 1.8045-0.3284s0.69218 0.76663 0.48496 1.2703c-0.20722 0.50367-1.0192 0.65145-1.8045 0.32839-0.78524-0.32306-1.0035-0.89469-0.48496-1.2703zm-18.515-18.019c2.8195-1.1758 2.6673 1.0884-0.19616 2.9188-2.223 1.4209-2.4235 1.3945-2.0866-0.27514 0.205-1.0159 1.2322-2.2055 2.2828-2.6436zm-7.4762-5.9956c0.60004-1.4585 2.8212-2.1352 3.2932-1.0033 0.44342 1.0633-1.7953 3.1625-2.8916 2.7115-0.51948-0.21373-0.7002-0.98241-0.4016-1.7082zm77.53-12.476c-3.2435-3.1876-1.284-3.2613 7.5779-0.28515 6.9676 2.34 8.3506 2.4867 11.564 1.2267 2.0075-0.78714 4.9448-1.2632 6.5273-1.058 3.4853 0.45205 5.2984-1.191 2.5582-2.3183-1.0724-0.4412-3.4613-2.6286-5.3086-4.861-6.3237-7.6416-16.669-9.0642-20.802-2.8605-2.6922 4.041-7.5937 2.5266-6.9156-2.1368 0.40684-2.7979 2.5943-4.7073 8.7782-7.6623 6.1443-2.9361 13.97-2.714 20.169 0.57255 4.0301 2.1364 4.4644 2.6567 3.5863 4.2963-0.76328 1.4253-0.45399 2.1672 1.3106 3.144 1.3343 0.73861 2.2058 2.0459 2.0636 3.0959-0.14241 1.0522 0.8627 2.556 2.3873 3.5717 1.4483 0.96492 2.4358 2.2344 2.1944 2.821s0.0186 1.8143 0.57772 2.728c0.89003 1.4546 0.22091 2.0928-5.3761 5.1281-9.0828 4.9256-10.879 4.9688-20.588 0.49501-4.4557-2.053-9.0925-4.7068-10.304-5.8973zm6.8807-8.6809c-0.18721-0.44892 0.4304-1.4512 1.3724-2.2273 2.0209-1.6648 3.5257 0.54536 1.6929 2.4864-1.1862 1.2562-2.479 1.1469-3.0654-0.25916z" fill="#fff" stroke-width=".99025"/>
  <path d="m209.34 208.11c-3.444-0.074-6.8743 0.60566-9.8984 2.0508-6.1838 2.955-8.3725 4.8642-8.7793 7.6621-0.67812 4.6633 4.2238 6.1777 6.916 2.1367 4.1331-6.2038 14.477-4.7803 20.801 2.8613 1.8473 2.2323 4.2362 4.4201 5.3086 4.8613 2.7402 1.1273 0.92674 2.7704-2.5586 2.3184-1.5825-0.20526-4.5179 0.27145-6.5254 1.0586-3.2135 1.26-4.5968 1.1134-11.564-1.2266-8.862-2.9762-10.822-2.9044-7.5781 0.2832 1.2114 1.1905 5.849 3.8454 10.305 5.8984 9.7098 4.4738 11.505 4.4315 20.588-0.49414 5.597-3.0353 6.265-3.6743 5.375-5.1289-0.55911-0.91373-0.81753-2.1419-0.57617-2.7285 0.24136-0.58667-0.74701-1.8554-2.1953-2.8203-1.5246-1.0157-2.5291-2.52-2.3867-3.5723 0.1421-1.0499-0.72819-2.3571-2.0625-3.0957-1.7646-0.9768-2.0738-1.7173-1.3106-3.1426 0.87805-1.6396 0.44218-2.1604-3.5879-4.2969-0.77494-0.41084-1.5752-0.77498-2.3945-1.0898-2.5091-0.9643-5.1964-1.4776-7.875-1.5352zm-4.1055 10.521c-0.42393-0.0527-0.95116 0.10793-1.5195 0.57617-0.94205 0.77607-1.5603 1.7796-1.373 2.2285 0.58637 1.4061 1.8803 1.516 3.0664 0.25977 1.1455-1.2132 0.98605-2.5317 0.21289-2.9434-0.11598-0.0618-0.24541-0.10352-0.38672-0.12109z" fill="#fff" stroke="#000" stroke-width="5.1"/>
  <path d="m196.22 220.85s1.881-4.5758 8.6439-3.9888c6.3891 0.55461 10.737 4.7952 10.737 4.7952s3.8727 4.3969 4.6843 5.039c0.81163 0.64212 2.2342 1.3426 3.0175 1.722 0.78835 0.38184 0.94301 0.74466 0.33817 0.94805-1.4414 0.48472-3.4533 0.15558-4.5312 0.2465-1.5218 0.12843-4.194 0.33431-6.46 1.1072-1.8805 0.64141-3.2501 0.66655-3.2501 0.66655s-1.3169-0.25257-5.0769-1.3447c-1.7131-0.49757-8.5408-2.4166-9.8936-2.6092-1.3527-0.19264-1.8027 3.6303-2.4799 2.4511-3.707-6.4554-3.8308-10.245-3.8308-10.245s0.63511 2.9949 3.5394 3.1892c2.5975 0.17384 4.5618-1.9774 4.5618-1.9774z" fill="#010101"/>
  <path d="m202.35 222.95c-0.45659-0.28014-0.80918-0.83235-0.9055-1.5589-0.10833-0.81721 0.46396-2.2726 2.0368-3.1326 1.2343-0.67493 2.4233-0.41254 2.7708-0.15413 0.60455 0.44949 0.73384 1.0013 0.7976 1.5728 0.0226 1.2048-0.26928 1.908-1.5649 3.0007-1.0833 0.91371-2.2664 0.80517-3.1349 0.27217z" fill="#fefefe" stop-color="#000000" style="paint-order:stroke markers fill"/>
 </g>
</svg>
