<svg xmlns="http://www.w3.org/2000/svg" width="100%" height="100%" viewBox="0 0 60 60" fill="none"><path d="M30.5 8c1.7 0 3 1.7 3 3 0 1.6-1 2.7-2.4 3.2.7 1 2.4 1.7 4.2 2.8 4 2.4 7.4 5 7.4 9.4 0 4-1.3 5.6-2.8 7-.6.6-.2 4.4-.2 7.4 0 1.6-3 2.4-6.3 2.8.3.7 1 1.4 2.5 1.4l7.6-.2c5 0 7.7 2.9 7.7 2.9L48.4 52s-3-2.6-10.6-2.6c-4.2 0-7.2-2-7.7-3.6-.3 1.6-2.7 3.6-7.5 3.6-6.8 0-10.9 2.6-10.9 2.6L9 47.7s2.6-2.9 7.3-2.9l8.1.2c1.4 0 2.2-.8 2.5-1.4-3.4-.4-6.3-1.2-6.3-2.8 0-2.5.3-6.6-.4-7.3-1-1.2-2.7-2.8-2.7-7 0-5.5 4.9-7.9 8-9.8 1.3-.8 2.7-1.5 3.4-2.4-1.2-.5-2.1-1.6-2.1-2.8C27 9.9 28.7 8 30.5 8zm-.4 26.6c2.8 0 5.3.3 7.7 1.5v-1.6a17 17 0 00-7.7-1.8c-2.8 0-5.7.8-7.7 1.9V36a19 19 0 017.7-1.5zm0 4.2c2.3 0 6 .3 7.7 1v-1.4c-1.8-1-5-1.5-7.7-1.5-2.8 0-6 .6-7.8 1.6V40c1.4-.7 4.9-1.2 7.8-1.2zm1.4-9.3v-3.2h3.2v-2.5h-3.2v-3.2h-2.6v3.2h-3v2.5h3v3.2h2.6z" fill="#000"></path><path d="M25.1 44.1l-.7.1H21a205.3 205.3 0 00-4.7-.1A11.5 11.5 0 009 46.7a7.8 7.8 0 00-.5.4h0l.5.6-.6-.5-.3.4.3.5 2.7 4.3.4.6.6-.4h0v0h.2l.5-.3 2-.9c1.9-.6 4.5-1.2 7.8-1.2 2.5 0 4.4-.6 5.8-1.3.8-.5 1.4-1 1.8-1.5l2 1.5a12 12 0 005.6 1.3c3.7 0 6.2.6 7.9 1.2l1.7.8a6 6 0 01.5.4h0l.7.5.4-.7 2.8-4.3.3-.5-.4-.4-.5.5.5-.5v0h0a3.4 3.4 0 00-.1-.2 7.4 7.4 0 00-.5-.4 10.5 10.5 0 00-1.5-1c-1.4-.8-3.4-1.5-6-1.5h-5a129.7 129.7 0 01-3.5 0 15 15 0 003-.8c.6-.2 1.2-.5 1.6-1 .4-.3.7-.9.7-1.5V38a100.2 100.2 0 010-4.2.8.8 0 01.1 0c.7-.8 1.5-1.6 2-2.7.6-1.2 1-2.7 1-4.8 0-4.9-3.8-7.7-7.8-10a45.1 45.1 0 00-1.4-.8h0a44.5 44.5 0 01-1.1-.7 10.2 10.2 0 01-.8-.5 4 4 0 001.8-3.3 4 4 0 00-1-2.6 3.6 3.6 0 00-2.7-1.3c-1.2 0-2.2.6-3 1.4-.7.7-1.3 1.8-1.4 2.7v.1c0 1.3.6 2.4 1.6 3l-.7.5-1.4.8-.5.3h0l-1 .6c-1.4.9-3 1.8-4.3 3.1a9 9 0 00-3 6.8c0 2.2.4 3.8 1 5 .6 1.1 1.3 1.8 1.8 2.4 0 0 0 0 0 0l.1.2.1.6.1 1.8v2.2h0v2c0 .7.2 1.2.7 1.7.4.4 1 .7 1.6 1 .8.3 1.8.5 3 .7zm6.4-18.6h-.8v3.3h-1v-3.3h-3.1v-1h3v-3.1h1.1v3.2h3.2v1h-2.4zM37 35a23.1 23.1 0 00-13-.3 16.8 16.8 0 0113 .3v0zm-6.9 2.8c2.5 0 5 .4 6.8 1a21.3 21.3 0 00-2.6-.4A33.8 33.8 0 0030 38a31.8 31.8 0 00-6.6.8c1.7-.7 4.3-1.1 6.6-1.1z" stroke="#BDA581" stroke-opacity=".8" stroke-width="1.5"></path></svg>
