<svg xmlns="http://www.w3.org/2000/svg" viewBox="0 0 60 60" fill="none"><path d="M25.3 11.7h3V9h2.6v2.9h2.7v2.6H31v2.3c2 .5 3.7 2.2 3.7 5 0 .7-.1 1.3-.3 1.8a10 10 0 017.1-2.8c5.6 0 8.8 4 8.8 8.2 0 6.5-4.6 9.6-6.7 11.6-.3.2-.3.5-.3.9l.2 6.2c0 2.6-6.2 4.3-13.7 4.3C22 52 16 50.3 16 47.7v-6.2c0-.5 0-.7-.2-.9-2.6-2.1-6.8-5-6.8-11.8 0-4 3.2-8 8.8-8 2.7 0 5 1 7 2.8a4 4 0 01-.3-1.7 5 5 0 013.7-5v-2.4h-2.9v-2.8zm-7.8 11.6c-4.2 0-6.3 3-6.3 6.3 0 4.8 2.6 7 6 10.3 2.6-1.5 8-2.8 11.5-2.8 0-7.2-4.6-13.8-11.2-13.8zm.3 14.7c-3.2-2.9-4.7-5-4.7-8.4 0-2.6 2-4.6 4.7-4.6 4.9 0 8.6 4.3 9.3 10.8-2.8.2-6.7 1-9.3 2.2zm0 5c1.9-1.2 7-2 11.7-2 4.7 0 9.8.8 11.8 2v-1.5a26.1 26.1 0 00-11.8-2.3c-5.5 0-9.3 1-11.7 2.3V43zm0 3.5c1.9-1.2 7-2 11.7-2 4.7 0 9.8.8 11.8 2v-1.6a26.4 26.4 0 00-11.8-2c-5.5 0-9.3.8-11.7 2v1.6zm14.7-24.2c0-1.6-1-3.3-3-3.3s-3 1.6-3 3.3c0 2 1.5 3.3 3 7.8 1.7-4.5 3-5.7 3-7.8zm-3-1.3c.8 0 1.2.8 1.2 1.6s-.4 2-1.2 3.7c-.7-1.7-1.2-3-1.2-3.7 0-1 .5-1.6 1.2-1.6zM42 39.7c3.5-3.3 6-5.7 6-10.3 0-3.4-2.1-6.3-6.3-6.3-6.5 0-11.2 6.7-11.2 14a31 31 0 0111.5 2.6zM41.3 25c2.8 0 4.7 2 4.7 4.6 0 3.4-1.6 5.5-4.7 8.4-2.6-1.1-6.5-2-9.4-2.2.8-6.4 4.6-10.8 9.4-10.8z" fill="#000"></path><path d="M25.3 11h-.7v4.2h2.9v1A6 6 0 0025 18a6 6 0 00-1.3 3.8 10.6 10.6 0 00-6-1.8c-5.9 0-9.5 4.3-9.5 8.8 0 6.8 4.1 10 6.8 12l.3.3h0v6.6c0 1 .5 1.7 1.3 2.3a10 10 0 003.1 1.5c2.6.8 6 1.2 10 1.2 3.8 0 7.3-.4 9.9-1.2 1.2-.4 2.3-.9 3.1-1.5.8-.6 1.4-1.4 1.4-2.3v-3.1l-.1-3.1v-.3a.6.6 0 010 0h0l.8-.8C47 38.4 51 35.1 51 29a9 9 0 00-9.6-9c-2.2 0-4.3.7-6 1.9 0-3-1.7-5-3.8-5.7v-1h2.8v-4.1h-2.8V8.3h-4.1V11h-2.2zm-8 27.6l.3.2-.3.1-.5-.4c-3-3-4.9-4.9-4.9-9 0-1.4.5-2.8 1.4-3.8 1-1 2.3-1.7 4.2-1.7 3 0 5.6 1.5 7.5 4a15 15 0 012.9 7.8v-.1C27 29 23.2 24.2 17.8 24.2c-3 0-5.5 2.3-5.5 5.4a9 9 0 001.3 4.8 19 19 0 003.7 4.2zm13.4-13l-.2.3.6-1.5c.2-.7.4-1.3.4-1.8s-.2-1-.5-1.5a1.8 1.8 0 00-3-.1c-.3.4-.4 1-.4 1.6 0 .5.1 1.1.4 1.8l.3 1-.2-.5a5.9 5.9 0 01-.8-2.6c0-.7.2-1.3.6-1.8.3-.4.8-.7 1.6-.7s1.4.3 1.7.7c.4.5.6 1 .6 1.8A6 6 0 0131 25l-.3.6zm11 13.1l.1-.1a19 19 0 003.7-4.2 9 9 0 001.2-4.8c0-3-2.2-5.4-5.4-5.4-5.3 0-9.4 5-10.1 11.5v.3c.2-3.1 1.2-6 3-8.2 1.8-2.4 4.4-4 7.4-4 1.9 0 3.3.7 4.2 1.7.9 1 1.4 2.4 1.4 4 0 4-2.1 6.1-5.4 9.3h-.2zm-12.2 1.5a42 42 0 00-7 .6 24.2 24.2 0 00-3 .7c2.2-.8 5.6-1.5 10-1.5 4.7 0 8 .7 10.4 1.6a41.4 41.4 0 00-10.3-1.4zm0 3.6a45.8 45.8 0 00-10.2 1.3c2.3-1 5.7-1.5 10.2-1.5 4.3 0 7.5.5 9.8 1.3a28.1 28.1 0 00-2.8-.6 47.1 47.1 0 00-7-.5z" stroke="#BDA581" stroke-opacity=".8" stroke-width="1.5"></path></svg>
