<svg xmlns="http://www.w3.org/2000/svg" width="100%" height="100%" viewBox="0 0 60 60" fill="none"><path d="M18.5 17.4c-.2-.6-.5-1.9-.5-4L18 10l.1-.3s2.2 0 3.8 1.4c1.5 1.1 2.3 2.3 2.6 2.8h.2c.4-3 2.8-4.9 2.8-4.9h.5s1.9 2 2.5 4.6C41.2 15 50.2 26.8 50.2 42c0 5.4-.4 8.9-.4 8.9H21.6s-.2-2.1.4-4c2-6 7.8-9 7.8-14.5 0-.5-.3-.6-.5-.6-.2 1.4-5 2.5-7.2 4.4-2.1 1.9-2.8 5.4-4.8 5.4-.8 0-1.6-.6-1.6-1.3l-1.5.1c-2.4 0-4.2-2.6-4.2-6 0-2 1.8-4.9 4.3-9 .8-1.4.6-2.8 1.4-5l2.8-3.1zM13 35.6c0 .7.4 1 .7 1 .5 0 1-.5 1-1s.8-.7.8-1.2c0-.4 0-1.3-1-1.3s-1.5 1.6-1.5 2.5zm3 2.2c0 .6.3.8 1 .8.6 0 1-.8 1-1.3s-.4-.8-.7-.8c-.4 0-1.2.7-1.2 1.3zm3-13.1c.3 0 .8-.4.8-.6.1-.6.6 0 1.6-.6 1.1-.5.6-1.4.6-1.9 0-.7.9-.5.9-1 0-.2 0-.7-.7-.7a4 4 0 00-4 4c.2.4.5.8.7.8zm3.4-6s1-.7 2.7-1.3l-.3-1.2c-2 .7-3.1 1.7-3.1 1.6l.7 1zm8.7 7.1c-.1 1.6-.7 3-.7 3l1.4.3s1-1 1-2.7c0-1.7-.8-2.7-.8-2.7h-1s.2 1 0 2.1zM47 48.9c.4-1.6.6-3.7.6-6.5 0-15.6-9-25.7-16.6-27 0 .8-.2 1.3-.3 1.5 8.6 1.2 14.4 14.5 14.4 24.7 0 2.7-.2 5.4-.6 7.3H47z" fill="#000"></path><path d="M15.1 41.2h0l.6.7c.5.4 1 .6 1.6.6.7 0 1.3-.4 1.8-.8s.8-1 1.2-1.6l.4-.6c.6-1 1.1-2 2-2.6.8-.8 2.1-1.4 3.5-2l.5-.3a16.3 16.3 0 002.2-1.2c-.2 2-1.4 3.8-2.9 5.7l-.6.7c-1.5 2-3.2 4.1-4 6.9h0c-.4 1-.5 2.2-.6 3a15.2 15.2 0 000 1.3h0v0h.7-.7v.8h29.6l.1-.7-.7-.1.7.1v0h0v-.2a57.5 57.5 0 00.3-2.3l.2-6.5c0-15.3-9-27.4-19.8-29.2-.4-1.2-1-2.2-1.5-3a12.7 12.7 0 00-1-1.3 6 6 0 000 0v-.1h0v0L28 9l.5-.5-.2-.2h-1l-.3.1.5.6a105.9 105.9 0 00-.5-.6h0a8.3 8.3 0 00-.4.4l-1 1.1a9.6 9.6 0 00-1.3 2.5 12.4 12.4 0 00-1.9-1.9c-1-.8-2-1.2-2.9-1.4a6.8 6.8 0 00-1.3-.1 3.5 3.5 0 000 0h-.1 0v.7V9h-.5l-.2.4v.3h-.1v.2c-.2 1.2-.2 2-.2 3.5v0c0 1.9.3 3 .4 3.8l-1.2 1.4h0L15.1 20H15v.2c-.5 1.1-.7 2-.8 2.7v.2c-.2.8-.3 1.4-.7 2h0l-.5.8-2.6 4.5a9.4 9.4 0 00-1.3 4c0 1.9.5 3.6 1.4 4.8a4.4 4.4 0 004.5 2h0zm14-8.8zM19.6 23a1 1 0 00-.5.8h0a.8.8 0 01-.1-.2c0-1.5 1.3-2.8 2.6-3a1.3 1.3 0 00-.3.9v.5h0l.1.4v.1l-.3.2h0l-.8.2h0-.3a1.1 1.1 0 00-.4.1zM32 26a9.7 9.7 0 000-.6c.2.3.2.7.2 1.1a3.6 3.6 0 01-.5 2l-.1-.1v-.1c.2-.6.4-1.5.4-2.3zm-18 10a1 1 0 010-.3c0-.3 0-.8.3-1.3l.4-.5h.2a.8.8 0 010 .3V34.4h0a2.4 2.4 0 00-.5.4 1.2 1.2 0 00-.3.8.3.3 0 010 0 .7.7 0 01-.1.2h0zm.9-2h0zm0 0h0zm-1 2zm3.4 1.9a.5.5 0 01-.1.1 1.3 1.3 0 01-.2 0 1.2 1.2 0 010-.1v-.1a1 1 0 01.3-.2l.1-.2a1.2 1.2 0 01-.1.5zm29.7 4.6c0 2.4-.2 4.3-.5 5.8h-1a35.7 35.7 0 00-3.6-22.6 20 20 0 00-6.9-8c2.3 1.4 4.7 3.5 6.6 6.3A32.1 32.1 0 0147 42.4z" stroke="#BDA581" stroke-opacity=".8" stroke-width="1.5"></path></svg>
