<svg xmlns="http://www.w3.org/2000/svg" width="100%" height="100%" viewBox="0 0 60 60" fill="none"><path d="M26.1 20c.3-.2.4-.5 0-.8-1-1-1.7-2.3-1.7-3.6A6 6 0 0130 10c2.7 0 5 2.7 5 5 0 1.8-1 3.2-2.4 4.2-.3.3-.1.5.3.6 2.7 1 5.3 3 5.3 6.5 0 3-1.3 5-3.3 6.2-.3.2-.3.6 0 .7 5.4 2.8 8.4 8.1 8.4 13.5 0 2.1-.3 3.4-.9 4.3H17c-.6-1-.9-2.3-.9-4.3 0-5 2.7-10.7 8-13.3.4-.2.5-.6 0-.9a6.6 6.6 0 01-2.8-5.5c0-3.7 2.5-5.7 5-7z" fill="#000"></path><path d="M23.6 15.6a6 6 0 001.7 4C23 20.8 20.4 23 20.4 27c0 2.6 1.2 4.7 2.9 6-5.3 2.8-8 8.5-8 13.7 0 2 .2 3.5 1 4.7l.1.4h26.4l.2-.4c.7-1 1-2.5 1-4.7a16 16 0 00-8.2-13.8c2-1.4 3.2-3.6 3.2-6.6 0-3.7-2.6-5.8-5.3-7 1.2-1 2.1-2.5 2.1-4.2a6 6 0 00-1.7-4c-1-1-2.5-1.8-4.1-1.8-1.7 0-3.3.7-4.4 1.9a6.4 6.4 0 00-2 4.4zM33 19zm-7.2.3h0z" stroke="#BDA581" stroke-opacity=".8" stroke-width="1.5"></path></svg>
