<svg xmlns="http://www.w3.org/2000/svg" width="100%" height="100%" viewBox="0 0 60 60" fill="none"><path d="M10.9 15.3c1.3 0 2.5 1.5 2.5 2.6 0 .9-.6 1.7-1.3 2.2 1.5 3 3.6 7.3 6.3 11.6.2 0 .5 0 .7-.2L19 16.3a2.6 2.6 0 01-2.2-2.4c0-1.4 1.5-2.8 3-2.8 1.2 0 2.4 1.5 2.4 2.6 0 .9-.6 1.7-1.4 2.2 1 4 3 10 4.9 14.2h.8c.3-5.4 1.7-12 2.2-16-.9-.4-1.6-1.4-1.6-2.3C27 10.4 28.5 9 30 9c1.3 0 2.5 1.5 2.5 2.6s-.8 2.1-1.8 2.5c.5 4.2 2 10.8 2.3 16h.8c2-4.3 4-10.2 5-14.2-.8-.5-1.3-1.2-1.3-2 0-1.4 1.5-2.8 3-2.8 1.2 0 2.4 1.5 2.4 2.6 0 1.4-1.2 2.5-2.4 2.7 0 4 0 9.5-.2 15.2.2 0 .5.1.7.3 2.8-4.4 4.8-8.8 6.3-11.8-.6-.5-1-1.2-1-1.8 0-1.5 1.5-2.9 3-2.9 1.3 0 2.5 1.5 2.5 2.6 0 1.5-1.6 2.7-2.9 2.7h-.1c-1.5 5.1-2.4 14.1-3.4 18-.3 1.4-2.7 3.4-2.7 4.7l.2 5c0 2.2-5.6 3.6-13.1 3.6-7.1 0-13.2-1.4-13.2-3.7l.2-5c0-1.2-2.2-2.8-2.6-4.6-.8-3.9-2-12.9-3.5-18A2.6 2.6 0 018 18.3c0-1.5 1.4-3 2.9-3zm6.4 25.5c2.4-1.4 7.3-2.5 12.4-2.5 4.9 0 10 1.1 12.3 2.3l.7-1a26 26 0 00-13-3c-5.8 0-10.6 1.4-13 3l.6 1.2zm1 3c1.9-1.2 6.8-2.2 11.2-2.2s9.2 1 11.3 2.1v-1.5c-2.3-1.2-6-2.2-11.3-2.2s-9 1-11.2 2.2v1.5zm0 3.3c1.9-1.2 6.8-2 11.2-2s9.2.7 11.3 1.8v-1.4c-2.3-1.3-6-2.1-11.3-2.1s-9 .8-11.2 2v1.7z" fill="#000"></path><path fill-rule="evenodd" clip-rule="evenodd" d="M16.8 49.2a1.5 1.5 0 01-.3-1l.1-2.7.1-2.1c0-.6-.5-1.3-1-2a6.8 6.8 0 01-1.6-2.7l-1-5.8c-.7-4.1-1.6-9-2.5-12.2A2.6 2.6 0 018 18.3c0-1.5 1.4-3 2.9-3 1.3 0 2.5 1.5 2.5 2.6 0 .9-.6 1.7-1.3 2.2l1.1 2.2c1.2 2.4 2.6 5.2 4.4 8.1a70.4 70.4 0 00.8 1.3h.4l.3-.2V30l-.2-13.7a2.6 2.6 0 01-2.2-2.4c0-1.4 1.5-2.8 3-2.8 1.2 0 2.4 1.5 2.4 2.6 0 .9-.6 1.7-1.4 2.2.8 3.5 2.6 8.8 4.3 12.8a91.8 91.8 0 00.6 1.4h.8a40.6 40.6 0 01.1-1.6c.3-3 .8-6.4 1.3-9.3l.8-5.1c-.9-.4-1.6-1.4-1.6-2.3C27 10.4 28.5 9 30 9c1.3 0 2.5 1.5 2.5 2.6s-.8 2.1-1.8 2.5a141 141 0 012.1 14.5A51.2 51.2 0 0133 30h.8l.6-1.3c1.7-4.1 3.5-9.3 4.3-12.9-.7-.5-1.2-1.2-1.2-2 0-1.4 1.5-2.8 3-2.8 1.2 0 2.4 1.5 2.4 2.6 0 1.4-1.2 2.5-2.4 2.7 0 3.6 0 8.6-.2 13.7v1.5c.2 0 .5.1.7.3l.1-.3a68.8 68.8 0 005-9l1.2-2.5c-.6-.5-1-1.2-1-1.8 0-1.5 1.5-2.9 3-2.9 1.3 0 2.5 1.5 2.5 2.6 0 1.5-1.6 2.7-2.9 2.7h-.1c-.8 3-1.5 7.1-2.1 11l-1.3 7c-.1.7-.8 1.5-1.4 2.3-.7.9-1.3 1.7-1.3 2.4a40.4 40.4 0 00.2 5c0 2.2-5.6 3.6-13.1 3.6-5.8 0-11-.9-12.6-2.5a2.4 2.4 0 01-.3-.3zm1.5-2.1l.7-.4a10.1 10.1 0 01.8-.3 37.5 37.5 0 0120.4.2l.6.3v-1.4a12.3 12.3 0 00-1.7-.8c-2.3-.8-5.4-1.3-9.6-1.3A26 26 0 0019 45a11.2 11.2 0 00-.6.3v1.7zm20.4-5.8c-2.2-.7-5.3-1.3-9.2-1.3-3.7 0-6.7.5-9 1.3a14.3 14.3 0 00-2.2 1v1.4l.6-.3a11.4 11.4 0 012.1-.7 35 35 0 0119.1.7l.7.3v-1.5a14 14 0 00-2-.9zm8-2.3c0 .6-.4 1.2-.7 1.7l-.9 1.2v.1l-.9 1-.1.4v2.4l.1.1.1 2.5c0 1.3-.8 2.2-1.6 2.8-.9.5-2 1-3.3 1.3-2.5.7-6 1-9.7 1-3.6 0-7-.3-9.7-1-1.2-.4-2.4-.8-3.3-1.4-.8-.6-1.7-1.5-1.7-2.8l.1-2.7v-.2l.1-2a1.6 1.6 0 00-.1-.3l-.7-1c-.6-.7-1.5-1.8-1.8-3.1a148.4 148.4 0 01-1.5-8.6c-.5-3-1-6-1.7-8.3a4.2 4.2 0 01-1.7-1 4 4 0 01-1.2-2.8c0-1.2.6-2.3 1.3-3.1.8-.8 1.8-1.4 3-1.4a4 4 0 013 1.4c.6.7 1 1.7 1 2.7a4 4 0 01-.9 2.5 273.2 273.2 0 013.6 7 661 661 0 01-.1-10 4.2 4.2 0 01-1.2-1c-.5-.6-1-1.5-1-2.5 0-1.2.6-2.3 1.4-3 .7-.8 1.8-1.3 3-1.3a4 4 0 012.9 1.4c.6.7 1.1 1.7 1.1 2.7a4 4 0 01-1.2 2.8c.7 2.6 1.8 5.9 3 9A128.6 128.6 0 0127 14.8a4.5 4.5 0 01-.7-.8c-.4-.6-.8-1.3-.8-2.2 0-1.2.6-2.3 1.4-3 .7-.8 1.8-1.3 3-1.3a4 4 0 012.9 1.4c.6.7 1.1 1.7 1.1 2.7 0 1.4-.7 2.5-1.7 3.3l.8 4.8.3 1.8.6 4.2c1.2-3.2 2.4-6.6 3-9.3-.5-.6-1-1.5-1-2.5 0-1.2.6-2.3 1.4-3 .7-.8 1.8-1.3 3-1.3a4 4 0 012.9 1.4c.6.7 1.1 1.7 1.1 2.7 0 1.7-1 3-2.4 3.7a677 677 0 01-.1 10 145.6 145.6 0 003.6-7c-.4-.7-.6-1.4-.6-2.1 0-1.3.6-2.3 1.3-3 .8-.8 1.9-1.4 3-1.4a4 4 0 013 1.4c.6.7 1 1.7 1 2.7 0 1.3-.6 2.4-1.4 3a4.8 4.8 0 01-1.8 1c-.6 2.4-1.1 5.4-1.6 8.4l-.2 1.5-1.3 7.1zm-6.3-.6c-2.6-1-6.5-1.8-10.7-1.8-4.4 0-8.2.8-11 1.9a19 19 0 00-.7.3 14.5 14.5 0 00-1.4.7l.7 1.3a12.5 12.5 0 012-1 35.6 35.6 0 0122.6.7v.1l.8-1a8.7 8.7 0 00-.2-.2l-1.1-.6a15.5 15.5 0 00-1-.4z" fill="#BDA581" fill-opacity=".8"></path></svg>
