<svg xmlns="http://www.w3.org/2000/svg" width="100%" height="100%" viewBox="0 0 60 60" fill="none"><path d="M41.2 21.2l-1 .7v14.2l2.3 2.8c.6.8.7.9.7 1.5v4.7l.8.1c.6.1 1 .6 1 1.4V51H14v-4.3c0-.7.4-1.2 1-1.4h.7v-4.8c0-.6 0-.7.7-1.4l2.3-2.9V22l-1-.7c-1-.7-2.7-2-2.7-2.6v-5.3c0-1.5 3.5-2.2 5.4-2.6v3.7c1.7-.2 3.5-.5 5.3-.5v-3.8l3.8-.1 3.8.1V14c1.8 0 3.6.3 5.3.5v-3.7c2 .4 5.5 1.1 5.5 2.6v5.3c0 .6-1.8 1.9-2.9 2.6zm2 25.4H15.8c-.3 0-.5 0-.5.5v1h28.2v-1c0-.4-.1-.5-.5-.5zm-13.7-29c4.6 0 9 .5 12 1.3.2-.2.7-.5.8-.8.1-.2.1-.3-.1-.5a11 11 0 00-3.4-.8 63.6 63.6 0 00-22 .8c-.3.2-.3.3-.2.5l.9.8c3-.8 7.4-1.3 12-1.3zM18.2 39.8c-.4 0-.6.1-.6.6v1h24v-1c0-.4-.1-.6-.6-.6H18.2zm2-3l-1 1.3H40l-1-1.4H20.1zm18.7-14v-1.5a54.5 54.5 0 00-18.8 0v1.5a64.9 64.9 0 0118.8 0z" fill="#000"></path><path d="M37.8 10.7v2.9c-1.2-.2-2.4-.4-3.7-.4V9.5l-.7-.1c-1-.2-2.2-.2-3.8-.2h0a43.7 43.7 0 00-2.3.1H24.9v3.9c-1.2 0-2.5.2-3.7.4V9.8l-.9.2c-1 .2-2.4.5-3.6 1-.6.1-1.2.4-1.6.8-.5.3-.9.8-.9 1.5v5.3c0 .3 0 .5.2.6 0 .2.2.3.3.5l.8.7 1.3 1 .4.4.5-.6-.5.6.7.5V36l-2.1 2.6h0l-.7.9-.2 1v4.1h0-.1a1.9 1.9 0 00-1.2.7c-.2.4-.3.9-.3 1.4v5h32.5v-5.1a2 2 0 00-1.7-2.1h0-.1v-4c0-.5 0-.8-.2-1.1l-.6-.8v-.1h0L41 35.8V22.3l.7-.5 1.8-1.4.9-.7a2.5 2.5 0 00.3-.5l.1-.6v-5.3c0-.7-.4-1.2-.8-1.5a6 6 0 00-1.6-.9c-1.2-.4-2.7-.7-3.7-.9l-.9-.2v1zm1 6.8h0l2.2.5a48 48 0 00-2.3-.5zm3 .8h0zM20 17.5a63.7 63.7 0 015.6-.5c-3 .2-5.7.5-7.9 1a10.8 10.8 0 012.2-.5h0zm-3 .8h0zm1.3 22.3v0h22.5v0H18.3zm11.2-19.3a60 60 0 01-8.7.6v0c2.3-.5 5.7-.6 8.7-.6z" stroke="#BDA581" stroke-opacity=".8" stroke-width="1.5"></path></svg>
