<svg xmlns="http://www.w3.org/2000/svg" viewBox="0 0 60 60" fill="none"><path d="M25.9 12h3.5V9.4h1.8V12H34v1.5h-2.7v4.5c2 .5 3.6 1.6 3.6 4.4 0 .6-.6 2-.8 2.5 1.9-1.8 4.9-2.9 7.6-2.9 5.3 0 8.4 3.2 8.4 7.2 0 6.3-4.4 9.3-6.5 11.3-.3.2-.3.4-.3.8l.2 6c0 2.5-6 3.6-13.4 3.6-7.5 0-13.2-1.1-13.2-3.6v-6c0-.5 0-.6-.2-.8-2.5-2-6.6-5-6.6-11.4 0-4 3-7 8.4-7 2.7 0 5.5 1.6 7.5 3.4-.2-.1-.4-2.9-.4-3.5 0-2.7 2-3.4 3.9-4v-4.5h-3.5V12z" fill="#F9F1E4"></path><path d="M30.2 52C22 52 16 50.2 16 47.6l.1-5.4c0-.8 0-1.3-.2-1.5C13.2 37.9 9 35 9 29c0-4.8 4-8.2 8.9-8.2 3.8 0 6.1 1.6 7.5 3-.2-.4-.4-1.1-.4-1.8 0-2.5 1.3-4.6 3.8-5v-2.6h-3v-2.8h3V9h2.7v2.9h2.9v2.7h-2.9v2.5c2.5.5 3.8 2.7 3.8 5 0 .7 0 1.4-.4 1.8 1.4-1.1 3.9-2.9 7.5-2.9 5 0 9 3.6 9 8.2 0 6.3-4.2 9.1-7 11.7-.5.5-.3.9-.3 1.5l.1 5.6c.1 2-4.9 4-14 4zm-14-13.2a30 30 0 0113.1-3.3C29 28.2 24.1 23.3 18 23.3c-4.3 0-6.7 2.9-6.7 6.3 0 4 2.7 6.8 5 9.2zm26 2.4a2.6 2.6 0 01.6-1.2 32.5 32.5 0 00-12.6-2.5c-5 0-10.4 1.3-12.7 2.5l.6 1a28 28 0 0112-2c5.8 0 9.7 1 12 2.2zm-.2 3.4v-1.5c-2.2-1-7.2-1.9-11.7-1.9-4.6 0-9.6.8-11.7 2 0 .5 0 .9-.2 1.4 2.2-1 6.6-1.7 11.9-1.7 5.5 0 9.3.8 11.7 1.7zM18.8 48c1.8 1.3 7 1.8 11.4 1.8 4 0 9.1-.5 11-1.6.4-.3.7-.6.7-1 0-.5-1-1-1.6-1-2.5-.8-6.9-1.3-10.1-1.3-4.3 0-10.3.7-11.6 1.8a1 1 0 00-.3.5c0 .4.3.6.5.8zm14.5-25.6c0-1.7-1-3.3-3.1-3.3-2.2 0-3.2 1.6-3.2 3.3 0 2 1.4 3.3 3.2 7.8 1.7-4.5 3-5.8 3-7.8zm-2.2 13c5.3.2 10.8 1.9 13 3.4 2.3-2.4 5-5 5-9.3 0-3.2-2.4-6.3-6.7-6.3-6.1.1-10.9 5-11.3 12.3z" fill="#332007"></path></svg>
