<?xml version="1.0" encoding="UTF-8"?>
<svg width="50mm" height="50mm" clip-rule="evenodd" fill-rule="evenodd" image-rendering="optimizeQuality" shape-rendering="geometricPrecision" text-rendering="geometricPrecision" version="1.1" viewBox="0 0 50 50" xmlns="http://www.w3.org/2000/svg" xmlns:cc="http://creativecommons.org/ns#" xmlns:dc="http://purl.org/dc/elements/1.1/" xmlns:rdf="http://www.w3.org/1999/02/22-rdf-syntax-ns#">
 <metadata>
  <rdf:RDF>
   <cc:Work rdf:about="">
    <dc:format>image/svg+xml</dc:format>
    <dc:type rdf:resource="http://purl.org/dc/dcmitype/StillImage"/>
    <dc:title/>
   </cc:Work>
  </rdf:RDF>
 </metadata>
 <path d="M25 42.162c-.229.94-.516 1.592-.847 1.956-.33.364-.762.745-1.312 1.143-.593.415-1.295.762-2.108 1.05-.813.288-1.71.364-2.701.211l-6.968-.965a2.858 2.858 0 0 0-.762 0c-.22.034-.432.051-.635.051-.347 0-.787.076-1.32.237-.543.153-.958.381-1.254.677l-2.405-3.945c.297-.33.56-.559.788-.694.237-.127.508-.271.821-.415a9.179 9.179 0 0 1 3.073-.821c.466-.034.923-.043 1.364-.026a9.8 9.8 0 0 0 1.397-.05c.889.152 1.786.287 2.684.406.905.127 1.811.254 2.717.39.991 0 1.66-.102 2.007-.297.186-.102.474-.288.872-.55.398-.263.796-.652 1.194-1.169-.88-.093-1.77-.262-2.684-.508a24.094 24.094 0 0 1-2.405-.753l2.583-6.401c-1.296-.745-2.193-1.338-2.71-1.795a5.3 5.3 0 0 1-1.21-1.575c-.432-.762-.712-1.498-.83-2.21a9.341 9.341 0 0 1-.16-1.913c.016-.99.245-2.083.702-3.285.457-1.194 1.312-2.27 2.565-3.209a79.091 79.091 0 0 0 3.057-2.455 27.746 27.746 0 0 0 2.946-2.955c-1.22-.627-1.829-1.626-1.829-2.997 0-.932.322-1.72.974-2.388.652-.66 1.456-.99 2.396-.99.923 0 1.719.33 2.38.99.66.669.99 1.456.99 2.388 0 1.354-.61 2.353-1.83 2.997a26.796 26.796 0 0 0 2.914 2.955 56.74 56.74 0 0 0 3.09 2.455c1.236.94 2.083 2.015 2.523 3.209.449 1.202.694 2.294.72 3.285 0 .567-.051 1.202-.17 1.913s-.38 1.448-.796 2.21a6.084 6.084 0 0 1-1.253 1.575c-.5.457-1.388 1.05-2.667 1.795l2.583 6.4c-.729.263-1.55.517-2.456.754-.914.246-1.786.415-2.633.508.381.517.77.906 1.168 1.169.398.262.695.448.898.55.347.195 1.016.296 2.007.296a263.35 263.35 0 0 1 2.692-.39 81.13 81.13 0 0 0 2.718-.406c.44.051.889.068 1.346.051a13.12 13.12 0 0 1 1.405.026 9.627 9.627 0 0 1 3.074.82c.296.145.567.289.804.416.246.135.508.364.804.694l-2.43 3.945c-.296-.296-.71-.524-1.253-.677-.533-.16-.965-.237-1.295-.237-.22 0-.44-.017-.66-.05a2.794 2.794 0 0 0-.754 0l-6.95.964c-.992.153-1.914.085-2.761-.194-.855-.28-1.558-.652-2.1-1.118-.542-.449-.982-.83-1.304-1.151-.321-.322-.592-.957-.804-1.897z" fill="#1f1a17"/>
 <path d="m24.086 23.705v2.108c0 0.61 0.304 0.914 0.914 0.914s0.914-0.304 0.914-0.914v-2.134h2.236c0.575 0 0.872-0.296 0.872-0.897 0-0.593-0.297-0.889-0.872-0.889h-2.236v-2.235c0-0.61-0.304-0.915-0.914-0.915s-0.914 0.305-0.914 0.915v2.235h-2.186c-0.584 0-0.872 0.296-0.872 0.889 0 0.601 0.288 0.897 0.872 0.897zm7.51 13.741-1.042-2.531c-1.685-0.364-3.539-0.542-5.554-0.542-1.998 0-3.835 0.178-5.503 0.542l-1.042 2.506c2.05-0.517 4.234-0.77 6.545-0.77 2.286 0 4.479 0.262 6.596 0.795zm-2.083-5.114-0.72-1.735v-0.67c-1.2564-0.17893-2.5239-0.26916-3.793-0.27-1.2607 3e-3 -2.5197 0.09326-3.768 0.27l-0.025 0.67-0.669 1.735c1.4738-0.25282 2.9667-0.37729 4.462-0.372 1.592 0 3.09 0.127 4.513 0.372z" fill="#fff"/>
</svg>
