<svg width="341.33" height="341.33" version="1.1" viewBox="0 0 341.33 341.33" xmlns="http://www.w3.org/2000/svg">
 <title>knight</title>
 <g transform="translate(-1.8417)">
  <path d="m49.939 306.68s4e-6 -6.793-0.05462-18.896c-0.03378-7.4844 1.7255-15.468 2.6916-17.78 2.8011-6.7039 9.3119-13.18 17.328-17.236l6.0459-3.2135 0.9456-8.5568c0.46195-4.1802 1.6653-15.291 3.1656-25.079 4.8608-31.714 11.572-55.95 22.686-81.925 3.1377-7.3333 5.6287-15.133 5.5356-17.333s-0.56673-10.555-1.0524-18.567c-1.0687-17.627 0.55945-26.286 6.2383-33.175 3.3728-4.0918 4.9109-4.9244 9.0964-4.9244 2.7705 0 6.9716 0.6743 9.3358 1.4985 3.99 1.3909 4.6266 1.1804 8.8709-2.9333 8.1994-7.9471 17.013-5.0074 27.161 9.0596l4.5993 6.3753 23.401 0.10313c63.258 0.27882 99.666 19.438 99.192 43.562-0.2367 12.041-2.844 37.486-5.9266 45.725-3.626 9.6913-10.91 16.152-19.427 17.233-24.269 3.0783-30.082 4.5588-42.411 10.802-8.4171 4.2623-12.735 7.2358-13.241 9.1174-1.9911 7.4164 0.60728 32.814 4.3303 42.326 0.99834 2.5506 4.162 4.87 11.374 8.339 16.747 8.055 22.176 17.724 22.176 39.496 0 9.4974-0.17649 15.983-0.17649 15.983s-13.29-0.0187-101.39-0.0187c-94.795 0-100.49 0.0175-100.49 0.0175z" color="#000000" color-rendering="auto" dominant-baseline="auto" fill="#565352" image-rendering="auto" shape-rendering="auto" solid-color="#000000" stop-color="#000000" style="font-feature-settings:normal;font-variant-alternates:normal;font-variant-caps:normal;font-variant-east-asian:normal;font-variant-ligatures:normal;font-variant-numeric:normal;font-variant-position:normal;font-variation-settings:normal;inline-size:0;isolation:auto;mix-blend-mode:normal;shape-margin:0;shape-padding:0;text-decoration-color:#000000;text-decoration-line:none;text-decoration-style:solid;text-indent:0;text-orientation:mixed;text-transform:none;white-space:normal"/>
  <path d="m60.325 268.9s94.949-13.622 181.15-0.37365c113.48 17.44 0 0 0 0s-0.97483-12.523-38.475-18.523-102.5-0.25-116 3-23.089 6.1326-26.676 15.896z" fill="#fff" opacity=".2" stop-color="#000000" style="font-variation-settings:normal"/>
  <path d="m114.25 71s12.75 7.5 20.5 14.25 11.75 8.75 21.25 8.75 47-9.5 85.75-2.5 42 12.75 42 12.75-2-5.75-25.25-15.5-89.25-10.25-89.25-10.25-8-18-14.25-19.5-6.5-1.25-9.25-0.5-6.75 9.25-13 7-15.5-3-18.5 5.5z" fill="#fff" opacity=".2" stop-color="#000000" style="font-variation-settings:normal"/>
  <path d="m116.05 117.91c-27 45.5-33.166 130.36-33.166 130.36l0.01754 2.242c0.50384-0.0318 3.5561-0.39431 3.8692-0.52131 14.066-2.2092 27.84-3.7288 41.629-3.7438-20.004-42.5-20.5-82.506-12.209-128.25z" opacity=".19" stop-color="#000000" style="font-variation-settings:normal"/>
  <path d="m155.62 184.38c0.27401 1.6042 4.9452 2.9318 6.7465 4.498 21.511 13.219 38.939 32.961 49.593 55.832 0.508 0.90439 1.4156 4.0716 1.0755 1.2753-0.70592-15.208-4.2293-30.156-4.6068-45.385-0.5698-1.9035 0.74852-2.9569 2.0533-3.9927 2.421-2.1593 4.842-4.3186 7.263-6.4778-20.274 3.5486-41.44 1.516-60.84-5.2554-0.43045-0.15944-0.86041-0.32123-1.2854-0.49456z" opacity=".19" stop-color="#000000" style="font-variation-settings:normal"/>
  <path transform="translate(1.8417)" d="m148.49 53.273c-3.5675-0.08503-7.0324 1.4902-10.232 4.5918-2.1107 2.0458-3.2881 3.0176-4.1621 3.3066s-1.7532 0.09341-3.7188-0.5918c-2.5455-0.88742-6.727-1.5527-9.6543-1.5527-2.1568 0-3.7964 0.22421-5.3125 1.0449-1.516 0.82072-2.8175 2.1557-4.5293 4.2324-5.874 7.1258-7.5305 16.142-6.457 33.848 0.48552 8.0094 0.95916 16.384 1.0508 18.549 0.0145 0.344-0.0985 1.2275-0.35938 2.3457-0.26085 1.1182-0.65436 2.5074-1.1504 4.0605-0.99206 3.1063-2.3908 6.8681-3.9473 10.506-11.144 26.046-17.884 50.385-22.754 82.158-1.5052 9.8198-2.7084 20.943-3.1699 25.119l-0.89062 8.0508-5.5781 2.9648c-8.1978 4.1479-14.862 10.733-17.783 17.725-0.55517 1.3286-1.2171 3.8924-1.7812 7.1582s-1.0016 7.1805-0.98438 11c0.05462 12.101 0.05469 18.891 0.05469 18.891v1.0312l1-0.0645c0.0031-1e-5 5.6919-0.0176 100.46-0.0176 88.1 0 101.39 0.0176 101.39 0.0176l0.94141 2e-3 0.0254-0.94141s0.17773-6.5004 0.17773-16.01c0-10.966-1.3618-19.007-4.9316-25.365-3.5699-6.358-9.3201-10.927-17.793-15.002-7.1598-3.4439-10.074-5.7299-10.893-7.8203-1.7829-4.5552-3.3853-13.279-4.2461-21.693-0.86082-8.4139-0.94738-16.69-0.0508-20.029 0.10712-0.3983 1.1375-1.6511 3.2695-3.1191 2.132-1.4681 5.2874-3.2664 9.4746-5.3867 12.275-6.2157 17.846-7.6292 42.096-10.705 8.9259-1.1329 16.485-7.8964 20.211-17.854 1.6244-4.3416 3.0157-12.735 4.0859-21.66 1.0702-8.9255 1.7829-18.308 1.9023-24.385 0.24664-12.553-9.1184-23.691-26.258-31.619-17.139-7.9278-42.171-12.788-73.896-12.928l-22.91-0.10156-4.3106-5.9766c-5.133-7.1153-9.9656-11.526-14.789-13.135-1.2059-0.40222-2.4066-0.61619-3.5957-0.64453zm-0.7539 6.9648c2.0682 0.07543 4.3662 1.5207 7.5039 4.3555 4.9207 4.446 10.77 13.366 9.5254 14.529-0.33449 0.3127-3.6306 0.97578-7.3242 1.4727-5.8301 0.7843-7.0554 0.52768-9.2969-1.9492-1.4201-1.5691-4.2488-3.8381-6.2852-5.041-4.5878-2.7101-4.6292-4.3055-0.25-9.5098 2.2206-2.6394 4.0588-3.9328 6.127-3.8574zm-25.408 6.6172c5.2059 0.10049 14.42 4.9894 21.34 11.447l6.1758 5.7637 9.8242-1.6309c12.756-2.1185 54.813-2.0901 68.49 0.04687 25.138 3.928 43.424 10.751 52.867 21.055 7.9265 8.649 6.3567 8.0015 6.0644 20.854-1.82 25.314-6.0466 43.919-12.73 47.496-1.351 0.7232-7.8005 1.9488-14.33 2.7246-19.376 2.302-24.473 3.8954-39.871 12.465l-14.668 8.1621-14.225 0.0449c-13.3-0.9905-14.712-1.6217-28-6.9121-11.383-5.7478-12.966-6.2788-9.1094-3.0527 11.505 9.625 29.924 13.896 44 13.895l7.334-2e-3 -0.45703 8.1875c-0.5261 10.39 2.976 28.174 4.5762 35.084l0.52148 2.252-3.8106-0.46876c-26.514-3.2566-76.367-2.1786-96.723-0.66992-11.303 0.15501-22.07 1.9374-24.395 2.3516l-3.7891 0.67578 0.28125-4.1582c5.443-48.312 14.281-83.683 28.553-114.27 4.4834-9.6087 4.9703-11.525 3.5527-14-1.0812-1.887-1.6426-9.0966-1.6426-21.1 0-16.434 0.27448-18.605 2.7969-22 1.5948-2.1465 4.3426-3.9501 6.3867-4.1934 0.30956-0.03681 0.63926-0.05162 0.98632-0.04492zm61.752 37.383c-4.1275 0.0655-8.3554 1.6434-11.357 4.5195-3.4616 3.3164-4.236 7.0936-1.0508 5.125 0.7315-0.4521 2.0403 0.11211 2.9082 1.2539 0.8679 1.1418 3.3781 2.9978 5.5781 4.125 5.084 2.605 11.264 2.6326 14.928 0.0664 1.5703-1.0999 3.8033-1.6364 4.9629-1.1914 5.8278 2.237-2.2057-8.8568-8.9336-12.336-2.118-1.0953-4.5587-1.6018-7.0352-1.5625zm77.363 14.422c-2.8713 0-2.3893 2.5084 1.4492 7.541 3.0771 4.0343 7.2656 6.0148 7.2656 3.4356 0-2.2871-6.8988-10.977-8.7148-10.977zm20.639 0.71289c-1.2621 0.20686-3.8828 4.3752-4.6543 8.2324-0.47473 2.3735 0.30464 3.1387 0.74415 3.1387 1.2477 0 4.5996-7.4801 4.5996-10.1 0-0.96977-0.26876-1.3404-0.68945-1.2715zm-120.87 130.15c47.535-0.0884 63.328 3.3979 74.328 14.398 7.027 7.027 7.9434 10.053 7.9434 26.236v11.166l-189.03-0.0117 0.0332-13.121c0.981-17.81 4.6551-24.058 18.121-30.811 10.993-5.5126 22.401-6.8231 66.209-7.6113 8.1648-0.147 15.604-0.23346 22.395-0.24609z" color="#000000" color-rendering="auto" dominant-baseline="auto" fill="#1a1a1a" image-rendering="auto" shape-rendering="auto" solid-color="#000000" stop-color="#000000" style="font-feature-settings:normal;font-variant-alternates:normal;font-variant-caps:normal;font-variant-east-asian:normal;font-variant-ligatures:normal;font-variant-numeric:normal;font-variant-position:normal;font-variation-settings:normal;inline-size:0;isolation:auto;mix-blend-mode:normal;shape-margin:0;shape-padding:0;text-decoration-color:#000000;text-decoration-line:none;text-decoration-style:solid;text-indent:0;text-orientation:mixed;text-transform:none;white-space:normal"/>
 </g>
 <g>
  <path d="m157.56 45.451c-2.4475 1.93-4.9764 4.1651-7.3765 6.5543-2.6446 2.6327-3.4767 3.339-8.5452 7.2661-3.0885 2.3929-6.3729 5.0668-7.298 5.9394-1.0284 0.97007-5.9472 4.9049-12.657 10.128-9.1846 7.1491-11.542 9.0618-14.459 11.722-4.8022 4.3798-15.369 12.569-18.742 14.526-3.5003 2.0311-6.7933 4.4464-7.9795 5.8501-2.2386 2.6493-2.6482 6.3413-1.2066 10.862 0.99054 3.1062 1.489 3.9133 6.1421 9.9257l4.2517 5.4938 2.8744 2.223c9.0131 6.9686 10.9 7.9559 14.112 7.3891 3.2972-0.58228 6.8132-2.5452 17.272-9.6474 3.1111-2.1125 10.679-8.1818 13.157-10.551 3.5832-3.4253 5.6336-5.0659 11.208-8.9724 9.5619-6.7014 11.019-7.8006 15.817-11.93 2.5706-2.2125 7.2896-6.0377 10.828-8.7775 5.7045-4.4166 6.3909-4.9951 7.5817-6.3879 0.72025-0.8424 2.1987-2.4428 3.2851-3.5566 2.5395-2.6036 3.282-3.4529 4.2312-4.8309 1.6553-2.403 2.7261-5.4423 3.0162-8.5646 0.32669-3.5179-0.81523-7.4758-3.4998-12.137-1.8395-3.1939-5.0823-7.8302-7.9671-11.387-2.418-2.9816-2.9131-3.5049-4.3681-4.6231-3.4454-2.6479-6.6478-3.681-9.077-2.928-2.6662 0.82647-6.5211 3.1969-10.6 6.4134zm-89.312 111.82c-0.14816 0.11465-0.15491 0.13049-0.17546 0.34298-0.02639 0.27284-0.18169 0.5837-0.41611 0.83521-0.15328 0.16445-0.21436 0.20626-0.5107 0.35186-0.18502 0.0909-0.36974 0.19217-0.41163 0.2246-0.10445 0.0808-0.25566 0.3689-0.34669 0.66342-0.04174 0.13503-0.13553 0.33179-0.2091 0.43648-0.16588 0.23604-0.55704 0.60938-0.97295 0.93125-0.53015 0.41029-0.78556 0.75164-0.92542 1.2294-0.28644 0.97826-0.68848 1.8183-1.6314 3.4116-0.84483 1.4275-1.1299 2.0838-1.2452 2.8645-0.06946 0.47019-0.07601 0.84758-0.02552 1.5641 0.06971 0.98896 0.02294 1.7584-0.13447 2.1953-0.09207 0.25552-0.12842 0.59205-0.07984 0.7436 0.0189 0.0592 0.0775 0.1902 0.12982 0.29224 0.13251 0.25857 0.30726 0.89506 0.52579 1.906 0.33383 1.5442 0.6163 2.2796 1.093 2.8475 0.29081 0.34644 0.47357 0.42905 0.80275 0.36173 0.34612-0.0708 0.42742-0.0531 0.59542 0.13429 0.18256 0.20369 0.25899 0.42327 0.29241 0.83859 0.01433 0.17774 0.03695 0.36197 0.05115 0.40853 0.03982 0.13083 0.16402 0.17337 0.47736 0.16542 0.44834-0.0113 0.64087 0.0693 0.73788 0.30593 0.06893 0.16813 0.09886 0.6468 0.07867 1.2473-0.01217 0.36186 7.84e-4 0.5271 0.04272 0.58131 0.06791 0.0878 0.06745 0.0875 0.60472-0.25839 0.40465-0.26056 0.53478-0.30964 0.65098-0.24842 0.18348 0.0967 0.86922 1.0825 1.3464 1.9359 0.44465 0.79514 0.78564 1.1692 1.2951 1.4214 0.36726 0.18181 0.51618 0.22296 1.4433 0.40804 1.0035 0.20035 1.3548 0.29854 1.7445 0.48583 0.29266 0.14062 0.34513 0.17966 0.58783 0.43891 0.23108 0.24679 0.28306 0.28877 0.38913 0.30357l0.12292 0.0157 0.52687-0.41503 0.52574-0.41649 0.77897 1.0066c0.88232 1.1401 0.93724 1.1948 1.0981 1.0703 0.0486-0.0376 0.14928-0.15035 0.22452-0.24845 0.39004-0.5085 0.72691-0.61167 1.7162-0.52828 0.77265 0.0652 0.85049 0.038 0.80282-0.28882-0.04062-0.27842 0.01787-0.39213 0.26292-0.50704 0.36243-0.16995 0.8114-0.17175 2.2967-0.0115 0.93726 0.10112 1.0579 0.10547 1.1275 0.0405 0.07238-0.0676 0.06985-0.0925-0.01835-0.35682-0.10897-0.32642-0.10123-0.54948 0.02463-0.71533 0.16032-0.21128 0.44458-0.27935 0.97515-0.23427 0.18271 0.0155 0.30825 5e-3 0.35283-0.0297 0.06133-0.0475 0.05923-0.0797-0.02468-0.29651-0.1819-0.47016-0.07979-0.70125 0.41365-0.92244 0.34154-0.1531 0.7958-0.27616 1.9615-0.53502 1.1389-0.25288 1.3632-0.30855 1.7527-0.43124 0.29049-0.0915 0.46555-0.19981 0.47765-0.29496 0.0045-0.035-0.05397-0.14131-0.14378-0.25735-0.25794-0.33344-0.25698-0.58539 0.0062-0.82634 0.20268-0.18557 0.53041-0.29717 1.0704-0.36338 0.24136-0.0296 0.46208-0.0709 0.48985-0.0924 0.06048-0.0468 0.08214-0.18883 0.05347-0.34494-0.04381-0.2389 0.12612-0.48771 0.61999-0.91107 0.56936-0.48805 0.57214-0.55673 0.06217-1.5105-0.07094-0.13279-0.13508-0.27719-0.14246-0.32101-0.02439-0.14436 0.04246-0.34734 0.18551-0.56036 0.11902-0.17725 0.14591-0.25647 0.17287-0.51444 0.03401-0.3254 0.08325-0.44027 0.243-0.56391 0.17047-0.13192 0.35909-0.18199 0.62822-0.16575 0.14244 9e-3 0.28268-2e-3 0.31138-0.0241 0.08499-0.0658 0.11231-0.28428 0.10328-0.83162-0.01195-0.72491 0.05638-1.2068 0.21731-1.5342 0.1267-0.25783 0.33618-0.51118 0.58877-0.70862 0.14325-0.112 0.23134-0.30682 0.21052-0.4689-0.02828-0.22029-0.2135-0.54936-0.67903-1.2043-0.6259-0.88065-0.79592-1.299-0.70432-1.7413 0.04582-0.22124 0.14482-0.33378 0.42699-0.49427 0.36664-0.20854 0.37481-0.27088 0.1169-0.86384-0.20798-0.47815-0.3136-0.81024-0.3378-1.0684-0.01962-0.2094 0.0051-0.28687 0.13626-0.44033 0.1254-0.14669 0.11015-0.28172-0.06196-0.56882-0.2251-0.3755-0.27235-0.68431-0.20418-1.3285 0.03087-0.29166 0.04355-0.57096 0.02873-0.61974-0.03527-0.11587-0.09738-0.14018-0.48115-0.189-0.21019-0.0268-0.40029-0.0838-0.58496-0.1737-0.24496-0.11931-0.29036-0.15416-0.44049-0.34815-0.13586-0.17555-0.16766-0.23991-0.16977-0.34082-5e-3 -0.23932 0.06372-0.36702 0.31946-0.59899 0.16166-0.14662 0.24445-0.24567 0.25943-0.30919 0.03647-0.15569-0.1291-0.36359-0.62226-0.78811-0.65336-0.56282-0.68862-0.62594-0.81222-1.4169-0.05783-0.36989-0.18171-0.63929-0.42322-0.92044-0.32422-0.37734-0.72942-0.56582-1.4601-0.68186-1.0248-0.16274-1.4381-0.48573-1.3972-1.0894 0.0092-0.13617-0.0072-0.26464-0.03621-0.30205-0.06954-0.0899-0.29961-0.16056-0.72939-0.22335-0.39342-0.0575-0.83054-0.17219-1.0488-0.27493-0.07501-0.0352-0.20423-0.12555-0.28812-0.20106-0.20059-0.18045-0.41757-0.26566-0.7077-0.27627-0.53657-0.0196-0.70014-0.0468-0.92807-0.15632-0.32885-0.15804-0.40047-0.1489-0.81475 0.10532-0.19026 0.11675-0.37883 0.21791-0.42115 0.22474-0.15505 0.0251-0.40773-0.0422-0.77789-0.20509-0.56592-0.24896-0.55644-0.24514-0.6497-0.14528-0.05457 0.0584-0.13567 0.0957-0.25278 0.11853-0.36865 0.0719-0.52744 1e-3 -0.89173-0.39887-0.16964-0.18621-0.29652-0.29978-0.35964-0.32157-0.09309-0.0322-0.10602-0.0265-0.27656 0.13452-0.25589 0.24168-0.46079 0.31121-1.0139 0.34616-0.57572 0.0364-0.80789 0.0733-1.2459 0.19567-0.64183 0.17931-0.64582 0.17772-1.087-0.41153l-0.3188-0.42787-0.33021 0.34227c-0.18095 0.18797-0.47942 0.45909-0.66354 0.60266-0.28264 0.22046-0.36775 0.27073-0.54505 0.32304-0.43691 0.12888-0.65937 0.0508-1.0295-0.3621-0.34406-0.38385-0.36595-0.38584-0.70006-0.0485-0.4607 0.46516-0.61652 0.52934-1.5995 0.65722-0.91842 0.11948-1.7459 0.3658-2.0727 0.61866z" fill="#f4f4f4" stop-color="#000000" stroke-width="0" style="paint-order:stroke markers fill"/>
  <path d="m61.35 22.447c-2.7304 2.0084-4.9697 5.3297-6.515 9.687-1.4076 3.9687-1.8488 4.9819-3.8136 24.563-1.4298 12.402-1.3967 15.41 0.25187 23.17 1.5794 7.4358 5.8968 22.373 10.071 34.839 1.9855 5.9292 2.3887 7.2608 2.2317 7.3823-0.07422 0.0574-0.02299 0.17392 0.11515 0.25782 0.13818 0.0839 0.22787 0.34353 0.19813 0.57668-0.0297 0.23311 0.02286 0.43342 0.11841 0.44563 0.09555 0.0122 0.08752 0.0889-0.01913 0.1714-0.10699 0.0828-0.09955 0.18674 0.01682 0.23032 0.48067 0.18016 0.97693 4.0052 1.2989 10.012 0.0022 0.0408 0.0041 0.0705 0.0062 0.11084l0.01435 0.21778c0.12824 2.3306 0.25647 3.9952 0.48042 5.3839 0.0087 0.0542 0.02162 0.10141 0.03051 0.15466 0.07618 0.45018 0.16318 0.88369 0.2651 1.2983 0.01983 0.0798 0.04481 0.16167 0.06573 0.24066 0.10295 0.39288 0.22182 0.78868 0.3559 1.1821 0.0038 0.0113 0.0052 0.0226 0.0093 0.0338 0.0074 0.0207 0.01857 0.0436 0.02577 0.0644 0.17182 0.49526 0.37439 1.0184 0.60717 1.5659 0.01094 0.0253 0.02324 0.056 0.03442 0.0818 0.29438 0.68757 0.6244 1.4162 1.0361 2.282 1.1358 2.6431 2.63 5.204 3.2794 7.9639 0.05327 0.67657 0.04468 0.92783 0.15644 0.93165 0.64965-0.49203 0.64067-0.55292 1.0182-0.0892 0.14001 0.63555 0.2824 0.85301 0.69944 0.75507 0.18782-0.0484 0.53273-0.27916 0.81603-0.52972 1.2856-1.0208 0.85968-0.99659 1.6016-0.41875 0.07698 0.15032 0.11042 0.30656 0.17159 0.38847 0.08331 0.13427 0.18085 0.22572 0.25988 0.23156 0.76552-0.33353 1.4016-0.33792 2.2316-0.26279 0.80889-1.0359 1.5166 0.43195 2.0158 0.0626 0.75267-0.14144 1.1313 0.0966 1.7025-0.28697 0.60488-0.57507 0.39175-0.98414 0.8919-2.0105 0.07249-0.14875 0.14446-0.24632 0.20559-0.37969 0.04183-0.099 0.10479-0.24242 0.14532-0.34504 1.2339-3.0398 1.0642-6.7723 1.7146-9.9616 0.0075-0.0365 0.01083-0.0357 0.01944-0.0777 0.13279-0.65029 0.28474-1.2745 0.49224-2.0288 0.05489-0.20145 0.12884-0.44351 0.18942-0.65495 0.35972-1.2277 0.62976-2.1029 0.94499-3.1093 1.3477-3.1561 1.5971-4.2917-0.9364-7.0656-0.66109-0.77644-1.2389-1.5438-1.8754-2.3782-0.69001-0.9254-1.3307-1.8216-1.9052-2.6766-0.27649-0.4121-0.50367-0.77451-0.74382-1.1542-0.77705-1.2294-1.4254-2.3559-1.7948-3.2127-1.7106-3.9674-1.7938-8.8836-0.1963-11.673 0.27819-0.4857 0.72812-1.0496 1.307-1.6764l0.05965-0.063c0.25116-0.26591 0.51647-0.53006 0.78568-0.79355 0.07967-0.0773 0.14965-0.15187 0.23317-0.23105 0.19384-0.18561 0.39782-0.36959 0.60026-0.55369 0.24022-0.21707 0.49251-0.4396 0.75899-0.6693 0.19057-0.16315 0.37983-0.3258 0.57687-0.4874 0.10733-0.089 2.0157-1.0749 1.124-0.79462 7.4397-4.343 13.512-8.8299 24.666-18.598 2.4101-2.0268 5.5859-4.8395 7.5906-6.3659 12.906-9.3215 14.133-10.805 16.35-13.044 1.7756-1.7935 2.8702-2.6993 7.9528-6.5715 5.6694-4.3193 5.9805-4.5822 8.1401-6.8778 3.1511-3.3496 5.7504-5.6014 9.2407-8.0091 1.6104-1.1108 3.8634-2.7225 5.0077-3.5815l2.0801-1.5616-0.79049-1.118c-0.50975-0.72147-1.2331-1.4662-2.0367-2.0931-3.8134-2.9755-5.774-3.364-12.019-2.3808-1.8467 0.29072-3.8077 0.54349-4.3579 0.56099-0.57587 0.01827-2.801-0.47613-5.246-1.1657-7.3359-2.0691-10.558-2.2057-18.116-0.76741-2.6654 0.50717-4.5899 0.7371-5.9057 0.70598-1.0736-0.02538-2.4422 0.01861-3.0425 0.0971-0.60024 0.07849-1.1818 0.10884-1.292 0.06753-0.11029-0.0413-0.74541-0.64908-1.4115-1.3507-1.0532-1.1095-1.4446-1.5259-3.2081-2.3619-7.7069-3.0143-16.941-5.0229-24.047-5.7651-4.8055-0.48767-10.779-1.4067-13.327-1.8006-5.3742-0.8304-6.4913-0.61865-8.4612 0.50017-0.4095 0.23256-0.80934 0.49192-1.1994 0.77881z" fill="#0c55a0" stop-color="#000000" stroke-width="0" style="paint-order:stroke markers fill"/>
  <g stroke-width=".20323">
   <path d="m84.171 181.35c-1.7003 0.14281-2.0829 0.28735-2.293 0.86661-0.07052 0.19434-0.27331 0.35304-0.49974 0.39169-0.2736 0.0462-0.39311 0.2164-0.42286 0.60217-0.05937 0.77017-0.40617 0.94973-1.9448 1.007-1.0091 0.0376-1.4011 0.14129-1.511 0.39982-0.18113 0.42607-0.93156 0.67949-1.6111 0.54413-0.27084-0.054-1.0303-0.46262-1.6877-0.90823-0.95399-0.6466-1.2885-0.76927-1.6572-0.60774-0.55694 0.24387-1.9578-2e-3 -3.1583-0.55498-0.69736-0.32105-1.1626-0.74306-2.2508-2.0415-0.98445-1.1747-1.5016-1.6614-1.8317-1.724-0.38739-0.0734-0.48784-0.18939-0.63636-0.73477-0.1518-0.5573-0.24722-0.66021-0.68445-0.73826-0.42128-0.0752-0.55931-0.21547-0.80759-0.82083-0.26719-0.65148-0.38132-0.74784-1.0589-0.89415-0.41768-0.0902-0.45-0.91285-0.47399-0.98418-0.70538-2.0973-0.61647-2.7454-0.44643-4.8244 0.05179-0.63325-0.07494-1.7054-0.01497-2.3865 0.24598-1.146 0.23046-0.54117 1.6071-2.9971 0.98904-1.595 1.2494-3.2725 2.5175-4.2459 0.62957-0.44664 1.036-0.54837 0.99155-0.19941-0.0085 0.0669-0.52973 0.92568-1.1582 1.9085-1.5514 2.4259-1.912 3.4221-1.8506 5.1112 0.05527 1.5201 0.65389 4.7322 0.99334 5.3304 0.17079 0.30102 0.32536 0.28238 0.98327-0.11849l0.78058-0.47561 1.9088 1.0926c1.0498 0.60094 2.6911 1.4096 3.6471 1.7971 2.1142 0.85658 2.3093 1.0476 1.4767 1.4455-0.33535 0.16023-0.9138 0.46224-1.2854 0.67102-2.331 1.3099 1.0409 4.2292 4.1959 3.6326 1.1517-0.21778 1.6476-0.64735 1.918-1.6616l0.22712-0.85184 2.5167 0.35172c1.5449 0.21583 3.1628 0.27136 4.19 0.1438 0.92027-0.11435 1.9104-0.1656 2.2004-0.11382 0.50543 0.0902 0.51441 0.10367 0.21819 0.32751-0.17019 0.12801-0.73492 0.33436-1.2556 0.4577-1.264 0.29949-1.351 0.40135-0.62909 0.73672 1.3378 0.62153 1.05 0.87688-1.2021 1.066zm8.1643-8.9314c0.12341-0.16015 0.37656-0.35606 0.56254-0.43536 0.18598-0.0793 0.08506 0.0517-0.22438 0.2912-0.3094 0.23945-0.46158 0.3043-0.33816 0.14416zm93.245-89.894c0.0801-0.13623 0.22312-0.23781 0.31784-0.22575 0.0947 0.01207 0.0292 0.12352-0.14562 0.24767-0.19321 0.13719-0.26079 0.12856-0.17225-0.02196zm-65.363 49.455c-5.0125 3.5286-10.01 6.5716-12.49 7.605-2.8952 1.2063-4.6387 1.1178-7.6068-0.38612-3.1967-1.6198-7.881-4.9951-11.176-8.0529-1.3088-1.2146-2.3606-2.4442-4.9599-5.7985-3.059-3.948-3.353-4.3834-4.0426-5.9944-0.40901-0.95548-0.95969-2.7266-1.2237-3.9357-0.76107-3.4859-0.38276-5.6613 1.3979-8.0382 8.2953-7.9156 14.989-8.6675 26.212-20.398 1.1304-1.005 4.078-3.4723 6.5502-5.483 14.386-11.629-1.7919 3.7435-3.8232 5.6867-10.741 10.263-14.328 14.171-15.122 16.473-0.16468 0.47747-0.11669 0.70793 0.22219 1.0671 0.38024 0.40302 0.80155 0.43705 3.5006 0.28269 3.2761-0.18734 4.3099 0.0106 4.6992 0.89971 0.12195 0.27856 0.0841 1.7421-0.0842 3.2523-0.29859 2.6804-0.19843 3.869 0.3905 4.63 0.51112 0.66044 2.2533 1.3282 4.9367 1.8919 2.9648 0.62295 3.8986 1.1143 4.0119 2.1108 0.0389 0.34215-0.17196 1.3923-0.4687 2.3336-0.68918 2.1865-0.69311 2.9534-0.0169 3.256 0.78821 0.35273 1.468 0.31318 4.1419-0.24075 3.0328-0.62836 10.139-3.1004 14.905-5.1849 11.327-4.9544 17.962-9.2754 32.551-21.198 8.2491-6.7417 10.76-8.678 10.943-8.4407 0.26417 0.34134-1.9977 2.844-5.3993 5.9738-3.8621 3.5537-16.486 13.631-23.669 18.894-4.6356 3.3967-8.8429 6.6344-12.563 9.6678-6.3308 5.1622-7.8333 6.3227-11.816 9.1266zm64.734-54.316c-0.0315-0.04066 0.26476-1.0401 0.65832-2.221 1.9526-5.8587 1.5465-10.353-1.4288-15.817-2.5876-4.7519-6.7148-9.4085-8.9329-10.079-0.98361-0.29716-1.521 0.02193-2.8778 1.7087-0.65338 0.8123-1.3762 1.6208-1.6063 1.7965-0.68526 0.52292-2.8974 0.8358-5.539 0.7824-3.784-0.07655-6.3033 0.18265-11.614 1.1946-5.5875 1.0647-6.1345 1.1083-6.1989 0.49392-0.0642-0.61174 0.61797-1.4504 3.4789-4.2768 9.9635-9.8437 14.079-12.08 19.126-10.393 4.1881 1.4003 9.5735 6.3968 14.043 13.029 5.9235 8.7898 6.6344 13.351 3.1315 20.097-0.94152 1.8135-2.1495 3.801-2.2395 3.6847z" fill="#e4e4e4"/>
   <path d="m82.694 147.84c-0.10493-0.13559-0.29228-1.8415-0.65561-5.9697-0.43425-4.9344-1.8535-10.29-3.8215-14.421-0.61001-1.2804-1.7763-3.1518-3.7682-6.0464-1.5866-2.3057-3.0308-4.5417-3.2093-4.969-1.4887-3.5637-1.4403-6.2036 0.18148-9.8901 0.30769-0.69943 0.96711-2.2001 1.4653-3.3348 1.0544-2.4012 1.3528-4.1503 1.0103-5.9208-0.27421-1.417-0.56273-2.131-2.7744-6.865-4.6862-10.031-6.1703-16.767-5.9947-27.209 0.08464-5.0282 0.81717-10.913 1.4161-11.376 0.24507-0.18966 0.56302 0.71635 1.3783 3.9216 1.2898 5.0733 1.9223 6.5975 4.5676 11.007 0.78176 1.3032 1.6747 2.9184 1.9843 3.5894 1.4902 3.2294 3.2024 9.2801 4.6566 16.456 2.218 10.946 2.2046 15.219-0.06417 20.335-1.7773 4.007-1.9343 7.0084-0.60023 11.478 0.88254 2.9568 2.1134 5.247 4.9466 9.2041 1.8477 2.5806 2.5412 3.6802 2.6997 4.2805 0.30297 1.1468 0.0037 3.5957-1.0047 8.2233-1.226 5.6256-2.002 8.0393-2.4138 7.5072zm24.516-65.037c-2.9947 1.9485-4.3225 2.2524-3.4922 0.79941 0.46603-0.81556 3.1284-3.9961 8.278-9.889 6.5231-7.4648 8.6704-10.673 9.1567-13.68 0.12543-0.7765 0.10597-2.3137-0.0436-3.453-0.22835-1.7388-0.20105-2.1915 0.17852-2.9549 0.41565-0.83615 0.54006-0.95043 1.7147-1.5752 1.5903-0.84582 3.2654-1.4295 8.5566-2.9817 8.9581-2.6278 10.961-3.4824 15.591-6.6495 1.6843-1.1523 3.6368-2.3788 4.3389-2.7254 2.3429-1.1567 6.0609-1.5786 7.6019-0.86264 0.56396 0.26202 0.58267 0.30397 0.38766 0.86936-0.17397 0.5044-0.87383 1.1417-4.637 4.2228-2.4377 1.9958-5.6371 4.6867-7.1099 5.9797-1.4728 1.293-6.5292 5.4436-11.237 9.2236-5.4054 4.3405-10.125 8.2738-12.81 10.676-4.4146 3.9493-13.113 10.814-16.474 13zm-2.1984-35.407c-1.2783 0.31567-1.8027-0.08103-5.4404-4.115-3.0895-3.4261-4.3348-4.5619-6.211-5.6653-2.5048-1.473-4.6371-2.1563-10.483-3.3591-5.7266-1.1783-7.5546-1.8046-11.111-3.8068-3.0618-1.7239-4.198-2.2029-5.921-2.4965-0.88869-0.15144-1.6685-0.3434-1.7329-0.42657-0.36278-0.46877 1.5429-1.9509 3.3016-2.5678 1.5351-0.53849 3.4141-0.77056 5.8319-0.72032 2.1002 0.04363 21.8 2.2959 24.566 2.8085 3.8277 0.70935 6.642 1.7369 8.3751 3.0578 0.80047 0.6101 2.3989 2.5893 2.7832 3.4462 0.94196 2.1004 0.80718 5.3724-0.35665 8.6577-1.1371 3.2097-2.2844 4.8624-3.6016 5.1876z" fill="#083666"/>
   <path d="m86.957 185.74c-0.359 0.0957-1.1511 0.0707-1.7601-0.0554-1.1881-0.24608-1.4944-0.0202-0.94144 0.6943 0.1898 0.24525 0.33364 0.53583 0.31961 0.64578-0.01399 0.10991-0.91694 0.0474-2.0065-0.13899-2.0062-0.34319-2.459-0.24319-1.5146 0.33432 0.89526 0.54749 0.58874 0.9273-0.55601 0.68912-2.548-0.53018-2.8136-0.45764-3.0949 0.84519-0.09161 0.42426-0.19805 0.79574-0.23654 0.82552-0.0385 0.0298-0.34521-0.50727-0.68157-1.1934-0.66438-1.3553-1.1999-2.0135-1.5396-1.8926-0.119 0.0424-0.3515 0.58493-0.51669 1.2057l-0.3003 1.1286-0.19214-0.90793c-0.26064-1.2315-0.80014-1.6465-2.5689-1.976-2.0549-0.38284-2.7511-0.89159-3.4574-2.5265-0.30409-0.70395-0.59549-1.3337-0.64752-1.3994-0.05208-0.0657-0.42011 0.13239-0.8179 0.44024-0.89715 0.69431-1.194 0.43528-1.0437-0.91084 0.12073-1.0816-0.1193-1.2094-0.70694-0.37644l-0.42083 0.59652-0.09558-1.3165c-0.08897-1.2254-0.12624-1.3157-0.53799-1.3044-0.33721 9e-3 -0.62033-0.21786-1.1907-0.95493-0.6155-0.79532-0.80509-1.2586-1.0678-2.609-0.24466-1.258-0.4363-1.7512-0.81931-2.109-0.42684-0.39868-0.45283-0.50336-0.17799-0.71606 0.55913-0.43271 0.67653-0.99055 0.51286-2.4367-0.21861-1.9309-0.02042-2.6261 1.4271-5.0076 0.79783-1.3126 1.2817-2.3471 1.3306-2.8448 0.06669-0.67907 0.19711-0.87509 0.99103-1.4895 1.2118-0.93784 1.6273-1.6193 1.1917-1.9548-0.38774-0.29869-0.31158-0.37773 0.46952-0.48726 0.80452-0.11281 1.1947-0.45185 1.3031-1.1323 0.09228-0.57927 0.09574-0.58189 1.2261-0.9275 0.62349-0.19063 1.3271-0.33247 1.5636-0.3153 0.79434 0.0579 0.93139-0.31688 0.60723-1.6603-0.57381-2.3778-1.2277-4.056-2.6199-6.7239-1.6932-3.2448-2.5602-5.475-3.0123-7.7482-0.41216-2.0726-0.46652-2.884-0.5209-7.7751-0.07005-6.3066-0.72779-9.2742-3.712-16.749-1.2787-3.2031-2.2733-6.175-3.4213-10.224-0.89034-3.14-2.2793-7.9051-3.0866-10.589-3.4926-11.614-4.6537-16.797-5.074-22.649-0.28918-4.0282-0.10353-7.0598 0.99197-16.196 0.59851-4.9909 1.345-11.357 1.6587-14.148 0.73682-6.5502 1.4433-9.4706 3.1572-13.05 1.7388-3.6319 4.3934-6.8522 6.508-7.8949 2.7343-1.3481 4.9613-1.3336 12.18 0.07914 2.2595 0.44215 6.8788 1.1461 10.265 1.5643 6.4113 0.79172 7.255 0.95641 14.851 2.8984 9.8558 2.5193 10.212 2.6475 12.6 4.5378 2.201 1.7417 2.4632 1.8667 3.7955 1.8088 0.6396-0.02778 1.9846-0.01101 2.9889 0.03737 1.9711 0.09492 3.0864-0.06432 5.635-0.80452 5.7832-1.6795 10.527-1.3976 18.103 1.0759 3.8541 1.2582 4.6253 1.3056 7.997 0.4917 3.3986-0.82046 5.0942-0.9685 7.1025-0.62025 3.1324 0.5432 5.2261 1.7941 7.4075 4.4256 0.76815 0.92673 1.4988 1.7231 1.6236 1.77 0.1249 0.04678 1.0144-0.06858 1.9767-0.25638 2.2025-0.42989 4.1391-0.18563 6.0777 0.76658 3.0367 1.4916 5.2464 3.7003 8.7847 8.7811 1.3174 1.8917 3.6003 5.1557 5.073 7.2533 1.4728 2.0976 3.0362 4.4925 3.4742 5.3218 2.6857 5.0843 3.3784 10.866 1.7957 14.99-1.1489 2.9953-4.0536 6.8223-7.419 9.7749-1.3878 1.2175-2.574 2.4222-3.1656 3.215-1.2308 1.6491-3.0318 3.0666-8.7783 6.9091-4.3185 2.8876-4.5858 3.094-7.3196 5.651-1.5606 1.4597-3.649 3.3984-4.641 4.3083-2.0859 1.9133-8.0106 6.3136-13.871 10.302-5.9073 4.0204-8.395 6.0034-11.285 8.9954-3.0325 3.1396-5.704 5.2384-11.603 9.1152-5.7307 3.7662-6.4433 4.2469-10.487 7.0732-6.6642 4.6582-8.3824 5.1445-12.291 3.4782-2.715-1.1574-5.622-3.1706-10.203-7.0665-2.3497-1.9981-3.2238-2.5436-3.7986-2.3707-0.61748 0.18576-1.2997 1.3453-2.0082 3.4135-1.1227 3.2768-1.605 5.6954-1.8739 9.3954-0.25723 3.5397-0.63494 5.4594-1.3806 7.0159-0.48535 1.0132-0.24743 1.5256 0.67473 1.453 0.33306-0.0262 0.71232 0.0903 0.8428 0.25887 0.13048 0.16861 0.78949 0.39991 1.4645 0.51404l1.2272 0.20745-0.12659 1.3206 1.1413 0.20467c0.97327 0.17456 1.2318 0.31685 1.7565 0.96649 0.42959 0.53198 0.56555 0.84347 0.45076 1.0326-0.13219 0.21768 0.0157 0.45833 0.75415 1.2271l0.91857 0.95624-0.49497 0.38305c-0.66857 0.51741-0.4267 0.74075 1.0163 0.93846 1.1582 0.15866 1.1927 0.1789 0.8102 0.47491-0.64084 0.49595-0.76877 1.2832-0.33682 2.0736 0.28276 0.51759 0.3117 0.7727 0.10564 0.93218-0.3303 0.25562-0.2788 0.49258 0.3525 1.6218 0.51809 0.9267 0.47334 1.0557-0.31709 0.91464-0.77558-0.1384-0.73899 0.24342 0.1532 1.5985 0.96315 1.4629 1.039 1.8537 0.44834 2.3108-0.72233 0.55901-0.81772 0.84429-0.70583 2.111 0.0574 0.64973 0.04191 1.2297-0.03445 1.2888-0.07638 0.0591-0.39777-0.0102-0.71425-0.15396l-0.5754-0.26141 0.17656 0.5868c0.0971 0.32275 0.24057 0.67429 0.31883 0.78121 0.07798 0.10713-0.05177 0.14218-0.28892 0.0784-0.60676-0.16328-0.69018-0.0266-0.29724 0.48702 0.52686 0.68874 0.47511 1.11-0.2007 1.633-0.52768 0.40837-0.56964 0.51766-0.31588 0.82269 0.16087 0.19352 0.26637 0.37207 0.23435 0.39685-0.03202 0.0248-0.5684 0.143-1.1919 0.26265-1.2626 0.2423-1.4094 0.41491-0.67961 0.79913 0.45936 0.24186 0.46473 0.28389 0.07493 0.58556-0.23097 0.17875-1.3589 0.53123-2.5065 0.78333-1.9805 0.43505-2.6237 0.67152-2.4473 0.89955 0.04314 0.0557 0.61459 0.26087 1.2699 0.4558 0.6553 0.19497 1.1861 0.39526 1.1797 0.44515-0.0064 0.0499-0.30546 0.16894-0.66446 0.2646zm2.4119-3.3551c-0.60712-0.60427-0.15185-1.2024 0.98337-1.2917 0.58407-0.046 0.61928-0.0732 0.56487-0.43715-0.03906-0.26127 0.14847-0.54791 0.57386-0.87712 0.65639-0.50798 0.65722-0.55919 0.02734-1.6887-0.1095-0.19632-0.07611-0.49525 0.07416-0.66425s0.25333-0.45247 0.22902-0.62993c-0.05815-0.4247 0.4445-0.79942 0.92774-0.6916 0.32898 0.0734 0.37986-0.0567 0.35304-0.90233-0.03537-1.1151 0.15866-1.6758 0.73395-2.121 0.4789-0.37062 0.39408-0.71037-0.44946-1.8004-0.80769-1.0437-0.90342-1.8877-0.24672-2.1752 0.37993-0.16636 0.41338-0.28312 0.20527-0.71649-0.43202-0.89957-0.52404-1.461-0.27153-1.6564 0.15617-0.12086 0.12772-0.3402-0.07872-0.60694-0.19846-0.25644-0.2719-0.73422-0.19023-1.2376 0.11711-0.72198 0.08441-0.82155-0.27381-0.83377-1.0878-0.0371-1.7779-0.92241-1.1178-1.4332 0.51745-0.40046 0.48857-0.50903-0.30966-1.1641-0.58402-0.47928-0.72046-0.69398-0.76002-1.1959-0.08136-1.0332-0.74212-1.6697-1.8633-1.7949-1.0279-0.11473-1.5828-0.56174-1.4479-1.1664 0.06523-0.29247-0.09116-0.37705-0.88398-0.47811-0.52977-0.0675-1.0795-0.27299-1.2215-0.45655-0.14209-0.1836-0.52447-0.31286-0.84972-0.28725-0.32526 0.0256-0.70866-0.0562-0.852-0.18178-0.17401-0.15248-0.41985-0.10511-0.73991 0.14259-0.3871 0.29957-0.61712 0.30454-1.1957 0.0259-0.394-0.18978-0.67253-0.28818-0.61895-0.21867 0.05358 0.0695-0.10715 0.16092-0.35717 0.20313-0.30361 0.0512-0.58188-0.0878-0.83787-0.41853-0.32128-0.41515-0.42452-0.44175-0.63816-0.16441-0.15058 0.19547-0.5436 0.32788-0.96048 0.32356-0.38809-4e-3 -0.98261 0.0888-1.3212 0.20618-0.52445 0.18187-0.67092 0.13486-0.98964-0.31765l-0.37404-0.53114-0.60975 0.62137c-0.80641 0.82177-1.4763 0.92941-1.9527 0.31383-0.34021-0.4396-0.39417-0.43967-0.77445-1e-3 -0.299 0.34452-0.65038 0.49248-1.3082 0.55101-1.1991 0.10668-2.4828 0.54805-2.459 0.84537 0.04104 0.5108-0.39491 1.1227-0.96045 1.3481-0.44241 0.17637-0.60664 0.36458-0.71348 0.81768-0.09966 0.42272-0.39922 0.79014-1.0632 1.304-0.78375 0.60654-0.9598 0.85931-1.1564 1.6606-0.12758 0.51981-0.77939 1.8457-1.4485 2.9465-1.338 2.2013-1.5207 2.8538-1.3455 4.8052 0.06494 0.72339 7.14e-4 1.5968-0.14264 1.9407-0.15513 0.37213-0.15708 0.76025-0.0048 0.95825 0.14083 0.18298 0.40703 1.1258 0.5918 2.0951 0.39529 2.0742 1.2029 3.4014 1.8913 3.108 0.46668-0.19888 0.84219 0.23121 0.87914 1.0069 0.02551 0.53553 0.05893 0.56864 0.55044 0.54523 0.69892-0.0333 0.83112 0.18776 0.79596 1.3309l-0.02969 0.96514 0.64502-0.41909c0.6346-0.41232 0.65266-0.40841 1.1185 0.24246 0.26038 0.36386 0.68373 1.0413 0.9406 1.5054 0.63055 1.139 1.1251 1.4855 2.4606 1.7241 1.6352 0.29201 2.2415 0.52526 2.6126 1.0047 0.29928 0.38672 0.38108 0.38132 0.9171-0.0602l0.58853-0.48477 0.88429 1.1426c0.88369 1.1419 0.88456 1.1423 1.1984 0.71834 0.41515-0.56088 0.74126-0.66368 1.7801-0.5612 0.71377 0.0704 0.84988 0.0277 0.76899-0.24119-0.18466-0.6138 0.54397-0.82737 2.102-0.61613 0.85476 0.11589 1.5897 0.18314 1.6331 0.14953 0.04343-0.0336 0.0051-0.23464-0.08528-0.44669-0.25321-0.59418 0.12145-1.0062 0.85135-0.93631 0.64154 0.0615 0.64312 0.0604 0.4751-0.33387-0.29485-0.69189 0.1283-0.95748 2.2346-1.4026 2.1941-0.46363 2.5988-0.62289 2.3111-0.90928zm46.502-58.152c4.9587-4.7833 6.2257-5.8218 11.793-9.6663 8.6559-5.977 12.474-8.8634 16.862-12.748 2.8604-2.5322 5.5567-4.7127 10.195-8.2451l6.3061-4.8022 1.6722-1.9902c0.91968-1.0946 2.6034-2.8912 3.7417-3.9924 3.1823-3.0788 4.6732-5.2922 5.7865-8.5913 2.3644-7.0062 0.37739-12.873-8.3459-24.641-2.1776-2.9376-3.6928-4.8287-4.5401-5.6661-3.6829-3.6398-7.2942-5.4201-10.196-5.0266-3.9778 0.53947-12.569 6.5667-19.163 13.444-2.1432 2.2353-3.2677 3.1686-9.1546 7.5976-2.7024 2.0331-4.7598 3.7377-7.0464 5.8379-2.594 2.3825-4.3006 3.7716-8.6715 7.0582-9.6879 7.2846-13.627 10.449-18.462 14.83-6.2862 5.6963-13.133 11-17.673 13.691-7.3791 4.3731-9.436 6.3111-10.295 9.6996-0.49592 1.9579-0.14561 5.1126 0.88374 7.9585 1.1385 3.1474 1.2781 3.3602 6.8714 10.473l3.3223 4.2248 2.9062 2.2625c7.3271 5.7041 9.2828 6.9561 11.568 7.4055 2.3 0.45247 5.3372-0.53755 9.686-3.1572 1.9614-1.1815 7.6748-4.9514 10.885-7.1822 3.1718-2.2042 9.2648-7.0344 11.069-8.7751zm-53.034 29.301c0.93844-1.5568 1.3577-3.2097 1.6774-6.6118 0.35106-3.737 0.74017-5.5802 2.0196-9.5665 1.6223-5.0547 1.6496-4.8634-1.206-8.4445-2.6567-3.3316-4.8838-6.6932-5.7553-8.6868-1.8381-4.2041-1.8664-9.3423-0.06667-12.115 1.5594-2.4021 6.2602-6.2938 10.068-8.3349 4.9516-2.6541 7.1263-4.3396 17.108-13.259 5.4241-4.8469 11-9.2504 16.987-13.416 4.418-3.0734 6.7615-5.0263 10.3-8.5833 2.1348-2.1459 4.2966-3.8822 9.0447-7.2646 3.504-2.4962 3.7282-2.6865 5.8148-4.9389 4.3692-4.7162 6.2912-6.351 11.778-10.018 1.5371-1.0273 3.3387-2.2772 4.0035-2.7775 1.1588-0.87202 1.2-0.92921 0.996-1.3833-0.53191-1.1841-3.4768-3.7068-5.472-4.6878-2.429-1.1941-4.4865-1.296-9.1721-0.45428-3.0002 0.53899-4.5611 0.68209-5.6038 0.51366-0.3824-0.06176-2.3021-0.59974-4.266-1.1954-6.7921-2.0603-10.795-2.2063-18.035-0.65761-3.1519 0.67422-4.176 0.79612-5.6911 0.67735-1.0161-0.07966-2.3318-0.05188-2.9237 0.06168-0.59191 0.11356-1.2277 0.17016-1.4127 0.12567-0.18507-0.04448-0.82547-0.64541-1.423-1.3353-0.92389-1.0666-1.3385-1.3806-2.769-2.0973-2.7294-1.3673-8.2257-3.0351-14.822-4.4974-3.4169-0.75754-5.7862-1.0919-10.131-1.4298-2.1678-0.16859-5.7649-0.63264-7.9937-1.0312-10.388-1.8579-11.369-1.8516-14.17 0.09075-5.1106 3.5443-8.3263 11.056-9.1766 21.433-0.11742 1.4336-0.75486 7.0152-1.4166 12.404-1.5677 12.765-1.5306 15.751 0.30621 24.44 1.4588 6.8999 6.5542 24.308 10.336 35.315 2.7544 8.0154 3.2359 10.348 3.5413 17.156 0.34514 7.6897 0.53432 8.4707 3.5359 14.597 1.749 3.5697 2.6077 5.7942 2.7029 7.0017 0.05857 0.74312 0.27599 0.74626 0.53075 8e-3 0.24032-0.69676 0.26101-0.68302 0.54152 0.35951 0.33409 1.2417 0.59028 1.2753 1.8067 0.23731 1.1122-0.94907 1.1321-0.94814 1.5198 0.0691 0.13882 0.36428 0.25761 0.39631 0.70972 0.19118 0.29864-0.13549 0.81282-0.22521 1.1426-0.19939l0.59963 0.047-0.08302-0.73656c-0.10299-0.91367 0.12917-0.90126 0.86764 0.0464 0.78056 1.0022 1.0967 1.0867 1.6547 0.44379 0.35464-0.40863 0.44155-0.44543 0.40672-0.17219-0.11856 0.93019 0.58219 0.34605 1.5895-1.325z" fill="#060404"/>
  </g>
 </g>
</svg>
