<?xml version="1.0" encoding="UTF-8" standalone="no"?>
<svg
   xmlns:dc="http://purl.org/dc/elements/1.1/"
   xmlns:cc="http://creativecommons.org/ns#"
   xmlns:rdf="http://www.w3.org/1999/02/22-rdf-syntax-ns#"
   xmlns:svg="http://www.w3.org/2000/svg"
   xmlns="http://www.w3.org/2000/svg"
   width="341.33"
   height="341.33"
   version="1.1"
   viewBox="0 0 341.33 341.33"
   id="svg9566">
  <title
     id="title9544">knight</title>
  <metadata
     id="metadata9546">
    <rdf:RDF>
      <cc:Work
         rdf:about="">
        <dc:format>image/svg+xml</dc:format>
        <dc:type
           rdf:resource="http://purl.org/dc/dcmitype/StillImage" />
        <dc:title>knight</dc:title>
      </cc:Work>
    </rdf:RDF>
  </metadata>
  <g
     id="g1055">
    <g
       transform="translate(-1.8417)"
       id="g1224"
       style="display:inline" />
    <g
       id="g1633">
      <g
         id="g1611"
         style="display:inline"
         transform="translate(-1.8417)">
        <path
           style="color:#000000;font-style:normal;font-variant:normal;font-weight:normal;font-stretch:normal;font-size:medium;line-height:normal;font-family:sans-serif;font-variant-ligatures:normal;font-variant-position:normal;font-variant-caps:normal;font-variant-numeric:normal;font-variant-alternates:normal;font-variant-east-asian:normal;font-feature-settings:normal;font-variation-settings:normal;text-indent:0;text-align:start;text-decoration:none;text-decoration-line:none;text-decoration-style:solid;text-decoration-color:#000000;letter-spacing:normal;word-spacing:normal;text-transform:none;writing-mode:lr-tb;direction:ltr;text-orientation:mixed;dominant-baseline:auto;baseline-shift:baseline;text-anchor:start;white-space:normal;shape-padding:0;shape-margin:0;inline-size:0;clip-rule:nonzero;display:inline;overflow:visible;visibility:visible;isolation:auto;mix-blend-mode:normal;color-interpolation:sRGB;color-interpolation-filters:linearRGB;solid-color:#000000;solid-opacity:1;vector-effect:none;fill:#565352;fill-opacity:1;fill-rule:nonzero;stroke:none;stroke-width:1.933;stroke-linecap:butt;stroke-linejoin:miter;stroke-miterlimit:4;stroke-dasharray:none;stroke-dashoffset:0;stroke-opacity:1;color-rendering:auto;image-rendering:auto;shape-rendering:auto;text-rendering:auto;enable-background:accumulate;stop-color:#000000"
           d="m 49.939,306.68 c 0,0 4e-6,-6.793 -0.05462,-18.896 -0.03378,-7.4844 1.7255,-15.468 2.6916,-17.78 2.8011,-6.7039 9.3119,-13.18 17.328,-17.236 l 6.0459,-3.2135 0.9456,-8.5568 c 0.46195,-4.1802 1.6653,-15.291 3.1656,-25.079 4.8608,-31.714 11.572,-55.95 22.686,-81.925 3.1377,-7.3333 5.6287,-15.133 5.5356,-17.333 -0.0931,-2.2 -0.56673,-10.555 -1.0524,-18.567 -1.0687,-17.627 0.55945,-26.286 6.2383,-33.175 3.3728,-4.0918 4.9109,-4.9244 9.0964,-4.9244 2.7705,0 6.9716,0.6743 9.3358,1.4985 3.99,1.3909 4.6266,1.1804 8.8709,-2.9333 8.1994,-7.9471 17.013,-5.0074 27.161,9.0596 l 4.5993,6.3753 23.401,0.10313 c 63.258,0.27882 99.666,19.438 99.192,43.562 -0.2367,12.041 -2.844,37.486 -5.9266,45.725 -3.626,9.6913 -10.91,16.152 -19.427,17.233 -24.269,3.0783 -30.082,4.5588 -42.411,10.802 -8.4171,4.2623 -12.735,7.2358 -13.241,9.1174 -1.9911,7.4164 0.60728,32.814 4.3303,42.326 0.99834,2.5506 4.162,4.87 11.374,8.339 16.747,8.055 22.176,17.724 22.176,39.496 0,9.4974 -0.17649,15.983 -0.17649,15.983 0,0 -13.29,-0.0187 -101.39,-0.0187 -94.795,0 -100.49,0.0175 -100.49,0.0175 z"
           id="path1598" />
        <path
           d="m 60.325,268.9 c 0,0 94.949,-13.622 181.15,-0.37365 113.48,17.44 0,0 0,0 0,0 -0.97483,-12.523 -38.475,-18.523 -37.50017,-6 -102.5,-0.25 -116,3 -13.5,3.25 -23.089,6.1326 -26.676,15.896 z"
           fill="#ffffff"
           opacity="0.2"
           stop-color="#000000"
           style="font-variation-settings:normal;display:inline"
           id="path1216" />
        <path
           d="m 114.25,71 c 0,0 12.75,7.5 20.5,14.25 C 142.5,92 146.5,94 156,94 c 9.5,0 47,-9.5 85.75,-2.5 38.75,7 42,12.75 42,12.75 0,0 -2,-5.75 -25.25,-15.5 C 235.25,79 169.25,78.5 169.25,78.5 c 0,0 -8,-18 -14.25,-19.5 -6.25,-1.5 -6.5,-1.25 -9.25,-0.5 -2.75,0.75 -6.75,9.25 -13,7 -6.25,-2.25 -15.5,-3 -18.5,5.5 z"
           fill="#ffffff"
           opacity="0.2"
           stop-color="#000000"
           style="font-variation-settings:normal;display:inline"
           id="path1218" />
        <path
           d="M 116.05078,117.90625 C 89.050781,163.40625 82.885,248.27 82.885,248.27 l 0.01754,2.24204 c 0.503839,-0.0318 3.556065,-0.39431 3.869155,-0.52131 14.065815,-2.20917 27.840315,-3.72877 41.628855,-3.7438 -20.00372,-42.49994 -20.49993,-82.50579 -12.20897,-128.2485 z"
           opacity="0.19"
           stop-color="#000000"
           style="font-variation-settings:normal;display:inline"
           id="path1210" />
        <path
           id="path1212"
           style="font-variation-settings:normal;display:inline;opacity:0.19;vector-effect:none;fill:#000000;fill-opacity:1;stroke-width:1;stroke-linecap:butt;stroke-linejoin:miter;stroke-miterlimit:4;stroke-dasharray:none;stroke-dashoffset:0;stroke-opacity:1;stop-color:#000000;stop-opacity:1"
           d="m 155.61904,184.38086 c 0.27401,1.60418 4.94525,2.93181 6.74653,4.49802 21.51084,13.21896 38.93885,32.96146 49.59338,55.83189 0.508,0.90439 1.41565,4.07163 1.07554,1.27528 -0.70592,-15.20803 -4.2293,-30.15567 -4.60681,-45.38464 -0.5698,-1.90352 0.74852,-2.95691 2.0533,-3.99273 2.421,-2.15927 4.84201,-4.31855 7.26301,-6.47782 -20.2739,3.54862 -41.4395,1.51595 -60.8396,-5.25544 -0.43045,-0.15944 -0.86041,-0.32123 -1.28535,-0.49456 z" />
        <path
           id="path1600"
           style="color:#000000;font-style:normal;font-variant:normal;font-weight:normal;font-stretch:normal;font-size:medium;line-height:normal;font-family:sans-serif;font-variant-ligatures:normal;font-variant-position:normal;font-variant-caps:normal;font-variant-numeric:normal;font-variant-alternates:normal;font-variant-east-asian:normal;font-feature-settings:normal;font-variation-settings:normal;text-indent:0;text-align:start;text-decoration:none;text-decoration-line:none;text-decoration-style:solid;text-decoration-color:#000000;letter-spacing:normal;word-spacing:normal;text-transform:none;writing-mode:lr-tb;direction:ltr;text-orientation:mixed;dominant-baseline:auto;baseline-shift:baseline;text-anchor:start;white-space:normal;shape-padding:0;shape-margin:0;inline-size:0;clip-rule:nonzero;display:inline;overflow:visible;visibility:visible;isolation:auto;mix-blend-mode:normal;color-interpolation:sRGB;color-interpolation-filters:linearRGB;solid-color:#000000;solid-opacity:1;vector-effect:none;fill:#1a1a1a;fill-opacity:1;fill-rule:nonzero;stroke:none;stroke-linecap:butt;stroke-linejoin:miter;stroke-miterlimit:4;stroke-dasharray:none;stroke-dashoffset:0;stroke-opacity:1;color-rendering:auto;image-rendering:auto;shape-rendering:auto;text-rendering:auto;enable-background:accumulate;stop-color:#000000"
           d="m 148.49023,53.273438 c -3.56748,-0.08503 -7.03237,1.49021 -10.23242,4.591796 -2.11073,2.045777 -3.28808,3.017628 -4.16211,3.306641 -0.87403,0.289013 -1.75315,0.09341 -3.71875,-0.591797 -2.54554,-0.887417 -6.72697,-1.552734 -9.65429,-1.552734 -2.15683,0 -3.79645,0.224206 -5.3125,1.044922 -1.51605,0.820715 -2.8175,2.155706 -4.5293,4.232422 -5.87402,7.125759 -7.53047,16.142383 -6.45703,33.847656 0.48552,8.009376 0.95916,16.383896 1.05078,18.548826 0.0145,0.344 -0.0985,1.22746 -0.35938,2.34571 -0.26085,1.11822 -0.65436,2.50738 -1.15039,4.06054 -0.99206,3.10632 -2.39078,6.8681 -3.94726,10.50586 -11.144184,26.04553 -17.884096,50.38541 -22.753908,82.1582 -1.50517,9.81977 -2.708382,20.94266 -3.169922,25.11914 l -0.890625,8.05079 -5.578125,2.96484 c -8.197786,4.14793 -14.862071,10.73343 -17.783203,17.72461 -0.55517,1.32859 -1.217062,3.89244 -1.78125,7.1582 -0.564188,3.26576 -1.001614,7.18053 -0.984375,11 0.05462,12.10137 0.05469,18.89063 0.05469,18.89063 v 1.03125 l 1,-0.0645 c 0.0031,-10e-6 5.691858,-0.0176 100.460938,-0.0176 88.09987,0 101.38867,0.0176 101.38867,0.0176 l 0.94141,0.002 0.0254,-0.94141 c 0,0 0.17773,-6.50039 0.17773,-16.00976 0,-10.96634 -1.36175,-19.00719 -4.93164,-25.36524 -3.5699,-6.35804 -9.32011,-10.92666 -17.79297,-15.00195 -7.15985,-3.44392 -10.07435,-5.72988 -10.89258,-7.82031 -1.78291,-4.55519 -3.38528,-13.27943 -4.24609,-21.69336 -0.86082,-8.41394 -0.94738,-16.68962 -0.0508,-20.0293 0.10712,-0.3983 1.13754,-1.65107 3.26953,-3.11914 2.13198,-1.46807 5.28744,-3.2664 9.47461,-5.38672 12.2747,-6.21571 17.84596,-7.62922 42.0957,-10.70508 8.92591,-1.1329 16.48547,-7.89638 20.21094,-17.85351 1.62439,-4.34159 3.0157,-12.73465 4.08594,-21.66016 1.07025,-8.92551 1.78288,-18.30792 1.90234,-24.38477 0.24664,-12.55295 -9.11836,-23.691364 -26.25781,-31.619136 C 250.85275,78.130821 225.82146,73.270696 194.0957,73.130859 L 171.18555,73.029297 166.875,67.052734 c -5.13299,-7.11526 -9.96558,-11.5259 -14.78906,-13.134765 -1.20586,-0.402217 -2.40655,-0.61619 -3.59571,-0.644531 z m -0.7539,6.964843 c 2.06817,0.07543 4.3662,1.520719 7.5039,4.355469 4.9207,4.446 10.7696,13.366197 9.52539,14.529297 -0.33449,0.3127 -3.63061,0.975776 -7.32421,1.472656 -5.8301,0.7843 -7.05538,0.527681 -9.29688,-1.949219 -1.4201,-1.5691 -4.24876,-3.838115 -6.28515,-5.041015 -4.5878,-2.7101 -4.6292,-4.305466 -0.25,-9.509766 2.2206,-2.63935 4.05877,-3.932847 6.12695,-3.857422 z m -25.40821,6.617188 c 5.20591,0.100493 14.41997,4.98939 21.33985,11.447265 l 6.17578,5.763672 9.82422,-1.630859 c 12.756,-2.11852 54.81323,-2.090125 68.49023,0.04687 25.138,3.928 43.42379,10.750687 52.86719,21.054683 7.9265,8.649 6.35674,8.00151 6.06445,20.85351 -1.82,25.314 -6.04657,43.919 -12.73046,47.4961 -1.351,0.7232 -7.80048,1.94875 -14.33008,2.72461 -19.376,2.302 -24.4731,3.89544 -39.8711,12.46484 l -14.66797,8.16212 -14.22461,0.0449 c -13.29999,-0.9905 -14.71199,-1.62171 -28,-6.91211 -11.3832,-5.74781 -12.96557,-6.27883 -9.10937,-3.05273 11.505,9.625 29.924,13.89553 44,13.89453 l 7.33398,-0.002 -0.45703,8.1875 c -0.5261,10.39 2.97597,28.17438 4.57618,35.08398 l 0.52148,2.25196 -3.81055,-0.46876 c -26.514,-3.25664 -76.36665,-2.17862 -96.72265,-0.66992 -11.303004,0.15501 -22.070335,1.93739 -24.394535,2.35158 l -3.789063,0.67578 0.28125,-4.15821 c 5.443,-48.312 14.280735,-83.68348 28.552738,-114.27148 4.48339,-9.6087 4.97033,-11.5254 3.55273,-14 -1.08125,-1.887 -1.64258,-9.09661 -1.64258,-21.099615 0,-16.4343 0.27448,-18.6049 2.79688,-22 1.5948,-2.1465 4.34262,-3.950059 6.38672,-4.193359 0.30956,-0.03681 0.63926,-0.05162 0.98632,-0.04492 z m 61.75196,37.382811 c -4.12747,0.0655 -8.35542,1.64341 -11.35742,4.51953 -3.4616,3.3164 -4.23599,7.0936 -1.05078,5.125 0.7315,-0.4521 2.04034,0.11211 2.9082,1.25391 0.8679,1.1418 3.37812,2.9978 5.57812,4.125 5.084,2.605 11.26394,2.6326 14.92774,0.0664 1.5703,-1.0999 3.80329,-1.63638 4.96289,-1.1914 5.8278,2.237 -2.2057,-8.85684 -8.9336,-12.33594 -2.118,-1.09534 -4.55867,-1.60181 -7.03515,-1.5625 z m 77.36328,14.42188 c -2.8713,0 -2.38928,2.50841 1.44922,7.54101 3.0771,4.03427 7.26562,6.01485 7.26562,3.43555 0,-2.2871 -6.89884,-10.97656 -8.71484,-10.97656 z m 20.63867,0.71289 c -1.26206,0.20686 -3.88285,4.37517 -4.6543,8.23242 -0.47473,2.37351 0.30464,3.13867 0.74415,3.13867 1.2477,0 4.5996,-7.48011 4.5996,-10.09961 0,-0.96977 -0.26876,-1.34044 -0.68945,-1.27148 z M 161.21484,249.52539 c 47.5346,-0.0884 63.32763,3.39794 74.32813,14.39844 7.02695,7.027 7.94336,10.05333 7.94336,26.23633 v 11.16601 l -189.029299,-0.0117 0.0332,-13.12109 c 0.981,-17.81 4.655094,-24.05815 18.121094,-30.81055 10.993,-5.5126 22.400985,-6.82312 66.208985,-7.61133 8.16475,-0.147 15.60388,-0.23346 22.39453,-0.24609 z"
           transform="translate(1.8417)" />
      </g>
      <g
         id="g966"
         style="display:inline">
        <path
           d="m 157.55637,45.450579 c -2.44754,1.929971 -4.97643,4.165118 -7.37647,6.554317 -2.64465,2.632745 -3.4767,3.338975 -8.5452,7.26606 -3.08854,2.392943 -6.37289,5.066825 -7.29797,5.939439 -1.02839,0.970073 -5.94715,4.904943 -12.65722,10.127922 -9.18462,7.149125 -11.54196,9.06177 -14.45904,11.722328 -4.80215,4.379791 -15.369174,12.568982 -18.741867,14.526055 -3.500304,2.03112 -6.793334,4.44641 -7.97946,5.85008 -2.238566,2.64933 -2.648231,6.34132 -1.206608,10.8623 0.990536,3.10623 1.489039,3.91327 6.142088,9.92573 l 4.251653,5.49378 2.874422,2.223 c 9.013122,6.96865 10.899792,7.95589 14.112302,7.38911 3.29724,-0.58228 6.81321,-2.54516 17.2725,-9.64737 3.11106,-2.11248 10.67861,-8.18175 13.15661,-10.55055 3.58319,-3.42532 5.63364,-5.06586 11.20773,-8.97243 9.56194,-6.70142 11.01927,-7.80056 15.81687,-11.92992 2.57055,-2.21254 7.28962,-6.037742 10.82819,-8.77748 5.7045,-4.416581 6.39093,-4.995064 7.58172,-6.387918 0.72025,-0.842401 2.19869,-2.442803 3.28507,-3.556626 2.53951,-2.603646 3.28197,-3.452896 4.23116,-4.830856 1.65527,-2.403017 2.72612,-5.442279 3.01616,-8.564567 0.32669,-3.517879 -0.81523,-7.475783 -3.49983,-12.137109 -1.83953,-3.193887 -5.08229,-7.830191 -7.96713,-11.387468 -2.41798,-2.981584 -2.91312,-3.504918 -4.36807,-4.623105 -3.44538,-2.647949 -6.64778,-3.680991 -9.07697,-2.927998 -2.66615,0.826471 -6.52112,3.196897 -10.6002,6.413408 z M 68.244651,157.27544 c -0.148155,0.11465 -0.154909,0.13049 -0.175456,0.34298 -0.02639,0.27284 -0.181687,0.5837 -0.416114,0.83521 -0.153278,0.16445 -0.214356,0.20626 -0.510697,0.35186 -0.185021,0.0909 -0.369744,0.19217 -0.41163,0.2246 -0.104446,0.0808 -0.255661,0.3689 -0.346689,0.66342 -0.04174,0.13503 -0.135526,0.33179 -0.209104,0.43648 -0.165879,0.23604 -0.557038,0.60938 -0.97295,0.93125 -0.530154,0.41029 -0.785558,0.75164 -0.925422,1.22937 -0.286441,0.97826 -0.688482,1.81828 -1.631378,3.41159 -0.84483,1.42754 -1.129895,2.08377 -1.245182,2.86454 -0.06946,0.47019 -0.07601,0.84758 -0.02552,1.56413 0.06971,0.98896 0.02294,1.75842 -0.134472,2.19529 -0.09207,0.25552 -0.128415,0.59205 -0.07984,0.7436 0.0189,0.0592 0.0775,0.1902 0.129824,0.29224 0.132509,0.25857 0.307256,0.89506 0.525792,1.90597 0.333829,1.54422 0.616296,2.27964 1.092994,2.84747 0.290809,0.34644 0.473568,0.42905 0.802754,0.36173 0.346123,-0.0708 0.427417,-0.0531 0.595417,0.13429 0.182555,0.20369 0.258992,0.42327 0.29241,0.83859 0.01433,0.17774 0.03695,0.36197 0.05115,0.40853 0.03982,0.13083 0.164021,0.17337 0.477358,0.16542 0.44834,-0.0113 0.640867,0.0693 0.73788,0.30593 0.06893,0.16813 0.09886,0.6468 0.07867,1.24728 -0.01217,0.36186 7.84e-4,0.5271 0.04272,0.58131 0.06791,0.0878 0.06745,0.0875 0.604718,-0.25839 0.404654,-0.26056 0.534778,-0.30964 0.650983,-0.24842 0.183485,0.0967 0.869215,1.08251 1.346415,1.93589 0.444653,0.79514 0.785645,1.16915 1.295132,1.42135 0.367256,0.18181 0.516177,0.22296 1.443312,0.40804 1.003503,0.20035 1.354797,0.29854 1.74447,0.48583 0.292662,0.14062 0.345131,0.17966 0.587827,0.43891 0.231079,0.24679 0.283056,0.28877 0.389127,0.30357 l 0.122918,0.0157 0.526869,-0.41503 0.525736,-0.41649 0.778971,1.00655 c 0.882321,1.1401 0.937237,1.1948 1.098129,1.07028 0.0486,-0.0376 0.149284,-0.15035 0.224524,-0.24845 0.390036,-0.5085 0.726907,-0.61167 1.71618,-0.52828 0.77265,0.0652 0.850488,0.038 0.802817,-0.28882 -0.04062,-0.27842 0.01787,-0.39213 0.262921,-0.50704 0.362433,-0.16995 0.8114,-0.17175 2.29671,-0.0115 0.937259,0.10112 1.057931,0.10547 1.127546,0.0405 0.07238,-0.0676 0.06985,-0.0925 -0.01835,-0.35682 -0.108967,-0.32642 -0.10123,-0.54948 0.02463,-0.71533 0.160323,-0.21128 0.44458,-0.27935 0.975146,-0.23427 0.182708,0.0155 0.308251,0.005 0.352834,-0.0297 0.06133,-0.0475 0.05923,-0.0797 -0.02468,-0.29651 -0.1819,-0.47016 -0.07979,-0.70125 0.413652,-0.92244 0.341538,-0.1531 0.795801,-0.27616 1.961493,-0.53502 1.138861,-0.25288 1.363208,-0.30855 1.752669,-0.43124 0.290491,-0.0915 0.465553,-0.19981 0.477646,-0.29496 0.0045,-0.035 -0.05397,-0.14131 -0.143777,-0.25735 -0.25794,-0.33344 -0.256979,-0.58539 0.0062,-0.82634 0.202679,-0.18557 0.530409,-0.29717 1.070369,-0.36338 0.241362,-0.0296 0.462078,-0.0709 0.489852,-0.0924 0.06048,-0.0468 0.08214,-0.18883 0.05347,-0.34494 -0.04381,-0.2389 0.126117,-0.48771 0.619989,-0.91107 0.569355,-0.48805 0.572135,-0.55673 0.06217,-1.51047 -0.07094,-0.13279 -0.13508,-0.27719 -0.142464,-0.32101 -0.02439,-0.14436 0.04246,-0.34734 0.185507,-0.56036 0.11902,-0.17725 0.145911,-0.25647 0.172867,-0.51444 0.03401,-0.3254 0.08325,-0.44027 0.243,-0.56391 0.170466,-0.13192 0.359086,-0.18199 0.628223,-0.16575 0.142438,0.009 0.282683,-0.002 0.311382,-0.0241 0.08499,-0.0658 0.112309,-0.28428 0.103278,-0.83162 -0.01195,-0.72491 0.05638,-1.20676 0.217311,-1.5342 0.126697,-0.25783 0.336185,-0.51118 0.588769,-0.70862 0.143254,-0.112 0.231345,-0.30682 0.210516,-0.4689 -0.02828,-0.22029 -0.2135,-0.54936 -0.679028,-1.20429 -0.625901,-0.88065 -0.795925,-1.29898 -0.70432,-1.74129 0.04582,-0.22124 0.144819,-0.33378 0.426989,-0.49427 0.366642,-0.20854 0.37481,-0.27088 0.116896,-0.86384 -0.20798,-0.47815 -0.313603,-0.81024 -0.337803,-1.06845 -0.01962,-0.2094 0.0051,-0.28687 0.13626,-0.44033 0.125402,-0.14669 0.110146,-0.28172 -0.06196,-0.56882 -0.225097,-0.3755 -0.272347,-0.68431 -0.204179,-1.32852 0.03087,-0.29166 0.04355,-0.57096 0.02873,-0.61974 -0.03527,-0.11587 -0.09738,-0.14018 -0.481146,-0.189 -0.210193,-0.0268 -0.400292,-0.0838 -0.584964,-0.1737 -0.244962,-0.11931 -0.290359,-0.15416 -0.440487,-0.34815 -0.135859,-0.17555 -0.16766,-0.23991 -0.16977,-0.34082 -0.005,-0.23932 0.06372,-0.36702 0.319458,-0.59899 0.161658,-0.14662 0.244447,-0.24567 0.259434,-0.30919 0.03647,-0.15569 -0.129102,-0.36359 -0.622258,-0.78811 -0.653359,-0.56282 -0.688623,-0.62594 -0.812225,-1.41687 -0.05783,-0.36989 -0.181707,-0.63929 -0.423224,-0.92044 -0.324219,-0.37734 -0.729421,-0.56582 -1.460078,-0.68186 -1.024757,-0.16274 -1.438083,-0.48573 -1.397245,-1.08945 0.0092,-0.13617 -0.0072,-0.26464 -0.03621,-0.30205 -0.06954,-0.0899 -0.299606,-0.16056 -0.729387,-0.22335 -0.393423,-0.0575 -0.830535,-0.17219 -1.048772,-0.27493 -0.07501,-0.0352 -0.204233,-0.12555 -0.288117,-0.20106 -0.200592,-0.18045 -0.417566,-0.26566 -0.707704,-0.27627 -0.536573,-0.0196 -0.70014,-0.0468 -0.928068,-0.15632 -0.328854,-0.15804 -0.400468,-0.1489 -0.814746,0.10532 -0.190263,0.11675 -0.37883,0.21791 -0.421154,0.22474 -0.155052,0.0251 -0.407729,-0.0422 -0.777894,-0.20509 -0.565919,-0.24896 -0.556435,-0.24514 -0.649702,-0.14528 -0.05457,0.0584 -0.135668,0.0957 -0.252782,0.11853 -0.368652,0.0719 -0.527445,0.001 -0.89173,-0.39887 -0.169644,-0.18621 -0.296518,-0.29978 -0.359642,-0.32157 -0.09309,-0.0322 -0.106022,-0.0265 -0.276559,0.13452 -0.255891,0.24168 -0.460789,0.31121 -1.013878,0.34616 -0.575716,0.0364 -0.807888,0.0733 -1.245924,0.19567 -0.641828,0.17931 -0.645818,0.17772 -1.087035,-0.41153 l -0.3188,-0.42787 -0.330206,0.34227 c -0.180954,0.18797 -0.479422,0.45909 -0.663535,0.60266 -0.282637,0.22046 -0.367754,0.27073 -0.545054,0.32304 -0.43691,0.12888 -0.659372,0.0508 -1.029518,-0.3621 -0.344057,-0.38385 -0.365951,-0.38584 -0.700063,-0.0485 -0.460705,0.46516 -0.616521,0.52934 -1.59949,0.65722 -0.918418,0.11948 -1.745949,0.3658 -2.072671,0.61866 z"
           fill="#f4f4f4"
           stop-color="#000000"
           stroke-width="0"
           style="paint-order:stroke markers fill"
           id="path1496" />
        <path
           d="m 61.349973,22.446757 c -2.730353,2.008447 -4.969741,5.32967 -6.51499,9.686976 -1.407609,3.968677 -1.848757,4.981856 -3.813607,24.562948 -1.429759,12.402498 -1.396651,15.409652 0.251873,23.169524 1.579406,7.435776 5.896808,22.373225 10.071367,34.839295 1.985471,5.92919 2.388665,7.26084 2.231746,7.38228 -0.07422,0.0574 -0.02299,0.17392 0.115151,0.25782 0.138178,0.0839 0.227866,0.34353 0.198128,0.57668 -0.0297,0.23311 0.02286,0.43342 0.118409,0.44563 0.09555,0.0122 0.08752,0.0889 -0.01913,0.1714 -0.106989,0.0828 -0.09955,0.18674 0.01682,0.23032 0.480674,0.18016 0.976931,4.00517 1.298929,10.01223 0.0022,0.0408 0.0041,0.0705 0.0062,0.11084 l 0.01435,0.21778 c 0.128245,2.33057 0.256467,3.99517 0.480421,5.38389 0.0087,0.0542 0.02162,0.10141 0.03051,0.15466 0.07618,0.45018 0.163176,0.88369 0.265097,1.29828 0.01983,0.0798 0.04481,0.16167 0.06573,0.24066 0.102949,0.39288 0.22182,0.78868 0.355901,1.18211 0.0038,0.0113 0.0052,0.0226 0.0093,0.0338 0.0074,0.0207 0.01857,0.0436 0.02577,0.0644 0.171817,0.49526 0.374386,1.01843 0.607169,1.56594 0.01094,0.0253 0.02324,0.056 0.03442,0.0818 0.294379,0.68757 0.624401,1.41618 1.036063,2.28204 1.135842,2.64307 2.62995,5.20403 3.279421,7.96392 0.05327,0.67657 0.04468,0.92783 0.156438,0.93165 0.64965,-0.49203 0.640672,-0.55292 1.018209,-0.0892 0.140014,0.63555 0.282399,0.85301 0.69944,0.75507 0.187821,-0.0484 0.532732,-0.27916 0.816026,-0.52972 1.28555,-1.02077 0.859675,-0.99659 1.601639,-0.41875 0.07698,0.15032 0.110421,0.30656 0.171591,0.38847 0.08331,0.13427 0.180847,0.22572 0.259876,0.23156 0.76552,-0.33353 1.40165,-0.33792 2.23163,-0.26279 0.808889,-1.03586 1.516647,0.43195 2.015799,0.0626 0.752668,-0.14144 1.131294,0.0966 1.702516,-0.28697 0.604881,-0.57507 0.391753,-0.98414 0.891902,-2.0105 0.07249,-0.14875 0.144464,-0.24632 0.205592,-0.37969 0.04183,-0.099 0.104792,-0.24242 0.145319,-0.34504 1.233852,-3.03983 1.064186,-6.7723 1.71465,-9.96155 0.0075,-0.0365 0.01083,-0.0357 0.01944,-0.0777 0.132792,-0.65029 0.284736,-1.27446 0.492239,-2.02883 0.05489,-0.20145 0.128841,-0.44351 0.189419,-0.65495 0.35972,-1.22771 0.629764,-2.10288 0.944989,-3.10931 1.347711,-3.15609 1.597111,-4.29169 -0.936398,-7.06557 -0.661091,-0.77644 -1.238872,-1.54375 -1.87544,-2.37824 -0.690014,-0.9254 -1.330689,-1.82163 -1.90522,-2.67665 -0.276488,-0.4121 -0.503671,-0.77451 -0.743825,-1.15415 -0.777054,-1.22945 -1.425378,-2.35586 -1.794842,-3.21268 -1.710643,-3.96739 -1.793814,-8.88356 -0.196301,-11.67265 0.27819,-0.4857 0.72812,-1.04965 1.30698,-1.67643 l 0.05965,-0.063 c 0.251164,-0.26591 0.51647,-0.53006 0.785685,-0.79355 0.07967,-0.0773 0.149651,-0.15187 0.233168,-0.23105 0.193838,-0.18561 0.397823,-0.36959 0.600258,-0.55369 0.240224,-0.21707 0.492507,-0.4396 0.758986,-0.6693 0.190572,-0.16315 0.379829,-0.3258 0.576871,-0.4874 0.107333,-0.089 2.015719,-1.07486 1.123958,-0.79462 7.439694,-4.342968 13.511539,-8.829854 24.665545,-18.597803 2.41011,-2.02677 5.5859,-4.839489 7.59063,-6.365903 12.90558,-9.32146 14.13317,-10.804515 16.35008,-13.043662 1.77555,-1.79349 2.87021,-2.699292 7.95281,-6.571494 5.66941,-4.319271 5.98054,-4.582223 8.14006,-6.877835 3.15106,-3.349641 5.75045,-5.601426 9.24071,-8.009095 1.61035,-1.110848 3.86337,-2.722504 5.00768,-3.581528 l 2.08009,-1.561601 -0.79049,-1.118028 c -0.50975,-0.721466 -1.2331,-1.466153 -2.03666,-2.093107 -3.81335,-2.975505 -5.77397,-3.363992 -12.0192,-2.380793 -1.84674,0.290716 -3.80771,0.543494 -4.3579,0.560986 -0.57587,0.01827 -2.80101,-0.476131 -5.24605,-1.16571 -7.33589,-2.069114 -10.55791,-2.205736 -18.11631,-0.767407 -2.66544,0.507174 -4.58993,0.737105 -5.90566,0.705978 -1.07355,-0.02538 -2.44219,0.01861 -3.0425,0.0971 -0.60024,0.07849 -1.18175,0.108837 -1.29205,0.06753 -0.11029,-0.0413 -0.74541,-0.649075 -1.41148,-1.35067 -1.05325,-1.109455 -1.44458,-1.525916 -3.20811,-2.36187 -7.70693,-3.014326 -16.941105,-5.022864 -24.04713,-5.765129 -4.805514,-0.487668 -10.77884,-1.406743 -13.327073,-1.800587 -5.37425,-0.830395 -6.491287,-0.61865 -8.461212,0.500168 -0.409501,0.232565 -0.809336,0.491917 -1.199352,0.778812 z"
           fill="#e01010"
           stop-color="#000000"
           stroke-width="0"
           style="fill:#207709;fill-opacity:1;paint-order:stroke markers fill"
           id="path1510" />
        <path
           d="m 84.171158,181.35135 c -1.700309,0.14281 -2.082854,0.28735 -2.293022,0.86661 -0.07052,0.19434 -0.273313,0.35304 -0.499738,0.39169 -0.273601,0.0462 -0.393109,0.2164 -0.422864,0.60217 -0.05937,0.77017 -0.406171,0.94973 -1.944831,1.00699 -1.009054,0.0376 -1.401128,0.14129 -1.511037,0.39982 -0.181131,0.42607 -0.931565,0.67949 -1.611147,0.54413 -0.270843,-0.054 -1.030253,-0.46262 -1.687668,-0.90823 -0.953989,-0.6466 -1.288486,-0.76927 -1.65723,-0.60774 -0.556944,0.24387 -1.957826,-0.002 -3.158335,-0.55498 -0.697359,-0.32105 -1.162646,-0.74306 -2.250797,-2.04149 -0.984446,-1.17467 -1.501558,-1.66139 -1.831736,-1.72399 -0.387392,-0.0734 -0.487836,-0.18939 -0.636359,-0.73477 -0.151796,-0.5573 -0.247221,-0.66021 -0.684452,-0.73826 -0.421276,-0.0752 -0.559306,-0.21547 -0.807594,-0.82083 -0.267193,-0.65148 -0.381317,-0.74784 -1.058891,-0.89415 -0.41768,-0.0902 -0.450003,-0.91285 -0.473993,-0.98418 -0.705375,-2.09734 -0.61647,-2.74541 -0.44643,-4.82435 0.05179,-0.63325 -0.07494,-1.70543 -0.01497,-2.38649 0.245976,-1.14597 0.230459,-0.54117 1.607139,-2.99713 0.989044,-1.59498 1.249411,-3.27248 2.517463,-4.2459 0.629567,-0.44664 1.036045,-0.54837 0.991547,-0.19941 -0.0085,0.0669 -0.529728,0.92568 -1.158239,1.90847 -1.551362,2.42586 -1.912046,3.42206 -1.850577,5.11119 0.05527,1.52012 0.653887,4.73217 0.993343,5.33036 0.17079,0.30102 0.325363,0.28238 0.983274,-0.11849 l 0.780583,-0.47561 1.90875,1.09265 c 1.049804,0.60094 2.691072,1.40964 3.647143,1.79707 2.114165,0.85658 2.309275,1.04764 1.476728,1.44549 -0.335354,0.16023 -0.913804,0.46224 -1.285365,0.67102 -2.331017,1.30988 1.040866,4.22915 4.195913,3.63258 1.151716,-0.21778 1.647591,-0.64735 1.917987,-1.66155 l 0.227122,-0.85184 2.516746,0.35172 c 1.544887,0.21583 3.162846,0.27136 4.18998,0.1438 0.920274,-0.11435 1.910388,-0.1656 2.200369,-0.11382 0.505429,0.0902 0.514406,0.10367 0.218189,0.32751 -0.17019,0.12801 -0.734918,0.33436 -1.255555,0.4577 -1.264011,0.29949 -1.350975,0.40135 -0.629086,0.73672 1.337843,0.62153 1.049973,0.87688 -1.202062,1.06604 z m 8.164298,-8.93137 c 0.123411,-0.16015 0.376557,-0.35606 0.56254,-0.43536 0.185982,-0.0793 0.08506,0.0517 -0.224375,0.2912 -0.309395,0.23945 -0.461577,0.3043 -0.338165,0.14416 z M 185.58075,82.525642 c 0.0801,-0.136233 0.22312,-0.237808 0.31784,-0.22575 0.0947,0.01207 0.0292,0.123519 -0.14562,0.247667 -0.19321,0.137189 -0.26079,0.128555 -0.17225,-0.02196 z m -65.36324,49.455178 c -5.0125,3.5286 -10.0103,6.57155 -12.49047,7.60503 -2.89521,1.20632 -4.63874,1.1178 -7.6068,-0.38612 -3.19674,-1.61978 -7.880991,-4.99508 -11.176069,-8.05292 -1.308766,-1.21455 -2.360559,-2.44417 -4.959907,-5.79854 -3.059032,-3.94795 -3.352962,-4.38338 -4.042598,-5.99443 -0.409014,-0.95548 -0.95969,-2.72662 -1.223673,-3.93571 -0.761071,-3.48587 -0.38276,-5.66127 1.397888,-8.03824 8.295307,-7.915607 14.9888,-8.667499 26.212079,-20.398185 1.13041,-1.004983 4.07799,-3.472314 6.55019,-5.482957 14.38639,-11.629254 -1.79192,3.743501 -3.82319,5.686681 C 98.314241,97.44829 94.726901,101.35631 93.933174,103.6588 c -0.164685,0.47747 -0.116691,0.70793 0.222189,1.06714 0.380241,0.40302 0.801546,0.43705 3.500608,0.28269 3.276109,-0.18734 4.309939,0.0106 4.699239,0.89971 0.12195,0.27856 0.0841,1.74207 -0.0842,3.25227 -0.29859,2.6804 -0.19843,3.86898 0.3905,4.62997 0.51112,0.66044 2.25334,1.32815 4.93667,1.89189 2.96485,0.62295 3.89857,1.11427 4.01194,2.1108 0.0389,0.34215 -0.17196,1.39228 -0.4687,2.33356 -0.68918,2.18654 -0.69311,2.95339 -0.0169,3.25605 0.78821,0.35273 1.46801,0.31318 4.14191,-0.24075 3.03275,-0.62836 10.13949,-3.10044 14.90492,-5.18494 11.3272,-4.95439 17.96247,-9.27542 32.55126,-21.198283 8.24913,-6.741693 10.75959,-8.67804 10.94329,-8.440663 0.26417,0.341341 -1.99774,2.84399 -5.39933,5.973843 -3.86207,3.553657 -16.48553,13.630513 -23.66919,18.894253 -4.63561,3.39668 -8.84287,6.63436 -12.56306,9.66781 -6.33078,5.1622 -7.83327,6.32269 -11.81621,9.12659 z m 64.73395,-54.315588 c -0.0315,-0.04066 0.26476,-1.040125 0.65832,-2.221004 1.9526,-5.858728 1.54649,-10.353142 -1.42883,-15.817137 -2.58762,-4.751923 -6.71479,-9.408507 -8.93287,-10.078824 -0.98361,-0.297162 -1.52101,0.02193 -2.87779,1.708748 -0.65338,0.812304 -1.37622,1.620753 -1.60629,1.796538 -0.68526,0.522919 -2.89738,0.835803 -5.539,0.782405 -3.78403,-0.07655 -6.30327,0.182649 -11.61438,1.194649 -5.58748,1.064668 -6.13447,1.108298 -6.19892,0.493919 -0.0642,-0.611744 0.61797,-1.450351 3.47893,-4.276831 9.96354,-9.84372 14.07878,-12.079795 19.12588,-10.392525 4.1881,1.400252 9.57353,6.39678 14.04258,13.02852 5.92348,8.789826 6.63442,13.351415 3.13154,20.097204 -0.94152,1.813454 -2.14949,3.800965 -2.23946,3.684703 z"
           fill="#e4e4e4"
           id="path1498"
           style="stroke-width:0.203231" />
        <path
           d="m 82.693972,147.83629 c -0.104932,-0.13559 -0.292279,-1.84146 -0.655608,-5.96969 -0.434246,-4.93435 -1.853479,-10.2895 -3.821474,-14.42064 -0.610012,-1.2804 -1.776282,-3.1518 -3.768192,-6.04643 -1.586642,-2.30569 -3.030796,-4.54167 -3.209314,-4.96897 -1.488747,-3.56367 -1.440299,-6.20356 0.181477,-9.89009 0.307692,-0.69943 0.967106,-2.20007 1.465334,-3.33478 1.054427,-2.40124 1.352804,-4.150272 1.010272,-5.92077 -0.274207,-1.417048 -0.562734,-2.130999 -2.774359,-6.865025 -4.686235,-10.031049 -6.170317,-16.767291 -5.994692,-27.20942 0.08464,-5.028153 0.817169,-10.91284 1.416146,-11.376389 0.245069,-0.189659 0.563021,0.716352 1.378313,3.921626 1.289796,5.073299 1.922329,6.597532 4.567572,11.007329 0.781756,1.303158 1.674732,2.918428 1.984338,3.589421 1.490181,3.229384 3.202388,9.280122 4.65665,16.456008 2.218009,10.945748 2.20459,15.21924 -0.06417,20.3352 -1.777285,4.00695 -1.934259,7.00838 -0.600231,11.47767 0.882537,2.95681 2.113383,5.24698 4.946634,9.20412 1.847657,2.58058 2.541164,3.68016 2.699735,4.28054 0.302973,1.14685 0.0037,3.59573 -1.004736,8.22333 -1.22598,5.62562 -2.002027,8.03926 -2.413752,7.50725 z M 107.21032,82.799267 c -2.99472,1.948486 -4.32251,2.252443 -3.49222,0.799412 0.46603,-0.815564 3.12841,-3.996068 8.27801,-9.88902 6.52312,-7.464754 8.67036,-10.673122 9.15672,-13.680406 0.12543,-0.776504 0.10597,-2.313726 -0.0436,-3.452979 -0.22835,-1.738839 -0.20105,-2.19146 0.17852,-2.954939 0.41565,-0.836149 0.54006,-0.950426 1.71471,-1.575155 1.59033,-0.845815 3.26539,-1.429466 8.55661,-2.981683 8.95814,-2.627806 10.96149,-3.482361 15.59093,-6.649516 1.68432,-1.152343 3.63684,-2.378772 4.3389,-2.725376 2.34288,-1.15669 6.06091,-1.578574 7.60192,-0.86264 0.56396,0.262019 0.58267,0.303971 0.38766,0.869362 -0.17397,0.504403 -0.87383,1.141743 -4.63698,4.222792 -2.43767,1.995817 -5.63711,4.686655 -7.10992,5.979686 -1.47282,1.293022 -6.52923,5.443572 -11.23664,9.223572 -5.40542,4.340493 -10.12506,8.273818 -12.8103,10.676072 -4.41464,3.949349 -13.11321,10.813855 -16.4737,13.000285 z M 105.01194,47.392438 C 103.73368,47.70811 103.2092,47.311408 99.571521,43.277391 96.481984,39.85127 95.236768,38.715463 93.360517,37.6121 90.85575,36.139071 88.723386,35.455827 82.877363,34.253005 77.150739,33.07472 75.322719,32.448417 71.766328,30.446165 68.704543,28.722314 67.568291,28.243289 65.845285,27.94969 c -0.888692,-0.15144 -1.668538,-0.3434 -1.7329,-0.426566 -0.362779,-0.468766 1.542856,-1.950869 3.301577,-2.56779 1.53509,-0.53849 3.41414,-0.770562 5.831904,-0.720316 2.100192,0.04363 21.799626,2.295941 24.565894,2.808461 3.82772,0.709351 6.64197,1.736868 8.37513,3.057796 0.80047,0.6101 2.3989,2.589274 2.78322,3.4462 0.94196,2.100375 0.80718,5.372411 -0.35665,8.657656 -1.13709,3.209657 -2.28442,4.862372 -3.60155,5.187589 z"
           fill="#9a0908"
           id="path1502"
           style="fill:#124205;fill-opacity:1;stroke-width:0.203231" />
        <path
           d="m 86.956859,185.74212 c -0.359,0.0957 -1.151072,0.0707 -1.760107,-0.0554 -1.188125,-0.24608 -1.4944,-0.0202 -0.941442,0.6943 0.189796,0.24525 0.333635,0.53583 0.319607,0.64578 -0.01399,0.10991 -0.91694,0.0474 -2.00647,-0.13899 -2.006242,-0.34319 -2.459025,-0.24319 -1.514602,0.33432 0.895255,0.54749 0.588741,0.9273 -0.556006,0.68912 -2.548031,-0.53018 -2.813595,-0.45764 -3.094875,0.84519 -0.09161,0.42426 -0.198053,0.79574 -0.236542,0.82552 -0.0385,0.0298 -0.345209,-0.50727 -0.681573,-1.19344 -0.664382,-1.35526 -1.199886,-2.01351 -1.53965,-1.89255 -0.119005,0.0424 -0.351503,0.58493 -0.516692,1.20569 l -0.300299,1.12863 -0.192137,-0.90793 c -0.260642,-1.23154 -0.800143,-1.64653 -2.568867,-1.97605 -2.054941,-0.38284 -2.751122,-0.89159 -3.457371,-2.52653 -0.30409,-0.70395 -0.595492,-1.3337 -0.647519,-1.3994 -0.05208,-0.0657 -0.420111,0.13239 -0.817902,0.44024 -0.897154,0.69431 -1.193952,0.43528 -1.043704,-0.91084 0.120726,-1.08162 -0.119301,-1.20943 -0.706941,-0.37644 l -0.420828,0.59652 -0.09558,-1.31648 c -0.08897,-1.22537 -0.126242,-1.31568 -0.537994,-1.30443 -0.337207,0.009 -0.620327,-0.21786 -1.190748,-0.95493 -0.615499,-0.79532 -0.805086,-1.25858 -1.067781,-2.60905 -0.244658,-1.25797 -0.436299,-1.75122 -0.819308,-2.10895 -0.426836,-0.39868 -0.452831,-0.50336 -0.177992,-0.71606 0.559131,-0.43271 0.67653,-0.99055 0.512861,-2.43668 -0.218613,-1.93092 -0.02042,-2.62607 1.427099,-5.0076 0.797833,-1.31262 1.28173,-2.3471 1.330556,-2.84475 0.06669,-0.67907 0.197111,-0.87509 0.991033,-1.48951 1.211841,-0.93784 1.627288,-1.61926 1.191709,-1.9548 -0.387745,-0.29869 -0.311575,-0.37773 0.469517,-0.48726 0.804519,-0.11281 1.194706,-0.45185 1.303125,-1.13231 0.09228,-0.57927 0.09574,-0.58189 1.226134,-0.9275 0.623493,-0.19063 1.327058,-0.33247 1.563615,-0.3153 0.794343,0.0579 0.931394,-0.31688 0.607226,-1.66029 -0.573811,-2.37777 -1.227737,-4.05604 -2.619889,-6.72392 -1.693241,-3.24481 -2.560239,-5.475 -3.012328,-7.74824 -0.412164,-2.07261 -0.466517,-2.88403 -0.520898,-7.77511 -0.07005,-6.30665 -0.727791,-9.27423 -3.712023,-16.74915 -1.278725,-3.20307 -2.273256,-6.17497 -3.421336,-10.2242 -0.890341,-3.13999 -2.279285,-7.905144 -3.086555,-10.589362 -3.492574,-11.613535 -4.653737,-16.797485 -5.073984,-22.648582 -0.289182,-4.028208 -0.103532,-7.059842 0.991974,-16.195553 0.598509,-4.990889 1.345035,-11.357499 1.658663,-14.148213 0.736823,-6.550176 1.443329,-9.47064 3.157242,-13.050222 1.7388,-3.631901 4.393391,-6.852235 6.507984,-7.894898 2.734274,-1.348121 4.961297,-1.333625 12.180017,0.07914 2.259472,0.442153 6.878794,1.146147 10.265135,1.564273 6.411334,0.791724 7.25498,0.956414 14.851079,2.898409 9.855798,2.519291 10.211568,2.647455 12.600418,4.53782 2.20096,1.741693 2.46315,1.866664 3.7955,1.808815 0.6396,-0.02778 1.98463,-0.01101 2.98892,0.03737 1.97113,0.09492 3.08637,-0.06432 5.635,-0.804521 5.78317,-1.679547 10.52673,-1.3976 18.10341,1.075904 3.85406,1.258236 4.62532,1.305637 7.99701,0.491696 3.39859,-0.820456 5.09423,-0.968504 7.10254,-0.620252 3.13244,0.543198 5.22611,1.794087 7.40749,4.425639 0.76815,0.926731 1.49876,1.723134 1.62363,1.769954 0.1249,0.04678 1.01436,-0.06858 1.97669,-0.25638 2.20248,-0.429887 4.13906,-0.185626 6.0777,0.766584 3.03673,1.491599 5.24635,3.700273 8.78467,8.781109 1.31742,1.891717 3.6003,5.155735 5.07301,7.253295 1.47277,2.097643 3.0362,4.49247 3.47424,5.321753 2.68569,5.084326 3.37839,10.865563 1.79574,14.990433 -1.14892,2.995294 -4.05357,6.822256 -7.419,9.774875 -1.38777,1.217537 -2.57395,2.422218 -3.1656,3.21497 -1.23079,1.649114 -3.03184,3.066636 -8.77832,6.909053 -4.31846,2.887584 -4.58579,3.093966 -7.31963,5.651011 -1.56058,1.45966 -3.64905,3.39839 -4.64101,4.30827 -2.08594,1.91331 -8.01056,6.31357 -13.8708,10.30195 -5.90733,4.02045 -8.39495,6.00336 -11.28494,8.99539 -3.03248,3.13961 -5.70405,5.23837 -11.603,9.1152 -5.73069,3.76621 -6.44334,4.24689 -10.48679,7.07319 -6.66425,4.65816 -8.38243,5.14447 -12.29075,3.47823 -2.71502,-1.15735 -5.62198,-3.17064 -10.203309,-7.06646 -2.349684,-1.99814 -3.223769,-2.54363 -3.798574,-2.37066 -0.617483,0.18576 -1.299658,1.34527 -2.008237,3.4135 -1.122709,3.27685 -1.605032,5.69545 -1.873922,9.39545 -0.257226,3.53973 -0.634936,5.45945 -1.380648,7.01587 -0.48535,1.01315 -0.247432,1.52556 0.674731,1.45296 0.333058,-0.0262 0.712323,0.0903 0.842803,0.25887 0.130485,0.16861 0.789486,0.39991 1.464466,0.51404 l 1.2272,0.20745 -0.12659,1.32059 1.14127,0.20467 c 0.973266,0.17456 1.23185,0.31685 1.756484,0.96649 0.429587,0.53198 0.565552,0.84347 0.450763,1.0326 -0.132193,0.21768 0.0157,0.45833 0.754153,1.22707 l 0.918569,0.95624 -0.494966,0.38305 c -0.668572,0.51741 -0.426702,0.74075 1.016305,0.93846 1.158171,0.15866 1.19269,0.1789 0.810198,0.47491 -0.640845,0.49595 -0.768769,1.28323 -0.336825,2.0736 0.282763,0.51759 0.311705,0.7727 0.105642,0.93218 -0.330301,0.25562 -0.278804,0.49258 0.352502,1.62179 0.518088,0.9267 0.473345,1.0557 -0.317086,0.91464 -0.77558,-0.1384 -0.738993,0.24342 0.153195,1.59853 0.963153,1.4629 1.038967,1.85373 0.448345,2.31081 -0.722329,0.55901 -0.817721,0.84429 -0.705831,2.11099 0.0574,0.64973 0.04191,1.22972 -0.03445,1.28881 -0.07638,0.0591 -0.397768,-0.0102 -0.714247,-0.15396 l -0.575404,-0.26141 0.176559,0.5868 c 0.0971,0.32275 0.240573,0.67429 0.318827,0.78121 0.07798,0.10713 -0.05177,0.14218 -0.288921,0.0784 -0.606763,-0.16328 -0.690182,-0.0266 -0.297238,0.48702 0.526855,0.68874 0.475106,1.10997 -0.200695,1.63297 -0.527677,0.40837 -0.569637,0.51766 -0.315885,0.82269 0.160869,0.19352 0.266366,0.37207 0.23435,0.39685 -0.03202,0.0248 -0.568398,0.143 -1.19187,0.26265 -1.262627,0.2423 -1.409427,0.41491 -0.679606,0.79913 0.459361,0.24186 0.464734,0.28389 0.07493,0.58556 -0.230973,0.17875 -1.35888,0.53123 -2.506487,0.78333 -1.980516,0.43505 -2.623732,0.67152 -2.447262,0.89955 0.04314,0.0557 0.614589,0.26087 1.269867,0.4558 0.655295,0.19497 1.186148,0.39526 1.179706,0.44515 -0.0064,0.0499 -0.305457,0.16894 -0.664458,0.2646 z m 2.411903,-3.35509 c -0.607124,-0.60427 -0.151847,-1.20237 0.983369,-1.29172 0.584071,-0.046 0.619282,-0.0732 0.564869,-0.43715 -0.03906,-0.26127 0.14847,-0.54791 0.573856,-0.87712 0.656391,-0.50798 0.657222,-0.55919 0.02734,-1.68866 -0.109499,-0.19632 -0.07611,-0.49525 0.07416,-0.66425 0.15027,-0.169 0.25333,-0.45247 0.229024,-0.62993 -0.05815,-0.4247 0.4445,-0.79942 0.92774,-0.6916 0.328979,0.0734 0.37986,-0.0567 0.353037,-0.90233 -0.03537,-1.11509 0.158661,-1.67581 0.733953,-2.12103 0.478904,-0.37062 0.394084,-0.71037 -0.449465,-1.80036 -0.807689,-1.04366 -0.903418,-1.8877 -0.246718,-2.17524 0.37993,-0.16636 0.413379,-0.28312 0.205267,-0.71649 -0.432016,-0.89957 -0.524042,-1.46103 -0.271529,-1.65645 0.156171,-0.12086 0.127718,-0.3402 -0.07872,-0.60694 -0.19846,-0.25644 -0.271904,-0.73422 -0.190226,-1.23756 0.117112,-0.72198 0.08441,-0.82155 -0.273811,-0.83377 -1.087784,-0.0371 -1.777895,-0.92241 -1.117824,-1.43324 0.517454,-0.40046 0.488569,-0.50903 -0.309657,-1.16412 -0.584018,-0.47928 -0.720463,-0.69398 -0.76002,-1.19589 -0.08136,-1.03324 -0.742119,-1.66972 -1.863314,-1.7949 -1.027879,-0.11473 -1.582776,-0.56174 -1.447917,-1.16643 0.06523,-0.29247 -0.09116,-0.37705 -0.883981,-0.47811 -0.529772,-0.0675 -1.079484,-0.27299 -1.221546,-0.45655 -0.142086,-0.1836 -0.524467,-0.31286 -0.849715,-0.28725 -0.32526,0.0256 -0.708656,-0.0562 -0.851996,-0.18178 -0.174012,-0.15248 -0.419853,-0.10511 -0.739909,0.14259 -0.387098,0.29957 -0.617117,0.30454 -1.195676,0.0259 -0.393999,-0.18978 -0.672529,-0.28818 -0.618951,-0.21867 0.05358,0.0695 -0.107148,0.16092 -0.35717,0.20313 -0.303607,0.0512 -0.581884,-0.0878 -0.83787,-0.41853 -0.321284,-0.41515 -0.424517,-0.44175 -0.638155,-0.16441 -0.150583,0.19547 -0.543605,0.32788 -0.960485,0.32356 -0.38809,-0.004 -0.982609,0.0888 -1.321177,0.20618 -0.524453,0.18187 -0.670924,0.13486 -0.989643,-0.31765 l -0.374043,-0.53114 -0.609754,0.62137 c -0.806408,0.82177 -1.476304,0.92941 -1.952702,0.31383 -0.340211,-0.4396 -0.39417,-0.43967 -0.774452,-0.001 -0.298999,0.34452 -0.650381,0.49248 -1.308169,0.55101 -1.19909,0.10668 -2.482826,0.54805 -2.458972,0.84537 0.04104,0.5108 -0.394908,1.12269 -0.960453,1.34811 -0.442412,0.17637 -0.60664,0.36458 -0.713484,0.81768 -0.09966,0.42272 -0.399223,0.79014 -1.063189,1.30398 -0.783747,0.60654 -0.959796,0.85931 -1.156426,1.66057 -0.12758,0.51981 -0.779386,1.84571 -1.448455,2.94648 -1.338037,2.20133 -1.520709,2.85375 -1.345532,4.8052 0.06494,0.72339 7.14e-4,1.59676 -0.142635,1.94071 -0.155131,0.37213 -0.157078,0.76025 -0.0048,0.95825 0.140829,0.18298 0.407031,1.12577 0.591798,2.09506 0.395294,2.07419 1.202908,3.40137 1.891334,3.10803 0.46668,-0.19888 0.842192,0.23121 0.879135,1.00687 0.02551,0.53553 0.05893,0.56864 0.550439,0.54523 0.698917,-0.0333 0.831122,0.18776 0.795959,1.3309 l -0.02969,0.96514 0.645019,-0.41909 c 0.634601,-0.41232 0.652655,-0.40841 1.118457,0.24246 0.260376,0.36386 0.683728,1.04128 0.940596,1.50539 0.630551,1.13905 1.125073,1.48549 2.460578,1.72408 1.635174,0.29201 2.241509,0.52526 2.612576,1.00474 0.299283,0.38672 0.381081,0.38132 0.917101,-0.0602 l 0.588533,-0.48477 0.884291,1.14264 c 0.883693,1.14186 0.884555,1.14231 1.198401,0.71834 0.415153,-0.56088 0.74126,-0.66368 1.780137,-0.5612 0.713771,0.0704 0.849881,0.0277 0.768986,-0.24119 -0.184655,-0.6138 0.543969,-0.82737 2.102013,-0.61613 0.854755,0.11589 1.589664,0.18314 1.633098,0.14953 0.04343,-0.0336 0.0051,-0.23464 -0.08528,-0.44669 -0.25321,-0.59418 0.121453,-1.00624 0.851354,-0.93631 0.641544,0.0615 0.643117,0.0604 0.475103,-0.33387 -0.29485,-0.69189 0.128304,-0.95748 2.234603,-1.40259 2.194123,-0.46363 2.598828,-0.62289 2.311068,-0.90928 z M 135.8709,124.23472 c 4.95873,-4.78332 6.22569,-5.82177 11.7933,-9.66626 8.6559,-5.97698 12.47384,-8.86339 16.86164,-12.74764 2.8604,-2.532179 5.55673,-4.712737 10.19537,-8.24513 l 6.30609,-4.802166 1.67217,-1.990192 c 0.91968,-1.094599 2.60343,-2.891153 3.74172,-3.992407 3.18233,-3.078754 4.67319,-5.292227 5.78649,-8.591283 2.36435,-7.006198 0.37739,-12.872918 -8.34589,-24.641068 -2.17756,-2.937589 -3.69277,-4.828698 -4.54006,-5.666056 -3.68289,-3.639823 -7.29416,-5.420122 -10.19642,-5.02658 -3.97785,0.539471 -12.56875,6.566657 -19.16322,13.444454 -2.14325,2.235344 -3.26774,3.168587 -9.15457,7.597603 -2.70235,2.033149 -4.75985,3.737749 -7.04645,5.837907 -2.59405,2.382537 -4.30058,3.771565 -8.67153,7.058194 -9.68791,7.284599 -13.62741,10.449078 -18.46216,14.830096 -6.28618,5.696267 -13.132969,11.000313 -17.673397,13.691148 -7.379144,4.37308 -9.436003,6.31106 -10.294612,9.69965 -0.495925,1.95791 -0.145611,5.11259 0.883741,7.95848 1.13848,3.14742 1.278112,3.3602 6.871411,10.47273 l 3.322347,4.22476 2.906157,2.26246 c 7.327076,5.70414 9.282793,6.95608 11.567893,7.40553 2.30002,0.45247 5.33721,-0.53755 9.68603,-3.15718 1.96138,-1.18151 7.67477,-4.95144 10.88476,-7.18219 3.1718,-2.20423 9.26478,-7.03439 11.06932,-8.77511 z m -53.033559,29.30097 c 0.938441,-1.55682 1.35774,-3.20969 1.6774,-6.61185 0.351065,-3.73695 0.740174,-5.58025 2.019573,-9.56652 1.622314,-5.05469 1.649598,-4.86339 -1.205988,-8.44453 -2.656664,-3.33161 -4.883792,-6.69317 -5.755325,-8.68683 -1.838051,-4.20407 -1.866354,-9.3423 -0.06667,-12.11467 1.559355,-2.40214 6.26025,-6.29385 10.067895,-8.334924 4.951589,-2.654139 7.126289,-4.339587 17.108324,-13.259334 5.42413,-4.846932 11,-9.250418 16.98738,-13.415605 4.41802,-3.073427 6.76148,-5.026308 10.29999,-8.583329 2.13477,-2.145879 4.29659,-3.882243 9.04466,-7.26463 3.50404,-2.496166 3.72815,-2.686515 5.81481,-4.938877 4.36924,-4.71618 6.29117,-6.35097 11.77773,-10.017908 1.53708,-1.027318 3.3387,-2.27723 4.00349,-2.777507 1.1588,-0.872023 1.20002,-0.929211 0.996,-1.383316 -0.53191,-1.184063 -3.47676,-3.706829 -5.47201,-4.687756 -2.42905,-1.194127 -4.48649,-1.29601 -9.1721,-0.454275 -3.00015,0.538987 -4.56109,0.682091 -5.60376,0.51366 -0.3824,-0.06176 -2.30211,-0.599738 -4.26595,-1.19544 -6.79211,-2.060304 -10.79503,-2.206268 -18.03504,-0.657609 -3.15194,0.674224 -4.17605,0.796115 -5.6911,0.677347 -1.01613,-0.07966 -2.33182,-0.05188 -2.92374,0.06168 -0.59191,0.11356 -1.22766,0.170165 -1.41271,0.125669 -0.18507,-0.04448 -0.82547,-0.645406 -1.42305,-1.335308 -0.92389,-1.066604 -1.33848,-1.380647 -2.76904,-2.097327 -2.72936,-1.367308 -8.22572,-3.035138 -14.82195,-4.497412 -3.41686,-0.757537 -5.786237,-1.091937 -10.130688,-1.429756 -2.167781,-0.168587 -5.764948,-0.632637 -7.993673,-1.031235 -10.387511,-1.857884 -11.369005,-1.851626 -14.169737,0.09075 -5.110612,3.54432 -8.326285,11.055559 -9.176605,21.433041 -0.117417,1.433576 -0.754863,7.015242 -1.416569,12.403761 -1.567653,12.765296 -1.530609,15.751395 0.306209,24.439957 1.458772,6.899907 6.554186,24.308113 10.336134,35.315303 2.754429,8.01543 3.235885,10.34798 3.541279,17.15637 0.345143,7.68971 0.534325,8.47067 3.535903,14.59724 1.748998,3.56974 2.607722,5.79424 2.702903,7.00174 0.05857,0.74312 0.275994,0.74626 0.530747,0.008 0.240318,-0.69676 0.261006,-0.68302 0.541524,0.35951 0.33409,1.24168 0.590278,1.27532 1.806742,0.23731 1.11224,-0.94907 1.132085,-0.94814 1.519781,0.0691 0.138818,0.36428 0.25761,0.39631 0.709724,0.19118 0.298643,-0.13549 0.812824,-0.22521 1.142629,-0.19939 l 0.599628,0.047 -0.08302,-0.73656 c -0.102994,-0.91367 0.129169,-0.90126 0.867639,0.0464 0.780564,1.00223 1.096653,1.08672 1.654699,0.44379 0.354644,-0.40863 0.441549,-0.44543 0.406723,-0.17219 -0.118555,0.93019 0.582194,0.34605 1.589541,-1.32502 z"
           fill="#060404"
           id="path1506"
           style="stroke-width:0.203231" />
      </g>
    </g>
  </g>
</svg>
