<?xml version="1.0" encoding="UTF-8"?>
<svg width="341.33" height="341.33" version="1.1" viewBox="0 0 341.33 341.33" xmlns="http://www.w3.org/2000/svg" xmlns:cc="http://creativecommons.org/ns#" xmlns:dc="http://purl.org/dc/elements/1.1/" xmlns:rdf="http://www.w3.org/1999/02/22-rdf-syntax-ns#">
 <defs>
  <style>.clsN-1{fill:none;}.clsN-2{fill:#4185BF;}.clsN-3,.clsN-5{fill:#fff;}.clsN-3,.clsN-4{opacity:0.2;}.clsN-6{fill:#1a1a1a;}</style>
  <style>.clsN-1{fill:none;}.clsN-2{fill:#C09526;}.clsN-3,.clsN-5{fill:#fff;}.clsN-3,.clsN-4{opacity:0.2;}.clsN-6{fill:#1a1a1a;}</style>
  <style>.clsN-1{fill:none;}.clsN-2{fill:#4185BF;}.clsN-3,.clsN-5{fill:#fff;}.clsN-3,.clsN-4{opacity:0.2;}.clsN-6{fill:#1a1a1a;}</style>
  <style>.clsN-1{fill:none;}.clsN-2{fill:#C09526;}.clsN-3,.clsN-5{fill:#fff;}.clsN-3,.clsN-4{opacity:0.2;}.clsN-6{fill:#1a1a1a;}</style>
  <style>.clsN-1{fill:none;}.clsN-2{fill:#4185BF;}.clsN-3,.clsN-5{fill:#fff;}.clsN-3,.clsN-4{opacity:0.2;}.clsN-6{fill:#1a1a1a;}</style>
  <style>.clsN-1{fill:none;}.clsN-2{fill:#C09526;}.clsN-3,.clsN-5{fill:#fff;}.clsN-3,.clsN-4{opacity:0.2;}.clsN-6{fill:#1a1a1a;}</style>
 </defs>
 <title>knight</title>
 <metadata>
  <rdf:RDF>
   <cc:Work rdf:about="">
    <dc:format>image/svg+xml</dc:format>
    <dc:type rdf:resource="http://purl.org/dc/dcmitype/StillImage"/>
    <dc:title>knight</dc:title>
   </cc:Work>
  </rdf:RDF>
 </metadata>
 <g transform="matrix(-1 0 0 1 343.17 0)">
  <path d="m49.939 306.68s4e-6 -6.793-0.05462-18.896c-0.03378-7.4844 1.7255-15.468 2.6916-17.78 2.8011-6.7039 9.3119-13.18 17.328-17.236l6.0459-3.2135 0.9456-8.5568c0.46195-4.1802 1.6653-15.291 3.1656-25.079 4.8608-31.714 11.572-55.95 22.686-81.925 3.1377-7.3333 5.6287-15.133 5.5356-17.333s-0.56673-10.555-1.0524-18.567c-1.0687-17.627 0.55945-26.286 6.2383-33.175 3.3728-4.0918 4.9109-4.9244 9.0964-4.9244 2.7705 0 6.9716 0.6743 9.3358 1.4985 3.99 1.3909 4.6266 1.1804 8.8709-2.9333 8.1994-7.9471 17.013-5.0074 27.161 9.0596l4.5993 6.3753 23.401 0.10313c63.258 0.27882 99.666 19.438 99.192 43.562-0.2367 12.041-2.844 37.486-5.9266 45.725-3.626 9.6913-10.91 16.152-19.427 17.233-24.269 3.0783-30.082 4.5588-42.411 10.802-8.4171 4.2623-12.735 7.2358-13.241 9.1174-1.9911 7.4164 0.60728 32.814 4.3303 42.326 0.99834 2.5506 4.162 4.87 11.374 8.339 16.747 8.055 22.176 17.724 22.176 39.496 0 9.4974-0.17649 15.983-0.17649 15.983s-13.29-0.0187-101.39-0.0187c-94.795 0-100.49 0.0175-100.49 0.0175z" fill="#4e9161" stroke="#1a1a1a" stroke-width="1.933"/>
  <path d="m117 118c-27 45.5-34.115 130.27-34.115 130.27s1.2106 0.8844 3.0117 2.1426c0.27182-0.15332 0.56191-0.29487 0.875-0.42187 1.0839-0.66862 2.479-1.1884 4.2363-1.4395 0.91265-0.13037 2.0912-0.31513 3.0371-0.39453 0.26266-0.022 0.70372-0.26811 0.8125-0.0625 0.71192-0.32772 1.4914-0.47624 2.4883-0.43945 0.30429 0.0112 0.62839 0.0386 0.97656 0.082 0.16478 0.0241 0.32769 0.0673 0.49414 0.0723 2.3458 0.075 4.715-0.0422 7.0625-0.0684 1.089 0.014 2.1765 0.01 3.2656 8e-3 0.63404-2e-3 1.2683 7e-5 1.9024 0 0.59561-8e-5 1.1914 0 1.7871 0 0.32211-0.0938 0.66135-0.16652 1.0254-0.20898 1.2554-0.56679 2.0373-0.40321 3.3887-0.33594 0.57743 0.0255 0.73628 0.0503 0.72851 0.0703 0.19076-0.0113 0.18513-0.0163 0.54297-0.0332 0.47789-7e-3 0.95579 4e-3 1.4336 8e-3 0.25733-0.0973 0.60927-0.22555 1.0606-0.39844 0.60861-0.48741 1.3702-0.70895 2.1699-0.75195 0.66695-0.0359 1.3309 0.0539 1.959 0.16992 0.0994-0.0281 1.202-0.0249 1.3262-0.0234 0.65302 5e-3 1.306 2e-3 1.959 2e-3 -0.14505-0.41979-0.26768-0.81158-0.42773-1.2485-28.25-43.25-11-127-11-127zm8.1504 128.27c0.25589 0.0474 0.52482 0.0867 0.75586 0.14258 0.1497 0.0362-0.3012-0.0704-0.45117-0.10547-0.25808-0.0173-0.32879-0.0277-0.30469-0.0371zm-29.482 2.0488c-0.2377 0.0518-0.47903 0.0915-0.7207 0.13086 0.05696 0.25467 0.09497 0.52413 0.125 0.80078h1.2363c-0.06081-0.27069-0.12693-0.54843-0.16016-0.78125-0.02432-0.17044-0.28142-0.13498-0.48047-0.15039z" fill="#050000" fill-opacity=".18937" stop-color="#000000" style="font-variation-settings:normal"/>
  <g fill="#050000" fill-opacity=".13725" stop-color="#000000" style="font-variation-settings:normal">
   <path d="m208.4 199.14s1.2614 24.849 4.6808 48.227c3.3398 22.834 0 0 0 0s-14.659-39.173-56.409-61.77c-7.2299-3.9132 26.775 11.862 26.775 11.862s11.219 0.2473 25.048 0.918z" fill="#050000" fill-opacity=".18937" stop-color="#000000" style="font-variation-settings:normal"/>
  </g>
  <path d="m60.325 268.9s94.949-13.622 181.15-0.37365c113.48 17.44 0 0 0 0s-0.97483-12.523-38.475-18.523-102.5-0.25-116 3-23.089 6.1326-26.676 15.896z" fill="#fff" fill-opacity=".17276" stop-color="#000000" style="font-variation-settings:normal"/>
  <path d="m114.25 71s12.75 7.5 20.5 14.25 11.75 8.75 21.25 8.75 47-9.5 85.75-2.5 42 12.75 42 12.75-2-5.75-25.25-15.5-89.25-10.25-89.25-10.25-8-18-14.25-19.5-6.5-1.25-9.25-0.5-6.75 9.25-13 7-15.5-3-18.5 5.5z" fill="#fff" fill-opacity=".17276" stop-color="#000000" style="font-variation-settings:normal"/>
  <path d="m155.62 184.38s28.381 11.784 62.125 5.75c18.875-3.375 0 0 0 0l-9.25 8.25s-31 1-52.875-14z" fill="#050000" fill-opacity=".18937" stop-color="#000000" style="font-variation-settings:normal"/>
  <path d="m49.939 306.68s0-6.71-0.05463-18.896c-0.03355-7.4844 1.7255-15.468 2.6916-17.78 2.8011-6.7039 9.3119-13.18 17.328-17.236l6.0459-3.2135 0.9456-8.5568c0.46195-4.1802 1.6653-15.291 3.1656-25.079 4.8608-31.714 11.572-55.95 22.686-81.925 3.1377-7.3333 5.6287-15.133 5.5356-17.333s-0.56673-10.555-1.0524-18.567c-1.0687-17.627 0.55945-26.286 6.2383-33.175 3.3728-4.0918 4.9109-4.9244 9.0964-4.9244 2.7705 0 6.9716 0.6743 9.3358 1.4985 3.99 1.3909 4.6266 1.1804 8.8709-2.9333 8.1994-7.9471 17.013-5.0074 27.161 9.0596l4.5993 6.3753 23.401 0.10313c63.258 0.27882 99.666 19.438 99.192 43.562-0.2367 12.041-2.844 37.486-5.9266 45.725-3.626 9.6913-10.91 16.152-19.427 17.233-24.269 3.0783-30.082 4.5588-42.411 10.802-8.4171 4.2623-12.735 7.2358-13.241 9.1174-1.9911 7.4164 0.60728 32.814 4.3303 42.326 0.99834 2.5506 4.162 4.87 11.374 8.339 16.747 8.055 22.176 17.724 22.176 39.496 0 9.4974-0.17649 15.983-0.17649 15.983s-13.29-0.0187-101.39-0.0187c-94.795 0-100.49 0.0175-100.49 0.0175zm195.39-16.52c0-16.183-0.91655-19.21-7.9435-26.237-12.572-12.572-31.405-15.328-96.723-14.152-43.808 0.78821-55.216 2.0999-66.209 7.6125-13.466 6.7524-17.14 12.999-18.121 30.809l-0.03412 13.121 189.03 0.0136zm-133.89-46.564c20.356-1.5087 70.209-2.5868 96.723 0.66984l3.8098 0.46793-0.52155-2.252c-1.6002-6.9096-5.1006-24.694-4.5745-35.084l0.45631-8.1862-7.3333 7.6e-4c-14.076 1e-3 -32.495-4.268-44-13.893-3.8562-3.2261-2.2744-2.6961 9.1088 3.0517 13.288 5.2904 14.7 5.9214 28 6.9119l14.225-0.0439 14.667-8.1623c15.398-8.5694 20.496-10.163 39.872-12.465 6.5296-0.77586 12.978-2.0023 14.329-2.7255 6.6839-3.5771 10.911-22.182 12.731-47.496 0.29229-12.852 1.8612-12.204-6.0653-20.853-9.4434-10.304-27.729-17.126-52.867-21.054-13.677-2.137-55.734-2.1663-68.49-0.04778l-9.8229 1.6315-6.1771-5.7647c-7.3812-6.8884-17.373-11.991-22.326-11.402-2.0441 0.2433-4.7909 2.0472-6.3857 4.1937-2.5224 3.3951-2.7985 5.5657-2.7985 22 0 12.003 0.56125 19.213 1.6425 21.1 1.4176 2.4746 0.93129 4.3913-3.5521 14-14.272 30.588-23.11 65.958-28.553 114.27l-0.28141 4.1591 3.7899-0.67538c2.3242-0.41418 13.091-2.1968 24.394-2.3518zm167.83-115.99c1.0286-5.143 5.3445-10.84 5.3445-6.9609 0 2.6195-3.3531 10.099-4.6008 10.099-0.4395 0-1.2185-0.76419-0.74377-3.1377zm-14.535-1.4041c-3.8385-5.0326-4.3206-7.5408-1.4493-7.5408 1.816 0 8.7147 8.6889 8.7147 10.976 0 2.5793-4.1884 0.59887-7.2655-3.4354zm-82.735-6.9399c-2.2-1.1272-4.7101-2.9835-5.578-4.1253-0.86786-1.1418-2.1764-1.7061-2.9079-1.254-3.1852 1.9686-2.4105-1.808 1.0511-5.1244 4.8032-4.6018 12.744-5.879 18.392-2.9581 6.7279 3.4791 14.762 14.574 8.9342 12.337-1.1596-0.44498-3.3931 0.0908-4.9634 1.1907-3.6638 2.5662-9.844 2.5389-14.928-0.0661zm-15.392-40.138c1.2442-1.1631-4.6042-10.085-9.5249-14.531-6.2754-5.6695-9.1898-5.7758-13.631-0.4971-4.3792 5.2043-4.3371 6.7998 0.2507 9.5099 2.0364 1.2029 4.8644 3.471 6.2845 5.0401 2.2415 2.4769 3.4673 2.7339 9.2974 1.9496 3.6936-0.49688 6.9892-1.1593 7.3237-1.472z" fill="#1a1a1a" stroke-width="1.333"/>
 </g>
</svg>
