<svg width="341.33" height="341.33" version="1.1" viewBox="0 0 341.33 341.33" xmlns="http://www.w3.org/2000/svg">
 <title>knight</title>
 <g transform="matrix(-1 0 0 1 341.33 0)">
  <path d="m48.097 306.68s4e-6 -6.793-0.05462-18.896c-0.03378-7.4844 1.7255-15.468 2.6916-17.78 2.8011-6.7039 9.3119-13.18 17.328-17.236l6.0459-3.2135 0.9456-8.5568c0.46195-4.1802 1.6653-15.291 3.1656-25.079 4.8608-31.714 11.572-55.95 22.686-81.925 3.1377-7.3333 5.6287-15.133 5.5356-17.333s-0.56673-10.555-1.0524-18.567c-1.0687-17.627 0.55945-26.286 6.2383-33.175 3.3728-4.0918 4.9109-4.9244 9.0964-4.9244 2.7705 0 6.9716 0.6743 9.3358 1.4985 3.99 1.3909 4.6266 1.1804 8.8709-2.9333 8.1994-7.9471 17.013-5.0074 27.161 9.0596l4.5993 6.3753 23.401 0.10313c63.258 0.27882 99.666 19.438 99.192 43.562-0.2367 12.041-2.844 37.486-5.9266 45.725-3.626 9.6913-10.91 16.152-19.427 17.233-24.269 3.0783-30.082 4.5588-42.411 10.802-8.4171 4.2623-12.735 7.2358-13.241 9.1174-1.9911 7.4164 0.60728 32.814 4.3303 42.326 0.99834 2.5506 4.162 4.87 11.374 8.339 16.747 8.055 22.176 17.724 22.176 39.496 0 9.4974-0.17649 15.983-0.17649 15.983s-13.29-0.0187-101.39-0.0187c-94.795 0-100.49 0.0175-100.49 0.0175z" color="#000000" color-rendering="auto" dominant-baseline="auto" fill="#f9e29e" image-rendering="auto" shape-rendering="auto" solid-color="#000000" stop-color="#000000" style="font-feature-settings:normal;font-variant-alternates:normal;font-variant-caps:normal;font-variant-east-asian:normal;font-variant-ligatures:normal;font-variant-numeric:normal;font-variant-position:normal;font-variation-settings:normal;inline-size:0;isolation:auto;mix-blend-mode:normal;shape-margin:0;shape-padding:0;text-decoration-color:#000000;text-decoration-line:none;text-decoration-style:solid;text-indent:0;text-orientation:mixed;text-transform:none;white-space:normal"/>
  <path d="m58.483 268.9s94.949-13.622 181.15-0.37365c113.48 17.44 0 0 0 0s-0.97483-12.523-38.475-18.523-102.5-0.25-116 3-23.089 6.1326-26.676 15.896z" fill="#fff" opacity=".2" stop-color="#000000" style="font-variation-settings:normal"/>
  <path d="m112.41 71s12.75 7.5 20.5 14.25 11.75 8.75 21.25 8.75 47-9.5 85.75-2.5 42 12.75 42 12.75-2-5.75-25.25-15.5-89.25-10.25-89.25-10.25-8-18-14.25-19.5-6.5-1.25-9.25-0.5-6.75 9.25-13 7-15.5-3-18.5 5.5z" fill="#fff" opacity=".2" stop-color="#000000" style="font-variation-settings:normal"/>
  <path d="m114.21 117.91c-27 45.5-33.166 130.36-33.166 130.36l0.01754 2.242c0.50384-0.0318 3.5561-0.39431 3.8692-0.52131 14.066-2.2092 27.84-3.7288 41.629-3.7438-20.004-42.5-20.5-82.506-12.209-128.25z" opacity=".19" stop-color="#000000" style="font-variation-settings:normal"/>
  <path d="m153.78 184.38c0.27401 1.6042 4.9452 2.9318 6.7465 4.498 21.511 13.219 38.939 32.961 49.593 55.832 0.508 0.90439 1.4156 4.0716 1.0755 1.2753-0.70592-15.208-4.2293-30.156-4.6068-45.385-0.5698-1.9035 0.74852-2.9569 2.0533-3.9927 2.421-2.1593 4.842-4.3186 7.263-6.4778-20.274 3.5486-41.44 1.516-60.84-5.2554-0.43045-0.15944-0.86041-0.32123-1.2854-0.49456z" opacity=".19" stop-color="#000000" style="font-variation-settings:normal"/>
  <path d="m148.49 53.273c-3.5675-0.08503-7.0324 1.4902-10.232 4.5918-2.1107 2.0458-3.2881 3.0176-4.1621 3.3066s-1.7532 0.09341-3.7188-0.5918c-2.5455-0.88742-6.727-1.5527-9.6543-1.5527-2.1568 0-3.7964 0.22421-5.3125 1.0449-1.516 0.82072-2.8175 2.1557-4.5293 4.2324-5.874 7.1258-7.5305 16.142-6.457 33.848 0.48552 8.0094 0.95916 16.384 1.0508 18.549 0.0145 0.344-0.0985 1.2275-0.35938 2.3457-0.26085 1.1182-0.65436 2.5074-1.1504 4.0605-0.99206 3.1063-2.3908 6.8681-3.9473 10.506-11.144 26.046-17.884 50.385-22.754 82.158-1.5052 9.8198-2.7084 20.943-3.1699 25.119l-0.89062 8.0508-5.5781 2.9648c-8.1978 4.1479-14.862 10.733-17.783 17.725-0.55517 1.3286-1.2171 3.8924-1.7812 7.1582s-1.0016 7.1805-0.98438 11c0.05462 12.101 0.05469 18.891 0.05469 18.891v1.0312l1-0.0645c0.0031-1e-5 5.6919-0.0176 100.46-0.0176 88.1 0 101.39 0.0176 101.39 0.0176l0.94141 2e-3 0.0254-0.94141s0.17773-6.5004 0.17773-16.01c0-10.966-1.3618-19.007-4.9316-25.365-3.5699-6.358-9.3201-10.927-17.793-15.002-7.1598-3.4439-10.074-5.7299-10.893-7.8203-1.7829-4.5552-3.3853-13.279-4.2461-21.693-0.86082-8.4139-0.94738-16.69-0.0508-20.029 0.10712-0.3983 1.1375-1.6511 3.2695-3.1191 2.132-1.4681 5.2874-3.2664 9.4746-5.3867 12.275-6.2157 17.846-7.6292 42.096-10.705 8.9259-1.1329 16.485-7.8964 20.211-17.854 1.6244-4.3416 3.0157-12.735 4.0859-21.66 1.0702-8.9255 1.7829-18.308 1.9023-24.385 0.24664-12.553-9.1184-23.691-26.258-31.619-17.139-7.9278-42.171-12.788-73.896-12.928l-22.91-0.10156-4.3106-5.9766c-5.133-7.1153-9.9656-11.526-14.789-13.135-1.2059-0.40222-2.4066-0.61619-3.5957-0.64453zm-0.7539 6.9648c2.0682 0.07543 4.3662 1.5207 7.5039 4.3555 4.9207 4.446 10.77 13.366 9.5254 14.529-0.33449 0.3127-3.6306 0.97578-7.3242 1.4727-5.8301 0.7843-7.0554 0.52768-9.2969-1.9492-1.4201-1.5691-4.2488-3.8381-6.2852-5.041-4.5878-2.7101-4.6292-4.3055-0.25-9.5098 2.2206-2.6394 4.0588-3.9328 6.127-3.8574zm-25.408 6.6172c5.2059 0.10049 14.42 4.9894 21.34 11.447l6.1758 5.7637 9.8242-1.6309c12.756-2.1185 54.813-2.0901 68.49 0.04687 25.138 3.928 43.424 10.751 52.867 21.055 7.9265 8.649 6.3567 8.0015 6.0644 20.854-1.82 25.314-6.0466 43.919-12.73 47.496-1.351 0.7232-7.8005 1.9488-14.33 2.7246-19.376 2.302-24.473 3.8954-39.871 12.465l-14.668 8.1621-14.225 0.0449c-13.3-0.9905-14.712-1.6217-28-6.9121-11.383-5.7478-12.966-6.2788-9.1094-3.0527 11.505 9.625 29.924 13.896 44 13.895l7.334-2e-3 -0.45703 8.1875c-0.5261 10.39 2.976 28.174 4.5762 35.084l0.52148 2.252-3.8106-0.46876c-26.514-3.2566-76.367-2.1786-96.723-0.66992-11.303 0.15501-22.07 1.9374-24.395 2.3516l-3.7891 0.67578 0.28125-4.1582c5.443-48.312 14.281-83.683 28.553-114.27 4.4834-9.6087 4.9703-11.525 3.5527-14-1.0812-1.887-1.6426-9.0966-1.6426-21.1 0-16.434 0.27448-18.605 2.7969-22 1.5948-2.1465 4.3426-3.9501 6.3867-4.1934 0.30956-0.03681 0.63926-0.05162 0.98632-0.04492zm61.752 37.383c-4.1275 0.0655-8.3554 1.6434-11.357 4.5195-3.4616 3.3164-4.236 7.0936-1.0508 5.125 0.7315-0.4521 2.0403 0.11211 2.9082 1.2539 0.8679 1.1418 3.3781 2.9978 5.5781 4.125 5.084 2.605 11.264 2.6326 14.928 0.0664 1.5703-1.0999 3.8033-1.6364 4.9629-1.1914 5.8278 2.237-2.2057-8.8568-8.9336-12.336-2.118-1.0953-4.5587-1.6018-7.0352-1.5625zm77.363 14.422c-2.8713 0-2.3893 2.5084 1.4492 7.541 3.0771 4.0343 7.2656 6.0148 7.2656 3.4356 0-2.2871-6.8988-10.977-8.7148-10.977zm20.639 0.71289c-1.2621 0.20686-3.8828 4.3752-4.6543 8.2324-0.47473 2.3735 0.30464 3.1387 0.74415 3.1387 1.2477 0 4.5996-7.4801 4.5996-10.1 0-0.96977-0.26876-1.3404-0.68945-1.2715zm-120.87 130.15c47.535-0.0884 63.328 3.3979 74.328 14.398 7.027 7.027 7.9434 10.053 7.9434 26.236v11.166l-189.03-0.0117 0.0332-13.121c0.981-17.81 4.6551-24.058 18.121-30.811 10.993-5.5126 22.401-6.8231 66.209-7.6113 8.1648-0.147 15.604-0.23346 22.395-0.24609z" color="#000000" color-rendering="auto" dominant-baseline="auto" fill="#1a1a1a" image-rendering="auto" shape-rendering="auto" solid-color="#000000" stop-color="#000000" style="font-feature-settings:normal;font-variant-alternates:normal;font-variant-caps:normal;font-variant-east-asian:normal;font-variant-ligatures:normal;font-variant-numeric:normal;font-variant-position:normal;font-variation-settings:normal;inline-size:0;isolation:auto;mix-blend-mode:normal;shape-margin:0;shape-padding:0;text-decoration-color:#000000;text-decoration-line:none;text-decoration-style:solid;text-indent:0;text-orientation:mixed;text-transform:none;white-space:normal"/>
 </g>
</svg>
