<?xml version="1.0" encoding="UTF-8"?>
<svg width="300" height="300" version="1.1" viewBox="0 0 300 300" xmlns="http://www.w3.org/2000/svg">
 <path d="m29.207 239.44c17.017-10.599 38.116-10.845 59.293-5.4866 28.014 7.2809 37.737-5.3356 39.943-8.8454-8.2584-1.9573-29.443-7.2181-29.443-8.156 0-0.40205 3.6038-8.8981 7.6157-18.983l7.3428-18.458-6.5405-4.0817c-6.3934-3.9899-13.673-10.249-17.054-17.04-6.6925-13.444-7.3675-31.341 1.4762-47.39 3.941-7.1519 10.067-12.62 20.629-20.901 6.5758-5.1558 13.524-11.299 17.419-15.104l8.3064-8.3923-3.4928-3.6472c-8.6539-9.0364-5.3187-30.299 14.034-30.955 11.143-0.37763 19.264 7.7447 19.264 18.385 0 5.7507-1.3883 9.3532-5.0798 13.181l-2.9571 3.0666 7.7684 7.8008c4.2726 4.2904 12.444 11.431 18.158 15.867 12.884 10.003 17.128 14.379 21.007 21.657 7.8338 14.698 8.0962 32.359 0.69547 46.809-2.9682 5.7954-9.0898 11.794-17.243 16.896l-6.1504 3.849 7.4004 18.467c4.0702 10.157 7.4004 18.751 7.4004 19.098 0 0.34691-3.2625 1.5802-7.25 2.7406-9.4681 2.6256-13.993 3.588-22.036 5.2914l0.0172 0.031c3.1559 5.6787 15.669 11.859 20.827 11.859 2.2914 0 9.6695-1.1208 16.396-2.4908 19.51-3.9735 28.811-4.8316 37.776-3.4849 8.2438 1.2384 18.772 4.1331 24.221 8.4174l-14.414 29.038s-4.1872-2.4759-8.0372-3.8816c-9.2604-3.3812-18.133-3.3682-36.087 0.0529-17.786 3.389-30.73 3.6208-38.063 0.68159-11.413-4.5748-21.287-15.707-23.406-23.617l0.0597 0.11302c-2.5009 8.0629-10.379 17.863-22.955 23.397-5.818 2.56-16.967 3.2544-34.723-0.11183-22.333-4.2342-29.51-3.9519-39.279-0.62923-4.0169 1.3662-8.4261 3.9968-8.4261 3.9968z" fill="#fafafa"/>
 <path d="m29.207 239.44c17.017-10.599 38.116-10.845 59.293-5.4866 28.014 7.2809 37.737-5.3356 39.943-8.8454-8.2584-1.9573-29.443-7.2181-29.443-8.156 0-0.40205 3.6038-8.8981 7.6157-18.983l7.3428-18.458-6.5405-4.0817c-6.3934-3.9899-13.673-10.249-17.054-17.04-6.6925-13.444-7.3675-31.341 1.4762-47.39 3.941-7.1519 10.067-12.62 20.629-20.901 6.5758-5.1558 13.524-11.299 17.419-15.104l8.3064-8.3923-3.4928-3.6472c-8.6539-9.0364-5.3187-30.299 14.034-30.955 11.143-0.37763 19.264 7.7447 19.264 18.385 0 5.7507-1.3883 9.3532-5.0798 13.181l-2.9571 3.0666 7.7684 7.8008c4.2726 4.2904 12.444 11.431 18.158 15.867 12.884 10.003 17.128 14.379 21.007 21.657 7.8338 14.698 8.0962 32.359 0.69547 46.809-2.9682 5.7954-9.0898 11.794-17.243 16.896l-6.1504 3.849 7.4004 18.467c4.0702 10.157 7.4004 18.751 7.4004 19.098 0 0.34691-3.2625 1.5802-7.25 2.7406-9.4681 2.6256-13.993 3.588-22.036 5.2914l0.0172 0.031c3.1559 5.6787 15.669 11.859 20.827 11.859 2.2914 0 9.6695-1.1208 16.396-2.4908 19.51-3.9735 28.811-4.8316 37.776-3.4849 8.2438 1.2384 18.772 4.1331 24.221 8.4174l-14.414 29.038s-4.1872-2.4759-8.0372-3.8816c-9.2604-3.3812-18.133-3.3682-36.087 0.0529-17.786 3.389-30.73 3.6208-38.063 0.68159-11.413-4.5748-21.287-15.707-23.406-23.617l0.0597 0.11302c-2.5009 8.0629-10.379 17.863-22.955 23.397-5.818 2.56-16.967 3.2544-34.723-0.11183-22.333-4.2342-29.51-3.9519-39.279-0.62923-4.0169 1.3662-8.4261 3.9968-8.4261 3.9968zm92.882-29.987c14.001-2.1534 44.459-2.1672 56.865 0.46609 5.1992 1.1037 9.7924 1.6674 9.7924 1.6674l-4.5112-11.307c-17.269-4.2752-55.487-3.7574-70.311 7e-4l-4.5117 11.307s5.4182-1.0175 12.677-2.1339zm56.649-22.858-3.5209-9.3403c-13.298-1.7614-39.127-1.5583-52.275 3.6e-4l-3.5195 9.3398c25.173-2.5211 34.579-2.521 59.316 3e-5zm-29.668-35.691c4.9307 0 4.9307-4.8838 4.9307-4.8838v-12.554h12.965s5.1788-0.0164 5.1984-4.9694c0.022-5.5358-5.1984-5.5193-5.1984-5.5193h-12.965v-12.101s0-4.8116-4.9307-4.8116c-4.851 0-4.851 4.8116-4.851 4.8116l2.4e-4 12.101h-13.224s-5.0004 0-5.0004 5.5065c0 4.9821 4.9541 4.9821 4.9541 4.9821l13.27-1e-5 -2.4e-4 12.554s0 4.8837 4.8512 4.8837z" fill="#050505"/>
</svg>
