<?xml version="1.0" encoding="UTF-8"?>
<svg width="300" height="300" version="1.1" viewBox="0 0 300 300" xmlns="http://www.w3.org/2000/svg">
 <path d="m128.5 267.39c-28.913-2.2724-57.088-8.5757-61.365-13.728-0.62976-0.75881-0.24805-6.8778 1.0959-17.567 1.9987-15.897 2.008-16.632 0.30287-23.865-3.3691-14.291-3.0844-13.78-11.003-19.74-4.0644-3.0589-10.698-9.0781-14.741-13.376-11.944-12.697-17.034-24.598-17.157-40.115-0.12562-15.902 4.681-28.087 15.636-39.636 11.245-11.855 24.931-17.715 41.231-17.657 18.431 0.91707 28.984 4.542 42.044 15.473v-2.6118c0-7.2413 8.7998-17.207 15.826-19.526l3.6307-1.1982v-20.761l-9.7438-0.08246c-1.8467-0.01563-6.1594 0.08246-6.1226-4.2844 0.0397-4.7172 4.2879-4.7764 6.1607-4.7668l9.7057 0.04955v-9.0566c0-1.842 7.8e-4 -6.9434 5.0013-6.855 4.9987 0.08839 4.9987 5.0513 4.9987 6.8217v9.0899l9.6784 0.03661c2.3803 9e-3 6.1839-0.03661 6.1966 4.5409 0.0125 4.5066-3.8643 4.5208-6.2571 4.518l-9.6179-0.01142 0.21687 10.498-0.28312 10.082 3.8283 1.147c7.778 2.3304 16.363 12.477 16.363 19.49 4e-5 1.3357 4e-5 1.8641-1e-3 2.903 13.368-10.934 22.2-13.776 34.582-15.107 34.769-4.3597 64.294 21.542 64.294 56.404 0 19.462-8.7429 35.365-27.79 50.548-4.2407 3.3805-8.6199 6.9102-9.7316 7.8437-1.3662 1.1473-2.8074 5.0278-4.4475 11.976l-2.2697 9.9378 1.774 14.011c0.97567 7.7061 2.0143 15.492 2.3081 17.302 0.51564 3.1776 0.18 3.7251-5.336 6.3346-6.8203 3.2265-22.51 6.8767-39.008 9.075-11.453 1.5261-49.326 2.7022-60 1.8633z" fill="#fafafa"/>
 <path d="m128.5 267.39c-28.913-2.2724-57.088-8.5757-61.365-13.728-0.62976-0.75881-0.24805-6.8778 1.0959-17.567 1.9987-15.897 2.008-16.632 0.30287-23.865-3.3691-14.291-3.0844-13.78-11.003-19.74-4.0644-3.0589-10.698-9.0781-14.741-13.376-11.944-12.697-17.034-24.598-17.157-40.115-0.12562-15.902 4.681-28.087 15.636-39.636 11.245-11.855 24.931-17.715 41.231-17.657 18.431 0.91707 28.984 4.542 42.044 15.473v-2.6118c0-7.2413 8.7998-17.207 15.826-19.526l3.6307-1.1982v-20.761l-9.7438-0.08246c-1.8467-0.01563-6.1594 0.08246-6.1226-4.2844 0.0397-4.7172 4.2879-4.7764 6.1607-4.7668l9.7057 0.04955v-9.0566c0-1.842 7.8e-4 -6.9434 5.0013-6.855 4.9987 0.08839 4.9987 5.0513 4.9987 6.8217v9.0899l9.6784 0.03661c2.3803 9e-3 6.1839-0.03661 6.1966 4.5409 0.0125 4.5066-3.8643 4.5208-6.2571 4.518l-9.6179-0.01142 0.21687 10.498-0.28312 10.082 3.8283 1.147c7.778 2.3304 16.363 12.477 16.363 19.49 4e-5 1.3357 4e-5 1.8641-1e-3 2.903 13.368-10.934 22.2-13.776 34.582-15.107 34.769-4.3597 64.294 21.542 64.294 56.404 0 19.462-8.7429 35.365-27.79 50.548-4.2407 3.3805-8.6199 6.9102-9.7316 7.8437-1.3662 1.1473-2.8074 5.0278-4.4475 11.976l-2.2697 9.9378 1.774 14.011c0.97567 7.7061 2.0143 15.492 2.3081 17.302 0.51564 3.1776 0.18 3.7251-5.336 6.3346-6.8203 3.2265-22.51 6.8767-39.008 9.075-11.453 1.5261-49.326 2.7022-60 1.8633zm94.782-29.924c-0.97431-0.2614-20.756-5.437-33.313-7.7557-20.713-3.8249-48.099-4.0401-66.123-1.9778-13.538 1.5491-32.274 4.9445-42.347 8.0143l-6.1235 1.8651c-0.35064 3.4748-0.69086 6.9554-0.94122 10.439 4.4075-1.0801 6.3762-1.5224 8.9416-2.1567 46.691-11.52 86.955-11.605 131.37 0.0501 5.3637 1.555 9.0288 2.5408 10.087 2.9066-0.4373-3.6116-1.5525-11.385-1.5525-11.385zm-2.1068-18.703 2.2334-10.355-10.06-2.2485c-38.564-8.6194-82.804-9.4671-123.31-1.0031l-14.91 3.1276 2.2743 10.293c1.0973-0.24475 7.7247-1.6776 14.6-3.0104 21.056-4.0822 32.057-5.4867 57.75-5.4914 26.343-5e-3 42.105 1.9529 60.75 6.2352 10.676 2.452 8.4106 1.9245 10.676 2.452zm-121.09-33.167c15.07-2.1582 29.839-3.5405 38.167-3.5723l6.75-0.0258v-25.563l-7.5859-20.393c-8.021-21.563-11.025-25.617-19.477-33.442-9.7952-9.0686-21.719-13.602-35.776-13.602-13.628 0-24.883 4.7042-34.67 14.491-9.8691 9.8691-14.502 21.059-14.479 34.969 0.0299 17.736 8.3441 32.023 27.045 46.476l8.7482 6.7611 9.9304-2.2321c5.4617-1.2277 15.068-2.9679 21.348-3.8672zm-37.686-9.5153c-8.3507-6.9212-13.273-12.68-16.743-19.59-14.928-29.722 10.641-64.031 43.657-58.579 10.077 1.6641 18.227 5.8714 24.875 12.841 6.6827 7.0061 7.918 9.768 16.436 31.018 5.8787 14.665 5.9564 15.852 5.918 23.692l-0.0393 8.0357-5.5 0.25941c-10.801 0.50943-33.707 3.3943-46 5.7934-6.875 1.3417-13.175 2.4344-14 2.4282-0.825-6e-3 -4.6963-2.6604-8.6028-5.8982zm185.71-0.0761c11.353-11.237 15.288-18.328 17.111-30.832 2.9334-20.126-7.3346-40.588-25.114-50.046-8.3228-4.4276-14.931-6.1019-24.141-6.1164-12.426-0.01956-22.206 3.2919-32.57 11.028-8.9546 6.6837-13.285 13.722-22.225 36.122l-7.7901 20.276v25.563l13.388 0.37745c6.8669 0.1936 17.707 1.3365 24.105 2.1551 11.193 1.4321 37.225 6.2404 38.016 7.0216 0.89722 0.88695 10.308-6.7253 19.222-15.547zm-30.097 4.4291c-8.8521-1.4486-33.131-5.4324-45.076-6.1159l-10.927-0.81988-5e-3 -8.0671c-5e-3 -7.8785 0.33046-9.103 7.1279-26.411 8.3734-21.321 12.723-28.03 22.102-34.092 13.57-8.7709 29.71-9.9382 43.571-3.1512 7.472 3.6587 14.876 11.307 18.558 19.17 4.1104 8.7783 4.9016 21.579 1.8566 30.215-3.2833 9.3127-12.635 20.797-25.933 31.134-0.19786 0.15381-1.5699-0.27419-11.274-1.8623zm-60.082-58.31c8.9439-22.548 9.6534-26.487 5.8006-32.204-3.5556-5.2761-8.222-7.9217-13.973-7.9217-6.5056 0-11.332 2.406-14.535 7.2461-4.1842 6.3228-3.5522 10.467 4.7668 31.254 3.962 9.9 7.6237 19.075 8.1371 20.389s1.1125 2.2098 1.3311 1.9911c0.21867-0.21868 4.0311-9.5579 8.472-20.754zm-9.7931-3.2372c-0.50793-1.3138-2.3205-5.8879-4.028-10.165-3.0515-8.0721-4.0835-16.21 4.9681-16.724 4.9588 0 7.9274 2.7358 7.9274 7.3057 0 2.6555-6.1043 20.059-7.5701 21.583-0.20567 0.21378-0.78952-0.68622-1.2974-2z" fill="#050505"/>
</svg>
