<?xml version="1.0" encoding="UTF-8"?>
<svg width="300" height="300" version="1.1" viewBox="0 0 300 300" xmlns="http://www.w3.org/2000/svg">
 <g>
  <path d="m74.223 29.297c-1.1975-0.08485-1.2188 1.3394-1.2188 8.5117 0 9.271 1.9754 22.02 4.5352 29.275l1.4707 4.1719-3.7871 4.1152c-9.4869 10.307-13.129 17.091-14.086 30.283-1.063 9.713-5.0129 17.842-20.42 42.016-12.405 19.464-13.137 21.307-12.449 31.334 0.942 13.741 7.9146 24.403 19.852 30.352l5.1191 2.5508 7.6289-3.8926 5.3184 2.4766c7.6288 3.2858 13.691 3.3385 17.645-0.49609 5.9311-4.296 11.846-11.384 14.564-19.578 1.9977-6.3381 6.3476-11.761 11.514-14.352 1.977-0.9915 8.0957-3.2779 13.596-5.0801 11.608-3.8032 16.547-6.1239 21.74-10.211l3.7422-2.9434-0.63086 4.8281c-1.941 14.863-6.3142 21.945-26.533 42.98-15.654 16.286-19.942 22.719-24.652 36.965-2.2716 6.87-2.9617 17.933-2.9617 22.385v3.0551l176.8-0.061v-27.301c0-50.668-3.9196-78.925-14.559-104.98-14.186-34.739-32.893-56.074-60.709-69.229-14.903-7.0483-25.084-9.6322-40.285-10.227l-13.055-0.51172-3.3711-6.5039c-3.265-6.295-10.922-15.052-15.131-17.305-1.8019-0.9644-2.7567-0.38328-7.7676 4.7285-3.1425 3.2058-6.3839 6.8948-7.2031 8.1973l-1.4902 2.3672-8.7129-5.6797c-8.011-5.2213-17.92-10.287-23.467-11.996-0.41578-0.12814-0.75491-0.22847-1.0312-0.24805z" fill="#fafafa"/>
  <path d="m74.223 29.297c-1.1975-0.08485-1.2188 1.3394-1.2188 8.5117 0 9.271 1.9754 22.02 4.5352 29.275l1.4707 4.1719-3.7871 4.1152c-9.4869 10.307-13.129 17.091-14.086 30.283-1.063 9.713-5.0129 17.842-20.42 42.016-12.405 19.464-13.137 21.307-12.449 31.334 0.942 13.741 7.9146 24.403 19.852 30.352l5.1191 2.5508 7.6289-3.8926 5.3184 2.4766c7.6288 3.2858 13.691 3.3385 17.645-0.49609 5.9311-4.296 11.846-11.384 14.564-19.578 1.9977-6.3381 6.3476-11.761 11.514-14.352 1.977-0.9915 8.0957-3.2779 13.596-5.0801 11.608-3.8032 16.547-6.1239 21.74-10.211l3.7422-2.9434-0.63086 4.8281c-1.941 14.863-6.3142 21.945-26.533 42.98-15.654 16.286-19.942 22.719-24.652 36.965-2.2716 6.87-2.9617 17.933-2.9617 22.385v3.0551l176.8-0.061v-27.301c0-50.668-3.9196-78.925-14.559-104.98-14.186-34.739-32.893-56.074-60.709-69.229-14.903-7.0483-25.084-9.6322-40.285-10.227l-13.055-0.51172-3.3711-6.5039c-3.265-6.295-10.922-15.052-15.131-17.305-1.8019-0.9644-2.7567-0.38328-7.7676 4.7285-3.1425 3.2058-6.3839 6.8948-7.2031 8.1973l-1.4902 2.3672-8.7129-5.6797c-8.011-5.2213-17.92-10.287-23.467-11.996-0.41578-0.12814-0.75491-0.22847-1.0312-0.24805zm75.146 37.691c5.551 0 20.612 2.5732 27.131 4.6348 9.618 3.043 25.019 11.303 33.012 17.707 31.153 24.95 45.488 69.758 45.488 142.16 0 10.569-0.28696 21.304-0.63671 23.855l-0.63672 4.6406h-17.896l0.68164-22.25c2.321-75.663-9.9693-122.25-37.822-143.36-11.976-9.0779-29.1-15.527-45.074-16.975l-6.0479-0.71729-0.59961-3.6211c-0.9971-6.0286-2.2863-6.0756 2.4014-6.0756zm-45.35 21.074c2.2946 0 4.2596 2.5159 3.7109 4.7715-0.37583 1.545-0.87328 2.0239-5.6367 4.752-0.771 0.59242-1.4909 1.1914-2.1758 1.7988 0.017 0.0097 0.0339 0.0193 0.0508 0.0293 4.0471 2.3211 5.6079 7.2774 3.4863 11.07-2.1214 3.7933-7.1224 4.9869-11.17 2.666-0.8979-0.51508-1.7016-1.1804-2.3711-1.9629-0.60095 0.80798-1.1693 1.5815-1.8223 2.4336-2.0528 1.9723-4.7104 1.5154-6.0547-0.0449-1.6777-2.1837-0.93325-5.089 3.7188-11.617 5.4652-7.6692 14.887-13.896 18.264-13.896zm54.669 23.894c0.55692 3e-4 2.422 0.0881 3.5604 1.4248 1.4637 1.753 1.0455 16.56-1.7108 24.776-1.1673 3.4797-2.8284 7.1137-3.6914 8.0762-1.9569 2.1825-4.605 2.2454-6.3438 0.15039-1.1188-1.3481-0.9509-2.6448 1.0586-8.248 1.4915-4.159 2.5983-9.9832 2.9551-15.547 0.4472-6.973 0.94862-9.1345 2.3203-9.9961 0.63615-0.39936 1.2947-0.63646 1.8516-0.63616zm-102.91 55.464c1.2586-0.15625 5.2368 1.6968 5.2212 5.67-0.01 2.4897-0.60706 3.2494-3.6934 4.539-4.6264 1.9333-9.5733 2.7648-10.557 1.7754-1.5828-1.7589-0.47093-5.2193 2.9922-8.5469 2.2017-2.1156 4.9742-3.2812 6.0371-3.4375zm23.407 16.981c0.69242-0.0671 1.2955 0.32252 2.252 0.94922 1.4096 0.9236 2.5625 2.3082 2.5625 3.0762 0 0.7679-2.2944 3.9073-5.0996 6.9766-3.8099 4.1687-5.7925 5.5801-7.834 5.5801-6.1944 0-5.5193-4.1242 1.8711-11.438 3.6927-3.6541 5.094-5.0328 6.248-5.1445z" fill="#050505"/>
 </g>
</svg>
