<?xml version="1.0" encoding="UTF-8"?>
<svg width="300" height="300" version="1.1" viewBox="0 0 300 300" xmlns="http://www.w3.org/2000/svg">
 <path d="m149.9 43.879c-17.262 0.0075-31.252 13.743-31.252 30.686 1e-4 7.3257 2.6706 14.41 7.5286 19.971-15.736 7.947-25.519 23.164-25.52 39.695-2.4e-4 10.543 3.9941 20.755 11.294 28.875-6.8898 3.9085-14.12 9.4763-21.995 18.694-26.638 31.179-24.511 86.123-24.511 86.123h169.03s3.2142-52.771-23.707-85.587c-7.3802-8.9958-15.48-15.016-23.288-19.04 7.4068-8.1482 11.466-18.437 11.466-29.065-7.1e-4 -16.473-9.7155-31.646-25.366-39.617 4.9012-5.5723 7.5982-12.689 7.5988-20.049 5e-5 -16.947-13.998-30.686-31.266-30.686h-0.0137z" fill="#050505" stroke-width="0"/>
</svg>
