<?xml version="1.0" encoding="UTF-8"?>
<svg width="300" height="300" version="1.1" viewBox="0 0 300 300" xmlns="http://www.w3.org/2000/svg">
 <g>
  <path d="m149.84 27.246c-10.432 0.08566-18.844 8.5672-18.844 19 3.4e-4 8.2985 5.3863 15.637 13.303 18.125l-15.281 78.625-26.842-73.682c6.0837-3.3348 9.8661-9.7203 9.8672-16.658 0-10.493-8.5066-19-19-19s-19 8.5066-19 19c0.0011 9.572 7.1225 17.648 16.619 18.848l-0.04687 0.32617-2 78.061-37.83-61.951c4.6832-3.5955 7.4288-9.1638 7.4297-15.068 0-10.493-8.5066-19-19-19s-19 8.5066-19 19 8.5066 19 19 19c0.20187-6.9e-4 0.40372-0.0046 0.60547-0.01172l20.021 96.641 5.0078 8.6055c4.7765 8.208 4.8253 8.3593 5.3398 12.424l1.8066 14.277-2.041 5.3457c-1.1223 2.9408-3.5551 9.5249-5.4082 14.631l-3.3691 9.2832 3.2188 1.9824c8.2222 5.063 33.276 10.257 57.219 11.859 44.02 2.9468 93.16-1.6922 111.25-10.5 2.8875-1.4059 5.25-3.1552 5.25-3.8887l-10.324-28.76 1.9805-14.594c0.51833-3.8184 0.6714-4.3386 5.1562-12.176l5.0606-8.8438 9.9316-47.762 9.9277-48.424c0.31876 0.01585 0.63787 0.02367 0.95703 0.02344 10.493 0 19-8.5066 19-19s-8.5066-19-19-19-19 8.5066-19 19c-4.4e-4 6.0219 2.8538 11.687 7.6934 15.271-14.089 22.801-38.234 60.527-38.234 60.527l-3.3145-77.197c10.113-0.50468 18.053-8.8514 18.053-18.977 0-10.493-8.5066-19-19-19s-19 8.5066-19 19c-8e-5 6.9045 3.7455 13.266 9.7832 16.615l-26.629 74.014-15.787-78.77c8.0796-2.3821 13.626-9.7995 13.627-18.223 0-10.493-8.5066-19-19-19-0.0521-2.14e-4 -0.10417-2.14e-4 -0.15625 0z" fill="#fafafa"/>
  <path d="m149.84 27.246a19 19 0 0 0-18.844 19 19 19 0 0 0 13.303 18.125l-15.281 78.625-26.842-73.682a19 19 0 0 0 9.8672-16.658 19 19 0 0 0-19-19 19 19 0 0 0-19 19 19 19 0 0 0 16.619 18.848l-0.04687 0.32617-2 78.061-37.83-61.951a19 19 0 0 0 7.4297-15.068 19 19 0 0 0-19-19 19 19 0 0 0-19 19 19 19 0 0 0 19 19 19 19 0 0 0 0.60547-0.01172l20.021 96.641 5.0078 8.6055c4.7765 8.208 4.8253 8.3593 5.3398 12.424l1.8066 14.277-2.041 5.3457c-1.1223 2.9408-3.5551 9.5249-5.4082 14.631l-3.3691 9.2832 3.2188 1.9824c8.2222 5.063 33.276 10.257 57.219 11.859 44.02 2.9468 93.16-1.6922 111.25-10.5 2.8875-1.4059 5.25-3.1552 5.25-3.8887l-10.324-28.76 1.9805-14.594c0.51833-3.8184 0.6714-4.3386 5.1562-12.176l5.0606-8.8438 9.9316-47.762 9.9277-48.424a19 19 0 0 0 0.95703 0.02344 19 19 0 0 0 19-19 19 19 0 0 0-19-19 19 19 0 0 0-19 19 19 19 0 0 0 7.6934 15.271c-14.089 22.801-38.234 60.527-38.234 60.527l-3.3145-77.197a19 19 0 0 0 18.053-18.977 19 19 0 0 0-19-19 19 19 0 0 0-19 19 19 19 0 0 0 9.7832 16.615l-26.629 74.014-15.787-78.77a19 19 0 0 0 13.627-18.223 19 19 0 0 0-19-19 19 19 0 0 0-0.15625 0zm-2.6914 156.71c21.228-0.16256 42.554 1.6797 61.166 5.4902 6.765 1.385 13.605 3.3498 15.656 4.0332l3.4356 1.1445-4.5547 8.6484c-0.92848-0.15543-5.1579-1.0822-9.7988-2.1562-36.261-8.3917-90.078-8.4201-125.77-0.0664-4.5809 1.0722-10.375 2.3223-10.375 2.3223l-4.998-8.7481s16.241-4.7634 27.203-6.6328c15.071-2.5702 31.522-3.9087 48.033-4.0352zm3.3145 21.934c21.676-0.0354 43.528 2.1218 62.902 6.7617l7.9863 1.9121-1.3965 10.357c-13.859-2.3453-39.706-7.3136-69.34-7.3457-18.454 5e-3 -45.153 1.3416-70.943 7.3457l-1.3418-10.471s3.9549-0.76298 10.285-2.1641c18.671-4.1325 40.171-6.3611 61.848-6.3965zm-0.63868 23.807c23.604-0.0202 47.201 2.6953 74.846 8.2109l4.0566 11.176c-50.257-9.9808-106.13-10.905-158.25 1.0312 1.4671-4.0775 4.4472-12.214 4.4609-12.211 27.67-5.4308 51.28-8.1868 74.885-8.207z" fill="#050505"/>
 </g>
</svg>
