<?xml version="1.0" encoding="UTF-8"?>
<svg width="300" height="300" version="1.1" viewBox="0 0 300 300" xmlns="http://www.w3.org/2000/svg">
 <path d="m57 236.07 20.987-0.0554v-16.515l23.036-23.053-0.52281-81.67-29.5-18.123v-50.655h37v18h23v-18h38v18h23v-18h37v50.829l-30 18.341v81.362l23.5 22.967v16.515h20.5v31.985h-186z" fill="#fafafa"/>
 <path d="m57 236.07 20.987-0.0554v-16.515l23.036-23.053-0.52281-81.67-29.5-18.123v-50.655h37v18h23v-18h38v18h23v-18h37v50.829l-30 18.341v81.362l23.5 22.967v16.515h20.5v31.985h-186zm158.1-11.07h-130.1v11.015s86.737-0.18074 130.1 0zm-23.536-26h-83l-11.144 11h105.01zm0.43168-86h-83v10h83zm28-31h-142l-0.01327 11h142.01z" fill="#050505"/>
</svg>
