<?xml version="1.0" encoding="UTF-8"?>
<svg width="300" height="300" version="1.1" viewBox="0 0 300 300" xmlns="http://www.w3.org/2000/svg">
 <path d="m150.35 31.594c-5.1022 0-7.6125 0.97894-10.318 2.6914-10.283 6.5079-11.631 19.558-3.7598 28.523l2.8652 3.2637-8.0439 8.4285c-4.5214 4.4654-13.186 11.636-19.038 16.314-10.477 8.3736-16.985 14.912-20.85 21.928-6.9448 11.898-8.6208 40.634 6.3926 53.734 5.494 5.3267 10.827 8.4983 17.328 12.84l-7.3652 18.191c-4.0507 10.006-7.7757 18.911-7.6796 19.339 10.168 4.5523 23.171 6.2809 29.428 8.0342 0.14316 0.13144-7.2457 7.5737-11.614 9.5975-5.6116 2.6001-11.986 2.3514-28.586-1.1094-22.608-4.6801-41.446-4.8447-58.986 5.8369l14.413 29.04c16.35-10.113 33.172-5.72 43.343-4.189 9.5315 1.8501 17.166 3.2273 24.754 3.0938 8.9593-0.15765 11.63-0.76484 16.562-3.1057 9.7493-5.2571 17.122-12.185 20.724-22.452 2.9108 8.5439 10.194 16.031 17.621 20.632 8.2707 5.1238 16.266 5.1502 23.025 4.8728 4.4721-0.29917 14.26-1.5318 21.859-2.956 17.722-3.3216 24.639-3.1476 34.49 0.15917 4.2129 1.4142 8.5388 3.9432 8.5388 3.9432l14.414-29.038c0-1.0284-9.2958-5.2841-17.215-7.1022-9.661-2.2178-19.309-3.314-40.552 1.2302-8.4443 1.8064-17.69 3.3887-20.404 3.3907-5.6746-0.30436-11.605-3.5018-17.423-7.8078-1.3858-1.22-2.6272-2.2437-3.6429-4.0426 7.049-1.5187 23.654-4.8602 29.313-7.965 0.15315-0.1831-1.3865-4.4801-7.3134-19.044-4.2155-10.358-7.5-18.578-7.5-18.578 2.2435-1.3696 13.32-7.8266 18.114-13.371 3.8044-4.4009 6.1478-7.7988 8.8127-16.346 3.6166-11.6 1.7987-25.072-3.6462-36.912-3.2335-7.0312-8.7346-12.989-20.829-22.326-5.6204-4.3387-13.928-11.498-18.461-15.91l-8.2402-8.0234 2.709-2.5117c8.4868-7.8653 7.1945-22.851-2.5898-29.26-3.2384-2.121-5.4463-3.0332-10.648-3.0332z" fill="#fafafa"/>
 <path d="m150.36 31.594c-5.1022 0-7.6125 0.97894-10.318 2.6914-10.283 6.5079-11.631 19.558-3.7598 28.523l2.8652 3.2637-8.0449 8.4297c-4.5214 4.4654-13.185 11.635-19.037 16.312-10.477 8.3736-16.985 14.912-20.85 21.928-6.9448 11.898-8.6208 40.634 6.3926 53.734 5.494 5.3267 10.827 8.4983 17.328 12.84l-7.3652 18.191c-4.0507 10.006-7.7757 18.912-7.6797 19.34 10.168 4.5523 23.171 6.28 29.428 8.0332 0.14316 0.13144-7.2453 7.5738-11.613 9.5977-5.6116 2.6001-11.986 2.3514-28.586-1.1094-22.608-4.6801-41.446-4.8437-58.986 5.8379l14.412 29.039c16.35-10.113 33.173-5.7205 43.344-4.1894 9.5315 1.8501 17.166 3.2273 24.754 3.0938 8.9593-0.15765 11.63-0.76457 16.562-3.1055 9.7493-5.2571 17.121-12.184 20.723-22.451 2.9108 8.5439 10.194 16.03 17.621 20.631 8.2707 5.1238 16.266 5.1505 23.025 4.873 4.4721-0.29917 14.258-1.5308 21.857-2.9551 17.722-3.3216 24.639-3.1486 34.49 0.1582 4.2129 1.4142 8.5391 3.9434 8.5391 3.9434l14.414-29.037c0-1.0284-9.2954-5.2855-17.215-7.1035-9.661-2.2178-19.308-3.3138-40.551 1.2305-8.4443 1.8064-17.69 3.3886-20.404 3.3906-5.6746-0.30436-11.606-3.5006-17.424-7.8066-1.3858-1.22-2.6269-2.2442-3.6426-4.043 7.049-1.5187 23.653-4.86 29.312-7.9648 0.15315-0.1831-1.3856-4.4811-7.3125-19.045-4.2155-10.358-7.5-18.578-7.5-18.578 2.2435-1.3696 13.32-7.8262 18.113-13.371 3.8044-4.4009 6.1476-7.7982 8.8125-16.346 3.6166-11.6 1.7984-25.072-3.6465-36.912-3.2335-7.0312-8.7339-12.99-20.828-22.326-5.6204-4.3387-13.928-11.498-18.461-15.91l-8.2402-8.0234 2.709-2.5117c8.4868-7.8653 7.1945-22.851-2.5898-29.26-3.2384-2.121-5.4464-3.0332-10.648-3.0332zm0.0234 7.1133c6.4075-3.48e-4 11.602 5.194 11.602 11.602 3.3e-4 6.4075-5.1941 11.602-11.602 11.602-6.4075 3.26e-4 -11.602-5.1941-11.602-11.602-3.3e-4 -6.4075 5.1941-11.602 11.602-11.602zm-0.52149 30.535c0.19707-0.0018 0.39429 0.0076 0.59375 0.0293 3.1915 0.3465 6.7806 3.7086 13.662 10.402 5.8232 5.6643 15.385 13.993 21.248 18.508 11.21 8.6312 15.403 13.697 18.693 22.588 2.9233 7.8981 3.4604 15.224 1.7266 23.539-2.5244 12.107-7.0885 17.917-20.348 25.898-4.8422 2.915-5.6084 3.0878-9.5 2.1543-7.0722-1.6964-31.409-2.3407-42.232-1.1191-5.5 0.62077-10.9 1.3679-12 1.6602-1.1939 0.31726-4.5392-1.2417-8.252-3.5254-11.347-6.7908-16.947-15.368-18.83-25.486-1.1466-7.7446-1.088-16.503 1.2695-23.449 3.6806-9.3164 11.584-16.332 18.588-22.035 8.2172-6.8701 17-13.71 24.699-21.439 4.9593-5.0365 7.7256-7.6972 10.682-7.7246zm0.34375 36.133c-3.047 0-5.5 3.3381-5.5 8.0644v9.4356h-8.6582c-5.2449 0-8.4473 2.23-8.4473 5v0.5c0 2.77 3.2908 5 8.4473 5h8.6582v8.6387c0 4.8148 2.453 8.3281 5.5 8.3281s5.5-3.1598 5.5-8.3281v-8.6387h9.2324c4.9797 0 7.918-2.23 7.918-5v-0.5c0-2.77-3.3802-5-7.918-5h-9.2324v-9.4356c0-4.638-2.453-8.0644-5.5-8.0644zm-1.5547 73.387c12.02-0.071 25.586 0.97222 28.299 2.4902 0.84959 0.47545 3.9162 6.773 6.8145 13.994 2.8983 7.2211 4.9708 13.072 4.6055 13.002-0.36527-0.0697-3.8141-0.94895-7.6641-1.9551-16.002-4.1818-45.495-4.88-61.49-1.4551-3.5697 0.76438-6.5876 1.2932-6.7051 1.1758-0.6581-0.6581 9.7176-24.073 10.98-24.779 0.83308-0.46622 7.1853-1.3683 14.115-2.0059 3.2035-0.29473 7.0383-0.44313 11.045-0.4668zm-8.1719 32.723c19.225-0.12227 43.77 1.8479 38.152 3.9277-1.1403 0.42216-6.0903 1.2612-11 1.8633-8.3356 1.0223-26.922 0.61408-32.607-0.18945-1.375-0.19434-8.3529-0.8217-12.775-1.5059-5.1164-0.79149-7.6601-1.7586 2.0938-3.2031 3.9117-0.57929 9.7283-0.85183 16.137-0.89257zm-1.1211 13.678c3.0197 0.20432 5.9897 0.32871 8.916 0.38086-0.18233 1.2449-0.3936 2.4716-0.66406 3.6523-0.41394 1.8071-0.92319 3.5357-1.5039 5.1758s-1.2341 3.1908-1.9336 4.6426c-0.69946 1.4518-1.4447 2.8046-2.2148 4.0469-0.88575 1.4287-1.9823 2.9034-3.2109 4.3476-1.2286 1.4443-2.5893 2.8569-4.0039 4.1621-1.4146 1.3053-2.8845 2.504-4.3281 3.5156s-2.8619 1.837-4.1777 2.4004c-2.0432 0.87477-3.9443 1.5103-5.9746 1.9121s-4.1895 0.57042-6.748 0.51172-5.5167-0.3447-9.1445-0.85157c-3.6278-0.50686-7.9257-1.2351-13.164-2.1777-5.1277-0.92268-9.3326-1.6326-12.885-2.1426s-6.4511-0.81979-8.9668-0.94336-4.6478-0.0607-6.666 0.17578c-2.0182 0.23652-3.9227 0.64652-5.9824 1.2168-3.85 1.066-9.066 3.0711-10.021 3.4414 0 0-0.9556-2.1046-3.75-7.752-2.0508-4.1447-3.7285-7.7164-3.7285-7.9375s3.0322-1.4655 6.75-2.7324c3.2446-1.1057 6.4226-1.8814 9.6367-2.3594 3.2141-0.47796 6.4637-0.65746 9.8496-0.56836 3.3859 0.089 6.9098 0.44582 10.67 1.041 3.7601 0.5952 7.7571 1.4282 12.094 2.4688 5.3836 1.2918 10.011 2.2213 14.127 2.6953 2.0578 0.23697 3.9882 0.35942 5.8203 0.35742s3.5651-0.12996 5.2324-0.39453c1.6673-0.26458 3.2686-0.66471 4.832-1.2148 1.5634-0.55014 3.0909-1.2505 4.6113-2.1094s3.0339-1.8775 4.5723-3.0684 3.1016-2.5537 4.7188-4.0996c2.568-2.5237 5.0376-5.2431 7.2383-7.793zm22.426 0.0996c0.20705 0.19813 0.41244 0.40661 0.61718 0.63672 0.6867 0.77176 1.388 1.7223 2.2852 2.8438s1.9909 2.412 3.4648 3.8652c1.5012 1.4801 2.941 2.8124 4.3594 3.998s2.8143 2.2252 4.2266 3.1211c1.4123 0.89585 2.8411 1.6492 4.3242 2.2598 1.4831 0.61057 3.0216 1.0783 4.6523 1.4082 1.6307 0.32987 3.3538 0.52042 5.209 0.57422s3.8415-0.0283 5.998-0.24609 4.4829-0.56995 7.0176-1.0547 5.2779-1.1025 8.2676-1.8496c4.4186-1.1042 8.654-1.9211 12.658-2.4805 4.0042-0.5594 7.777-0.8613 11.268-0.9375 3.4906-0.0761 6.7003 0.0744 9.5781 0.41992 2.8778 0.34555 5.4239 0.8861 7.5898 1.5918 4.1741 1.36 6.298 2.2078 7.3789 2.7148 1.0809 0.50705 1.1191 0.67383 1.1191 0.67383l-7.7441 15.607-6.2891-1.9258c-2.5433-0.81135-4.9505-1.4498-7.4414-1.8848-2.4909-0.43492-5.0642-0.66516-7.9394-0.66016s-6.0518 0.24477-9.748 0.75195c-3.6963 0.50718-7.9131 1.2807-12.867 2.3535-5.7734 1.2503-10.526 2.1097-14.535 2.6211-4.0091 0.51135-7.2755 0.67376-10.074 0.53125-1.3994-0.0713-2.6802-0.2187-3.8809-0.4375-1.2006-0.21879-2.3195-0.50756-3.3906-0.86328-2.1423-0.71143-4.095-1.6874-6.1348-2.8828-1.4237-0.90335-2.7779-1.8708-4.0586-2.9023-1.2807-1.0316-2.4873-2.1262-3.6211-3.2793s-2.1948-2.365-3.1777-3.6328c-0.98293-1.2678-1.8886-2.591-2.7168-3.9668-0.82815-1.3758-1.5786-2.8042-2.248-4.2812s-1.2569-3.0046-1.7637-4.5762c-0.50676-1.5716-0.93134-3.1882-1.2715-4.8477-0.19848-0.96839-0.35928-1.9547-0.5-2.9512 3.1813-0.0181 6.3085-0.12675 9.3887-0.3125z" fill="#050505" stroke-width="0"/>
</svg>
