<?xml version="1.0" encoding="UTF-8"?>
<svg width="300" height="300" version="1.1" viewBox="0 0 300 300" xmlns="http://www.w3.org/2000/svg">
 <path d="m148.69 27.328c-2.4584 0-4.4375 1.9791-4.4375 4.4375v12.234h-12.209c-2.2388 0-4.041 1.8022-4.041 4.041v0.89258c0 2.2388 1.8022 4.041 4.041 4.041h12.209v20.447c0 0.1848 0.033 0.36031 0.0547 0.53906-1.2691 0.23346-2.5054 0.55708-3.6602 0.99023-7.206 2.3782-16.15 12.424-16.146 20.213 1e-3 1.835-4e-3 2.9004-4e-3 2.9004s-3.6191-2.7093-6.2363-4.7188c-9.7993-7.5237-21.785-11.346-35.574-11.346-16.594 0-28.601 4.9066-40.295 16.469-11.402 11.273-16.764 24.077-16.764 40.031 0 16.127 5.1354 28.043 17.787 41.275 4.3521 4.5518 10.983 10.553 14.734 13.334 7.2792 5.3963 6.7959 4.5037 10.453 19.256 1.602 6.4619 1.6011 7.697 0.0039 21-0.93338 7.7739-1.9311 15.497-2.2188 17.162-0.46491 2.6906-0.10018 3.2621 3.2949 5.1504 8.0774 4.4926 29.337 9.1582 51.393 11.279 15.985 1.5373 56.427 0.47404 72.023-1.8945 16.816-2.5537 27.777-5.2995 34.764-8.7051 5.1316-2.5014 5.3391-2.7519 4.8281-5.9004-0.29353-1.8088-1.3329-9.5946-2.3086-17.301l-1.7734-14.012 2.4121-10.219 2.4121-10.221 8.7188-6.877c21.568-17.013 30.852-33.06 30.852-53.328 0-15.892-5.3439-28.848-16.498-40.002-11.278-11.278-24.125-16.511-40.463-16.482-14.49 0.02508-25.406 3.6231-36.789 12.127l-5.25 3.9219v-3.0645c0-7.5244-8.0066-17.197-16.578-20.025-1.0704-0.43436-2.281-0.76798-3.5645-1.0098 0.022-0.17998 0.0547-0.35684 0.0547-0.54297v-20.447h12.109c2.2388 0 4.041-1.8022 4.041-4.041v-0.89258c-1e-5 -2.2388-1.8022-4.041-4.041-4.041h-12.109v-12.234c0-2.4584-1.9791-4.4375-4.4375-4.4375z" fill="#fafafa"/>
 <path d="m148.69 27.328c-2.4584 0-4.4375 1.9791-4.4375 4.4375v12.234h-12.209c-2.2388 0-4.041 1.8022-4.041 4.041v0.89258c0 2.2388 1.8022 4.041 4.041 4.041h12.209v20.447c0 0.1848 0.033 0.36031 0.0547 0.53906-1.2691 0.23346-2.5054 0.55708-3.6602 0.99023-7.206 2.3782-16.15 12.424-16.146 20.213 1e-3 1.835-4e-3 2.9004-4e-3 2.9004s-3.6191-2.7093-6.2363-4.7188c-9.7993-7.5237-21.785-11.346-35.574-11.346-16.594 0-28.601 4.9066-40.295 16.469-11.402 11.273-16.764 24.077-16.764 40.031 0 16.127 5.1354 28.043 17.787 41.275 4.3521 4.5518 10.983 10.553 14.734 13.334 7.2792 5.3963 6.7959 4.5037 10.453 19.256 1.602 6.4619 1.6011 7.697 0.0039 21-0.93338 7.7739-1.9311 15.497-2.2188 17.162-0.46491 2.6906-0.10018 3.2621 3.2949 5.1504 8.0774 4.4926 29.337 9.1582 51.393 11.279 15.985 1.5373 56.427 0.47404 72.023-1.8945 16.816-2.5537 27.777-5.2995 34.764-8.7051 5.1316-2.5014 5.3391-2.7519 4.8281-5.9004-0.29353-1.8088-1.3329-9.5946-2.3086-17.301l-1.7734-14.012 2.4121-10.219 2.4121-10.221 8.7188-6.877c21.568-17.013 30.852-33.06 30.852-53.328 0-15.892-5.3439-28.848-16.498-40.002-11.278-11.278-24.125-16.511-40.463-16.482-14.49 0.02508-25.406 3.6231-36.789 12.127l-5.25 3.9219v-3.0645c0-7.5244-8.0066-17.197-16.578-20.025-1.0704-0.43436-2.281-0.76798-3.5645-1.0098 0.022-0.17998 0.0547-0.35684 0.0547-0.54297v-20.447h12.109c2.2388 0 4.041-1.8022 4.041-4.041v-0.89258c-1e-5 -2.2388-1.8022-4.041-4.041-4.041h-12.109v-12.234c0-2.4584-1.9791-4.4375-4.4375-4.4375zm0.80859 54.686c3.4528 0.02153 7.0082 1.1334 10.203 3.5703 3.9561 3.0175 6.3008 7.7381 6.3008 12.686 0 1.8337-3.6274 12.526-8.0606 23.76-4.4332 11.234-8.2462 20.61-8.4726 20.836-0.22641 0.2264-0.82745-0.66278-1.3359-1.9766s-4.1502-10.595-8.0938-20.627c-3.9435-10.032-7.2038-19.482-7.2441-21-0.27175-10.24 7.8794-17.303 16.703-17.248zm67.059 7.1699c13.707 0.02243 26.194 5.5179 36 16.07 15.385 16.556 17.487 41.529 5.0703 60.246-3.9549 5.9619-13.82 15.764-22.125 21.984-3.3 2.4716-6.225 4.4492-6.5 4.3945s-3.875-0.94099-8-1.9707c-14-3.4948-48.441-7.9062-61.75-7.9082h-5.25v-27.572l6.457-16.244c8.5397-21.482 11.585-26.949 18.906-33.957 7.918-7.5791 13.471-10.753 23.133-13.225 4.7861-1.2241 9.4897-1.8258 14.059-1.8184zm-131.87 0.02148c11.6 0.25211 23.294 4.4105 32.908 13.1 7.9783 7.211 11.794 13.763 19.883 34.148l7.5195 18.955v26.287l-12.352 0.66016c-15.721 0.84043-32.638 2.9942-49.135 6.2539-7.1428 1.4114-13.284 2.7484-13.646 2.9726-1.1748 0.72607-13.178-8.6941-20.367-15.984-14.19-14.39-19.626-32.262-15.047-49.467 6.2952-23.652 28.091-37.407 50.236-36.926zm64.738 100.91c14.751-2e-3 29.442 1.1594 45.572 3.4844 12.283 1.7704 30.242 5.9121 30.242 5.9121l-3.6973 16.902-12.045-2.0898c-41.02-7.1179-82.649-6.4455-119.54-0.35742l-12.324 2.0332-4.2598-16.707s19.865-4.2242 30.123-5.6836c16.368-2.3285 31.177-3.4925 45.928-3.4941zm-3.0938 27.02c24.962-8e-3 50.781 2.8164 75.076 8.7246l2.3223 17.746s-2.6065-0.26112-5.3125-1.0586c-2.706-0.79748-9.8699-2.3324-15.92-3.4102-26.899-5.3795-78.006-5.8446-115.5 1.9453-4.675 1.0864-11.93 2.7422-11.93 2.7422l2.1406-18.707 6.6875-1.5215c19.052-4.2422 40.41-6.4543 62.436-6.4609zm1.8047 26.035c15.275 0.0665 32.046 0.89971 41.861 2.2988 14.794 2.1087 29.427 5.5084 28.344 6.5859-1.3551 1.3484-24.862 5.7176-36.844 6.8477-24.331 2.2947-56.072 1.7481-75-1.291-13.289-2.1338-24.807-4.6225-25.824-5.5801-1.7905-1.6853 22.877-6.2949 43.408-8.1113 6.2636-0.55414 14.89-0.78989 24.055-0.75z"/>
</svg>
