<svg width="300" height="300" version="1.1" viewBox="0 0 300 300" xmlns="http://www.w3.org/2000/svg">
 <path d="m74.223 29.297c-1.1975-0.08485-1.2188 1.3394-1.2188 8.5117 0 9.271 1.9754 22.02 4.5352 29.275l1.4707 4.1719-3.7871 4.1152c-9.4869 10.307-13.129 17.091-14.086 30.283-1.063 9.713-5.0129 17.842-20.42 42.016-12.405 19.464-13.137 21.307-12.449 31.334 0.942 13.741 7.9146 24.403 19.852 30.352l5.1191 2.5508 7.6289-3.8926 5.3184 2.4766c7.6288 3.2858 13.691 3.3385 17.645-0.49609 5.9311-4.296 11.846-11.384 14.564-19.578 1.9977-6.3381 6.3476-11.761 11.514-14.352 1.977-0.9915 8.0957-3.2779 13.596-5.0801 11.608-3.8032 16.547-6.1239 21.74-10.211l3.7422-2.9434-0.63086 4.8281c-1.941 14.863-6.3142 21.945-26.533 42.98-15.654 16.286-19.942 22.719-24.652 36.965-2.2716 6.87-2.9617 17.933-2.9617 22.385v3.0551l176.8-0.061v-27.301c0-50.668-3.9196-78.925-14.559-104.98-14.186-34.739-32.893-56.074-60.709-69.229-14.903-7.0483-25.084-9.6322-40.285-10.227l-13.055-0.51172-3.3711-6.5039c-3.265-6.295-10.922-15.052-15.131-17.305-1.8019-0.9644-2.7567-0.38328-7.7676 4.7285-3.1425 3.2058-6.3839 6.8948-7.2031 8.1973l-1.4902 2.3672-8.7129-5.6797c-8.011-5.2213-17.92-10.287-23.467-11.996-0.41578-0.12814-0.75491-0.22847-1.0312-0.24805z" fill="#fff" opacity=".80907"/>
 <path d="m74.195 29.32c-1.1637-0.07186-1.1953 1.379-1.1953 8.502 0 9.2704 1.9754 22.022 4.5352 29.277l1.4707 4.1699-3.7871 4.1152c-9.4867 10.307-13.005 17.056-14.084 30.283-0.78614 9.6368-5.0389 17.912-20.43 42.064-12.463 19.558-13.129 21.243-12.43 31.441 0.97645 14.246 8.4509 25.158 21.164 30.896 3.8042 1.7172 4.066 1.7137 7.6816-0.13086l3.7422-1.9102 5.3184 2.4746c6.1654 2.8702 12.321 3.1996 15.846 0.8457 7.5959-5.0725 13.741-12.995 16.438-21.191 1.9688-5.9847 6.2864-11.461 10.928-13.861 1.7022-0.88021 8.8886-3.5426 15.971-5.918 9.3207-3.1262 14.367-5.4456 18.275-8.3965l5.4004-4.0762-0.5957 4.2969c-2.1832 15.754-6.3789 22.545-27.287 44.17-14.477 14.973-19.467 22.497-23.959 36.127-2.3012 6.9819-2.9873 18.143-2.9873 22.5v3.0451l176.79-0.0451v-27.301c0-28.451-1.0691-47.582-3.5606-63.699-5.4904-35.518-19.99-67.289-40.268-88.234-19.668-20.315-48.35-32.759-75.533-32.77l-9.1387-0.0039-3.332-6.4434c-3.2405-6.2669-11.18-15.415-15.287-17.613-1.7662-0.94523-2.7178-0.39008-7.2637 4.2383-2.877 2.9293-6.1533 6.6357-7.2793 8.2363l-2.0469 2.9102-8.4121-5.5977c-7.5835-5.0459-17.81-10.296-23.684-12.16-0.40277-0.12784-0.73144-0.2256-1-0.24219zm6.4023 10.938c1.8267 0.03026 11.531 5.4764 16.902 9.5742 4.3643 3.3295 4.9433 4.1879 4.5508 6.7422-0.24734 1.6095-0.4723 5.1758-0.5 7.9258-0.045 4.4771 0.18995 5.0336 2.2539 5.3262 3.0922 0.43834 5.1953-1.485 5.1953-4.752 0-5.3573 10.766-24.074 13.848-24.074 1.8051 0 7.4643 7.4432 10.354 13.617 1.5986 3.416 3.7389 10.358 4.7559 15.428 1.7388 8.6675 2.9071 10.903 5.7207 10.939 1.9124 0.02485 4.4266-3.0606 3.9434-4.8398-0.24564-0.90455-0.73554-3.4445-1.0879-5.6445s-0.87155-4.7875-1.1543-5.75c-0.44113-1.5017 0.19413-1.75 4.4805-1.75 28.046 0 61.044 15.901 77.924 37.549 17.413 22.331 28.314 49.203 32.693 80.594 1.9818 14.205 3.7364 49.176 3.3301 66.357l-0.30664 13-161.5 0.51172c-0.26488-22.594 12.614-37.524 25.469-50.256 8.2669-8.7269 16.94-18.656 19.273-22.062 5.5455-8.0972 8.2359-16.782 9.1992-29.693 0.43088-5.775 1.2813-11.728 1.8887-13.229 0.60734-1.5004 1.6156-5.6716 2.2422-9.2695 1.2772-7.3341 0.44912-9.502-3.6348-9.502-2.9631 0-3.3356 0.67406-4.5488 8.2422-1.2041 7.5111-4.2105 12.957-10.203 18.48-5.7281 5.28-7.806 6.2963-21.686 10.617-17.903 5.5734-24.184 10.75-28.623 23.59-2.0672 5.9791-11.054 16.701-14.783 17.637-1.1944 0.29978-3.3756 0.087-4.8477-0.47266l-2.6777-1.0176 6.0605-5.7812c6.9489-6.6282 8.7263-9.0131 6.8711-11.295-2.7891-3.4304-4.6363-2.8068-11.92 4.3281-7.9607 7.7982-15.189 12.112-18.43 11.299-3.4265-0.85998-11.143-8.0392-13.121-12.207-0.9483-1.9984-2.1716-6.6511-2.7188-10.338-1.2525-8.4387-0.95293-9.1888 11.586-28.869 17.005-26.689 21.128-33.645 21.615-47.033 0.355-9.7528 2.9575-13.554 12.154-24.213l6.1133-7.084-2.627-8.6914c-2.7018-8.9365-5.2336-22.944-4.3125-23.865 0.04813-0.04813 0.13603-0.07038 0.25781-0.06836zm23.422 47.805c-3.3767 0-12.799 6.2272-18.264 13.896-4.652 6.5281-5.3964 9.4335-3.7188 11.617 1.3443 1.5603 4.0019 2.0172 6.0547 0.0449 0.65298-0.85209 1.2213-1.6256 1.8223-2.4336 0.66948 0.78246 1.4732 1.4478 2.3711 1.9629 4.0475 2.3209 9.0485 1.1273 11.17-2.666 2.1214-3.7929 0.56059-8.7489-3.4863-11.07-0.0169-0.0098-0.03382-0.01959-0.05078-0.0293 0.68489-0.6074 1.4048-1.2064 2.1758-1.7988 4.7634-2.7281 5.2609-3.207 5.6367-4.752 0.5487-2.2556-1.4163-4.7715-3.7109-4.7715zm-47.957 79.311c-0.74072-6e-3 -1.5464 0.34184-2.8984 1.041-5.2282 2.7036-8.7165 8.6913-6.4141 11.008 0.98339 0.98941 5.9297 0.15589 10.557-1.7774 3.105-1.2974 3.6934-2.0248 3.6934-4.5703 0-2.101-0.74206-3.5152-2.4238-4.6172-1.0968-0.71863-1.773-1.0781-2.5137-1.084z"/>
 <path d="m74.223 29.297c-1.1975-0.08485-1.2188 1.3394-1.2188 8.5117 0 9.271 1.9754 22.02 4.5352 29.275l1.4707 4.1719-3.7871 4.1152c-9.4869 10.307-13.129 17.091-14.086 30.283-1.063 9.713-5.0129 17.842-20.42 42.016-12.405 19.464-13.137 21.307-12.449 31.334 0.942 13.741 7.9146 24.403 19.852 30.352l5.1191 2.5508 7.6289-3.8926 5.3184 2.4766c7.6288 3.2858 13.691 3.3385 17.645-0.49609 5.9311-4.296 11.846-11.384 14.564-19.578 1.9977-6.3381 6.3476-11.761 11.514-14.352 1.977-0.9915 8.0957-3.2779 13.596-5.0801 11.608-3.8032 16.547-6.1239 21.74-10.211l3.7422-2.9434-0.63086 4.8281c-1.941 14.863-6.3142 21.945-26.533 42.98-15.654 16.286-19.942 22.719-24.652 36.965-2.2716 6.87-2.9617 17.933-2.9617 22.385v3.0551l176.8-0.061v-27.301c0-50.668-3.9196-78.925-14.559-104.98-14.186-34.739-32.893-56.074-60.709-69.229-14.903-7.0483-25.084-9.6322-40.285-10.227l-13.055-0.51172-3.3711-6.5039c-3.265-6.295-10.922-15.052-15.131-17.305-1.8019-0.9644-2.7567-0.38328-7.7676 4.7285-3.1425 3.2058-6.3839 6.8948-7.2031 8.1973l-1.4902 2.3672-8.7129-5.6797c-8.011-5.2213-17.92-10.287-23.467-11.996-0.41578-0.12814-0.75491-0.22847-1.0312-0.24805z" display="none" fill="#fff" opacity=".80907"/>
 <path d="m74.223 29.297c-1.1975-0.08485-1.2188 1.3394-1.2188 8.5117 0 9.271 1.9754 22.02 4.5352 29.275l1.4707 4.1719-3.7871 4.1152c-9.4869 10.307-13.129 17.091-14.086 30.283-1.063 9.713-5.0129 17.842-20.42 42.016-12.405 19.464-13.137 21.307-12.449 31.334 0.942 13.741 7.9146 24.403 19.852 30.352l5.1191 2.5508 7.6289-3.8926 5.3184 2.4766c7.6288 3.2858 13.691 3.3385 17.645-0.49609 5.9311-4.296 11.846-11.384 14.564-19.578 1.9977-6.3381 6.3476-11.761 11.514-14.352 1.977-0.9915 8.0957-3.2779 13.596-5.0801 11.608-3.8032 16.547-6.1239 21.74-10.211l3.7422-2.9434-0.63086 4.8281c-1.941 14.863-6.3142 21.945-26.533 42.98-15.654 16.286-19.942 22.719-24.652 36.965-2.2716 6.87-2.9617 17.933-2.9617 22.385v3.0551l176.8-0.061v-27.301c0-50.668-3.9196-78.925-14.559-104.98-14.186-34.739-32.893-56.074-60.709-69.229-14.903-7.0483-25.084-9.6322-40.285-10.227l-13.055-0.51172-3.3711-6.5039c-3.265-6.295-10.922-15.052-15.131-17.305-1.8019-0.9644-2.7567-0.38328-7.7676 4.7285-3.1425 3.2058-6.3839 6.8948-7.2031 8.1973l-1.4902 2.3672-8.7129-5.6797c-8.011-5.2213-17.92-10.287-23.467-11.996-0.41578-0.12814-0.75491-0.22847-1.0312-0.24805zm75.146 37.691c5.551 0 20.612 2.5732 27.131 4.6348 9.618 3.043 25.019 11.303 33.012 17.707 31.153 24.95 45.488 69.758 45.488 142.16 0 10.569-0.28696 21.304-0.63671 23.855l-0.63672 4.6406h-17.896l0.68164-22.25c2.321-75.663-9.9693-122.25-37.822-143.36-11.976-9.0779-29.1-15.527-45.074-16.975l-6.0479-0.71729-0.59961-3.6211c-0.9971-6.0286-2.2863-6.0756 2.4014-6.0756zm-45.35 21.074c2.2946 0 4.2596 2.5159 3.7109 4.7715-0.37583 1.545-0.87328 2.0239-5.6367 4.752-0.771 0.59242-1.4909 1.1914-2.1758 1.7988 0.017 0.0097 0.0339 0.0193 0.0508 0.0293 4.0471 2.3211 5.6079 7.2774 3.4863 11.07-2.1214 3.7933-7.1224 4.9869-11.17 2.666-0.8979-0.51508-1.7016-1.1804-2.3711-1.9629-0.60095 0.80798-1.1693 1.5815-1.8223 2.4336-2.0528 1.9723-4.7104 1.5154-6.0547-0.0449-1.6777-2.1837-0.93325-5.089 3.7188-11.617 5.4652-7.6692 14.887-13.896 18.264-13.896zm54.669 23.894c0.55692 3e-4 2.422 0.0881 3.5604 1.4248 1.4637 1.753 1.0455 16.56-1.7108 24.776-1.1673 3.4797-2.8284 7.1137-3.6914 8.0762-1.9569 2.1825-4.605 2.2454-6.3438 0.15039-1.1188-1.3481-0.9509-2.6448 1.0586-8.248 1.4915-4.159 2.5983-9.9832 2.9551-15.547 0.4472-6.973 0.94862-9.1345 2.3203-9.9961 0.63615-0.39936 1.2947-0.63646 1.8516-0.63616zm-102.91 55.464c1.2586-0.15625 5.2368 1.6968 5.2212 5.67-0.01 2.4897-0.60706 3.2494-3.6934 4.539-4.6264 1.9333-9.5733 2.7648-10.557 1.7754-1.5828-1.7589-0.47093-5.2193 2.9922-8.5469 2.2017-2.1156 4.9742-3.2812 6.0371-3.4375zm23.407 16.981c0.69242-0.0671 1.2955 0.32252 2.252 0.94922 1.4096 0.9236 2.5625 2.3082 2.5625 3.0762 0 0.7679-2.2944 3.9073-5.0996 6.9766-3.8099 4.1687-5.7925 5.5801-7.834 5.5801-6.1944 0-5.5193-4.1242 1.8711-11.438 3.6927-3.6541 5.094-5.0328 6.248-5.1445z" display="none" fill="#0d0d0d"/>
</svg>
