<?xml version="1.0" encoding="UTF-8"?>
<svg width="300" height="300" version="1.1" viewBox="0 0 300 300" xmlns="http://www.w3.org/2000/svg">
 <g>
  <path d="m149.84 27.246c-10.432 0.08566-18.844 8.5672-18.844 19 3.4e-4 8.2985 5.3863 15.637 13.303 18.125l-15.281 78.625-26.842-73.682c6.0837-3.3348 9.8661-9.7203 9.8672-16.658 0-10.493-8.5066-19-19-19s-19 8.5066-19 19c0.0011 9.572 7.1225 17.648 16.619 18.848l-0.04687 0.32617-2 78.061-37.83-61.951c4.6832-3.5955 7.4288-9.1638 7.4297-15.068 0-10.493-8.5066-19-19-19s-19 8.5066-19 19 8.5066 19 19 19c0.20187-6.9e-4 0.40372-0.0046 0.60547-0.01172l20.021 96.641 5.0078 8.6055c4.7765 8.208 4.8253 8.3593 5.3398 12.424l1.8066 14.277-2.041 5.3457c-1.1223 2.9408-3.5551 9.5249-5.4082 14.631l-3.3691 9.2832 3.2188 1.9824c8.2222 5.063 33.276 10.257 57.219 11.859 44.02 2.9468 93.16-1.6922 111.25-10.5 2.8875-1.4059 5.25-3.1552 5.25-3.8887l-10.324-28.76 1.9805-14.594c0.51833-3.8184 0.6714-4.3386 5.1562-12.176l5.0606-8.8438 9.9316-47.762 9.9277-48.424c0.31876 0.01585 0.63787 0.02367 0.95703 0.02344 10.493 0 19-8.5066 19-19s-8.5066-19-19-19-19 8.5066-19 19c-4.4e-4 6.0219 2.8538 11.687 7.6934 15.271-14.089 22.801-38.234 60.527-38.234 60.527l-3.3145-77.197c10.113-0.50468 18.053-8.8514 18.053-18.977 0-10.493-8.5066-19-19-19s-19 8.5066-19 19c-8e-5 6.9045 3.7455 13.266 9.7832 16.615l-26.629 74.014-15.787-78.77c8.0796-2.3821 13.626-9.7995 13.627-18.223 0-10.493-8.5066-19-19-19-0.0521-2.14e-4 -0.10417-2.14e-4 -0.15625 0z" fill="#050505"/>
  <path d="m149.68 34.721a11.656 11.633 0 0 0-11.602 11.668 11.656 11.633 0 0 0 11.676 11.596 11.656 11.633 0 0 0 11.637-11.633v-0.07227a11.656 11.633 0 0 0-11.711-11.559zm57.23 6.3633a11.656 11.633 0 0 0-11.6 11.67 11.656 11.633 0 0 0 11.674 11.596 11.656 11.633 0 0 0 11.639-11.633v-0.07422a11.656 11.633 0 0 0-11.713-11.559zm-114.19 0.070313a11.656 11.633 0 0 0-11.602 11.67 11.656 11.633 0 0 0 11.674 11.596 11.656 11.633 0 0 0 11.639-11.633v-0.07422a11.656 11.633 0 0 0-11.711-11.559zm-53.5 20.375a11.656 11.633 0 0 0-11.602 11.67 11.656 11.633 0 0 0 11.674 11.596 11.656 11.633 0 0 0 11.639-11.633v-0.07422a11.656 11.633 0 0 0-11.711-11.559zm221.2 0.11328a11.656 11.633 0 0 0-11.6 11.67 11.656 11.633 0 0 0 11.674 11.596 11.656 11.633 0 0 0 11.637-11.633v-0.07422a11.656 11.633 0 0 0-11.711-11.559zm-110.37 18.105c-0.36174-0.41314-4.1658 17.587-8.4551 40-3.1501 14.954-5.9965 30.566-8.7715 45.197 11.016-0.6492 22.289-0.7133 33.377-0.19922l0.53906-8e-3s-4.1101-21.463-8.3398-43.738-7.9879-40.839-8.3496-41.252zm-51.111 6.0488c-0.02227-0.0015-0.0395 0.01217-0.05078 0.04297-0.33452 0.91347-0.90353 14.935-1.2637 31.16s-1.0908 34.833-1.291 41.365l-0.3457 11.295c9.9716-2.0966 20.795-3.5541 31.973-4.3965-0.12773-0.37563-6.4559-18.981-14.215-40.875-8.1926-23.117-14.116-38.546-14.807-38.592zm101.93 0.04297c-0.41049-0.19075-4.3663 9.0554-14.393 37.16-7.9233 22.21-14.423 41.949-14.461 42.064 10.77 0.69959 21.268 1.9446 31.066 3.7246 0.20897-1.3709 4.2222-28.864-2.0273-82.289-0.0409-0.34922-0.0709-0.62581-0.18555-0.66016zm48.846 16.545c-0.27214-0.26819-40.307 64.805-41.475 67.4 0.06 0.0124 0.12171 0.0226 0.18165 0.0352 2.3926 0.49634 16.254 4.4489 25.672 8.8809 0.36607-1.7418 15.968-75.975 15.621-76.316zm-199.38 0.94335c-0.18606 0.18606 3.1495 17.512 7.4121 38.502 4.232 20.839 7.82 37.875 8.0273 38.121 8.6477-4.1526 16.577-7.0294 24.744-9.041 0.71587-0.24031 1.2417-0.42386 1.2949-0.46485 0.17352-0.13358-9.0121-15.366-20.412-33.85-11.4-18.483-20.88-33.454-21.066-33.268zm101.18 69.846c-21.418-5.6e-4 -43.318 2.2197-60.271 6.3965-7.3698 1.8156-22.59 8.2461-22.59 8.2461l6.3613 12.068 5.7402-1.9805c17.227-5.943 35.461-8.8215 60.828-9.6016 28.815-0.88613 56.639 2.4351 76.107 9.084l7.1992 2.459 3.1348-5.5547c1.8734-3.3196 3.248-5.8066 3.248-5.8066-15.076-7.3976-32.194-11.472-47.279-13.445-7.4-0.91434-15.281-1.4845-23.346-1.7285-3.0242-0.0915-6.0732-0.13664-9.1328-0.13672zm-5.4922 23.441c-21.686 0.0664-42.487 2.7502-59.279 8.0488-6.0581 1.8352-9.1992 2.8301-9.1992 2.8301l1.9824 13.408c42.691-11.029 89.11-11.166 132.47-1.9629 4.675 1.0249 8.6172 1.7109 8.6172 1.7109l1.4883-12.709-3.4883-1.457c-22.298-6.6573-48.011-9.9444-72.588-9.8692zm3.7188 24.309c-25.05-0.14445-50.125 2.7612-72.037 8.8672l-4.498 12.988c43.593-11.031 104.81-11.771 151.57-0.16016l2.2832 0.63086-2.1524-5.875c-1.1831-3.2314-2.6608-6.3921-3.2832-7.0234-21.809-6.0893-46.833-9.2833-71.883-9.4277zm-2.2774 22.107c-9.4261 6e-3 -18.656 0.32725-27.076 1-21.79 1.741-47.19 6.3852-44.168 8.0762 5.3223 2.9785 31.614 6.8396 53.273 7.8242 35.646 1.6205 69.271-0.97452 92-7.0996l4-1.0781-4.5-1.3535c-15.209-4.5803-45.251-7.3876-73.529-7.3691z" fill="#fafafa"/>
 </g>
</svg>
