<?xml version="1.0" encoding="UTF-8"?>
<svg width="300" height="300" version="1.1" viewBox="0 0 300 300" xmlns="http://www.w3.org/2000/svg">
 <path d="m57 236h21v-16.533l23-22.935v-81.527l-29.988-19.505-0.011842-49.5h37v9l1e-5 10 24-8e-6v-19l18 7e-6h18.044v9l-0.0442 10h23.956l0.0442-10v-9h37l-0.0424 49.5-29.958 19.788v81.245c7.6667 7.6449 15.333 15.29 23 22.935v16.533h20.648v31.652h-185.65z" fill="#fafafa"/>
 <path d="m57 236h21v-16.533l23-22.935v-81.527l-29.988-19.505-0.011842-49.5h37v9l1e-5 10 24-8e-6v-19l18 7e-6h18.044v9l-0.0442 10h23.956l0.0442-10v-9h37l-0.0424 49.5-29.958 19.788v81.245c7.6667 7.6449 15.333 15.29 23 22.935v16.533h20.648v31.652h-185.65zm178.65 7-171.68 1e-5 0.02847 17.652 171.68 0.45792zm-20.19-17.956-130.46-0.04419v10.015h130.46zm-22.206-24.044h-86.504l-15.248 14.968h117c-5.0826-4.9894-10.165-9.9788-15.248-14.968zm-2.2522-46.5v-38.5h-82v77h82zm13.382-51.75 7.9978-5.25-62.38-0.52849-62.37 0.52849 15.87 10.324 92.884 0.1756 7.9978-5.25zm17.618-32.25v-17.5h-23v19h-38v-19h-22v19h-38v-19h-23l-0.047205 35h144.05z"/>
</svg>
