<?xml version="1.0" encoding="UTF-8"?>
<svg width="900" height="410" version="1.1" viewBox="0 0 900 410" xmlns="http://www.w3.org/2000/svg">
 <g transform="translate(6.1916 73.975)">
  <g transform="translate(299.81)" stroke-width=".94452">
   <path d="m141.21 41.7c-10.393 0.04185-21.241 0.91957-29.352 2.7029-15.07 3.313-39.843 4.3461-52.341 1.7795-1.6455-0.33792-3.1324-0.63204-4.3396-0.86579 0.27051 1.3273 1.2436 4.4316 2.8326 7.675 1.8078 3.6898 4.2136 7.5341 6.157 9.5735l0.07397 0.07679 5.3491 6.6691-7.039 14.792-0.04068 0.07487c-3.4206 6.1362-5.271 9.9577-6.0443 13.311-0.77332 3.3536-0.60641 6.49 0.33836 11.791 0.9986 5.0066 1.1788 8.6399 0.0056 14.772-1.1779 6.1565-3.6192 15.069-7.86 31.988v4e-3l-0.0019 2e-3c-4.1846 16.505-6.4384 25.87-7.2868 31.312-0.4242 2.7215-0.48097 4.4322-0.355 5.4731s0.32935 1.4478 0.82464 2.1539c-0.17588-0.25072 1.0866 0.94247 2.7032 1.914 1.6166 0.97149 3.7071 2.0723 5.8335 3.0907s4.2975 1.9591 6.0775 2.628c1.7801 0.66894 3.4365 0.99832 3.3706 0.99822 0.7131 2.2e-4 3.7432-0.86303 6.6748-2.2461 2.9315-1.383 6.0453-3.2291 7.9709-4.7686 2.3124-1.849 3.3552-3.3507 3.9328-5.1064 0.57756-1.7557 0.67761-4.0003 0.47149-7.2104-0.0934-1.4546-0.12419-2.5785 0.0074-3.657s0.50915-2.1728 1.1002-2.9966c1.182-1.6477 2.3966-2.1271 4.2138-3.6839 10.826-9.2737 17.745-14.999 23.785-25.363 3.92-7.0753 6.3563-15.863 7.1574-23.201l0.43266-3.9795 3.1654 2.0771c2.9422 1.9326 5.3597 4.1945 7.2627 6.4732l0.0295 0.0384 0.0314 0.0384c3.1223 4.0444 4.2931 9.0507 4.2138 14.131s-1.3448 10.314-3.1378 15.346c-3.5858 10.064-9.3225 19.346-12.79 24.381l-4e-3 4e-3 -2e-3 4e-3c-18.379 26.498-26.54 41.233-26.755 56.94l-0.09984 7.2373h152.95c9.6202-34.909 6.7557-83.826-4.5337-110.21l-4.7297-9.5985 8.7493-9.706-2.3408-4.3271c-4.9697-9.1831-12.433-18.228-21.596-24.711-2.3577-1.6679-5.1692-3.5013-7.4643-4.9529-1.1475-0.72573-2.1673-1.3578-2.938-1.8256-0.77068-0.46792-1.4324-0.83836-1.346-0.79476l-2.021-1.0213 0.80985-2.2518s2.4417-6.63 4.9274-12.256l-2.069-1.9024c-11.004-10.106-23.027-16.721-38.345-20.508-6.2911-1.5555-16.227-2.3493-26.62-2.3075zm96.819 94.417-2.0135 0.4972 2.0412-0.43961z" color="#000000" color-rendering="auto" dominant-baseline="auto" fill="#34a1c0" image-rendering="auto" shape-rendering="auto" solid-color="#000000" stop-color="#000000" style="font-feature-settings:normal;font-variant-alternates:normal;font-variant-caps:normal;font-variant-east-asian:normal;font-variant-ligatures:normal;font-variant-numeric:normal;font-variant-position:normal;font-variation-settings:normal;inline-size:0;isolation:auto;mix-blend-mode:normal;shape-margin:0;shape-padding:0;text-decoration-color:#000000;text-decoration-line:none;text-decoration-style:solid;text-indent:0;text-orientation:mixed;text-transform:none;white-space:normal"/>
   <path d="m141.09 34.826-4e-3 0.0039c-10.666 0.05313-21.726 1.0304-30.48 2.9551-13.953 3.0677-39.325 3.9445-49.936 1.7656-1.7967-0.36897-3.4794-0.70567-4.7559-0.95117-0.63821-0.12275-1.1737-0.22191-1.5859-0.29492-0.20612-0.0365-0.37692-0.06704-0.53711-0.0918-0.1602-0.02475-0.0026-0.06836-0.76758-0.06836-1.3358 0-2.2978 0.72472-2.7773 1.2305-0.47956 0.5057-0.6752 0.89869-0.82812 1.2207-0.30585 0.64399-0.39814 1.0789-0.48828 1.5234-0.18028 0.88921-0.23744 1.763-0.19336 2.7617 0.16582 3.7569 1.738 7.1565 3.7559 11.275 1.9722 4.0254 4.3933 8.0957 7.1387 11.045l2.4727 3.084-5.0488 10.615c-3.4121 6.1304-5.6021 10.424-6.6465 14.953-1.058 4.5884-0.74339 9.044 0.26562 14.707l0.0078 0.0449 0.0098 0.0488c0.93125 4.6492 1.076 6.4352 0.0059 12.029-1.0703 5.5943-3.5198 14.615-7.7734 31.586-4.1894 16.524-6.4686 25.862-7.4199 31.965-0.47577 3.0523-0.64635 5.3454-0.38867 7.4746s1.1146 4.0386 2.041 5.3594c1.4831 2.1141 2.7866 2.6159 4.6445 3.7324 1.858 1.1166 4.0745 2.2802 6.3359 3.3633s4.5538 2.0774 6.5566 2.8301c2.0029 0.75267 3.2863 1.372 5.4102 1.373h2e-3c3.1074 9.4e-4 5.8782-1.2576 9.166-2.8086 3.2877-1.551 6.6307-3.4864 9.1836-5.5273 2.9499-2.3587 5.0578-5.0965 6.1016-8.2695s1.046-6.4 0.81836-9.9453c-0.07699-1.199-0.05624-1.8758-0.0293-2.168-0.04517 0.12836 0.93428-0.63665 3-2.4062 10.796-9.2482 18.561-15.67 25.203-27.076l0.0234-0.0371 0.0195-0.0391c3.2688-5.8904 5.5102-12.508 6.8555-18.863 0.37875 0.39821 0.81089 0.7884 1.1465 1.1875 1.9807 2.5939 2.7894 5.7335 2.7285 9.6309-0.0613 3.9241-1.1008 8.4849-2.7207 13.031-3.2398 9.0923-8.7422 18.082-11.973 22.773-18.503 26.678-27.743 42.732-27.992 60.885l-0.19336 14.09h163.95l0.85157-2.916c10.812-37.082 8.1295-87.653-4.418-116.93l-3.9434 0.84961-0.0469-0.0937 3.8965-0.96485-2.6289-5.3242 8.8867-9.8555-4.7461-8.7715c-5.44-10.052-13.484-19.816-23.566-26.949-2.5032-1.7708-5.3731-3.6412-7.7285-5.1309-0.60772-0.38433-1.0411-0.64623-1.5644-0.9707 1.0774-2.8488 2.581-6.7094 4.2012-10.172l1.375-2.9375-5.7617-5.291c-11.697-10.742-24.815-17.943-40.988-21.941-7.1843-1.7764-17.455-2.6489-28.121-2.5957zm0.11328 6.8711c10.393-0.04177 20.328 0.75307 26.619 2.3086 15.318 3.7871 27.341 10.402 38.346 20.508l2.0684 1.9023c-2.4858 5.6257-4.9277 12.256-4.9277 12.256l-0.81055 2.252 2.0215 1.0215c-0.0863-0.0436 0.57502 0.32701 1.3457 0.79492 0.77068 0.46786 1.7919 1.0985 2.9394 1.8242 2.2952 1.4515 5.1052 3.2853 7.4629 4.9531 9.1627 6.4831 16.626 15.528 21.596 24.711l2.3418 4.3281-8.75 9.7051 4.7305 9.5996c11.289 26.386 14.153 75.302 4.5332 110.21h-152.95l0.09961-7.2383c0.21511-15.707 8.3769-30.442 26.756-56.939l2e-3 -4e-3 4e-3 -4e-3c3.4672-5.0344 9.2032-14.317 12.789-24.381 1.793-5.0314 3.0594-10.265 3.1387-15.346 0.0793-5.0803-1.0925-10.086-4.2148-14.131l-0.0312-0.0391-0.0293-0.0371c-1.9031-2.2787-4.3195-4.542-7.2617-6.4746l-3.166-2.0762-0.4336 3.9785c-0.80109 7.3383-3.2362 16.126-7.1562 23.201-6.0404 10.365-12.96 16.09-23.785 25.363-1.8172 1.5568-3.0309 2.0378-4.2129 3.6856-0.59102 0.82386-0.96997 1.9176-1.1016 2.9961-0.13159 1.0785-0.10123 2.2017-0.0078 3.6562 0.20612 3.2101 0.10685 5.4552-0.4707 7.2109-0.57754 1.7557-1.6192 3.2565-3.9316 5.1055-1.9256 1.5395-5.0411 3.3865-7.9727 4.7695-2.9315 1.3831-5.9607 2.2463-6.6738 2.2461 0.0658 1e-4 -1.591-0.3291-3.3711-0.99804-1.78-0.66895-3.9518-1.6105-6.0781-2.6289-2.1264-1.0184-4.2154-2.1184-5.832-3.0898-1.6165-0.97151-2.879-2.1648-2.7031-1.9141-0.49529-0.70611-0.69824-1.1134-0.82422-2.1543-0.12597-1.041-0.07068-2.7511 0.35352-5.4727 0.84838-5.4423 3.1025-14.808 7.2871-31.312l2e-3 -2e-3v-4e-3c4.2408-16.919 6.6815-25.832 7.8594-31.988 1.1732-6.132 0.99468-9.7648-0.0039-14.771-0.94477-5.3007-1.1132-8.4374-0.33984-11.791 0.77332-3.3536 2.6244-7.1744 6.0449-13.311l0.04102-0.07617 7.0391-14.791-5.3496-6.668-0.07422-0.07813c-1.9435-2.0394-4.3485-5.8825-6.1562-9.5723-1.589-3.2434-2.5635-6.3485-2.834-7.6758 1.2072 0.23375 2.6944 0.52732 4.3398 0.86524 12.497 2.5666 37.272 1.5337 52.342-1.7793 8.1117-1.7834 18.959-2.6613 29.352-2.7031zm-23.418 19.621v9.9453c92.522 0 106.19 106.33 90.023 172.65l20.365-0.0762c14.286-66.021 3.2945-182.52-110.39-182.52zm-37.303 37.617c-5.7038 6.6668-11.069 12.82-16.773 19.486 0.79791 0.40751 3.4111 1.6122 6.3086 1.1504 2.8155-0.4488 5.3796-2.4966 6.3398-3.6406 0.96032-1.1439 4.464-6.6281 4.125-16.996zm157.54 37.182 0.0273 0.0566-2.041 0.4414z" fill="#050505" style="font-feature-settings:normal;font-variant-alternates:normal;font-variant-caps:normal;font-variant-east-asian:normal;font-variant-ligatures:normal;font-variant-numeric:normal;font-variant-position:normal;font-variation-settings:normal;inline-size:0;isolation:auto;mix-blend-mode:normal;shape-margin:0;shape-padding:0;text-decoration-color:#000000;text-decoration-line:none;text-decoration-style:solid;text-indent:0;text-orientation:mixed;text-transform:none;white-space:normal"/>
  </g>
  <g transform="matrix(.90765 0 0 .98289 608.49 4.3591)">
   <path d="m145.67 31c-11.751 0.05405-23.936 1.0496-33.581 3.0078-15.373 3.1211-43.326 4.0117-55.016 1.7949-1.9795-0.37539-3.8331-0.71702-5.2394-0.9668-0.70315-0.12489-1.2936-0.2265-1.7478-0.30078-0.22709-0.03714-0.4163-0.06661-0.59279-0.0918-0.1765-0.02518-0.0025-0.07031-0.84539-0.07031-1.4717 0-2.5314 0.73745-3.0597 1.252-0.52835 0.5145-0.74413 0.91458-0.91262 1.2422-0.33697 0.6552-0.43848 1.0965-0.53779 1.5488-0.19862 0.90469-0.26246 1.7944-0.2139 2.8105 0.18269 3.8223 1.9162 7.2804 4.1394 11.471 2.1729 4.0955 4.8405 8.2374 7.8652 11.238l2.7236 3.1367-5.5633 10.801c-3.7593 6.2371-6.1707 10.605-7.3213 15.213-1.1656 4.6683-0.82038 9.2014 0.2913 14.963l0.01022 0.0469 0.01022 0.0488c1.026 4.7301 1.1852 6.5465 0.0062 12.238-1.1792 5.6917-3.8775 14.871-8.5639 32.137-4.6157 16.812-7.1268 26.312-8.1749 32.521-0.52418 3.1055-0.71169 5.4372-0.42779 7.6035s1.2262 4.1093 2.2469 5.4531c1.634 2.1509 3.0702 2.6628 5.1172 3.7988s4.4896 2.318 6.9811 3.4199 5.0169 2.1151 7.2235 2.8809c2.2067 0.76578 3.6205 1.3954 5.9605 1.3965h0.0021c3.4236 9.5e-4 6.4777-1.2794 10.1-2.8574 3.6222-1.578 7.3054-3.5465 10.118-5.623 3.25-2.3998 5.5724-5.1858 6.7224-8.4141 1.15-3.2282 1.1512-6.512 0.9004-10.119-0.08482-1.2199-0.06227-1.9078-0.03259-2.2051-0.04977 0.13059 1.0303-0.64879 3.3062-2.4492 11.894-9.4092 20.45-15.942 27.768-27.547l0.0244-0.0371 0.0224-0.0391c3.6014-5.9929 6.0714-12.727 7.5536-19.193 0.41729 0.40514 0.89325 0.80295 1.263 1.209 2.1822 2.6391 3.0718 5.8336 3.0047 9.7988-0.0675 3.9924-1.2119 8.6325-2.9966 13.258-3.5694 9.2506-9.6308 18.397-13.19 23.17-20.386 27.142-30.568 43.474-30.842 61.943l-0.21186 14.336h180.63l0.9391-2.9668c11.912-37.728 8.9554-89.18-4.8687-118.97l-4.3451 0.86524-0.0509-0.0957 4.2922-0.98047-2.8947-5.418 9.7903-10.027-5.2292-8.9238c-5.9935-10.227-14.857-20.161-25.965-27.418-2.7579-1.8016-5.9179-3.7051-8.513-5.2207-0.66955-0.39102-1.1488-0.65816-1.7254-0.98828 1.187-2.8984 2.8433-6.8253 4.6283-10.348l1.5156-2.9883-6.3476-5.3828c-12.887-10.929-27.339-18.256-45.158-22.324-7.9153-1.8073-19.233-2.6947-30.984-2.6406z" color="#000000" color-rendering="auto" dominant-baseline="auto" fill="#050505" image-rendering="auto" shape-rendering="auto" solid-color="#000000" stop-color="#000000" style="font-feature-settings:normal;font-variant-alternates:normal;font-variant-caps:normal;font-variant-east-asian:normal;font-variant-ligatures:normal;font-variant-numeric:normal;font-variant-position:normal;font-variation-settings:normal;inline-size:0;isolation:auto;mix-blend-mode:normal;shape-margin:0;shape-padding:0;text-decoration-color:#000000;text-decoration-line:none;text-decoration-style:solid;text-indent:0;text-orientation:mixed;text-transform:none;white-space:normal"/>
   <g transform="translate(.087197)" fill="#fafafa">
    <path d="m120 57.951c125.25 0 137.36 118.53 121.62 185.7l-22.438 0.0775c17.806-67.482 2.7522-175.66-99.184-175.66z"/>
    <path d="m78.815 96.22c-6.2849 6.7837-12.196 13.044-18.481 19.827 0.87909 0.41461 3.7587 1.6408 6.951 1.1709 3.102-0.45661 5.9255-2.5394 6.9835-3.7034 1.0581-1.1639 4.9202-6.7452 4.5461-17.295z" stroke-width="1.1971"/>
   </g>
  </g>
  <g transform="matrix(.90765 0 0 .98289 8.869 4.3591)">
   <path d="m145.67 31c-11.751 0.05405-23.936 1.0496-33.581 3.0078-15.373 3.1211-43.326 4.0117-55.016 1.7949-1.9795-0.37539-3.8331-0.71702-5.2394-0.9668-0.70315-0.12489-1.2936-0.2265-1.7478-0.30078-0.22709-0.03714-0.4163-0.06661-0.59279-0.0918-0.1765-0.02518-0.0025-0.07031-0.84539-0.07031-1.4717 0-2.5314 0.73745-3.0597 1.252-0.52835 0.5145-0.74413 0.91458-0.91262 1.2422-0.33697 0.6552-0.43848 1.0965-0.53779 1.5488-0.19862 0.90469-0.26246 1.7944-0.2139 2.8105 0.18269 3.8223 1.9162 7.2804 4.1394 11.471 2.1729 4.0955 4.8405 8.2374 7.8652 11.238l2.7236 3.1367-5.5633 10.801c-3.7593 6.2371-6.1707 10.605-7.3213 15.213-1.1656 4.6683-0.82038 9.2014 0.2913 14.963l0.01022 0.0469 0.01022 0.0488c1.026 4.7301 1.1852 6.5465 0.0062 12.238-1.1792 5.6917-3.8775 14.871-8.5639 32.137-4.6157 16.812-7.1268 26.312-8.1749 32.521-0.52418 3.1055-0.71169 5.4372-0.42779 7.6035s1.2262 4.1093 2.2469 5.4531c1.634 2.1509 3.0702 2.6628 5.1172 3.7988s4.4896 2.318 6.9811 3.4199 5.0169 2.1151 7.2235 2.8809c2.2067 0.76578 3.6205 1.3954 5.9605 1.3965h0.0021c3.4236 9.5e-4 6.4777-1.2794 10.1-2.8574 3.6222-1.578 7.3054-3.5465 10.118-5.623 3.25-2.3998 5.5724-5.1858 6.7224-8.4141 1.15-3.2282 1.1512-6.512 0.9004-10.119-0.08482-1.2199-0.06227-1.9078-0.03259-2.2051-0.04977 0.13059 1.0303-0.64879 3.3062-2.4492 11.894-9.4092 20.45-15.942 27.768-27.547l0.0244-0.0371 0.0224-0.0391c3.6014-5.9929 6.0714-12.727 7.5536-19.193 0.41729 0.40514 0.89325 0.80295 1.263 1.209 2.1822 2.6391 3.0718 5.8336 3.0047 9.7988-0.0675 3.9924-1.2119 8.6325-2.9966 13.258-3.5694 9.2506-9.6308 18.397-13.19 23.17-20.386 27.142-30.568 43.474-30.842 61.943l-0.21186 14.336h180.63l0.9391-2.9668c11.912-37.728 8.9554-89.18-4.8687-118.97l-4.3451 0.86524-0.0509-0.0957 4.2922-0.98047-2.8947-5.418 9.7903-10.027-5.2292-8.9238c-5.9935-10.227-14.857-20.161-25.965-27.418-2.7579-1.8016-5.9179-3.7051-8.513-5.2207-0.66955-0.39102-1.1488-0.65816-1.7254-0.98828 1.187-2.8984 2.8433-6.8253 4.6283-10.348l1.5156-2.9883-6.3476-5.3828c-12.887-10.929-27.339-18.256-45.158-22.324-7.9153-1.8073-19.233-2.6947-30.984-2.6406z" color="#000000" color-rendering="auto" dominant-baseline="auto" fill="#050505" image-rendering="auto" shape-rendering="auto" solid-color="#000000" stop-color="#000000" style="font-feature-settings:normal;font-variant-alternates:normal;font-variant-caps:normal;font-variant-east-asian:normal;font-variant-ligatures:normal;font-variant-numeric:normal;font-variant-position:normal;font-variation-settings:normal;inline-size:0;isolation:auto;mix-blend-mode:normal;shape-margin:0;shape-padding:0;text-decoration-color:#000000;text-decoration-line:none;text-decoration-style:solid;text-indent:0;text-orientation:mixed;text-transform:none;white-space:normal"/>
   <path d="m145.8 37.99c-11.45 0.04258-23.402 0.93558-32.339 2.75-16.603 3.3707-43.897 4.4218-57.666 1.8105-1.8129-0.3438-3.4511-0.64304-4.7811-0.88086 0.29803 1.3504 1.3701 4.5087 3.1208 7.8086 1.9917 3.754 4.6423 7.6653 6.7835 9.7402l0.08149 0.07813 5.8933 6.7852-7.7552 15.049-0.04482 0.07617c-3.7686 6.243-5.8073 10.131-6.6593 13.543s-0.66811 6.603 0.37279 11.996c1.1002 5.0938 1.2987 8.7903 0.0062 15.029-1.2977 6.2637-3.9874 15.331-8.6597 32.545v4e-3l-0.0021 2e-3c-4.6104 16.792-7.0935 26.32-8.0282 31.857-0.46736 2.7689-0.52991 4.5093-0.39112 5.5684 0.13879 1.059 0.36286 1.473 0.90854 2.1914-0.19378-0.25508 1.1972 0.95888 2.9782 1.9473 1.7811 0.9884 4.0843 2.1084 6.427 3.1445s4.7348 1.9932 6.6959 2.6738c1.9612 0.68058 3.7861 1.0157 3.7136 1.0156 0.78566 2.2e-4 4.1241-0.87806 7.3539-2.2852 3.2298-1.4071 6.6604-3.2853 8.7819-4.8516 2.5477-1.8812 3.6966-3.409 4.3329-5.1953 0.63632-1.7863 0.74655-4.0699 0.51946-7.3359-0.1029-1.4799-0.13683-2.6234 0.0081-3.7207 0.14498-1.0973 0.56095-2.2106 1.2121-3.0488 1.3023-1.6764 2.6404-2.1641 4.6425-3.748 11.927-9.4351 19.55-15.26 26.205-25.805 4.3189-7.1985 7.003-16.139 7.8856-23.605l0.47668-4.0488 3.4875 2.1133c3.2416 1.9662 5.905 4.2675 8.0017 6.5859l0.0325 0.0391 0.0346 0.0391c3.44 4.1148 4.7299 9.2083 4.6425 14.377s-1.4816 10.494-3.457 15.613c-3.9507 10.239-10.271 19.683-14.091 24.805l-4e-3 4e-3 -2e-3 4e-3c-20.249 26.959-29.24 41.951-29.477 57.931l-0.11 7.3633h168.51c10.599-35.517 7.4431-85.285-4.995-112.13l-5.2109-9.7656 9.6395-9.875-2.579-4.4024c-5.4753-9.343-13.698-18.545-23.793-25.141-2.5976-1.6969-5.6951-3.5623-8.2238-5.0391-1.2643-0.73836-2.3878-1.3814-3.2369-1.8574-0.84909-0.47606-1.5781-0.85295-1.483-0.80859l-2.2266-1.0391 0.89225-2.291s2.6901-6.7454 5.4288-12.469l-2.2795-1.9355c-12.124-10.282-25.37-17.012-42.247-20.865-6.9312-1.5826-17.878-2.3902-29.328-2.3477zm106.67 96.061-2.2184 0.50586 2.2489-0.44726z" color="#000000" color-rendering="auto" dominant-baseline="auto" fill="#fafafa" image-rendering="auto" shape-rendering="auto" solid-color="#000000" stop-color="#000000" style="font-feature-settings:normal;font-variant-alternates:normal;font-variant-caps:normal;font-variant-east-asian:normal;font-variant-ligatures:normal;font-variant-numeric:normal;font-variant-position:normal;font-variation-settings:normal;inline-size:0;isolation:auto;mix-blend-mode:normal;shape-margin:0;shape-padding:0;text-decoration-color:#000000;text-decoration-line:none;text-decoration-style:solid;text-indent:0;text-orientation:mixed;text-transform:none;white-space:normal"/>
   <path d="m78.902 96.22c-6.2849 6.7837-12.196 13.044-18.481 19.827 0.87909 0.41461 3.7587 1.6408 6.951 1.1709 3.102-0.45661 5.9255-2.5394 6.9835-3.7034 1.0581-1.1639 4.9202-6.7452 4.5461-17.295z" fill="#050505" stroke-width="1.1971"/>
  </g>
 </g>
 <g transform="translate(-3.8244 85.214)">
  <path d="m101.05 262.44v20.533h11.088c2.7573 0 4.8498-0.48901 6.2773-1.4668 1.4471-0.99734 2.1719-2.3865 2.1719-4.166 0-1.1929-0.30393-2.2002-0.91016-3.0215-0.58666-0.84089-1.4186-1.476-2.4941-1.9062-0.13137-0.0549-0.27325-0.0963-0.41016-0.14453 0.82799-0.44308 1.4899-0.99538 1.9648-1.6738 0.5671-0.80178 0.85156-1.7311 0.85156-2.7871 0-1.6036-0.66437-2.8933-1.9941-3.8711-1.3298-0.99732-3.3443-1.4961-6.043-1.4961zm5.75 4.1953h3.9883c0.97778 0 1.7123 0.16561 2.2012 0.49805 0.48889 0.31289 0.73242 0.80191 0.73242 1.4668 0 0.66488-0.24353 1.1636-0.73242 1.4961-0.48889 0.33244-1.2234 0.49805-2.2012 0.49805h-3.9883zm27.191 0.17578c-1.5058 0-2.7858 0.30199-3.8418 0.90821-0.59493 0.33051-1.0874 0.76809-1.4961 1.291v-1.9355h-5.3106v15.898h5.5742v-7.3047c0-1.3884 0.35264-2.386 1.0566-2.9922 0.704-0.62578 1.6216-0.9375 2.7559-0.9375 0.21511 0 0.41189 0.01 0.58789 0.0293 0.19556-1e-5 0.41961 0.0195 0.67383 0.0586zm8.1055 0c-1.2516 0-2.5121 0.16561-3.7832 0.49805-1.2516 0.31289-2.327 0.76294-3.2266 1.3496l1.877 3.7832c0.54756-0.43022 1.2119-0.76142 1.9941-0.99609 0.78222-0.25422 1.5557-0.38281 2.3184-0.38281 1.1733 0 2.0228 0.24549 2.5508 0.73437 0.49589 0.42505 0.75595 1.0272 0.80273 1.7891h-3.1484c-1.6427 0-2.9831 0.19483-4.0195 0.58594-1.0364 0.37156-1.808 0.91903-2.3164 1.6426-0.48889 0.704-0.73438 1.5457-0.73438 2.5234 0 0.9191 0.22601 1.751 0.67579 2.4941 0.46933 0.7431 1.1434 1.3295 2.0234 1.7598 0.88 0.43023 1.9555 0.64453 3.2266 0.64453 1.3884 0 2.5029-0.27275 3.3438-0.82031 0.58359-0.38464 1.0269-0.90176 1.3496-1.5293v2.0859h5.1934v-8.8301c0-2.5227-0.71502-4.3696-2.1426-5.543-1.408-1.1929-3.403-1.7891-5.9844-1.7891zm22 0c-1.3298 0-2.5221 0.29224-3.5781 0.87891-0.55093 0.29586-1.0383 0.67531-1.4668 1.1309v-1.7461h-5.3086v15.898h5.5723v-7.6855c0-0.88 0.13833-1.5931 0.41211-2.1406 0.27377-0.54755 0.65369-0.9489 1.1426-1.2031 0.48889-0.27378 1.0266-0.41016 1.6133-0.41016 0.82133 0 1.4584 0.26302 1.9082 0.79102 0.46934 0.50844 0.70313 1.3306 0.70313 2.4648v8.1836h5.5742v-9.0938c0-1.6427-0.2942-2.9811-0.88086-4.0176-0.56712-1.0364-1.3503-1.8002-2.3477-2.2891-0.99733-0.50844-2.1118-0.76172-3.3438-0.76172zm18.389 0c-1.76 0-3.3342 0.35069-4.7226 1.0547-1.3689 0.68444-2.4444 1.643-3.2266 2.875s-1.1719 2.6504-1.1719 4.2539c0 1.6036 0.38965 3.0316 1.1719 4.2832 0.78222 1.232 1.8577 2.1983 3.2266 2.9023 1.3884 0.704 2.9626 1.0566 4.7226 1.0566 1.7991 0 3.3538-0.38186 4.6641-1.1445 1.3102-0.76266 2.2396-1.8381 2.7871-3.2266l-4.3125-2.1992c-0.37156 0.74311-0.8294 1.2906-1.377 1.6426-0.54755 0.33245-1.1457 0.49805-1.791 0.49805-0.64534 0-1.2318-0.14612-1.7598-0.43946-0.528-0.29333-0.94688-0.7239-1.2598-1.291-0.29334-0.56711-0.44141-1.2607-0.44141-2.082 0-0.80178 0.14807-1.4759 0.44141-2.0234 0.31288-0.56711 0.73176-0.99768 1.2598-1.291 0.528-0.29333 1.1144-0.4414 1.7598-0.4414 0.64533 0 1.2435 0.1773 1.791 0.5293 0.54756 0.33244 1.0054 0.87016 1.377 1.6133l4.3125-2.2012c-0.54756-1.3884-1.4769-2.4639-2.7871-3.2266-1.3102-0.76266-2.865-1.1426-4.6641-1.1426zm17.369 0c-1.7404 0-3.2854 0.35069-4.6348 1.0547-1.3493 0.68444-2.415 1.643-3.1973 2.875-0.76266 1.232-1.1445 2.6504-1.1445 4.2539 0 1.6036 0.38187 3.0316 1.1445 4.2832 0.78222 1.232 1.8479 2.1983 3.1973 2.9023 1.3493 0.704 2.8943 1.0566 4.6348 1.0566 1.7404 1e-5 3.2835-0.35264 4.6328-1.0566 1.3689-0.704 2.4346-1.6703 3.1973-2.9023 0.76267-1.2516 1.1445-2.6796 1.1445-4.2832 0-1.6036-0.38186-3.0219-1.1445-4.2539-0.76266-1.232-1.8284-2.1906-3.1973-2.875-1.3493-0.704-2.8924-1.0547-4.6328-1.0547zm0 4.4277c0.64534 0 1.2123 0.14807 1.7012 0.4414 0.50844 0.29334 0.90783 0.72391 1.2012 1.291 0.29333 0.54755 0.4414 1.2217 0.4414 2.0234 0 0.80177-0.14807 1.4954-0.4414 2.082-0.29334 0.56711-0.69273 0.99768-1.2012 1.291-0.48889 0.29334-1.0558 0.43946-1.7012 0.43946-0.62577 0-1.1947-0.14612-1.7031-0.43946-0.48889-0.29333-0.88829-0.7239-1.2012-1.291-0.29334-0.58667-0.44141-1.2803-0.44141-2.082 0-0.80178 0.14807-1.4759 0.44141-2.0234 0.31288-0.56711 0.71228-0.99768 1.2012-1.291 0.50845-0.29333 1.0774-0.4414 1.7031-0.4414zm-93.055 3.375h4.8691c0.99733 0 1.7494 0.17534 2.2578 0.52734 0.528 0.33244 0.79297 0.85069 0.79297 1.5547s-0.26497 1.232-0.79297 1.584c-0.50845 0.33244-1.2605 0.49805-2.2578 0.49805h-4.8691zm35.443 1.877h2.4062v1.3789c-0.23467 0.62578-0.60679 1.0953-1.1152 1.4082-0.48889 0.29333-1.0364 0.43945-1.6426 0.43945-0.64533 0-1.1538-0.14612-1.5254-0.43945s-0.55664-0.68494-0.55664-1.1738c0-0.48888 0.17535-0.88049 0.52735-1.1738 0.37156-0.29333 1.0067-0.43945 1.9062-0.43945z"/>
  <path d="m412.24 262.44v20.533h5.8066v-5.3691h3.5801c1.8773 0 3.4905-0.30198 4.8398-0.9082 1.3689-0.62578 2.4249-1.5064 3.168-2.6406s1.1133-2.4727 1.1133-4.0176c0-1.5644-0.37017-2.9146-1.1133-4.0488-0.74311-1.1538-1.7991-2.0344-3.168-2.6406-1.3493-0.60622-2.9625-0.9082-4.8398-0.9082zm53.471 1.0859v4.1348h-2.3184v4.166h2.3184v5.3379c0 2.0338 0.56695 3.5593 1.7012 4.5762 1.1342 0.99733 2.7182 1.4961 4.752 1.4961 0.74311 1e-5 1.4562-0.0779 2.1406-0.23437 0.68444-0.13689 1.2611-0.36289 1.7305-0.67578l-1.3789-3.9004c-0.46933 0.33244-1.0363 0.49804-1.7012 0.49804-0.48889 0-0.89024-0.15586-1.2031-0.46874-0.31288-0.33245-0.46875-0.78251-0.46875-1.3496v-5.2793h3.6367v-4.166h-3.6367v-4.1348zm-21.623 3.2852c-1.5058 0-2.7878 0.30199-3.8438 0.90821-0.59565 0.33091-1.0871 0.76917-1.4961 1.293v-1.9375h-5.3086v15.898h5.5742v-7.3047c0-1.3884 0.35069-2.386 1.0547-2.9922 0.704-0.62578 1.6236-0.9375 2.7578-0.9375 0.21512 0 0.40994 0.01 0.58594 0.0293 0.19555-1e-5 0.42156 0.0195 0.67578 0.0586zm9.8887 0c-1.6622 0-3.1585 0.35069-4.4883 1.0547-1.3298 0.68444-2.376 1.6527-3.1387 2.9043-0.74311 1.232-1.1133 2.6406-1.1133 4.2246s0.37991 3.0024 1.1426 4.2539c0.78222 1.232 1.8674 2.2081 3.2559 2.9316 1.408 0.704 3.0524 1.0566 4.9297 1.0566 1.5253 1e-5 2.8443-0.2143 3.959-0.64453 1.1147-0.44977 2.0537-1.0966 2.8164-1.9375l-2.9336-3.0508c-0.54755 0.46934-1.1048 0.82198-1.6719 1.0566-0.54756 0.21512-1.2119 0.32227-1.9941 0.32227-0.84089 0-1.5656-0.14612-2.1719-0.43945-0.60622-0.31289-1.0758-0.7532-1.4082-1.3203-0.1338-0.24251-0.23201-0.50917-0.3086-0.79101h11.543c0.0196-0.21512 0.041-0.45086 0.0605-0.70508s0.0293-0.47828 0.0293-0.67383c0-1.76-0.38187-3.2563-1.1445-4.4883-0.76266-1.232-1.7894-2.1613-3.0801-2.7871-1.2907-0.64533-2.7188-0.9668-4.2832-0.9668zm31.711 0c-1.7404 0-3.2854 0.35069-4.6348 1.0547-1.3493 0.68444-2.415 1.643-3.1973 2.875-0.76267 1.232-1.1426 2.6504-1.1426 4.2539 0 1.6036 0.37991 3.0316 1.1426 4.2832 0.78222 1.232 1.8479 2.1983 3.1973 2.9023 1.3493 0.704 2.8943 1.0566 4.6348 1.0566 1.7404 1e-5 3.2854-0.35264 4.6348-1.0566 1.3689-0.704 2.4346-1.6703 3.1973-2.9023 0.76267-1.2516 1.1445-2.6796 1.1445-4.2832 0-1.6036-0.38186-3.0219-1.1445-4.2539-0.76266-1.232-1.8284-2.1906-3.1973-2.875-1.3493-0.704-2.8943-1.0547-4.6348-1.0547zm-67.641 0.20508h3.2266c1.2124 0 2.1126 0.26302 2.6992 0.79102 0.60622 0.528 0.91015 1.2722 0.91015 2.2305 0 0.93866-0.30393 1.6712-0.91015 2.1992-0.58667 0.528-1.4868 0.79297-2.6992 0.79297h-3.2266zm35.959 3.7539c0.66489 0 1.2416 0.14612 1.7305 0.43945 0.50845 0.29333 0.90005 0.70442 1.1738 1.2324 0.1754 0.31576 0.28804 0.67096 0.35156 1.0566h-6.4922c0.0666-0.37425 0.17243-0.71954 0.33203-1.0273 0.27378-0.54756 0.65565-0.96839 1.1445-1.2617 0.50844-0.29333 1.0949-0.43945 1.7598-0.43945zm31.682 0.46875c0.64533 0 1.2123 0.14807 1.7012 0.4414 0.50845 0.29334 0.90979 0.72391 1.2031 1.291 0.29333 0.54755 0.43945 1.2217 0.43945 2.0234 0 0.80177-0.14612 1.4954-0.43945 2.082-0.29334 0.56711-0.69468 0.99768-1.2031 1.291-0.48888 0.29334-1.0558 0.43946-1.7012 0.43946-0.62578 0-1.1927-0.14612-1.7012-0.43946-0.48889-0.29333-0.89023-0.7239-1.2031-1.291-0.29333-0.58667-0.43945-1.2803-0.43945-2.082 0-0.80178 0.14612-1.4759 0.43945-2.0234 0.3129-0.56711 0.71424-0.99768 1.2031-1.291 0.50844-0.29333 1.0754-0.4414 1.7012-0.4414z"/>
  <path d="m835.05 259.39c-1.0169 0-1.8391 0.28249-2.4648 0.84961-0.62578 0.5671-0.9375 1.2724-0.9375 2.1133s0.31172 1.5442 0.9375 2.1113c0.62577 0.56711 1.448 0.85156 2.4648 0.85156 1.0364 0 1.8567-0.28445 2.4629-0.85156 0.62578-0.58666 0.93945-1.3192 0.93945-2.1992 0-0.84089-0.31367-1.5267-0.93945-2.0547-0.62577-0.54756-1.446-0.82031-2.4629-0.82031zm-44.852 1.3203-3.9297 4.459h3.9883l5.5156-4.459zm-17.629 0.49805v21.766h5.5742v-21.766zm-11.146 0.82226c-1.6231 0-3.1291 0.26302-4.5176 0.79102-1.3689 0.50845-2.5612 1.241-3.5781 2.1992-0.99732 0.95822-1.7805 2.0941-2.3476 3.4043-0.56712 1.2907-0.84961 2.7168-0.84961 4.2813s0.28249 3.0023 0.84961 4.3125c0.56711 1.2907 1.3503 2.4148 2.3476 3.373 1.0169 0.95822 2.2092 1.7025 3.5781 2.2305 1.3884 0.50844 2.8945 0.76172 4.5176 0.76172 1.8969 0 3.588-0.33121 5.0742-0.99609 1.5058-0.68445 2.7585-1.643 3.7558-2.875l-3.6973-3.3438c-0.66489 0.78222-1.3974 1.3784-2.1992 1.7891-0.78222 0.41066-1.6628 0.61523-2.6406 0.61523-0.84088 0-1.6124-0.13638-2.3164-0.41015-0.704-0.27378-1.3099-0.66539-1.8184-1.1738-0.48889-0.528-0.8805-1.1534-1.1738-1.877-0.27378-0.72355-0.41016-1.5262-0.41015-2.4062-1e-5 -0.88 0.13637-1.6808 0.41015-2.4043 0.29333-0.72356 0.68494-1.3392 1.1738-1.8477 0.50845-0.528 1.1144-0.92935 1.8184-1.2031 0.704-0.27378 1.4755-0.41016 2.3164-0.41016 0.97778 0 1.8584 0.20457 2.6406 0.61524 0.80178 0.41066 1.5343 1.0068 2.1992 1.7891l3.6973-3.3438c-0.99733-1.2516-2.2501-2.2101-3.7558-2.875-1.4862-0.66489-3.1773-0.9961-5.0742-0.9961zm-104.04 0.41016v20.533h5.8086v-5.3691h3.5781c1.8773 0 3.4905-0.30198 4.8398-0.9082 1.3689-0.62578 2.4249-1.5064 3.168-2.6406s1.1152-2.4727 1.1152-4.0176c0-1.5644-0.37212-2.9146-1.1152-4.0488-0.74311-1.1538-1.7991-2.0344-3.168-2.6406-1.3493-0.60622-2.9625-0.9082-4.8398-0.9082zm53.471 1.0859v4.1348h-2.3184v4.166h2.3184v5.3379c0 2.0338 0.56695 3.5593 1.7012 4.5762 1.1342 0.99733 2.7182 1.4961 4.752 1.4961 0.74311 1e-5 1.4562-0.0779 2.1406-0.23437 0.68445-0.13689 1.2631-0.36289 1.7324-0.67578l-1.3789-3.9004c-0.46934 0.33244-1.0363 0.49804-1.7012 0.49804-0.48888 0-0.89023-0.15586-1.2031-0.46874-0.31289-0.33245-0.4707-0.78251-0.4707-1.3496v-5.2793h3.6387v-4.166h-3.6387v-4.1348zm-21.623 3.2852c-1.5058 0-2.7858 0.30199-3.8418 0.90821-0.59493 0.33051-1.0874 0.76809-1.4961 1.291v-1.9355h-5.3105v15.898h5.5742v-7.3047c0-1.3884 0.35265-2.386 1.0566-2.9922 0.704-0.62578 1.6216-0.9375 2.7558-0.9375 0.21511 0 0.4119 0.01 0.5879 0.0293 0.19556-1e-5 0.4196 0.0195 0.67382 0.0586zm9.8906 0c-1.6622 0-3.1585 0.35069-4.4883 1.0547-1.3298 0.68444-2.376 1.6527-3.1387 2.9043-0.74312 1.232-1.1152 2.6406-1.1152 4.2246s0.38187 3.0024 1.1445 4.2539c0.78222 1.232 1.8674 2.2081 3.2559 2.9316 1.408 0.704 3.0504 1.0566 4.9277 1.0566 1.5253 1e-5 2.8443-0.2143 3.959-0.64453 1.1147-0.44977 2.0538-1.0966 2.8164-1.9375l-2.9336-3.0508c-0.54755 0.46934-1.1048 0.82198-1.6719 1.0566-0.54756 0.21512-1.2119 0.32227-1.9941 0.32227-0.84089 0-1.5637-0.14612-2.1699-0.43945-0.60622-0.31289-1.0758-0.7532-1.4082-1.3203-0.13382-0.24255-0.23396-0.50911-0.31054-0.79101h11.545c0.0196-0.21512 0.0391-0.45086 0.0586-0.70508s0.0293-0.47828 0.0293-0.67383c0-1.76-0.38187-3.2563-1.1445-4.4883s-1.7894-2.1613-3.0801-2.7871c-1.2907-0.64533-2.7168-0.9668-4.2812-0.9668zm31.711 0c-1.7404 0-3.2854 0.35069-4.6348 1.0547-1.3493 0.68444-2.415 1.643-3.1973 2.875-0.76267 1.232-1.1445 2.6504-1.1445 4.2539 0 1.6036 0.38187 3.0316 1.1445 4.2832 0.78222 1.232 1.8479 2.1983 3.1973 2.9023s2.8943 1.0566 4.6348 1.0566c1.7404 1e-5 3.2854-0.35264 4.6348-1.0566 1.3689-0.704 2.4346-1.6703 3.1973-2.9023 0.76266-1.2516 1.1426-2.6796 1.1426-4.2832 0-1.6036-0.37992-3.0219-1.1426-4.2539-0.76267-1.232-1.8284-2.1906-3.1973-2.875-1.3493-0.704-2.8943-1.0547-4.6348-1.0547zm57.697 0c-1.2516 0-2.5121 0.16561-3.7832 0.49805-1.2516 0.31289-2.327 0.76294-3.2266 1.3496l1.877 3.7832c0.54755-0.43022 1.2119-0.76142 1.9941-0.99609 0.78223-0.25422 1.5557-0.38281 2.3184-0.38281 1.1733 0 2.0228 0.24549 2.5508 0.73437 0.49589 0.42505 0.75595 1.0272 0.80274 1.7891h-3.1484c-1.6427 0-2.9831 0.19483-4.0195 0.58594-1.0364 0.37156-1.808 0.91903-2.3164 1.6426-0.48889 0.704-0.73437 1.5457-0.73438 2.5234 0 0.9191 0.22601 1.751 0.67579 2.4941 0.46933 0.7431 1.1434 1.3295 2.0234 1.7598 0.88 0.43023 1.9554 0.64453 3.2266 0.64453 1.3884 0 2.5028-0.27275 3.3438-0.82031 0.58425-0.38507 1.0268-0.90273 1.3496-1.5312v2.0879h5.1914v-8.8301c0-2.5227-0.71307-4.3696-2.1406-5.543-1.408-1.1929-3.403-1.7891-5.9844-1.7891zm18.451 0c-1.6622 0-3.0708 0.2338-4.2246 0.70313-1.1538 0.44977-2.0324 1.0752-2.6387 1.877-0.58666 0.78222-0.88086 1.6823-0.88086 2.6992 0 0.89955 0.1656 1.6418 0.49805 2.2285 0.33245 0.58666 0.77276 1.0562 1.3203 1.4082 0.56711 0.33245 1.1828 0.58767 1.8477 0.76367 0.68444 0.15644 1.3605 0.28308 2.0254 0.38086 0.66489 0.0978 1.2708 0.18545 1.8184 0.26367 0.56711 0.0782 1.0172 0.19512 1.3496 0.35156 0.352 0.13689 0.52734 0.36289 0.52734 0.67579 0 0.33244-0.18509 0.59546-0.55664 0.79101-0.352 0.19556-0.99883 0.29492-1.9375 0.29492-0.95822 0-1.9343-0.12858-2.9316-0.38281-0.99733-0.27377-1.8682-0.6342-2.6113-1.084l-1.6719 3.8125c0.78222 0.46933 1.809 0.86094 3.0801 1.1738 1.2907 0.31289 2.6096 0.46874 3.959 0.46874 1.7209 1e-5 3.1587-0.23379 4.3125-0.70312 1.1733-0.46933 2.054-1.0967 2.6406-1.8789 0.60623-0.78222 0.90821-1.6609 0.90821-2.6387 0-0.89955-0.16561-1.6341-0.49805-2.2012-0.33245-0.58667-0.7825-1.0465-1.3496-1.3789-0.54756-0.352-1.1632-0.61501-1.8476-0.79101-0.66489-0.176-1.3292-0.30263-1.9941-0.38086-0.66489-0.0978-1.2806-0.18545-1.8477-0.26367-0.54756-0.0978-0.98787-0.22637-1.3203-0.38282-0.33245-0.176-0.5-0.41953-0.5-0.73242 0-0.31288 0.18704-0.57785 0.55859-0.79297 0.39111-0.21511 1.0555-0.32226 1.9941-0.32226 0.704 0 1.4463 0.0877 2.2285 0.26367 0.78222 0.15645 1.5654 0.46038 2.3476 0.91016l1.6719-3.7852c-0.78222-0.44978-1.7505-0.78099-2.9043-0.99609-1.1342-0.23467-2.2584-0.35157-3.373-0.35157zm16.045 0c-1.6622 0-3.0708 0.2338-4.2246 0.70313-1.1538 0.44977-2.0325 1.0752-2.6387 1.877-0.58666 0.78222-0.88086 1.6823-0.88086 2.6992 0 0.89955 0.16756 1.6418 0.5 2.2285 0.33245 0.58666 0.7708 1.0562 1.3184 1.4082 0.56711 0.33245 1.1847 0.58767 1.8496 0.76367 0.68445 0.15644 1.3586 0.28308 2.0234 0.38086 0.66489 0.0978 1.2708 0.18545 1.8184 0.26367 0.56711 0.0782 1.0172 0.19512 1.3496 0.35156 0.352 0.13689 0.52734 0.36289 0.52734 0.67579 0 0.33244-0.18508 0.59546-0.55664 0.79101-0.352 0.19556-0.99688 0.29492-1.9355 0.29492-0.95822 0-1.9363-0.12858-2.9336-0.38281-0.99733-0.27377-1.8682-0.6342-2.6113-1.084l-1.6719 3.8125c0.78222 0.46933 1.809 0.86094 3.0801 1.1738 1.2907 0.31289 2.6096 0.46874 3.959 0.46874 1.7209 1e-5 3.1587-0.23379 4.3125-0.70312 1.1733-0.46933 2.054-1.0967 2.6406-1.8789 0.60622-0.78222 0.9082-1.6609 0.9082-2.6387 0-0.89955-0.16561-1.6341-0.49805-2.2012-0.33244-0.58667-0.78249-1.0465-1.3496-1.3789-0.54755-0.352-1.1632-0.61501-1.8476-0.79101-0.6649-0.176-1.3293-0.30263-1.9941-0.38086-0.66489-0.0978-1.2806-0.18545-1.8477-0.26367-0.54755-0.0978-0.98787-0.22637-1.3203-0.38282-0.33245-0.176-0.49805-0.41953-0.49805-0.73242 0-0.31288 0.18509-0.57785 0.55664-0.79297 0.39112-0.21511 1.0555-0.32226 1.9941-0.32226 0.704 0 1.4482 0.0877 2.2305 0.26367 0.78222 0.15645 1.5635 0.46038 2.3457 0.91016l1.6719-3.7852c-0.78222-0.44978-1.7505-0.78099-2.9043-0.99609-1.1342-0.23467-2.2584-0.35157-3.373-0.35157zm26.547 0c-1.76 0-3.3342 0.35069-4.7227 1.0547-1.3689 0.68444-2.4443 1.643-3.2266 2.875s-1.1738 2.6504-1.1738 4.2539c0 1.6036 0.39161 3.0316 1.1738 4.2832 0.78222 1.232 1.8577 2.1983 3.2266 2.9023 1.3884 0.704 2.9627 1.0566 4.7227 1.0566 1.7991 0 3.3538-0.38186 4.6641-1.1445 1.3102-0.76266 2.2396-1.8381 2.7871-3.2266l-4.3125-2.1992c-0.37155 0.74311-0.83134 1.2906-1.3789 1.6426-0.54756 0.33245-1.1437 0.49805-1.7891 0.49805-0.64533 0-1.2318-0.14612-1.7598-0.43946-0.528-0.29333-0.94883-0.7239-1.2617-1.291-0.29333-0.56711-0.43945-1.2607-0.43945-2.082 0-0.80178 0.14612-1.4759 0.43945-2.0234 0.31289-0.56711 0.73372-0.99768 1.2617-1.291 0.528-0.29333 1.1144-0.4414 1.7598-0.4414 0.64534 0 1.2415 0.1773 1.7891 0.5293 0.54756 0.33244 1.0074 0.87016 1.3789 1.6133l4.3125-2.2012c-0.54755-1.3884-1.4769-2.4639-2.7871-3.2266-1.3102-0.76266-2.865-1.1426-4.6641-1.1426zm17.367 0c-1.7404 0-3.2854 0.35069-4.6348 1.0547-1.3493 0.68444-2.415 1.643-3.1973 2.875-0.76266 1.232-1.1445 2.6504-1.1445 4.2539 0 1.6036 0.38187 3.0316 1.1445 4.2832 0.78222 1.232 1.8479 2.1983 3.1973 2.9023 1.3493 0.704 2.8943 1.0566 4.6348 1.0566 1.7404 1e-5 3.2854-0.35264 4.6348-1.0566 1.3689-0.704 2.4346-1.6703 3.1973-2.9023 0.76266-1.2516 1.1445-2.6796 1.1445-4.2832 0-1.6036-0.38187-3.0219-1.1445-4.2539-0.76267-1.232-1.8284-2.1906-3.1973-2.875-1.3493-0.704-2.8943-1.0547-4.6348-1.0547zm-203.75 0.20508h3.2266c1.2124 0 2.1126 0.26302 2.6992 0.79102 0.60622 0.528 0.90821 1.2722 0.90821 2.2305 0 0.93866-0.30199 1.6712-0.90821 2.1992-0.58666 0.528-1.4868 0.79297-2.6992 0.79297h-3.2266zm169.07 0.0586v15.898h5.5742v-15.898zm-133.12 3.6953c0.66488 0 1.2416 0.14612 1.7305 0.43945 0.50845 0.29333 0.8981 0.70442 1.1719 1.2324 0.17542 0.31579 0.29 0.67091 0.35351 1.0566h-6.4941c0.0666-0.37429 0.17438-0.71952 0.33399-1.0273 0.27378-0.54756 0.65369-0.96839 1.1426-1.2617 0.50844-0.29333 1.0968-0.43945 1.7617-0.43945zm31.682 0.46875c0.64533 0 1.2123 0.14807 1.7012 0.4414 0.50844 0.29334 0.90784 0.72391 1.2012 1.291 0.29333 0.54755 0.44141 1.2217 0.44141 2.0234 0 0.80177-0.14808 1.4954-0.44141 2.082-0.29333 0.56711-0.69273 0.99768-1.2012 1.291-0.4889 0.29334-1.0558 0.43946-1.7012 0.43946-0.62578 0-1.1927-0.14612-1.7012-0.43946-0.48888-0.29333-0.89023-0.7239-1.2031-1.291-0.29333-0.58667-0.43945-1.2803-0.43945-2.082 0-0.80178 0.14612-1.4759 0.43945-2.0234 0.31289-0.56711 0.71424-0.99768 1.2031-1.291 0.50845-0.29333 1.0754-0.4414 1.7012-0.4414zm136.11 0c0.64533 0 1.2123 0.14807 1.7012 0.4414 0.50844 0.29334 0.90979 0.72391 1.2031 1.291 0.29334 0.54755 0.43946 1.2217 0.43946 2.0234 0 0.80177-0.14612 1.4954-0.43946 2.082-0.29333 0.56711-0.69468 0.99768-1.2031 1.291-0.48889 0.29334-1.0558 0.43946-1.7012 0.43946-0.62578 0-1.1927-0.14612-1.7012-0.43946-0.48889-0.29333-0.89024-0.7239-1.2031-1.291-0.29333-0.58667-0.43945-1.2803-0.43945-2.082 0-0.80178 0.14612-1.4759 0.43945-2.0234 0.31289-0.56711 0.71424-0.99768 1.2031-1.291 0.50844-0.29333 1.0754-0.4414 1.7012-0.4414zm-78.264 5.252h2.4062v1.3789c-0.23467 0.62578-0.6068 1.0953-1.1152 1.4082-0.48888 0.29333-1.0364 0.43945-1.6426 0.43945-0.64532 0-1.1538-0.14612-1.5254-0.43945-0.37155-0.29333-0.55664-0.68494-0.55664-1.1738 0-0.48888 0.17535-0.88049 0.52735-1.1738 0.37155-0.29333 1.0067-0.43945 1.9062-0.43945z"/>
 </g>
 <g aria-label="Cavalo PRO Chess League">
  <path d="m54.634 82.573q-2.656 0-4.928-0.832-2.24-0.864-3.904-2.432-1.632-1.568-2.56-3.68-0.928-2.144-0.928-4.704t0.928-4.672q0.928-2.144 2.56-3.712 1.664-1.568 3.904-2.4 2.272-0.864 4.928-0.864 3.104 0 5.536 1.088 2.464 1.088 4.096 3.136l-4.032 3.648q-1.088-1.28-2.4-1.952-1.28-0.672-2.88-0.672-1.376 0-2.528 0.448t-1.984 1.312q-0.8 0.832-1.28 2.016-0.448 1.184-0.448 2.624t0.448 2.624q0.48 1.184 1.28 2.048 0.832 0.832 1.984 1.28t2.528 0.448q1.6 0 2.88-0.672 1.312-0.672 2.4-1.952l4.032 3.648q-1.632 2.016-4.096 3.136-2.432 1.088-5.536 1.088z"/>
  <path d="m77.326 82.125v-3.232l-0.416-0.8v-5.952q0-1.44-0.896-2.208-0.864-0.8-2.784-0.8-1.248 0-2.528 0.416-1.28 0.384-2.176 1.088l-2.048-4.128q1.472-0.96 3.52-1.472 2.08-0.544 4.128-0.544 4.224 0 6.528 1.952 2.336 1.92 2.336 6.048v9.632zm-5.12 0.288q-2.08 0-3.52-0.704t-2.208-1.92q-0.736-1.216-0.736-2.72 0-1.6 0.8-2.752 0.832-1.184 2.528-1.792 1.696-0.64 4.384-0.64h4.096v3.168h-3.264q-1.472 0-2.08 0.48-0.576 0.48-0.576 1.28t0.608 1.28 1.664 0.48q0.992 0 1.792-0.48 0.832-0.512 1.216-1.536l0.832 2.24q-0.48 1.792-1.888 2.72-1.376 0.896-3.648 0.896z"/>
  <path d="m91.342 82.125-7.136-17.344h6.24l5.696 14.496h-3.136l5.984-14.496h5.792l-7.168 17.344z"/>
  <path d="m116.33 82.125v-3.232l-0.416-0.8v-5.952q0-1.44-0.896-2.208-0.864-0.8-2.784-0.8-1.248 0-2.528 0.416-1.28 0.384-2.176 1.088l-2.048-4.128q1.472-0.96 3.52-1.472 2.08-0.544 4.128-0.544 4.224 0 6.528 1.952 2.336 1.92 2.336 6.048v9.632zm-5.12 0.288q-2.08 0-3.52-0.704t-2.208-1.92q-0.736-1.216-0.736-2.72 0-1.6 0.8-2.752 0.832-1.184 2.528-1.792 1.696-0.64 4.384-0.64h4.096v3.168h-3.264q-1.472 0-2.08 0.48-0.576 0.48-0.576 1.28t0.608 1.28 1.664 0.48q0.992 0 1.792-0.48 0.832-0.512 1.216-1.536l0.832 2.24q-0.48 1.792-1.888 2.72-1.376 0.896-3.648 0.896z"/>
  <path d="m125.84 82.125v-23.744h6.08v23.744z"/>
  <path d="m144.56 82.413q-2.848 0-5.056-1.152t-3.488-3.168q-1.248-2.048-1.248-4.672t1.248-4.64q1.28-2.016 3.488-3.136 2.208-1.152 5.056-1.152t5.056 1.152q2.24 1.12 3.488 3.136t1.248 4.64-1.248 4.672q-1.248 2.016-3.488 3.168-2.208 1.152-5.056 1.152zm0-4.832q1.056 0 1.856-0.48 0.832-0.48 1.312-1.408 0.48-0.96 0.48-2.272t-0.48-2.208q-0.48-0.928-1.312-1.408-0.8-0.48-1.856-0.48-1.024 0-1.856 0.48-0.8 0.48-1.312 1.408-0.48 0.896-0.48 2.208t0.48 2.272q0.512 0.928 1.312 1.408 0.832 0.48 1.856 0.48z"/>
  <path d="m166.76 82.125v-22.4h10.24q3.072 0 5.28 0.992 2.24 0.992 3.456 2.88 1.216 1.856 1.216 4.416 0 2.528-1.216 4.384t-3.456 2.88q-2.208 0.992-5.28 0.992h-6.72l2.816-2.752v8.608zm6.336-7.936-2.816-2.912h6.336q1.984 0 2.944-0.864 0.992-0.864 0.992-2.4 0-1.568-0.992-2.432-0.96-0.864-2.944-0.864h-6.336l2.816-2.912z"/>
  <path d="m190.03 82.125v-22.4h10.24q3.072 0 5.28 0.992 2.24 0.992 3.456 2.88 1.216 1.856 1.216 4.416 0 2.528-1.216 4.384-1.216 1.824-3.456 2.816-2.208 0.96-5.28 0.96h-6.72l2.816-2.656v8.608zm13.856 0-5.568-8.16h6.752l5.6 8.16zm-7.52-7.936-2.816-2.912h6.336q1.984 0 2.944-0.864 0.992-0.864 0.992-2.4 0-1.568-0.992-2.432-0.96-0.864-2.944-0.864h-6.336l2.816-2.912z"/>
  <path d="m225 82.573q-2.688 0-4.96-0.864t-3.968-2.432q-1.664-1.6-2.592-3.712t-0.928-4.64 0.928-4.64 2.592-3.68q1.696-1.6 3.968-2.464t4.96-0.864q2.72 0 4.96 0.864 2.272 0.864 3.936 2.464 1.664 1.568 2.592 3.68 0.96 2.112 0.96 4.64t-0.96 4.672q-0.928 2.112-2.592 3.68t-3.936 2.432q-2.24 0.864-4.96 0.864zm0-5.248q1.28 0 2.368-0.448 1.12-0.448 1.92-1.28 0.832-0.864 1.28-2.048 0.48-1.184 0.48-2.624 0-1.472-0.48-2.624-0.448-1.184-1.28-2.016-0.8-0.864-1.92-1.312-1.088-0.448-2.368-0.448t-2.4 0.448q-1.088 0.448-1.92 1.312-0.8 0.832-1.28 2.016-0.448 1.152-0.448 2.624 0 1.44 0.448 2.624 0.48 1.184 1.28 2.048 0.832 0.832 1.92 1.28 1.12 0.448 2.4 0.448z"/>
  <path d="m261.26 82.573q-2.656 0-4.928-0.832-2.24-0.864-3.904-2.432-1.632-1.568-2.56-3.68-0.928-2.144-0.928-4.704t0.928-4.672q0.928-2.144 2.56-3.712 1.664-1.568 3.904-2.4 2.272-0.864 4.928-0.864 3.104 0 5.536 1.088 2.464 1.088 4.096 3.136l-4.032 3.648q-1.088-1.28-2.4-1.952-1.28-0.672-2.88-0.672-1.376 0-2.528 0.448t-1.984 1.312q-0.8 0.832-1.28 2.016-0.448 1.184-0.448 2.624t0.448 2.624q0.48 1.184 1.28 2.048 0.832 0.832 1.984 1.28t2.528 0.448q1.6 0 2.88-0.672 1.312-0.672 2.4-1.952l4.032 3.648q-1.632 2.016-4.096 3.136-2.432 1.088-5.536 1.088z"/>
  <path d="m284.72 64.493q2.016 0 3.648 0.832 1.632 0.8 2.56 2.496 0.96 1.696 0.96 4.384v9.92h-6.08v-8.928q0-1.856-0.768-2.688-0.736-0.864-2.08-0.864-0.96 0-1.76 0.448-0.8 0.416-1.248 1.312t-0.448 2.336v8.384h-6.08v-23.744h6.08v11.328l-1.408-1.44q0.992-1.888 2.72-2.816 1.728-0.96 3.904-0.96z"/>
  <path d="m305 82.413q-3.072 0-5.376-1.152-2.272-1.184-3.552-3.2-1.248-2.048-1.248-4.64t1.216-4.608q1.248-2.048 3.424-3.168 2.176-1.152 4.896-1.152 2.56 0 4.672 1.056 2.112 1.024 3.36 3.04t1.248 4.896q0 0.32-0.032 0.736t-0.064 0.768h-13.728v-3.2h10.496l-2.304 0.896q0.032-1.184-0.448-2.048-0.448-0.864-1.28-1.344-0.8-0.48-1.888-0.48t-1.92 0.48q-0.8 0.48-1.248 1.376-0.448 0.864-0.448 2.048v0.928q0 1.28 0.512 2.208 0.544 0.928 1.536 1.44 0.992 0.48 2.368 0.48 1.28 0 2.176-0.352 0.928-0.384 1.824-1.152l3.2 3.328q-1.248 1.376-3.072 2.112-1.824 0.704-4.32 0.704z"/>
  <path d="m322.76 82.413q-2.208 0-4.32-0.512-2.08-0.512-3.36-1.28l1.824-4.16q1.216 0.736 2.848 1.184 1.632 0.416 3.2 0.416 1.536 0 2.112-0.32 0.608-0.32 0.608-0.864 0-0.512-0.576-0.736-0.544-0.256-1.472-0.384-0.896-0.128-1.984-0.288t-2.208-0.416q-1.088-0.288-2.016-0.832-0.896-0.576-1.44-1.536t-0.544-2.432q0-1.664 0.96-2.944 0.992-1.312 2.88-2.048 1.888-0.768 4.608-0.768 1.824 0 3.68 0.384 1.888 0.352 3.168 1.088l-1.824 4.128q-1.28-0.736-2.56-0.992-1.28-0.288-2.432-0.288-1.536 0-2.176 0.352-0.608 0.352-0.608 0.864t0.544 0.8q0.544 0.256 1.44 0.416 0.928 0.128 2.016 0.288 1.088 0.128 2.176 0.416 1.12 0.288 2.016 0.864 0.928 0.544 1.472 1.504 0.544 0.928 0.544 2.4 0 1.6-0.992 2.88-0.96 1.28-2.88 2.048-1.888 0.768-4.704 0.768z"/>
  <path d="m340.26 82.413q-2.208 0-4.32-0.512-2.08-0.512-3.36-1.28l1.824-4.16q1.216 0.736 2.848 1.184 1.632 0.416 3.2 0.416 1.536 0 2.112-0.32 0.608-0.32 0.608-0.864 0-0.512-0.576-0.736-0.544-0.256-1.472-0.384-0.896-0.128-1.984-0.288t-2.208-0.416q-1.088-0.288-2.016-0.832-0.896-0.576-1.44-1.536t-0.544-2.432q0-1.664 0.96-2.944 0.992-1.312 2.88-2.048 1.888-0.768 4.608-0.768 1.824 0 3.68 0.384 1.888 0.352 3.168 1.088l-1.824 4.128q-1.28-0.736-2.56-0.992-1.28-0.288-2.432-0.288-1.536 0-2.176 0.352-0.608 0.352-0.608 0.864t0.544 0.8q0.544 0.256 1.44 0.416 0.928 0.128 2.016 0.288 1.088 0.128 2.176 0.416 1.12 0.288 2.016 0.864 0.928 0.544 1.472 1.504 0.544 0.928 0.544 2.4 0 1.6-0.992 2.88-0.96 1.28-2.88 2.048-1.888 0.768-4.704 0.768z"/>
  <path d="m361.06 82.125v-22.4h6.336v17.376h10.688v5.024z"/>
  <path d="m389.32 82.413q-3.072 0-5.376-1.152-2.272-1.184-3.552-3.2-1.248-2.048-1.248-4.64t1.216-4.608q1.248-2.048 3.424-3.168 2.176-1.152 4.896-1.152 2.56 0 4.672 1.056 2.112 1.024 3.36 3.04t1.248 4.896q0 0.32-0.032 0.736t-0.064 0.768h-13.728v-3.2h10.496l-2.304 0.896q0.032-1.184-0.448-2.048-0.448-0.864-1.28-1.344-0.8-0.48-1.888-0.48t-1.92 0.48q-0.8 0.48-1.248 1.376-0.448 0.864-0.448 2.048v0.928q0 1.28 0.512 2.208 0.544 0.928 1.536 1.44 0.992 0.48 2.368 0.48 1.28 0 2.176-0.352 0.928-0.384 1.824-1.152l3.2 3.328q-1.248 1.376-3.072 2.112-1.824 0.704-4.32 0.704z"/>
  <path d="m410.89 82.125v-3.232l-0.416-0.8v-5.952q0-1.44-0.896-2.208-0.864-0.8-2.784-0.8-1.248 0-2.528 0.416-1.28 0.384-2.176 1.088l-2.048-4.128q1.472-0.96 3.52-1.472 2.08-0.544 4.128-0.544 4.224 0 6.528 1.952 2.336 1.92 2.336 6.048v9.632zm-5.12 0.288q-2.08 0-3.52-0.704t-2.208-1.92q-0.736-1.216-0.736-2.72 0-1.6 0.8-2.752 0.832-1.184 2.528-1.792 1.696-0.64 4.384-0.64h4.096v3.168h-3.264q-1.472 0-2.08 0.48-0.576 0.48-0.576 1.28t0.608 1.28 1.664 0.48q0.992 0 1.792-0.48 0.832-0.512 1.216-1.536l0.832 2.24q-0.48 1.792-1.888 2.72-1.376 0.896-3.648 0.896z"/>
  <path d="m429.1 88.621q-2.496 0-4.768-0.576-2.24-0.576-3.84-1.696l2.208-4.256q1.088 0.864 2.688 1.344 1.632 0.512 3.168 0.512 2.464 0 3.552-1.088 1.088-1.056 1.088-3.104v-2.048l0.32-4.864-0.032-4.896v-3.168h5.792v14.176q0 4.928-2.656 7.296t-7.52 2.368zm-1.056-7.392q-2.304 0-4.256-1.024-1.92-1.056-3.104-2.912-1.152-1.888-1.152-4.448t1.152-4.416q1.184-1.888 3.104-2.912 1.952-1.024 4.256-1.024 2.208 0 3.776 0.896 1.568 0.864 2.368 2.72 0.832 1.856 0.832 4.736t-0.832 4.736q-0.8 1.856-2.368 2.752t-3.776 0.896zm1.44-4.832q1.088 0 1.92-0.448 0.864-0.448 1.344-1.248 0.512-0.8 0.512-1.856t-0.512-1.856q-0.48-0.8-1.344-1.216-0.832-0.448-1.92-0.448t-1.952 0.448q-0.864 0.416-1.376 1.216-0.48 0.8-0.48 1.856t0.48 1.856q0.512 0.8 1.376 1.248t1.952 0.448z"/>
  <path d="m450.47 82.413q-2.112 0-3.808-0.832-1.664-0.832-2.624-2.592-0.928-1.792-0.928-4.512v-9.696h6.08v8.704q0 2.016 0.736 2.88 0.768 0.864 2.144 0.864 0.896 0 1.632-0.416t1.184-1.312q0.448-0.928 0.448-2.368v-8.352h6.08v17.344h-5.792v-4.896l1.12 1.376q-0.896 1.92-2.592 2.88-1.696 0.928-3.68 0.928z"/>
  <path d="m474.41 82.413q-3.072 0-5.376-1.152-2.272-1.184-3.552-3.2-1.248-2.048-1.248-4.64t1.216-4.608q1.248-2.048 3.424-3.168 2.176-1.152 4.896-1.152 2.56 0 4.672 1.056 2.112 1.024 3.36 3.04t1.248 4.896q0 0.32-0.032 0.736t-0.064 0.768h-13.728v-3.2h10.496l-2.304 0.896q0.032-1.184-0.448-2.048-0.448-0.864-1.28-1.344-0.8-0.48-1.888-0.48t-1.92 0.48q-0.8 0.48-1.248 1.376-0.448 0.864-0.448 2.048v0.928q0 1.28 0.512 2.208 0.544 0.928 1.536 1.44 0.992 0.48 2.368 0.48 1.28 0 2.176-0.352 0.928-0.384 1.824-1.152l3.2 3.328q-1.248 1.376-3.072 2.112-1.824 0.704-4.32 0.704z"/>
 </g>
</svg>
