<?xml version="1.0" encoding="UTF-8"?>
<svg width="1200" height="1200" shape-rendering="crispEdges" version="1.1" viewBox="0 0 1200 1200" xmlns="http://www.w3.org/2000/svg">
 <path d="m150 9.25e-6v150h150v-150zm150 150v150h150v-150zm150 0h150v-150h-150zm150 0v150h150v-150zm150 0h150v-150h-150zm150 0v150h150v-150zm150 0h150v-150h-150zm0 150v150h150v-150zm0 150h-150v150h150zm0 150v150h150v-150zm0 150h-150v150h150zm0 150v150h150v-150zm0 150h-150v150h150zm-150 0v-150h-150v150zm-150 0h-150v150h150zm-150 0v-150h-150v150zm-150 0h-150v150h150zm-150 0v-150h-150v150zm-150 0h-150v150h150zm0-150v-150h-150v150zm0-150h150v-150h-150zm0-150v-150h-150v150zm0-150h150v-150h-150zm0-150v-150h-150v150zm150 150v150h150v-150zm150 0h150v-150h-150zm150 0v150h150v-150zm150 0h150v-150h-150zm0 150v150h150v-150zm0 150h-150v150h150zm-150 0v-150h-150v150zm-150 0h-150v150h150z" fill="#4e3286" style="mix-blend-mode:multiply"/>
 <path d="m0 1050h150v-150h-150zm150-150h150v-150h-150zm0-150v-150h-150v150zm0-150h150v-150h-150zm0-150v-150h-150v150zm0-150h150v-150h-150zm0-150v-150h-150v150zm150 0h150v-150h-150zm150 0v150h150v-150zm150 0h150v-150h-150zm150 0v150h150v-150zm150 0h150v-150h-150zm150 0v150h150v-150zm0 150h-150v150h150zm0 150v150h150v-150zm0 150h-150v150h150zm0 150v150h150v-150zm0 150h-150v150h150zm0 150v150h150v-150zm-150 0h-150v150h150zm-150 0v-150h-150v150zm-150 0h-150v150h150zm-150 0v-150h-150v150zm-150 0h-150v150h150zm150-150h150v-150h-150zm0-150v-150h-150v150zm0-150h150v-150h-150zm0-150v-150h-150v150zm150 0h150v-150h-150zm150 0v150h150v-150zm0 150h-150v150h150zm0 150v150h150v-150z" fill="#f9f9f9" style="mix-blend-mode:multiply"/>
 <path d="m1138.2 22.27a6.4736 6.4736 0 0 0-6.4265 6.494 6.4736 6.4736 0 0 0 6.4838 6.4532 6.4736 6.4736 0 0 0 6.4634-6.4736v-0.04134a6.4736 6.4736 0 0 0-6.5042-6.4323 6.4736 6.4736 0 0 0-0.016 0zm33.182 2.5735a6.4736 6.4736 0 0 0-6.4265 6.494 6.4736 6.4736 0 0 0 6.4838 6.4532 6.4736 6.4736 0 0 0 6.4634-6.4736v-0.04087a6.4736 6.4736 0 0 0-6.5042-6.4328 6.4736 6.4736 0 0 0-0.016 0zm-61.402 1.8387a6.4736 6.4736 0 0 0-6.4265 6.494 6.4736 6.4736 0 0 0 6.4838 6.4527 6.4736 6.4736 0 0 0 6.4634-6.4731v-0.04134a6.4736 6.4736 0 0 0-6.5042-6.4323 6.4736 6.4736 0 0 0-0.016 0zm-30.242 12.684a6.4736 6.4736 0 0 0-6.4261 6.494 6.4736 6.4736 0 0 0 6.4839 6.4532 6.4736 6.4736 0 0 0 6.4629-6.4736v-0.04087a6.4736 6.4736 0 0 0-6.5042-6.4328 6.4736 6.4736 0 0 0-0.016 0zm88.215 0.4902-1.6694 2.9124c-2.8708 5.0088-7.297 11.191-10.679 14.916-1.0208 1.1243-1.8557 2.1441-1.8557 2.2666 0 0.4847 4.3281 5.5205 7.8741 9.1614 2.0596 2.1147 3.7449 4.0194 3.7449 4.2327 0 0.21337-0.375 0.38806-0.8334 0.38806-2.1036 0-12.125-11.433-17.314-19.753-1.3095-2.0993-5.7814-10.245-6.4684-11.783l-0.5179-1.1593-0.2305 1.9894c-0.3615 3.1208-1.7894 10.26-2.869 14.345-1.8483 6.9937-5.4393 16.028-6.3711 16.028-0.947 0-6.8428-7.3226-10.692-13.279-1.5423-2.3866-6.2159-10.958-7.3814-13.538l-0.5578-1.2352-0.2407 2.6557c-0.505 5.5713-2.9047 15.37-5.4612 22.3-0.6619 1.7943-2.3312 5.5424-3.7094 8.3293-2.0061 4.056-2.6661 5.1072-3.3087 5.2685-0.4416 0.11082-0.8971 0.10715-1.0125-8e-3 -0.1155-0.11542 1.0739-2.8598 2.6435-6.0986 2.5886-5.3417 4.2367-9.2425 4.2367-10.028 0-0.16349-1.3071-1.0857-2.9047-2.0493-5.6066-3.3815-13.542-9.2918-15.935-11.868-1.2888-1.3876-1.3451-1.2032-0.2763 0.90598 1.6546 3.2652 4.418 12.98 5.5272 19.431 0.629 3.6576 1.0908 8.6751 1.4944 16.228 0.1146 2.1454 0.251 3.9006 0.3025 3.9006 0.052 0 1.0449-0.35722 2.2078-0.79364 12.83-4.8146 29.223-8.8213 42.882-10.481 8.9904-1.0925 13.491-1.3402 24.349-1.3402 11.885 0 11.02 0.27212 9.7395-3.0675-1.0637-2.7739-2.9069-10.022-3.6522-14.361-0.7991-4.6533-1.4689-16.105-1.2283-21.005zm6.1425 44.429-13.908 0.16145c-14.264 0.16559-16.992 0.36173-26.689 1.9194-5.8893 0.94598-11.578 2.1464-18.093 3.8174-6.2183 1.595-20.965 6.2077-21.474 6.7174-0.7129 0.71279 2.7366 6.0633 6.9389 10.763 1.4212 1.5894 2.758 2.8964 2.9708 2.9046 0.2128 8e-3 4.4706-0.64743 9.4615-1.457 11.597-1.8811 36.384-5.812 46.244-7.3333 4.1922-0.64699 7.9541-1.2597 8.36-1.3616 0.5587-0.14023 1.0968-1.005 2.2135-3.5577 1.6228-3.7091 3.4122-9.0419 3.7563-11.193zm-3.1798 18.643c-3.0214 7e-3 -11.773 1.4176-44.723 6.675-21.482 3.4278-22.735 3.6558-24.234 4.4078-2.8412 1.4254-4.4874 5.0885-3.6628 8.1508 0.4354 1.6169 2.3727 3.924 3.8286 4.5594 1.7047 0.74401 4.5674 0.51639 15.405-1.224 12.572-2.019 18.639-2.9796 27.254-4.3149 15.72-2.4367 24.888-4.0082 26.89-4.6092 1.5663-0.47003 2.4938-0.99355 3.3827-1.9082 1.4843-1.5277 1.9281-2.6201 1.9281-4.7461 0-0.88917-0.1581-2.0371-0.3515-2.5511-0.4238-1.1256-2.4586-3.2988-3.6985-3.9496-0.5342-0.28042-0.8392-0.49254-2.0215-0.4897z" fill="#9382b5" stop-color="#000000" stroke-linejoin="round" stroke-width="2.1418"/>
 <path d="m85.376 1073.6a6.4736 6.4736 0 0 0-6.4265 6.4941 6.4736 6.4736 0 0 0 6.4838 6.4531 6.4736 6.4736 0 0 0 6.4634-6.4736v-0.041a6.4736 6.4736 0 0 0-6.5042-6.4322 6.4736 6.4736 0 0 0-0.016 0zm33.182 2.5735a6.4736 6.4736 0 0 0-6.4265 6.4941 6.4736 6.4736 0 0 0 6.4838 6.4531 6.4736 6.4736 0 0 0 6.4634-6.4736v-0.041a6.4736 6.4736 0 0 0-6.5042-6.4327 6.4736 6.4736 0 0 0-0.016 0zm-61.402 1.8388a6.4736 6.4736 0 0 0-6.4265 6.494 6.4736 6.4736 0 0 0 6.4838 6.4526 6.4736 6.4736 0 0 0 6.4634-6.4731v-0.041a6.4736 6.4736 0 0 0-6.5042-6.4322 6.4736 6.4736 0 0 0-0.016 0zm-30.242 12.684a6.4736 6.4736 0 0 0-6.4261 6.4941 6.4736 6.4736 0 0 0 6.4839 6.4531 6.4736 6.4736 0 0 0 6.4629-6.4736v-0.041a6.4736 6.4736 0 0 0-6.5042-6.4327 6.4736 6.4736 0 0 0-0.016 0zm88.215 0.4902-1.6694 2.9124c-2.8708 5.0088-7.297 11.191-10.679 14.916-1.0208 1.1242-1.8557 2.144-1.8557 2.2666 0 0.4847 4.3281 5.5205 7.8741 9.1614 2.0596 2.1147 3.7449 4.0193 3.7449 4.2327s-0.375 0.3881-0.8334 0.3881c-2.1036 0-12.125-11.433-17.314-19.753-1.3095-2.0994-5.7814-10.246-6.4684-11.783l-0.5179-1.1593-0.2305 1.9894c-0.3615 3.1208-1.7894 10.26-2.869 14.345-1.8483 6.9937-5.4393 16.028-6.3711 16.028-0.947 0-6.8428-7.3226-10.692-13.279-1.5423-2.3866-6.2159-10.958-7.3814-13.538l-0.5578-1.2352-0.2407 2.6557c-0.505 5.5712-2.9047 15.37-5.4612 22.3-0.6619 1.7943-2.3312 5.5424-3.7094 8.3292-2.0061 4.056-2.6661 5.1072-3.3087 5.2686-0.4416 0.1108-0.8971 0.1071-1.0125-0.01-0.1155-0.1155 1.0739-2.8599 2.6435-6.0987 2.5886-5.3417 4.2367-9.2425 4.2367-10.028 0-0.1635-1.3071-1.0857-2.9047-2.0493-5.6066-3.3814-13.542-9.2918-15.935-11.868-1.2888-1.3877-1.3451-1.2032-0.2763 0.9059 1.6546 3.2652 4.418 12.98 5.5272 19.431 0.629 3.6576 1.0908 8.6751 1.4944 16.228 0.1146 2.1454 0.251 3.9006 0.3025 3.9006 0.052 0 1.0449-0.3572 2.2078-0.7936 12.83-4.8147 29.223-8.8213 42.882-10.481 8.9904-1.0925 13.491-1.3402 24.349-1.3402 11.885 0 11.02 0.2721 9.7395-3.0675-1.0637-2.7739-2.9069-10.022-3.6522-14.361-0.7991-4.6533-1.4689-16.105-1.2283-21.005zm6.1425 44.429-13.908 0.1614c-14.264 0.1656-16.992 0.3618-26.689 1.9195-5.8893 0.9459-11.578 2.1463-18.093 3.8174-6.2183 1.5949-20.965 6.2077-21.474 6.7173-0.7129 0.7128 2.7366 6.0633 6.9389 10.763 1.4212 1.5894 2.758 2.8964 2.9708 2.9046 0.2128 0.01 4.4706-0.6474 9.4615-1.4569 11.597-1.8811 36.384-5.8121 46.244-7.3334 4.1922-0.647 7.9541-1.2597 8.36-1.3616 0.5587-0.1402 1.0968-1.005 2.2135-3.5577 1.6228-3.7092 3.4122-9.0419 3.7563-11.193zm-3.1798 18.643c-3.0214 0.01-11.773 1.4176-44.723 6.675-21.482 3.4278-22.735 3.6558-24.234 4.4078-2.8412 1.4254-4.4874 5.0885-3.6628 8.1507 0.4354 1.6169 2.3727 3.924 3.8286 4.5594 1.7047 0.744 4.5674 0.5164 15.405-1.224 12.572-2.019 18.639-2.9796 27.254-4.3149 15.72-2.4367 24.888-4.0081 26.89-4.6092 1.5663-0.47 2.4938-0.9935 3.3827-1.9082 1.4843-1.5277 1.9281-2.6201 1.9281-4.7462 0-0.8891-0.1581-2.0371-0.3515-2.5511-0.4238-1.1256-2.4586-3.2987-3.6985-3.9496-0.5342-0.2804-0.8392-0.4925-2.0215-0.4897z" fill="#9382b5" stop-color="#000000" stroke-linejoin="round" stroke-width="2.1418"/>
 <path d="m476.57 464.72c-2.1406 0-4.0391 0.5269-5.6953 1.582-1.6406 1.0327-2.9297 2.4589-3.8672 4.2773-0.92186 1.8184-1.4766 3.7139-1.6641 5.6894-0.1875 1.9531-0.28125 4.8956-0.28125 8.8242v15.928c0 5.343 0.30469 9.35 0.91406 12.021 0.60937 2.6491 1.8516 4.7244 3.7266 6.2285 1.875 1.5041 4.2578 2.2578 7.1484 2.2578 2.7812 0 5.1172-0.88664 7.0078-2.6602 1.9062-1.7735 3.1328-3.84 3.6797-6.1973 0.56249-2.3572 0.84375-6.3534 0.84375-11.988v-2.1211h-9.8672v6.8359c0 2.9858-0.11718 4.8832-0.35156 5.6914-0.21875 0.80817-0.69531 1.2129-1.4297 1.2129-0.76562 0-1.2578-0.40472-1.4766-1.2129-0.21875-0.8082-0.32813-2.5365-0.32813-5.1856v-25.324c0-2.7613 0.10938-4.5561 0.32813-5.3867 0.21875-0.83064 0.73438-1.2461 1.5469-1.2461 0.71875 0 1.1797 0.34702 1.3828 1.043 0.21875 0.67348 0.32812 2.391 0.32812 5.1523v9.4961h9.8672v-5.1855c0-5.0961-0.29687-8.846-0.89063-11.248-0.59373-2.4246-1.8359-4.4442-3.7266-6.0606-1.8906-1.6164-4.2891-2.4238-7.1953-2.4238zm71.836 0c-2.3438 0-4.3438 0.54841-6 1.6484-1.6563 1.0776-2.8594 2.583-3.6094 4.5137-0.73437 1.9307-1.1016 4.9826-1.1016 9.1582 0 2.896 0.25781 5.2773 0.77344 7.1406 0.53124 1.8633 1.1953 3.3218 1.9922 4.377 0.79688 1.0551 2.4219 2.7492 4.875 5.084 2.4531 2.3123 3.9922 3.9634 4.6172 4.9512 0.60938 0.98779 0.91406 3.0866 0.91406 6.2969 0 1.4592-0.16406 2.5599-0.49218 3.3008-0.3125 0.74083-0.79688 1.1113-1.4531 1.1113s-1.1172-0.29326-1.3828-0.87696c-0.25-0.58368-0.375-1.8965-0.375-3.9394v-6.6348h-9.1641v3.5703c0 4.0858 0.28906 7.2404 0.86718 9.4629 0.57813 2.2225 1.7969 4.0515 3.6562 5.4883 1.875 1.4368 4.1328 2.1562 6.7734 2.1562 2.4062 0 4.5156-0.61878 6.3281-1.8535 1.8125-1.2572 3.0312-2.8056 3.6562-4.6465 0.64062-1.8409 0.96093-4.7022 0.96093-8.5859 0-5.343-0.57032-9.217-1.7109-11.619-1.1406-2.4021-3.9062-5.4775-8.2969-9.2266-1.5312-1.3021-2.4609-2.4135-2.7891-3.334-0.34375-0.92043-0.51563-2.289-0.51563-4.1074 0-1.4143 0.14843-2.4701 0.44532-3.166 0.3125-0.69595 0.76561-1.043 1.3594-1.043 0.54688 0 0.93749 0.25709 1.1719 0.77344 0.23437 0.51634 0.35156 1.7178 0.35156 3.6035v4.041h9.1641v-2.1543c0-4.3328-0.29689-7.3974-0.89062-9.1934-0.57813-1.8184-1.7734-3.3238-3.5859-4.5137-1.7969-1.1898-3.9766-1.7832-6.5391-1.7832zm24.82 0c-2.3438 0-4.3438 0.54841-6 1.6484-1.6562 1.0776-2.8594 2.583-3.6094 4.5137-0.73437 1.9307-1.1016 4.9826-1.1016 9.1582 0 2.896 0.25781 5.2773 0.77344 7.1406 0.53124 1.8633 1.1953 3.3218 1.9922 4.377 0.79686 1.0551 2.4219 2.7492 4.875 5.084 2.4531 2.3123 3.9922 3.9634 4.6172 4.9512 0.60939 0.98779 0.91407 3.0866 0.91407 6.2969 0 1.4592-0.16407 2.5599-0.49219 3.3008-0.3125 0.74083-0.79688 1.1113-1.4531 1.1113-0.65624 0-1.1172-0.29326-1.3828-0.87696-0.25-0.58368-0.375-1.8965-0.375-3.9394v-6.6348h-9.1641v3.5703c0 4.0858 0.28906 7.2404 0.86719 9.4629 0.57812 2.2225 1.7969 4.0515 3.6562 5.4883 1.875 1.4368 4.1328 2.1562 6.7734 2.1562 2.4062 0 4.5156-0.61878 6.3281-1.8535 1.8125-1.2572 3.0312-2.8056 3.6562-4.6465 0.64062-1.8409 0.96094-4.7022 0.96094-8.5859 0-5.343-0.57032-9.217-1.7109-11.619-1.1406-2.4021-3.9062-5.4775-8.2969-9.2266-1.5312-1.3021-2.4609-2.4135-2.7891-3.334-0.34375-0.92043-0.51562-2.289-0.51562-4.1074 0-1.4143 0.14843-2.4701 0.44531-3.166 0.3125-0.69595 0.76562-1.043 1.3594-1.043 0.54688 0 0.9375 0.25709 1.1719 0.77344 0.23437 0.51634 0.35156 1.7178 0.35156 3.6035v4.041h9.1641v-2.1543c0-4.3328-0.29687-7.3974-0.89062-9.1934-0.57812-1.8184-1.7734-3.3238-3.5859-4.5137-1.7969-1.1898-3.9766-1.7832-6.5391-1.7832zm-81.305 1.1445v54.518h9.8672v-22.898h2.9531v22.898h9.8672v-54.518h-9.8672v19.496h-2.9531v-19.496zm26.648 0v54.518h17.109v-10.91h-7.2422v-11.988h6.1641v-10.371h-6.1641v-10.338h6.5859v-10.91zm-52.242 64.336v54.52h9.8672v-21.957h2.6484c2.1562 2e-5 3.8984-0.42621 5.2266-1.2793 1.3437-0.85309 2.2656-2.076 2.7656-3.6699 0.50001-1.5939 0.75-4.1316 0.75-7.6113v-4.748c0-3.4123-0.13281-5.9266-0.39843-7.543-0.25001-1.6388-0.74218-3.0308-1.4766-4.1758-0.71875-1.1449-1.8047-2.0208-3.2578-2.627-1.4375-0.60614-3.5-0.9082-6.1875-0.90821zm25.664 0-5.0156 54.52h10.219l0.58594-9.8008h3.5391l0.49219 9.8008h10.102l-5.6484-54.52zm21.609 0v54.52h9.8672v-24.584c1.3594 0 2.1953 0.34899 2.5078 1.0449 0.32811 0.69594 0.49219 2.5034 0.49219 5.4219v18.117h9.1641v-14.379c0-4.4001-0.0859-7.0835-0.25781-8.0488-0.15626-0.98777-0.57033-2.065-1.2422-3.2324-0.67188-1.1674-1.9844-2.099-3.9375-2.7949 2.1562-0.29185 3.6016-1.1677 4.3359-2.627 0.73436-1.4592 1.1016-4.3098 1.1016-8.5527 0-4.6471-0.52344-8.0264-1.5703-10.137-1.0313-2.1327-2.375-3.4583-4.0312-3.9746-1.6406-0.51633-4.7891-0.77342-9.4453-0.77344zm24.164 0v10.91h5.8359v43.609h9.8672v-43.609h5.8594v-10.91zm22.758 0 6.9375 34.785v19.734h9.1406v-19.734l7.1953-34.785h-9.0703c-1.2813 8.486-2.1953 15.637-2.7422 21.451-0.17187-3.6817-0.96874-10.833-2.3906-21.451zm-84.328 9.3281c1.2812 0 2.125 0.28056 2.5312 0.8418 0.40624 0.56124 0.60937 1.7734 0.60937 3.6367v4.4785c0 2.0205-0.17967 3.3568-0.53906 4.0078-0.34374 0.6286-0.96874 0.94141-1.875 0.94141-0.20313 0-0.44531-0.0108-0.72656-0.0332zm47.273 0c1.1406 0 1.9219 0.26981 2.3438 0.80859 0.43749 0.53881 0.65625 1.6718 0.65625 3.4004v2.9961c0 2.4021-0.22656 3.8284-0.67969 4.2773-0.4375 0.42654-1.211 0.64063-2.3203 0.64063zm-23.93 2.8613c0.5 9.0696 0.99999 16.692 1.5 22.865h-3.375c0.25001-4.8267 0.875-12.449 1.875-22.865z" fill="#d7d1e4" stroke-width="1.0788"/>
 <path d="m622.2 614.91v19.732l-7.1953 34.785h9.0703c1.2812-8.4859 2.1953-15.635 2.7422-21.449 0.17187 3.6817 0.96874 10.831 2.3906 21.449h9.0703l-6.9375-34.785v-19.732zm23.133 0v43.607h-5.8594v10.91h21.562v-10.91h-5.8359v-43.607zm17.836 0v14.379c0 4.4001 0.0859 7.0815 0.25781 8.0469 0.15625 0.98779 0.57031 2.067 1.2422 3.2344 0.67187 1.1674 1.9844 2.099 3.9375 2.7949-2.1562 0.29183-3.6016 1.1658-4.3359 2.625-0.73436 1.4592-1.1016 4.3117-1.1016 8.5547 0 4.6471 0.52344 8.0245 1.5703 10.135 1.0312 2.1327 2.375 3.4583 4.0312 3.9746 1.6406 0.51634 4.7891 0.77344 9.4453 0.77344h6.9844v-54.518h-9.8672v24.582c-1.3594 0-2.1953-0.34898-2.5078-1.0449-0.32813-0.69594-0.49219-2.5015-0.49219-5.4199v-18.117zm23.719 0 5.6484 54.518h14.273l5.0156-54.518h-10.219l-0.58594 9.7988h-3.5391l-0.49219-9.7988zm35.719 0v21.955h-2.6484c-2.1562 0-3.8984 0.42621-5.2266 1.2793-1.3438 0.85309-2.2656 2.076-2.7656 3.6699-0.5 1.5939-0.75 4.1316-0.75 7.6113v4.748c0 3.4123 0.13282 5.9266 0.39844 7.543 0.25001 1.6388 0.74219 3.0308 1.4766 4.1758 0.71876 1.1449 1.8047 2.0208 3.2578 2.627 1.4375 0.60614 3.5 0.90821 6.1875 0.90821h9.9375v-54.518zm-24.844 19.463h3.375c-0.25 4.8266-0.875 12.449-1.875 22.865-0.5-9.0696-1-16.692-1.5-22.865zm24.117 11.82c0.20312 0 0.4453 0.0109 0.72656 0.0332v13.873c-1.2813 0-2.125-0.28057-2.5312-0.84179-0.40625-0.56125-0.60938-1.7734-0.60938-3.6367v-4.4785c0-2.0205 0.17969-3.3548 0.53907-4.0059 0.34374-0.62858 0.96873-0.94336 1.875-0.94336zm-46.547 1.7852v12.121c-1.1406 0-1.9219-0.26784-2.3438-0.80664-0.4375-0.53879-0.65625-1.6737-0.65625-3.4023v-2.9961c0-2.4021 0.22656-3.8284 0.67969-4.2773 0.4375-0.42654 1.2109-0.63867 2.3203-0.63867zm-50.648 30.123c-2.4062 0-4.5156 0.61683-6.3281 1.8516-1.8125 1.2572-3.0312 2.8056-3.6562 4.6465-0.64063 1.8409-0.96094 4.7041-0.96094 8.5879 0 5.343 0.5703 9.2151 1.7109 11.617 1.1406 2.4021 3.9063 5.4775 8.2969 9.2266 1.5313 1.3021 2.4609 2.4136 2.7891 3.334 0.34375 0.92042 0.51562 2.289 0.51562 4.1074 0 1.4143-0.14844 2.4701-0.44531 3.166-0.3125 0.69594-0.76562 1.0449-1.3594 1.0449-0.54687 0-0.93749-0.25906-1.1719-0.77539-0.23436-0.51635-0.35156-1.7178-0.35156-3.6035v-4.041h-9.1641v2.1563c0 4.3328 0.29687 7.3974 0.89063 9.1934 0.57812 1.8184 1.7734 3.3219 3.5859 4.5117 1.7969 1.1898 3.9766 1.7852 6.5391 1.7852 2.3438 0 4.3438-0.55037 6-1.6504 1.6563-1.0776 2.8594-2.5811 3.6094-4.5117 0.73438-1.9307 1.1016-4.9845 1.1016-9.1602 0-2.896-0.25782-5.2754-0.77344-7.1387-0.53125-1.8633-1.1953-3.3238-1.9922-4.3789-0.79688-1.0551-2.4219-2.7492-4.875-5.084-2.4531-2.3123-3.9922-3.9634-4.6172-4.9512-0.60937-0.98779-0.91406-3.0866-0.91406-6.2969 0-1.4592 0.16405-2.558 0.49219-3.2988 0.3125-0.74083 0.79688-1.1113 1.4531-1.1113 0.65625 0 1.1172 0.2913 1.3828 0.875 0.24998 0.58368 0.375 1.8965 0.375 3.9394v6.6348h9.1641v-3.5703c0-4.0858-0.28907-7.2404-0.86719-9.4629-0.57813-2.2225-1.7969-4.0515-3.6562-5.4883-1.875-1.4368-4.1328-2.1543-6.7734-2.1543zm24.82 0c-2.4062 0-4.5156 0.61683-6.3281 1.8516-1.8125 1.2572-3.0312 2.8056-3.6562 4.6465-0.64062 1.8409-0.96094 4.7041-0.96094 8.5879 0 5.343 0.57031 9.2151 1.7109 11.617 1.1406 2.4021 3.9062 5.4775 8.2969 9.2266 1.5312 1.3021 2.4609 2.4136 2.7891 3.334 0.34375 0.92042 0.51562 2.289 0.51562 4.1074 0 1.4143-0.14843 2.4701-0.44531 3.166-0.3125 0.69594-0.76564 1.0449-1.3594 1.0449-0.54688 0-0.9375-0.25906-1.1719-0.77539-0.23436-0.51635-0.35156-1.7178-0.35156-3.6035v-4.041h-9.1641v2.1563c0 4.3328 0.29686 7.3974 0.89062 9.1934 0.57812 1.8184 1.7734 3.3219 3.5859 4.5117 1.7969 1.1898 3.9766 1.7852 6.5391 1.7852 2.3438 0 4.3438-0.55037 6-1.6504 1.6563-1.0776 2.8594-2.5811 3.6094-4.5117 0.73436-1.9307 1.1016-4.9845 1.1016-9.1602 0-2.896-0.25781-5.2754-0.77344-7.1387-0.53124-1.8633-1.1953-3.3238-1.9922-4.3789-0.79687-1.0551-2.4219-2.7492-4.875-5.084-2.4531-2.3123-3.9922-3.9634-4.6172-4.9512-0.60939-0.98779-0.91407-3.0866-0.91407-6.2969 0-1.4592 0.16407-2.558 0.49219-3.2988 0.3125-0.74083 0.79688-1.1113 1.4531-1.1113 0.65624 0 1.1172 0.2913 1.3828 0.875 0.25 0.58368 0.375 1.8965 0.375 3.9394v6.6348h9.1641v-3.5703c0-4.0858-0.28906-7.2404-0.86719-9.4629-0.57812-2.2225-1.7969-4.0515-3.6562-5.4883-1.875-1.4368-4.1328-2.1543-6.7734-2.1543zm72.445 0c-2.7812 0-5.1172 0.88665-7.0078 2.6602-1.9062 1.7735-3.1328 3.8381-3.6797 6.1953-0.5625 2.3572-0.84375 6.3534-0.84375 11.988v2.1211h9.8672v-6.8359c0-2.9858 0.11718-4.8832 0.35156-5.6914 0.21875-0.8082 0.69531-1.2109 1.4297-1.2109 0.76562 0 1.2578 0.40274 1.4766 1.2109 0.21874 0.80817 0.32812 2.5384 0.32812 5.1875v25.322c0 2.7613-0.10938 4.558-0.32812 5.3887-0.21875 0.83064-0.73437 1.2461-1.5469 1.2461-0.71874 0-1.1797-0.34899-1.3828-1.0449-0.21874-0.67348-0.32812-2.391-0.32812-5.1523v-9.4961h-9.8672v5.1855c0 5.0961 0.29689 8.846 0.89062 11.248 0.59375 2.4246 1.8359 4.4442 3.7266 6.0606 1.8906 1.6164 4.2891 2.4258 7.1953 2.4258 2.1406 0 4.0391-0.52885 5.6953-1.584 1.6406-1.0327 2.9297-2.457 3.8672-4.2754 0.92187-1.8184 1.4766-3.7158 1.6641-5.6914 0.1875-1.9531 0.28125-4.8936 0.28125-8.8223v-15.928c0-5.343-0.30468-9.352-0.91406-12.023-0.60937-2.6491-1.8516-4.7244-3.7266-6.2285-1.875-1.5041-4.2578-2.2559-7.1484-2.2559zm-58.828 1.1445v10.91h7.2422v11.988h-6.1641v10.371h6.1641v10.338h-6.5859v10.91h16.453v-54.518zm21.07 0v54.518h9.8672v-19.496h2.9531v19.496h9.8672v-54.518h-9.8672v22.898h-2.9531v-22.898z" fill="#d7d1e4" stroke-width="1.0788"/>
</svg>
