<?xml version="1.0" encoding="UTF-8"?>
<svg width="550" height="550" version="1.1" viewBox="0 0 550 550" xmlns="http://www.w3.org/2000/svg">
 <path d="m325.57 64.439a26 26 0 0 0-25.811 26.082 26 26 0 0 0 26.041 25.918 26 26 0 0 0 25.959-26v-0.16602a26 26 0 0 0-26.123-25.834 26 26 0 0 0-0.0664 0zm133.27 10.336a26 26 0 0 0-25.811 26.082 26 26 0 0 0 26.041 25.918 26 26 0 0 0 25.959-26v-0.16406a26 26 0 0 0-26.123-25.836 26 26 0 0 0-0.0664 0zm-246.61 7.3848a26 26 0 0 0-25.811 26.082 26 26 0 0 0 26.041 25.916 26 26 0 0 0 25.959-25.998v-0.16602a26 26 0 0 0-26.123-25.834 26 26 0 0 0-0.0664 0zm-121.46 50.945a26 26 0 0 0-25.809 26.082 26 26 0 0 0 26.041 25.918 26 26 0 0 0 25.957-26v-0.16407a26 26 0 0 0-26.123-25.836 26 26 0 0 0-0.06641 0zm354.3 1.9688-6.7051 11.697c-11.53 20.117-29.307 44.947-42.891 59.906-4.0999 4.5154-7.4531 8.6112-7.4531 9.1035 0 1.9467 17.383 22.172 31.625 36.795 8.2722 8.4933 15.041 16.143 15.041 17s-1.5063 1.5586-3.3477 1.5586c-8.4484 0-48.697-45.918-69.539-79.334-5.259-8.4316-23.22-41.149-25.979-47.324l-2.0801-4.6562-0.92578 7.9902c-1.4521 12.534-7.1869 41.206-11.523 57.615-7.4231 28.089-21.846 64.375-25.588 64.375-3.8035 0-27.483-29.41-42.943-53.334-6.1942-9.5853-24.965-44.009-29.646-54.371l-2.2402-4.9609-0.9668 10.666c-2.0284 22.376-11.666 61.729-21.934 89.564-2.6582 7.2064-9.3626 22.26-14.898 33.453-8.057 16.29-10.708 20.512-13.289 21.16-1.7732 0.44511-3.6028 0.43036-4.0664-0.0332-0.46356-0.46357 4.3135-11.486 10.617-24.494 10.397-21.454 17.016-37.121 17.016-40.277 0-0.6566-5.2494-4.3605-11.666-8.2305-22.518-13.581-54.391-37.319-64-47.664-5.1762-5.5732-5.402-4.8323-1.1094 3.6387 6.6456 13.114 17.744 52.132 22.199 78.041 2.526 14.69 4.3811 34.842 6.002 65.176 0.46042 8.6167 1.0078 15.666 1.2148 15.666 0.20701 0 4.1966-1.4347 8.8672-3.1875 51.528-19.337 117.37-35.429 172.23-42.096 36.108-4.388 54.185-5.3828 97.793-5.3828 47.734 0 44.261 1.0929 39.117-12.32-4.272-11.141-11.675-40.253-14.668-57.68-3.2096-18.689-5.9001-64.684-4.9336-84.363zm24.67 178.44-55.859 0.64844c-57.287 0.66507-68.245 1.4528-107.19 7.709-23.653 3.7993-46.499 8.6204-72.666 15.332-24.975 6.4058-84.201 24.932-86.248 26.979-2.8628 2.8628 10.991 24.352 27.869 43.227 5.7082 6.3836 11.077 11.633 11.932 11.666 0.85471 0.033 17.955-2.6003 38-5.8516 46.579-7.555 146.13-23.343 185.73-29.453 16.837-2.5985 31.946-5.0595 33.576-5.4688 2.2442-0.56325 4.4052-4.0364 8.8906-14.289 6.5175-14.897 13.704-36.315 15.086-44.955zm-12.771 74.877c-12.135 0.0292-47.284 5.6937-179.62 26.809-86.279 13.767-91.313 14.683-97.332 17.703-11.411 5.725-18.023 20.437-14.711 32.736 1.7486 6.4939 9.5297 15.76 15.377 18.312 6.8466 2.9882 18.344 2.074 61.871-4.916 50.493-8.1088 74.861-11.967 109.46-17.33 63.137-9.7867 99.959-16.098 108-18.512 6.2908-1.8878 10.016-3.9904 13.586-7.6641 5.9617-6.1358 7.7441-10.523 7.7441-19.062 0-3.5712-0.63511-8.1817-1.4121-10.246-1.7015-4.5208-9.874-13.249-14.854-15.863-2.1454-1.1263-3.3705-1.9782-8.1191-1.9668z" fill="#9382b5" stop-color="#000000" stroke-linejoin="round" stroke-width="8.602"/>
</svg>
