<?xml version="1.0" encoding="UTF-8"?>
<svg width="1200" height="1200" shape-rendering="crispEdges" version="1.1" viewBox="0 0 1200 1200" xmlns="http://www.w3.org/2000/svg">
 <path d="m1138.2 22.27a6.4736 6.4736 0 0 0-6.4277 6.4941 6.4736 6.4736 0 0 0 6.4843 6.4531 6.4736 6.4736 0 0 0 6.4629-6.4727v-0.042969a6.4736 6.4736 0 0 0-6.5039-6.4316 6.4736 6.4736 0 0 0-0.0156 0zm33.182 2.5742a6.4736 6.4736 0 0 0-6.4257 6.4941 6.4736 6.4736 0 0 0 6.4824 6.4531 6.4736 6.4736 0 0 0 6.4629-6.4746v-0.041015a6.4736 6.4736 0 0 0-6.5039-6.4316 6.4736 6.4736 0 0 0-0.0157 0zm-61.402 1.8379a6.4736 6.4736 0 0 0-6.4258 6.4941 6.4736 6.4736 0 0 0 6.4824 6.4531 6.4736 6.4736 0 0 0 6.4649-6.4727v-0.042969a6.4736 6.4736 0 0 0-6.5059-6.4316 6.4736 6.4736 0 0 0-0.0156 0zm-30.242 12.686a6.4736 6.4736 0 0 0-6.4258 6.4941 6.4736 6.4736 0 0 0 6.4844 6.4531 6.4736 6.4736 0 0 0 6.4629-6.4746v-0.041016a6.4736 6.4736 0 0 0-6.5039-6.4316 6.4736 6.4736 0 0 0-0.0156 0h-2e-3zm88.215 0.49023-1.668 2.9121c-2.8708 5.0088-7.2975 11.191-10.68 14.916-1.0208 1.1243-1.8555 2.1431-1.8555 2.2656 0 0.4847 4.3271 5.5212 7.8731 9.1621 2.0596 2.1147 3.7461 4.019 3.7461 4.2324 0 0.21337-0.3756 0.38867-0.834 0.38867-2.1036 0-12.125-11.434-17.314-19.754-1.3095-2.0993-5.7817-10.246-6.4687-11.783l-0.5176-1.1582-0.2305 1.9883c-0.3615 3.1208-1.7895 10.26-2.8691 14.346-1.8483 6.9937-5.4393 16.027-6.3711 16.027-0.947 0-6.8421-7.3226-10.691-13.279-1.5423-2.3866-6.2154-10.957-7.3809-13.537l-0.5586-1.2344-0.2402 2.6562c-0.505 5.5713-2.9044 15.368-5.4609 22.299-0.6619 1.7943-2.3308 5.5432-3.709 8.3301-2.0061 4.056-2.668 5.1062-3.3106 5.2676-0.4416 0.11082-0.8963 0.10734-1.0117-0.007813-0.1155-0.11542 1.075-2.8589 2.6446-6.0977 2.5886-5.3417 4.2363-9.2435 4.2363-10.029 0-0.16349-1.3067-1.0853-2.9043-2.0488-5.6066-3.3815-13.543-9.2914-15.936-11.867-1.2888-1.3876-1.3461-1.2029-0.2773 0.90625 1.6546 3.2652 4.4181 12.979 5.5273 19.43 0.629 3.6576 1.0906 8.6758 1.4942 16.229 0.1146 2.1454 0.2512 3.9004 0.3027 3.9004 0.052 0 1.0461-0.35655 2.209-0.79297 12.83-4.8146 29.224-8.8224 42.883-10.482 8.9904-1.0925 13.49-1.3398 24.348-1.3398 11.885 0 11.021 0.27125 9.7402-3.0684-1.0637-2.7739-2.907-10.022-3.6523-14.361-0.7991-4.6533-1.4692-16.104-1.2286-21.004l0.1661-3.4102zm6.1425 44.428-13.906 0.16211c-14.264 0.16559-16.993 0.36224-26.69 1.9199-5.8893 0.94598-11.578 2.1453-18.094 3.8164-6.2183 1.595-20.963 6.2071-21.473 6.7168-0.7129 0.71279 2.7352 6.0641 6.9375 10.764 1.4212 1.5894 2.7579 2.8961 2.9707 2.9043 0.2128 8e-3 4.472-0.64751 9.4629-1.457 11.597-1.8811 36.384-5.8127 46.244-7.334 4.1922-0.64699 7.9534-1.2594 8.3593-1.3613 0.5587-0.14023 1.0962-1.0039 2.2129-3.5566 1.6228-3.7091 3.4118-9.0421 3.7559-11.193l0.2187-1.3809zm-3.1816 18.643c-3.0228 0.00748-11.777 1.4193-44.721 6.6758-21.482 3.4278-22.734 3.6563-24.232 4.4082-2.8412 1.4254-4.4887 5.0881-3.6641 8.1504 0.4354 1.6169 2.3722 3.9232 3.8281 4.5586 1.7047 0.74401 4.5688 0.51775 15.406-1.2226 12.572-2.019 18.639-2.9811 27.254-4.3164 15.72-2.4367 24.888-4.0064 26.891-4.6074 1.5663-0.47003 2.4939-0.99351 3.3828-1.9082 1.4843-1.5277 1.9278-2.62 1.9278-4.7461 0-0.88917-0.1582-2.0388-0.3516-2.5527-0.4238-1.1256-2.4593-3.2984-3.6992-3.9492-0.5339-0.28024-0.8392-0.49279-2.0196-0.49024h-0.0019zm-1085.6 970.67a6.4736 6.4736 0 0 0-6.4258 6.4941 6.4736 6.4736 0 0 0 6.4844 6.4531 6.4736 6.4736 0 0 0 6.4629-6.4746v-0.041a6.4736 6.4736 0 0 0-6.5039-6.4316 6.4736 6.4736 0 0 0-0.015625 0h-0.001953zm33.182 2.5722a6.4736 6.4736 0 0 0-6.4258 6.4942 6.4736 6.4736 0 0 0 6.4844 6.4531 6.4736 6.4736 0 0 0 6.4629-6.4727v-0.041a6.4736 6.4736 0 0 0-6.5039-6.4336 6.4736 6.4736 0 0 0-0.01563 0h-0.00195zm-61.4 1.8399a6.4736 6.4736 0 0 0-6.4277 6.4941 6.4736 6.4736 0 0 0 6.4844 6.4512 6.4736 6.4736 0 0 0 6.4629-6.4727v-0.041a6.4736 6.4736 0 0 0-6.5039-6.4316 6.4736 6.4736 0 0 0-0.015625 0zm-30.242 12.684a6.4736 6.4736 0 0 0-6.4258 6.4941 6.4736 6.4736 0 0 0 6.4844 6.4531 6.4736 6.4736 0 0 0 6.4629-6.4726v-0.041a6.4736 6.4736 0 0 0-6.5059-6.4336 6.4736 6.4736 0 0 0-0.015626 0zm88.215 0.4902-1.6699 2.9121c-2.8708 5.0088-7.2955 11.191-10.678 14.916-1.0208 1.1242-1.8574 2.145-1.8574 2.2676 0 0.4847 4.329 5.5193 7.875 9.1602 2.0596 2.1147 3.7441 4.019 3.7441 4.2324s-0.37363 0.3886-0.83203 0.3886c-2.1036 0-12.125-11.432-17.314-19.752-1.3095-2.0994-5.7818-10.246-6.4688-11.783l-0.51758-1.1602-0.23047 1.9903c-0.3615 3.1208-1.7895 10.26-2.8691 14.346-1.8483 6.9937-5.4393 16.027-6.3711 16.027-0.947 0-6.8421-7.3226-10.691-13.279-1.5423-2.3866-6.2173-10.957-7.3828-13.537l-0.55664-1.2363-0.24024 2.6562c-0.505 5.5712-2.9064 15.37-5.4629 22.301-0.6619 1.7943-2.3308 5.5413-3.709 8.3281-2.0061 4.056-2.666 5.1082-3.3086 5.2696-0.4416 0.1108-0.89632 0.1073-1.0117-0.0098-0.1155-0.1155 1.073-2.8608 2.6426-6.0996 2.5886-5.3417 4.2363-9.2415 4.2363-10.027 0-0.1636-1.3067-1.0872-2.9043-2.0508-5.6066-3.3814-13.543-9.2915-15.936-11.867-1.2888-1.3877-1.3442-1.2029-0.27539 0.9062 1.6546 3.2652 4.4181 12.981 5.5273 19.432 0.629 3.6576 1.0905 8.6738 1.4941 16.226 0.1146 2.1454 0.25124 3.9024 0.30273 3.9024 0.052 0 1.0441-0.3585 2.207-0.7949 12.83-4.8147 29.224-8.8205 42.883-10.48 8.9904-1.0925 13.492-1.3399 24.35-1.3399 11.885 0 11.021 0.2713 9.7402-3.0683-1.0637-2.7739-2.907-10.022-3.6523-14.361-0.7991-4.6533-1.4691-16.106-1.2285-21.006l0.16602-3.4082zm6.1426 44.43-13.908 0.1601c-14.264 0.1656-16.991 0.3623-26.687 1.92-5.8893 0.9459-11.578 2.1472-18.094 3.8183-6.2183 1.5949-20.965 6.2072-21.475 6.7168-0.7129 0.7128 2.7372 6.0641 6.9395 10.764 1.4212 1.5894 2.7579 2.8961 2.9707 2.9043 0.2128 0.01 4.47-0.6475 9.4609-1.457 11.597-1.8811 36.384-5.8127 46.244-7.334 4.1922-0.647 7.9535-1.2595 8.3594-1.3614 0.5587-0.1402 1.0982-1.0059 2.2148-3.5586 1.6228-3.7092 3.4118-9.0402 3.7558-11.191l0.21875-1.3808zm-3.1816 18.643c-3.0228 0.0104-11.777 1.4192-44.721 6.6757-21.482 3.4278-22.736 3.6543-24.234 4.4063-2.8412 1.4254-4.4867 5.0901-3.6621 8.1523 0.4354 1.6169 2.3722 3.9232 3.8281 4.5586 1.7047 0.744 4.5668 0.5158 15.404-1.2246 12.572-2.019 18.639-2.9791 27.254-4.3144 15.72-2.4367 24.889-4.0083 26.891-4.6094 1.5663-0.47 2.4939-0.9935 3.3828-1.9082 1.4843-1.5277 1.9277-2.62 1.9277-4.7461 0-0.8891-0.15817-2.0368-0.35157-2.5508-0.4238-1.1256-2.4574-3.2983-3.6973-3.9492-0.53385-0.2802-0.83917-0.4928-2.0195-0.4902h-0.00196z" fill="#9382b5"/>
 <path d="m476.57 464.72c-2.1406 0-4.0391 0.5269-5.6953 1.582-1.6406 1.0327-2.9297 2.4589-3.8672 4.2773-0.92186 1.8184-1.4766 3.7139-1.6641 5.6894-0.1875 1.9531-0.28125 4.8956-0.28125 8.8242v15.928c0 5.343 0.30469 9.35 0.91406 12.021 0.60937 2.6491 1.8516 4.7244 3.7266 6.2285 1.875 1.5041 4.2578 2.2578 7.1484 2.2578 2.7812 0 5.1172-0.88664 7.0078-2.6602 1.9062-1.7735 3.1328-3.84 3.6797-6.1973 0.56249-2.3572 0.84375-6.3534 0.84375-11.988v-2.1211h-9.8672v6.8359c0 2.9858-0.11718 4.8832-0.35156 5.6914-0.21875 0.80817-0.69531 1.2129-1.4297 1.2129-0.76562 0-1.2578-0.40472-1.4766-1.2129-0.21875-0.8082-0.32813-2.5365-0.32813-5.1856v-25.324c0-2.7613 0.10938-4.5561 0.32813-5.3867 0.21875-0.83064 0.73438-1.2461 1.5469-1.2461 0.71875 0 1.1797 0.34702 1.3828 1.043 0.21875 0.67348 0.32812 2.391 0.32812 5.1523v9.4961h9.8672v-5.1855c0-5.0961-0.29687-8.846-0.89063-11.248-0.59373-2.4246-1.8359-4.4442-3.7266-6.0606-1.8906-1.6164-4.2891-2.4238-7.1953-2.4238zm71.836 0c-2.3438 0-4.3438 0.54841-6 1.6484-1.6563 1.0776-2.8594 2.583-3.6094 4.5137-0.73437 1.9307-1.1016 4.9826-1.1016 9.1582 0 2.896 0.25781 5.2773 0.77344 7.1406 0.53124 1.8633 1.1953 3.3218 1.9922 4.377 0.79688 1.0551 2.4219 2.7492 4.875 5.084 2.4531 2.3123 3.9922 3.9634 4.6172 4.9512 0.60938 0.98779 0.91406 3.0866 0.91406 6.2969 0 1.4592-0.16406 2.5599-0.49218 3.3008-0.3125 0.74083-0.79688 1.1113-1.4531 1.1113s-1.1172-0.29326-1.3828-0.87696c-0.25-0.58368-0.375-1.8965-0.375-3.9394v-6.6348h-9.1641v3.5703c0 4.0858 0.28906 7.2404 0.86718 9.4629 0.57813 2.2225 1.7969 4.0515 3.6562 5.4883 1.875 1.4368 4.1328 2.1562 6.7734 2.1562 2.4062 0 4.5156-0.61878 6.3281-1.8535 1.8125-1.2572 3.0312-2.8056 3.6562-4.6465 0.64062-1.8409 0.96093-4.7022 0.96093-8.5859 0-5.343-0.57032-9.217-1.7109-11.619-1.1406-2.4021-3.9062-5.4775-8.2969-9.2266-1.5312-1.3021-2.4609-2.4135-2.7891-3.334-0.34375-0.92043-0.51563-2.289-0.51563-4.1074 0-1.4143 0.14843-2.4701 0.44532-3.166 0.3125-0.69595 0.76561-1.043 1.3594-1.043 0.54688 0 0.93749 0.25709 1.1719 0.77344 0.23437 0.51634 0.35156 1.7178 0.35156 3.6035v4.041h9.1641v-2.1543c0-4.3328-0.29689-7.3974-0.89062-9.1934-0.57813-1.8184-1.7734-3.3238-3.5859-4.5137-1.7969-1.1898-3.9766-1.7832-6.5391-1.7832zm24.82 0c-2.3438 0-4.3438 0.54841-6 1.6484-1.6562 1.0776-2.8594 2.583-3.6094 4.5137-0.73437 1.9307-1.1016 4.9826-1.1016 9.1582 0 2.896 0.25781 5.2773 0.77344 7.1406 0.53124 1.8633 1.1953 3.3218 1.9922 4.377 0.79686 1.0551 2.4219 2.7492 4.875 5.084 2.4531 2.3123 3.9922 3.9634 4.6172 4.9512 0.60939 0.98779 0.91407 3.0866 0.91407 6.2969 0 1.4592-0.16407 2.5599-0.49219 3.3008-0.3125 0.74083-0.79688 1.1113-1.4531 1.1113-0.65624 0-1.1172-0.29326-1.3828-0.87696-0.25-0.58368-0.375-1.8965-0.375-3.9394v-6.6348h-9.1641v3.5703c0 4.0858 0.28906 7.2404 0.86719 9.4629 0.57812 2.2225 1.7969 4.0515 3.6562 5.4883 1.875 1.4368 4.1328 2.1562 6.7734 2.1562 2.4062 0 4.5156-0.61878 6.3281-1.8535 1.8125-1.2572 3.0312-2.8056 3.6562-4.6465 0.64062-1.8409 0.96094-4.7022 0.96094-8.5859 0-5.343-0.57032-9.217-1.7109-11.619-1.1406-2.4021-3.9062-5.4775-8.2969-9.2266-1.5312-1.3021-2.4609-2.4135-2.7891-3.334-0.34375-0.92043-0.51562-2.289-0.51562-4.1074 0-1.4143 0.14843-2.4701 0.44531-3.166 0.3125-0.69595 0.76562-1.043 1.3594-1.043 0.54688 0 0.9375 0.25709 1.1719 0.77344 0.23437 0.51634 0.35156 1.7178 0.35156 3.6035v4.041h9.1641v-2.1543c0-4.3328-0.29687-7.3974-0.89062-9.1934-0.57812-1.8184-1.7734-3.3238-3.5859-4.5137-1.7969-1.1898-3.9766-1.7832-6.5391-1.7832zm-81.305 1.1445v54.518h9.8672v-22.898h2.9531v22.898h9.8672v-54.518h-9.8672v19.496h-2.9531v-19.496h-9.8672zm26.648 0v54.518h17.109v-10.91h-7.2422v-11.988h6.1641v-10.371h-6.1641v-10.338h6.5859v-10.91h-16.453zm-52.242 64.336v54.52h9.8672v-21.957h2.6484c2.1562 2e-5 3.8984-0.42621 5.2266-1.2793 1.3437-0.85309 2.2656-2.076 2.7656-3.6699 0.50001-1.5939 0.75-4.1316 0.75-7.6113v-4.748c0-3.4123-0.13281-5.9266-0.39843-7.543-0.25001-1.6388-0.74218-3.0308-1.4766-4.1758-0.71875-1.1449-1.8047-2.0208-3.2578-2.627-1.4375-0.60614-3.5-0.90819-6.1875-0.90821h-9.9375zm25.664 0-5.0156 54.52h10.219l0.58594-9.8008h3.5391l0.49219 9.8008h10.102l-5.6484-54.52h-14.273zm21.609 0v54.52h9.8672v-24.584c1.3594 0 2.1953 0.34899 2.5078 1.0449 0.32811 0.69594 0.49219 2.5034 0.49219 5.4219v18.117h9.1641v-14.379c0-4.4001-0.0859-7.0835-0.25781-8.0488-0.15626-0.98777-0.57033-2.065-1.2422-3.2324-0.67188-1.1674-1.9844-2.099-3.9375-2.7949 2.1562-0.29185 3.6016-1.1677 4.3359-2.627 0.73436-1.4592 1.1016-4.3098 1.1016-8.5527 0-4.6471-0.52344-8.0264-1.5703-10.137-1.0313-2.1327-2.375-3.4583-4.0312-3.9746-1.6406-0.51633-4.7891-0.77342-9.4453-0.77344h-6.9844zm24.164 0v10.91h5.8359v43.609h9.8672v-43.609h5.8594v-10.91h-21.562zm22.758 0 6.9375 34.785v19.734h9.1406v-19.734l7.1953-34.785h-9.0703c-1.2813 8.486-2.1953 15.637-2.7422 21.451-0.17187-3.6817-0.96874-10.832-2.3906-21.451h-9.0703zm-84.328 9.3281c1.2812 0 2.125 0.28056 2.5312 0.8418 0.40624 0.56124 0.60937 1.7734 0.60937 3.6367v4.4785c0 2.0205-0.17967 3.3568-0.53906 4.0078-0.34374 0.6286-0.96874 0.94141-1.875 0.94141-0.20313 0-0.44531-0.0108-0.72656-0.0332v-13.873zm47.273 0c1.1406 0 1.9219 0.26981 2.3438 0.80859 0.43749 0.53881 0.65625 1.6718 0.65625 3.4004v2.9961c0 2.4021-0.22656 3.8284-0.67969 4.2773-0.4375 0.42654-1.211 0.64063-2.3203 0.64063v-12.123zm-23.93 2.8613c0.5 9.0696 0.99999 16.692 1.5 22.865h-3.375c0.25001-4.8267 0.875-12.449 1.875-22.865zm122.66 72.52v19.732l-7.1953 34.785h9.0703c1.2812-8.4859 2.1953-15.635 2.7422-21.449 0.17187 3.6817 0.96874 10.831 2.3906 21.449h9.0703l-6.9375-34.785v-19.732h-9.1406zm23.133 0v43.607h-5.8594v10.91h21.562v-10.91h-5.8359v-43.607h-9.8672zm17.836 0v14.379c0 4.4001 0.0859 7.0815 0.25781 8.0469 0.15625 0.98779 0.57031 2.067 1.2422 3.2344 0.67187 1.1674 1.9844 2.099 3.9375 2.7949-2.1562 0.29183-3.6016 1.1658-4.3359 2.625-0.73436 1.4592-1.1016 4.3117-1.1016 8.5547 0 4.6471 0.52344 8.0245 1.5703 10.135 1.0312 2.1327 2.375 3.4583 4.0312 3.9746 1.6406 0.51634 4.7891 0.77344 9.4453 0.77344h6.9844v-54.518h-9.8672v24.582c-1.3594 0-2.1953-0.34898-2.5078-1.0449-0.32813-0.69594-0.49219-2.5015-0.49219-5.4199v-18.117h-9.1641zm23.719 0 5.6484 54.518h14.273l5.0156-54.518h-10.219l-0.58594 9.7988h-3.5391l-0.49219-9.7988h-10.102zm35.719 0v21.955h-2.6484c-2.1562 0-3.8984 0.42621-5.2266 1.2793-1.3438 0.85309-2.2656 2.076-2.7656 3.6699-0.5 1.5939-0.75 4.1316-0.75 7.6113v4.748c0 3.4123 0.13282 5.9266 0.39844 7.543 0.25001 1.6388 0.74219 3.0308 1.4766 4.1758 0.71876 1.1449 1.8047 2.0208 3.2578 2.627 1.4375 0.60614 3.5 0.90821 6.1875 0.90821h9.9375v-54.518h-9.8672zm-24.844 19.463h3.375c-0.25 4.8266-0.875 12.449-1.875 22.865-0.5-9.0696-1-16.692-1.5-22.865zm24.117 11.82c0.20312 0 0.4453 0.01091 0.72656 0.03321v13.873c-1.2813 0-2.125-0.28057-2.5312-0.84179-0.40625-0.56125-0.60938-1.7734-0.60938-3.6367v-4.4785c0-2.0205 0.17969-3.3548 0.53907-4.0059 0.34374-0.62858 0.96873-0.94336 1.875-0.94336zm-46.547 1.7852v12.121c-1.1406 0-1.9219-0.26784-2.3438-0.80664-0.4375-0.53879-0.65625-1.6737-0.65625-3.4023v-2.9961c0-2.4021 0.22656-3.8284 0.67969-4.2773 0.4375-0.42654 1.2109-0.63867 2.3203-0.63867zm-50.648 30.123c-2.4062 0-4.5156 0.61683-6.3281 1.8516-1.8125 1.2572-3.0312 2.8056-3.6562 4.6465-0.64063 1.8409-0.96094 4.7041-0.96094 8.5879 0 5.343 0.5703 9.2151 1.7109 11.617 1.1406 2.4021 3.9063 5.4775 8.2969 9.2266 1.5313 1.3021 2.4609 2.4136 2.7891 3.334 0.34375 0.92042 0.51562 2.289 0.51562 4.1074 0 1.4143-0.14844 2.4701-0.44531 3.166-0.3125 0.69594-0.76562 1.0449-1.3594 1.0449-0.54687 0-0.93749-0.25906-1.1719-0.77539-0.23436-0.51635-0.35156-1.7178-0.35156-3.6035v-4.041h-9.1641v2.1563c0 4.3328 0.29687 7.3974 0.89063 9.1934 0.57812 1.8184 1.7734 3.3219 3.5859 4.5117 1.7969 1.1898 3.9766 1.7852 6.5391 1.7852 2.3438 0 4.3438-0.55037 6-1.6504 1.6563-1.0776 2.8594-2.5811 3.6094-4.5117 0.73438-1.9307 1.1016-4.9845 1.1016-9.1602 0-2.896-0.25782-5.2754-0.77344-7.1387-0.53125-1.8633-1.1953-3.3238-1.9922-4.3789-0.79688-1.0551-2.4219-2.7492-4.875-5.084-2.4531-2.3123-3.9922-3.9634-4.6172-4.9512-0.60937-0.98779-0.91406-3.0866-0.91406-6.2969 0-1.4592 0.16405-2.558 0.49219-3.2988 0.3125-0.74083 0.79688-1.1113 1.4531-1.1113 0.65625 0 1.1172 0.2913 1.3828 0.875 0.24998 0.58368 0.375 1.8965 0.375 3.9394v6.6348h9.1641v-3.5703c0-4.0858-0.28907-7.2404-0.86719-9.4629-0.57813-2.2225-1.7969-4.0515-3.6562-5.4883-1.875-1.4368-4.1328-2.1543-6.7734-2.1543zm24.82 0c-2.4062 0-4.5156 0.61683-6.3281 1.8516-1.8125 1.2572-3.0312 2.8056-3.6562 4.6465-0.64062 1.8409-0.96094 4.7041-0.96094 8.5879 0 5.343 0.57031 9.2151 1.7109 11.617 1.1406 2.4021 3.9062 5.4775 8.2969 9.2266 1.5312 1.3021 2.4609 2.4136 2.7891 3.334 0.34375 0.92042 0.51562 2.289 0.51562 4.1074 0 1.4143-0.14843 2.4701-0.44531 3.166-0.3125 0.69594-0.76564 1.0449-1.3594 1.0449-0.54688 0-0.9375-0.25906-1.1719-0.77539-0.23436-0.51635-0.35156-1.7178-0.35156-3.6035v-4.041h-9.1641v2.1563c0 4.3328 0.29686 7.3974 0.89062 9.1934 0.57812 1.8184 1.7734 3.3219 3.5859 4.5117 1.7969 1.1898 3.9766 1.7852 6.5391 1.7852 2.3438 0 4.3438-0.55037 6-1.6504 1.6563-1.0776 2.8594-2.5811 3.6094-4.5117 0.73436-1.9307 1.1016-4.9845 1.1016-9.1602 0-2.896-0.25781-5.2754-0.77344-7.1387-0.53124-1.8633-1.1953-3.3238-1.9922-4.3789-0.79687-1.0551-2.4219-2.7492-4.875-5.084-2.4531-2.3123-3.9922-3.9634-4.6172-4.9512-0.60939-0.98779-0.91407-3.0866-0.91407-6.2969 0-1.4592 0.16407-2.558 0.49219-3.2988 0.3125-0.74083 0.79688-1.1113 1.4531-1.1113 0.65624 0 1.1172 0.2913 1.3828 0.875 0.25 0.58368 0.375 1.8965 0.375 3.9394v6.6348h9.1641v-3.5703c0-4.0858-0.28906-7.2404-0.86719-9.4629-0.57812-2.2225-1.7969-4.0515-3.6562-5.4883-1.875-1.4368-4.1328-2.1543-6.7734-2.1543zm72.445 0c-2.7812 0-5.1172 0.88665-7.0078 2.6602-1.9062 1.7735-3.1328 3.8381-3.6797 6.1953-0.5625 2.3572-0.84375 6.3534-0.84375 11.988v2.1211h9.8672v-6.8359c0-2.9858 0.11718-4.8832 0.35156-5.6914 0.21875-0.8082 0.69531-1.2109 1.4297-1.2109 0.76562 0 1.2578 0.40274 1.4766 1.2109 0.21874 0.80817 0.32812 2.5384 0.32812 5.1875v25.322c0 2.7613-0.10938 4.558-0.32812 5.3887-0.21875 0.83064-0.73437 1.2461-1.5469 1.2461-0.71874 0-1.1797-0.34898-1.3828-1.0449-0.21874-0.67348-0.32812-2.391-0.32812-5.1523v-9.4961h-9.8672v5.1855c0 5.0961 0.29689 8.846 0.89062 11.248 0.59375 2.4246 1.8359 4.4442 3.7266 6.0606 1.8906 1.6164 4.2891 2.4258 7.1953 2.4258 2.1406 0 4.0391-0.52885 5.6953-1.584 1.6406-1.0327 2.9297-2.457 3.8672-4.2754 0.92187-1.8184 1.4766-3.7158 1.6641-5.6914 0.1875-1.9531 0.28125-4.8936 0.28125-8.8223v-15.928c0-5.343-0.30468-9.352-0.91406-12.023-0.60937-2.6491-1.8516-4.7244-3.7266-6.2285-1.875-1.5041-4.2578-2.2559-7.1484-2.2559zm-58.828 1.1445v10.91h7.2422v11.988h-6.1641v10.371h6.1641v10.338h-6.5859v10.91h16.453v-54.518h-17.109zm21.07 0v54.518h9.8672v-19.496h2.9531v19.496h9.8672v-54.518h-9.8672v22.898h-2.9531v-22.898h-9.8672z" fill="#d7d1e4" stroke-width="1.0788"/>
</svg>
