<?xml version="1.0" encoding="UTF-8"?>
<svg width="1200" height="1200" shape-rendering="crispEdges" version="1.1" viewBox="0 0 1200 1200" xmlns="http://www.w3.org/2000/svg">
 <path d="m1138.2 22.27a6.4736 6.4736 0 0 0-6.4277 6.4941 6.4736 6.4736 0 0 0 6.4843 6.4531 6.4736 6.4736 0 0 0 6.4629-6.4727v-0.04297a6.4736 6.4736 0 0 0-6.5039-6.4316 6.4736 6.4736 0 0 0-0.016 0zm33.182 2.5742a6.4736 6.4736 0 0 0-6.4257 6.4941 6.4736 6.4736 0 0 0 6.4824 6.4531 6.4736 6.4736 0 0 0 6.4629-6.4746v-0.04102a6.4736 6.4736 0 0 0-6.5039-6.4316 6.4736 6.4736 0 0 0-0.016 0zm-61.402 1.8379a6.4736 6.4736 0 0 0-6.4258 6.4941 6.4736 6.4736 0 0 0 6.4824 6.4531 6.4736 6.4736 0 0 0 6.4649-6.4727v-0.04297a6.4736 6.4736 0 0 0-6.5059-6.4316 6.4736 6.4736 0 0 0-0.016 0zm-30.242 12.686a6.4736 6.4736 0 0 0-6.4258 6.4941 6.4736 6.4736 0 0 0 6.4844 6.4531 6.4736 6.4736 0 0 0 6.4629-6.4746v-0.04102a6.4736 6.4736 0 0 0-6.5039-6.4316 6.4736 6.4736 0 0 0-0.016 0zm88.215 0.49023-1.668 2.9121c-2.8708 5.0088-7.2975 11.191-10.68 14.916-1.0208 1.1243-1.8555 2.1431-1.8555 2.2656 0 0.4847 4.3271 5.5212 7.8731 9.1621 2.0596 2.1147 3.7461 4.019 3.7461 4.2324 0 0.21337-0.3756 0.38867-0.834 0.38867-2.1036 0-12.125-11.434-17.314-19.754-1.3095-2.0993-5.7817-10.246-6.4687-11.783l-0.5176-1.1582-0.2305 1.9883c-0.3615 3.1208-1.7895 10.26-2.8691 14.346-1.8483 6.9937-5.4393 16.027-6.3711 16.027-0.947 0-6.8421-7.3226-10.691-13.279-1.5423-2.3866-6.2154-10.957-7.3809-13.537l-0.5586-1.2344-0.2402 2.6562c-0.505 5.5713-2.9044 15.368-5.4609 22.299-0.6619 1.7943-2.3308 5.5432-3.709 8.3301-2.0061 4.056-2.668 5.1062-3.3106 5.2676-0.4416 0.11082-0.8963 0.10734-1.0117-0.0078-0.1155-0.11542 1.075-2.8589 2.6446-6.0977 2.5886-5.3417 4.2363-9.2435 4.2363-10.029 0-0.16349-1.3067-1.0853-2.9043-2.0488-5.6066-3.3815-13.543-9.2914-15.936-11.867-1.2888-1.3876-1.3461-1.2029-0.2773 0.90625 1.6546 3.2652 4.4181 12.979 5.5273 19.43 0.629 3.6576 1.0906 8.6758 1.4942 16.229 0.1146 2.1454 0.2512 3.9004 0.3027 3.9004 0.052 0 1.0461-0.35655 2.209-0.79297 12.83-4.8146 29.224-8.8224 42.883-10.482 8.9904-1.0925 13.49-1.3398 24.348-1.3398 11.885 0 11.021 0.27125 9.7402-3.0684-1.0637-2.7739-2.907-10.022-3.6523-14.361-0.7991-4.6533-1.4692-16.104-1.2286-21.004l0.1661-3.4102zm6.1425 44.428-13.906 0.16211c-14.264 0.16559-16.993 0.36224-26.69 1.9199-5.8893 0.94598-11.578 2.1453-18.094 3.8164-6.2183 1.595-20.963 6.2071-21.473 6.7168-0.7129 0.71279 2.7352 6.0641 6.9375 10.764 1.4212 1.5894 2.7579 2.8961 2.9707 2.9043 0.2128 8e-3 4.472-0.64751 9.4629-1.457 11.597-1.8811 36.384-5.8127 46.244-7.334 4.1922-0.64699 7.9534-1.2594 8.3593-1.3613 0.5587-0.14023 1.0962-1.0039 2.2129-3.5566 1.6228-3.7091 3.4118-9.0421 3.7559-11.193l0.2187-1.3809zm-3.1816 18.643c-3.0228 7e-3 -11.777 1.4193-44.721 6.6758-21.482 3.4278-22.734 3.6563-24.232 4.4082-2.8412 1.4254-4.4887 5.0881-3.6641 8.1504 0.4354 1.6169 2.3722 3.9232 3.8281 4.5586 1.7047 0.74401 4.5688 0.51775 15.406-1.2226 12.572-2.019 18.639-2.9811 27.254-4.3164 15.72-2.4367 24.888-4.0064 26.891-4.6074 1.5663-0.47003 2.4939-0.99351 3.3828-1.9082 1.4843-1.5277 1.9278-2.62 1.9278-4.7461 0-0.88917-0.1582-2.0388-0.3516-2.5527-0.4238-1.1256-2.4593-3.2984-3.6992-3.9492-0.5339-0.28024-0.8392-0.49279-2.0196-0.49024zm-1085.6 970.67a6.4736 6.4736 0 0 0-6.4258 6.4941 6.4736 6.4736 0 0 0 6.4844 6.4531 6.4736 6.4736 0 0 0 6.4629-6.4746v-0.041a6.4736 6.4736 0 0 0-6.5039-6.4316 6.4736 6.4736 0 0 0-0.01563 0h-2e-3zm33.182 2.5722a6.4736 6.4736 0 0 0-6.4258 6.4942 6.4736 6.4736 0 0 0 6.4844 6.4531 6.4736 6.4736 0 0 0 6.4629-6.4727v-0.041a6.4736 6.4736 0 0 0-6.5039-6.4336 6.4736 6.4736 0 0 0-0.0156 0zm-61.4 1.8399a6.4736 6.4736 0 0 0-6.4277 6.4941 6.4736 6.4736 0 0 0 6.4844 6.4512 6.4736 6.4736 0 0 0 6.4629-6.4727v-0.041a6.4736 6.4736 0 0 0-6.5039-6.4316 6.4736 6.4736 0 0 0-0.01563 0zm-30.242 12.684a6.4736 6.4736 0 0 0-6.4258 6.4941 6.4736 6.4736 0 0 0 6.4844 6.4531 6.4736 6.4736 0 0 0 6.4629-6.4726v-0.041a6.4736 6.4736 0 0 0-6.5059-6.4336 6.4736 6.4736 0 0 0-0.01563 0zm88.215 0.4902-1.6699 2.9121c-2.8708 5.0088-7.2955 11.191-10.678 14.916-1.0208 1.1242-1.8574 2.145-1.8574 2.2676 0 0.4847 4.329 5.5193 7.875 9.1602 2.0596 2.1147 3.7441 4.019 3.7441 4.2324s-0.37363 0.3886-0.83203 0.3886c-2.1036 0-12.125-11.432-17.314-19.752-1.3095-2.0994-5.7818-10.246-6.4688-11.783l-0.51758-1.1602-0.23047 1.9903c-0.3615 3.1208-1.7895 10.26-2.8691 14.346-1.8483 6.9937-5.4393 16.027-6.3711 16.027-0.947 0-6.8421-7.3226-10.691-13.279-1.5423-2.3866-6.2173-10.957-7.3828-13.537l-0.55664-1.2363-0.24024 2.6562c-0.505 5.5712-2.9064 15.37-5.4629 22.301-0.6619 1.7943-2.3308 5.5413-3.709 8.3281-2.0061 4.056-2.666 5.1082-3.3086 5.2696-0.4416 0.1108-0.89632 0.1073-1.0117-0.01-0.1155-0.1155 1.073-2.8608 2.6426-6.0996 2.5886-5.3417 4.2363-9.2415 4.2363-10.027 0-0.1636-1.3067-1.0872-2.9043-2.0508-5.6066-3.3814-13.543-9.2915-15.936-11.867-1.2888-1.3877-1.3442-1.2029-0.27539 0.9062 1.6546 3.2652 4.4181 12.981 5.5273 19.432 0.629 3.6576 1.0905 8.6738 1.4941 16.226 0.1146 2.1454 0.25124 3.9024 0.30273 3.9024 0.052 0 1.0441-0.3585 2.207-0.7949 12.83-4.8147 29.224-8.8205 42.883-10.48 8.9904-1.0925 13.492-1.3399 24.35-1.3399 11.885 0 11.021 0.2713 9.7402-3.0683-1.0637-2.7739-2.907-10.022-3.6523-14.361-0.7991-4.6533-1.4691-16.106-1.2285-21.006l0.16602-3.4082zm6.1426 44.43-13.908 0.1601c-14.264 0.1656-16.991 0.3623-26.687 1.92-5.8893 0.9459-11.578 2.1472-18.094 3.8183-6.2183 1.5949-20.965 6.2072-21.475 6.7168-0.7129 0.7128 2.7372 6.0641 6.9395 10.764 1.4212 1.5894 2.7579 2.8961 2.9707 2.9043 0.2128 0.01 4.47-0.6475 9.4609-1.457 11.597-1.8811 36.384-5.8127 46.244-7.334 4.1922-0.647 7.9535-1.2595 8.3594-1.3614 0.5587-0.1402 1.0982-1.0059 2.2148-3.5586 1.6228-3.7092 3.4118-9.0402 3.7558-11.191l0.21875-1.3808zm-3.1816 18.643c-3.0228 0.01-11.777 1.4192-44.721 6.6757-21.482 3.4278-22.736 3.6543-24.234 4.4063-2.8412 1.4254-4.4867 5.0901-3.6621 8.1523 0.4354 1.6169 2.3722 3.9232 3.8281 4.5586 1.7047 0.744 4.5668 0.5158 15.404-1.2246 12.572-2.019 18.639-2.9791 27.254-4.3144 15.72-2.4367 24.889-4.0083 26.891-4.6094 1.5663-0.47 2.4939-0.9935 3.3828-1.9082 1.4843-1.5277 1.9277-2.62 1.9277-4.7461 0-0.8891-0.15817-2.0368-0.35157-2.5508-0.4238-1.1256-2.4574-3.2983-3.6973-3.9492-0.53385-0.2802-0.83917-0.4928-2.0195-0.4902h-2e-3z" fill="#9382b5"/>
 <path d="m477.28 466.38c-3.8802 0-6.6857 1.3773-8.4141 4.1348-1.7114 2.7574-2.5664 6.7314-2.5664 11.922v24.695c0 4.3389 0.98174 7.7142 2.9473 10.127 1.9825 2.4128 4.5918 3.6191 7.8281 3.6191 3.5583 0 6.33-1.0535 8.3125-3.1621 1.9825-2.1289 2.9727-5.5461 2.9727-10.25v-10.127h-8.9961v9.6406c0 1.1962-0.16244 2.1697-0.48438 2.9199-0.30499 0.75019-0.83712 1.125-1.5996 1.125-0.67777 0-1.2034-0.30385-1.5762-0.91211-0.35583-0.60825-0.53515-1.6527-0.53515-3.1328v-26.793c0-1.1962 0.14554-2.1497 0.43359-2.8594 0.28805-0.72991 0.84746-1.0938 1.6777-1.0938 0.71166 0 1.2353 0.28385 1.5742 0.85156 0.33889 0.54743 0.50977 1.6209 0.50977 3.2227v7.9082h8.8945v-9.2461c0-2.8183-0.473-5.1491-1.4219-6.9941-0.94887-1.8653-2.2555-3.2646-3.916-4.1973-1.6436-0.93266-3.5226-1.3984-5.6406-1.3984zm70.885 0c-3.355 0-5.922 1.1954-7.7012 3.5879-1.7622 2.3925-2.6426 5.8697-2.6426 10.432 0 4.3592 1.4989 8.2312 4.498 11.617l4.0156 4.5625c1.1861 1.3382 2.1107 2.5136 2.7715 3.5274 0.67777 0.99347 1.1527 2.0489 1.4238 3.1641 0.27111 1.0949 0.40625 2.4632 0.40625 4.1055 0 1.2976-0.16048 2.2292-0.48242 2.7969-0.305 0.56771-0.86441 0.85156-1.6777 0.85156-0.77944 0-1.3304-0.34384-1.6524-1.0332-0.30499-0.70963-0.45703-1.6831-0.45703-2.9199v-6.6914h-8.8457v5.2324c0 5.3121 0.89727 9.1842 2.6934 11.617 1.813 2.433 4.7621 3.6484 8.8457 3.6484 3.8464 0 6.5401-1.4193 8.082-4.2578 1.5589-2.8588 2.3379-6.8018 2.3379-11.83 0-2.4939-0.26183-4.6028-0.78711-6.3262-0.52527-1.7437-1.2198-3.2629-2.084-4.5606-0.86416-1.3179-1.8141-2.5662-2.8477-3.7422l-5.1582-5.9297c-0.99971-1.1354-1.6689-2.1399-2.0078-3.0117-0.33889-0.87184-0.50977-1.6815-0.50977-2.4316 0-0.75019 0.16244-1.3598 0.48438-1.8262 0.33888-0.4866 0.86451-0.72851 1.5762-0.72851 0.59305 0 1.0576 0.20191 1.3965 0.60742 0.35583 0.40551 0.53516 0.97321 0.53516 1.7031v3.6797h9.0977c0-5.3324-0.86349-9.3064-2.5918-11.922-1.7114-2.6155-4.6182-3.9219-8.7188-3.9219zm24.02 0c-3.355 0-5.922 1.1954-7.7012 3.5879-1.7622 2.3925-2.6445 5.8697-2.6445 10.432 0 4.3592 1.5009 8.2312 4.5 11.617l4.0156 4.5625c1.1861 1.3382 2.1087 2.5136 2.7695 3.5274 0.67777 0.99347 1.1527 2.0489 1.4238 3.1641 0.27111 1.0949 0.40625 2.4632 0.40625 4.1055 0 1.2976-0.16048 2.2292-0.48242 2.7969-0.305 0.56771-0.86441 0.85156-1.6777 0.85156-0.77945 0-1.3304-0.34384-1.6524-1.0332-0.305-0.70963-0.45703-1.6831-0.45703-2.9199v-6.6914h-8.8457v5.2324c0 5.3121 0.89922 9.1842 2.6953 11.617 1.813 2.433 4.7602 3.6484 8.8438 3.6484 3.8464 0 6.5421-1.4193 8.084-4.2578 1.5589-2.8588 2.3379-6.8018 2.3379-11.83 0-2.4939-0.26379-4.6028-0.78906-6.3262-0.52527-1.7437-1.2198-3.2629-2.084-4.5606-0.86416-1.3179-1.8121-2.5662-2.8457-3.7422l-5.1602-5.9297c-0.99971-1.1354-1.6689-2.1399-2.0078-3.0117-0.33889-0.87184-0.50782-1.6815-0.50782-2.4316 0-0.75019 0.16048-1.3598 0.48242-1.8262 0.33889-0.4866 0.86452-0.72851 1.5762-0.72851 0.59305 0 1.0596 0.20191 1.3984 0.60742 0.35583 0.40551 0.53321 0.97321 0.53321 1.7031v3.6797h9.0996c0-5.3324-0.86544-9.3064-2.5938-11.922-1.7114-2.6155-4.6163-3.9219-8.7168-3.9219zm-80.85 0.48633v53.525h8.8945v-24.27h4.2207v24.27h8.8945v-53.525h-8.8945v19.129h-4.2207v-19.129h-8.8945zm25.975 0v53.525h18.479v-10.432h-9.3789v-12.256h8.4375v-10.066h-8.4375v-10.432h8.7949v-10.34h-17.895zm-50.984 63.361v54.5h8.9512v-21.584h3.6992c2.518 0 4.4578-0.66986 5.8203-2.0117 1.3797-1.3419 2.3384-3.232 2.873-5.668 0.53462-2.4566 0.80078-5.3356 0.80078-8.6387 0-3.4269-0.31891-6.3801-0.95704-8.8574-0.6381-2.4773-1.6984-4.3867-3.1816-5.7285-1.4659-1.3419-3.4586-2.0117-5.9766-2.0117h-12.029zm27.396 0-4.3984 54.5h8.8477l0.57031-8.7949h5.4844l0.64648 8.7949h8.6133l-4.3203-54.5h-15.443zm22.559 0v54.5h9.209v-24.865c1.2072 0 2.0786 0.19567 2.6133 0.58789 0.55189 0.3716 0.82812 1.3518 0.82812 2.9414v21.336h8.9766v-20.623c0-2.147-0.29253-3.8925-0.87891-5.2344-0.56913-1.3625-1.5705-2.2194-3.002-2.5703 1.7419-0.68125 2.924-1.9082 3.5449-3.6836 0.63812-1.7754 0.95703-4.1503 0.95703-7.123 0-3.0759-0.20718-5.7487-0.62109-8.0195-0.39667-2.2915-1.1909-4.0669-2.3809-5.3262-1.19-1.2799-2.9491-1.9199-5.2774-1.9199h-13.969zm23.748 0v10.467h5.4062v44.033h9.1074v-44.033h5.4062v-10.467h-19.92zm20.695 0 7.2695 36.57v17.93h8.5898v-17.93l7.2422-36.57h-9.002l-2.5352 18.455-2.5352-18.455h-9.0293zm-59.604 9.2891h0.41406l1.9922 27.715h-4.1387l1.7324-27.715zm-25.844 0.65039h1.0098c1.3797 0 2.2492 0.56771 2.6113 1.7031 0.37942 1.1148 0.57031 2.7051 0.57031 4.7695 0 2.2089-0.19089 3.8802-0.57031 5.0156-0.37942 1.1354-1.4134 1.7031-3.1035 1.7031h-0.51758v-13.191zm50.266 0.1543h2.1211c0.75884 0 1.2748 0.33158 1.5508 0.99219 0.27594 0.6606 0.41406 2.0534 0.41406 4.1797 0 3.2824-0.62773 4.9238-1.8867 4.9238h-2.1992v-10.096zm96.096 74.604v17.93l-7.2422 36.57h9.002l2.5352-18.455 2.5352 18.455h9.0293l-7.2695-36.57v-17.93h-8.5898zm22.041 0v44.033h-5.4062v10.467h19.92v-10.467h-5.4062v-44.033h-9.1074zm16.635 0v20.623c0 2.147 0.29252 3.8925 0.8789 5.2344 0.56913 1.3625 1.5705 2.2194 3.002 2.5703-1.7419 0.68125-2.9241 1.9082-3.5449 3.6836-0.63812 1.7754-0.95703 4.1503-0.95703 7.123 0 3.0759 0.20719 5.7487 0.6211 8.0195 0.39667 2.2915 1.1909 4.0669 2.3809 5.3262 1.19 1.2799 2.9491 1.9199 5.2773 1.9199h13.969v-54.5h-9.209v24.865c-1.2073 0-2.0786-0.19566-2.6133-0.58789-0.55189-0.3716-0.82812-1.3518-0.82812-2.9414v-21.336h-8.9766zm24.422 0 4.3203 54.5h15.443l4.3984-54.5h-8.8477l-0.57031 8.7949h-5.4844l-0.64649-8.7949h-8.6133zm38.209 0v21.584h-3.6992c-2.518 0-4.4578 0.66987-5.8203 2.0117-1.3797 1.3419-2.3384 3.232-2.873 5.668-0.53463 2.4566-0.80078 5.3356-0.80078 8.6387 0 3.4269 0.31891 6.3801 0.95703 8.8574 0.63811 2.4773 1.6984 4.3867 3.1816 5.7285 1.4659 1.3419 3.4586 2.0117 5.9766 2.0117h12.029v-54.5h-8.9512zm-28.25 17.496h4.1387l-1.7324 27.715h-0.41407l-1.9922-27.715zm27.732 13.873h0.51758v13.191h-1.0098c-1.3797 0-2.2492-0.5677-2.6113-1.7031-0.37942-1.1148-0.57031-2.7051-0.57031-4.7695 0-2.2089 0.19089-3.8802 0.57031-5.0156 0.37942-1.1354 1.4134-1.7031 3.1035-1.7031zm-51.947 2.9414h2.1992v10.096h-2.1211c-0.75884 0-1.2748-0.33157-1.5508-0.99218-0.27594-0.6606-0.41407-2.0534-0.41407-4.1797 0-3.2824 0.62773-4.9238 1.8867-4.9238zm-45.637 29.539c-3.8464 0-6.5421 1.4193-8.084 4.2578-1.5589 2.8588-2.3379 6.8018-2.3379 11.83 0 2.4939 0.26379 4.6028 0.78906 6.3262 0.52527 1.7437 1.2198 3.2629 2.084 4.5605 0.86415 1.3179 1.8121 2.5662 2.8457 3.7422l5.1602 5.9297c0.99971 1.1354 1.6689 2.1399 2.0078 3.0117 0.33889 0.87184 0.50781 1.6815 0.50781 2.4316 0 0.75019-0.16048 1.3598-0.48242 1.8262-0.33889 0.4866-0.86451 0.72852-1.5762 0.72852-0.59305 0-1.0596-0.20192-1.3984-0.60743-0.35583-0.40551-0.53321-0.9732-0.53321-1.7031v-3.6797h-9.0996c0 5.3324 0.86544 9.3064 2.5938 11.922 1.7114 2.6155 4.6163 3.9219 8.7168 3.9219 3.355 0 5.922-1.1954 7.7012-3.5879 1.7622-2.3925 2.6445-5.8697 2.6445-10.432 0-4.3592-1.5009-8.2312-4.5-11.617l-4.0156-4.5625c-1.1861-1.3382-2.1087-2.5136-2.7695-3.5273-0.67777-0.99348-1.1527-2.0489-1.4238-3.1641-0.27111-1.0949-0.40625-2.4632-0.40625-4.1055 0-1.2976 0.16048-2.2292 0.48242-2.7969 0.305-0.56771 0.86442-0.85156 1.6777-0.85156 0.77944 0 1.3304 0.34384 1.6523 1.0332 0.305 0.70963 0.45703 1.6831 0.45703 2.9199v6.6914h8.8457v-5.2324c0-5.3121-0.89923-9.1842-2.6953-11.617-1.813-2.433-4.7602-3.6484-8.8438-3.6484zm24.018 0c-3.8464 0-6.5401 1.4193-8.082 4.2578-1.5589 2.8588-2.3379 6.8018-2.3379 11.83 0 2.4939 0.26183 4.6028 0.78711 6.3262 0.52527 1.7437 1.2198 3.2629 2.084 4.5605 0.86416 1.3179 1.8141 2.5662 2.8477 3.7422l5.1582 5.9297c0.99971 1.1354 1.6689 2.1399 2.0078 3.0117 0.33889 0.87184 0.50977 1.6815 0.50977 2.4316 0 0.75019-0.16243 1.3598-0.48437 1.8262-0.33888 0.4866-0.86452 0.72852-1.5762 0.72852-0.59305 0-1.0576-0.20192-1.3965-0.60743-0.35583-0.40551-0.53516-0.9732-0.53516-1.7031v-3.6797h-9.0976c0 5.3324 0.86348 9.3064 2.5918 11.922 1.7114 2.6155 4.6182 3.9219 8.7188 3.9219 3.355 0 5.922-1.1954 7.7012-3.5879 1.7622-2.3925 2.6426-5.8697 2.6426-10.432 0-4.3592-1.4989-8.2312-4.498-11.617l-4.0156-4.5625c-1.1861-1.3382-2.1106-2.5136-2.7715-3.5273-0.67777-0.99348-1.1527-2.0489-1.4238-3.1641-0.27111-1.0949-0.40625-2.4632-0.40625-4.1055 0-1.2976 0.16048-2.2292 0.48242-2.7969 0.305-0.56771 0.86442-0.85156 1.6777-0.85156 0.77944 0 1.3304 0.34384 1.6523 1.0332 0.30499 0.70963 0.45703 1.6831 0.45703 2.9199v6.6914h8.8457v-5.2324c0-5.3121-0.89727-9.1842-2.6934-11.617-1.813-2.433-4.7621-3.6484-8.8457-3.6484zm72.285 0c-3.5583 0-6.33 1.0535-8.3125 3.1621-1.9825 2.1289-2.9727 5.5461-2.9727 10.25v10.127h8.9961v-9.6406c0-1.1962 0.16243-2.1697 0.48437-2.9199 0.30499-0.75019 0.83712-1.125 1.5996-1.125 0.67777 0 1.2034 0.30385 1.5762 0.91211 0.35583 0.60825 0.53516 1.6527 0.53516 3.1328v26.793c0 1.1962-0.14555 2.1497-0.4336 2.8594-0.28805 0.72992-0.84746 1.0938-1.6777 1.0938-0.71166 0-1.2353-0.28386-1.5742-0.85157-0.33889-0.54743-0.50976-1.6209-0.50976-3.2226v-7.9082h-8.8945v9.2461c0 2.8183 0.473 5.1491 1.4219 6.9941 0.94887 1.8653 2.2555 3.2646 3.916 4.1973 1.6436 0.93266 3.5226 1.3984 5.6406 1.3984 3.8802 0 6.6857-1.3773 8.4141-4.1348 1.7114-2.7574 2.5664-6.7314 2.5664-11.922v-24.695c0-4.3389-0.98174-7.7142-2.9473-10.127-1.9825-2.4128-4.5918-3.6191-7.8281-3.6191zm-58.713 0.48633v10.432h9.3789v12.256h-8.4375v10.066h8.4375v10.432h-8.7949v10.34h17.895v-53.525h-18.479zm22.443 0v53.525h8.8945v-19.129h4.2207v19.129h8.8945v-53.525h-8.8945v24.27h-4.2207v-24.27h-8.8945z" fill="#d7d1e4" stroke-width="1.0676"/>
</svg>
