<?xml version="1.0" encoding="UTF-8"?>
<svg width="1200" height="1200" shape-rendering="crispEdges" version="1.1" viewBox="0 0 1200 1200" xmlns="http://www.w3.org/2000/svg">
 <path d="m1128.1 17.531c-3.7736 0.02673-6.8148 3.1015-6.8027 6.875 0.012 3.7809 3.0842 6.8365 6.8652 6.8301 3.7808-0.01145 6.8423-3.0727 6.8418-6.8535v-0.042968c-0.025-3.78-3.1066-6.8264-6.8867-6.8086h-0.0156-2e-3zm35.127 2.7227c-3.7736 0.02768-6.8148 3.1013-6.8028 6.875 0.012 3.7809 3.0845 6.8384 6.8653 6.832 3.7801-0.011451 6.8413-3.0734 6.8418-6.8535v-0.042969c-0.023-3.7809-3.1058-6.8285-6.8867-6.8105h-0.0157-0.0019zm-65 1.9473c-3.7743 0.02577-6.8168 3.1007-6.8047 6.875 0.013 3.7802 3.0852 6.8365 6.8652 6.8301 3.7801-0.01145 6.8414-3.0714 6.8418-6.8516v-0.042969c-0.025-3.7801-3.1046-6.8263-6.8847-6.8086h-0.0176v-0.001953zm-32.014 13.428c-3.7736 0.02673-6.8148 3.1015-6.8027 6.875 0.012 3.7809 3.0824 6.8384 6.8632 6.832 3.7801-0.010501 6.8412-3.0715 6.8418-6.8516v-0.042969c-0.023-3.7817-3.1049-6.8295-6.8867-6.8105h-0.0156v-0.001953zm93.385 0.51953-1.7676 3.082c-3.0391 5.3026-7.7219 11.848-11.303 15.791-1.0807 1.1901-1.9668 2.2706-1.9668 2.4004 0 0.51304 4.582 5.8427 8.3359 9.6973 2.1803 2.2387 3.9648 4.2546 3.9648 4.4805 0 0.22593-0.3956 0.41211-0.8808 0.41211-2.2269 0-12.837-12.102-18.33-20.91-1.3862-2.2224-6.1205-10.847-6.8477-12.475l-0.5468-1.2285-0.2442 2.1074c-0.3827 3.304-1.8942 10.862-3.0371 15.188-1.9566 7.4038-5.7597 16.967-6.7461 16.967-1.0025 0-7.2418-7.7529-11.316-14.059-1.6327-2.5265-6.5826-11.599-7.8164-14.33l-0.5898-1.3086-0.2539 2.8125c-0.5346 5.8978-3.0769 16.27-5.7832 23.607-0.7008 1.8996-2.4668 5.8663-3.9258 8.8164-2.1237 4.2938-2.8235 5.4074-3.5039 5.5781-0.4674 0.1174-0.9483 0.11536-1.0703-0.009766-0.1223-0.12208 1.1351-3.0284 2.7968-6.457 2.7403-5.6549 4.4864-9.7837 4.4864-10.615 0-0.17324-1.3849-1.1518-3.0762-2.1719-5.9353-3.5797-14.336-9.8359-16.869-12.562-1.3642-1.469-1.4224-1.2738-0.291 0.95898 1.7517 3.4566 4.6754 13.743 5.8496 20.572 0.6659 3.8721 1.1548 9.1809 1.5821 17.176 0.1213 2.2712 0.2658 4.1328 0.3203 4.1328 0.055 0 1.1069-0.37982 2.3379-0.8418 13.582-5.097 30.937-9.3388 45.396-11.096 9.5175-1.1565 14.283-1.418 25.777-1.418 12.582 0 11.667 0.28739 10.311-3.248-1.126-2.9365-3.0763-10.61-3.8653-15.203-0.846-4.9261-1.5555-17.049-1.3008-22.236l0.1758-3.6094h-0.0019zm6.5039 47.035-14.725 0.16992c-15.1 0.17534-17.986 0.38208-28.25 2.0312-6.2345 1.0012-12.256 2.2739-19.154 4.043-6.5829 1.6884-22.194 6.57-22.734 7.1094-0.7546 0.75462 2.8971 6.4211 7.3457 11.396 1.5045 1.6826 2.9193 3.0654 3.1445 3.0742 0.2254 0.0115 4.7322-0.68602 10.016-1.543 12.277-1.9914 38.517-6.1532 48.955-7.7637 4.438-0.68504 8.4199-1.3334 8.8496-1.4414 0.5915-0.14842 1.1618-1.0652 2.3438-3.7676 1.718-3.9266 3.6123-9.5689 3.9766-11.846l0.2324-1.4629zm-3.3692 19.736c-3.2 0.0115-12.466 1.5017-47.342 7.0664-22.741 3.6288-24.068 3.868-25.654 4.6641-3.0078 1.509-4.7499 5.3891-3.8769 8.6309 0.4609 1.7117 2.5115 4.1534 4.0527 4.8262 1.8046 0.78764 4.8342 0.54568 16.307-1.2969 13.309-2.1373 19.732-3.1529 28.852-4.5664 16.642-2.5797 26.348-4.2445 28.467-4.8809 1.6582-0.49767 2.6411-1.0513 3.5821-2.0195 1.5714-1.6173 2.041-2.7745 2.041-5.0254 0-0.94113-0.1683-2.1552-0.3731-2.6992-0.4486-1.1917-2.6015-3.4927-3.914-4.1816-0.5652-0.29666-0.8873-0.52035-2.1368-0.51758h-0.0039zm-1084.9 964.63c-3.7736 0.027-6.8128 3.1016-6.8008 6.875 0.01198 3.7809 3.0824 6.8384 6.8633 6.832 3.7809-0.012 6.8424-3.0746 6.8418-6.8555v-0.0429c-0.02448-3.7799-3.1047-6.8265-6.8848-6.8086h-0.015625-0.001953-0.001953zm35.129 2.7226c-3.7736 0.028-6.8148 3.1014-6.8027 6.875 0.0121 3.7809 3.0824 6.8384 6.8633 6.8321 3.7801-0.012 6.8413-3.0714 6.8418-6.8516v-0.043c-0.0234-3.7809-3.1039-6.8285-6.8848-6.8105h-0.01563l-0.00195-2e-3zm-65 1.9473c-3.7744 0.026-6.8167 3.1007-6.8047 6.875 0.013081 3.7802 3.0851 6.8365 6.8652 6.8301 3.7801-0.012 6.8413-3.0714 6.8418-6.8516v-0.043c-0.02449-3.7799-3.1066-6.8262-6.8867-6.8085h-0.015625v-2e-3zm-32.016 13.428c-3.7736 0.027-6.8148 3.1014-6.8027 6.875 0.01197 3.781 3.0844 6.8384 6.8652 6.8321 3.78-0.01 6.8412-3.0716 6.8418-6.8516v-0.043c-0.02332-3.7815-3.105-6.8294-6.8867-6.8105h-0.017578v-2e-3zm93.387 0.5196-1.7676 3.082c-3.0391 5.3026-7.7239 11.848-11.305 15.791-1.0806 1.19-1.9648 2.2707-1.9648 2.4004 0 0.5132 4.5821 5.8428 8.3359 9.6973 2.1803 2.2387 3.9629 4.2545 3.9629 4.4804s-0.39559 0.4121-0.88086 0.4121c-2.2269 0-12.835-12.102-18.328-20.91-1.3863-2.2224-6.1204-10.848-6.8477-12.475l-0.54883-1.2266-0.24414 2.1055c-0.38269 3.3041-1.8942 10.862-3.0371 15.188-1.9567 7.4039-5.7577 16.967-6.7441 16.967-1.0025 0-7.2438-7.7511-11.318-14.057-1.6327-2.5265-6.5806-11.601-7.8145-14.332l-0.58984-1.3086-0.25391 2.8125c-0.53461 5.8977-3.0768 16.27-5.7832 23.607-0.7007 1.8996-2.4687 5.8662-3.9277 8.8165-2.1237 4.2935-2.8217 5.4092-3.502 5.58-0.46749 0.1174-0.94817 0.1121-1.0703-0.0136-0.12227-0.1221 1.1353-3.0286 2.7969-6.4571 2.7404-5.6549 4.4844-9.7819 4.4844-10.613 0-0.1734-1.383-1.1518-3.0742-2.1718-5.9353-3.5798-14.338-9.836-16.871-12.562-1.3644-1.469-1.4225-1.2738-0.29102 0.959 1.7516 3.4567 4.6773 13.741 5.8516 20.57 0.66588 3.8722 1.1548 9.1828 1.582 17.178 0.12132 2.2712 0.2658 4.1309 0.32031 4.1309 0.05504 0 1.1049-0.3781 2.3359-0.8399 13.582-5.0971 30.939-9.3387 45.398-11.096 9.5175-1.1564 14.283-1.418 25.777-1.418 12.582 0 11.666 0.2873 10.311-3.248-1.1261-2.9366-3.0782-10.61-3.8672-15.203-0.84596-4.9261-1.5535-17.049-1.2988-22.236l0.17382-3.6093zm6.502 47.035-14.723 0.1699c-15.1 0.1753-17.988 0.3821-28.252 2.0313-6.2346 1.0012-12.256 2.2738-19.154 4.043-6.5829 1.6882-22.194 6.57-22.734 7.1093-0.7547 0.7547 2.899 6.4211 7.3477 11.396 1.5045 1.6826 2.9193 3.0655 3.1445 3.0742 0.22528 0.012 4.7321-0.6859 10.016-1.5429 12.277-1.9914 38.517-6.1534 48.955-7.7637 4.438-0.685 8.4199-1.3335 8.8496-1.4414 0.59145-0.1483 1.1617-1.0653 2.3438-3.7676 1.7179-3.9266 3.6124-9.5687 3.9766-11.846l0.23047-1.4629zm-3.3672 19.736c-3.2 0.012-12.466 1.5016-47.342 7.0664-22.741 3.6287-24.07 3.868-25.656 4.664-3.0078 1.509-4.7499 5.3891-3.877 8.6309 0.46093 1.7116 2.5115 4.1535 4.0527 4.8262 1.8046 0.7877 4.8361 0.5456 16.309-1.2969 13.309-2.1372 19.732-3.153 28.852-4.5664 16.642-2.5797 26.347-4.2445 28.467-4.8809 1.6581-0.4977 2.641-1.0513 3.582-2.0195 1.5713-1.6174 2.0391-2.7744 2.0391-5.0254 0-0.941-0.16635-2.1551-0.37109-2.6992-0.44863-1.1916-2.6015-3.4927-3.9141-4.1817-0.56515-0.2966-0.88914-0.5203-2.1387-0.5175h-0.00195z" fill="#9382b5" stroke-width="1.0586"/>
 <path d="m475.47 469.8c-4.0465 0-6.971 1.2926-8.7734 3.8789-1.7848 2.5862-2.6777 6.3133-2.6777 11.182v23.162c0 4.0695 1.0244 7.235 3.0742 9.498 2.0675 2.263 4.7891 3.3945 8.1641 3.3945 3.7108 0 6.6005-0.98911 8.668-2.9668 2.0674-1.9967 3.0996-5.2014 3.0996-9.6133v-9.498h-9.3809v9.043c0 1.1219-0.17012 2.0347-0.50586 2.7383-0.31806 0.70361-0.87282 1.0547-1.668 1.0547-0.70681 0-1.2538-0.28497-1.6426-0.85547-0.37107-0.57048-0.55859-1.5493-0.55859-2.9375v-25.131c0-1.1219 0.15273-2.016 0.45312-2.6816 0.30041-0.6846 0.88224-1.0254 1.748-1.0254 0.74217 0 1.2892 0.26637 1.6426 0.79883 0.3534 0.51344 0.53125 1.5191 0.53125 3.0215v7.418h9.2754v-8.6719c0-2.6433-0.49284-4.8301-1.4824-6.5606-0.98953-1.7495-2.3523-3.0608-4.084-3.9356-1.714-0.87475-3.674-1.3125-5.8828-1.3125zm73.924 0c-3.4988 0-6.1758 1.1213-8.0312 3.3652-1.8377 2.244-2.7559 5.5061-2.7559 9.7852 0 4.0886 1.5618 7.719 4.6894 10.895l4.1875 4.2793c1.2369 1.2551 2.2015 2.3577 2.8906 3.3086 0.70681 0.93179 1.2016 1.9228 1.4844 2.9688 0.28271 1.0269 0.42383 2.3093 0.42383 3.8496 0 1.217-0.16621 2.0906-0.50195 2.623-0.31808 0.53246-0.90187 0.79883-1.75 0.79883-0.81284 0-1.3869-0.32219-1.7227-0.96875-0.31805-0.66557-0.47656-1.5783-0.47656-2.7383v-6.2754h-9.2246v4.9062c0 4.9823 0.93549 8.6147 2.8086 10.896 1.8907 2.2819 4.966 3.4219 9.2246 3.4219 4.0112 0 6.8198-1.3319 8.4277-3.9941 1.6257-2.6813 2.4375-6.3797 2.4375-11.096 0-2.3391-0.27252-4.3152-0.82032-5.9316-0.54777-1.6354-1.2726-3.0622-2.1738-4.2793-0.90118-1.2361-1.8908-2.4068-2.9688-3.5098l-5.3789-5.5606c-1.0425-1.0649-1.7403-2.0066-2.0938-2.8242-0.3534-0.81771-0.53125-1.5777-0.53125-2.2812 0-0.70362 0.16817-1.2754 0.50391-1.7129 0.35341-0.45638 0.90235-0.68359 1.6445-0.68359 0.61846 0 1.1016 0.18998 1.4551 0.57031 0.37108 0.38034 0.5586 0.91309 0.5586 1.5977v3.4512h9.4883c0-5.0013-0.90074-8.7284-2.7031-11.182-1.7847-2.4531-4.8155-3.6797-9.0918-3.6797zm25.049 0c-3.4988 0-6.1758 1.1213-8.0312 3.3652-1.8377 2.244-2.7578 5.5061-2.7578 9.7852 0 4.0886 1.5658 7.719 4.6934 10.895l4.1875 4.2793c1.2369 1.2551 2.1976 2.3577 2.8867 3.3086 0.7068 0.93179 1.2036 1.9228 1.4863 2.9688 0.28273 1.0269 0.42383 2.3093 0.42383 3.8496 0 1.217-0.16817 2.0906-0.50391 2.623-0.31806 0.53246-0.90185 0.79883-1.75 0.79883-0.81284 0-1.3868-0.32219-1.7226-0.96875-0.31808-0.66557-0.47657-1.5783-0.47657-2.7383v-6.2754h-9.2246v4.9062c0 4.9823 0.93751 8.6147 2.8106 10.896 1.8907 2.2819 4.9641 3.4219 9.2227 3.4219 4.0112 0 6.8217-1.3319 8.4297-3.9941 1.6257-2.6813 2.4395-6.3797 2.4395-11.096 0-2.3391-0.27643-4.3152-0.82422-5.9316-0.54776-1.6354-1.2707-3.0622-2.1719-4.2793-0.90118-1.2361-1.8909-2.4068-2.9688-3.5098l-5.3809-5.5606c-1.0426-1.0649-1.7403-2.0066-2.0938-2.8242-0.35341-0.81771-0.52929-1.5777-0.52929-2.2812 0-0.70362 0.16623-1.2754 0.50195-1.7129 0.35342-0.45638 0.90233-0.68359 1.6445-0.68359 0.61846 0 1.1057 0.18998 1.459 0.57031 0.37107 0.38034 0.55468 0.91309 0.55468 1.5977v3.4512h9.4902c0-5.0013-0.90265-8.7284-2.7051-11.182-1.7847-2.4531-4.8136-3.6797-9.0898-3.6797zm-57.227 0.45508v0.00195 50.201h19.271v-9.7832h-9.7812v-11.496h8.7988v-9.4414h-8.7988v-9.7832h9.1719v-9.6992h-18.662zm-27.088 0.00195v50.201h9.2754v-22.764h4.4024v22.764h9.2754v-50.201h-9.2754v17.941h-4.4024v-17.941h-9.2754zm-26.08 59.428v51.115h9.334v-20.244h3.8574c2.6259 0 4.6494-0.6282 6.0703-1.8867 1.4388-1.2586 2.4386-3.0316 2.9961-5.3164 0.55753-2.3041 0.83398-5.0036 0.83398-8.1016 0-3.2141-0.33258-5.9851-0.99805-8.3086-0.66545-2.3235-1.7696-4.1126-3.3164-5.3711-1.5287-1.2586-3.6065-1.8867-6.2324-1.8867h-12.545zm28.568 0-4.5859 51.115h9.2266l0.5957-8.248h5.7188l0.67383 8.248h8.9824l-4.5059-51.115h-16.104-0.00196zm23.527 0v51.115h9.6035v-23.32c1.2589 0 2.167 0.18291 2.7246 0.55078 0.57554 0.34853 0.86328 1.2669 0.86328 2.7578v20.012h9.3613v-19.342c0-2.0137-0.3045-3.6516-0.91601-4.9102-0.59352-1.2779-1.638-2.081-3.1309-2.4102 1.8165-0.63895 3.0498-1.7899 3.6973-3.4551 0.66548-1.6652 0.99805-3.8935 0.99805-6.6816 0-2.8849-0.21678-5.3917-0.64844-7.5215-0.41366-2.1492-1.2414-3.813-2.4824-4.9941-1.241-1.2004-3.0758-1.8008-5.5039-1.8008h-14.566zm24.766 0v9.8164h5.6367v41.299h9.498v-41.299h5.6387v-9.8164h-20.773zm21.58 0 7.582 34.299v16.816h8.957v-16.816l7.5527-34.299h-9.3867l-2.6445 17.309-2.6445-17.309h-9.416zm-62.158 8.7109h0.00195 0.43164l2.0762 25.994h-4.3164l1.8066-25.994zm-26.951 0.61133h1.0547c1.4388 0 2.345 0.53082 2.7227 1.5957 0.39567 1.0456 0.59375 2.5384 0.59375 4.4746 0 2.0717-0.19808 3.6382-0.59375 4.7031-0.39567 1.0649-1.4738 1.5977-3.2363 1.5977h-0.54101v-12.371zm52.42 0.14453h2.2129c0.79135 0 1.3294 0.31009 1.6172 0.92969 0.28775 0.61958 0.43164 1.9256 0.43164 3.9199 0 3.0786-0.65388 4.6191-1.9668 4.6191h-2.2949v-9.4688zm135.51 80.053v19.344c0 2.0137 0.30451 3.6516 0.91602 4.9102 0.59352 1.2779 1.638 2.081 3.1309 2.4102-1.8165 0.63895-3.0498 1.7899-3.6973 3.4551-0.66548 1.6652-0.99804 3.8916-0.99804 6.6797 0 2.8849 0.21677 5.3917 0.64843 7.5215 0.41366 2.1492 1.2414 3.815 2.4824 4.9961 1.241 1.2004 3.0758 1.8008 5.5039 1.8008h14.566v-51.115h-9.6035v23.32c-1.2589 0-2.167-0.18291-2.7246-0.55078-0.57554-0.34853-0.86328-1.2688-0.86328-2.7598v-20.012h-9.3613zm-40.332 0.00195v16.816l-7.5527 34.299h9.3867l2.6445-17.309 2.6445 17.309h9.416l-7.582-34.299v-16.816h-8.957zm22.984 0v41.299h-5.6387v9.8164h20.773v-9.8164h-5.6367v-41.299h-9.498zm42.816 0 4.5059 51.115h16.104 0.00195l4.5859-51.115h-9.2266l-0.59571 8.248h-5.7188l-0.67382-8.248h-8.9824zm39.846 0v20.244h-3.8574c-2.6259 0-4.6494 0.6282-6.0703 1.8867-1.4388 1.2586-2.4386 3.0297-2.9961 5.3144-0.55753 2.3041-0.83399 5.0055-0.83399 8.1035 0 3.2141 0.33258 5.9832 0.99805 8.3066 0.66545 2.3235 1.7696 4.1146 3.3164 5.373 1.5287 1.2586 3.6065 1.8867 6.2324 1.8867h12.545v-51.115h-9.334zm-29.459 16.408h4.3145l-1.8066 25.994h-0.43165l-2.0762-25.994zm28.92 13.012h0.54102v12.373h-1.0547c-1.4388 0-2.345-0.53277-2.7226-1.5977-0.39567-1.0456-0.59375-2.5364-0.59375-4.4726 0-2.0717 0.19808-3.6402 0.59375-4.7051 0.39567-1.0649 1.4738-1.5977 3.2363-1.5977zm-54.174 2.7598h2.2949v9.4688h-2.2129c-0.79135 0-1.3294-0.31009-1.6172-0.92969-0.28775-0.61958-0.43164-1.9276-0.43164-3.9219 0-3.0786 0.65388-4.6172 1.9668-4.6172zm-47.592 27.705c-4.0112 0-6.8217 1.3299-8.4297 3.9922-1.6257 2.6813-2.4394 6.3797-2.4394 11.096 0 2.3391 0.27643 4.3172 0.82422 5.9336 0.54776 1.6354 1.2706 3.0602 2.1719 4.2773 0.90118 1.2361 1.8909 2.4068 2.9688 3.5098l5.3809 5.5625c1.0426 1.0649 1.7403 2.0066 2.0938 2.8242 0.35341 0.81771 0.5293 1.5777 0.5293 2.2812 0 0.70362-0.16623 1.2754-0.50195 1.7129-0.35342 0.45638-0.90234 0.68359-1.6445 0.68359-0.61846 0-1.1057-0.18998-1.459-0.57031-0.37107-0.38034-0.55469-0.91308-0.55469-1.5976v-3.4512h-9.4902c0 5.0013 0.90265 8.7284 2.7051 11.182 1.7847 2.4531 4.8136 3.6777 9.0898 3.6777 3.4988 0 6.1758-1.1213 8.0312-3.3652 1.8377-2.244 2.7578-5.5042 2.7578-9.7832 0-4.0886-1.5658-7.7209-4.6934-10.896l-4.1875-4.2793c-1.2369-1.2551-2.1995-2.3577-2.8887-3.3086-0.7068-0.93179-1.2016-1.9208-1.4844-2.9668-0.28273-1.0269-0.42383-2.3112-0.42383-3.8516 0-1.217 0.16816-2.0906 0.5039-2.623 0.31806-0.53246 0.90185-0.79883 1.75-0.79883 0.81284 0 1.3869 0.32414 1.7227 0.9707 0.31808 0.66557 0.47656 1.5783 0.47656 2.7383v6.2754h9.2246v-4.9082c0-4.9823-0.9375-8.6128-2.8105-10.895-1.8907-2.2819-4.9641-3.4219-9.2227-3.4219zm25.047 0c-4.0112 0-6.8198 1.3299-8.4277 3.9922-1.6257 2.6813-2.4375 6.3797-2.4375 11.096 0 2.3391 0.27251 4.3172 0.82031 5.9336 0.54777 1.6354 1.2726 3.0602 2.1738 4.2773 0.90118 1.2361 1.8908 2.4068 2.9688 3.5098l5.3789 5.5625c1.0425 1.0649 1.7403 2.0066 2.0938 2.8242 0.3534 0.81771 0.53125 1.5777 0.53125 2.2812 0 0.70362-0.16817 1.2754-0.50391 1.7129-0.35341 0.45638-0.90235 0.68359-1.6445 0.68359-0.61846 0-1.1016-0.18998-1.4551-0.57031-0.37107-0.38034-0.55859-0.91308-0.55859-1.5976v-3.4512h-9.4883c0 5.0013 0.90074 8.7284 2.7031 11.182 1.7847 2.4531 4.8155 3.6777 9.0918 3.6777 3.4988 0 6.1758-1.1213 8.0312-3.3652 1.8377-2.244 2.7559-5.5042 2.7559-9.7832 0-4.0886-1.5618-7.7209-4.6895-10.896l-4.1894-4.2793c-1.2369-1.2551-2.1996-2.3577-2.8887-3.3086-0.70681-0.93179-1.2036-1.9208-1.4863-2.9668-0.28271-1.0269-0.42187-2.3112-0.42187-3.8516 0-1.217 0.16621-2.0906 0.50195-2.623 0.31808-0.53246 0.90187-0.79883 1.75-0.79883 0.81284 0 1.3869 0.32414 1.7227 0.9707 0.31805 0.66557 0.47656 1.5783 0.47656 2.7383v6.2754h9.2246v-4.9082c0-4.9823-0.9355-8.6128-2.8086-10.895-1.8907-2.2819-4.966-3.4219-9.2246-3.4219zm75.383 0c-3.7108 0-6.6005 0.98715-8.668 2.9648-2.0674 1.9967-3.1016 5.2034-3.1016 9.6152v9.498h9.3828v-9.043c0-1.1219 0.16816-2.0347 0.5039-2.7383 0.31806-0.70361 0.87478-1.0547 1.6699-1.0547 0.70681 0 1.2538 0.28497 1.6426 0.85547 0.37107 0.57048 0.5586 1.5493 0.5586 2.9375v25.129c0 1.1219-0.15274 2.018-0.45313 2.6836-0.30041 0.6846-0.88223 1.0254-1.748 1.0254-0.74217 0-1.2892-0.26636-1.6426-0.79882-0.3534-0.51344-0.53125-1.5211-0.53125-3.0234v-7.416h-9.2754v8.6719c0 2.6433 0.49284 4.8281 1.4824 6.5586 0.98953 1.7495 2.3523 3.0627 4.084 3.9375 1.714 0.87475 3.6741 1.3106 5.8828 1.3106 4.0465 0 6.971-1.2907 8.7734-3.877 1.7848-2.5862 2.6758-6.3133 2.6758-11.182v-23.162c0-4.0695-1.0225-7.2351-3.0723-9.498-2.0675-2.263-4.7891-3.3945-8.1641-3.3945zm-61.23 0.45703v9.7832h9.7812v11.496h-8.7988v9.4395h8.7988v9.7852h-9.1719v9.6973h18.662v-50.201h-19.271zm23.406 0v50.201h9.2754v-17.941h4.4023v17.941h9.2754v-50.201h-9.2754v22.762h-4.4023v-22.762h-9.2754z" fill="#cfc8df"/>
</svg>
