<?xml version="1.0" encoding="UTF-8"?>
<svg width="1200" height="1200" shape-rendering="crispEdges" version="1.1" viewBox="0 0 1200 1200" xmlns="http://www.w3.org/2000/svg" xmlns:cc="http://creativecommons.org/ns#" xmlns:dc="http://purl.org/dc/elements/1.1/" xmlns:rdf="http://www.w3.org/1999/02/22-rdf-syntax-ns#" xmlns:xlink="http://www.w3.org/1999/xlink">
 <metadata>
  <rdf:RDF>
   <cc:Work rdf:about="">
    <dc:format>image/svg+xml</dc:format>
    <dc:type rdf:resource="http://purl.org/dc/dcmitype/StillImage"/>
    <dc:title/>
   </cc:Work>
  </rdf:RDF>
 </metadata>
 <rect width="1200" height="1200" fill="#eae9d2" stop-color="#000000" style="paint-order:stroke markers fill"/>
 <circle cx="600" cy="600" r="347.54" fill="none" opacity=".4" stop-color="#000000" stroke="#c255ae" stroke-width="32.82" style="paint-order:stroke markers fill"/>
 <g>
  <g transform="scale(150)" fill="#805280">
   <rect y="1" width="1" height="1"/>
   <use x="1" y="-1" width="100%" height="100%" href="#f" xlink:href="#f"/>
   <rect x="2" y="1" width="1" height="1"/>
   <use transform="translate(2)" x="1" y="-1" width="100%" height="100%" href="#f" xlink:href="#f"/>
   <rect x="4" y="1" width="1" height="1"/>
   <use transform="translate(4)" x="1" y="-1" width="100%" height="100%" href="#f" xlink:href="#f"/>
   <rect x="6" y="1" width="1" height="1"/>
   <use transform="translate(6)" x="1" y="-1" width="100%" height="100%" href="#f" xlink:href="#f"/>
   <rect y="3" width="1" height="1"/>
   <use transform="translate(0,2)" x="1" y="-1" width="100%" height="100%" href="#f" xlink:href="#f"/>
   <rect x="2" y="3" width="1" height="1"/>
   <use transform="translate(2,2)" x="1" y="-1" width="100%" height="100%" href="#f" xlink:href="#f"/>
   <rect x="4" y="3" width="1" height="1"/>
   <use transform="translate(4,2)" x="1" y="-1" width="100%" height="100%" href="#f" xlink:href="#f"/>
   <rect x="6" y="3" width="1" height="1"/>
   <use transform="translate(6,2)" x="1" y="-1" width="100%" height="100%" href="#f" xlink:href="#f"/>
   <rect y="5" width="1" height="1"/>
   <use transform="translate(0,4)" x="1" y="-1" width="100%" height="100%" href="#f" xlink:href="#f"/>
   <rect x="2" y="5" width="1" height="1"/>
   <use transform="translate(2,4)" x="1" y="-1" width="100%" height="100%" href="#f" xlink:href="#f"/>
   <rect x="4" y="5" width="1" height="1"/>
   <use transform="translate(4,4)" x="1" y="-1" width="100%" height="100%" href="#f" xlink:href="#f"/>
   <rect x="6" y="5" width="1" height="1"/>
   <use transform="translate(6,4)" x="1" y="-1" width="100%" height="100%" href="#f" xlink:href="#f"/>
   <rect y="7" width="1" height="1"/>
   <use transform="translate(0,6)" x="1" y="-1" width="100%" height="100%" href="#f" xlink:href="#f"/>
   <rect x="2" y="7" width="1" height="1"/>
   <use transform="translate(2,6)" x="1" y="-1" width="100%" height="100%" href="#f" xlink:href="#f"/>
   <rect x="4" y="7" width="1" height="1"/>
   <use transform="translate(4,6)" x="1" y="-1" width="100%" height="100%" href="#f" xlink:href="#f"/>
   <rect x="6" y="7" width="1" height="1"/>
   <use transform="translate(6,6)" x="1" y="-1" width="100%" height="100%" href="#f" xlink:href="#f"/>
  </g>
  <path d="m544.21 883.34c-3.9356-2.1355-5.5264-6.9703-3.5438-10.772 3.1488-6.0372 6.8364-11.588 11.174-16.82 25.962-31.314 91.327-127.2 94.977-139.33 1.3404-4.4494 0.3742-12.305-4.6738-38.001-0.6989-3.5579-1.6823-3.9273-14.078-5.2881l-6.8255-0.7492-8.0797 10.819c-11.423 15.296-29.04 33.514-41.324 42.733-13.359 10.025-33.088 20.284-49.704 25.844-11.994 4.0134-14.122 4.3469-27.598 4.3272-17.518-0.026-28.669-2.1908-40.694-7.9013-11.866-5.635-18.907-10.604-27.829-19.641-35.86-36.322-52.579-93.603-47.598-163.06 2.3565-32.856 7.0807-56.414 18.128-90.393 8.1368-25.03 14.09-39.46 24.928-60.42 15.4-29.785 29.825-50.007 48.144-67.49 17.977-17.157 34.289-25.893 56.849-30.447 10.954-2.2109 13.552-2.3436 20.991-1.0714 16.239 2.7771 28.931 12.319 37.32 28.06 11.534 21.638 20.772 58.271 21.389 84.809l0.2613 11.242 7.2978 0.82567c24.011 2.7166 45.478 16.812 61.043 40.083 15.04 22.486 24.216 57.816 29.054 111.88 1.1193 12.507 2.2715 22.986 2.5604 23.285 1.5782 1.6426 10.758-13.87 77.374-130.76 11.15-19.564 12.47-21.025 18.054-19.978 9.8427 1.8465 9.9238 8.1356 0.34 26.244-8.6032 16.255-39.012 68.755-74.993 129.47-8.2169 13.866-15.389 26.318-15.938 27.671-2.6147 6.4425-2.8733 13.461-1.2007 32.59 0.9757 11.161 2.8653 35.156 4.1987 53.322 2.8687 39.08 4.3256 51.927 6.9237 61.053 5.4847 19.266 14.912 35.346 23.008 39.244 17.356 8.3588 40.581 5.1917 59.007-8.0464 3.4063-2.4472 7.5152-4.4494 9.1308-4.4494 4.3264 0 10.157 6.1068 10.157 10.638 0 8.1993-24.618 24.87-43.045 29.148-24.758 5.7482-54.831-3.1064-73.104-21.525-18.928-19.078-35.37-47.348-45.669-78.524-3.2959-9.9774-6.4306-18.14-6.966-18.14-0.5355 0-12.783 17.848-27.217 39.662-29.923 45.222-69.401 98.805-74.114 100.6-3.863 1.4687-4.0501 1.4513-8.1213-0.7577zm-34.759-147.34c22.839-5.9085 42.313-16.607 60.262-33.106 9.2486-8.5018 30.746-33.216 30.746-35.346 0-0.71107-4.4417-3.1111-9.8704-5.3333-41.451-16.967-74.347-53.355-82.427-91.174-3.0681-14.361-3.1074-41.464-0.078-53.498 5.8259-23.14 20.928-44.992 37.563-54.351 3.7669-2.1195 10.723-6.1659 15.458-8.9919 4.7348-2.826 12.206-6.5744 16.603-8.3298l7.994-3.1916 0.3596-12.068c0.5994-20.121-5.7082-51.909-12.664-63.825-1.6126-2.7622-5.1779-7.0513-7.9229-9.5309-11.355-10.259-22.037-4.627-46.248 24.382-38.275 45.862-67.862 122.63-79.158 205.39-8.4323 61.778-6.2063 95.282 8.1512 122.68 8.0525 15.366 17.405 23.548 31.132 27.237 9.5992 2.5796 17.438 2.3346 30.101-0.9412zm130.94-86.558c-0.037-5.512-0.1463-5.7029-1.9385-3.3821-1.0447 1.3528-2.7015 3.9816-3.6819 5.8417-1.7589 3.337-1.7332 3.3821 1.9384 3.3821 3.6248 0 3.7202-0.15119 3.682-5.8417zm-17.404-15.377c14.223-23.889 14.984-25.605 14.977-33.767-0.01-8.9045-3.2501-47.062-5.045-59.388-2.2284-15.305-8.4786-38.299-12.45-45.802-3.9658-7.4924-15.544-20.102-16.978-18.492-0.469 0.52663-1.5303 4.5548-2.3584 8.9515-4.9896 26.494-31.222 84.314-40.086 88.352-12.112 5.5187-20.374-5.022-11.69-14.913 11.746-13.377 29.045-54.227 33.575-79.28l1.8342-10.146h-3.3049c-1.8176 0-6.3108 0.88292-9.9847 1.9621-27.175 7.9821-43.39 30.502-46.54 64.638-4.5227 49.013 26.694 92.395 80.444 111.78 3.382 1.2204 6.5438 2.2593 7.0261 2.3087 0.4823 0.0498 5.2438-7.2447 10.582-16.209z" fill="#c255ae" opacity=".40332" stroke-width="1.2298"/>
  <g transform="matrix(150.25,0,0,150.25,-1,-1)" fill="#785278" opacity=".7">
   <rect id="f" y="1" width="1" height="1" fill="#785278"/>
   <use x="1" y="-1" width="100%" height="100%" href="#f" xlink:href="#f"/>
   <rect x="2" y="1" width="1" height="1"/>
   <use transform="translate(2)" x="1" y="-1" width="100%" height="100%" href="#f" xlink:href="#f"/>
   <rect x="4" y="1" width="1" height="1"/>
   <use transform="translate(4)" x="1" y="-1" width="100%" height="100%" href="#f" xlink:href="#f"/>
   <rect x="6" y="1" width="1" height="1"/>
   <use transform="translate(6)" x="1" y="-1" width="100%" height="100%" href="#f" xlink:href="#f"/>
   <rect y="3" width="1" height="1"/>
   <use transform="translate(0,2)" x="1" y="-1" width="100%" height="100%" href="#f" xlink:href="#f"/>
   <rect x="2" y="3" width="1" height="1"/>
   <use transform="translate(2,2)" x="1" y="-1" width="100%" height="100%" href="#f" xlink:href="#f"/>
   <rect x="4" y="3" width="1" height="1"/>
   <use transform="translate(4,2)" x="1" y="-1" width="100%" height="100%" href="#f" xlink:href="#f"/>
   <rect x="6" y="3" width="1" height="1"/>
   <use transform="translate(6,2)" x="1" y="-1" width="100%" height="100%" href="#f" xlink:href="#f"/>
   <rect y="5" width="1" height="1"/>
   <use transform="translate(0,4)" x="1" y="-1" width="100%" height="100%" href="#f" xlink:href="#f"/>
   <rect x="2" y="5" width="1" height="1"/>
   <use transform="translate(2,4)" x="1" y="-1" width="100%" height="100%" href="#f" xlink:href="#f"/>
   <rect x="4" y="5" width="1" height="1"/>
   <use transform="translate(4,4)" x="1" y="-1" width="100%" height="100%" href="#f" xlink:href="#f"/>
   <rect x="6" y="5" width="1" height="1"/>
   <use transform="translate(6,4)" x="1" y="-1" width="100%" height="100%" href="#f" xlink:href="#f"/>
   <rect y="7" width="1" height="1"/>
   <use transform="translate(0,6)" x="1" y="-1" width="100%" height="100%" href="#f" xlink:href="#f"/>
   <rect x="2" y="7" width="1" height="1"/>
   <use transform="translate(2,6)" x="1" y="-1" width="100%" height="100%" href="#f" xlink:href="#f"/>
   <rect x="4" y="7" width="1" height="1"/>
   <use transform="translate(4,6)" x="1" y="-1" width="100%" height="100%" href="#f" xlink:href="#f"/>
   <rect x="6" y="7" width="1" height="1"/>
   <use transform="translate(6,6)" x="1" y="-1" width="100%" height="100%" href="#f" xlink:href="#f"/>
  </g>
 </g>
</svg>
