<?xml version="1.0" encoding="UTF-8" standalone="no"?>
<svg
   xmlns:dc="http://purl.org/dc/elements/1.1/"
   xmlns:cc="http://creativecommons.org/ns#"
   xmlns:rdf="http://www.w3.org/1999/02/22-rdf-syntax-ns#"
   xmlns:svg="http://www.w3.org/2000/svg"
   xmlns="http://www.w3.org/2000/svg"
   xmlns:xlink="http://www.w3.org/1999/xlink"
   xmlns:sodipodi="http://sodipodi.sourceforge.net/DTD/sodipodi-0.dtd"
   xmlns:inkscape="http://www.inkscape.org/namespaces/inkscape"
   viewBox="0 0 1200 1200"
   shape-rendering="crispEdges"
   version="1.1"
   id="svg1017"
   sodipodi:docname="board-2.svg"
   width="1200"
   height="1200"
   inkscape:version="1.0.2-2 (e86c870879, 2021-01-15)">
  <metadata
     id="metadata1023">
    <rdf:RDF>
      <cc:Work
         rdf:about="">
        <dc:format>image/svg+xml</dc:format>
        <dc:type
           rdf:resource="http://purl.org/dc/dcmitype/StillImage" />
        <dc:title></dc:title>
      </cc:Work>
    </rdf:RDF>
  </metadata>
  <defs
     id="defs1021" />
  <sodipodi:namedview
     pagecolor="#ffffff"
     bordercolor="#666666"
     borderopacity="1"
     objecttolerance="10"
     gridtolerance="10"
     guidetolerance="10"
     inkscape:pageopacity="0"
     inkscape:pageshadow="2"
     inkscape:window-width="1920"
     inkscape:window-height="1017"
     id="namedview1019"
     showgrid="false"
     inkscape:pagecheckerboard="true"
     inkscape:zoom="0.5"
     inkscape:cx="454.91773"
     inkscape:cy="491.17701"
     inkscape:window-x="-8"
     inkscape:window-y="-8"
     inkscape:window-maximized="1"
     inkscape:current-layer="svg1017" />
  <rect
     style="fill:#eae9d2;fill-opacity:1;paint-order:stroke markers fill;stop-color:#000000"
     id="rect1751"
     width="1200"
     height="1200"
     x="0"
     y="0" />
  <circle
     style="opacity:0.09668508;fill:#6d00ff;fill-opacity:1;paint-order:stroke markers fill;stop-color:#000000"
     id="path1990"
     cx="600"
     cy="600"
     r="375" />
  <g
     id="g1918"
     transform="scale(150)"
     style="fill:#805280;fill-opacity:1">
    <rect
       y="1"
       width="1"
       height="1"
       fill="#86a666"
       id="rect1854"
       x="0"
       style="fill:#805280;fill-opacity:1" />
    <use
       x="1"
       y="-1"
       href="#f"
       xlink:href="#f"
       id="use1856"
       width="100%"
       height="100%"
       style="fill:#805280;fill-opacity:1" />
    <rect
       y="1"
       width="1"
       height="1"
       fill="#86a666"
       id="rect1858"
       x="2"
       style="fill:#805280;fill-opacity:1" />
    <use
       x="1"
       y="-1"
       href="#f"
       xlink:href="#f"
       id="use1860"
       width="100%"
       height="100%"
       transform="translate(2)"
       style="fill:#805280;fill-opacity:1" />
    <rect
       y="1"
       width="1"
       height="1"
       fill="#86a666"
       id="rect1862"
       x="4"
       style="fill:#805280;fill-opacity:1" />
    <use
       x="1"
       y="-1"
       href="#f"
       xlink:href="#f"
       id="use1864"
       width="100%"
       height="100%"
       transform="translate(4)"
       style="fill:#805280;fill-opacity:1" />
    <rect
       y="1"
       width="1"
       height="1"
       fill="#86a666"
       id="rect1866"
       x="6"
       style="fill:#805280;fill-opacity:1" />
    <use
       x="1"
       y="-1"
       href="#f"
       xlink:href="#f"
       id="use1868"
       width="100%"
       height="100%"
       transform="translate(6)"
       style="fill:#805280;fill-opacity:1" />
    <rect
       y="3"
       width="1"
       height="1"
       fill="#86a666"
       id="rect1870"
       x="0"
       style="fill:#805280;fill-opacity:1" />
    <use
       x="1"
       y="-1"
       href="#f"
       xlink:href="#f"
       id="use1872"
       width="100%"
       height="100%"
       transform="translate(0,2)"
       style="fill:#805280;fill-opacity:1" />
    <rect
       y="3"
       width="1"
       height="1"
       fill="#86a666"
       id="rect1874"
       x="2"
       style="fill:#805280;fill-opacity:1" />
    <use
       x="1"
       y="-1"
       href="#f"
       xlink:href="#f"
       id="use1876"
       width="100%"
       height="100%"
       transform="translate(2,2)"
       style="fill:#805280;fill-opacity:1" />
    <rect
       y="3"
       width="1"
       height="1"
       fill="#86a666"
       id="rect1878"
       x="4"
       style="fill:#805280;fill-opacity:1" />
    <use
       x="1"
       y="-1"
       href="#f"
       xlink:href="#f"
       id="use1880"
       width="100%"
       height="100%"
       transform="translate(4,2)"
       style="fill:#805280;fill-opacity:1" />
    <rect
       y="3"
       width="1"
       height="1"
       fill="#86a666"
       id="rect1882"
       x="6"
       style="fill:#805280;fill-opacity:1" />
    <use
       x="1"
       y="-1"
       href="#f"
       xlink:href="#f"
       id="use1884"
       width="100%"
       height="100%"
       transform="translate(6,2)"
       style="fill:#805280;fill-opacity:1" />
    <rect
       y="5"
       width="1"
       height="1"
       fill="#86a666"
       id="rect1886"
       x="0"
       style="fill:#805280;fill-opacity:1" />
    <use
       x="1"
       y="-1"
       href="#f"
       xlink:href="#f"
       id="use1888"
       width="100%"
       height="100%"
       transform="translate(0,4)"
       style="fill:#805280;fill-opacity:1" />
    <rect
       y="5"
       width="1"
       height="1"
       fill="#86a666"
       id="rect1890"
       x="2"
       style="fill:#805280;fill-opacity:1" />
    <use
       x="1"
       y="-1"
       href="#f"
       xlink:href="#f"
       id="use1892"
       width="100%"
       height="100%"
       transform="translate(2,4)"
       style="fill:#805280;fill-opacity:1" />
    <rect
       y="5"
       width="1"
       height="1"
       fill="#86a666"
       id="rect1894"
       x="4"
       style="fill:#805280;fill-opacity:1" />
    <use
       x="1"
       y="-1"
       href="#f"
       xlink:href="#f"
       id="use1896"
       width="100%"
       height="100%"
       transform="translate(4,4)"
       style="fill:#805280;fill-opacity:1" />
    <rect
       y="5"
       width="1"
       height="1"
       fill="#86a666"
       id="rect1898"
       x="6"
       style="fill:#805280;fill-opacity:1" />
    <use
       x="1"
       y="-1"
       href="#f"
       xlink:href="#f"
       id="use1900"
       width="100%"
       height="100%"
       transform="translate(6,4)"
       style="fill:#805280;fill-opacity:1" />
    <rect
       y="7"
       width="1"
       height="1"
       fill="#86a666"
       id="rect1902"
       x="0"
       style="fill:#805280;fill-opacity:1" />
    <use
       x="1"
       y="-1"
       href="#f"
       xlink:href="#f"
       id="use1904"
       width="100%"
       height="100%"
       transform="translate(0,6)"
       style="fill:#805280;fill-opacity:1" />
    <rect
       y="7"
       width="1"
       height="1"
       fill="#86a666"
       id="rect1906"
       x="2"
       style="fill:#805280;fill-opacity:1" />
    <use
       x="1"
       y="-1"
       href="#f"
       xlink:href="#f"
       id="use1908"
       width="100%"
       height="100%"
       transform="translate(2,6)"
       style="fill:#805280;fill-opacity:1" />
    <rect
       y="7"
       width="1"
       height="1"
       fill="#86a666"
       id="rect1910"
       x="4"
       style="fill:#805280;fill-opacity:1" />
    <use
       x="1"
       y="-1"
       href="#f"
       xlink:href="#f"
       id="use1912"
       width="100%"
       height="100%"
       transform="translate(4,6)"
       style="fill:#805280;fill-opacity:1" />
    <rect
       y="7"
       width="1"
       height="1"
       fill="#86a666"
       id="rect1914"
       x="6"
       style="fill:#805280;fill-opacity:1" />
    <use
       x="1"
       y="-1"
       href="#f"
       xlink:href="#f"
       id="use1916"
       width="100%"
       height="100%"
       transform="translate(6,6)"
       style="fill:#805280;fill-opacity:1" />
  </g>
  <path
     d="m 544.21316,883.34503 c -3.9356,-2.13549 -5.52633,-6.97031 -3.54378,-10.77154 3.14882,-6.03714 6.83639,-11.58782 11.17369,-16.81955 25.96215,-31.31379 91.32734,-127.19583 94.9772,-139.3251 1.3404,-4.44945 0.3742,-12.30543 -4.67378,-38.00102 -0.69888,-3.55788 -1.68232,-3.92729 -14.07824,-5.28808 l -6.82551,-0.74925 -8.07975,10.81857 c -11.42272,15.29579 -29.04013,33.51367 -41.32434,42.73282 -13.3588,10.02532 -33.08754,20.284 -49.70417,25.84409 -11.99366,4.01345 -14.12159,4.34698 -27.59752,4.32724 -17.51779,-0.0259 -28.66933,-2.19083 -40.69344,-7.90127 -11.86547,-5.63499 -18.9069,-10.60456 -27.82905,-19.6411 -35.8602,-36.32229 -52.5792,-93.60286 -47.59744,-163.05787 2.35649,-32.856 7.08063,-56.41353 18.12748,-90.39301 8.13683,-25.02963 14.09023,-39.46023 24.92818,-60.42034 15.40001,-29.7854 29.82506,-50.00669 48.1444,-67.49035 17.97713,-17.15714 34.28938,-25.89297 56.84888,-30.44675 10.95416,-2.21093 13.55157,-2.34357 20.99146,-1.07144 16.23938,2.7771 28.93129,12.31928 37.32031,28.05964 11.53342,21.63807 20.77194,58.2712 21.38902,84.80892 l 0.26131,11.24193 7.29784,0.82567 c 24.01134,2.71659 45.47782,16.81217 61.04294,40.08284 15.04029,22.48568 24.21609,57.81644 29.05396,111.87512 1.11931,12.50652 2.27145,22.98565 2.56035,23.28542 1.57828,1.64258 10.75767,-13.8698 77.37362,-130.7562 11.1497,-19.56362 12.47054,-21.02467 18.05368,-19.97777 9.8427,1.84651 9.92386,8.13555 0.34009,26.24441 -8.6032,16.25504 -39.01195,68.75491 -74.99297,129.4741 -8.2169,13.86609 -15.38894,26.31818 -15.93775,27.67131 -2.61477,6.44253 -2.87331,13.46117 -1.20075,32.59036 0.97576,11.16077 2.86528,35.15548 4.19874,53.32171 2.8687,39.08022 4.32558,51.92708 6.92373,61.05308 5.48464,19.26569 14.91209,35.3455 23.00779,39.24439 17.35545,8.35877 40.58091,5.1917 59.00725,-8.04636 3.40635,-2.44725 7.51517,-4.44946 9.1308,-4.44946 4.3264,0 10.15722,6.10679 10.15722,10.63779 0,8.19928 -24.61826,24.87006 -43.04458,29.14803 -24.75755,5.74818 -54.83074,-3.10637 -73.10395,-21.52458 -18.92811,-19.07754 -35.36949,-47.3484 -45.66875,-78.52383 -3.29593,-9.97736 -6.43064,-18.14041 -6.96607,-18.14041 -0.53544,0 -12.78323,17.84801 -27.21658,39.66223 -29.92285,45.22232 -69.40059,98.80507 -74.11396,100.60369 -3.86299,1.46872 -4.05007,1.45129 -8.12134,-0.75772 z M 509.4543,736.00446 c 22.83898,-5.90848 42.31312,-16.6074 60.26167,-33.10597 9.24867,-8.50183 30.74561,-33.21573 30.74561,-35.34642 0,-0.71107 -4.4417,-3.1111 -9.87036,-5.33328 -41.45073,-16.96712 -74.34731,-53.35493 -82.42733,-91.17423 -3.06811,-14.36143 -3.1074,-41.46364 -0.0775,-53.4979 5.82592,-23.13965 20.92782,-44.99168 37.56288,-54.35105 3.76691,-2.11954 10.72264,-6.16591 15.45813,-8.99189 4.73485,-2.82598 12.20582,-6.57442 16.60279,-8.32981 l 7.99399,-3.19161 0.35962,-12.06838 c 0.59945,-20.12073 -5.70823,-51.90863 -12.66424,-63.82482 -1.6126,-2.76225 -5.17785,-7.0513 -7.92285,-9.53093 -11.35538,-10.25868 -22.03744,-4.62701 -46.24801,24.38212 -38.27496,45.86153 -67.86206,122.63004 -79.15842,205.39497 -8.43229,61.77806 -6.2063,95.28158 8.15123,122.67619 8.05254,15.36588 17.40526,23.54829 31.13208,27.23688 9.59918,2.57962 17.43847,2.33454 30.10086,-0.94121 z m 130.94068,-86.55774 c -0.0369,-5.51203 -0.14629,-5.70287 -1.93847,-3.38208 -1.04468,1.35285 -2.70154,3.98163 -3.68194,5.84171 -1.75888,3.33705 -1.73315,3.38207 1.93847,3.38207 3.62476,0 3.72013,-0.15119 3.68194,-5.8417 z m -17.40434,-15.37694 c 14.22306,-23.88867 14.98403,-25.6052 14.97664,-33.76731 -0.009,-8.90446 -3.25008,-47.06156 -5.04493,-59.3882 -2.22846,-15.30501 -8.47869,-38.29895 -12.45025,-45.80249 -3.96576,-7.49244 -15.54392,-20.10226 -16.97821,-18.49179 -0.46903,0.52663 -1.53031,4.55478 -2.35834,8.95148 -4.9896,26.49434 -31.22246,84.31355 -40.08559,88.35173 -12.11173,5.51868 -20.3744,-5.02197 -11.69021,-14.913 11.74555,-13.37723 29.04474,-54.22657 33.57453,-79.28015 l 1.83424,-10.14614 h -3.30487 c -1.81764,0 -6.31082,0.88292 -9.98474,1.96207 -27.17508,7.98207 -43.38955,30.50207 -46.53947,64.63834 -4.52269,49.01329 26.69361,92.39454 80.44423,111.7829 3.38207,1.22042 6.54379,2.25928 7.02611,2.30873 0.48231,0.0498 5.24381,-7.24473 10.58151,-16.20895 z"
     stroke-width="1.22981"
     id="path1797"
     style="opacity:0.403315;fill:#c255ae;fill-opacity:1" />
  <g
     id="g1581"
     transform="matrix(150.25,0,0,150.25,-1,-1)"
     style="opacity:0.7;fill:#785278;fill-opacity:1">
    <rect
       y="1"
       width="1"
       height="1"
       fill="#86a666"
       id="f"
       x="0"
       style="fill:#785278;fill-opacity:1" />
    <use
       x="1"
       y="-1"
       href="#f"
       xlink:href="#f"
       id="use1003"
       width="100%"
       height="100%"
       style="fill:#785278;fill-opacity:1" />
    <rect
       y="1"
       width="1"
       height="1"
       fill="#86a666"
       id="rect1339"
       x="2"
       style="fill:#785278;fill-opacity:1" />
    <use
       x="1"
       y="-1"
       href="#f"
       xlink:href="#f"
       id="use1341"
       width="100%"
       height="100%"
       transform="translate(2)"
       style="fill:#785278;fill-opacity:1" />
    <rect
       y="1"
       width="1"
       height="1"
       fill="#86a666"
       id="rect1235"
       x="4"
       style="fill:#785278;fill-opacity:1" />
    <use
       x="1"
       y="-1"
       href="#f"
       xlink:href="#f"
       id="use1237"
       width="100%"
       height="100%"
       transform="translate(4)"
       style="fill:#785278;fill-opacity:1" />
    <rect
       y="1"
       width="1"
       height="1"
       fill="#86a666"
       id="rect1349"
       x="6"
       style="fill:#785278;fill-opacity:1" />
    <use
       x="1"
       y="-1"
       href="#f"
       xlink:href="#f"
       id="use1351"
       width="100%"
       height="100%"
       transform="translate(6)"
       style="fill:#785278;fill-opacity:1" />
    <rect
       y="3"
       width="1"
       height="1"
       fill="#86a666"
       id="rect1173"
       x="0"
       style="fill:#785278;fill-opacity:1" />
    <use
       x="1"
       y="-1"
       href="#f"
       xlink:href="#f"
       id="use1175"
       width="100%"
       height="100%"
       transform="translate(0,2)"
       style="fill:#785278;fill-opacity:1" />
    <rect
       y="3"
       width="1"
       height="1"
       fill="#86a666"
       id="rect1369"
       x="2"
       style="fill:#785278;fill-opacity:1" />
    <use
       x="1"
       y="-1"
       href="#f"
       xlink:href="#f"
       id="use1371"
       width="100%"
       height="100%"
       transform="translate(2,2)"
       style="fill:#785278;fill-opacity:1" />
    <rect
       y="3"
       width="1"
       height="1"
       fill="#86a666"
       id="rect1249"
       x="4"
       style="fill:#785278;fill-opacity:1" />
    <use
       x="1"
       y="-1"
       href="#f"
       xlink:href="#f"
       id="use1251"
       width="100%"
       height="100%"
       transform="translate(4,2)"
       style="fill:#785278;fill-opacity:1" />
    <rect
       y="3"
       width="1"
       height="1"
       fill="#86a666"
       id="rect1359"
       x="6"
       style="fill:#785278;fill-opacity:1" />
    <use
       x="1"
       y="-1"
       href="#f"
       xlink:href="#f"
       id="use1361"
       width="100%"
       height="100%"
       transform="translate(6,2)"
       style="fill:#785278;fill-opacity:1" />
    <rect
       y="5"
       width="1"
       height="1"
       fill="#86a666"
       id="rect1141"
       x="0"
       style="fill:#785278;fill-opacity:1" />
    <use
       x="1"
       y="-1"
       href="#f"
       xlink:href="#f"
       id="use1143"
       width="100%"
       height="100%"
       transform="translate(0,4)"
       style="fill:#785278;fill-opacity:1" />
    <rect
       y="5"
       width="1"
       height="1"
       fill="#86a666"
       id="rect1389"
       x="2"
       style="fill:#785278;fill-opacity:1" />
    <use
       x="1"
       y="-1"
       href="#f"
       xlink:href="#f"
       id="use1391"
       width="100%"
       height="100%"
       transform="translate(2,4)"
       style="fill:#785278;fill-opacity:1" />
    <rect
       y="5"
       width="1"
       height="1"
       fill="#86a666"
       id="rect1277"
       x="4"
       style="fill:#785278;fill-opacity:1" />
    <use
       x="1"
       y="-1"
       href="#f"
       xlink:href="#f"
       id="use1279"
       width="100%"
       height="100%"
       transform="translate(4,4)"
       style="fill:#785278;fill-opacity:1" />
    <rect
       y="5"
       width="1"
       height="1"
       fill="#86a666"
       id="rect1379"
       x="6"
       style="fill:#785278;fill-opacity:1" />
    <use
       x="1"
       y="-1"
       href="#f"
       xlink:href="#f"
       id="use1381"
       width="100%"
       height="100%"
       transform="translate(6,4)"
       style="fill:#785278;fill-opacity:1" />
    <rect
       y="7"
       width="1"
       height="1"
       fill="#86a666"
       id="rect1191"
       x="0"
       style="fill:#785278;fill-opacity:1" />
    <use
       x="1"
       y="-1"
       href="#f"
       xlink:href="#f"
       id="use1193"
       width="100%"
       height="100%"
       transform="translate(0,6)"
       style="fill:#785278;fill-opacity:1" />
    <rect
       y="7"
       width="1"
       height="1"
       fill="#86a666"
       id="rect1409"
       x="2"
       style="fill:#785278;fill-opacity:1" />
    <use
       x="1"
       y="-1"
       href="#f"
       xlink:href="#f"
       id="use1411"
       width="100%"
       height="100%"
       transform="translate(2,6)"
       style="fill:#785278;fill-opacity:1" />
    <rect
       y="7"
       width="1"
       height="1"
       fill="#86a666"
       id="rect1263"
       x="4"
       style="fill:#785278;fill-opacity:1" />
    <use
       x="1"
       y="-1"
       href="#f"
       xlink:href="#f"
       id="use1265"
       width="100%"
       height="100%"
       transform="translate(4,6)"
       style="fill:#785278;fill-opacity:1" />
    <rect
       y="7"
       width="1"
       height="1"
       fill="#86a666"
       id="rect1399"
       x="6"
       style="fill:#785278;fill-opacity:1" />
    <use
       x="1"
       y="-1"
       href="#f"
       xlink:href="#f"
       id="use1401"
       width="100%"
       height="100%"
       transform="translate(6,6)"
       style="fill:#785278;fill-opacity:1" />
  </g>
</svg>
